<?xml version="1.0" encoding="utf-8"?>
<!-- Generator: Adobe Illustrator 24.2.3, SVG Export Plug-In . SVG Version: 6.00 Build 0)  -->
<svg version="1.1" id="Layer_1" xmlns="http://www.w3.org/2000/svg" xmlns:xlink="http://www.w3.org/1999/xlink" x="0px" y="0px"
	 viewBox="0 0 244.69 214.67" style="enable-background:new 0 0 244.69 214.67;" xml:space="preserve">
<style type="text/css">
	.st0{fill:none;stroke:#00417B;stroke-miterlimit:8;}
	.st1{fill-rule:evenodd;clip-rule:evenodd;fill:#00417B;}
	.st2{fill:#00417B;}
	.st3{fill:#868686;}
	.st4{fill-rule:evenodd;clip-rule:evenodd;fill:none;stroke:#00417B;stroke-miterlimit:10;}
	.st5{fill:#FFFFFF;}
	.st6{fill:none;stroke:#00417B;stroke-width:0.75;stroke-miterlimit:10;}
	.st7{fill:#4CA5DD;}
</style>
<g>
	<line class="st0" x1="122.15" y1="174.03" x2="126.56" y2="174.03"/>
	<polygon class="st1" points="125.78,172.28 130.46,174.03 125.78,175.79 	"/>
</g>
<path class="st2" d="M140.39,137.31h96.11c2.83,0,5.13,2.74,5.13,6.11v19.94c0,3.38-2.29,6.11-5.13,6.11h-96.11
	c-2.83,0-5.13-2.74-5.13-6.11v-19.94C135.27,140.05,137.56,137.31,140.39,137.31z"/>
<path class="st3" d="M140.39,178.71h96.11c2.83,0,5.13,2.74,5.13,6.11v19.94c0,3.38-2.29,6.11-5.13,6.11h-96.11
	c-2.83,0-5.13-2.74-5.13-6.11v-19.94C135.27,181.45,137.56,178.71,140.39,178.71z"/>
<path class="st0" d="M135.27,154.28h-2.18c-1.63,0-2.94,1.29-2.94,2.89v33.72c0,1.6,1.32,2.89,2.94,2.89h2.18"/>
<path class="st4" d="M8.64,3.79h107.92c3.09,0,5.59,2.38,5.59,5.32v64.01c0,2.94-2.5,5.32-5.59,5.32H8.64
	c-3.09,0-5.59-2.38-5.59-5.32V9.12C3.06,6.18,5.56,3.79,8.64,3.79z"/>
<g>
	<line class="st0" x1="122.15" y1="41.12" x2="126.56" y2="41.12"/>
	<polygon class="st1" points="125.78,39.37 130.46,41.12 125.78,42.88 	"/>
</g>
<path class="st2" d="M140.39,3.79h96.11c2.83,0,5.13,2.74,5.13,6.11v19.94c0,3.38-2.29,6.11-5.13,6.11h-96.11
	c-2.83,0-5.13-2.74-5.13-6.11V9.91C135.27,6.53,137.56,3.79,140.39,3.79z"/>
<path class="st3" d="M140.39,46.29h96.11c2.83,0,5.13,2.74,5.13,6.11v19.94c0,3.38-2.29,6.11-5.13,6.11h-96.11
	c-2.83,0-5.13-2.74-5.13-6.11V52.4C135.27,49.02,137.56,46.29,140.39,46.29z"/>
<g>
	<path class="st2" d="M14.15,16.34l-0.74,1.97h-0.77l2.76-7.12h0.95l2.79,7.12h-0.79l-0.74-1.97H14.15z M15.87,11.79l-1.49,3.93
		h2.99L15.87,11.79z"/>
	<path class="st2" d="M24.57,18.24c-0.56,0.13-1.15,0.19-1.7,0.19c-1.81,0-3.03-0.98-3.03-2.73c0-1.76,1.32-2.73,2.88-2.73
		c0.4,0,0.88,0.08,1.14,0.24v-3.05h0.72V18.24z M23.85,13.85c-0.26-0.14-0.66-0.24-1.14-0.24c-1.21,0-2.15,0.74-2.15,2.09
		c0,1.33,0.92,2.1,2.3,2.1c0.34,0,0.67-0.01,0.98-0.06V13.85z"/>
	<path class="st2" d="M30.45,18.25c-0.64,0.12-1.28,0.18-1.82,0.18c-1.51,0-2.38-0.52-2.38-1.82v-3.53h0.72v3.49
		c0,0.98,0.78,1.24,1.61,1.24c0.36,0,0.77-0.02,1.15-0.07v-4.65h0.72V18.25z"/>
	<path class="st2" d="M32.97,18.31h-0.72v-8.16h0.72V18.31z"/>
	<path class="st2" d="M34.05,13.08h0.8v-1.27h0.72v1.27h1.47v0.61h-1.47v3.19c0,0.67,0.26,0.94,0.76,0.94
		c0.34,0,0.61-0.11,0.97-0.29v0.64c-0.31,0.16-0.67,0.26-1.13,0.26c-0.76,0-1.32-0.4-1.32-1.48v-3.26h-0.8V13.08z"/>
	<path class="st2" d="M38.25,17.2c0.44,0.4,0.9,0.62,1.47,0.62c0.66,0,1.08-0.25,1.08-0.84c0-0.62-0.46-0.79-1.28-1.07
		c-0.92-0.31-1.32-0.7-1.32-1.54c0-0.92,0.7-1.42,1.64-1.42c0.52,0,1.02,0.11,1.43,0.4v0.78c-0.41-0.34-0.83-0.56-1.43-0.56
		c-0.58,0-0.95,0.31-0.95,0.8c0,0.48,0.29,0.73,1.09,0.98c0.91,0.28,1.52,0.62,1.52,1.57c0,1.03-0.8,1.5-1.79,1.5
		c-0.59,0-1.15-0.17-1.47-0.42V17.2z"/>
	<path class="st2" d="M49.8,17.65l1.31-4.57h0.72l-1.58,5.23h-0.88l-1.26-4.45l-1.26,4.45h-0.88l-1.58-5.23h0.76l1.31,4.57
		l1.29-4.57h0.74L49.8,17.65z"/>
	<path class="st2" d="M52.61,11.45c0-0.3,0.25-0.54,0.54-0.54c0.3,0,0.54,0.24,0.54,0.54c0,0.29-0.24,0.54-0.54,0.54
		C52.87,11.99,52.61,11.74,52.61,11.45z M53.51,18.31h-0.72v-5.23h0.72V18.31z"/>
	<path class="st2" d="M54.59,13.08h0.8v-1.27h0.72v1.27h1.47v0.61h-1.47v3.19c0,0.67,0.26,0.94,0.76,0.94
		c0.34,0,0.61-0.11,0.97-0.29v0.64c-0.31,0.16-0.67,0.26-1.13,0.26c-0.76,0-1.32-0.4-1.32-1.48v-3.26h-0.8V13.08z"/>
	<path class="st2" d="M59.11,10.16h0.72v3.08c0.4-0.14,0.98-0.28,1.54-0.28c1.26,0,2.06,0.52,2.06,1.82v3.53H62.7v-3.38
		c0-1.07-0.76-1.29-1.46-1.29c-0.55,0-1.06,0.12-1.42,0.24v4.44h-0.72V10.16z"/>
	<path class="st2" d="M70.7,18.31l-1.96-6.42l-1.09,6.42h-0.72l1.27-7.12h0.99l1.94,6.37l1.94-6.37h1l1.27,7.12h-0.74l-1.09-6.42
		l-1.96,6.42H70.7z"/>
	<path class="st2" d="M76.76,11.16c0.53-0.06,1.02-0.1,1.46-0.1c3.26,0,4.37,1.69,4.37,3.51c0,2-1.16,3.85-4.27,3.85
		c-0.6,0-1.05-0.05-1.56-0.11V11.16z M77.5,17.74c0.29,0.04,0.56,0.05,0.83,0.05c2.04,0,3.48-1.02,3.48-3.19
		c0-1.68-1.07-2.85-3.61-2.85c-0.23,0-0.45,0.01-0.7,0.04V17.74z"/>
	<path class="st2" d="M84.15,11.16c0.53-0.06,1.02-0.1,1.46-0.1c3.26,0,4.37,1.69,4.37,3.51c0,2-1.16,3.85-4.27,3.85
		c-0.6,0-1.05-0.05-1.56-0.11V11.16z M84.89,17.74c0.29,0.04,0.56,0.05,0.83,0.05c2.04,0,3.48-1.02,3.48-3.19
		c0-1.68-1.07-2.85-3.61-2.85c-0.23,0-0.44,0.01-0.7,0.04V17.74z"/>
	<path class="st2" d="M98.27,17.65l1.31-4.57h0.72l-1.58,5.23h-0.88l-1.26-4.45l-1.26,4.45h-0.88l-1.58-5.23h0.76l1.31,4.57
		l1.29-4.57h0.74L98.27,17.65z"/>
	<path class="st2" d="M101.26,10.16h0.72v3.08c0.39-0.14,0.98-0.28,1.54-0.28c1.26,0,2.06,0.52,2.06,1.82v3.53h-0.72v-3.38
		c0-1.07-0.75-1.29-1.46-1.29c-0.55,0-1.05,0.12-1.41,0.24v4.44h-0.72V10.16z"/>
	<path class="st2" d="M109.55,12.96c1.56,0,2.63,1.12,2.63,2.73s-1.07,2.73-2.63,2.73s-2.63-1.12-2.63-2.73
		S107.99,12.96,109.55,12.96z M109.55,13.59c-1.1,0-1.89,0.84-1.89,2.11c0,1.27,0.79,2.11,1.89,2.11s1.89-0.84,1.89-2.11
		C111.45,14.43,110.65,13.59,109.55,13.59z"/>
	<path class="st2" d="M19.34,23.16h0.72v3.08c0.4-0.14,0.98-0.28,1.54-0.28c1.26,0,2.06,0.52,2.06,1.82v3.53h-0.72v-3.38
		c0-1.07-0.76-1.29-1.46-1.29c-0.55,0-1.06,0.12-1.42,0.24v4.44h-0.72V23.16z"/>
	<path class="st2" d="M28.11,27.65c0-0.67-0.43-1.02-1.1-1.02c-0.6,0-1.05,0.17-1.54,0.42v-0.68c0.44-0.24,1.01-0.41,1.62-0.41
		c1.05,0,1.74,0.47,1.74,1.64v3.61c-0.48,0.13-1.04,0.19-1.49,0.19c-1.42,0-2.36-0.44-2.36-1.55c0-1.03,0.95-1.57,2.54-1.57h0.59
		V27.65z M28.11,28.88h-0.54c-1.08,0-1.87,0.29-1.87,0.98s0.72,0.95,1.68,0.95c0.22,0,0.48-0.02,0.73-0.07V28.88z"/>
	<path class="st2" d="M31.76,31.31l-2.05-5.23h0.76l1.7,4.56l1.7-4.56h0.73l-2.05,5.23H31.76z"/>
	<path class="st2" d="M35.89,28.73v0.02c0,1.28,0.92,2.04,1.94,2.04c0.74,0,1.26-0.19,1.79-0.59v0.72c-0.47,0.35-1.14,0.5-1.79,0.5
		c-1.51,0-2.66-1.03-2.66-2.73c0-1.57,1.08-2.73,2.48-2.73c1.32,0,2.2,0.79,2.2,2.28v0.49H35.89z M39.13,28.13
		c-0.05-1.09-0.64-1.54-1.51-1.54c-0.82,0-1.47,0.55-1.68,1.54H39.13z"/>
	<path class="st2" d="M46.22,27.65c0-0.67-0.43-1.02-1.1-1.02c-0.6,0-1.05,0.17-1.54,0.42v-0.68c0.44-0.24,1.01-0.41,1.62-0.41
		c1.05,0,1.74,0.47,1.74,1.64v3.61c-0.48,0.13-1.04,0.19-1.49,0.19c-1.42,0-2.36-0.44-2.36-1.55c0-1.03,0.95-1.57,2.54-1.57h0.59
		V27.65z M46.22,28.88h-0.54c-1.08,0-1.87,0.29-1.87,0.98s0.72,0.95,1.68,0.95c0.22,0,0.48-0.02,0.73-0.07V28.88z"/>
	<path class="st2" d="M52.47,27.11c-0.45-0.31-0.97-0.49-1.46-0.49c-1.08,0-2.01,0.72-2.01,2.09c0,1.32,0.92,2.06,2.06,2.06
		c0.55,0,1.02-0.18,1.5-0.49v0.76c-0.52,0.26-1.02,0.4-1.57,0.4c-1.46,0-2.72-1.02-2.72-2.73c0-1.75,1.29-2.73,2.71-2.73
		c0.58,0,1.03,0.13,1.5,0.4V27.11z"/>
	<path class="st2" d="M53.27,26.08h0.8v-1.27h0.72v1.27h1.48v0.61H54.8v3.19c0,0.67,0.26,0.94,0.76,0.94c0.34,0,0.61-0.11,0.97-0.29
		v0.64c-0.31,0.16-0.67,0.26-1.13,0.26c-0.76,0-1.32-0.4-1.32-1.48v-3.26h-0.8V26.08z"/>
	<path class="st2" d="M57.61,24.45c0-0.3,0.25-0.54,0.54-0.54c0.3,0,0.54,0.24,0.54,0.54c0,0.29-0.24,0.54-0.54,0.54
		C57.86,24.99,57.61,24.74,57.61,24.45z M58.51,31.31h-0.72v-5.23h0.72V31.31z"/>
	<path class="st2" d="M61.52,31.31l-2.05-5.23h0.76l1.7,4.56l1.7-4.56h0.73l-2.05,5.23H61.52z"/>
	<path class="st2" d="M65.64,28.73v0.02c0,1.28,0.92,2.04,1.94,2.04c0.74,0,1.26-0.19,1.79-0.59v0.72c-0.47,0.35-1.14,0.5-1.79,0.5
		c-1.51,0-2.66-1.03-2.66-2.73c0-1.57,1.08-2.73,2.48-2.73c1.32,0,2.19,0.79,2.19,2.28v0.49H65.64z M68.88,28.13
		c-0.05-1.09-0.63-1.54-1.51-1.54c-0.81,0-1.47,0.55-1.68,1.54H68.88z"/>
	<path class="st2" d="M72.95,30.2c0.44,0.4,0.9,0.62,1.47,0.62c0.66,0,1.08-0.25,1.08-0.84c0-0.62-0.46-0.79-1.28-1.07
		c-0.92-0.31-1.32-0.7-1.32-1.54c0-0.92,0.7-1.42,1.64-1.42c0.52,0,1.02,0.11,1.43,0.4v0.78c-0.41-0.34-0.83-0.56-1.43-0.56
		c-0.58,0-0.95,0.31-0.95,0.8c0,0.48,0.29,0.73,1.09,0.98c0.91,0.28,1.52,0.62,1.52,1.57c0,1.03-0.8,1.5-1.79,1.5
		c-0.59,0-1.15-0.17-1.47-0.42V30.2z"/>
	<path class="st2" d="M81.73,31.25c-0.63,0.12-1.28,0.18-1.82,0.18c-1.51,0-2.38-0.52-2.38-1.82v-3.53h0.72v3.49
		c0,0.98,0.78,1.24,1.61,1.24c0.36,0,0.77-0.02,1.15-0.07v-4.65h0.72V31.25z"/>
	<path class="st2" d="M83.36,24.45c0-0.3,0.25-0.54,0.54-0.54c0.3,0,0.54,0.24,0.54,0.54c0,0.29-0.24,0.54-0.54,0.54
		C83.61,24.99,83.36,24.74,83.36,24.45z M84.26,31.31h-0.72v-5.23h0.72V31.31z"/>
	<path class="st2" d="M89.87,27.11c-0.45-0.31-0.97-0.49-1.46-0.49c-1.08,0-2.01,0.72-2.01,2.09c0,1.32,0.92,2.06,2.06,2.06
		c0.55,0,1.02-0.18,1.5-0.49v0.76c-0.52,0.26-1.02,0.4-1.57,0.4c-1.46,0-2.72-1.02-2.72-2.73c0-1.75,1.29-2.73,2.71-2.73
		c0.58,0,1.03,0.13,1.5,0.4V27.11z"/>
	<path class="st2" d="M91.16,24.45c0-0.3,0.25-0.54,0.54-0.54c0.3,0,0.54,0.24,0.54,0.54c0,0.29-0.24,0.54-0.54,0.54
		C91.41,24.99,91.16,24.74,91.16,24.45z M92.06,31.31h-0.72v-5.23h0.72V31.31z"/>
	<path class="st2" d="M98.2,31.24c-0.56,0.13-1.15,0.19-1.7,0.19c-1.81,0-3.03-0.98-3.03-2.73c0-1.76,1.32-2.73,2.88-2.73
		c0.4,0,0.88,0.08,1.14,0.24v-3.05h0.72V31.24z M97.48,26.85c-0.26-0.14-0.66-0.24-1.14-0.24c-1.21,0-2.15,0.74-2.15,2.09
		c0,1.33,0.92,2.1,2.3,2.1c0.34,0,0.67-0.01,0.98-0.06V26.85z"/>
	<path class="st2" d="M102.71,27.65c0-0.67-0.43-1.02-1.1-1.02c-0.6,0-1.06,0.17-1.54,0.42v-0.68c0.44-0.24,1.01-0.41,1.62-0.41
		c1.05,0,1.74,0.47,1.74,1.64v3.61c-0.48,0.13-1.04,0.19-1.49,0.19c-1.42,0-2.36-0.44-2.36-1.55c0-1.03,0.95-1.57,2.54-1.57h0.59
		V27.65z M102.71,28.88h-0.54c-1.08,0-1.87,0.29-1.87,0.98s0.72,0.95,1.68,0.95c0.22,0,0.48-0.02,0.73-0.07V28.88z"/>
	<path class="st2" d="M105.87,31.31h-0.72v-8.16h0.72V31.31z"/>
	<path class="st2" d="M18.11,37.45c0-0.3,0.25-0.54,0.54-0.54c0.3,0,0.54,0.24,0.54,0.54c0,0.29-0.24,0.54-0.54,0.54
		C18.36,37.99,18.11,37.74,18.11,37.45z M19.01,44.31h-0.72v-5.23h0.72V44.31z"/>
	<path class="st2" d="M25.15,44.24c-0.56,0.13-1.15,0.19-1.7,0.19c-1.81,0-3.03-0.98-3.03-2.73c0-1.76,1.32-2.73,2.88-2.73
		c0.4,0,0.88,0.08,1.14,0.24v-3.05h0.72V44.24z M24.43,39.85c-0.26-0.14-0.66-0.24-1.14-0.24c-1.21,0-2.15,0.74-2.15,2.09
		c0,1.33,0.92,2.1,2.3,2.1c0.34,0,0.67-0.01,0.98-0.06V39.85z"/>
	<path class="st2" d="M27.28,41.73v0.02c0,1.28,0.92,2.04,1.94,2.04c0.74,0,1.26-0.19,1.79-0.59v0.72c-0.47,0.35-1.14,0.5-1.79,0.5
		c-1.51,0-2.66-1.03-2.66-2.73c0-1.57,1.08-2.73,2.48-2.73c1.32,0,2.2,0.79,2.2,2.28v0.49H27.28z M30.52,41.13
		c-0.05-1.09-0.64-1.54-1.51-1.54c-0.82,0-1.47,0.55-1.68,1.54H30.52z"/>
	<path class="st2" d="M35.39,40.65c0-0.67-0.43-1.02-1.1-1.02c-0.6,0-1.05,0.17-1.54,0.42v-0.68c0.44-0.24,1.01-0.41,1.62-0.41
		c1.05,0,1.74,0.47,1.74,1.64v3.61c-0.48,0.13-1.04,0.19-1.49,0.19c-1.42,0-2.36-0.44-2.36-1.55c0-1.03,0.95-1.57,2.54-1.57h0.59
		V40.65z M35.39,41.88h-0.54c-1.08,0-1.87,0.29-1.87,0.98s0.72,0.95,1.68,0.95c0.22,0,0.48-0.02,0.73-0.07V41.88z"/>
	<path class="st2" d="M37.1,39.08h0.8v-1.27h0.72v1.27h1.48v0.61h-1.48v3.19c0,0.67,0.26,0.94,0.76,0.94c0.34,0,0.61-0.11,0.97-0.29
		v0.64c-0.31,0.16-0.67,0.26-1.13,0.26c-0.76,0-1.32-0.4-1.32-1.48v-3.26h-0.8V39.08z"/>
	<path class="st2" d="M41.44,37.45c0-0.3,0.25-0.54,0.54-0.54c0.3,0,0.54,0.24,0.54,0.54c0,0.29-0.24,0.54-0.54,0.54
		C41.69,37.99,41.44,37.74,41.44,37.45z M42.34,44.31h-0.72v-5.23h0.72V44.31z"/>
	<path class="st2" d="M46.37,38.96c1.56,0,2.63,1.12,2.63,2.73s-1.07,2.73-2.63,2.73c-1.56,0-2.63-1.12-2.63-2.73
		S44.81,38.96,46.37,38.96z M46.37,39.59c-1.1,0-1.89,0.84-1.89,2.11c0,1.27,0.79,2.11,1.89,2.11c1.1,0,1.9-0.84,1.9-2.11
		C48.26,40.43,47.47,39.59,46.37,39.59z"/>
	<path class="st2" d="M50.4,39.36c0.7-0.25,1.49-0.4,2.2-0.4c1.32,0,2.12,0.52,2.12,1.82v3.53H54v-3.38c0-1.07-0.75-1.29-1.46-1.29
		c-0.55,0-1.04,0.1-1.41,0.19v4.49H50.4V39.36z"/>
	<path class="st2" d="M63.31,43.65l1.31-4.57h0.72l-1.58,5.23h-0.88l-1.26-4.45l-1.26,4.45h-0.88l-1.58-5.23h0.76l1.31,4.57
		l1.29-4.57H62L63.31,43.65z"/>
	<path class="st2" d="M66.12,37.45c0-0.3,0.25-0.54,0.54-0.54c0.3,0,0.54,0.24,0.54,0.54c0,0.29-0.24,0.54-0.54,0.54
		C66.37,37.99,66.12,37.74,66.12,37.45z M67.02,44.31H66.3v-5.23h0.72V44.31z"/>
	<path class="st2" d="M68.1,39.08h0.8v-1.27h0.72v1.27h1.48v0.61h-1.48v3.19c0,0.67,0.26,0.94,0.76,0.94c0.34,0,0.61-0.11,0.97-0.29
		v0.64c-0.31,0.16-0.67,0.26-1.13,0.26c-0.76,0-1.32-0.4-1.32-1.48v-3.26h-0.8V39.08z"/>
	<path class="st2" d="M72.61,36.16h0.72v3.08c0.39-0.14,0.98-0.28,1.54-0.28c1.26,0,2.06,0.52,2.06,1.82v3.53h-0.72v-3.38
		c0-1.07-0.75-1.29-1.46-1.29c-0.55,0-1.05,0.12-1.41,0.24v4.44h-0.72V36.16z"/>
	<path class="st2" d="M80.77,37.45c0-0.3,0.25-0.54,0.54-0.54c0.3,0,0.54,0.24,0.54,0.54c0,0.29-0.24,0.54-0.54,0.54
		C81.02,37.99,80.77,37.74,80.77,37.45z M81.67,44.31h-0.72v-5.23h0.72V44.31z"/>
	<path class="st2" d="M83.47,39.36c0.7-0.25,1.49-0.4,2.2-0.4c1.32,0,2.12,0.52,2.12,1.82v3.53h-0.72v-3.38
		c0-1.07-0.75-1.29-1.46-1.29c-0.55,0-1.04,0.1-1.41,0.19v4.49h-0.72V39.36z"/>
	<path class="st2" d="M88.81,39.08h0.8v-1.27h0.72v1.27h1.48v0.61h-1.48v3.19c0,0.67,0.26,0.94,0.76,0.94
		c0.34,0,0.61-0.11,0.97-0.29v0.64c-0.31,0.16-0.67,0.26-1.13,0.26c-0.76,0-1.32-0.4-1.32-1.48v-3.26h-0.8V39.08z"/>
	<path class="st2" d="M93.53,41.73v0.02c0,1.28,0.92,2.04,1.94,2.04c0.74,0,1.26-0.19,1.79-0.59v0.72c-0.47,0.35-1.14,0.5-1.79,0.5
		c-1.51,0-2.66-1.03-2.66-2.73c0-1.57,1.08-2.73,2.48-2.73c1.32,0,2.2,0.79,2.2,2.28v0.49H93.53z M96.76,41.13
		c-0.05-1.09-0.64-1.54-1.51-1.54c-0.82,0-1.47,0.55-1.68,1.54H96.76z"/>
	<path class="st2" d="M98.87,39.36c0.7-0.25,1.49-0.4,2.2-0.4c1.32,0,2.12,0.52,2.12,1.82v3.53h-0.72v-3.38
		c0-1.07-0.76-1.29-1.46-1.29c-0.55,0-1.04,0.1-1.42,0.19v4.49h-0.72V39.36z"/>
	<path class="st2" d="M104.21,39.08h0.8v-1.27h0.72v1.27h1.48v0.61h-1.48v3.19c0,0.67,0.26,0.94,0.76,0.94
		c0.34,0,0.61-0.11,0.97-0.29v0.64c-0.31,0.16-0.67,0.26-1.13,0.26c-0.76,0-1.32-0.4-1.32-1.48v-3.26h-0.8V39.08z"/>
	<path class="st2" d="M43.49,55.96L43,57.31h-1.88l2.77-7.12h2.15l2.77,7.12h-1.96l-0.48-1.36H43.49z M44.95,51.97l-0.92,2.53h1.82
		L44.95,51.97z"/>
	<path class="st2" d="M49.26,55.18c0.53,0.4,1.16,0.73,1.97,0.73c0.54,0,1.01-0.16,1.01-0.64c0-0.43-0.37-0.59-1.09-0.77
		c-1.48-0.37-2.03-1.04-2.03-2.23c0-1.4,1.07-2.21,2.47-2.21c0.85,0,1.44,0.2,1.97,0.52v1.75c-0.55-0.46-1.16-0.74-1.89-0.74
		c-0.54,0-0.8,0.24-0.8,0.58c0,0.46,0.41,0.6,1.16,0.79c1.46,0.38,1.97,1.07,1.97,2.25c0,1.55-1.23,2.22-2.75,2.22
		c-0.79,0-1.51-0.22-1.98-0.5V55.18z"/>
	<path class="st2" d="M56.82,57.31h-1.79v-7.06c0.6-0.1,1.54-0.18,2.33-0.18c1.76,0,3.02,0.82,3.02,2.63c0,1.86-1.43,2.55-2.93,2.55
		c-0.21,0-0.49-0.01-0.63-0.02V57.31z M56.82,53.7c0.08,0.01,0.34,0.02,0.54,0.02c0.73,0,1.22-0.3,1.22-1.03
		c0-0.76-0.57-1.03-1.22-1.03c-0.14,0-0.4,0.01-0.54,0.04V53.7z"/>
	<path class="st2" d="M63.13,57.31h-1.79v-7.12h1.79V57.31z"/>
	<path class="st2" d="M66.37,57.31H64.6v-7.09c0.56-0.1,1.51-0.16,2.26-0.16c1.82,0,3.04,0.77,3.04,2.47c0,1.02-0.57,1.74-1.28,2.11
		l1.91,2.66h-2.1l-1.54-2.28h-0.52V57.31z M66.37,53.57h0.44c0.74,0,1.27-0.25,1.27-0.98c0-0.72-0.55-0.97-1.22-0.97
		c-0.14,0-0.4,0.01-0.49,0.02V53.57z"/>
	<path class="st2" d="M76.05,55.74v1.57h-4.8v-7.12h4.71v1.57h-2.95v1.22h2.69v1.54h-2.69v1.22H76.05z"/>
	<path class="st2" d="M76.99,53.43h3.44v1.51h-3.44V53.43z"/>
	<path class="st2" d="M83.36,57.31h-1.79v-7.12h1.79V57.31z"/>
	<path class="st2" d="M52.45,68.46V64.1h1.73v7.12h-1.69l-2.97-4.28v4.28h-1.73V64.1h1.8L52.45,68.46z"/>
	<path class="st2" d="M55.45,66.17h4.54v1.12h-4.54V66.17z M55.45,68.09h4.54v1.12h-4.54V68.09z"/>
	<path class="st2" d="M65.67,69.65v1.57h-4.95v-1.31c1.56-1.36,2.87-2.46,2.87-3.45c0-0.58-0.37-0.84-0.97-0.84
		c-0.58,0-1.31,0.4-1.76,0.79v-1.68c0.56-0.48,1.34-0.76,2.29-0.76c1.31,0,2.35,0.76,2.35,2.16c0,1.34-0.99,2.44-2.45,3.51H65.67z"
		/>
	<path class="st2" d="M71.28,69.65v1.57h-4.95v-1.31c1.56-1.36,2.87-2.46,2.87-3.45c0-0.58-0.37-0.84-0.97-0.84
		c-0.58,0-1.31,0.4-1.76,0.79v-1.68c0.56-0.48,1.34-0.76,2.29-0.76c1.31,0,2.35,0.76,2.35,2.16c0,1.34-0.99,2.44-2.45,3.51H71.28z"
		/>
	<path class="st2" d="M76.76,68.2h0.96v1.39h-0.96v1.63h-1.7v-1.63h-3.33v-1.44l3.35-4.05h1.69V68.2z M73.4,68.2h1.65v-2.06
		L73.4,68.2z"/>
</g>
<path class="st4" d="M8.64,137.31h107.92c3.09,0,5.59,2.35,5.59,5.24v63.07c0,2.9-2.5,5.24-5.59,5.24H8.64
	c-3.09,0-5.59-2.35-5.59-5.24v-63.07C3.06,139.66,5.56,137.31,8.64,137.31z"/>
<g>
	<path class="st5" d="M145.76,15.06c0-0.85,0.57-1.42,1.19-1.63c-0.56-0.29-0.94-0.86-0.94-1.61c0-1.31,1.03-2.05,2.27-2.05
		c1.26,0,2.26,0.74,2.26,2.05c0,0.74-0.36,1.32-0.91,1.61c0.59,0.22,1.18,0.78,1.18,1.63c0,1.31-1.13,2.08-2.52,2.08
		C146.88,17.14,145.76,16.37,145.76,15.06z M149.07,14.98c0-0.47-0.32-0.77-0.79-0.77c-0.47,0-0.79,0.3-0.79,0.77
		c0,0.44,0.32,0.73,0.79,0.73C148.74,15.71,149.07,15.42,149.07,14.98z M148.98,11.92c0-0.44-0.3-0.71-0.71-0.71
		s-0.71,0.26-0.71,0.71c0,0.46,0.3,0.72,0.71,0.72S148.98,12.38,148.98,11.92z"/>
	<path class="st5" d="M156.34,14h0.96v1.39h-0.96v1.63h-1.7v-1.63h-3.33v-1.44l3.35-4.05h1.69V14z M152.98,14h1.65v-2.06L152.98,14z
		"/>
	<path class="st5" d="M166.97,13.73c0-0.42-0.12-0.74-0.68-0.74c-0.3,0-0.6,0.07-0.82,0.18c0.04,0.08,0.08,0.23,0.08,0.44v3.41h-1.7
		v-3.29c0-0.42-0.13-0.74-0.67-0.74c-0.26,0-0.44,0.04-0.72,0.11v3.92h-1.7v-5.04c0.77-0.29,1.7-0.48,2.52-0.48
		c0.64,0,1.18,0.17,1.5,0.43c0.43-0.22,0.95-0.43,1.78-0.43c1.28,0,2.12,0.49,2.12,2.16v3.36h-1.7V13.73z"/>
	<path class="st5" d="M173.32,16.77c-0.18,0.1-0.55,0.17-0.96,0.17c-1.58,0-2.69-0.95-2.69-2.69c0-1.7,1.14-2.75,3.01-2.75
		c0.94,0,1.7,0.18,2.34,0.43v4.95c0,1.92-1.57,2.41-2.78,2.41c-0.67,0-1.29-0.13-1.91-0.42v-1.57c0.71,0.42,1.21,0.56,1.91,0.56
		c0.63,0,1.08-0.35,1.08-0.98V16.77z M173.32,13.07c-0.15-0.06-0.39-0.1-0.63-0.1c-0.78,0-1.28,0.4-1.28,1.27
		c0,0.8,0.49,1.27,1.19,1.27c0.3,0,0.52-0.06,0.73-0.13V13.07z"/>
	<path class="st5" d="M178.44,14.88c0.53,0.4,1.16,0.73,1.97,0.73c0.54,0,1.01-0.16,1.01-0.64c0-0.43-0.37-0.59-1.09-0.77
		c-1.47-0.37-2.03-1.04-2.03-2.23c0-1.4,1.07-2.21,2.47-2.21c0.85,0,1.44,0.2,1.97,0.52v1.75c-0.55-0.46-1.16-0.74-1.89-0.74
		c-0.54,0-0.8,0.24-0.8,0.58c0,0.46,0.41,0.6,1.16,0.79c1.46,0.38,1.97,1.07,1.97,2.25c0,1.55-1.24,2.22-2.75,2.22
		c-0.79,0-1.51-0.22-1.98-0.5V14.88z"/>
	<path class="st5" d="M186,17.02h-1.79V9.95c0.6-0.1,1.54-0.18,2.33-0.18c1.76,0,3.02,0.82,3.02,2.63c0,1.86-1.43,2.55-2.93,2.55
		c-0.22,0-0.49-0.01-0.64-0.02V17.02z M186,13.41c0.08,0.01,0.34,0.02,0.54,0.02c0.73,0,1.22-0.3,1.22-1.03
		c0-0.76-0.58-1.03-1.22-1.03c-0.14,0-0.4,0.01-0.54,0.04V13.41z"/>
	<path class="st5" d="M192.3,17.02h-1.78V9.93c0.56-0.1,1.51-0.16,2.25-0.16c1.82,0,3.05,0.77,3.05,2.47c0,1.02-0.58,1.74-1.28,2.11
		l1.91,2.66h-2.1l-1.54-2.28h-0.52V17.02z M192.3,13.28h0.44c0.74,0,1.27-0.25,1.27-0.98c0-0.72-0.55-0.97-1.22-0.97
		c-0.14,0-0.39,0.01-0.49,0.02V13.28z"/>
	<path class="st5" d="M198.71,15.66l-0.49,1.36h-1.88l2.77-7.12h2.15l2.77,7.12h-1.96l-0.48-1.36H198.71z M200.17,11.68l-0.92,2.53
		h1.82L200.17,11.68z"/>
	<path class="st5" d="M205.96,17.02l-2.65-7.12h1.92l1.84,5.31l1.81-5.31h1.91l-2.65,7.12H205.96z"/>
	<path class="st5" d="M212.44,15.66l-0.49,1.36h-1.88l2.77-7.12h2.15l2.77,7.12h-1.96l-0.48-1.36H212.44z M213.9,11.68l-0.92,2.53
		h1.82L213.9,11.68z"/>
	<path class="st5" d="M221.13,17.02h-1.78v-5.55h-2.13V9.89h6.04v1.57h-2.13V17.02z"/>
	<path class="st5" d="M227.3,9.77c2.06,0,3.72,1.51,3.72,3.68s-1.65,3.68-3.72,3.68s-3.71-1.51-3.71-3.68S225.23,9.77,227.3,9.77z
		 M227.3,11.38c-1.08,0-1.87,0.83-1.87,2.07c0,1.25,0.79,2.07,1.87,2.07c1.09,0,1.87-0.83,1.87-2.07
		C229.17,12.21,228.39,11.38,227.3,11.38z"/>
	<path class="st5" d="M156.99,27.13v-1.24h1.66v-1.65h1.23v1.65h1.66v1.24h-1.66v1.66h-1.23v-1.66H156.99z"/>
	<path class="st5" d="M162.47,27.88c0.53,0.4,1.16,0.73,1.97,0.73c0.54,0,1.01-0.16,1.01-0.64c0-0.43-0.37-0.59-1.09-0.77
		c-1.47-0.37-2.03-1.04-2.03-2.23c0-1.4,1.07-2.21,2.47-2.21c0.85,0,1.44,0.2,1.97,0.52v1.75c-0.55-0.46-1.16-0.74-1.89-0.74
		c-0.54,0-0.8,0.24-0.8,0.58c0,0.46,0.41,0.6,1.16,0.79c1.46,0.38,1.97,1.07,1.97,2.25c0,1.55-1.24,2.22-2.75,2.22
		c-0.79,0-1.51-0.22-1.98-0.5V27.88z"/>
	<path class="st5" d="M171.6,22.77c2.06,0,3.72,1.51,3.72,3.68s-1.65,3.68-3.72,3.68s-3.71-1.51-3.71-3.68S169.54,22.77,171.6,22.77
		z M171.6,24.38c-1.08,0-1.87,0.83-1.87,2.07c0,1.25,0.79,2.07,1.87,2.07c1.09,0,1.87-0.83,1.87-2.07
		C173.47,25.21,172.69,24.38,171.6,24.38z"/>
	<path class="st5" d="M181.76,25.14c-0.44-0.44-1.1-0.76-1.93-0.76c-1.17,0-1.85,0.86-1.85,2.07c0,1.26,0.77,2.07,1.92,2.07
		c0.85,0,1.38-0.25,2-0.74v1.82c-0.7,0.42-1.36,0.53-2.09,0.53c-2.24,0-3.67-1.52-3.67-3.68c0-2.17,1.46-3.68,3.67-3.68
		c0.73,0,1.37,0.12,1.94,0.46V25.14z"/>
	<path class="st5" d="M187.73,31.67c-1.28-1.21-2.06-3.12-2.06-4.91c0-1.79,0.78-3.71,2.06-4.91h1.86
		c-1.49,1.48-2.24,3.23-2.24,4.91c0,1.68,0.76,3.43,2.24,4.91H187.73z"/>
	<path class="st5" d="M190.44,25.01c0.78-0.31,1.85-0.5,2.69-0.5c1.42,0,2.35,0.52,2.35,2.22v3.3h-1.7v-3.23
		c0-0.43-0.18-0.77-0.77-0.77c-0.28,0-0.6,0.04-0.86,0.13v3.86h-1.7V25.01z"/>
	<path class="st5" d="M196.67,24.97h4.54v1.12h-4.54V24.97z M196.67,26.89h4.54V28h-4.54V26.89z"/>
	<path class="st5" d="M202.01,23.28l3.04-0.49v7.23h-1.76v-5.29l-1.28,0.16V23.28z"/>
	<path class="st5" d="M205.99,23.28l3.05-0.49v7.23h-1.76v-5.29l-1.28,0.16V23.28z"/>
	<path class="st5" d="M215.04,28.45v1.57h-4.95v-1.31c1.56-1.36,2.87-2.46,2.87-3.45c0-0.58-0.37-0.84-0.97-0.84
		c-0.58,0-1.31,0.4-1.76,0.79v-1.68c0.56-0.48,1.34-0.76,2.29-0.76c1.31,0,2.35,0.76,2.35,2.16c0,1.34-0.99,2.43-2.45,3.51H215.04z"
		/>
	<path class="st5" d="M217.32,21.86c1.29,1.2,2.06,3.12,2.06,4.91c0,1.79-0.78,3.69-2.06,4.91h-1.86c1.49-1.48,2.24-3.23,2.24-4.91
		c0-1.68-0.76-3.43-2.24-4.91H217.32z"/>
</g>
<g>
	<path class="st5" d="M167.56,59.51h-1.79v-7.06c0.6-0.1,1.54-0.18,2.33-0.18c1.76,0,3.02,0.82,3.02,2.63
		c0,1.86-1.43,2.55-2.93,2.55c-0.22,0-0.49-0.01-0.64-0.02V59.51z M167.56,55.9c0.08,0.01,0.34,0.02,0.54,0.02
		c0.73,0,1.22-0.3,1.22-1.03c0-0.76-0.58-1.03-1.22-1.03c-0.14,0-0.4,0.01-0.54,0.04V55.9z"/>
	<path class="st5" d="M172.08,52.46c0.56-0.1,1.51-0.19,2.18-0.19c1.58,0,2.84,0.5,2.84,2.03c0,0.83-0.58,1.39-1.27,1.52
		c0.92,0.1,1.62,0.68,1.62,1.7c0,1.35-1.04,2.09-3.44,2.09c-0.67,0-1.45-0.07-1.93-0.14V52.46z M173.8,55.24h0.52
		c0.74,0,1.04-0.28,1.04-0.79c0-0.47-0.37-0.68-0.91-0.68c-0.22,0-0.52,0.02-0.65,0.05V55.24z M173.8,58.12
		c0.16,0.01,0.43,0.02,0.56,0.02c0.72,0,1.27-0.18,1.27-0.76c0-0.55-0.41-0.73-1.03-0.73h-0.8V58.12z"/>
	<path class="st5" d="M181.89,52.27c2.06,0,3.72,1.51,3.72,3.68s-1.66,3.68-3.72,3.68s-3.71-1.51-3.71-3.68
		S179.82,52.27,181.89,52.27z M181.89,53.88c-1.08,0-1.87,0.83-1.87,2.07c0,1.25,0.79,2.07,1.87,2.07c1.09,0,1.87-0.83,1.87-2.07
		C183.76,54.7,182.98,53.88,181.89,53.88z"/>
	<path class="st5" d="M186.47,56.62v-1.24h1.66v-1.65h1.24v1.65h1.66v1.24h-1.66v1.66h-1.24v-1.66H186.47z"/>
	<path class="st5" d="M191.96,57.38c0.53,0.4,1.16,0.73,1.97,0.73c0.54,0,1.01-0.16,1.01-0.64c0-0.43-0.37-0.59-1.09-0.77
		c-1.48-0.37-2.03-1.04-2.03-2.23c0-1.4,1.07-2.21,2.47-2.21c0.85,0,1.44,0.2,1.97,0.52v1.75c-0.55-0.46-1.16-0.74-1.89-0.74
		c-0.54,0-0.8,0.24-0.8,0.58c0,0.46,0.41,0.6,1.16,0.79c1.46,0.38,1.97,1.07,1.97,2.25c0,1.55-1.23,2.22-2.75,2.22
		c-0.79,0-1.51-0.22-1.98-0.5V57.38z"/>
	<path class="st5" d="M201.09,52.27c2.06,0,3.72,1.51,3.72,3.68s-1.66,3.68-3.72,3.68s-3.71-1.51-3.71-3.68
		S199.02,52.27,201.09,52.27z M201.09,53.88c-1.08,0-1.87,0.83-1.87,2.07c0,1.25,0.79,2.07,1.87,2.07c1.09,0,1.87-0.83,1.87-2.07
		C202.96,54.7,202.18,53.88,201.09,53.88z"/>
	<path class="st5" d="M211.25,54.63c-0.44-0.44-1.1-0.76-1.93-0.76c-1.17,0-1.85,0.86-1.85,2.07c0,1.26,0.77,2.07,1.92,2.07
		c0.85,0,1.38-0.25,2-0.74v1.82c-0.7,0.42-1.36,0.53-2.09,0.53c-2.24,0-3.67-1.52-3.67-3.68c0-2.17,1.46-3.68,3.67-3.68
		c0.73,0,1.37,0.12,1.94,0.46V54.63z"/>
	<path class="st5" d="M173.65,74.17c-1.28-1.21-2.06-3.12-2.06-4.91c0-1.79,0.78-3.71,2.06-4.91h1.86
		c-1.49,1.48-2.24,3.23-2.24,4.91c0,1.68,0.76,3.43,2.24,4.91H173.65z"/>
	<path class="st5" d="M176.37,67.5c0.78-0.31,1.85-0.5,2.69-0.5c1.42,0,2.35,0.52,2.35,2.22v3.3h-1.7v-3.23
		c0-0.43-0.18-0.77-0.77-0.77c-0.28,0-0.6,0.04-0.86,0.13v3.86h-1.7V67.5z"/>
	<path class="st5" d="M182.6,67.46h4.54v1.12h-4.54V67.46z M182.6,69.38h4.54v1.12h-4.54V69.38z"/>
	<path class="st5" d="M187.94,65.77l3.05-0.49v7.23h-1.76v-5.29l-1.28,0.16V65.77z"/>
	<path class="st5" d="M191.92,65.77l3.05-0.49v7.23h-1.76v-5.29l-1.28,0.16V65.77z"/>
	<path class="st5" d="M200.96,70.94v1.57h-4.95V71.2c1.56-1.36,2.87-2.46,2.87-3.45c0-0.58-0.37-0.84-0.97-0.84
		c-0.58,0-1.31,0.4-1.76,0.79v-1.68c0.56-0.48,1.34-0.76,2.29-0.76c1.31,0,2.35,0.76,2.35,2.16c0,1.34-1,2.43-2.45,3.51H200.96z"/>
	<path class="st5" d="M203.24,64.36c1.28,1.2,2.06,3.12,2.06,4.91c0,1.79-0.78,3.69-2.06,4.91h-1.86c1.49-1.48,2.24-3.23,2.24-4.91
		c0-1.68-0.75-3.43-2.24-4.91H203.24z"/>
</g>
<g>
	<path class="st5" d="M145.76,148.25c0-0.85,0.58-1.42,1.19-1.63c-0.56-0.29-0.94-0.86-0.94-1.61c0-1.31,1.03-2.05,2.27-2.05
		c1.26,0,2.25,0.74,2.25,2.05c0,0.74-0.36,1.32-0.91,1.61c0.59,0.22,1.18,0.78,1.18,1.63c0,1.31-1.13,2.08-2.52,2.08
		S145.76,149.55,145.76,148.25z M149.07,148.16c0-0.47-0.32-0.77-0.79-0.77s-0.79,0.3-0.79,0.77c0,0.44,0.32,0.73,0.79,0.73
		S149.07,148.61,149.07,148.16z M148.98,145.1c0-0.44-0.3-0.71-0.71-0.71s-0.71,0.26-0.71,0.71c0,0.46,0.3,0.72,0.71,0.72
		S148.98,145.56,148.98,145.1z"/>
	<path class="st5" d="M156.34,147.18h0.96v1.39h-0.96v1.63h-1.7v-1.63h-3.33v-1.44l3.35-4.05h1.69V147.18z M152.98,147.18h1.66
		v-2.06L152.98,147.18z"/>
	<path class="st5" d="M166.97,146.92c0-0.42-0.12-0.74-0.68-0.74c-0.3,0-0.6,0.07-0.82,0.18c0.04,0.08,0.08,0.23,0.08,0.44v3.41
		h-1.7v-3.29c0-0.42-0.13-0.74-0.67-0.74c-0.26,0-0.44,0.04-0.72,0.11v3.92h-1.7v-5.04c0.77-0.29,1.7-0.48,2.52-0.48
		c0.64,0,1.18,0.17,1.5,0.43c0.43-0.22,0.95-0.43,1.78-0.43c1.28,0,2.12,0.49,2.12,2.16v3.36h-1.7V146.92z"/>
	<path class="st5" d="M173.32,149.95c-0.18,0.1-0.55,0.17-0.96,0.17c-1.58,0-2.69-0.95-2.69-2.69c0-1.7,1.14-2.75,3.01-2.75
		c0.94,0,1.7,0.18,2.34,0.43v4.95c0,1.92-1.57,2.41-2.78,2.41c-0.67,0-1.29-0.13-1.91-0.42v-1.57c0.71,0.42,1.21,0.56,1.91,0.56
		c0.64,0,1.08-0.35,1.08-0.98V149.95z M173.32,146.26c-0.16-0.06-0.4-0.1-0.64-0.1c-0.78,0-1.28,0.4-1.28,1.27
		c0,0.8,0.49,1.27,1.19,1.27c0.3,0,0.52-0.06,0.73-0.13V146.26z"/>
	<path class="st5" d="M178.44,148.07c0.53,0.4,1.16,0.73,1.97,0.73c0.54,0,1.01-0.16,1.01-0.64c0-0.43-0.37-0.59-1.09-0.77
		c-1.48-0.37-2.03-1.04-2.03-2.23c0-1.4,1.07-2.21,2.47-2.21c0.85,0,1.44,0.2,1.97,0.52v1.75c-0.55-0.46-1.16-0.74-1.89-0.74
		c-0.54,0-0.8,0.24-0.8,0.58c0,0.46,0.41,0.6,1.16,0.79c1.46,0.38,1.97,1.07,1.97,2.25c0,1.55-1.24,2.22-2.75,2.22
		c-0.79,0-1.51-0.22-1.98-0.5V148.07z"/>
	<path class="st5" d="M186,150.2h-1.79v-7.06c0.6-0.1,1.54-0.18,2.33-0.18c1.76,0,3.02,0.82,3.02,2.63c0,1.86-1.43,2.55-2.93,2.55
		c-0.22,0-0.49-0.01-0.64-0.02V150.2z M186,146.59c0.08,0.01,0.34,0.02,0.54,0.02c0.73,0,1.22-0.3,1.22-1.03
		c0-0.76-0.58-1.03-1.22-1.03c-0.14,0-0.4,0.01-0.54,0.04V146.59z"/>
	<path class="st5" d="M192.3,150.2h-1.78v-7.09c0.56-0.1,1.51-0.16,2.25-0.16c1.82,0,3.05,0.77,3.05,2.47
		c0,1.02-0.58,1.74-1.28,2.11l1.91,2.66h-2.1l-1.54-2.28h-0.52V150.2z M192.3,146.46h0.44c0.74,0,1.27-0.25,1.27-0.98
		c0-0.72-0.55-0.97-1.22-0.97c-0.14,0-0.4,0.01-0.49,0.02V146.46z"/>
	<path class="st5" d="M198.71,148.85l-0.49,1.36h-1.88l2.77-7.12h2.15l2.77,7.12h-1.96l-0.48-1.36H198.71z M200.17,144.86
		l-0.92,2.53h1.82L200.17,144.86z"/>
	<path class="st5" d="M205.96,150.2l-2.65-7.12h1.92l1.83,5.31l1.81-5.31h1.91l-2.65,7.12H205.96z"/>
	<path class="st5" d="M212.44,148.85l-0.49,1.36h-1.88l2.77-7.12h2.15l2.77,7.12h-1.96l-0.48-1.36H212.44z M213.9,144.86l-0.92,2.53
		h1.82L213.9,144.86z"/>
	<path class="st5" d="M221.13,150.2h-1.78v-5.55h-2.13v-1.57h6.04v1.57h-2.13V150.2z"/>
	<path class="st5" d="M227.3,142.96c2.06,0,3.72,1.51,3.72,3.68s-1.66,3.68-3.72,3.68s-3.71-1.51-3.71-3.68
		S225.23,142.96,227.3,142.96z M227.3,144.57c-1.08,0-1.87,0.83-1.87,2.07c0,1.25,0.79,2.07,1.87,2.07c1.09,0,1.87-0.83,1.87-2.07
		C229.17,145.39,228.39,144.57,227.3,144.57z"/>
	<path class="st5" d="M156.63,162.29v-1.23h1.66v-1.66h1.24v1.66h1.66v1.23h-1.66v1.66h-1.24v-1.66H156.63z"/>
	<path class="st5" d="M162.11,163.05c0.53,0.4,1.16,0.73,1.97,0.73c0.54,0,1.01-0.16,1.01-0.64c0-0.43-0.37-0.59-1.09-0.77
		c-1.48-0.37-2.03-1.04-2.03-2.23c0-1.4,1.07-2.21,2.47-2.21c0.85,0,1.44,0.2,1.97,0.52v1.75c-0.55-0.46-1.16-0.74-1.89-0.74
		c-0.54,0-0.8,0.24-0.8,0.58c0,0.46,0.41,0.6,1.16,0.79c1.46,0.38,1.97,1.07,1.97,2.25c0,1.55-1.23,2.22-2.75,2.22
		c-0.79,0-1.51-0.22-1.98-0.5V163.05z"/>
	<path class="st5" d="M171.24,157.94c2.06,0,3.72,1.51,3.72,3.68s-1.66,3.68-3.72,3.68s-3.71-1.51-3.71-3.68
		S169.18,157.94,171.24,157.94z M171.24,159.54c-1.08,0-1.87,0.83-1.87,2.07c0,1.25,0.79,2.07,1.87,2.07c1.09,0,1.87-0.83,1.87-2.07
		C173.11,160.37,172.33,159.54,171.24,159.54z"/>
	<path class="st5" d="M181.4,160.3c-0.44-0.44-1.1-0.76-1.93-0.76c-1.17,0-1.85,0.86-1.85,2.07c0,1.26,0.77,2.07,1.92,2.07
		c0.85,0,1.38-0.25,2-0.74v1.82c-0.7,0.42-1.36,0.53-2.09,0.53c-2.24,0-3.67-1.52-3.67-3.68c0-2.17,1.46-3.68,3.67-3.68
		c0.73,0,1.37,0.12,1.94,0.46V160.3z"/>
	<path class="st5" d="M187.37,166.84c-1.28-1.21-2.06-3.12-2.06-4.91c0-1.79,0.78-3.71,2.06-4.91h1.86
		c-1.49,1.48-2.24,3.23-2.24,4.91c0,1.68,0.76,3.43,2.24,4.91H187.37z"/>
	<path class="st5" d="M190.08,160.17c0.78-0.31,1.85-0.5,2.69-0.5c1.42,0,2.35,0.52,2.35,2.22v3.3h-1.7v-3.23
		c0-0.43-0.18-0.77-0.77-0.77c-0.28,0-0.6,0.04-0.86,0.13v3.86h-1.7V160.17z"/>
	<path class="st5" d="M196.31,160.13h4.54v1.12h-4.54V160.13z M196.31,162.05h4.54v1.12h-4.54V162.05z"/>
	<path class="st5" d="M201.65,158.44l3.05-0.49v7.23h-1.76v-5.29l-1.28,0.16V158.44z"/>
	<path class="st5" d="M205.64,158.44l3.05-0.49v7.23h-1.76v-5.29l-1.28,0.16V158.44z"/>
	<path class="st5" d="M214.66,162.16h0.96v1.39h-0.96v1.63h-1.7v-1.63h-3.33v-1.44l3.35-4.05h1.69V162.16z M211.3,162.16h1.66v-2.06
		L211.3,162.16z"/>
	<path class="st5" d="M217.68,157.02c1.28,1.2,2.06,3.12,2.06,4.91c0,1.79-0.78,3.69-2.06,4.91h-1.86c1.49-1.48,2.24-3.23,2.24-4.91
		c0-1.68-0.75-3.43-2.24-4.91H217.68z"/>
</g>
<g>
	<path class="st5" d="M167.56,191.6h-1.79v-7.06c0.6-0.1,1.54-0.18,2.33-0.18c1.76,0,3.02,0.82,3.02,2.63
		c0,1.86-1.43,2.55-2.93,2.55c-0.22,0-0.49-0.01-0.64-0.02V191.6z M167.56,187.99c0.08,0.01,0.34,0.02,0.54,0.02
		c0.73,0,1.22-0.3,1.22-1.03c0-0.76-0.58-1.03-1.22-1.03c-0.14,0-0.4,0.01-0.54,0.04V187.99z"/>
	<path class="st5" d="M172.08,184.55c0.56-0.1,1.51-0.19,2.18-0.19c1.58,0,2.84,0.5,2.84,2.03c0,0.83-0.58,1.39-1.27,1.52
		c0.92,0.1,1.62,0.68,1.62,1.7c0,1.35-1.04,2.09-3.44,2.09c-0.67,0-1.45-0.07-1.93-0.14V184.55z M173.8,187.33h0.52
		c0.74,0,1.04-0.28,1.04-0.79c0-0.47-0.37-0.68-0.91-0.68c-0.22,0-0.52,0.02-0.65,0.05V187.33z M173.8,190.21
		c0.16,0.01,0.43,0.02,0.56,0.02c0.72,0,1.27-0.18,1.27-0.76c0-0.55-0.41-0.73-1.03-0.73h-0.8V190.21z"/>
	<path class="st5" d="M181.89,184.35c2.06,0,3.72,1.51,3.72,3.68s-1.66,3.68-3.72,3.68s-3.71-1.51-3.71-3.68
		S179.82,184.35,181.89,184.35z M181.89,185.96c-1.08,0-1.87,0.83-1.87,2.07c0,1.25,0.79,2.07,1.87,2.07c1.09,0,1.87-0.83,1.87-2.07
		C183.76,186.79,182.98,185.96,181.89,185.96z"/>
	<path class="st5" d="M186.47,188.71v-1.24h1.66v-1.65h1.24v1.65h1.66v1.24h-1.66v1.66h-1.24v-1.66H186.47z"/>
	<path class="st5" d="M191.96,189.46c0.53,0.4,1.16,0.73,1.97,0.73c0.54,0,1.01-0.16,1.01-0.64c0-0.43-0.37-0.59-1.09-0.77
		c-1.48-0.37-2.03-1.04-2.03-2.23c0-1.4,1.07-2.21,2.47-2.21c0.85,0,1.44,0.2,1.97,0.52v1.75c-0.55-0.46-1.16-0.74-1.89-0.74
		c-0.54,0-0.8,0.24-0.8,0.58c0,0.46,0.41,0.6,1.16,0.79c1.46,0.38,1.97,1.07,1.97,2.25c0,1.55-1.23,2.22-2.75,2.22
		c-0.79,0-1.51-0.22-1.98-0.5V189.46z"/>
	<path class="st5" d="M201.09,184.35c2.06,0,3.72,1.51,3.72,3.68s-1.66,3.68-3.72,3.68s-3.71-1.51-3.71-3.68
		S199.02,184.35,201.09,184.35z M201.09,185.96c-1.08,0-1.87,0.83-1.87,2.07c0,1.25,0.79,2.07,1.87,2.07c1.09,0,1.87-0.83,1.87-2.07
		C202.96,186.79,202.18,185.96,201.09,185.96z"/>
	<path class="st5" d="M211.25,186.72c-0.44-0.44-1.1-0.76-1.93-0.76c-1.17,0-1.85,0.86-1.85,2.07c0,1.26,0.77,2.07,1.92,2.07
		c0.85,0,1.38-0.25,2-0.74v1.82c-0.7,0.42-1.36,0.53-2.09,0.53c-2.24,0-3.67-1.52-3.67-3.68c0-2.17,1.46-3.68,3.67-3.68
		c0.73,0,1.37,0.12,1.94,0.46V186.72z"/>
	<path class="st5" d="M173.83,208.23c-1.28-1.21-2.06-3.12-2.06-4.91c0-1.79,0.78-3.71,2.06-4.91h1.86
		c-1.49,1.48-2.24,3.23-2.24,4.91c0,1.68,0.76,3.43,2.24,4.91H173.83z"/>
	<path class="st5" d="M176.55,201.56c0.78-0.31,1.85-0.5,2.69-0.5c1.42,0,2.35,0.52,2.35,2.22v3.3h-1.7v-3.23
		c0-0.43-0.18-0.77-0.77-0.77c-0.28,0-0.6,0.04-0.86,0.13v3.86h-1.7V201.56z"/>
	<path class="st5" d="M182.78,201.53h4.54v1.12h-4.54V201.53z M182.78,203.44h4.54v1.12h-4.54V203.44z"/>
	<path class="st5" d="M188.12,199.84l3.05-0.49v7.23h-1.76v-5.29l-1.28,0.16V199.84z"/>
	<path class="st5" d="M192.1,199.84l3.05-0.49v7.23h-1.76v-5.29l-1.28,0.16V199.84z"/>
	<path class="st5" d="M196.39,199.99c0.65-0.49,1.37-0.66,2.09-0.66c1.33,0,2.19,0.68,2.19,1.9c0,0.92-0.49,1.44-1.16,1.75
		c0.84,0.28,1.29,0.83,1.29,1.69c0,1.48-1.33,2.03-2.58,2.03c-0.91,0-1.5-0.23-1.98-0.53v-1.66c0.43,0.37,1.07,0.72,1.82,0.72
		c0.54,0,0.95-0.22,0.95-0.7c0-0.6-0.49-0.79-1.49-0.79v-1.39c0.92,0,1.36-0.32,1.36-0.86c0-0.42-0.3-0.61-0.72-0.61
		c-0.65,0-1.33,0.4-1.78,0.76V199.99z"/>
	<path class="st5" d="M203.06,198.42c1.28,1.2,2.06,3.12,2.06,4.91c0,1.79-0.78,3.69-2.06,4.91h-1.86c1.49-1.48,2.24-3.23,2.24-4.91
		c0-1.68-0.75-3.43-2.24-4.91H203.06z"/>
</g>
<path class="st0" d="M135.27,19.86h-2.18c-1.63,0-2.94,1.29-2.94,2.89V59.5c0,1.6,1.32,2.89,2.94,2.89h2.18"/>
<g>
	<path class="st2" d="M14.16,149.31l-0.74,1.97h-0.77l2.76-7.12h0.95l2.79,7.12h-0.79l-0.74-1.97H14.16z M15.87,144.76l-1.49,3.93
		h2.99L15.87,144.76z"/>
	<path class="st2" d="M24.57,151.21c-0.56,0.13-1.15,0.19-1.7,0.19c-1.81,0-3.03-0.98-3.03-2.73c0-1.76,1.32-2.73,2.88-2.73
		c0.4,0,0.88,0.08,1.14,0.24v-3.05h0.72V151.21z M23.85,146.82c-0.26-0.14-0.66-0.24-1.14-0.24c-1.21,0-2.15,0.74-2.15,2.09
		c0,1.33,0.92,2.1,2.3,2.1c0.34,0,0.67-0.01,0.98-0.06V146.82z"/>
	<path class="st2" d="M30.45,151.22c-0.64,0.12-1.28,0.18-1.82,0.18c-1.51,0-2.38-0.52-2.38-1.82v-3.53h0.72v3.49
		c0,0.98,0.78,1.24,1.61,1.24c0.36,0,0.77-0.02,1.15-0.07v-4.65h0.72V151.22z"/>
	<path class="st2" d="M32.97,151.28h-0.72v-8.16h0.72V151.28z"/>
	<path class="st2" d="M34.05,146.05h0.8v-1.27h0.72v1.27h1.48v0.61h-1.48v3.19c0,0.67,0.26,0.94,0.76,0.94
		c0.34,0,0.61-0.11,0.97-0.29v0.64c-0.31,0.16-0.67,0.26-1.13,0.26c-0.76,0-1.32-0.4-1.32-1.48v-3.26h-0.8V146.05z"/>
	<path class="st2" d="M38.25,150.17c0.44,0.4,0.9,0.62,1.47,0.62c0.66,0,1.08-0.25,1.08-0.84c0-0.62-0.46-0.79-1.28-1.07
		c-0.92-0.31-1.32-0.7-1.32-1.54c0-0.92,0.7-1.42,1.64-1.42c0.52,0,1.02,0.11,1.43,0.4v0.78c-0.41-0.34-0.83-0.56-1.43-0.56
		c-0.58,0-0.95,0.31-0.95,0.8c0,0.48,0.29,0.73,1.09,0.98c0.91,0.28,1.52,0.62,1.52,1.57c0,1.03-0.8,1.5-1.79,1.5
		c-0.59,0-1.15-0.17-1.47-0.42V150.17z"/>
	<path class="st2" d="M49.8,150.62l1.31-4.57h0.72l-1.58,5.23h-0.88l-1.26-4.45l-1.26,4.45h-0.88l-1.58-5.23h0.76l1.31,4.57
		l1.29-4.57h0.74L49.8,150.62z"/>
	<path class="st2" d="M52.61,144.42c0-0.3,0.25-0.54,0.54-0.54c0.3,0,0.54,0.24,0.54,0.54c0,0.29-0.24,0.54-0.54,0.54
		C52.87,144.96,52.61,144.71,52.61,144.42z M53.51,151.28h-0.72v-5.23h0.72V151.28z"/>
	<path class="st2" d="M54.59,146.05h0.8v-1.27h0.72v1.27h1.48v0.61h-1.48v3.19c0,0.67,0.26,0.94,0.76,0.94
		c0.34,0,0.61-0.11,0.97-0.29v0.64c-0.31,0.16-0.67,0.26-1.13,0.26c-0.76,0-1.32-0.4-1.32-1.48v-3.26h-0.8V146.05z"/>
	<path class="st2" d="M59.11,143.12h0.72v3.08c0.4-0.14,0.98-0.28,1.54-0.28c1.26,0,2.06,0.52,2.06,1.82v3.53H62.7v-3.38
		c0-1.07-0.75-1.29-1.46-1.29c-0.55,0-1.06,0.12-1.42,0.24v4.44h-0.72V143.12z"/>
	<path class="st2" d="M70.7,151.28l-1.96-6.42l-1.09,6.42h-0.72l1.27-7.12h1l1.94,6.37l1.94-6.37h1l1.27,7.12h-0.74l-1.09-6.42
		l-1.95,6.42H70.7z"/>
	<path class="st2" d="M76.76,144.13c0.53-0.06,1.02-0.1,1.46-0.1c3.26,0,4.37,1.69,4.37,3.51c0,2-1.16,3.85-4.27,3.85
		c-0.6,0-1.05-0.05-1.56-0.11V144.13z M77.5,150.7c0.29,0.04,0.56,0.05,0.83,0.05c2.04,0,3.48-1.02,3.48-3.19
		c0-1.68-1.07-2.85-3.61-2.85c-0.23,0-0.44,0.01-0.7,0.04V150.7z"/>
	<path class="st2" d="M84.15,144.13c0.53-0.06,1.02-0.1,1.46-0.1c3.26,0,4.37,1.69,4.37,3.51c0,2-1.16,3.85-4.27,3.85
		c-0.6,0-1.05-0.05-1.56-0.11V144.13z M84.89,150.7c0.29,0.04,0.56,0.05,0.83,0.05c2.04,0,3.48-1.02,3.48-3.19
		c0-1.68-1.07-2.85-3.61-2.85c-0.23,0-0.44,0.01-0.7,0.04V150.7z"/>
	<path class="st2" d="M98.27,150.62l1.31-4.57h0.72l-1.58,5.23h-0.88l-1.26-4.45l-1.26,4.45h-0.88l-1.58-5.23h0.76l1.31,4.57
		l1.29-4.57h0.74L98.27,150.62z"/>
	<path class="st2" d="M101.26,143.12h0.72v3.08c0.4-0.14,0.98-0.28,1.54-0.28c1.26,0,2.06,0.52,2.06,1.82v3.53h-0.72v-3.38
		c0-1.07-0.75-1.29-1.46-1.29c-0.55,0-1.06,0.12-1.42,0.24v4.44h-0.72V143.12z"/>
	<path class="st2" d="M109.55,145.93c1.56,0,2.63,1.12,2.63,2.73s-1.07,2.73-2.63,2.73c-1.56,0-2.63-1.12-2.63-2.73
		S107.99,145.93,109.55,145.93z M109.55,146.55c-1.1,0-1.89,0.84-1.89,2.11c0,1.27,0.79,2.11,1.89,2.11c1.1,0,1.9-0.84,1.9-2.11
		C111.45,147.39,110.65,146.55,109.55,146.55z"/>
	<path class="st2" d="M19.34,155.12h0.72v3.08c0.4-0.14,0.98-0.28,1.54-0.28c1.26,0,2.06,0.52,2.06,1.82v3.53h-0.72v-3.38
		c0-1.07-0.75-1.29-1.46-1.29c-0.55,0-1.06,0.12-1.42,0.24v4.44h-0.72V155.12z"/>
	<path class="st2" d="M28.11,159.62c0-0.67-0.43-1.02-1.1-1.02c-0.6,0-1.06,0.17-1.54,0.42v-0.68c0.44-0.24,1.01-0.41,1.62-0.41
		c1.05,0,1.74,0.47,1.74,1.64v3.61c-0.48,0.13-1.04,0.19-1.49,0.19c-1.42,0-2.36-0.44-2.36-1.55c0-1.03,0.95-1.57,2.54-1.57h0.59
		V159.62z M28.11,160.85h-0.54c-1.08,0-1.87,0.29-1.87,0.98s0.72,0.95,1.68,0.95c0.22,0,0.48-0.02,0.73-0.07V160.85z"/>
	<path class="st2" d="M31.76,163.28l-2.05-5.23h0.76l1.7,4.56l1.7-4.56h0.73l-2.05,5.23H31.76z"/>
	<path class="st2" d="M35.89,160.7v0.02c0,1.28,0.92,2.04,1.94,2.04c0.74,0,1.26-0.19,1.79-0.59v0.72c-0.47,0.35-1.14,0.5-1.79,0.5
		c-1.51,0-2.66-1.03-2.66-2.73c0-1.57,1.08-2.73,2.48-2.73c1.32,0,2.2,0.79,2.2,2.28v0.49H35.89z M39.13,160.1
		c-0.05-1.09-0.64-1.54-1.51-1.54c-0.82,0-1.47,0.55-1.68,1.54H39.13z"/>
	<path class="st2" d="M46.22,159.62c0-0.67-0.43-1.02-1.1-1.02c-0.6,0-1.06,0.17-1.54,0.42v-0.68c0.44-0.24,1.01-0.41,1.62-0.41
		c1.05,0,1.74,0.47,1.74,1.64v3.61c-0.48,0.13-1.04,0.19-1.49,0.19c-1.42,0-2.36-0.44-2.36-1.55c0-1.03,0.95-1.57,2.54-1.57h0.59
		V159.62z M46.22,160.85h-0.54c-1.08,0-1.87,0.29-1.87,0.98s0.72,0.95,1.68,0.95c0.22,0,0.48-0.02,0.73-0.07V160.85z"/>
	<path class="st2" d="M52.47,159.08c-0.44-0.31-0.97-0.49-1.46-0.49c-1.08,0-2.01,0.72-2.01,2.09c0,1.32,0.92,2.06,2.06,2.06
		c0.55,0,1.02-0.18,1.5-0.49V163c-0.52,0.26-1.02,0.4-1.57,0.4c-1.46,0-2.72-1.02-2.72-2.73c0-1.75,1.29-2.73,2.71-2.73
		c0.58,0,1.03,0.13,1.5,0.4V159.08z"/>
	<path class="st2" d="M53.27,158.05h0.8v-1.27h0.72v1.27h1.48v0.61H54.8v3.19c0,0.67,0.26,0.94,0.76,0.94
		c0.34,0,0.61-0.11,0.97-0.29v0.64c-0.31,0.16-0.67,0.26-1.13,0.26c-0.76,0-1.32-0.4-1.32-1.48v-3.26h-0.8V158.05z"/>
	<path class="st2" d="M57.61,156.42c0-0.3,0.25-0.54,0.54-0.54c0.3,0,0.54,0.24,0.54,0.54c0,0.29-0.24,0.54-0.54,0.54
		C57.86,156.96,57.61,156.71,57.61,156.42z M58.51,163.28h-0.72v-5.23h0.72V163.28z"/>
	<path class="st2" d="M61.52,163.28l-2.05-5.23h0.76l1.7,4.56l1.7-4.56h0.73l-2.05,5.23H61.52z"/>
	<path class="st2" d="M65.65,160.7v0.02c0,1.28,0.92,2.04,1.94,2.04c0.74,0,1.26-0.19,1.79-0.59v0.72c-0.47,0.35-1.14,0.5-1.79,0.5
		c-1.51,0-2.66-1.03-2.66-2.73c0-1.57,1.08-2.73,2.48-2.73c1.32,0,2.19,0.79,2.19,2.28v0.49H65.65z M68.88,160.1
		c-0.05-1.09-0.64-1.54-1.51-1.54c-0.82,0-1.47,0.55-1.68,1.54H68.88z"/>
	<path class="st2" d="M72.95,162.17c0.44,0.4,0.9,0.62,1.47,0.62c0.66,0,1.08-0.25,1.08-0.84c0-0.62-0.46-0.79-1.28-1.07
		c-0.92-0.31-1.32-0.7-1.32-1.54c0-0.92,0.7-1.42,1.64-1.42c0.52,0,1.02,0.11,1.43,0.4v0.78c-0.41-0.34-0.83-0.56-1.43-0.56
		c-0.58,0-0.95,0.31-0.95,0.8c0,0.48,0.29,0.73,1.09,0.98c0.91,0.28,1.52,0.62,1.52,1.57c0,1.03-0.8,1.5-1.79,1.5
		c-0.59,0-1.15-0.17-1.47-0.42V162.17z"/>
	<path class="st2" d="M81.74,163.22c-0.64,0.12-1.28,0.18-1.82,0.18c-1.51,0-2.38-0.52-2.38-1.82v-3.53h0.72v3.49
		c0,0.98,0.78,1.24,1.61,1.24c0.36,0,0.77-0.02,1.15-0.07v-4.65h0.72V163.22z"/>
	<path class="st2" d="M83.36,156.42c0-0.3,0.25-0.54,0.54-0.54c0.3,0,0.54,0.24,0.54,0.54c0,0.29-0.24,0.54-0.54,0.54
		C83.61,156.96,83.36,156.71,83.36,156.42z M84.26,163.28h-0.72v-5.23h0.72V163.28z"/>
	<path class="st2" d="M89.87,159.08c-0.44-0.31-0.97-0.49-1.46-0.49c-1.08,0-2.01,0.72-2.01,2.09c0,1.32,0.92,2.06,2.06,2.06
		c0.55,0,1.02-0.18,1.5-0.49V163c-0.52,0.26-1.02,0.4-1.57,0.4c-1.46,0-2.72-1.02-2.72-2.73c0-1.75,1.29-2.73,2.71-2.73
		c0.58,0,1.03,0.13,1.5,0.4V159.08z"/>
	<path class="st2" d="M91.16,156.42c0-0.3,0.25-0.54,0.54-0.54c0.3,0,0.54,0.24,0.54,0.54c0,0.29-0.24,0.54-0.54,0.54
		C91.41,156.96,91.16,156.71,91.16,156.42z M92.06,163.28h-0.72v-5.23h0.72V163.28z"/>
	<path class="st2" d="M98.2,163.21c-0.56,0.13-1.15,0.19-1.7,0.19c-1.81,0-3.03-0.98-3.03-2.73c0-1.76,1.32-2.73,2.88-2.73
		c0.4,0,0.88,0.08,1.14,0.24v-3.05h0.72V163.21z M97.48,158.82c-0.26-0.14-0.66-0.24-1.14-0.24c-1.21,0-2.15,0.74-2.15,2.09
		c0,1.33,0.92,2.1,2.3,2.1c0.34,0,0.67-0.01,0.98-0.06V158.82z"/>
	<path class="st2" d="M102.71,159.62c0-0.67-0.43-1.02-1.1-1.02c-0.6,0-1.06,0.17-1.54,0.42v-0.68c0.44-0.24,1.01-0.41,1.62-0.41
		c1.06,0,1.74,0.47,1.74,1.64v3.61c-0.48,0.13-1.04,0.19-1.49,0.19c-1.42,0-2.36-0.44-2.36-1.55c0-1.03,0.95-1.57,2.54-1.57h0.59
		V159.62z M102.71,160.85h-0.54c-1.08,0-1.87,0.29-1.87,0.98s0.72,0.95,1.68,0.95c0.22,0,0.48-0.02,0.73-0.07V160.85z"/>
	<path class="st2" d="M105.87,163.28h-0.72v-8.16h0.72V163.28z"/>
	<path class="st2" d="M18.11,168.42c0-0.3,0.25-0.54,0.54-0.54c0.3,0,0.54,0.24,0.54,0.54c0,0.29-0.24,0.54-0.54,0.54
		C18.36,168.96,18.11,168.71,18.11,168.42z M19.01,175.28h-0.72v-5.23h0.72V175.28z"/>
	<path class="st2" d="M25.15,175.21c-0.56,0.13-1.15,0.19-1.7,0.19c-1.81,0-3.03-0.98-3.03-2.73c0-1.76,1.32-2.73,2.88-2.73
		c0.4,0,0.88,0.08,1.14,0.24v-3.05h0.72V175.21z M24.43,170.82c-0.26-0.14-0.66-0.24-1.14-0.24c-1.21,0-2.15,0.74-2.15,2.09
		c0,1.33,0.92,2.1,2.3,2.1c0.34,0,0.67-0.01,0.98-0.06V170.82z"/>
	<path class="st2" d="M27.28,172.7v0.02c0,1.28,0.92,2.04,1.94,2.04c0.74,0,1.26-0.19,1.79-0.59v0.72c-0.47,0.35-1.14,0.5-1.79,0.5
		c-1.51,0-2.66-1.03-2.66-2.73c0-1.57,1.08-2.73,2.48-2.73c1.32,0,2.2,0.79,2.2,2.28v0.49H27.28z M30.52,172.1
		c-0.05-1.09-0.64-1.54-1.51-1.54c-0.82,0-1.47,0.55-1.68,1.54H30.52z"/>
	<path class="st2" d="M35.39,171.62c0-0.67-0.43-1.02-1.1-1.02c-0.6,0-1.06,0.17-1.54,0.42v-0.68c0.44-0.24,1.01-0.41,1.62-0.41
		c1.05,0,1.74,0.47,1.74,1.64v3.61c-0.48,0.13-1.04,0.19-1.49,0.19c-1.42,0-2.36-0.44-2.36-1.55c0-1.03,0.95-1.57,2.54-1.57h0.59
		V171.62z M35.39,172.85h-0.54c-1.08,0-1.87,0.29-1.87,0.98s0.72,0.95,1.68,0.95c0.22,0,0.48-0.02,0.73-0.07V172.85z"/>
	<path class="st2" d="M37.1,170.05h0.8v-1.27h0.72v1.27h1.48v0.61h-1.48v3.19c0,0.67,0.26,0.94,0.76,0.94
		c0.34,0,0.61-0.11,0.97-0.29v0.64c-0.31,0.16-0.67,0.26-1.13,0.26c-0.76,0-1.32-0.4-1.32-1.48v-3.26h-0.8V170.05z"/>
	<path class="st2" d="M41.44,168.42c0-0.3,0.25-0.54,0.54-0.54c0.3,0,0.54,0.24,0.54,0.54c0,0.29-0.24,0.54-0.54,0.54
		C41.69,168.96,41.44,168.71,41.44,168.42z M42.34,175.28h-0.72v-5.23h0.72V175.28z"/>
	<path class="st2" d="M46.37,169.93c1.56,0,2.63,1.12,2.63,2.73s-1.07,2.73-2.63,2.73c-1.56,0-2.63-1.12-2.63-2.73
		S44.81,169.93,46.37,169.93z M46.37,170.55c-1.1,0-1.89,0.84-1.89,2.11c0,1.27,0.79,2.11,1.89,2.11c1.1,0,1.9-0.84,1.9-2.11
		C48.26,171.39,47.47,170.55,46.37,170.55z"/>
	<path class="st2" d="M50.4,170.33c0.7-0.25,1.49-0.4,2.2-0.4c1.32,0,2.12,0.52,2.12,1.82v3.53H54v-3.38c0-1.07-0.75-1.29-1.46-1.29
		c-0.55,0-1.04,0.1-1.42,0.19v4.49H50.4V170.33z"/>
	<path class="st2" d="M63.31,174.62l1.31-4.57h0.72l-1.58,5.23h-0.88l-1.26-4.45l-1.26,4.45h-0.88l-1.58-5.23h0.76l1.31,4.57
		l1.29-4.57H62L63.31,174.62z"/>
	<path class="st2" d="M66.12,168.42c0-0.3,0.25-0.54,0.54-0.54c0.3,0,0.54,0.24,0.54,0.54c0,0.29-0.24,0.54-0.54,0.54
		C66.37,168.96,66.12,168.71,66.12,168.42z M67.02,175.28H66.3v-5.23h0.72V175.28z"/>
	<path class="st2" d="M68.1,170.05h0.8v-1.27h0.72v1.27h1.48v0.61h-1.48v3.19c0,0.67,0.26,0.94,0.76,0.94
		c0.34,0,0.61-0.11,0.97-0.29v0.64c-0.31,0.16-0.67,0.26-1.13,0.26c-0.76,0-1.32-0.4-1.32-1.48v-3.26h-0.8V170.05z"/>
	<path class="st2" d="M72.61,167.12h0.72v3.08c0.4-0.14,0.98-0.28,1.54-0.28c1.26,0,2.06,0.52,2.06,1.82v3.53h-0.72v-3.38
		c0-1.07-0.75-1.29-1.46-1.29c-0.55,0-1.06,0.12-1.42,0.24v4.44h-0.72V167.12z"/>
	<path class="st2" d="M80.77,168.42c0-0.3,0.25-0.54,0.54-0.54c0.3,0,0.54,0.24,0.54,0.54c0,0.29-0.24,0.54-0.54,0.54
		C81.02,168.96,80.77,168.71,80.77,168.42z M81.67,175.28h-0.72v-5.23h0.72V175.28z"/>
	<path class="st2" d="M83.47,170.33c0.7-0.25,1.49-0.4,2.2-0.4c1.32,0,2.12,0.52,2.12,1.82v3.53h-0.72v-3.38
		c0-1.07-0.75-1.29-1.46-1.29c-0.55,0-1.04,0.1-1.42,0.19v4.49h-0.72V170.33z"/>
	<path class="st2" d="M88.81,170.05h0.8v-1.27h0.72v1.27h1.48v0.61h-1.48v3.19c0,0.67,0.26,0.94,0.76,0.94
		c0.34,0,0.61-0.11,0.97-0.29v0.64c-0.31,0.16-0.67,0.26-1.13,0.26c-0.76,0-1.32-0.4-1.32-1.48v-3.26h-0.8V170.05z"/>
	<path class="st2" d="M93.53,172.7v0.02c0,1.28,0.92,2.04,1.94,2.04c0.74,0,1.26-0.19,1.79-0.59v0.72c-0.47,0.35-1.14,0.5-1.79,0.5
		c-1.51,0-2.66-1.03-2.66-2.73c0-1.57,1.08-2.73,2.48-2.73c1.32,0,2.2,0.79,2.2,2.28v0.49H93.53z M96.76,172.1
		c-0.05-1.09-0.64-1.54-1.51-1.54c-0.82,0-1.47,0.55-1.68,1.54H96.76z"/>
	<path class="st2" d="M98.87,170.33c0.7-0.25,1.49-0.4,2.2-0.4c1.32,0,2.12,0.52,2.12,1.82v3.53h-0.72v-3.38
		c0-1.07-0.75-1.29-1.46-1.29c-0.55,0-1.04,0.1-1.42,0.19v4.49h-0.72V170.33z"/>
	<path class="st2" d="M104.21,170.05h0.8v-1.27h0.72v1.27h1.48v0.61h-1.48v3.19c0,0.67,0.26,0.94,0.76,0.94
		c0.34,0,0.61-0.11,0.97-0.29v0.64c-0.31,0.16-0.67,0.26-1.13,0.26c-0.76,0-1.32-0.4-1.32-1.48v-3.26h-0.8V170.05z"/>
	<path class="st2" d="M41.86,188.92l-0.49,1.36h-1.88l2.77-7.12h2.15l2.77,7.12h-1.96l-0.48-1.36H41.86z M43.33,184.94l-0.92,2.53
		h1.82L43.33,184.94z"/>
	<path class="st2" d="M47.64,188.15c0.53,0.4,1.16,0.73,1.97,0.73c0.54,0,1.01-0.16,1.01-0.64c0-0.43-0.37-0.59-1.09-0.77
		c-1.48-0.37-2.03-1.04-2.03-2.23c0-1.4,1.07-2.21,2.47-2.21c0.85,0,1.44,0.2,1.97,0.52v1.75c-0.55-0.46-1.16-0.74-1.89-0.74
		c-0.54,0-0.8,0.24-0.8,0.58c0,0.46,0.41,0.6,1.16,0.79c1.46,0.38,1.97,1.07,1.97,2.25c0,1.55-1.24,2.22-2.75,2.22
		c-0.79,0-1.51-0.22-1.98-0.5V188.15z"/>
	<path class="st2" d="M55.2,190.28h-1.79v-7.06c0.6-0.1,1.54-0.18,2.33-0.18c1.76,0,3.02,0.82,3.02,2.63c0,1.86-1.43,2.55-2.93,2.55
		c-0.22,0-0.49-0.01-0.64-0.02V190.28z M55.2,186.67c0.08,0.01,0.34,0.02,0.54,0.02c0.73,0,1.22-0.3,1.22-1.03
		c0-0.76-0.58-1.03-1.22-1.03c-0.14,0-0.4,0.01-0.54,0.04V186.67z"/>
	<path class="st2" d="M61.51,190.28h-1.79v-7.12h1.79V190.28z"/>
	<path class="st2" d="M64.75,190.28h-1.78v-7.09c0.56-0.1,1.51-0.16,2.25-0.16c1.82,0,3.05,0.77,3.05,2.47
		c0,1.02-0.58,1.74-1.28,2.11l1.91,2.66h-2.1L65.26,188h-0.52V190.28z M64.75,186.54h0.44c0.74,0,1.27-0.25,1.27-0.98
		c0-0.72-0.55-0.97-1.22-0.97c-0.14,0-0.4,0.01-0.49,0.02V186.54z"/>
	<path class="st2" d="M74.43,188.71v1.57h-4.8v-7.12h4.71v1.57H71.4v1.22h2.69v1.54H71.4v1.22H74.43z"/>
	<path class="st2" d="M75.37,186.39h3.44v1.51h-3.44V186.39z"/>
	<path class="st2" d="M81.74,190.28h-1.79v-7.12h1.79V190.28z"/>
	<path class="st2" d="M84.99,190.28H83.2v-7.12h1.79V190.28z"/>
	<path class="st2" d="M53.03,201.43v-4.37h1.73v7.12h-1.69l-2.97-4.28v4.28h-1.73v-7.12h1.8L53.03,201.43z"/>
	<path class="st2" d="M56.04,199.14h4.54v1.12h-4.54V199.14z M56.04,201.06h4.54v1.12h-4.54V201.06z"/>
	<path class="st2" d="M66.26,202.62v1.57H61.3v-1.31c1.56-1.36,2.87-2.46,2.87-3.45c0-0.58-0.37-0.84-0.97-0.84
		c-0.58,0-1.31,0.4-1.76,0.79v-1.68c0.56-0.48,1.34-0.76,2.29-0.76c1.31,0,2.35,0.76,2.35,2.16c0,1.34-1,2.43-2.45,3.51H66.26z"/>
	<path class="st2" d="M71.87,202.62v1.57h-4.95v-1.31c1.56-1.36,2.87-2.46,2.87-3.45c0-0.58-0.37-0.84-0.97-0.84
		c-0.58,0-1.31,0.4-1.76,0.79v-1.68c0.56-0.48,1.34-0.76,2.29-0.76c1.31,0,2.35,0.76,2.35,2.16c0,1.34-1,2.43-2.45,3.51H71.87z"/>
	<path class="st2" d="M72.33,198.65v-1.58h4.81v1.6l-2.66,5.53h-1.82l2.6-5.54H72.33z"/>
</g>
<g>
	<path class="st6" d="M62.09,87.69c-3.14,0-5.69,2.46-5.69,5.49c0,3.03,2.55,5.49,5.69,5.49c3.14,0,5.69-2.46,5.69-5.49
		C67.79,90.15,65.24,87.69,62.09,87.69L62.09,87.69z"/>
	<path class="st2" d="M71.29,127.44c0,0-8.16,1.31-17.52,0.15v-7.28c0,0,0.45-5.82,6.8-5.82h4.68c0,0,6.04,0.73,6.04,6.26V127.44z"
		/>
	<path class="st7" d="M70.8,110.06c0.02,0,0.04,0,0.06,0C70.84,110.06,70.82,110.06,70.8,110.06z"/>
	<path class="st7" d="M71.92,110.02c0.04,0,0.08-0.01,0.11-0.01C71.99,110.01,71.96,110.01,71.92,110.02z"/>
	<path class="st7" d="M69.33,109.83c0.02,0,0.03,0.01,0.05,0.01C69.36,109.84,69.34,109.83,69.33,109.83z"/>
	<path class="st7" d="M71.51,110.05c0.04,0,0.08-0.01,0.11-0.01C71.59,110.05,71.55,110.05,71.51,110.05z"/>
	<path class="st7" d="M70.55,110.04c0.02,0,0.04,0,0.06,0.01C70.59,110.05,70.57,110.04,70.55,110.04z"/>
	<path class="st7" d="M70.06,109.98c0.01,0,0.03,0.01,0.04,0.01C70.09,109.99,70.07,109.99,70.06,109.98z"/>
	<path class="st7" d="M69.82,109.94c0.01,0,0.03,0.01,0.04,0.01C69.84,109.95,69.83,109.94,69.82,109.94z"/>
	<path class="st7" d="M70.3,110.02c0.02,0,0.04,0,0.05,0.01C70.34,110.02,70.32,110.02,70.3,110.02z"/>
	<path class="st7" d="M69.57,109.89c0.01,0,0.03,0.01,0.04,0.01C69.6,109.9,69.59,109.89,69.57,109.89z"/>
	<path class="st7" d="M72.37,109.95c0.01,0,0.03,0,0.04-0.01C72.4,109.95,72.38,109.95,72.37,109.95z"/>
	<path class="st7" d="M73.6,109.6c0,0,0.01,0,0.01,0C73.61,109.6,73.6,109.6,73.6,109.6z"/>
	<path class="st7" d="M73.19,109.74c0.02-0.01,0.04-0.01,0.05-0.02C73.23,109.73,73.21,109.74,73.19,109.74z"/>
	<path class="st7" d="M72.81,109.85c0.01,0,0.01,0,0.02-0.01C72.83,109.85,72.82,109.85,72.81,109.85z"/>
	<path class="st7" d="M64.84,101.68c0,0.01,0,0.01-0.01,0.02C64.84,101.7,64.84,101.69,64.84,101.68z"/>
	<path class="st7" d="M64.98,101.33c0,0.01-0.01,0.01-0.01,0.02C64.97,101.35,64.97,101.34,64.98,101.33z"/>
	<polygon class="st7" points="64.57,102.8 64.57,102.8 64.57,102.8 	"/>
	<path class="st7" d="M69.86,109.95c0.07,0.01,0.13,0.02,0.2,0.03C69.99,109.97,69.92,109.96,69.86,109.95z"/>
	<path class="st7" d="M71.12,110.07c0.13,0,0.27-0.01,0.4-0.01C71.38,110.06,71.25,110.07,71.12,110.07z"/>
	<path class="st7" d="M69.14,109.78c0.06,0.02,0.12,0.04,0.18,0.05C69.26,109.81,69.2,109.79,69.14,109.78z"/>
	<path class="st7" d="M71.63,110.04c0.1-0.01,0.19-0.02,0.29-0.03C71.82,110.03,71.73,110.04,71.63,110.04z"/>
	<path class="st7" d="M72.41,109.94c0.13-0.03,0.27-0.06,0.4-0.09C72.68,109.89,72.55,109.92,72.41,109.94z"/>
	<path class="st7" d="M74.35,109.25c-0.24,0.13-0.49,0.24-0.74,0.34C73.87,109.49,74.11,109.38,74.35,109.25z"/>
	<path class="st7" d="M72.83,109.85c0.12-0.03,0.24-0.07,0.36-0.1C73.07,109.78,72.95,109.82,72.83,109.85z"/>
	<path class="st7" d="M73.25,109.73c0.12-0.04,0.24-0.08,0.35-0.13C73.48,109.64,73.37,109.69,73.25,109.73z"/>
	<path class="st7" d="M72.03,110c0.11-0.02,0.23-0.03,0.34-0.05C72.26,109.97,72.15,109.99,72.03,110z"/>
	<path class="st7" d="M70.86,110.06c0.09,0,0.17,0,0.26,0C71.03,110.07,70.94,110.06,70.86,110.06z"/>
	<path class="st7" d="M69.61,109.9c0.07,0.01,0.13,0.03,0.2,0.04C69.75,109.93,69.68,109.92,69.61,109.9z"/>
	<path class="st7" d="M69.38,109.84c0.06,0.02,0.13,0.03,0.19,0.05C69.51,109.87,69.44,109.86,69.38,109.84z"/>
	<path class="st7" d="M70.1,109.99c0.06,0.01,0.13,0.02,0.19,0.03C70.23,110.01,70.17,110,70.1,109.99z"/>
	<path class="st7" d="M70.61,110.05c0.07,0,0.13,0.01,0.2,0.01C70.74,110.05,70.67,110.05,70.61,110.05z"/>
	<path class="st7" d="M70.35,110.02c0.06,0.01,0.13,0.01,0.2,0.02C70.48,110.04,70.42,110.03,70.35,110.02z"/>
	<path class="st7" d="M64.97,101.35c-0.04,0.11-0.09,0.22-0.12,0.33C64.88,101.57,64.92,101.46,64.97,101.35z"/>
	<path class="st7" d="M64.84,101.7c-0.12,0.35-0.21,0.72-0.27,1.1C64.63,102.42,64.72,102.06,64.84,101.7z"/>
	<path class="st6" d="M57.72,113.2c-1.36-1.3-1.62-3.08-1.67-3.72c-0.84,0.37-1.77,0.58-2.75,0.58c-1.14,0-2.21-0.28-3.15-0.77
		c-5.43,0.87-5.44,5.77-5.44,5.77v7.57c2.31,0.65,6.69,1.19,7.55,1.29v-4.17C52.26,119.76,52.67,114.55,57.72,113.2z"/>
	<path class="st6" d="M71.92,110.02c-0.1,0.01-0.19,0.02-0.29,0.03c-0.04,0-0.08,0.01-0.11,0.01c-0.13,0.01-0.26,0.01-0.4,0.01
		c-0.09,0-0.17,0-0.26,0c-0.02,0-0.04,0-0.06,0c-0.07,0-0.13-0.01-0.2-0.01c-0.02,0-0.04,0-0.06-0.01c-0.07-0.01-0.13-0.01-0.2-0.02
		c-0.02,0-0.04,0-0.05-0.01c-0.07-0.01-0.13-0.02-0.19-0.03c-0.01,0-0.03,0-0.04-0.01c-0.07-0.01-0.14-0.02-0.2-0.03
		c-0.01,0-0.03-0.01-0.04-0.01c-0.07-0.01-0.13-0.03-0.2-0.04c-0.01,0-0.03-0.01-0.04-0.01c-0.07-0.02-0.13-0.03-0.19-0.05
		c-0.02,0-0.03-0.01-0.05-0.01c-0.06-0.02-0.12-0.03-0.18-0.05c0,0-0.01,0-0.01,0c-0.1,0.8-0.46,2.36-1.71,3.5
		c2.1,0.68,5.53,2.48,5.53,7.01v3.65c0.86-0.1,5.24-0.64,7.55-1.29v-7.57c0,0,0-5.09-5.74-5.82h-0.41c0,0,0,0,0,0
		c-0.24,0.13-0.48,0.24-0.74,0.34c0,0-0.01,0-0.01,0c-0.12,0.05-0.23,0.09-0.35,0.13c-0.02,0.01-0.04,0.01-0.05,0.02
		c-0.12,0.04-0.24,0.07-0.36,0.1c-0.01,0-0.01,0-0.02,0.01c-0.13,0.03-0.26,0.06-0.4,0.09c-0.01,0-0.03,0-0.04,0.01L71.92,110.02z"
		/>
	<g>
		<path class="st7" d="M62.42,99.95c-0.15,0-0.3,0.01-0.45,0.02c0.24,0,0.47-0.01,0.71-0.01C62.6,99.95,62.51,99.95,62.42,99.95z"/>
		<path class="st6" d="M62.42,102.36c0.76,0,1.49,0.15,2.15,0.41c0.06-0.37,0.14-0.72,0.26-1.07c0-0.01,0-0.01,0.01-0.02
			c0.04-0.11,0.08-0.22,0.12-0.33c0-0.01,0.01-0.01,0.01-0.02c0.09-0.22,0.19-0.43,0.31-0.64c-0.77-0.43-1.66-0.7-2.6-0.74
			c-0.23,0-0.47,0.01-0.71,0.01c-1.01,0.08-1.96,0.41-2.75,0.93c0.32,0.63,0.54,1.33,0.62,2.06
			C60.62,102.58,61.5,102.36,62.42,102.36z"/>
	</g>
	<path class="st6" d="M58.59,103.96c0-0.09,0.01-0.17,0.01-0.26c0-2.66-2.24-4.83-5.01-4.83c-2.76,0-5.01,2.16-5.01,4.83
		c0,2.66,2.24,4.83,5.01,4.83c0.96,0,1.85-0.26,2.61-0.71C56.47,106.25,57.35,104.89,58.59,103.96z"/>
	<path class="st6" d="M71.12,98.87c-2.76,0-5.01,2.16-5.01,4.83c0,0,0,0,0,0c1.49,0.97,2.53,2.52,2.78,4.31
		c0.67,0.32,1.42,0.51,2.22,0.51c2.77,0,5.01-2.16,5.01-4.83C76.12,101.03,73.88,98.87,71.12,98.87z"/>
	<path class="st2" d="M62.53,104.02c-2.76,0-5.01,2.16-5.01,4.83c0,2.66,2.24,4.83,5.01,4.83c2.77,0,5.01-2.16,5.01-4.83
		C67.54,106.18,65.29,104.02,62.53,104.02L62.53,104.02z"/>
</g>
</svg>
