<?xml version="1.0" encoding="utf-8"?>
<!-- Generator: Adobe Illustrator 24.1.3, SVG Export Plug-In . SVG Version: 6.00 Build 0)  -->
<svg version="1.1" id="Layer_1" xmlns="http://www.w3.org/2000/svg" xmlns:xlink="http://www.w3.org/1999/xlink" x="0px" y="0px"
	 viewBox="0 0 428.57 269.57" style="enable-background:new 0 0 428.57 269.57;" xml:space="preserve">
<style type="text/css">
	.st0{fill:none;stroke:#231F20;stroke-miterlimit:10;}
	.st1{fill-rule:evenodd;clip-rule:evenodd;fill:none;stroke:#00417B;stroke-width:0.645;stroke-miterlimit:10;}
	.st2{fill:#868686;}
	.st3{fill:#00417B;}
	.st4{fill:#333333;}
	.st5{fill-rule:evenodd;clip-rule:evenodd;fill:#00417B;}
	.st6{fill:#FFFFFF;}
	.st7{fill:none;stroke:#231F20;stroke-linejoin:round;stroke-miterlimit:8;}
</style>
<line class="st0" x1="296.03" y1="133.92" x2="303.27" y2="133.92"/>
<line class="st0" x1="299.65" y1="133.92" x2="299.65" y2="146.9"/>
<line class="st0" x1="55.95" y1="40.43" x2="52.13" y2="40.43"/>
<line class="st0" x1="55.95" y1="97.96" x2="52.13" y2="97.96"/>
<line class="st0" x1="55.95" y1="154.76" x2="52.13" y2="154.76"/>
<line class="st0" x1="55.95" y1="211.41" x2="52.13" y2="211.41"/>
<path class="st1" d="M404.33,22.81H130.72c-2.73,0-4.94-2.21-4.94-4.94v-8c0-2.73,2.21-4.94,4.94-4.94h273.62
	c2.73,0,4.94,2.21,4.94,4.94v8C409.28,20.59,407.06,22.81,404.33,22.81z"/>
<rect x="308.86" y="12.08" class="st2" width="11.5" height="3.57"/>
<rect x="132.54" y="12.08" class="st3" width="11.63" height="3.57"/>
<g>
	<path class="st4" d="M324.95,17.2h-1.64v-6.48c0.55-0.09,1.41-0.17,2.13-0.17c1.62,0,2.77,0.75,2.77,2.41
		c0,1.71-1.31,2.34-2.68,2.34c-0.2,0-0.45-0.01-0.58-0.02V17.2z M324.95,13.89c0.08,0.01,0.31,0.02,0.5,0.02
		c0.67,0,1.12-0.28,1.12-0.95c0-0.69-0.53-0.95-1.12-0.95c-0.13,0-0.36,0.01-0.5,0.03V13.89z"/>
	<path class="st4" d="M329.1,10.73c0.52-0.09,1.39-0.18,2-0.18c1.45,0,2.61,0.46,2.61,1.86c0,0.76-0.53,1.28-1.17,1.4
		c0.85,0.09,1.49,0.63,1.49,1.56c0,1.24-0.96,1.91-3.16,1.91c-0.62,0-1.33-0.07-1.77-0.13V10.73z M330.67,13.28h0.47
		c0.68,0,0.96-0.25,0.96-0.73c0-0.43-0.34-0.63-0.84-0.63c-0.2,0-0.47,0.02-0.59,0.04V13.28z M330.67,15.92
		c0.14,0.01,0.4,0.02,0.52,0.02c0.66,0,1.17-0.17,1.17-0.69c0-0.51-0.37-0.67-0.95-0.67h-0.74V15.92z"/>
	<path class="st4" d="M338.09,10.56c1.89,0,3.41,1.39,3.41,3.38s-1.52,3.38-3.41,3.38c-1.89,0-3.4-1.39-3.4-3.38
		S336.19,10.56,338.09,10.56z M338.09,12.03c-0.99,0-1.72,0.76-1.72,1.9s0.73,1.9,1.72,1.9c1,0,1.72-0.76,1.72-1.9
		S339.09,12.03,338.09,12.03z"/>
	<path class="st4" d="M342.29,14.55v-1.13h1.52V11.9h1.13v1.52h1.52v1.13h-1.52v1.52h-1.13v-1.52H342.29z"/>
	<path class="st4" d="M347.32,15.24c0.48,0.36,1.07,0.67,1.8,0.67c0.5,0,0.92-0.14,0.92-0.58c0-0.4-0.34-0.54-1-0.7
		c-1.35-0.34-1.86-0.96-1.86-2.05c0-1.29,0.98-2.02,2.27-2.02c0.78,0,1.32,0.19,1.8,0.47v1.61c-0.51-0.42-1.07-0.68-1.74-0.68
		c-0.5,0-0.74,0.22-0.74,0.53c0,0.42,0.37,0.55,1.07,0.73c1.34,0.35,1.8,0.98,1.8,2.07c0,1.42-1.13,2.04-2.52,2.04
		c-0.73,0-1.39-0.2-1.82-0.46V15.24z"/>
	<path class="st4" d="M355.69,10.56c1.89,0,3.41,1.39,3.41,3.38s-1.52,3.38-3.41,3.38c-1.89,0-3.4-1.39-3.4-3.38
		S353.79,10.56,355.69,10.56z M355.69,12.03c-0.99,0-1.72,0.76-1.72,1.9s0.73,1.9,1.72,1.9c1,0,1.72-0.76,1.72-1.9
		S356.69,12.03,355.69,12.03z"/>
	<path class="st4" d="M364.95,12.72c-0.41-0.41-1.01-0.69-1.77-0.69c-1.08,0-1.69,0.79-1.69,1.9c0,1.16,0.7,1.9,1.76,1.9
		c0.78,0,1.26-0.23,1.84-0.68v1.67c-0.64,0.38-1.24,0.48-1.91,0.48c-2.06,0-3.37-1.4-3.37-3.38c0-1.99,1.34-3.38,3.37-3.38
		c0.67,0,1.25,0.11,1.78,0.42V12.72z"/>
	<path class="st4" d="M370.42,18.72c-1.18-1.11-1.89-2.86-1.89-4.5s0.72-3.4,1.89-4.5h1.71c-1.36,1.35-2.06,2.96-2.06,4.5
		s0.69,3.15,2.06,4.5H370.42z"/>
	<path class="st4" d="M372.9,12.6c0.71-0.29,1.69-0.46,2.46-0.46c1.3,0,2.16,0.47,2.16,2.04v3.03h-1.56v-2.96
		c0-0.4-0.17-0.7-0.7-0.7c-0.25,0-0.55,0.03-0.79,0.12v3.54h-1.56V12.6z"/>
	<path class="st4" d="M378.61,12.57h4.17v1.02h-4.17V12.57z M378.61,14.33h4.17v1.02h-4.17V14.33z"/>
	<path class="st4" d="M387.98,15.76v1.44h-4.54V16c1.43-1.24,2.63-2.25,2.63-3.17c0-0.53-0.34-0.77-0.89-0.77
		c-0.53,0-1.2,0.36-1.62,0.73v-1.54c0.52-0.44,1.23-0.69,2.1-0.69c1.2,0,2.16,0.69,2.16,1.98c0,1.23-0.91,2.23-2.24,3.22H387.98z"/>
	<path class="st4" d="M392.97,15.76v1.44h-4.54V16c1.43-1.24,2.63-2.25,2.63-3.17c0-0.53-0.34-0.77-0.89-0.77
		c-0.53,0-1.2,0.36-1.62,0.73v-1.54c0.52-0.44,1.23-0.69,2.1-0.69c1.2,0,2.16,0.69,2.16,1.98c0,1.23-0.91,2.23-2.24,3.22H392.97z"/>
	<path class="st4" d="M395.25,12.94c1.3,0.18,2.32,0.75,2.32,2.19c0,1.42-1.01,2.18-2.5,2.18c-0.63,0-1.31-0.2-1.68-0.48v-1.44
		c0.37,0.28,0.95,0.58,1.61,0.58c0.62,0,1.06-0.17,1.06-0.78c0-0.8-1.14-1-2.29-1.09l0.24-3.43h3.42v1.45h-2.11L395.25,12.94z"/>
	<path class="st4" d="M399.7,9.72c1.18,1.1,1.89,2.86,1.89,4.5s-0.72,3.39-1.89,4.5h-1.71c1.36-1.35,2.06-2.96,2.06-4.5
		s-0.69-3.15-2.06-4.5H399.7z"/>
</g>
<g>
	<path class="st4" d="M146.83,15.41c0-0.78,0.53-1.3,1.09-1.5c-0.52-0.26-0.86-0.79-0.86-1.47c0-1.2,0.95-1.88,2.08-1.88
		c1.16,0,2.07,0.68,2.07,1.88c0,0.68-0.33,1.21-0.84,1.47c0.54,0.2,1.08,0.71,1.08,1.5c0,1.2-1.03,1.9-2.31,1.9
		C147.86,17.31,146.83,16.61,146.83,15.41z M149.86,15.33c0-0.43-0.3-0.7-0.73-0.7c-0.43,0-0.73,0.27-0.73,0.7
		c0,0.41,0.3,0.67,0.73,0.67C149.57,16,149.86,15.74,149.86,15.33z M149.79,12.52c0-0.41-0.28-0.65-0.65-0.65s-0.65,0.24-0.65,0.65
		c0,0.42,0.27,0.66,0.65,0.66S149.79,12.94,149.79,12.52z"/>
	<path class="st4" d="M156.53,14.43h0.88v1.28h-0.88v1.5h-1.56v-1.5h-3.06v-1.32l3.07-3.72h1.55V14.43z M153.45,14.43h1.52v-1.89
		L153.45,14.43z"/>
	<path class="st4" d="M166.28,14.19c0-0.38-0.11-0.68-0.63-0.68c-0.28,0-0.55,0.07-0.75,0.17c0.03,0.08,0.08,0.21,0.08,0.41v3.12
		h-1.56v-3.01c0-0.38-0.12-0.68-0.62-0.68c-0.24,0-0.41,0.03-0.66,0.1v3.6h-1.56v-4.62c0.7-0.26,1.56-0.44,2.31-0.44
		c0.58,0,1.08,0.15,1.38,0.4c0.4-0.2,0.87-0.4,1.63-0.4c1.18,0,1.95,0.45,1.95,1.98v3.08h-1.56V14.19z"/>
	<path class="st4" d="M172.09,16.97c-0.17,0.09-0.51,0.15-0.88,0.15c-1.45,0-2.46-0.87-2.46-2.46c0-1.56,1.05-2.52,2.76-2.52
		c0.86,0,1.56,0.17,2.15,0.4v4.54c0,1.76-1.44,2.21-2.55,2.21c-0.62,0-1.19-0.12-1.75-0.38v-1.44c0.65,0.39,1.11,0.52,1.75,0.52
		c0.58,0,0.99-0.32,0.99-0.9V16.97z M172.09,13.58c-0.14-0.06-0.36-0.09-0.58-0.09c-0.71,0-1.18,0.36-1.18,1.17
		c0,0.74,0.45,1.17,1.09,1.17c0.28,0,0.47-0.06,0.67-0.12V13.58z"/>
	<path class="st4" d="M176.79,15.24c0.48,0.36,1.07,0.67,1.8,0.67c0.5,0,0.92-0.14,0.92-0.58c0-0.4-0.34-0.54-1-0.7
		c-1.35-0.34-1.86-0.96-1.86-2.05c0-1.29,0.98-2.02,2.27-2.02c0.78,0,1.32,0.19,1.8,0.47v1.61c-0.51-0.42-1.07-0.68-1.74-0.68
		c-0.5,0-0.74,0.22-0.74,0.53c0,0.42,0.37,0.55,1.07,0.73c1.34,0.35,1.8,0.98,1.8,2.07c0,1.42-1.13,2.04-2.52,2.04
		c-0.73,0-1.39-0.2-1.82-0.46V15.24z"/>
	<path class="st4" d="M183.72,17.2h-1.64v-6.48c0.55-0.09,1.41-0.17,2.13-0.17c1.62,0,2.77,0.75,2.77,2.41
		c0,1.71-1.31,2.34-2.68,2.34c-0.2,0-0.45-0.01-0.58-0.02V17.2z M183.72,13.89c0.08,0.01,0.31,0.02,0.5,0.02
		c0.67,0,1.12-0.28,1.12-0.95c0-0.69-0.53-0.95-1.12-0.95c-0.13,0-0.36,0.01-0.5,0.03V13.89z"/>
	<path class="st4" d="M189.5,17.2h-1.63v-6.5c0.52-0.09,1.39-0.14,2.07-0.14c1.67,0,2.79,0.7,2.79,2.27c0,0.94-0.53,1.6-1.18,1.94
		l1.75,2.44h-1.92l-1.41-2.09h-0.47V17.2z M189.5,13.77h0.41c0.68,0,1.17-0.23,1.17-0.9c0-0.66-0.51-0.89-1.12-0.89
		c-0.13,0-0.36,0.01-0.45,0.02V13.77z"/>
	<path class="st4" d="M195.48,15.96l-0.45,1.24h-1.73l2.54-6.54h1.97l2.54,6.54h-1.79l-0.44-1.24H195.48z M196.82,12.3l-0.85,2.32
		h1.67L196.82,12.3z"/>
	<path class="st4" d="M202.78,17.2l-2.43-6.54h1.76l1.68,4.87l1.66-4.87h1.75l-2.43,6.54H202.78z"/>
	<path class="st4" d="M209.38,15.96l-0.45,1.24h-1.73l2.54-6.54h1.97l2.54,6.54h-1.79l-0.44-1.24H209.38z M210.73,12.3l-0.85,2.32
		h1.67L210.73,12.3z"/>
	<path class="st4" d="M218.01,17.2h-1.63v-5.09h-1.96v-1.44h5.54v1.44h-1.96V17.2z"/>
	<path class="st4" d="M223.88,10.56c1.89,0,3.41,1.39,3.41,3.38s-1.52,3.38-3.41,3.38c-1.89,0-3.4-1.39-3.4-3.38
		S221.99,10.56,223.88,10.56z M223.88,12.03c-0.99,0-1.72,0.76-1.72,1.9s0.73,1.9,1.72,1.9c1,0,1.72-0.76,1.72-1.9
		S224.88,12.03,223.88,12.03z"/>
	<path class="st4" d="M228.08,14.55v-1.13h1.52V11.9h1.13v1.52h1.52v1.13h-1.52v1.52h-1.13v-1.52H228.08z"/>
	<path class="st4" d="M233.11,15.24c0.48,0.36,1.07,0.67,1.8,0.67c0.5,0,0.92-0.14,0.92-0.58c0-0.4-0.34-0.54-1-0.7
		c-1.35-0.34-1.86-0.96-1.86-2.05c0-1.29,0.98-2.02,2.27-2.02c0.78,0,1.32,0.19,1.8,0.47v1.61c-0.51-0.42-1.07-0.68-1.74-0.68
		c-0.5,0-0.74,0.22-0.74,0.53c0,0.42,0.37,0.55,1.07,0.73c1.34,0.35,1.8,0.98,1.8,2.07c0,1.42-1.13,2.04-2.52,2.04
		c-0.73,0-1.39-0.2-1.82-0.46V15.24z"/>
	<path class="st4" d="M241.48,10.56c1.89,0,3.41,1.39,3.41,3.38s-1.52,3.38-3.41,3.38c-1.89,0-3.4-1.39-3.4-3.38
		S239.59,10.56,241.48,10.56z M241.48,12.03c-0.99,0-1.72,0.76-1.72,1.9s0.73,1.9,1.72,1.9c1,0,1.72-0.76,1.72-1.9
		S242.48,12.03,241.48,12.03z"/>
	<path class="st4" d="M250.74,12.72c-0.41-0.41-1.01-0.69-1.77-0.69c-1.08,0-1.69,0.79-1.69,1.9c0,1.16,0.7,1.9,1.76,1.9
		c0.78,0,1.26-0.23,1.84-0.68v1.67c-0.64,0.38-1.24,0.48-1.91,0.48c-2.06,0-3.37-1.4-3.37-3.38c0-1.99,1.34-3.38,3.37-3.38
		c0.67,0,1.25,0.11,1.78,0.42V12.72z"/>
	<path class="st4" d="M256.21,18.72c-1.18-1.11-1.89-2.86-1.89-4.5s0.72-3.4,1.89-4.5h1.71c-1.36,1.35-2.06,2.96-2.06,4.5
		s0.69,3.15,2.06,4.5H256.21z"/>
	<path class="st4" d="M258.7,12.6c0.71-0.29,1.69-0.46,2.46-0.46c1.3,0,2.16,0.47,2.16,2.04v3.03h-1.56v-2.96
		c0-0.4-0.17-0.7-0.7-0.7c-0.25,0-0.55,0.03-0.79,0.12v3.54h-1.56V12.6z"/>
	<path class="st4" d="M264.41,12.57h4.17v1.02h-4.17V12.57z M264.41,14.33h4.17v1.02h-4.17V14.33z"/>
	<path class="st4" d="M273.78,15.76v1.44h-4.54V16c1.43-1.24,2.63-2.25,2.63-3.17c0-0.53-0.34-0.77-0.89-0.77
		c-0.53,0-1.2,0.36-1.62,0.73v-1.54c0.52-0.44,1.23-0.69,2.1-0.69c1.2,0,2.16,0.69,2.16,1.98c0,1.23-0.91,2.23-2.24,3.22H273.78z"/>
	<path class="st4" d="M278.76,15.76v1.44h-4.54V16c1.43-1.24,2.63-2.25,2.63-3.17c0-0.53-0.34-0.77-0.89-0.77
		c-0.53,0-1.2,0.36-1.62,0.73v-1.54c0.52-0.44,1.23-0.69,2.1-0.69c1.2,0,2.16,0.69,2.16,1.98c0,1.23-0.91,2.23-2.24,3.22H278.76z"/>
	<path class="st4" d="M282.96,10.67l-0.87,1.49l-0.44,0.7c0.08-0.02,0.23-0.04,0.35-0.04c1.09,0,2.15,0.76,2.15,2.17
		c0,1.32-0.98,2.33-2.5,2.33c-1.46,0-2.38-1.01-2.38-2.33c0-0.89,0.51-1.77,0.8-2.28l1.19-2.04H282.96z M281.69,15.97
		c0.51,0,0.91-0.35,0.91-0.95c0-0.6-0.41-0.96-0.91-0.96c-0.5,0-0.9,0.35-0.9,0.96C280.78,15.62,281.19,15.97,281.69,15.97z"/>
	<path class="st4" d="M286.13,9.72c1.18,1.1,1.89,2.86,1.89,4.5s-0.72,3.39-1.89,4.5h-1.71c1.36-1.35,2.06-2.96,2.06-4.5
		s-0.69-3.15-2.06-4.5H286.13z"/>
</g>
<g>
	<g>
		<g>
			<path class="st4" d="M35.85,207.65c1.5,0,2.43,1.42,2.43,3.38s-0.94,3.38-2.43,3.38s-2.43-1.42-2.43-3.38
				S34.36,207.65,35.85,207.65z M35.85,213.82c1.06,0,1.75-1.16,1.75-2.79c0-1.64-0.69-2.79-1.75-2.79c-1.06,0-1.75,1.16-1.75,2.79
				C34.1,212.66,34.8,213.82,35.85,213.82z"/>
			<path class="st4" d="M40.78,207.65c0.84,0,1.52,0.63,1.52,1.52c0,0.88-0.68,1.51-1.52,1.51c-0.83,0-1.51-0.63-1.51-1.51
				C39.27,208.27,39.96,207.65,40.78,207.65z M40.78,210.1c0.52,0,0.9-0.33,0.9-0.94c0-0.62-0.38-0.95-0.9-0.95
				c-0.51,0-0.89,0.33-0.89,0.95C39.89,209.77,40.28,210.1,40.78,210.1z M41,214.29h-0.64l3.93-6.54h0.64L41,214.29z M44.49,214.4
				c-0.83,0-1.51-0.63-1.51-1.51c0-0.89,0.68-1.52,1.51-1.52c0.84,0,1.52,0.63,1.52,1.52C46.01,213.77,45.33,214.4,44.49,214.4z
				 M44.49,211.95c-0.51,0-0.89,0.33-0.89,0.95c0,0.61,0.38,0.94,0.89,0.94c0.52,0,0.9-0.33,0.9-0.94
				C45.39,212.28,45.01,211.95,44.49,211.95z"/>
		</g>
	</g>
</g>
<g>
	<g>
		<g>
			<path class="st4" d="M32.46,156.86v0.59h-4.15v-0.51c1.68-1.42,3.31-2.84,3.31-4.28c0-0.85-0.51-1.24-1.21-1.24
				c-0.85,0-1.42,0.44-1.86,0.88v-0.74c0.4-0.41,1.06-0.76,1.86-0.76c1.07,0,1.88,0.57,1.88,1.86c0,1.45-1.62,3.08-3.12,4.19H32.46z
				"/>
			<path class="st4" d="M35.85,150.81c1.5,0,2.43,1.42,2.43,3.38s-0.94,3.38-2.43,3.38s-2.43-1.42-2.43-3.38
				S34.36,150.81,35.85,150.81z M35.85,156.98c1.06,0,1.75-1.16,1.75-2.79c0-1.64-0.69-2.79-1.75-2.79c-1.06,0-1.75,1.16-1.75,2.79
				C34.11,155.83,34.8,156.98,35.85,156.98z"/>
			<path class="st4" d="M40.78,150.81c0.84,0,1.52,0.63,1.52,1.52c0,0.88-0.68,1.51-1.52,1.51c-0.83,0-1.51-0.63-1.51-1.51
				C39.28,151.44,39.96,150.81,40.78,150.81z M40.78,153.26c0.52,0,0.9-0.33,0.9-0.94c0-0.62-0.38-0.95-0.9-0.95
				c-0.51,0-0.89,0.33-0.89,0.95C39.89,152.93,40.28,153.26,40.78,153.26z M41,157.45h-0.64l3.93-6.54h0.64L41,157.45z
				 M44.49,157.56c-0.83,0-1.51-0.63-1.51-1.51c0-0.89,0.68-1.52,1.51-1.52c0.84,0,1.52,0.63,1.52,1.52
				C46.01,156.94,45.33,157.56,44.49,157.56z M44.49,155.11c-0.51,0-0.89,0.33-0.89,0.95c0,0.61,0.38,0.94,0.89,0.94
				c0.52,0,0.9-0.33,0.9-0.94C45.39,155.44,45.01,155.11,44.49,155.11z"/>
		</g>
	</g>
</g>
<g>
	<g>
		<g>
			<path class="st4" d="M31.47,98.26h1.24v0.56h-1.24v1.82h-0.65v-1.82h-3.23v-0.56l3.09-4.16h0.79V98.26z M28.29,98.26h2.53v-3.44
				L28.29,98.26z"/>
			<path class="st4" d="M35.85,93.99c1.5,0,2.43,1.42,2.43,3.38s-0.94,3.38-2.43,3.38s-2.43-1.42-2.43-3.38S34.36,93.99,35.85,93.99
				z M35.85,100.16c1.06,0,1.75-1.16,1.75-2.79c0-1.64-0.69-2.79-1.75-2.79c-1.06,0-1.75,1.16-1.75,2.79
				C34.11,99,34.8,100.16,35.85,100.16z"/>
			<path class="st4" d="M40.78,93.99c0.84,0,1.52,0.63,1.52,1.52c0,0.88-0.68,1.51-1.52,1.51c-0.83,0-1.51-0.63-1.51-1.51
				C39.28,94.61,39.96,93.99,40.78,93.99z M40.78,96.44c0.52,0,0.9-0.33,0.9-0.94c0-0.62-0.39-0.95-0.9-0.95
				c-0.51,0-0.89,0.33-0.89,0.95C39.89,96.11,40.28,96.44,40.78,96.44z M41,100.63h-0.64l3.93-6.54h0.64L41,100.63z M44.49,100.74
				c-0.83,0-1.51-0.63-1.51-1.51c0-0.89,0.68-1.52,1.51-1.52c0.84,0,1.52,0.63,1.52,1.52C46.01,100.12,45.33,100.74,44.49,100.74z
				 M44.49,98.29c-0.51,0-0.89,0.33-0.89,0.95c0,0.61,0.38,0.94,0.89,0.94c0.52,0,0.9-0.33,0.9-0.94
				C45.39,98.62,45.01,98.29,44.49,98.29z"/>
		</g>
	</g>
</g>
<g>
	<g>
		<g>
			<path class="st4" d="M31.05,36.49l-1.44,2.19l-0.56,0.79c0.34-0.41,0.79-0.59,1.35-0.59c1.09,0,2.08,0.75,2.08,2.12
				c0,1.14-0.81,2.13-2.23,2.13c-1.4,0-2.18-0.99-2.18-2.13c0-0.79,0.31-1.49,0.77-2.2l1.5-2.31H31.05z M30.25,42.58
				c0.89,0,1.55-0.6,1.55-1.57c0-0.95-0.65-1.56-1.54-1.56c-0.87,0-1.53,0.62-1.53,1.56C28.74,41.98,29.41,42.58,30.25,42.58z"/>
			<path class="st4" d="M35.85,36.38c1.5,0,2.43,1.42,2.43,3.38s-0.94,3.38-2.43,3.38s-2.43-1.42-2.43-3.38S34.36,36.38,35.85,36.38
				z M35.85,42.55c1.06,0,1.75-1.16,1.75-2.79c0-1.64-0.69-2.79-1.75-2.79c-1.06,0-1.75,1.16-1.75,2.79
				C34.1,41.39,34.8,42.55,35.85,42.55z"/>
			<path class="st4" d="M40.78,36.38c0.84,0,1.52,0.63,1.52,1.52c0,0.88-0.68,1.51-1.52,1.51c-0.83,0-1.51-0.63-1.51-1.51
				C39.27,37,39.96,36.38,40.78,36.38z M40.78,38.83c0.52,0,0.9-0.33,0.9-0.94c0-0.62-0.39-0.95-0.9-0.95
				c-0.51,0-0.89,0.33-0.89,0.95C39.89,38.5,40.28,38.83,40.78,38.83z M41,43.02h-0.64l3.93-6.54h0.64L41,43.02z M44.49,43.13
				c-0.83,0-1.51-0.63-1.51-1.51c0-0.89,0.68-1.52,1.51-1.52c0.84,0,1.52,0.63,1.52,1.52C46.01,42.5,45.33,43.13,44.49,43.13z
				 M44.49,40.68c-0.51,0-0.89,0.33-0.89,0.95c0,0.61,0.38,0.94,0.89,0.94c0.52,0,0.9-0.33,0.9-0.94
				C45.39,41.01,45.01,40.68,44.49,40.68z"/>
		</g>
	</g>
</g>
<g>
	<g>
		<g>
			<path class="st4" d="M23.73,8.56l2.04-0.36v6.63H25.1V8.95l-1.36,0.21V8.56z"/>
			<path class="st4" d="M29.89,8.19c1.5,0,2.43,1.42,2.43,3.38s-0.94,3.38-2.43,3.38s-2.43-1.42-2.43-3.38S28.4,8.19,29.89,8.19z
				 M29.89,14.36c1.06,0,1.75-1.16,1.75-2.79c0-1.64-0.69-2.79-1.75-2.79c-1.06,0-1.75,1.16-1.75,2.79
				C28.14,13.2,28.83,14.36,29.89,14.36z"/>
			<path class="st4" d="M35.85,8.19c1.5,0,2.43,1.42,2.43,3.38s-0.94,3.38-2.43,3.38s-2.43-1.42-2.43-3.38S34.36,8.19,35.85,8.19z
				 M35.85,14.36c1.06,0,1.75-1.16,1.75-2.79c0-1.64-0.69-2.79-1.75-2.79c-1.06,0-1.75,1.16-1.75,2.79
				C34.1,13.2,34.8,14.36,35.85,14.36z"/>
			<path class="st4" d="M40.78,8.19c0.84,0,1.52,0.63,1.52,1.52c0,0.88-0.68,1.51-1.52,1.51c-0.83,0-1.51-0.63-1.51-1.51
				C39.27,8.81,39.96,8.19,40.78,8.19z M40.78,10.64c0.52,0,0.9-0.33,0.9-0.94c0-0.62-0.39-0.95-0.9-0.95
				c-0.51,0-0.89,0.33-0.89,0.95C39.89,10.31,40.28,10.64,40.78,10.64z M41,14.83h-0.64l3.93-6.54h0.64L41,14.83z M44.49,14.94
				c-0.83,0-1.51-0.63-1.51-1.51c0-0.89,0.68-1.52,1.51-1.52c0.84,0,1.52,0.63,1.52,1.52C46.01,14.32,45.33,14.94,44.49,14.94z
				 M44.49,12.49c-0.51,0-0.89,0.33-0.89,0.95c0,0.61,0.38,0.94,0.89,0.94c0.52,0,0.9-0.33,0.9-0.94
				C45.39,12.82,45.01,12.49,44.49,12.49z"/>
		</g>
	</g>
</g>
<g>
	<line class="st0" x1="89.17" y1="206.56" x2="81.94" y2="206.56"/>
	<line class="st0" x1="85.56" y1="206.56" x2="85.56" y2="212.16"/>
</g>
<g>
	<line class="st0" x1="73.77" y1="189.76" x2="66.53" y2="189.76"/>
	<line class="st0" x1="70.15" y1="189.76" x2="70.15" y2="197.19"/>
</g>
<rect x="62.45" y="196.3" class="st5" width="15.4" height="33.32"/>
<rect x="77.85" y="211.67" class="st2" width="15.4" height="17.95"/>
<g>
	<g>
		<path class="st4" d="M82.56,196.63l-1.44,2.19l-0.56,0.79c0.34-0.41,0.79-0.59,1.35-0.59c1.09,0,2.08,0.75,2.08,2.12
			c0,1.14-0.81,2.13-2.23,2.13c-1.4,0-2.18-0.99-2.18-2.13c0-0.79,0.31-1.49,0.77-2.2l1.5-2.31H82.56z M81.77,202.72
			c0.89,0,1.55-0.6,1.55-1.57c0-0.95-0.65-1.56-1.54-1.56c-0.87,0-1.53,0.62-1.53,1.56C80.25,202.12,80.92,202.72,81.77,202.72z"/>
		<path class="st4" d="M86.33,196.52c0.84,0,1.52,0.63,1.52,1.52c0,0.88-0.68,1.51-1.52,1.51c-0.83,0-1.51-0.63-1.51-1.51
			C84.82,197.14,85.51,196.52,86.33,196.52z M86.33,198.97c0.52,0,0.9-0.33,0.9-0.94c0-0.62-0.38-0.95-0.9-0.95
			c-0.51,0-0.89,0.33-0.89,0.95C85.44,198.64,85.83,198.97,86.33,198.97z M86.55,203.16h-0.64l3.93-6.54h0.64L86.55,203.16z
			 M90.04,203.27c-0.83,0-1.51-0.63-1.51-1.51c0-0.89,0.68-1.52,1.51-1.52c0.84,0,1.52,0.63,1.52,1.52
			C91.56,202.64,90.88,203.27,90.04,203.27z M90.04,200.82c-0.51,0-0.89,0.33-0.89,0.95c0,0.61,0.38,0.94,0.89,0.94
			c0.52,0,0.9-0.33,0.9-0.94C90.94,201.15,90.56,200.82,90.04,200.82z"/>
	</g>
</g>
<g>
	<g>
		<path class="st4" d="M63.17,179.18l2.04-0.36v6.63h-0.67v-5.89l-1.36,0.21V179.18z"/>
		<path class="st4" d="M66.52,179.18l2.04-0.36v6.63h-0.67v-5.89l-1.36,0.21V179.18z"/>
		<path class="st4" d="M71.65,178.8c0.84,0,1.52,0.63,1.52,1.52c0,0.88-0.68,1.51-1.52,1.51c-0.83,0-1.51-0.63-1.51-1.51
			C70.14,179.43,70.82,178.8,71.65,178.8z M71.65,181.26c0.52,0,0.9-0.33,0.9-0.94c0-0.62-0.38-0.95-0.9-0.95
			c-0.51,0-0.89,0.33-0.89,0.95C70.76,180.92,71.14,181.26,71.65,181.26z M71.87,185.45h-0.64l3.93-6.54h0.64L71.87,185.45z
			 M75.36,185.56c-0.83,0-1.51-0.63-1.51-1.51c0-0.89,0.68-1.52,1.51-1.52c0.84,0,1.52,0.63,1.52,1.52
			C76.87,184.93,76.19,185.56,75.36,185.56z M75.36,183.1c-0.51,0-0.89,0.33-0.89,0.95c0,0.61,0.38,0.94,0.89,0.94
			c0.52,0,0.9-0.33,0.9-0.94C76.26,183.43,75.87,183.1,75.36,183.1z"/>
	</g>
</g>
<g>
	<line class="st0" x1="124.18" y1="192.7" x2="116.95" y2="192.7"/>
	<line class="st0" x1="120.57" y1="192.7" x2="120.57" y2="199.7"/>
</g>
<g>
	<line class="st0" x1="108.78" y1="157.48" x2="101.54" y2="157.48"/>
	<line class="st0" x1="105.16" y1="157.48" x2="105.16" y2="166.22"/>
</g>
<rect x="97.46" y="165.54" class="st5" width="15.4" height="64.08"/>
<rect x="112.86" y="198.81" class="st2" width="15.4" height="30.81"/>
<g>
	<g>
		<path class="st4" d="M113.8,180.89l2.04-0.36v6.63h-0.67v-5.89l-1.36,0.21V180.89z"/>
		<path class="st4" d="M119.85,180.52c1.5,0,2.43,1.42,2.43,3.38s-0.94,3.38-2.43,3.38s-2.43-1.42-2.43-3.38
			S118.36,180.52,119.85,180.52z M119.85,186.69c1.06,0,1.75-1.16,1.75-2.79c0-1.64-0.69-2.79-1.75-2.79
			c-1.06,0-1.75,1.16-1.75,2.79C118.11,185.54,118.8,186.69,119.85,186.69z"/>
		<path class="st4" d="M124.67,180.52c0.84,0,1.52,0.63,1.52,1.52c0,0.88-0.68,1.51-1.52,1.51c-0.83,0-1.51-0.63-1.51-1.51
			C123.17,181.15,123.85,180.52,124.67,180.52z M124.67,182.97c0.52,0,0.9-0.33,0.9-0.94c0-0.62-0.39-0.95-0.9-0.95
			c-0.51,0-0.89,0.33-0.89,0.95C123.78,182.64,124.17,182.97,124.67,182.97z M124.89,187.17h-0.64l3.93-6.54h0.64L124.89,187.17z
			 M128.38,187.28c-0.83,0-1.51-0.63-1.51-1.51c0-0.89,0.68-1.52,1.51-1.52c0.84,0,1.52,0.63,1.52,1.52
			C129.9,186.65,129.22,187.28,128.38,187.28z M128.38,184.82c-0.51,0-0.89,0.33-0.89,0.95c0,0.61,0.38,0.94,0.89,0.94
			c0.52,0,0.9-0.33,0.9-0.94C129.28,185.15,128.9,184.82,128.38,184.82z"/>
	</g>
</g>
<g>
	<g>
		<path class="st4" d="M100.27,153.3v0.59h-4.15v-0.51c1.68-1.42,3.31-2.84,3.31-4.28c0-0.85-0.51-1.24-1.21-1.24
			c-0.85,0-1.42,0.44-1.86,0.88v-0.74c0.4-0.41,1.06-0.76,1.86-0.76c1.07,0,1.88,0.57,1.88,1.86c0,1.45-1.62,3.08-3.12,4.19H100.27z
			"/>
		<path class="st4" d="M103.67,147.25c1.5,0,2.43,1.42,2.43,3.38s-0.94,3.38-2.43,3.38s-2.43-1.42-2.43-3.38
			S102.17,147.25,103.67,147.25z M103.67,153.42c1.06,0,1.75-1.16,1.75-2.79c0-1.64-0.69-2.79-1.75-2.79
			c-1.06,0-1.75,1.16-1.75,2.79C101.92,152.27,102.61,153.42,103.67,153.42z"/>
		<path class="st4" d="M108.59,147.25c0.84,0,1.52,0.63,1.52,1.52c0,0.88-0.68,1.51-1.52,1.51c-0.83,0-1.51-0.63-1.51-1.51
			C107.09,147.88,107.77,147.25,108.59,147.25z M108.59,149.7c0.52,0,0.9-0.33,0.9-0.94c0-0.62-0.39-0.95-0.9-0.95
			c-0.51,0-0.89,0.33-0.89,0.95C107.7,149.37,108.09,149.7,108.59,149.7z M108.81,153.9h-0.64l3.93-6.54h0.64L108.81,153.9z
			 M112.3,154.01c-0.83,0-1.51-0.63-1.51-1.51c0-0.89,0.68-1.52,1.51-1.52c0.84,0,1.52,0.63,1.52,1.52
			C113.82,153.38,113.14,154.01,112.3,154.01z M112.3,151.55c-0.51,0-0.89,0.33-0.89,0.95c0,0.61,0.38,0.94,0.89,0.94
			c0.52,0,0.9-0.33,0.9-0.94C113.2,151.88,112.82,151.55,112.3,151.55z"/>
	</g>
</g>
<g>
	<line class="st0" x1="159" y1="176.67" x2="151.76" y2="176.67"/>
	<line class="st0" x1="155.38" y1="176.67" x2="155.38" y2="183.68"/>
</g>
<g>
	<line class="st0" x1="143.6" y1="146.02" x2="136.36" y2="146.02"/>
	<line class="st0" x1="139.98" y1="146.02" x2="139.98" y2="155.56"/>
</g>
<rect x="132.28" y="154.76" class="st5" width="15.4" height="74.87"/>
<rect x="147.68" y="183.32" class="st2" width="15.4" height="46.3"/>
<g>
	<g>
		<path class="st4" d="M149.29,166.14l2.04-0.36v6.63h-0.67v-5.89l-1.36,0.21V166.14z"/>
		<path class="st4" d="M153.78,168.38c1.5,0.19,2.66,0.75,2.66,2.21c0,1-0.71,1.93-2.28,1.93c-0.57,0-1.1-0.17-1.47-0.42v-0.64
			c0.46,0.31,0.96,0.5,1.46,0.5c1.06,0,1.61-0.56,1.61-1.36c0-1.19-1.12-1.55-2.61-1.72l0.21-3h2.92v0.59h-2.37L153.78,168.38z"/>
		<path class="st4" d="M158.82,165.76c0.84,0,1.52,0.63,1.52,1.52c0,0.88-0.68,1.51-1.52,1.51c-0.83,0-1.51-0.63-1.51-1.51
			C157.32,166.39,158,165.76,158.82,165.76z M158.82,168.22c0.52,0,0.9-0.33,0.9-0.94c0-0.62-0.39-0.95-0.9-0.95
			c-0.51,0-0.89,0.33-0.89,0.95C157.93,167.89,158.32,168.22,158.82,168.22z M159.04,172.41h-0.64l3.93-6.54h0.64L159.04,172.41z
			 M162.53,172.52c-0.83,0-1.51-0.63-1.51-1.51c0-0.89,0.68-1.52,1.51-1.52c0.84,0,1.52,0.63,1.52,1.52
			C164.05,171.89,163.37,172.52,162.53,172.52z M162.53,170.06c-0.51,0-0.89,0.33-0.89,0.95c0,0.61,0.38,0.94,0.89,0.94
			c0.52,0,0.9-0.33,0.9-0.94C163.43,170.39,163.05,170.06,162.53,170.06z"/>
	</g>
</g>
<g>
	<g>
		<path class="st4" d="M135.28,140.54v0.59h-4.15v-0.51c1.68-1.42,3.31-2.84,3.31-4.28c0-0.85-0.51-1.24-1.21-1.24
			c-0.85,0-1.42,0.44-1.86,0.88v-0.74c0.4-0.41,1.06-0.76,1.86-0.76c1.07,0,1.88,0.57,1.88,1.86c0,1.45-1.62,3.08-3.12,4.19H135.28z
			"/>
		<path class="st4" d="M139.86,138.76h1.24v0.56h-1.24v1.82h-0.65v-1.82h-3.23v-0.56l3.09-4.16h0.79V138.76z M136.68,138.76h2.53
			v-3.44L136.68,138.76z"/>
		<path class="st4" d="M143.22,134.49c0.84,0,1.52,0.63,1.52,1.52c0,0.88-0.68,1.51-1.52,1.51c-0.83,0-1.51-0.63-1.51-1.51
			C141.71,135.12,142.39,134.49,143.22,134.49z M143.22,136.94c0.52,0,0.9-0.33,0.9-0.94c0-0.62-0.38-0.95-0.9-0.95
			c-0.51,0-0.89,0.33-0.89,0.95C142.33,136.61,142.71,136.94,143.22,136.94z M143.44,141.14h-0.64l3.93-6.54h0.64L143.44,141.14z
			 M146.93,141.25c-0.83,0-1.51-0.63-1.51-1.51c0-0.89,0.68-1.52,1.51-1.52c0.84,0,1.52,0.63,1.52,1.52
			C148.44,140.62,147.76,141.25,146.93,141.25z M146.93,138.79c-0.51,0-0.89,0.33-0.89,0.95c0,0.61,0.38,0.94,0.89,0.94
			c0.52,0,0.9-0.33,0.9-0.94C147.83,139.12,147.44,138.79,146.93,138.79z"/>
	</g>
</g>
<g>
	<line class="st0" x1="195.19" y1="156.42" x2="187.96" y2="156.42"/>
	<line class="st0" x1="191.58" y1="156.42" x2="191.58" y2="169.39"/>
</g>
<g>
	<line class="st0" x1="179.79" y1="139.83" x2="172.55" y2="139.83"/>
	<line class="st0" x1="176.17" y1="139.83" x2="176.17" y2="149.37"/>
</g>
<rect x="168.47" y="148.99" class="st5" width="15.4" height="80.63"/>
<rect x="183.87" y="166.22" class="st2" width="15.4" height="63.4"/>
<g>
	<g>
		<path class="st4" d="M189.63,152.01v0.59h-4.15v-0.51c1.68-1.42,3.31-2.84,3.31-4.28c0-0.85-0.51-1.24-1.21-1.24
			c-0.85,0-1.42,0.44-1.86,0.88v-0.74c0.4-0.41,1.06-0.76,1.86-0.76c1.07,0,1.88,0.57,1.88,1.86c0,1.45-1.62,3.08-3.12,4.19H189.63z
			"/>
		<path class="st4" d="M192.92,145.96c1.5,0,2.43,1.42,2.43,3.38s-0.94,3.38-2.43,3.38s-2.43-1.42-2.43-3.38
			S191.42,145.96,192.92,145.96z M192.92,152.13c1.06,0,1.75-1.16,1.75-2.79c0-1.64-0.69-2.79-1.75-2.79
			c-1.06,0-1.75,1.16-1.75,2.79C191.17,150.98,191.86,152.13,192.92,152.13z"/>
		<path class="st4" d="M197.73,145.96c0.84,0,1.52,0.63,1.52,1.52c0,0.88-0.68,1.51-1.52,1.51c-0.83,0-1.51-0.63-1.51-1.51
			C196.23,146.59,196.91,145.96,197.73,145.96z M197.73,148.41c0.52,0,0.9-0.33,0.9-0.94c0-0.62-0.39-0.95-0.9-0.95
			c-0.51,0-0.89,0.33-0.89,0.95C196.84,148.08,197.23,148.41,197.73,148.41z M197.95,152.6h-0.64l3.93-6.54h0.64L197.95,152.6z
			 M201.44,152.71c-0.83,0-1.51-0.63-1.51-1.51c0-0.89,0.68-1.52,1.51-1.52c0.84,0,1.52,0.63,1.52,1.52
			C202.96,152.09,202.28,152.71,201.44,152.71z M201.44,150.26c-0.51,0-0.89,0.33-0.89,0.95c0,0.61,0.38,0.94,0.89,0.94
			c0.52,0,0.9-0.33,0.9-0.94C202.34,150.59,201.96,150.26,201.44,150.26z"/>
	</g>
</g>
<g>
	<g>
		<path class="st4" d="M171.62,135.67v0.59h-4.15v-0.51c1.68-1.42,3.31-2.84,3.31-4.28c0-0.85-0.51-1.24-1.21-1.24
			c-0.85,0-1.42,0.44-1.86,0.88v-0.74c0.4-0.41,1.06-0.76,1.86-0.76c1.07,0,1.88,0.57,1.88,1.86c0,1.45-1.62,3.08-3.12,4.19H171.62z
			"/>
		<path class="st4" d="M175.49,129.72l-1.44,2.19l-0.56,0.79c0.34-0.41,0.79-0.59,1.35-0.59c1.09,0,2.08,0.75,2.08,2.12
			c0,1.14-0.81,2.13-2.23,2.13c-1.4,0-2.18-0.99-2.18-2.13c0-0.79,0.31-1.49,0.77-2.2l1.5-2.31H175.49z M174.69,135.82
			c0.89,0,1.55-0.6,1.55-1.57c0-0.95-0.65-1.56-1.54-1.56c-0.87,0-1.53,0.62-1.53,1.56C173.17,135.21,173.85,135.82,174.69,135.82z"
			/>
		<path class="st4" d="M179.26,129.61c0.84,0,1.52,0.63,1.52,1.52c0,0.88-0.68,1.51-1.52,1.51c-0.83,0-1.51-0.63-1.51-1.51
			C177.75,130.24,178.43,129.61,179.26,129.61z M179.26,132.07c0.52,0,0.9-0.33,0.9-0.94c0-0.62-0.39-0.95-0.9-0.95
			c-0.51,0-0.89,0.33-0.89,0.95C178.37,131.74,178.75,132.07,179.26,132.07z M179.48,136.26h-0.64l3.93-6.54h0.64L179.48,136.26z
			 M182.97,136.37c-0.83,0-1.51-0.63-1.51-1.51c0-0.89,0.68-1.52,1.51-1.52c0.84,0,1.52,0.63,1.52,1.52
			C184.48,135.74,183.8,136.37,182.97,136.37z M182.97,133.92c-0.51,0-0.89,0.33-0.89,0.95c0,0.61,0.38,0.94,0.89,0.94
			c0.52,0,0.9-0.33,0.9-0.94C183.87,134.25,183.48,133.92,182.97,133.92z"/>
	</g>
</g>
<g>
	<line class="st0" x1="231.06" y1="148.27" x2="223.83" y2="148.27"/>
	<line class="st0" x1="227.44" y1="148.27" x2="227.44" y2="161.24"/>
</g>
<g>
	<line class="st0" x1="215.66" y1="129.8" x2="208.42" y2="129.8"/>
	<line class="st0" x1="212.04" y1="129.8" x2="212.04" y2="140.41"/>
</g>
<rect x="204.34" y="139.35" class="st5" width="15.4" height="90.28"/>
<rect x="219.74" y="157.45" class="st2" width="15.4" height="72.17"/>
<g>
	<g>
		<path class="st4" d="M224.93,142.9v0.59h-4.15v-0.51c1.68-1.42,3.31-2.84,3.31-4.28c0-0.85-0.51-1.24-1.21-1.24
			c-0.85,0-1.42,0.44-1.86,0.88v-0.74c0.4-0.41,1.06-0.76,1.86-0.76c1.07,0,1.88,0.57,1.88,1.86c0,1.45-1.62,3.08-3.12,4.19H224.93z
			"/>
		<path class="st4" d="M225.54,137.61c0.31-0.38,0.97-0.76,1.71-0.76c1.23,0,1.83,0.75,1.83,1.62c0,0.8-0.63,1.57-1.5,1.69
			c0.9,0.11,1.64,0.71,1.64,1.66c0,0.97-0.75,1.78-2.17,1.78c-0.59,0-1.27-0.19-1.58-0.46v-0.63c0.46,0.32,0.91,0.53,1.58,0.53
			c0.89,0,1.48-0.47,1.48-1.22c0-0.83-0.51-1.19-1.83-1.41v-0.46c1.12-0.24,1.66-0.71,1.66-1.48c0-0.65-0.5-1.02-1.12-1.02
			c-0.74,0-1.3,0.44-1.71,0.88V137.61z"/>
		<path class="st4" d="M231.44,136.85c0.84,0,1.52,0.63,1.52,1.52c0,0.88-0.68,1.51-1.52,1.51c-0.83,0-1.51-0.63-1.51-1.51
			C229.93,137.48,230.61,136.85,231.44,136.85z M231.44,139.3c0.52,0,0.9-0.33,0.9-0.94c0-0.62-0.38-0.95-0.9-0.95
			c-0.51,0-0.89,0.33-0.89,0.95C230.54,138.97,230.93,139.3,231.44,139.3z M231.66,143.5h-0.64l3.93-6.54h0.64L231.66,143.5z
			 M235.14,143.61c-0.83,0-1.51-0.63-1.51-1.51c0-0.89,0.68-1.52,1.51-1.52c0.84,0,1.52,0.63,1.52,1.52
			C236.66,142.98,235.98,143.61,235.14,143.61z M235.14,141.15c-0.51,0-0.89,0.33-0.89,0.95c0,0.61,0.38,0.94,0.89,0.94
			c0.52,0,0.9-0.33,0.9-0.94C236.04,141.48,235.66,141.15,235.14,141.15z"/>
	</g>
</g>
<g>
	<g>
		<path class="st4" d="M207.49,125.63v0.59h-4.15v-0.51c1.68-1.42,3.31-2.84,3.31-4.28c0-0.85-0.51-1.24-1.21-1.24
			c-0.85,0-1.42,0.44-1.86,0.88v-0.74c0.4-0.41,1.06-0.76,1.86-0.76c1.07,0,1.88,0.57,1.88,1.86c0,1.45-1.62,3.08-3.12,4.19H207.49z
			"/>
		<path class="st4" d="M209.74,126.22l1.44-2.19l0.56-0.79c-0.34,0.41-0.79,0.59-1.35,0.59c-1.09,0-2.08-0.75-2.08-2.12
			c0-1.14,0.81-2.13,2.23-2.13c1.4,0,2.18,0.99,2.18,2.13c0,0.79-0.31,1.49-0.77,2.2l-1.5,2.31H209.74z M210.53,120.13
			c-0.89,0-1.55,0.6-1.55,1.57c0,0.95,0.65,1.56,1.54,1.56c0.87,0,1.53-0.62,1.53-1.56C212.05,120.73,211.38,120.13,210.53,120.13z"
			/>
		<path class="st4" d="M215.13,119.58c0.84,0,1.52,0.63,1.52,1.52c0,0.88-0.68,1.51-1.52,1.51c-0.83,0-1.51-0.63-1.51-1.51
			C213.62,120.21,214.3,119.58,215.13,119.58z M215.13,122.03c0.52,0,0.9-0.33,0.9-0.94c0-0.62-0.38-0.95-0.9-0.95
			c-0.51,0-0.89,0.33-0.89,0.95C214.23,121.7,214.62,122.03,215.13,122.03z M215.34,126.22h-0.64l3.93-6.54h0.64L215.34,126.22z
			 M218.83,126.33c-0.83,0-1.51-0.63-1.51-1.51c0-0.89,0.68-1.52,1.51-1.52c0.84,0,1.52,0.63,1.52,1.52
			C220.35,125.71,219.67,126.33,218.83,126.33z M218.83,123.88c-0.51,0-0.89,0.33-0.89,0.95c0,0.61,0.38,0.94,0.89,0.94
			c0.52,0,0.9-0.33,0.9-0.94C219.73,124.21,219.35,123.88,218.83,123.88z"/>
	</g>
</g>
<g>
	<line class="st0" x1="266.99" y1="139.35" x2="259.76" y2="139.35"/>
	<line class="st0" x1="263.37" y1="139.35" x2="263.37" y2="152.32"/>
</g>
<g>
	<line class="st0" x1="251.59" y1="117.07" x2="244.35" y2="117.07"/>
	<line class="st0" x1="247.97" y1="117.07" x2="247.97" y2="127.67"/>
</g>
<rect x="240.27" y="126.81" class="st5" width="15.4" height="102.81"/>
<rect x="255.67" y="148.86" class="st2" width="15.4" height="80.76"/>
<g>
	<g>
		<path class="st4" d="M260.85,134.59v0.59h-4.15v-0.51c1.68-1.42,3.31-2.84,3.31-4.28c0-0.85-0.51-1.24-1.21-1.24
			c-0.85,0-1.42,0.44-1.86,0.88v-0.74c0.4-0.41,1.06-0.76,1.86-0.76c1.07,0,1.88,0.57,1.88,1.86c0,1.45-1.62,3.08-3.12,4.19H260.85z
			"/>
		<path class="st4" d="M264.61,128.64l-1.44,2.19l-0.56,0.79c0.34-0.41,0.79-0.59,1.35-0.59c1.09,0,2.08,0.75,2.08,2.12
			c0,1.14-0.81,2.13-2.23,2.13c-1.4,0-2.18-0.99-2.18-2.13c0-0.79,0.31-1.49,0.77-2.2l1.5-2.31H264.61z M263.81,134.74
			c0.89,0,1.55-0.6,1.55-1.57c0-0.95-0.65-1.56-1.54-1.56c-0.87,0-1.53,0.62-1.53,1.56C262.29,134.13,262.97,134.74,263.81,134.74z"
			/>
		<path class="st4" d="M268.27,128.54c0.84,0,1.52,0.63,1.52,1.52c0,0.88-0.68,1.51-1.52,1.51c-0.83,0-1.51-0.63-1.51-1.51
			C266.76,129.16,267.44,128.54,268.27,128.54z M268.27,130.99c0.52,0,0.9-0.33,0.9-0.94c0-0.62-0.39-0.95-0.9-0.95
			c-0.51,0-0.89,0.33-0.89,0.95C267.38,130.66,267.76,130.99,268.27,130.99z M268.49,135.18h-0.64l3.93-6.54h0.64L268.49,135.18z
			 M271.98,135.29c-0.83,0-1.51-0.63-1.51-1.51c0-0.89,0.68-1.52,1.51-1.52c0.84,0,1.52,0.63,1.52,1.52
			C273.49,134.66,272.81,135.29,271.98,135.29z M271.98,132.84c-0.51,0-0.89,0.33-0.89,0.95c0,0.61,0.38,0.94,0.89,0.94
			c0.52,0,0.9-0.33,0.9-0.94C272.88,133.17,272.49,132.84,271.98,132.84z"/>
	</g>
</g>
<g>
	<g>
		<path class="st4" d="M240.1,107.7c0.31-0.38,0.97-0.76,1.71-0.76c1.23,0,1.83,0.75,1.83,1.62c0,0.8-0.63,1.57-1.5,1.69
			c0.9,0.11,1.64,0.71,1.64,1.66c0,0.97-0.75,1.78-2.17,1.78c-0.59,0-1.27-0.19-1.58-0.46v-0.63c0.46,0.32,0.91,0.53,1.58,0.53
			c0.89,0,1.48-0.47,1.48-1.22c0-0.83-0.51-1.19-1.83-1.41v-0.46c1.12-0.24,1.66-0.71,1.66-1.48c0-0.65-0.5-1.02-1.12-1.02
			c-0.74,0-1.3,0.44-1.71,0.88V107.7z"/>
		<path class="st4" d="M244.46,107.7c0.31-0.38,0.97-0.76,1.71-0.76c1.23,0,1.83,0.75,1.83,1.62c0,0.8-0.63,1.57-1.5,1.69
			c0.9,0.11,1.64,0.71,1.64,1.66c0,0.97-0.75,1.78-2.17,1.78c-0.59,0-1.27-0.19-1.58-0.46v-0.63c0.46,0.32,0.91,0.53,1.58,0.53
			c0.89,0,1.48-0.47,1.48-1.22c0-0.83-0.51-1.19-1.83-1.41v-0.46c1.12-0.24,1.66-0.71,1.66-1.48c0-0.65-0.5-1.02-1.12-1.02
			c-0.74,0-1.3,0.44-1.71,0.88V107.7z"/>
		<path class="st4" d="M250.47,106.94c0.84,0,1.52,0.63,1.52,1.52c0,0.88-0.68,1.51-1.52,1.51c-0.83,0-1.51-0.63-1.51-1.51
			C248.96,107.57,249.64,106.94,250.47,106.94z M250.47,109.4c0.52,0,0.9-0.33,0.9-0.94c0-0.62-0.39-0.95-0.9-0.95
			c-0.51,0-0.89,0.33-0.89,0.95C249.58,109.07,249.96,109.4,250.47,109.4z M250.69,113.59h-0.64l3.93-6.54h0.64L250.69,113.59z
			 M254.17,113.7c-0.83,0-1.51-0.63-1.51-1.51c0-0.89,0.68-1.52,1.51-1.52c0.84,0,1.52,0.63,1.52,1.52
			C255.69,113.07,255.01,113.7,254.17,113.7z M254.17,111.24c-0.51,0-0.89,0.33-0.89,0.95c0,0.61,0.38,0.94,0.89,0.94
			c0.52,0,0.9-0.33,0.9-0.94C255.08,111.57,254.69,111.24,254.17,111.24z"/>
	</g>
</g>
<g>
	<line class="st0" x1="287.74" y1="121.51" x2="280.5" y2="121.51"/>
	<line class="st0" x1="284.12" y1="121.51" x2="284.12" y2="132.12"/>
</g>
<rect x="276.41" y="131.31" class="st5" width="15.4" height="98.31"/>
<rect x="291.82" y="143.08" class="st2" width="15.4" height="86.55"/>
<g>
	<g>
		<path class="st4" d="M295.15,129.89v0.59h-4.15v-0.51c1.68-1.42,3.31-2.84,3.31-4.28c0-0.85-0.51-1.24-1.21-1.24
			c-0.85,0-1.42,0.44-1.86,0.88v-0.74c0.4-0.41,1.06-0.76,1.86-0.76c1.07,0,1.88,0.57,1.88,1.86c0,1.45-1.62,3.08-3.12,4.19H295.15z
			"/>
		<path class="st4" d="M295.9,128.7c0-0.95,0.76-1.56,1.43-1.69c-0.56-0.17-1.06-0.69-1.06-1.46c0-1.11,0.84-1.71,1.8-1.71
			c0.97,0,1.8,0.59,1.8,1.71c0,0.77-0.5,1.3-1.06,1.46c0.67,0.13,1.43,0.75,1.43,1.69c0,1.21-0.97,1.89-2.18,1.89
			S295.9,129.91,295.9,128.7z M299.57,128.7c0-0.88-0.67-1.41-1.49-1.41c-0.81,0-1.49,0.53-1.49,1.41c0,0.9,0.67,1.34,1.49,1.34
			C298.89,130.04,299.57,129.6,299.57,128.7z M299.24,125.53c0-0.73-0.53-1.17-1.16-1.17s-1.16,0.44-1.16,1.17
			c0,0.72,0.53,1.14,1.16,1.14S299.24,126.25,299.24,125.53z"/>
		<path class="st4" d="M302.54,123.84c0.84,0,1.52,0.63,1.52,1.52c0,0.88-0.68,1.51-1.52,1.51c-0.83,0-1.51-0.63-1.51-1.51
			C301.03,124.46,301.71,123.84,302.54,123.84z M302.54,126.29c0.52,0,0.9-0.33,0.9-0.94c0-0.62-0.38-0.95-0.9-0.95
			c-0.51,0-0.89,0.33-0.89,0.95C301.64,125.96,302.03,126.29,302.54,126.29z M302.75,130.48h-0.64l3.93-6.54h0.64L302.75,130.48z
			 M306.24,130.59c-0.83,0-1.51-0.63-1.51-1.51c0-0.89,0.68-1.52,1.51-1.52c0.84,0,1.52,0.63,1.52,1.52
			C307.76,129.96,307.08,130.59,306.24,130.59z M306.24,128.14c-0.51,0-0.89,0.33-0.89,0.95c0,0.61,0.38,0.94,0.89,0.94
			c0.52,0,0.9-0.33,0.9-0.94C307.14,128.47,306.76,128.14,306.24,128.14z"/>
	</g>
</g>
<g>
	<g>
		<path class="st4" d="M276.75,112.77c0.31-0.38,0.97-0.76,1.71-0.76c1.23,0,1.83,0.75,1.83,1.62c0,0.8-0.63,1.57-1.5,1.69
			c0.9,0.11,1.64,0.71,1.64,1.66c0,0.97-0.75,1.78-2.17,1.78c-0.59,0-1.27-0.19-1.58-0.46v-0.63c0.46,0.32,0.91,0.53,1.58,0.53
			c0.89,0,1.48-0.47,1.48-1.22c0-0.83-0.51-1.19-1.83-1.41v-0.46c1.12-0.24,1.66-0.71,1.66-1.48c0-0.65-0.5-1.02-1.12-1.02
			c-0.74,0-1.3,0.44-1.71,0.88V112.77z"/>
		<path class="st4" d="M280.99,112.39l2.04-0.36v6.63h-0.67v-5.89l-1.36,0.21V112.39z"/>
		<path class="st4" d="M286.11,112.01c0.84,0,1.52,0.63,1.52,1.52c0,0.88-0.68,1.51-1.52,1.51c-0.83,0-1.51-0.63-1.51-1.51
			C284.61,112.64,285.29,112.01,286.11,112.01z M286.11,114.46c0.52,0,0.9-0.33,0.9-0.94c0-0.62-0.38-0.95-0.9-0.95
			c-0.51,0-0.89,0.33-0.89,0.95C285.22,114.13,285.61,114.46,286.11,114.46z M286.33,118.66h-0.64l3.93-6.54h0.64L286.33,118.66z
			 M289.82,118.77c-0.83,0-1.51-0.63-1.51-1.51c0-0.89,0.68-1.52,1.51-1.52c0.84,0,1.52,0.63,1.52,1.52
			C291.34,118.14,290.66,118.77,289.82,118.77z M289.82,116.31c-0.51,0-0.89,0.33-0.89,0.95c0,0.61,0.38,0.94,0.89,0.94
			c0.52,0,0.9-0.33,0.9-0.94C290.72,116.64,290.34,116.31,289.82,116.31z"/>
	</g>
</g>
<g>
	<line class="st0" x1="340.19" y1="133.92" x2="332.96" y2="133.92"/>
	<line class="st0" x1="336.57" y1="133.92" x2="336.57" y2="146.9"/>
</g>
<g>
	<line class="st0" x1="324.79" y1="104.27" x2="317.55" y2="104.27"/>
	<line class="st0" x1="321.17" y1="104.27" x2="321.17" y2="114.88"/>
</g>
<rect x="313.47" y="114.31" class="st5" width="15.4" height="115.31"/>
<rect x="328.87" y="143.08" class="st2" width="15.4" height="86.55"/>
<g>
	<g>
		<path class="st4" d="M333.94,129.03v0.59h-4.15v-0.51c1.68-1.42,3.31-2.84,3.31-4.28c0-0.85-0.51-1.24-1.21-1.24
			c-0.85,0-1.42,0.44-1.86,0.88v-0.74c0.4-0.41,1.06-0.76,1.86-0.76c1.07,0,1.88,0.57,1.88,1.86c0,1.45-1.62,3.08-3.12,4.19H333.94z
			"/>
		<path class="st4" d="M334.69,127.84c0-0.95,0.76-1.56,1.43-1.69c-0.56-0.17-1.06-0.69-1.06-1.46c0-1.11,0.84-1.71,1.8-1.71
			c0.97,0,1.8,0.59,1.8,1.71c0,0.77-0.5,1.3-1.06,1.46c0.67,0.13,1.43,0.75,1.43,1.69c0,1.21-0.97,1.89-2.18,1.89
			S334.69,129.05,334.69,127.84z M338.35,127.84c0-0.88-0.67-1.41-1.49-1.41c-0.81,0-1.49,0.53-1.49,1.41c0,0.9,0.67,1.34,1.49,1.34
			C337.68,129.18,338.35,128.74,338.35,127.84z M338.02,124.67c0-0.73-0.53-1.17-1.16-1.17s-1.16,0.44-1.16,1.17
			c0,0.72,0.53,1.14,1.16,1.14S338.02,125.39,338.02,124.67z"/>
		<path class="st4" d="M341.32,122.98c0.84,0,1.52,0.63,1.52,1.52c0,0.88-0.68,1.51-1.52,1.51c-0.83,0-1.51-0.63-1.51-1.51
			C339.81,123.6,340.5,122.98,341.32,122.98z M341.32,125.43c0.52,0,0.9-0.33,0.9-0.94c0-0.62-0.39-0.95-0.9-0.95
			c-0.51,0-0.89,0.33-0.89,0.95C340.43,125.1,340.82,125.43,341.32,125.43z M341.54,129.62h-0.64l3.93-6.54h0.64L341.54,129.62z
			 M345.03,129.73c-0.83,0-1.51-0.63-1.51-1.51c0-0.89,0.68-1.52,1.51-1.52c0.84,0,1.52,0.63,1.52,1.52
			C346.55,129.1,345.87,129.73,345.03,129.73z M345.03,127.28c-0.51,0-0.89,0.33-0.89,0.95c0,0.61,0.38,0.94,0.89,0.94
			c0.52,0,0.9-0.33,0.9-0.94C345.93,127.61,345.55,127.28,345.03,127.28z"/>
	</g>
</g>
<g>
	<g>
		<path class="st4" d="M313.27,94.59c0.31-0.38,0.97-0.76,1.71-0.76c1.23,0,1.83,0.75,1.83,1.62c0,0.8-0.63,1.57-1.5,1.69
			c0.9,0.11,1.64,0.71,1.64,1.66c0,0.97-0.75,1.78-2.17,1.78c-0.59,0-1.27-0.19-1.58-0.46v-0.63c0.46,0.32,0.91,0.53,1.58,0.53
			c0.89,0,1.48-0.47,1.48-1.22c0-0.83-0.51-1.19-1.83-1.41v-0.46c1.12-0.24,1.66-0.71,1.66-1.48c0-0.65-0.5-1.02-1.12-1.02
			c-0.74,0-1.3,0.44-1.71,0.88V94.59z"/>
		<path class="st4" d="M317.44,94.53v-0.59h4.03v0.59l-2.85,5.94h-0.69l2.85-5.94H317.44z"/>
		<path class="st4" d="M323.71,93.83c0.84,0,1.52,0.63,1.52,1.52c0,0.88-0.68,1.51-1.52,1.51c-0.83,0-1.51-0.63-1.51-1.51
			C322.2,94.45,322.88,93.83,323.71,93.83z M323.71,96.28c0.52,0,0.9-0.33,0.9-0.94c0-0.62-0.39-0.95-0.9-0.95
			c-0.51,0-0.89,0.33-0.89,0.95C322.81,95.95,323.2,96.28,323.71,96.28z M323.93,100.47h-0.64l3.93-6.54h0.64L323.93,100.47z
			 M327.41,100.58c-0.83,0-1.51-0.63-1.51-1.51c0-0.89,0.68-1.52,1.51-1.52c0.84,0,1.52,0.63,1.52,1.52
			C328.93,99.96,328.25,100.58,327.41,100.58z M327.41,98.13c-0.51,0-0.89,0.33-0.89,0.95c0,0.61,0.38,0.94,0.89,0.94
			c0.52,0,0.9-0.33,0.9-0.94C328.32,98.46,327.93,98.13,327.41,98.13z"/>
	</g>
</g>
<g>
	<line class="st0" x1="375.22" y1="123.93" x2="367.99" y2="123.93"/>
	<line class="st0" x1="371.6" y1="123.93" x2="371.6" y2="136.91"/>
</g>
<g>
	<line class="st0" x1="359.82" y1="87.09" x2="352.58" y2="87.09"/>
	<line class="st0" x1="356.2" y1="87.09" x2="356.2" y2="98.8"/>
</g>
<rect x="348.5" y="97.69" class="st5" width="15.4" height="131.93"/>
<rect x="363.9" y="133.68" class="st2" width="15.4" height="95.94"/>
<g>
	<g>
		<path class="st4" d="M365.06,112.35c0.31-0.38,0.97-0.76,1.71-0.76c1.23,0,1.83,0.75,1.83,1.62c0,0.8-0.63,1.57-1.5,1.69
			c0.9,0.11,1.64,0.71,1.64,1.66c0,0.97-0.75,1.78-2.17,1.78c-0.59,0-1.27-0.19-1.58-0.46v-0.63c0.46,0.32,0.91,0.53,1.58,0.53
			c0.89,0,1.48-0.47,1.48-1.22c0-0.83-0.51-1.19-1.83-1.41v-0.46c1.12-0.24,1.66-0.71,1.66-1.48c0-0.65-0.5-1.02-1.12-1.02
			c-0.74,0-1.3,0.44-1.71,0.88V112.35z"/>
		<path class="st4" d="M369.19,111.96l2.04-0.36v6.63h-0.67v-5.89l-1.36,0.21V111.96z"/>
		<path class="st4" d="M374.2,111.59c0.84,0,1.52,0.63,1.52,1.52c0,0.88-0.68,1.51-1.52,1.51c-0.83,0-1.51-0.63-1.51-1.51
			C372.7,112.22,373.38,111.59,374.2,111.59z M374.2,114.04c0.52,0,0.9-0.33,0.9-0.94c0-0.62-0.38-0.95-0.9-0.95
			c-0.51,0-0.89,0.33-0.89,0.95C373.31,113.71,373.7,114.04,374.2,114.04z M374.42,118.24h-0.64l3.93-6.54h0.64L374.42,118.24z
			 M377.91,118.35c-0.83,0-1.51-0.63-1.51-1.51c0-0.89,0.68-1.52,1.51-1.52c0.84,0,1.52,0.63,1.52,1.52
			C379.43,117.72,378.75,118.35,377.91,118.35z M377.91,115.89c-0.51,0-0.89,0.33-0.89,0.95c0,0.61,0.38,0.94,0.89,0.94
			c0.52,0,0.9-0.33,0.9-0.94C378.81,116.22,378.43,115.89,377.91,115.89z"/>
	</g>
</g>
<g>
	<g>
		<path class="st4" d="M351.47,80.82h1.24v0.56h-1.24v1.82h-0.65v-1.82h-3.23v-0.56l3.09-4.16h0.79V80.82z M348.29,80.82h2.53v-3.44
			L348.29,80.82z"/>
		<path class="st4" d="M357.08,82.61v0.59h-4.15v-0.51c1.68-1.42,3.31-2.84,3.31-4.28c0-0.85-0.51-1.24-1.21-1.24
			c-0.85,0-1.42,0.44-1.86,0.88v-0.74c0.4-0.41,1.06-0.76,1.86-0.76c1.07,0,1.88,0.57,1.88,1.86c0,1.45-1.62,3.08-3.12,4.19H357.08z
			"/>
		<path class="st4" d="M359.44,76.56c0.84,0,1.52,0.63,1.52,1.52c0,0.88-0.68,1.51-1.52,1.51c-0.83,0-1.51-0.63-1.51-1.51
			C357.93,77.18,358.62,76.56,359.44,76.56z M359.44,79.01c0.52,0,0.9-0.33,0.9-0.94c0-0.62-0.39-0.95-0.9-0.95
			c-0.51,0-0.89,0.33-0.89,0.95C358.55,78.68,358.93,79.01,359.44,79.01z M359.66,83.2h-0.64l3.93-6.54h0.64L359.66,83.2z
			 M363.15,83.31c-0.83,0-1.51-0.63-1.51-1.51c0-0.89,0.68-1.52,1.51-1.52c0.84,0,1.52,0.63,1.52,1.52
			C364.67,82.68,363.98,83.31,363.15,83.31z M363.15,80.86c-0.51,0-0.89,0.33-0.89,0.95c0,0.61,0.38,0.94,0.89,0.94
			c0.52,0,0.9-0.33,0.9-0.94C364.05,81.19,363.67,80.86,363.15,80.86z"/>
	</g>
</g>
<g>
	<line class="st0" x1="411.35" y1="101.9" x2="404.11" y2="101.9"/>
	<line class="st0" x1="407.73" y1="101.9" x2="407.73" y2="114.88"/>
</g>
<g>
	<line class="st0" x1="395.95" y1="60.46" x2="388.71" y2="60.46"/>
	<line class="st0" x1="392.33" y1="60.46" x2="392.33" y2="72.18"/>
</g>
<rect x="384.63" y="71.27" class="st5" width="15.4" height="158.35"/>
<rect x="400.03" y="112.61" class="st2" width="15.4" height="117.02"/>
<g>
	<g>
		<path class="st4" d="M401.04,92.01c0.31-0.38,0.97-0.76,1.71-0.76c1.23,0,1.83,0.75,1.83,1.62c0,0.8-0.63,1.57-1.5,1.69
			c0.9,0.11,1.64,0.71,1.64,1.66c0,0.97-0.75,1.78-2.17,1.78c-0.59,0-1.27-0.19-1.58-0.46v-0.63c0.46,0.32,0.91,0.53,1.58,0.53
			c0.89,0,1.48-0.47,1.48-1.22c0-0.83-0.51-1.19-1.83-1.41v-0.46c1.12-0.24,1.66-0.71,1.66-1.48c0-0.65-0.5-1.02-1.12-1.02
			c-0.74,0-1.3,0.44-1.71,0.88V92.01z"/>
		<path class="st4" d="M405.1,91.95v-0.59h4.03v0.59l-2.85,5.94h-0.69l2.85-5.94H405.1z"/>
		<path class="st4" d="M411.26,91.25c0.84,0,1.52,0.63,1.52,1.52c0,0.88-0.68,1.51-1.52,1.51c-0.83,0-1.51-0.63-1.51-1.51
			C409.75,91.87,410.43,91.25,411.26,91.25z M411.26,93.7c0.52,0,0.9-0.33,0.9-0.94c0-0.62-0.38-0.95-0.9-0.95
			c-0.51,0-0.89,0.33-0.89,0.95C410.37,93.37,410.75,93.7,411.26,93.7z M411.48,97.89h-0.64l3.93-6.54h0.64L411.48,97.89z
			 M414.97,98c-0.83,0-1.51-0.63-1.51-1.51c0-0.89,0.68-1.52,1.51-1.52c0.84,0,1.52,0.63,1.52,1.52C416.49,97.38,415.8,98,414.97,98
			z M414.97,95.55c-0.51,0-0.89,0.33-0.89,0.95c0,0.61,0.38,0.94,0.89,0.94c0.52,0,0.9-0.33,0.9-0.94
			C415.87,95.88,415.48,95.55,414.97,95.55z"/>
	</g>
</g>
<g>
	<g>
		<path class="st4" d="M384.65,52.35c1.5,0.19,2.66,0.75,2.66,2.21c0,1-0.71,1.93-2.28,1.93c-0.57,0-1.1-0.17-1.47-0.42v-0.64
			c0.46,0.31,0.96,0.5,1.46,0.5c1.06,0,1.61-0.56,1.61-1.36c0-1.19-1.12-1.55-2.61-1.72l0.21-3h2.92v0.59h-2.37L384.65,52.35z"/>
		<path class="st4" d="M390.73,49.73c1.5,0,2.43,1.42,2.43,3.38s-0.94,3.38-2.43,3.38s-2.43-1.42-2.43-3.38
			S389.23,49.73,390.73,49.73z M390.73,55.9c1.06,0,1.75-1.16,1.75-2.79c0-1.64-0.69-2.79-1.75-2.79c-1.06,0-1.75,1.16-1.75,2.79
			C388.98,54.75,389.67,55.9,390.73,55.9z"/>
		<path class="st4" d="M395.66,49.73c0.84,0,1.52,0.63,1.52,1.52c0,0.88-0.68,1.51-1.52,1.51c-0.83,0-1.51-0.63-1.51-1.51
			C394.15,50.36,394.83,49.73,395.66,49.73z M395.66,52.19c0.52,0,0.9-0.33,0.9-0.94c0-0.62-0.38-0.95-0.9-0.95
			c-0.51,0-0.89,0.33-0.89,0.95C394.77,51.86,395.15,52.19,395.66,52.19z M395.88,56.38h-0.64l3.93-6.54h0.64L395.88,56.38z
			 M399.36,56.49c-0.83,0-1.51-0.63-1.51-1.51c0-0.89,0.68-1.52,1.51-1.52c0.84,0,1.52,0.63,1.52,1.52
			C400.88,55.86,400.2,56.49,399.36,56.49z M399.36,54.03c-0.51,0-0.89,0.33-0.89,0.95c0,0.61,0.38,0.94,0.89,0.94
			c0.52,0,0.9-0.33,0.9-0.94C400.27,54.36,399.88,54.03,399.36,54.03z"/>
	</g>
</g>
<g>
	<g>
		<g>
			<path class="st4" d="M14.01,202.64v1.79H6.95c-0.1-0.6-0.18-1.54-0.18-2.33c0-1.76,0.82-3.02,2.63-3.02
				c1.86,0,2.55,1.43,2.55,2.93c0,0.22-0.01,0.49-0.02,0.64H14.01z M10.4,202.64c0.01-0.08,0.02-0.34,0.02-0.54
				c0-0.73-0.3-1.22-1.03-1.22c-0.76,0-1.03,0.58-1.03,1.22c0,0.14,0.01,0.4,0.04,0.54H10.4z"/>
			<path class="st4" d="M11.84,196.87h0.02c0.58-0.14,0.82-0.83,0.82-1.45c0-0.71-0.16-1.26-0.43-1.79h1.4
				c0.33,0.5,0.48,1.25,0.48,1.98c0,1.82-1.08,2.9-2.73,2.9c-1.82,0-2.9-1.13-2.9-2.66c0-1.79,1.21-2.36,2.61-2.36h0.73V196.87z
				 M10.88,195.04c-0.52,0-1,0.22-1,0.84c0,0.55,0.41,0.88,1,0.97V195.04z"/>
			<path class="st4" d="M14.01,190.61v1.7h-5c-0.31-0.6-0.48-1.42-0.48-2.21c0-0.47,0.04-0.77,0.16-1.2h1.64
				c-0.16,0.36-0.2,0.74-0.2,1.13c0,0.18,0.02,0.37,0.07,0.58H14.01z"/>
			<path class="st4" d="M10.47,184c-0.37,0.44-0.49,0.85-0.49,1.34c0,0.82,0.49,1.34,1.32,1.34c0.77,0,1.34-0.5,1.34-1.4
				c0-0.49-0.16-0.94-0.47-1.31h1.56c0.3,0.46,0.4,1,0.4,1.56c0,1.81-1.13,2.87-2.81,2.87c-1.67,0-2.83-1.16-2.83-2.87
				c0-0.62,0.12-1.08,0.4-1.54H10.47z"/>
			<path class="st4" d="M11.84,181.58h0.02c0.58-0.14,0.82-0.83,0.82-1.45c0-0.71-0.16-1.26-0.43-1.79h1.4
				c0.33,0.5,0.48,1.25,0.48,1.98c0,1.82-1.08,2.9-2.73,2.9c-1.82,0-2.9-1.13-2.9-2.66c0-1.79,1.21-2.36,2.61-2.36h0.73V181.58z
				 M10.88,179.75c-0.52,0-1,0.22-1,0.84c0,0.55,0.41,0.88,1,0.97V179.75z"/>
			<path class="st4" d="M9,177.03c-0.31-0.78-0.5-1.85-0.5-2.69c0-1.42,0.52-2.35,2.22-2.35h3.3v1.7h-3.23
				c-0.43,0-0.77,0.18-0.77,0.77c0,0.28,0.04,0.6,0.13,0.86h3.86v1.7H9z"/>
			<path class="st4" d="M8.61,171.34v-0.8H7.28v-1.69h1.33v-1.55h1.42v1.55h1.77c0.6,0,0.76-0.3,0.76-0.71c0-0.37-0.11-0.7-0.3-0.98
				h1.56c0.22,0.41,0.31,0.9,0.31,1.46c0,0.98-0.47,1.92-1.83,1.92h-2.27v0.8H8.61z"/>
			<path class="st4" d="M8.5,161.38c0-1.62,1.14-2.87,2.82-2.87c1.68,0,2.82,1.25,2.82,2.87c0,1.61-1.14,2.85-2.82,2.85
				C9.63,164.24,8.5,162.99,8.5,161.38z M9.96,161.38c0,0.66,0.5,1.14,1.36,1.14s1.35-0.48,1.35-1.14c0-0.67-0.5-1.15-1.35-1.15
				S9.96,160.71,9.96,161.38z"/>
			<path class="st4" d="M14.01,155.53v1.7h-3.98v0.85H8.61v-0.85H7.96c-1.57,0-2.22-0.89-2.22-2.1c0-0.44,0.08-0.79,0.26-1.15h1.55
				c-0.19,0.32-0.26,0.56-0.26,0.9c0,0.44,0.24,0.65,0.65,0.65h0.68v-1.26h1.42v1.26H14.01z"/>
			<path class="st4" d="M14.01,147.76l-4.47,1.38l4.47,0.61v1.76l-7.12-0.97v-2.13l4.82-1.49l-4.82-1.4v-2.15l7.12-0.97v1.78
				l-4.47,0.62l4.47,1.38V147.76z"/>
			<path class="st4" d="M12.66,139.63l1.36,0.49V142l-7.12-2.77v-2.15l7.12-2.77v1.96l-1.36,0.48V139.63z M8.67,138.16l2.53,0.92
				v-1.82L8.67,138.16z"/>
			<path class="st4" d="M6.95,133.58c-0.08-0.53-0.18-1.51-0.18-2.39c0-2.38,1.22-3.99,3.61-3.99c2.6,0,3.73,1.69,3.73,4.04
				c0,0.85-0.05,1.79-0.17,2.34H6.95z M12.51,131.79c0.02-0.22,0.04-0.52,0.04-0.77c0-1.19-0.68-1.99-2.17-1.99
				c-1.37,0-1.97,0.9-1.97,2.03c0,0.23,0.01,0.52,0.04,0.73H12.51z"/>
			<path class="st4" d="M14.01,124.3v1.78H6.92c-0.1-0.56-0.16-1.51-0.16-2.25c0-1.82,0.77-3.05,2.47-3.05
				c1.02,0,1.74,0.58,2.11,1.28l2.66-1.91v2.1l-2.28,1.54v0.52H14.01z M10.27,124.3v-0.44c0-0.74-0.25-1.27-0.98-1.27
				c-0.72,0-0.97,0.55-0.97,1.22c0,0.14,0.01,0.4,0.02,0.49H10.27z"/>
			<path class="st4" d="M11.88,119.69c0.4-0.53,0.73-1.16,0.73-1.97c0-0.54-0.16-1.01-0.64-1.01c-0.43,0-0.59,0.37-0.77,1.09
				c-0.37,1.48-1.04,2.03-2.23,2.03c-1.4,0-2.21-1.07-2.21-2.47c0-0.85,0.2-1.44,0.52-1.97h1.75c-0.46,0.55-0.74,1.16-0.74,1.89
				c0,0.54,0.24,0.8,0.58,0.8c0.46,0,0.6-0.41,0.79-1.16c0.38-1.46,1.07-1.97,2.25-1.97c1.55,0,2.22,1.23,2.22,2.75
				c0,0.79-0.22,1.51-0.5,1.98H11.88z"/>
			<path class="st4" d="M14.01,109.87v1.78H6.92c-0.1-0.56-0.16-1.51-0.16-2.25c0-1.82,0.77-3.05,2.47-3.05
				c1.02,0,1.74,0.58,2.11,1.28l2.66-1.91v2.1l-2.28,1.54v0.52H14.01z M10.27,109.87v-0.44c0-0.74-0.25-1.27-0.98-1.27
				c-0.72,0-0.97,0.55-0.97,1.22c0,0.14,0.01,0.4,0.02,0.49H10.27z"/>
			<path class="st4" d="M11.84,103.74h0.02c0.58-0.14,0.82-0.83,0.82-1.45c0-0.71-0.16-1.26-0.43-1.79h1.4
				c0.33,0.5,0.48,1.25,0.48,1.98c0,1.82-1.08,2.9-2.73,2.9c-1.82,0-2.9-1.13-2.9-2.66c0-1.79,1.21-2.36,2.61-2.36h0.73V103.74z
				 M10.88,101.91c-0.52,0-1,0.22-1,0.84c0,0.55,0.41,0.88,1,0.97V101.91z"/>
			<path class="st4" d="M10.73,92.97c-0.42,0-0.74,0.12-0.74,0.68c0,0.3,0.07,0.6,0.18,0.82c0.08-0.04,0.23-0.08,0.44-0.08h3.41v1.7
				h-3.29c-0.42,0-0.74,0.13-0.74,0.67c0,0.26,0.04,0.44,0.11,0.72h3.92v1.7H8.97c-0.29-0.77-0.48-1.7-0.48-2.52
				c0-0.64,0.17-1.18,0.43-1.5c-0.22-0.43-0.43-0.95-0.43-1.78c0-1.28,0.49-2.12,2.16-2.12h3.36v1.7H10.73z"/>
			<path class="st4" d="M7,90.01c-0.55,0-0.98-0.44-0.98-0.98c0-0.52,0.43-0.97,0.98-0.97c0.54,0,0.97,0.46,0.97,0.97
				C7.97,89.56,7.54,90.01,7,90.01z M14.01,88.17v1.7h-5.4v-1.7H14.01z"/>
			<path class="st4" d="M12.19,86.87c0.36-0.54,0.59-1.28,0.59-1.79c0-0.37-0.1-0.64-0.34-0.64c-0.22,0-0.34,0.16-0.41,0.66
				c-0.18,1.31-0.7,1.86-1.72,1.86c-1.26,0-1.82-0.96-1.82-2.18c0-0.68,0.14-1.14,0.41-1.62h1.45c-0.34,0.53-0.5,1.02-0.5,1.55
				c0,0.46,0.17,0.6,0.35,0.6c0.2,0,0.31-0.16,0.37-0.55c0.25-1.55,0.84-1.97,1.81-1.97c1.2,0,1.75,0.9,1.75,2.24
				c0,0.66-0.16,1.36-0.44,1.83H12.19z"/>
			<path class="st4" d="M12.19,81.83c0.36-0.54,0.59-1.28,0.59-1.79c0-0.37-0.1-0.64-0.34-0.64c-0.22,0-0.34,0.16-0.41,0.66
				c-0.18,1.31-0.7,1.86-1.72,1.86c-1.26,0-1.82-0.96-1.82-2.18c0-0.68,0.14-1.14,0.41-1.62h1.45c-0.34,0.53-0.5,1.02-0.5,1.55
				c0,0.46,0.17,0.6,0.35,0.6c0.2,0,0.31-0.16,0.37-0.55c0.25-1.55,0.84-1.97,1.81-1.97c1.2,0,1.75,0.9,1.75,2.24
				c0,0.66-0.16,1.36-0.44,1.83H12.19z"/>
			<path class="st4" d="M7,76.76c-0.55,0-0.98-0.44-0.98-0.98c0-0.52,0.43-0.97,0.98-0.97c0.54,0,0.97,0.46,0.97,0.97
				C7.97,76.31,7.54,76.76,7,76.76z M14.01,74.92v1.7h-5.4v-1.7H14.01z"/>
			<path class="st4" d="M8.5,71c0-1.62,1.14-2.87,2.82-2.87c1.68,0,2.82,1.25,2.82,2.87c0,1.61-1.14,2.85-2.82,2.85
				C9.63,73.85,8.5,72.61,8.5,71z M9.96,71c0,0.66,0.5,1.14,1.36,1.14s1.35-0.48,1.35-1.14c0-0.67-0.5-1.15-1.35-1.15
				S9.96,70.33,9.96,71z"/>
			<path class="st4" d="M9,67.06c-0.31-0.78-0.5-1.85-0.5-2.69c0-1.42,0.52-2.35,2.22-2.35h3.3v1.7h-3.23
				c-0.43,0-0.77,0.18-0.77,0.77c0,0.28,0.04,0.6,0.13,0.86h3.86v1.7H9z"/>
			<path class="st4" d="M15.67,56.02c-1.21,1.28-3.12,2.06-4.91,2.06s-3.71-0.78-4.91-2.06v-1.86c1.47,1.49,3.23,2.24,4.91,2.24
				c1.68,0,3.43-0.76,4.91-2.24V56.02z"/>
			<path class="st4" d="M11.88,53.59c0.4-0.53,0.73-1.16,0.73-1.97c0-0.54-0.16-1.01-0.64-1.01c-0.43,0-0.59,0.37-0.77,1.09
				c-0.37,1.48-1.04,2.03-2.23,2.03c-1.4,0-2.21-1.07-2.21-2.47c0-0.85,0.2-1.44,0.52-1.97h1.75c-0.46,0.55-0.74,1.16-0.74,1.89
				c0,0.54,0.24,0.8,0.58,0.8c0.46,0,0.6-0.41,0.79-1.16c0.38-1.46,1.07-1.97,2.25-1.97c1.55,0,2.22,1.24,2.22,2.75
				c0,0.79-0.22,1.51-0.5,1.98H11.88z"/>
			<path class="st4" d="M12.44,43.02h1.57v4.8H6.89V43.1h1.57v2.95h1.22v-2.69h1.54v2.69h1.22V43.02z"/>
			<path class="st4" d="M5.86,40.51c1.2-1.28,3.12-2.06,4.91-2.06s3.69,0.78,4.91,2.06v1.86c-1.48-1.49-3.23-2.24-4.91-2.24
				c-1.68,0-3.43,0.75-4.91,2.24V40.51z"/>
		</g>
	</g>
</g>
<g>
	<path class="st4" d="M65.42,236.23c0.48-0.06,0.93-0.09,1.34-0.09c2.99,0,4,1.55,4,3.22c0,1.84-1.07,3.53-3.92,3.53
		c-0.55,0-0.97-0.04-1.43-0.1V236.23z M66.11,242.26c0.26,0.03,0.52,0.04,0.76,0.04c1.87,0,3.19-0.93,3.19-2.93
		c0-1.54-0.98-2.62-3.31-2.62c-0.21,0-0.41,0.01-0.64,0.03V242.26z"/>
	<path class="st4" d="M71.44,236.52l2.04-0.36v6.63h-0.67v-5.89l-1.36,0.21V236.52z"/>
	<path class="st4" d="M75.93,238.11c0.3,0,0.55,0.24,0.55,0.54s-0.25,0.55-0.55,0.55c-0.3,0-0.54-0.25-0.54-0.55
		S75.63,238.11,75.93,238.11z M75.93,241.8c0.3,0,0.55,0.24,0.55,0.54s-0.25,0.55-0.55,0.55c-0.3,0-0.54-0.25-0.54-0.55
		S75.63,241.8,75.93,241.8z"/>
	<path class="st4" d="M83.51,240.41h1.24v0.56h-1.24v1.82h-0.65v-1.82h-3.23v-0.56l3.09-4.16h0.79V240.41z M80.33,240.41h2.53v-3.44
		L80.33,240.41z"/>
	<path class="st4" d="M85.74,235.31h0.66v2.83c0.36-0.13,0.9-0.25,1.41-0.25c1.16,0,1.89,0.47,1.89,1.67v3.23h-0.66v-3.1
		c0-0.98-0.69-1.19-1.34-1.19c-0.51,0-0.97,0.11-1.3,0.22v4.07h-0.66V235.31z"/>
</g>
<g>
	<path class="st4" d="M108.96,236.23c0.48-0.06,0.93-0.09,1.34-0.09c2.99,0,4,1.55,4,3.22c0,1.84-1.07,3.53-3.92,3.53
		c-0.55,0-0.97-0.04-1.43-0.1V236.23z M109.64,242.26c0.26,0.03,0.52,0.04,0.76,0.04c1.87,0,3.19-0.93,3.19-2.93
		c0-1.54-0.98-2.62-3.31-2.62c-0.21,0-0.41,0.01-0.64,0.03V242.26z"/>
	<path class="st4" d="M119,242.19v0.59h-4.15v-0.51c1.68-1.42,3.31-2.84,3.31-4.28c0-0.85-0.51-1.24-1.21-1.24
		c-0.85,0-1.42,0.44-1.86,0.88v-0.74c0.4-0.41,1.06-0.76,1.86-0.76c1.07,0,1.88,0.57,1.88,1.86c0,1.45-1.62,3.08-3.12,4.19H119z"/>
</g>
<g>
	<path class="st4" d="M144.16,236.23c0.48-0.06,0.93-0.09,1.34-0.09c2.99,0,4,1.55,4,3.22c0,1.84-1.07,3.53-3.92,3.53
		c-0.55,0-0.97-0.04-1.43-0.1V236.23z M144.84,242.26c0.26,0.03,0.52,0.04,0.76,0.04c1.87,0,3.19-0.93,3.19-2.93
		c0-1.54-0.98-2.62-3.31-2.62c-0.21,0-0.41,0.01-0.64,0.03V242.26z"/>
	<path class="st4" d="M154.17,240.41h1.24v0.56h-1.24v1.82h-0.65v-1.82h-3.23v-0.56l3.09-4.16h0.79V240.41z M150.99,240.41h2.53
		v-3.44L150.99,240.41z"/>
</g>
<g>
	<path class="st4" d="M180.52,236.23c0.48-0.06,0.93-0.09,1.34-0.09c2.99,0,4,1.55,4,3.22c0,1.84-1.07,3.53-3.92,3.53
		c-0.55,0-0.97-0.04-1.43-0.1V236.23z M181.21,242.26c0.26,0.03,0.52,0.04,0.76,0.04c1.87,0,3.19-0.93,3.19-2.93
		c0-1.54-0.98-2.62-3.31-2.62c-0.21,0-0.41,0.01-0.64,0.03V242.26z"/>
	<path class="st4" d="M186.81,241.01c0-0.95,0.76-1.56,1.43-1.69c-0.56-0.17-1.06-0.69-1.06-1.46c0-1.11,0.84-1.71,1.8-1.71
		c0.97,0,1.8,0.59,1.8,1.71c0,0.77-0.5,1.3-1.06,1.46c0.67,0.13,1.43,0.75,1.43,1.69c0,1.21-0.97,1.89-2.18,1.89
		S186.81,242.21,186.81,241.01z M190.47,241.01c0-0.88-0.67-1.41-1.49-1.41c-0.81,0-1.49,0.53-1.49,1.41c0,0.9,0.67,1.34,1.49,1.34
		C189.8,242.35,190.47,241.91,190.47,241.01z M190.14,237.84c0-0.73-0.53-1.17-1.16-1.17s-1.16,0.44-1.16,1.17
		c0,0.72,0.53,1.14,1.16,1.14S190.14,238.55,190.14,237.84z"/>
</g>
<g>
	<path class="st4" d="M215.65,236.23c0.48-0.06,0.93-0.09,1.34-0.09c2.99,0,4,1.55,4,3.22c0,1.84-1.07,3.53-3.92,3.53
		c-0.55,0-0.97-0.04-1.43-0.1V236.23z M216.34,242.26c0.26,0.03,0.52,0.04,0.76,0.04c1.87,0,3.19-0.93,3.19-2.93
		c0-1.54-0.98-2.62-3.31-2.62c-0.21,0-0.41,0.01-0.64,0.03V242.26z"/>
	<path class="st4" d="M221.67,236.52l2.04-0.36v6.63h-0.67v-5.89l-1.36,0.21V236.52z"/>
	<path class="st4" d="M225.03,236.52l2.04-0.36v6.63h-0.67v-5.89l-1.36,0.21V236.52z"/>
</g>
<g>
	<path class="st4" d="M227.09,258.22c0.53-0.08,1.51-0.18,2.39-0.18c2.38,0,3.99,1.22,3.99,3.61c0,2.6-1.69,3.73-4.04,3.73
		c-0.85,0-1.79-0.05-2.34-0.17V258.22z M228.88,263.79c0.22,0.02,0.52,0.04,0.77,0.04c1.19,0,1.99-0.68,1.99-2.17
		c0-1.37-0.9-1.97-2.03-1.97c-0.23,0-0.52,0.01-0.73,0.04V263.79z"/>
	<path class="st4" d="M237.21,261.85c0-0.47-0.42-0.64-0.91-0.64c-0.64,0-1.14,0.19-1.55,0.44v-1.44c0.49-0.29,1.15-0.44,1.86-0.44
		c1.3,0,2.28,0.49,2.28,2v3.39c-0.53,0.12-1.44,0.24-2.21,0.24c-1.33,0-2.41-0.4-2.41-1.69c0-1.14,0.89-1.66,2.36-1.66h0.58V261.85z
		 M237.21,263.09h-0.46c-0.53,0-0.79,0.17-0.79,0.54s0.26,0.55,0.7,0.55c0.14,0,0.38-0.01,0.55-0.05V263.09z"/>
	<path class="st4" d="M242.64,263.41l1.21-3.51h1.77l-2.95,7.56H241l0.78-2.05l-2.21-5.51h1.83L242.64,263.41z"/>
	<path class="st4" d="M246.26,263.47c0.54,0.36,1.28,0.59,1.79,0.59c0.37,0,0.64-0.1,0.64-0.34c0-0.22-0.16-0.34-0.66-0.41
		c-1.31-0.18-1.86-0.7-1.86-1.72c0-1.26,0.96-1.82,2.18-1.82c0.68,0,1.14,0.14,1.62,0.41v1.45c-0.53-0.34-1.02-0.5-1.55-0.5
		c-0.46,0-0.6,0.17-0.6,0.35c0,0.2,0.16,0.31,0.55,0.37c1.55,0.25,1.97,0.84,1.97,1.81c0,1.2-0.9,1.75-2.24,1.75
		c-0.66,0-1.36-0.16-1.83-0.44V263.47z"/>
</g>
<g>
	<path class="st4" d="M251.06,236.23c0.48-0.06,0.93-0.09,1.34-0.09c2.99,0,4,1.55,4,3.22c0,1.84-1.07,3.53-3.92,3.53
		c-0.55,0-0.97-0.04-1.43-0.1V236.23z M251.74,242.26c0.26,0.03,0.52,0.04,0.76,0.04c1.87,0,3.19-0.93,3.19-2.93
		c0-1.54-0.98-2.62-3.31-2.62c-0.21,0-0.41,0.01-0.64,0.03V242.26z"/>
	<path class="st4" d="M257.07,236.52l2.04-0.36v6.63h-0.67v-5.89l-1.36,0.21V236.52z"/>
	<path class="st4" d="M261.56,238.76c1.5,0.19,2.66,0.75,2.66,2.21c0,1-0.71,1.93-2.28,1.93c-0.57,0-1.1-0.17-1.47-0.42v-0.64
		c0.46,0.31,0.96,0.5,1.46,0.5c1.06,0,1.61-0.56,1.61-1.36c0-1.19-1.12-1.55-2.61-1.72l0.21-3h2.92v0.59h-2.37L261.56,238.76z"/>
</g>
<g>
	<path class="st4" d="M286.79,236.23c0.48-0.06,0.93-0.09,1.34-0.09c2.99,0,4,1.55,4,3.22c0,1.84-1.07,3.53-3.92,3.53
		c-0.55,0-0.97-0.04-1.43-0.1V236.23z M287.47,242.26c0.26,0.03,0.52,0.04,0.76,0.04c1.87,0,3.19-0.93,3.19-2.93
		c0-1.54-0.98-2.62-3.31-2.62c-0.21,0-0.41,0.01-0.64,0.03V242.26z"/>
	<path class="st4" d="M292.81,236.52l2.04-0.36v6.63h-0.67v-5.89l-1.36,0.21V236.52z"/>
	<path class="st4" d="M296.43,241.01c0-0.95,0.76-1.56,1.43-1.69c-0.56-0.17-1.06-0.69-1.06-1.46c0-1.11,0.84-1.71,1.8-1.71
		c0.97,0,1.8,0.59,1.8,1.71c0,0.77-0.5,1.3-1.06,1.46c0.67,0.13,1.43,0.75,1.43,1.69c0,1.21-0.97,1.89-2.18,1.89
		S296.43,242.21,296.43,241.01z M300.09,241.01c0-0.88-0.67-1.41-1.49-1.41c-0.81,0-1.49,0.53-1.49,1.41c0,0.9,0.67,1.34,1.49,1.34
		C299.42,242.35,300.09,241.91,300.09,241.01z M299.76,237.84c0-0.73-0.53-1.17-1.16-1.17s-1.16,0.44-1.16,1.17
		c0,0.72,0.53,1.14,1.16,1.14S299.76,238.55,299.76,237.84z"/>
</g>
<g>
	<path class="st4" d="M322.66,236.23c0.48-0.06,0.93-0.09,1.34-0.09c2.99,0,4,1.55,4,3.22c0,1.84-1.07,3.53-3.92,3.53
		c-0.55,0-0.97-0.04-1.43-0.1V236.23z M323.34,242.26c0.26,0.03,0.52,0.04,0.76,0.04c1.87,0,3.19-0.93,3.19-2.93
		c0-1.54-0.98-2.62-3.31-2.62c-0.21,0-0.41,0.01-0.64,0.03V242.26z"/>
	<path class="st4" d="M332.7,242.19v0.59h-4.15v-0.51c1.68-1.42,3.31-2.84,3.31-4.28c0-0.85-0.51-1.24-1.21-1.24
		c-0.85,0-1.42,0.44-1.86,0.88v-0.74c0.4-0.41,1.06-0.76,1.86-0.76c1.07,0,1.88,0.57,1.88,1.86c0,1.45-1.62,3.08-3.12,4.19H332.7z"
		/>
	<path class="st4" d="M337.32,242.19v0.59h-4.15v-0.51c1.68-1.42,3.31-2.84,3.31-4.28c0-0.85-0.51-1.24-1.21-1.24
		c-0.85,0-1.42,0.44-1.86,0.88v-0.74c0.4-0.41,1.06-0.76,1.86-0.76c1.07,0,1.88,0.57,1.88,1.86c0,1.45-1.62,3.08-3.12,4.19H337.32z"
		/>
</g>
<g>
	<path class="st4" d="M356.3,236.23c0.48-0.06,0.93-0.09,1.34-0.09c2.99,0,4,1.55,4,3.22c0,1.84-1.07,3.53-3.92,3.53
		c-0.55,0-0.97-0.04-1.43-0.1V236.23z M356.98,242.26c0.26,0.03,0.52,0.04,0.76,0.04c1.87,0,3.19-0.93,3.19-2.93
		c0-1.54-0.98-2.62-3.31-2.62c-0.21,0-0.41,0.01-0.64,0.03V242.26z"/>
	<path class="st4" d="M366.34,242.19v0.59h-4.15v-0.51c1.68-1.42,3.31-2.84,3.31-4.28c0-0.85-0.51-1.24-1.21-1.24
		c-0.85,0-1.42,0.44-1.86,0.88v-0.74c0.4-0.41,1.06-0.76,1.86-0.76c1.07,0,1.88,0.57,1.88,1.86c0,1.45-1.62,3.08-3.12,4.19H366.34z"
		/>
	<path class="st4" d="M368.07,238.76c1.5,0.19,2.66,0.75,2.66,2.21c0,1-0.71,1.93-2.28,1.93c-0.57,0-1.1-0.17-1.47-0.42v-0.64
		c0.46,0.31,0.96,0.5,1.46,0.5c1.06,0,1.61-0.56,1.61-1.36c0-1.19-1.12-1.55-2.61-1.72l0.21-3h2.92v0.59h-2.37L368.07,238.76z"/>
	<path class="st4" d="M372.48,238.11c0.3,0,0.55,0.24,0.55,0.54s-0.25,0.55-0.55,0.55c-0.3,0-0.54-0.25-0.54-0.55
		S372.18,238.11,372.48,238.11z M372.48,241.8c0.3,0,0.55,0.24,0.55,0.54s-0.25,0.55-0.55,0.55c-0.3,0-0.54-0.25-0.54-0.55
		S372.18,241.8,372.48,241.8z"/>
	<path class="st4" d="M350.07,254.79h-0.68v-6.55c0.3-0.04,0.77-0.1,1.15-0.1c1.8,0,2.56,0.84,2.56,2.07c0,1.4-0.98,2.16-2.62,2.16
		c-0.12,0-0.27-0.01-0.42-0.02V254.79z M350.07,251.77c0.12,0.01,0.24,0.01,0.35,0.01c1.35,0,1.99-0.52,1.99-1.57
		c0-0.85-0.5-1.49-1.9-1.49c-0.13,0-0.29,0.01-0.44,0.02V251.77z"/>
	<path class="st4" d="M354.87,254.79h-0.66v-4.36c0.51-0.32,1.12-0.52,1.78-0.52c0.26,0,0.53,0.03,0.8,0.1v0.65
		c-0.29-0.1-0.63-0.12-0.85-0.12c-0.47,0-0.83,0.1-1.08,0.24V254.79z"/>
	<path class="st4" d="M358.13,252.42v0.02c0,1.18,0.85,1.87,1.78,1.87c0.68,0,1.16-0.18,1.64-0.54v0.66
		c-0.43,0.32-1.05,0.46-1.64,0.46c-1.39,0-2.44-0.95-2.44-2.51c0-1.44,0.99-2.51,2.28-2.51c1.21,0,2.01,0.73,2.01,2.09v0.45H358.13z
		 M361.1,251.87c-0.04-1-0.58-1.41-1.39-1.41c-0.75,0-1.35,0.51-1.54,1.41H361.1z"/>
	<path class="st4" d="M367.01,254.72c-0.52,0.12-1.06,0.18-1.56,0.18c-1.66,0-2.78-0.9-2.78-2.51c0-1.62,1.21-2.51,2.64-2.51
		c0.36,0,0.8,0.08,1.04,0.22v-2.79h0.66V254.72z M366.35,250.69c-0.24-0.13-0.6-0.22-1.04-0.22c-1.11,0-1.97,0.68-1.97,1.91
		c0,1.22,0.85,1.93,2.11,1.93c0.31,0,0.62-0.01,0.9-0.06V250.69z"/>
	<path class="st4" d="M370.71,249.88c1.43,0,2.41,1.02,2.41,2.51s-0.98,2.51-2.41,2.51c-1.43,0-2.41-1.02-2.41-2.51
		S369.28,249.88,370.71,249.88z M370.71,250.45c-1.01,0-1.74,0.77-1.74,1.94s0.73,1.94,1.74,1.94c1.01,0,1.74-0.77,1.74-1.94
		S371.72,250.45,370.71,250.45z"/>
	<path class="st4" d="M374.11,253.76c0.41,0.36,0.83,0.57,1.35,0.57c0.6,0,0.99-0.23,0.99-0.77c0-0.57-0.42-0.73-1.18-0.98
		c-0.85-0.29-1.21-0.64-1.21-1.41c0-0.85,0.64-1.3,1.51-1.3c0.47,0,0.94,0.1,1.31,0.36v0.72c-0.37-0.31-0.76-0.52-1.31-0.52
		c-0.53,0-0.87,0.29-0.87,0.74c0,0.44,0.26,0.67,1,0.9c0.84,0.25,1.4,0.57,1.4,1.44c0,0.95-0.74,1.38-1.64,1.38
		c-0.54,0-1.06-0.15-1.35-0.39V253.76z"/>
	<path class="st4" d="M378.72,252.42v0.02c0,1.18,0.85,1.87,1.78,1.87c0.68,0,1.16-0.18,1.64-0.54v0.66
		c-0.43,0.32-1.05,0.46-1.64,0.46c-1.39,0-2.44-0.95-2.44-2.51c0-1.44,0.99-2.51,2.28-2.51c1.21,0,2.01,0.73,2.01,2.09v0.45H378.72z
		 M381.69,251.87c-0.04-1-0.58-1.41-1.39-1.41c-0.75,0-1.35,0.51-1.54,1.41H381.69z"/>
</g>
<g>
	<path class="st4" d="M393.47,236.23c0.48-0.06,0.93-0.09,1.34-0.09c2.99,0,4,1.55,4,3.22c0,1.84-1.07,3.53-3.92,3.53
		c-0.55,0-0.97-0.04-1.43-0.1V236.23z M394.15,242.26c0.26,0.03,0.52,0.04,0.76,0.04c1.87,0,3.19-0.93,3.19-2.93
		c0-1.54-0.98-2.62-3.31-2.62c-0.21,0-0.41,0.01-0.64,0.03V242.26z"/>
	<path class="st4" d="M403.51,242.19v0.59h-4.15v-0.51c1.68-1.42,3.31-2.84,3.31-4.28c0-0.85-0.51-1.24-1.21-1.24
		c-0.85,0-1.42,0.44-1.86,0.88v-0.74c0.4-0.41,1.06-0.76,1.86-0.76c1.07,0,1.88,0.57,1.88,1.86c0,1.45-1.62,3.08-3.12,4.19H403.51z"
		/>
	<path class="st4" d="M405.24,238.76c1.5,0.19,2.66,0.75,2.66,2.21c0,1-0.71,1.93-2.28,1.93c-0.57,0-1.1-0.17-1.47-0.42v-0.64
		c0.46,0.31,0.96,0.5,1.46,0.5c1.06,0,1.61-0.56,1.61-1.36c0-1.19-1.12-1.55-2.61-1.72l0.21-3h2.92v0.59h-2.37L405.24,238.76z"/>
	<path class="st4" d="M409.65,238.11c0.3,0,0.55,0.24,0.55,0.54s-0.25,0.55-0.55,0.55c-0.3,0-0.54-0.25-0.54-0.55
		S409.35,238.11,409.65,238.11z M409.65,241.8c0.3,0,0.55,0.24,0.55,0.54s-0.25,0.55-0.55,0.55c-0.3,0-0.54-0.25-0.54-0.55
		S409.35,241.8,409.65,241.8z"/>
	<path class="st4" d="M400.36,252.41h1.24v0.56h-1.24v1.82h-0.65v-1.82h-3.23v-0.56l3.09-4.16h0.79V252.41z M397.18,252.41h2.53
		v-3.44L397.18,252.41z"/>
	<path class="st4" d="M402.59,247.31h0.66v2.83c0.36-0.13,0.9-0.25,1.41-0.25c1.16,0,1.89,0.47,1.89,1.67v3.23h-0.66v-3.1
		c0-0.98-0.69-1.19-1.34-1.19c-0.51,0-0.97,0.11-1.3,0.22v4.07h-0.66V247.31z"/>
</g>
<polyline class="st0" points="424.96,229.62 55.95,229.62 55.95,10.69 52.13,10.69 "/>
<rect x="55.1" y="21.02" class="st6" width="1.82" height="2.48"/>
<line class="st7" x1="53.02" y1="21.91" x2="58.99" y2="20.12"/>
<line class="st7" x1="53.02" y1="24.39" x2="58.99" y2="22.59"/>
</svg>
