<?xml version="1.0" encoding="utf-8"?>
<!-- Generator: Adobe Illustrator 23.0.1, SVG Export Plug-In . SVG Version: 6.00 Build 0)  -->
<svg version="1.1" id="Layer_1" xmlns="http://www.w3.org/2000/svg" xmlns:xlink="http://www.w3.org/1999/xlink" x="0px" y="0px"
	 viewBox="0 0 497.7 211.28" style="enable-background:new 0 0 497.7 211.28;" xml:space="preserve">
<style type="text/css">
	.st0{fill:none;stroke:#D9D9D8;stroke-width:0.6392;stroke-linejoin:round;stroke-miterlimit:10;}
	.st1{fill:#00417B;}
	.st2{fill:#FFFFFF;stroke:#00417B;stroke-width:1.5;stroke-miterlimit:10;}
	.st3{fill:#FDFEFF;}
	.st4{fill-rule:evenodd;clip-rule:evenodd;fill:#00417B;}
	.st5{fill-rule:evenodd;clip-rule:evenodd;fill:#FFFFFF;stroke:#00417B;stroke-width:1.5;stroke-miterlimit:10;}
</style>
<g>
	<line class="st0" x1="42.07" y1="167.59" x2="497.7" y2="167.59"/>
	<line class="st0" x1="42.07" y1="144.49" x2="497.7" y2="144.49"/>
	<line class="st0" x1="42.07" y1="121.39" x2="497.7" y2="121.39"/>
	<line class="st0" x1="42.07" y1="98.84" x2="497.7" y2="98.84"/>
	<line class="st0" x1="42.07" y1="75.75" x2="497.7" y2="75.75"/>
	<line class="st0" x1="42.07" y1="52.65" x2="497.7" y2="52.65"/>
	<line class="st0" x1="42.07" y1="29.55" x2="497.7" y2="29.55"/>
	<line class="st0" x1="42.07" y1="7" x2="497.7" y2="7"/>
	<g>
		<line class="st0" x1="42.07" y1="190.14" x2="497.7" y2="190.14"/>
	</g>
</g>
<g>
	<polygon class="st1" points="86.52,31.47 146.17,31.47 146.17,190.41 86.52,190.41 86.52,31.47 	"/>
	<polygon class="st2" points="165.5,71.07 225.15,71.07 225.15,190.14 165.5,190.14 165.5,71.07 	"/>
</g>
<g>
	<polygon class="st1" points="314.62,69.97 374.26,69.97 374.26,190.41 314.62,190.41 314.62,69.97 	"/>
	<polygon class="st2" points="393.04,119.47 452.68,119.47 452.68,190.14 393.04,190.14 393.04,119.47 	"/>
</g>
<g>
	<g>
		<g>
			<path class="st3" d="M108.93,42.18c0,0.45-0.08,0.87-0.25,1.27c-0.16,0.39-0.4,0.73-0.69,1c-0.32,0.29-0.69,0.51-1.1,0.66
				c-0.42,0.15-0.91,0.23-1.47,0.23c-0.53,0-1.01-0.07-1.44-0.21c-0.43-0.14-0.81-0.36-1.12-0.65c-0.36-0.34-0.63-0.77-0.82-1.3
				c-0.19-0.53-0.28-1.17-0.28-1.9c0-0.77,0.09-1.45,0.26-2.04c0.18-0.59,0.46-1.12,0.86-1.58c0.38-0.44,0.88-0.78,1.5-1.02
				c0.61-0.24,1.34-0.36,2.19-0.36c0.29,0,0.6,0.02,0.94,0.06s0.56,0.07,0.67,0.09v1.72h-0.22c-0.11-0.05-0.29-0.11-0.54-0.17
				c-0.25-0.06-0.54-0.1-0.86-0.1c-0.75,0-1.34,0.18-1.76,0.55c-0.42,0.37-0.67,0.88-0.76,1.54c0.3-0.18,0.62-0.33,0.96-0.44
				c0.33-0.11,0.7-0.17,1.09-0.17c0.34,0,0.66,0.04,0.95,0.12c0.29,0.08,0.56,0.2,0.81,0.38c0.33,0.23,0.59,0.53,0.78,0.91
				C108.83,41.13,108.93,41.61,108.93,42.18z M106.25,43.5c0.12-0.13,0.22-0.29,0.29-0.47c0.07-0.18,0.11-0.43,0.11-0.74
				c0-0.29-0.04-0.52-0.12-0.7c-0.08-0.18-0.2-0.33-0.34-0.44c-0.14-0.11-0.31-0.18-0.5-0.23c-0.19-0.04-0.39-0.06-0.59-0.06
				c-0.17,0-0.35,0.02-0.54,0.06c-0.19,0.04-0.36,0.09-0.52,0.15c0,0.04,0,0.1-0.01,0.19s-0.01,0.2-0.01,0.34
				c0,0.48,0.05,0.88,0.14,1.19s0.22,0.55,0.39,0.71c0.11,0.12,0.24,0.21,0.39,0.27s0.31,0.08,0.48,0.08c0.13,0,0.27-0.03,0.43-0.09
				C106.01,43.71,106.14,43.62,106.25,43.5z"/>
			<path class="st3" d="M117.62,40.3c0,0.73-0.09,1.41-0.28,2.04c-0.19,0.63-0.47,1.16-0.86,1.59c-0.42,0.47-0.93,0.81-1.55,1.05
				c-0.62,0.23-1.33,0.35-2.15,0.35c-0.29,0-0.6-0.02-0.94-0.05s-0.56-0.07-0.67-0.09v-1.72h0.24c0.12,0.05,0.29,0.11,0.5,0.18
				s0.51,0.09,0.89,0.09c0.31,0,0.61-0.04,0.9-0.11c0.29-0.08,0.55-0.2,0.76-0.36c0.23-0.18,0.42-0.4,0.57-0.66
				c0.15-0.26,0.25-0.58,0.3-0.95c-0.34,0.2-0.66,0.35-0.95,0.45c-0.29,0.1-0.66,0.16-1.09,0.16c-0.33,0-0.64-0.04-0.94-0.12
				c-0.3-0.08-0.57-0.2-0.82-0.37c-0.33-0.23-0.59-0.53-0.78-0.91c-0.19-0.38-0.29-0.85-0.29-1.43c0-0.93,0.33-1.7,0.98-2.28
				c0.65-0.59,1.51-0.88,2.57-0.88c0.54,0,1.03,0.07,1.45,0.21s0.79,0.36,1.09,0.65c0.36,0.34,0.63,0.76,0.81,1.28
				C117.53,38.92,117.62,39.55,117.62,40.3z M115.37,39.97c0-0.48-0.05-0.87-0.14-1.18c-0.09-0.31-0.22-0.54-0.38-0.71
				c-0.11-0.13-0.25-0.22-0.39-0.27c-0.15-0.05-0.31-0.08-0.47-0.08c-0.15,0-0.3,0.03-0.44,0.08c-0.14,0.05-0.27,0.14-0.4,0.27
				c-0.12,0.13-0.22,0.29-0.3,0.49c-0.08,0.2-0.11,0.45-0.11,0.73c0,0.27,0.04,0.5,0.12,0.69s0.2,0.33,0.34,0.44
				c0.14,0.11,0.3,0.18,0.49,0.22c0.19,0.04,0.39,0.06,0.61,0.06c0.18,0,0.37-0.02,0.58-0.07s0.37-0.09,0.48-0.14
				c0-0.04,0-0.1,0.01-0.19C115.37,40.25,115.37,40.13,115.37,39.97z"/>
			<path class="st3" d="M121.99,45.15h-2.2v-2.3h2.2V45.15z"/>
			<path class="st3" d="M130.26,41.06c0.19,0.16,0.35,0.36,0.46,0.57s0.17,0.51,0.17,0.87c0,0.41-0.08,0.79-0.24,1.15
				c-0.16,0.36-0.41,0.66-0.75,0.91c-0.33,0.25-0.72,0.43-1.16,0.57s-0.99,0.2-1.62,0.2c-0.73,0-1.35-0.06-1.87-0.17
				c-0.52-0.11-0.94-0.24-1.27-0.38v-1.92h0.23c0.34,0.2,0.74,0.38,1.21,0.53s0.9,0.22,1.29,0.22c0.23,0,0.47-0.02,0.74-0.06
				c0.27-0.04,0.49-0.12,0.68-0.24c0.15-0.1,0.26-0.22,0.35-0.35c0.09-0.14,0.13-0.34,0.13-0.6c0-0.25-0.06-0.45-0.18-0.59
				s-0.27-0.24-0.46-0.3c-0.19-0.06-0.42-0.1-0.69-0.1c-0.27-0.01-0.52-0.01-0.75-0.01h-0.48v-1.56h0.5c0.31,0,0.58-0.01,0.81-0.03
				s0.44-0.06,0.6-0.13c0.17-0.07,0.3-0.17,0.39-0.3c0.09-0.12,0.13-0.3,0.13-0.54c0-0.18-0.05-0.32-0.14-0.42s-0.2-0.19-0.34-0.25
				c-0.15-0.07-0.33-0.12-0.54-0.14s-0.39-0.04-0.54-0.04c-0.37,0-0.77,0.06-1.2,0.19s-0.85,0.31-1.25,0.55h-0.22V36.8
				c0.32-0.13,0.76-0.25,1.31-0.37c0.55-0.12,1.11-0.18,1.68-0.18c0.55,0,1.04,0.05,1.45,0.14c0.42,0.1,0.76,0.22,1.03,0.38
				c0.32,0.19,0.56,0.42,0.72,0.7c0.16,0.27,0.24,0.59,0.24,0.96c0,0.48-0.15,0.92-0.45,1.3c-0.3,0.38-0.7,0.62-1.19,0.73v0.08
				c0.2,0.03,0.41,0.08,0.64,0.16S130.08,40.91,130.26,41.06z"/>
		</g>
	</g>
</g>
<g>
	<g>
		<g>
			<path class="st3" d="M336.85,80.73c0,0.45-0.08,0.87-0.26,1.26c-0.17,0.39-0.42,0.72-0.74,1c-0.36,0.3-0.78,0.52-1.24,0.66
				s-1,0.21-1.6,0.21c-0.7,0-1.3-0.06-1.78-0.17s-0.88-0.23-1.19-0.36v-1.93h0.25c0.36,0.21,0.74,0.39,1.15,0.53
				s0.82,0.21,1.23,0.21c0.25,0,0.52-0.03,0.8-0.08s0.52-0.16,0.69-0.31c0.13-0.12,0.23-0.24,0.3-0.37s0.1-0.32,0.1-0.58
				c0-0.2-0.05-0.38-0.14-0.52s-0.21-0.26-0.36-0.35c-0.21-0.13-0.47-0.21-0.76-0.25s-0.57-0.06-0.81-0.06
				c-0.35,0-0.69,0.03-1.02,0.09c-0.32,0.06-0.61,0.12-0.85,0.18h-0.26v-4.92h6.23v1.67h-4.11v1.42c0.12-0.01,0.28-0.01,0.46-0.02
				c0.19-0.01,0.35-0.01,0.49-0.01c0.48,0,0.91,0.05,1.29,0.14c0.38,0.09,0.71,0.22,0.98,0.38c0.36,0.21,0.63,0.5,0.83,0.85
				S336.85,80.19,336.85,80.73z"/>
			<path class="st3" d="M345.9,83.68h-6.88v-1.44c0.53-0.38,1.05-0.78,1.58-1.21c0.53-0.43,0.95-0.79,1.27-1.1
				c0.47-0.46,0.81-0.86,1.01-1.2s0.3-0.68,0.3-1.01c0-0.4-0.13-0.71-0.39-0.92s-0.63-0.33-1.11-0.33c-0.36,0-0.74,0.07-1.14,0.22
				s-0.77,0.34-1.11,0.57h-0.19v-1.94c0.28-0.12,0.69-0.24,1.23-0.36s1.09-0.18,1.63-0.18c1.1,0,1.94,0.23,2.51,0.69
				c0.58,0.46,0.86,1.11,0.86,1.95c0,0.55-0.14,1.07-0.41,1.57c-0.28,0.5-0.7,1.01-1.27,1.54c-0.36,0.33-0.72,0.63-1.08,0.91
				c-0.36,0.28-0.62,0.47-0.77,0.58h3.94V83.68z"/>
			<path class="st3" d="M350.08,83.68h-2.2v-2.3h2.2V83.68z"/>
			<path class="st3" d="M359.02,80.73c0,0.45-0.08,0.87-0.26,1.26c-0.17,0.39-0.42,0.72-0.74,1c-0.36,0.3-0.78,0.52-1.24,0.66
				s-1,0.21-1.6,0.21c-0.7,0-1.3-0.06-1.78-0.17s-0.88-0.23-1.19-0.36v-1.93h0.25c0.36,0.21,0.74,0.39,1.15,0.53
				s0.82,0.21,1.23,0.21c0.25,0,0.52-0.03,0.8-0.08s0.52-0.16,0.69-0.31c0.13-0.12,0.23-0.24,0.3-0.37s0.1-0.32,0.1-0.58
				c0-0.2-0.05-0.38-0.14-0.52s-0.21-0.26-0.36-0.35c-0.21-0.13-0.47-0.21-0.76-0.25s-0.57-0.06-0.81-0.06
				c-0.35,0-0.69,0.03-1.02,0.09c-0.32,0.06-0.61,0.12-0.85,0.18h-0.26v-4.92h6.23v1.67h-4.11v1.42c0.12-0.01,0.28-0.01,0.46-0.02
				c0.19-0.01,0.35-0.01,0.49-0.01c0.48,0,0.91,0.05,1.29,0.14c0.38,0.09,0.71,0.22,0.98,0.38c0.36,0.21,0.63,0.5,0.83,0.85
				S359.02,80.19,359.02,80.73z"/>
		</g>
	</g>
</g>
<g>
	<g>
		<g>
			<path d="M187.73,81.87c0,0.45-0.09,0.87-0.26,1.26c-0.17,0.39-0.42,0.72-0.74,1c-0.36,0.3-0.78,0.52-1.24,0.66
				c-0.47,0.14-1,0.21-1.6,0.21c-0.7,0-1.3-0.06-1.78-0.17c-0.48-0.11-0.88-0.23-1.19-0.36v-1.93h0.25
				c0.36,0.21,0.74,0.39,1.15,0.53c0.41,0.14,0.82,0.21,1.23,0.21c0.25,0,0.51-0.03,0.8-0.08c0.29-0.06,0.52-0.16,0.69-0.31
				c0.13-0.12,0.23-0.24,0.3-0.37c0.07-0.13,0.1-0.32,0.1-0.58c0-0.2-0.05-0.38-0.14-0.52s-0.21-0.26-0.36-0.35
				c-0.21-0.13-0.47-0.21-0.77-0.25c-0.3-0.04-0.57-0.06-0.81-0.06c-0.35,0-0.69,0.03-1.01,0.09c-0.32,0.06-0.61,0.12-0.85,0.18
				h-0.26V76.1h6.23v1.67h-4.11v1.42c0.12-0.01,0.28-0.01,0.46-0.02c0.19-0.01,0.35-0.01,0.49-0.01c0.48,0,0.91,0.05,1.29,0.14
				c0.38,0.09,0.71,0.22,0.98,0.38c0.36,0.21,0.64,0.5,0.84,0.85S187.73,81.34,187.73,81.87z"/>
			<path d="M196.79,84.83h-6.88v-1.44c0.53-0.38,1.05-0.78,1.58-1.21c0.53-0.43,0.95-0.79,1.27-1.1c0.47-0.46,0.81-0.86,1.01-1.2
				c0.2-0.34,0.3-0.68,0.3-1.01c0-0.4-0.13-0.71-0.39-0.92c-0.26-0.22-0.63-0.33-1.11-0.33c-0.36,0-0.74,0.07-1.14,0.22
				c-0.4,0.15-0.77,0.34-1.11,0.57h-0.19v-1.94c0.28-0.12,0.69-0.24,1.23-0.36s1.09-0.18,1.63-0.18c1.1,0,1.94,0.23,2.51,0.69
				c0.58,0.46,0.87,1.11,0.87,1.95c0,0.55-0.14,1.07-0.42,1.57c-0.28,0.5-0.7,1.01-1.27,1.54c-0.36,0.33-0.72,0.63-1.08,0.91
				s-0.62,0.47-0.77,0.58h3.94V84.83z"/>
			<path d="M200.97,84.83h-2.2v-2.3h2.2V84.83z"/>
			<path d="M210.04,80.46c0,0.73-0.07,1.39-0.2,1.97c-0.13,0.58-0.34,1.06-0.62,1.43c-0.29,0.38-0.66,0.67-1.12,0.86
				c-0.46,0.19-1.02,0.29-1.68,0.29c-0.66,0-1.21-0.1-1.68-0.29s-0.84-0.48-1.12-0.87c-0.29-0.38-0.5-0.86-0.63-1.43
				c-0.13-0.57-0.19-1.22-0.19-1.96c0-0.76,0.07-1.42,0.2-1.98c0.13-0.56,0.35-1.03,0.64-1.42c0.29-0.38,0.67-0.67,1.13-0.86
				c0.46-0.19,1.02-0.29,1.66-0.29c0.67,0,1.23,0.1,1.69,0.3c0.46,0.2,0.83,0.49,1.12,0.88c0.29,0.38,0.49,0.85,0.62,1.42
				C209.97,79.08,210.04,79.72,210.04,80.46z M207.76,80.46c0-1.06-0.1-1.81-0.31-2.25c-0.21-0.45-0.55-0.67-1.04-0.67
				s-0.83,0.22-1.04,0.67c-0.21,0.45-0.31,1.2-0.31,2.27c0,1.04,0.11,1.78,0.32,2.24s0.56,0.69,1.03,0.69s0.82-0.23,1.03-0.69
				C207.65,82.25,207.76,81.5,207.76,80.46z"/>
		</g>
	</g>
</g>
<g>
	<g>
		<g>
			<path d="M414.6,128.89c0.19,0.16,0.34,0.36,0.46,0.57c0.11,0.22,0.17,0.51,0.17,0.87c0,0.41-0.08,0.79-0.24,1.15
				s-0.41,0.66-0.75,0.91c-0.33,0.25-0.72,0.43-1.16,0.57s-0.99,0.2-1.62,0.2c-0.73,0-1.35-0.06-1.87-0.17s-0.94-0.24-1.27-0.38
				v-1.92h0.23c0.34,0.2,0.74,0.38,1.21,0.53s0.9,0.22,1.29,0.22c0.23,0,0.47-0.02,0.74-0.06c0.27-0.04,0.49-0.12,0.68-0.24
				c0.15-0.1,0.26-0.22,0.35-0.35c0.09-0.14,0.13-0.34,0.13-0.6c0-0.25-0.06-0.45-0.18-0.59c-0.12-0.14-0.27-0.24-0.46-0.3
				c-0.19-0.06-0.42-0.1-0.69-0.1c-0.27-0.01-0.52-0.01-0.75-0.01h-0.48v-1.56h0.5c0.31,0,0.58-0.01,0.81-0.03s0.44-0.06,0.6-0.13
				c0.17-0.07,0.3-0.17,0.39-0.3c0.09-0.12,0.13-0.3,0.13-0.54c0-0.18-0.04-0.32-0.14-0.42c-0.09-0.11-0.2-0.19-0.34-0.25
				c-0.15-0.07-0.33-0.12-0.54-0.14s-0.39-0.04-0.54-0.04c-0.37,0-0.77,0.06-1.2,0.19s-0.85,0.31-1.25,0.55h-0.22v-1.89
				c0.32-0.13,0.76-0.25,1.31-0.37c0.55-0.12,1.11-0.18,1.68-0.18c0.55,0,1.04,0.05,1.45,0.14c0.42,0.1,0.76,0.22,1.03,0.38
				c0.32,0.19,0.56,0.42,0.72,0.7c0.16,0.27,0.24,0.59,0.24,0.96c0,0.48-0.15,0.92-0.45,1.3c-0.3,0.38-0.7,0.62-1.19,0.73v0.08
				c0.2,0.03,0.41,0.08,0.64,0.16S414.42,128.73,414.6,128.89z"/>
			<path d="M423.77,132.98h-5.85v-1.52h1.85v-4.61h-1.85v-1.42c0.28,0,0.55-0.02,0.81-0.05s0.47-0.09,0.65-0.17
				c0.2-0.1,0.36-0.22,0.46-0.38c0.1-0.16,0.16-0.35,0.18-0.59h1.95v7.22h1.81V132.98z"/>
			<path d="M428.51,132.98h-2.2v-2.3h2.2V132.98z"/>
			<path d="M437.58,128.61c0,0.73-0.07,1.39-0.2,1.97c-0.13,0.58-0.34,1.06-0.62,1.43c-0.29,0.38-0.66,0.67-1.12,0.86
				c-0.46,0.19-1.02,0.29-1.68,0.29c-0.65,0-1.21-0.1-1.68-0.29s-0.84-0.48-1.12-0.87c-0.29-0.38-0.5-0.86-0.63-1.43
				c-0.13-0.57-0.19-1.22-0.19-1.96c0-0.76,0.07-1.42,0.2-1.98c0.13-0.56,0.34-1.03,0.63-1.42c0.29-0.38,0.67-0.67,1.13-0.86
				c0.46-0.19,1.02-0.29,1.66-0.29c0.67,0,1.23,0.1,1.69,0.3c0.46,0.2,0.83,0.49,1.12,0.88c0.29,0.38,0.5,0.85,0.62,1.42
				C437.51,127.23,437.58,127.88,437.58,128.61z M435.3,128.61c0-1.06-0.1-1.81-0.31-2.25c-0.21-0.45-0.55-0.67-1.04-0.67
				s-0.83,0.22-1.04,0.67c-0.21,0.45-0.31,1.2-0.31,2.27c0,1.04,0.11,1.78,0.32,2.24s0.55,0.69,1.03,0.69s0.82-0.23,1.03-0.69
				S435.3,129.65,435.3,128.61z"/>
		</g>
	</g>
</g>
<g>
	<g>
		<g>
			<path d="M31.91,189.14c0,1.57-0.25,2.72-0.74,3.45s-1.25,1.1-2.28,1.1c-1.05,0-1.81-0.37-2.29-1.11s-0.72-1.88-0.72-3.42
				c0-1.55,0.24-2.7,0.73-3.44s1.25-1.11,2.29-1.11c1.05,0,1.81,0.38,2.29,1.13S31.91,187.62,31.91,189.14z M30.37,191.8
				c0.14-0.32,0.23-0.69,0.28-1.12s0.07-0.94,0.07-1.54c0-0.59-0.02-1.11-0.07-1.55s-0.14-0.81-0.28-1.11
				c-0.14-0.3-0.32-0.53-0.56-0.68s-0.54-0.23-0.91-0.23c-0.37,0-0.67,0.08-0.91,0.23s-0.43,0.38-0.57,0.69
				c-0.13,0.29-0.22,0.67-0.27,1.13s-0.07,0.97-0.07,1.53c0,0.61,0.02,1.12,0.06,1.53s0.13,0.78,0.28,1.1
				c0.13,0.3,0.31,0.54,0.55,0.7s0.55,0.24,0.94,0.24c0.37,0,0.67-0.08,0.91-0.23S30.24,192.1,30.37,191.8z"/>
		</g>
	</g>
</g>
<g>
	<g>
		<g>
			<path d="M25.82,170.61H21.1v-0.89h1.82v-5.85H21.1v-0.8c0.25,0,0.51-0.02,0.79-0.06s0.49-0.1,0.64-0.18
				c0.18-0.1,0.32-0.22,0.42-0.37s0.16-0.35,0.18-0.61h0.91v7.86h1.78V170.61z"/>
			<path d="M33.25,166.24c0,1.57-0.25,2.72-0.74,3.45s-1.25,1.1-2.28,1.1c-1.05,0-1.81-0.37-2.29-1.11s-0.72-1.88-0.72-3.42
				c0-1.55,0.24-2.7,0.73-3.44s1.25-1.11,2.29-1.11c1.05,0,1.81,0.38,2.29,1.13S33.25,164.72,33.25,166.24z M31.71,168.9
				c0.14-0.32,0.23-0.69,0.28-1.12s0.07-0.94,0.07-1.54c0-0.59-0.02-1.11-0.07-1.55s-0.14-0.81-0.28-1.11
				c-0.14-0.3-0.32-0.53-0.56-0.68s-0.54-0.23-0.91-0.23c-0.37,0-0.67,0.08-0.91,0.23s-0.43,0.38-0.57,0.69
				c-0.13,0.29-0.22,0.67-0.27,1.13s-0.07,0.97-0.07,1.53c0,0.61,0.02,1.12,0.06,1.53s0.13,0.78,0.28,1.1
				c0.13,0.3,0.31,0.54,0.55,0.7s0.55,0.24,0.94,0.24c0.37,0,0.67-0.08,0.91-0.23S31.58,169.21,31.71,168.9z"/>
		</g>
	</g>
</g>
<g>
	<g>
		<g>
			<path d="M26.32,147.72h-5.91v-1.22c0.41-0.35,0.82-0.7,1.23-1.05s0.8-0.7,1.15-1.05c0.75-0.73,1.26-1.3,1.54-1.73
				s0.42-0.89,0.42-1.39c0-0.45-0.15-0.81-0.45-1.06s-0.72-0.38-1.25-0.38c-0.36,0-0.74,0.06-1.15,0.19s-0.82,0.32-1.21,0.57h-0.06
				v-1.23c0.28-0.14,0.65-0.26,1.11-0.38s0.91-0.17,1.34-0.17c0.89,0,1.6,0.22,2.1,0.65s0.76,1.02,0.76,1.75
				c0,0.33-0.04,0.64-0.13,0.93s-0.21,0.56-0.37,0.82c-0.15,0.24-0.33,0.48-0.54,0.71s-0.45,0.49-0.75,0.78
				c-0.42,0.41-0.85,0.81-1.29,1.19s-0.86,0.74-1.25,1.07h4.69V147.72z"/>
			<path d="M33.58,143.35c0,1.57-0.25,2.72-0.74,3.45s-1.25,1.1-2.28,1.1c-1.05,0-1.81-0.37-2.29-1.11s-0.72-1.88-0.72-3.42
				c0-1.55,0.24-2.7,0.73-3.44s1.25-1.11,2.29-1.11c1.05,0,1.81,0.38,2.29,1.13S33.58,141.83,33.58,143.35z M32.04,146.01
				c0.14-0.32,0.23-0.69,0.28-1.12s0.07-0.94,0.07-1.54c0-0.59-0.02-1.11-0.07-1.55s-0.14-0.81-0.28-1.11
				c-0.14-0.3-0.32-0.53-0.56-0.68s-0.54-0.23-0.91-0.23c-0.37,0-0.67,0.08-0.91,0.23s-0.43,0.38-0.57,0.69
				c-0.13,0.29-0.22,0.67-0.27,1.13s-0.07,0.97-0.07,1.53c0,0.61,0.02,1.12,0.06,1.53s0.13,0.78,0.28,1.1
				c0.13,0.3,0.31,0.54,0.55,0.7s0.55,0.24,0.94,0.24c0.37,0,0.67-0.08,0.91-0.23S31.9,146.32,32.04,146.01z"/>
		</g>
	</g>
</g>
<g>
	<g>
		<g>
			<path d="M25.55,120.62c0.19,0.17,0.34,0.38,0.46,0.63s0.18,0.58,0.18,0.98c0,0.4-0.07,0.76-0.22,1.1s-0.35,0.62-0.61,0.87
				c-0.29,0.27-0.64,0.48-1.03,0.61s-0.83,0.2-1.3,0.2c-0.48,0-0.96-0.06-1.43-0.17s-0.85-0.24-1.15-0.38v-1.22h0.09
				c0.33,0.22,0.72,0.4,1.17,0.54s0.88,0.22,1.3,0.22c0.25,0,0.51-0.04,0.79-0.12s0.5-0.2,0.67-0.36c0.18-0.17,0.31-0.36,0.4-0.57
				s0.13-0.47,0.13-0.79c0-0.31-0.05-0.57-0.15-0.78s-0.24-0.37-0.41-0.48c-0.18-0.12-0.39-0.2-0.64-0.25s-0.52-0.07-0.81-0.07
				h-0.53v-0.97h0.41c0.59,0,1.07-0.12,1.42-0.37s0.53-0.61,0.53-1.09c0-0.21-0.04-0.4-0.13-0.55s-0.21-0.29-0.38-0.39
				c-0.17-0.1-0.35-0.17-0.54-0.21s-0.41-0.06-0.65-0.06c-0.37,0-0.77,0.07-1.18,0.2s-0.81,0.32-1.18,0.56H20.7v-1.22
				c0.28-0.14,0.65-0.26,1.11-0.38s0.91-0.17,1.34-0.17c0.43,0,0.8,0.04,1.13,0.12s0.62,0.2,0.88,0.38
				c0.28,0.19,0.49,0.41,0.64,0.68s0.22,0.58,0.22,0.93c0,0.48-0.17,0.91-0.51,1.27s-0.75,0.59-1.21,0.68v0.08
				c0.19,0.03,0.4,0.1,0.64,0.2S25.38,120.47,25.55,120.62z"/>
			<path d="M33.79,120.46c0,1.57-0.25,2.72-0.74,3.45s-1.25,1.1-2.28,1.1c-1.05,0-1.81-0.37-2.29-1.11s-0.72-1.88-0.72-3.42
				c0-1.55,0.24-2.7,0.73-3.44s1.25-1.11,2.29-1.11c1.05,0,1.81,0.38,2.29,1.13S33.79,118.94,33.79,120.46z M32.25,123.12
				c0.14-0.32,0.23-0.69,0.28-1.12s0.07-0.94,0.07-1.54c0-0.59-0.02-1.11-0.07-1.55s-0.14-0.81-0.28-1.11
				c-0.14-0.3-0.32-0.53-0.56-0.68s-0.54-0.23-0.91-0.23c-0.37,0-0.67,0.08-0.91,0.23s-0.43,0.38-0.57,0.69
				c-0.13,0.29-0.22,0.67-0.27,1.13s-0.07,0.97-0.07,1.53c0,0.61,0.02,1.12,0.06,1.53s0.13,0.78,0.28,1.1
				c0.13,0.3,0.31,0.54,0.55,0.7s0.55,0.24,0.94,0.24c0.37,0,0.67-0.08,0.91-0.23S32.11,123.43,32.25,123.12z"/>
		</g>
	</g>
</g>
<g>
	<g>
		<g>
			<path d="M26.52,99.48h-1.29v2.46H24.1v-2.46h-4.18v-1.35l4.22-4.92h1.08v5.33h1.29V99.48z M24.1,98.54V94.6l-3.38,3.94H24.1z"/>
			<path d="M33.91,97.57c0,1.57-0.25,2.72-0.74,3.45s-1.25,1.1-2.28,1.1c-1.05,0-1.81-0.37-2.29-1.11s-0.72-1.88-0.72-3.42
				c0-1.55,0.24-2.7,0.73-3.44s1.25-1.11,2.29-1.11c1.05,0,1.81,0.38,2.29,1.13S33.91,96.05,33.91,97.57z M32.37,100.23
				c0.14-0.32,0.23-0.69,0.28-1.12s0.07-0.94,0.07-1.54c0-0.59-0.02-1.11-0.07-1.55s-0.14-0.81-0.28-1.11
				c-0.14-0.3-0.32-0.53-0.56-0.68S31.26,94,30.89,94c-0.37,0-0.67,0.08-0.91,0.23s-0.43,0.38-0.57,0.69
				c-0.13,0.29-0.22,0.67-0.27,1.13s-0.07,0.97-0.07,1.53c0,0.61,0.02,1.12,0.06,1.53s0.13,0.78,0.28,1.1
				c0.13,0.3,0.31,0.54,0.55,0.7s0.55,0.24,0.94,0.24c0.37,0,0.67-0.08,0.91-0.23S32.23,100.54,32.37,100.23z"/>
		</g>
	</g>
</g>
<g>
	<g>
		<g>
			<path d="M26.25,76.27c0,0.41-0.07,0.79-0.22,1.17s-0.35,0.68-0.61,0.94c-0.28,0.27-0.62,0.48-1,0.63s-0.84,0.22-1.35,0.22
				c-0.48,0-0.94-0.05-1.38-0.15s-0.81-0.22-1.12-0.36v-1.24h0.08c0.32,0.2,0.7,0.38,1.13,0.52s0.85,0.21,1.27,0.21
				c0.28,0,0.55-0.04,0.81-0.12s0.49-0.21,0.69-0.41c0.17-0.17,0.3-0.37,0.39-0.6s0.13-0.51,0.13-0.81c0-0.3-0.05-0.55-0.16-0.76
				s-0.25-0.37-0.43-0.5c-0.2-0.15-0.45-0.25-0.74-0.31s-0.62-0.09-0.98-0.09c-0.34,0-0.67,0.02-0.99,0.07s-0.59,0.09-0.82,0.14
				v-4.49h5.25v1.03h-4.12v2.32c0.17-0.02,0.34-0.03,0.52-0.04s0.33-0.01,0.46-0.01c0.47,0,0.89,0.04,1.24,0.12s0.68,0.22,0.98,0.42
				c0.31,0.21,0.55,0.49,0.73,0.83S26.25,75.76,26.25,76.27z"/>
			<path d="M33.76,74.67c0,1.57-0.25,2.72-0.74,3.45s-1.25,1.1-2.28,1.1c-1.05,0-1.81-0.37-2.29-1.11s-0.72-1.88-0.72-3.42
				c0-1.55,0.24-2.7,0.73-3.44s1.25-1.11,2.29-1.11c1.05,0,1.81,0.38,2.29,1.13S33.76,73.15,33.76,74.67z M32.22,77.33
				c0.14-0.32,0.23-0.69,0.28-1.12s0.07-0.94,0.07-1.54c0-0.59-0.02-1.11-0.07-1.55s-0.14-0.81-0.28-1.11
				c-0.14-0.3-0.32-0.53-0.56-0.68s-0.54-0.23-0.91-0.23c-0.37,0-0.67,0.08-0.91,0.23s-0.43,0.38-0.57,0.69
				c-0.13,0.29-0.22,0.67-0.27,1.13s-0.07,0.97-0.07,1.53c0,0.61,0.02,1.12,0.06,1.53s0.13,0.78,0.28,1.1
				c0.13,0.3,0.31,0.54,0.55,0.7s0.55,0.24,0.94,0.24c0.37,0,0.67-0.08,0.91-0.23S32.08,77.64,32.22,77.33z"/>
		</g>
	</g>
</g>
<g>
	<g>
		<g>
			<path d="M26.45,53.32c0,0.89-0.29,1.61-0.88,2.17s-1.3,0.84-2.15,0.84c-0.43,0-0.82-0.07-1.17-0.2s-0.66-0.33-0.93-0.59
				c-0.34-0.32-0.59-0.75-0.78-1.29s-0.27-1.18-0.27-1.93c0-0.77,0.08-1.46,0.25-2.06s0.43-1.13,0.79-1.59
				c0.34-0.44,0.79-0.79,1.33-1.03s1.18-0.37,1.9-0.37c0.23,0,0.42,0.01,0.58,0.03s0.31,0.05,0.47,0.11v1.12h-0.06
				c-0.11-0.06-0.27-0.11-0.5-0.17s-0.45-0.08-0.68-0.08c-0.84,0-1.51,0.26-2.01,0.79s-0.79,1.24-0.87,2.13
				c0.33-0.2,0.65-0.35,0.97-0.45s0.69-0.16,1.1-0.16c0.37,0,0.7,0.03,0.98,0.1s0.57,0.21,0.87,0.41c0.34,0.24,0.6,0.54,0.78,0.9
				S26.45,52.8,26.45,53.32z M25.26,53.36c0-0.36-0.05-0.66-0.16-0.9s-0.28-0.45-0.53-0.62c-0.18-0.13-0.38-0.21-0.6-0.25
				s-0.45-0.06-0.69-0.06c-0.33,0-0.64,0.04-0.93,0.12s-0.58,0.2-0.88,0.36c-0.01,0.09-0.01,0.17-0.02,0.25s-0.01,0.18-0.01,0.3
				c0,0.62,0.06,1.1,0.19,1.46s0.3,0.64,0.52,0.85c0.18,0.17,0.37,0.3,0.58,0.38s0.44,0.12,0.68,0.12c0.57,0,1.01-0.17,1.34-0.52
				S25.26,54.01,25.26,53.36z"/>
			<path d="M33.86,51.78c0,1.57-0.25,2.72-0.74,3.45s-1.25,1.1-2.28,1.1c-1.05,0-1.81-0.37-2.29-1.11s-0.72-1.88-0.72-3.42
				c0-1.55,0.24-2.7,0.73-3.44s1.25-1.11,2.29-1.11c1.05,0,1.81,0.38,2.29,1.13S33.86,50.26,33.86,51.78z M32.32,54.44
				c0.14-0.32,0.23-0.69,0.28-1.12s0.07-0.94,0.07-1.54c0-0.59-0.02-1.11-0.07-1.55s-0.14-0.81-0.28-1.11
				c-0.14-0.3-0.32-0.53-0.56-0.68s-0.54-0.23-0.91-0.23c-0.37,0-0.67,0.08-0.91,0.23s-0.43,0.38-0.57,0.69
				c-0.13,0.29-0.22,0.67-0.27,1.13s-0.07,0.97-0.07,1.53c0,0.61,0.02,1.12,0.06,1.53s0.13,0.78,0.28,1.1
				c0.13,0.3,0.31,0.54,0.55,0.7s0.55,0.24,0.94,0.24c0.37,0,0.67-0.08,0.91-0.23S32.19,54.75,32.32,54.44z"/>
		</g>
	</g>
</g>
<g>
	<g>
		<g>
			<path d="M26.34,25.84l-3.95,7.42h-1.25l4.2-7.7h-4.97v-1.03h5.97V25.84z"/>
			<path d="M33.61,28.89c0,1.57-0.25,2.72-0.74,3.45s-1.25,1.1-2.28,1.1c-1.05,0-1.81-0.37-2.29-1.11s-0.72-1.88-0.72-3.42
				c0-1.55,0.24-2.7,0.73-3.44s1.25-1.11,2.29-1.11c1.05,0,1.81,0.38,2.29,1.13S33.61,27.37,33.61,28.89z M32.07,31.55
				c0.14-0.32,0.23-0.69,0.28-1.12s0.07-0.94,0.07-1.54c0-0.59-0.02-1.11-0.07-1.55s-0.14-0.81-0.28-1.11
				c-0.14-0.3-0.32-0.53-0.56-0.68s-0.54-0.23-0.91-0.23c-0.37,0-0.67,0.08-0.91,0.23s-0.43,0.38-0.57,0.69
				c-0.13,0.29-0.22,0.67-0.27,1.13s-0.07,0.97-0.07,1.53c0,0.61,0.02,1.12,0.06,1.53s0.13,0.78,0.28,1.1
				c0.13,0.3,0.31,0.54,0.55,0.7s0.55,0.24,0.94,0.24c0.37,0,0.67-0.08,0.91-0.23S31.94,31.86,32.07,31.55z"/>
		</g>
	</g>
</g>
<g>
	<g>
		<g>
			<path d="M26.38,7.93c0,0.75-0.29,1.38-0.88,1.88s-1.33,0.75-2.22,0.75c-0.95,0-1.7-0.24-2.26-0.73s-0.84-1.11-0.84-1.88
				c0-0.48,0.14-0.92,0.42-1.32s0.68-0.7,1.19-0.93V5.67c-0.47-0.25-0.82-0.52-1.04-0.82s-0.34-0.67-0.34-1.11
				c0-0.66,0.27-1.2,0.81-1.64s1.22-0.66,2.06-0.66c0.87,0,1.57,0.21,2.09,0.63s0.78,0.95,0.78,1.59c0,0.39-0.12,0.78-0.37,1.16
				s-0.61,0.68-1.08,0.89v0.04c0.55,0.23,0.96,0.52,1.25,0.87S26.38,7.4,26.38,7.93z M25.17,8.04c0-0.36-0.08-0.65-0.24-0.86
				s-0.47-0.43-0.93-0.65c-0.18-0.09-0.38-0.17-0.6-0.24s-0.51-0.18-0.87-0.31c-0.35,0.19-0.63,0.45-0.85,0.78s-0.32,0.7-0.32,1.11
				c0,0.53,0.18,0.96,0.54,1.31s0.82,0.52,1.38,0.52c0.57,0,1.03-0.15,1.37-0.44S25.17,8.55,25.17,8.04z M24.99,3.67
				c0-0.42-0.16-0.75-0.48-1S23.78,2.3,23.28,2.3c-0.49,0-0.9,0.12-1.21,0.35S21.59,3.2,21.59,3.6c0,0.28,0.08,0.52,0.24,0.73
				s0.4,0.39,0.72,0.55c0.14,0.07,0.35,0.16,0.62,0.28s0.54,0.21,0.79,0.28c0.39-0.26,0.65-0.53,0.8-0.8S24.99,4.03,24.99,3.67z"/>
			<path d="M33.88,6c0,1.57-0.25,2.72-0.74,3.45s-1.25,1.1-2.28,1.1c-1.05,0-1.81-0.37-2.29-1.11s-0.72-1.88-0.72-3.42
				c0-1.55,0.24-2.7,0.73-3.44s1.25-1.11,2.29-1.11c1.05,0,1.81,0.38,2.29,1.13S33.88,4.48,33.88,6z M32.34,8.66
				c0.14-0.32,0.23-0.69,0.28-1.12S32.69,6.6,32.69,6c0-0.59-0.02-1.11-0.07-1.55s-0.14-0.81-0.28-1.11
				c-0.14-0.3-0.32-0.53-0.56-0.68s-0.54-0.23-0.91-0.23c-0.37,0-0.67,0.08-0.91,0.23s-0.43,0.38-0.57,0.69
				c-0.13,0.29-0.22,0.67-0.27,1.13s-0.07,0.97-0.07,1.53c0,0.61,0.02,1.12,0.06,1.53s0.13,0.78,0.28,1.1
				c0.13,0.3,0.31,0.54,0.55,0.7s0.55,0.24,0.94,0.24c0.37,0,0.67-0.08,0.91-0.23S32.21,8.97,32.34,8.66z"/>
		</g>
	</g>
</g>
<g>
	<g>
		<g>
			<path d="M115.55,207.64h-2.75l-2.37-3.2h-1.04v3.2h-2.24v-8.72h3.77c0.52,0,0.96,0.03,1.33,0.09s0.72,0.19,1.04,0.38
				c0.33,0.2,0.59,0.45,0.78,0.76s0.29,0.7,0.29,1.17c0,0.64-0.15,1.17-0.45,1.58s-0.73,0.74-1.28,1.01L115.55,207.64z
				 M112.04,201.59c0-0.22-0.04-0.41-0.13-0.56s-0.24-0.28-0.46-0.37c-0.15-0.06-0.33-0.1-0.53-0.11s-0.44-0.02-0.71-0.02h-0.81
				v2.35h0.69c0.36,0,0.66-0.02,0.9-0.05s0.45-0.12,0.61-0.24c0.16-0.12,0.27-0.25,0.34-0.4S112.04,201.84,112.04,201.59z"/>
			<path d="M122.68,204.74h-4.83c0.03,0.52,0.23,0.91,0.59,1.18s0.89,0.41,1.6,0.41c0.45,0,0.88-0.08,1.29-0.24s0.75-0.33,0.99-0.52
				h0.23v1.69c-0.48,0.19-0.93,0.33-1.35,0.42s-0.89,0.13-1.4,0.13c-1.32,0-2.33-0.3-3.04-0.89s-1.05-1.44-1.05-2.54
				c0-1.09,0.33-1.95,1-2.58s1.58-0.95,2.74-0.95c1.07,0,1.88,0.27,2.41,0.81s0.81,1.32,0.81,2.33V204.74z M120.58,203.51
				c-0.01-0.44-0.12-0.77-0.33-1s-0.53-0.33-0.97-0.33c-0.41,0-0.74,0.11-1,0.32s-0.41,0.55-0.44,1.01H120.58z"/>
			<path d="M130.03,205.56c0,0.68-0.3,1.23-0.91,1.64s-1.44,0.62-2.5,0.62c-0.59,0-1.12-0.05-1.59-0.16s-0.86-0.23-1.15-0.36v-1.73
				h0.19c0.11,0.07,0.23,0.16,0.37,0.24s0.33,0.18,0.59,0.28c0.22,0.09,0.47,0.17,0.74,0.23s0.57,0.1,0.89,0.1
				c0.41,0,0.72-0.05,0.92-0.14s0.3-0.23,0.3-0.41c0-0.16-0.06-0.28-0.18-0.35s-0.34-0.14-0.67-0.21c-0.16-0.04-0.37-0.07-0.64-0.11
				s-0.51-0.09-0.73-0.15c-0.6-0.16-1.04-0.4-1.33-0.73s-0.43-0.74-0.43-1.23c0-0.63,0.3-1.16,0.9-1.58s1.42-0.63,2.46-0.63
				c0.49,0,0.96,0.05,1.42,0.15s0.8,0.21,1.06,0.32v1.66h-0.18c-0.31-0.21-0.67-0.39-1.07-0.52s-0.81-0.2-1.22-0.2
				c-0.34,0-0.63,0.05-0.86,0.14s-0.35,0.23-0.35,0.4c0,0.16,0.05,0.28,0.16,0.36s0.35,0.16,0.74,0.25
				c0.21,0.04,0.45,0.08,0.69,0.13s0.5,0.09,0.75,0.16c0.55,0.14,0.96,0.37,1.23,0.68S130.03,205.09,130.03,205.56z"/>
			<path d="M138.32,204.26c0,0.54-0.08,1.04-0.25,1.48c-0.17,0.45-0.38,0.81-0.65,1.1c-0.28,0.3-0.6,0.54-0.95,0.69
				s-0.74,0.23-1.14,0.23c-0.38,0-0.69-0.04-0.95-0.12c-0.26-0.08-0.53-0.19-0.8-0.34v2.74h-2.12v-8.99h2.12v0.69
				c0.32-0.26,0.65-0.47,0.99-0.63s0.73-0.24,1.17-0.24c0.82,0,1.46,0.3,1.91,0.9C138.09,202.38,138.32,203.21,138.32,204.26z
				 M136.14,204.31c0-0.64-0.11-1.1-0.33-1.39c-0.22-0.29-0.56-0.43-1.04-0.43c-0.2,0-0.4,0.03-0.61,0.09s-0.41,0.15-0.6,0.26v3.31
				c0.14,0.05,0.29,0.09,0.45,0.11s0.32,0.02,0.47,0.02c0.56,0,0.97-0.16,1.25-0.49S136.14,204.96,136.14,204.31z"/>
			<path d="M146.59,204.36c0,1.08-0.32,1.93-0.95,2.56s-1.52,0.93-2.66,0.93s-2.03-0.31-2.66-0.93s-0.95-1.48-0.95-2.56
				c0-1.09,0.32-1.95,0.95-2.57s1.52-0.93,2.65-0.93c1.15,0,2.04,0.31,2.66,0.94S146.59,203.27,146.59,204.36z M143.99,205.96
				c0.14-0.17,0.24-0.37,0.31-0.61s0.1-0.56,0.1-0.98c0-0.39-0.04-0.71-0.11-0.97s-0.17-0.47-0.29-0.63
				c-0.13-0.16-0.28-0.27-0.45-0.34s-0.37-0.1-0.57-0.1s-0.38,0.03-0.54,0.08s-0.31,0.16-0.45,0.33c-0.13,0.15-0.23,0.36-0.31,0.63
				s-0.11,0.6-0.11,1c0,0.36,0.03,0.67,0.1,0.93s0.16,0.48,0.29,0.64c0.13,0.15,0.27,0.26,0.45,0.33s0.37,0.11,0.59,0.11
				c0.19,0,0.37-0.03,0.55-0.1S143.87,206.11,143.99,205.96z"/>
			<path d="M154.66,207.64h-2.12v-3.26c0-0.27-0.01-0.53-0.04-0.79s-0.07-0.46-0.14-0.58c-0.08-0.14-0.19-0.25-0.34-0.32
				s-0.36-0.1-0.63-0.1c-0.19,0-0.39,0.03-0.58,0.09s-0.41,0.16-0.64,0.3v4.66h-2.12v-6.58h2.12v0.73c0.37-0.29,0.73-0.52,1.08-0.67
				s0.73-0.23,1.15-0.23c0.71,0,1.26,0.21,1.67,0.62c0.4,0.41,0.6,1.03,0.6,1.86V207.64z"/>
			<path d="M162.34,205.56c0,0.68-0.3,1.23-0.91,1.64s-1.44,0.62-2.5,0.62c-0.59,0-1.12-0.05-1.59-0.16s-0.86-0.23-1.15-0.36v-1.73
				h0.19c0.11,0.07,0.23,0.16,0.37,0.24s0.33,0.18,0.59,0.28c0.22,0.09,0.47,0.17,0.74,0.23s0.57,0.1,0.89,0.1
				c0.41,0,0.72-0.05,0.92-0.14s0.3-0.23,0.3-0.41c0-0.16-0.06-0.28-0.18-0.35s-0.34-0.14-0.67-0.21c-0.16-0.04-0.37-0.07-0.64-0.11
				s-0.51-0.09-0.73-0.15c-0.6-0.16-1.04-0.4-1.33-0.73s-0.43-0.74-0.43-1.23c0-0.63,0.3-1.16,0.9-1.58s1.42-0.63,2.46-0.63
				c0.49,0,0.96,0.05,1.42,0.15s0.8,0.21,1.06,0.32v1.66h-0.18c-0.31-0.21-0.67-0.39-1.07-0.52s-0.81-0.2-1.22-0.2
				c-0.34,0-0.63,0.05-0.86,0.14s-0.35,0.23-0.35,0.4c0,0.16,0.05,0.28,0.16,0.36s0.35,0.16,0.74,0.25
				c0.21,0.04,0.45,0.08,0.69,0.13s0.5,0.09,0.75,0.16c0.55,0.14,0.96,0.37,1.23,0.68S162.34,205.09,162.34,205.56z"/>
			<path d="M170.24,204.74h-4.83c0.03,0.52,0.23,0.91,0.59,1.18s0.89,0.41,1.6,0.41c0.45,0,0.88-0.08,1.29-0.24s0.75-0.33,0.99-0.52
				h0.23v1.69c-0.48,0.19-0.93,0.33-1.35,0.42s-0.89,0.13-1.4,0.13c-1.32,0-2.33-0.3-3.04-0.89s-1.05-1.44-1.05-2.54
				c0-1.09,0.33-1.95,1-2.58s1.58-0.95,2.74-0.95c1.07,0,1.88,0.27,2.41,0.81s0.81,1.32,0.81,2.33V204.74z M168.15,203.51
				c-0.01-0.44-0.12-0.77-0.33-1s-0.53-0.33-0.97-0.33c-0.41,0-0.74,0.11-1,0.32s-0.41,0.55-0.44,1.01H168.15z"/>
			<path d="M184.35,207.64h-2.75l-2.37-3.2h-1.04v3.2h-2.24v-8.72h3.77c0.52,0,0.96,0.03,1.33,0.09s0.72,0.19,1.04,0.38
				c0.33,0.2,0.59,0.45,0.78,0.76s0.29,0.7,0.29,1.17c0,0.64-0.15,1.17-0.45,1.58s-0.73,0.74-1.28,1.01L184.35,207.64z
				 M180.84,201.59c0-0.22-0.04-0.41-0.13-0.56s-0.24-0.28-0.46-0.37c-0.15-0.06-0.33-0.1-0.53-0.11s-0.44-0.02-0.71-0.02h-0.81
				v2.35h0.69c0.36,0,0.66-0.02,0.9-0.05s0.45-0.12,0.61-0.24c0.16-0.12,0.27-0.25,0.34-0.4S180.84,201.84,180.84,201.59z"/>
			<path d="M189.21,206.95c-0.11,0.09-0.25,0.19-0.42,0.31s-0.33,0.22-0.47,0.29c-0.21,0.09-0.42,0.16-0.64,0.21
				s-0.47,0.07-0.73,0.07c-0.63,0-1.15-0.19-1.57-0.58s-0.63-0.88-0.63-1.48c0-0.48,0.11-0.87,0.32-1.18s0.52-0.54,0.91-0.72
				c0.39-0.18,0.88-0.3,1.45-0.38s1.18-0.13,1.8-0.16v-0.04c0-0.36-0.15-0.61-0.45-0.75s-0.73-0.21-1.31-0.21
				c-0.35,0-0.72,0.06-1.11,0.18s-0.68,0.22-0.85,0.28h-0.19v-1.59c0.22-0.06,0.58-0.13,1.09-0.21s1-0.12,1.51-0.12
				c1.2,0,2.07,0.18,2.6,0.55s0.8,0.95,0.8,1.74v4.48h-2.09V206.95z M189.21,205.92v-1.37c-0.29,0.02-0.59,0.06-0.93,0.1
				c-0.33,0.04-0.58,0.09-0.76,0.14c-0.21,0.07-0.37,0.16-0.48,0.29s-0.17,0.29-0.17,0.5c0,0.14,0.01,0.25,0.04,0.33
				c0.02,0.09,0.08,0.17,0.18,0.25c0.09,0.08,0.2,0.14,0.32,0.17c0.13,0.04,0.32,0.06,0.59,0.06c0.21,0,0.42-0.04,0.64-0.13
				C188.86,206.17,189.05,206.06,189.21,205.92z"/>
			<path d="M197.37,207.58c-0.23,0.06-0.47,0.1-0.72,0.14s-0.56,0.05-0.93,0.05c-0.82,0-1.43-0.17-1.83-0.5s-0.6-0.9-0.6-1.71v-3.08
				h-0.87v-1.43h0.87v-1.88h2.12v1.88h1.97v1.43h-1.97v2.34c0,0.23,0,0.43,0.01,0.6c0,0.17,0.04,0.33,0.09,0.46
				c0.05,0.14,0.15,0.25,0.29,0.33c0.14,0.08,0.34,0.12,0.6,0.12c0.11,0,0.25-0.02,0.43-0.07s0.3-0.09,0.37-0.13h0.18V207.58z"/>
			<path d="M205.14,204.74h-4.83c0.03,0.52,0.23,0.91,0.59,1.18s0.89,0.41,1.6,0.41c0.45,0,0.88-0.08,1.29-0.24s0.75-0.33,0.99-0.52
				h0.23v1.69c-0.48,0.19-0.93,0.33-1.35,0.42s-0.89,0.13-1.4,0.13c-1.32,0-2.33-0.3-3.04-0.89s-1.05-1.44-1.05-2.54
				c0-1.09,0.33-1.95,1-2.58s1.58-0.95,2.74-0.95c1.07,0,1.88,0.27,2.41,0.81s0.81,1.32,0.81,2.33V204.74z M203.05,203.51
				c-0.01-0.44-0.12-0.77-0.33-1s-0.53-0.33-0.97-0.33c-0.41,0-0.74,0.11-1,0.32s-0.41,0.55-0.44,1.01H203.05z"/>
		</g>
	</g>
</g>
<g>
	<g>
		<g>
			<path d="M341.24,207.64h-2.75l-2.37-3.2h-1.04v3.2h-2.24v-8.72h3.77c0.52,0,0.96,0.03,1.33,0.09s0.72,0.19,1.04,0.38
				c0.33,0.2,0.59,0.45,0.78,0.76s0.29,0.7,0.29,1.17c0,0.64-0.15,1.17-0.45,1.58s-0.73,0.74-1.28,1.01L341.24,207.64z
				 M337.73,201.59c0-0.22-0.04-0.41-0.13-0.56s-0.24-0.28-0.46-0.37c-0.15-0.06-0.33-0.1-0.53-0.11s-0.44-0.02-0.71-0.02h-0.81
				v2.35h0.69c0.36,0,0.66-0.02,0.9-0.05s0.45-0.12,0.61-0.24c0.16-0.12,0.27-0.25,0.34-0.4S337.73,201.84,337.73,201.59z"/>
			<path d="M348.36,204.74h-4.83c0.03,0.52,0.23,0.91,0.59,1.18s0.89,0.41,1.6,0.41c0.45,0,0.88-0.08,1.29-0.24s0.75-0.33,0.99-0.52
				h0.23v1.69c-0.48,0.19-0.93,0.33-1.35,0.42s-0.89,0.13-1.4,0.13c-1.32,0-2.33-0.3-3.04-0.89s-1.05-1.44-1.05-2.54
				c0-1.09,0.33-1.95,1-2.58s1.58-0.95,2.74-0.95c1.07,0,1.88,0.27,2.41,0.81s0.81,1.32,0.81,2.33V204.74z M346.27,203.51
				c-0.01-0.44-0.12-0.77-0.33-1s-0.53-0.33-0.97-0.33c-0.41,0-0.74,0.11-1,0.32s-0.41,0.55-0.44,1.01H346.27z"/>
			<path d="M356.31,202.98v4.66h-2.12v-3.29c0-0.32-0.01-0.59-0.02-0.82s-0.06-0.41-0.13-0.55s-0.18-0.24-0.32-0.31
				s-0.34-0.1-0.6-0.1c-0.21,0-0.41,0.04-0.6,0.13s-0.37,0.17-0.53,0.27v4.66h-2.12v-6.58H352v0.73c0.36-0.29,0.71-0.51,1.04-0.67
				c0.33-0.16,0.7-0.24,1.1-0.24c0.43,0,0.82,0.1,1.15,0.29c0.33,0.19,0.59,0.48,0.78,0.85c0.42-0.36,0.83-0.63,1.23-0.84
				c0.4-0.2,0.79-0.3,1.17-0.3c0.71,0,1.25,0.21,1.62,0.64c0.37,0.43,0.55,1.04,0.55,1.84v4.28h-2.12v-3.29
				c0-0.32-0.01-0.6-0.02-0.82s-0.06-0.4-0.13-0.54c-0.07-0.14-0.17-0.24-0.32-0.31s-0.35-0.1-0.61-0.1c-0.18,0-0.35,0.03-0.52,0.09
				S356.56,202.84,356.31,202.98z"/>
			<path d="M364.62,200.13h-2.23v-1.6h2.23V200.13z M364.56,207.64h-2.12v-6.58h2.12V207.64z"/>
			<path d="M372.27,205.56c0,0.68-0.3,1.23-0.91,1.64s-1.44,0.62-2.5,0.62c-0.59,0-1.12-0.05-1.59-0.16s-0.86-0.23-1.15-0.36v-1.73
				h0.19c0.11,0.07,0.23,0.16,0.37,0.24s0.33,0.18,0.59,0.28c0.22,0.09,0.47,0.17,0.74,0.23s0.57,0.1,0.89,0.1
				c0.41,0,0.72-0.05,0.92-0.14s0.3-0.23,0.3-0.41c0-0.16-0.06-0.28-0.18-0.35s-0.34-0.14-0.67-0.21c-0.16-0.04-0.37-0.07-0.64-0.11
				s-0.51-0.09-0.73-0.15c-0.6-0.16-1.04-0.4-1.33-0.73s-0.43-0.74-0.43-1.23c0-0.63,0.3-1.16,0.9-1.58s1.42-0.63,2.46-0.63
				c0.49,0,0.96,0.05,1.42,0.15s0.8,0.21,1.06,0.32v1.66h-0.18c-0.31-0.21-0.67-0.39-1.07-0.52s-0.81-0.2-1.22-0.2
				c-0.34,0-0.63,0.05-0.86,0.14s-0.35,0.23-0.35,0.4c0,0.16,0.05,0.28,0.16,0.36s0.35,0.16,0.74,0.25
				c0.21,0.04,0.45,0.08,0.69,0.13s0.5,0.09,0.75,0.16c0.55,0.14,0.96,0.37,1.23,0.68S372.27,205.09,372.27,205.56z"/>
			<path d="M379.5,205.56c0,0.68-0.3,1.23-0.91,1.64s-1.44,0.62-2.5,0.62c-0.59,0-1.12-0.05-1.59-0.16s-0.86-0.23-1.15-0.36v-1.73
				h0.19c0.11,0.07,0.23,0.16,0.37,0.24s0.33,0.18,0.59,0.28c0.22,0.09,0.47,0.17,0.74,0.23s0.57,0.1,0.89,0.1
				c0.41,0,0.72-0.05,0.92-0.14s0.3-0.23,0.3-0.41c0-0.16-0.06-0.28-0.18-0.35s-0.34-0.14-0.67-0.21c-0.16-0.04-0.37-0.07-0.64-0.11
				s-0.51-0.09-0.73-0.15c-0.6-0.16-1.04-0.4-1.33-0.73s-0.43-0.74-0.43-1.23c0-0.63,0.3-1.16,0.9-1.58s1.42-0.63,2.46-0.63
				c0.49,0,0.96,0.05,1.42,0.15s0.8,0.21,1.06,0.32v1.66h-0.18c-0.31-0.21-0.67-0.39-1.07-0.52s-0.81-0.2-1.22-0.2
				c-0.34,0-0.63,0.05-0.86,0.14s-0.35,0.23-0.35,0.4c0,0.16,0.05,0.28,0.16,0.36s0.35,0.16,0.74,0.25
				c0.21,0.04,0.45,0.08,0.69,0.13s0.5,0.09,0.75,0.16c0.55,0.14,0.96,0.37,1.23,0.68S379.5,205.09,379.5,205.56z"/>
			<path d="M383.09,200.13h-2.23v-1.6h2.23V200.13z M383.03,207.64h-2.12v-6.58h2.12V207.64z"/>
			<path d="M391.67,204.36c0,1.08-0.32,1.93-0.95,2.56s-1.52,0.93-2.66,0.93s-2.03-0.31-2.66-0.93s-0.95-1.48-0.95-2.56
				c0-1.09,0.32-1.95,0.95-2.57s1.52-0.93,2.65-0.93c1.15,0,2.04,0.31,2.66,0.94S391.67,203.27,391.67,204.36z M389.07,205.96
				c0.14-0.17,0.24-0.37,0.31-0.61s0.1-0.56,0.1-0.98c0-0.39-0.04-0.71-0.11-0.97s-0.17-0.47-0.29-0.63
				c-0.13-0.16-0.28-0.27-0.45-0.34s-0.37-0.1-0.57-0.1s-0.38,0.03-0.54,0.08s-0.31,0.16-0.45,0.33c-0.13,0.15-0.23,0.36-0.31,0.63
				s-0.11,0.6-0.11,1c0,0.36,0.03,0.67,0.1,0.93s0.16,0.48,0.29,0.64c0.13,0.15,0.27,0.26,0.45,0.33s0.37,0.11,0.59,0.11
				c0.19,0,0.37-0.03,0.55-0.1S388.95,206.11,389.07,205.96z"/>
			<path d="M399.74,207.64h-2.12v-3.26c0-0.27-0.01-0.53-0.04-0.79s-0.07-0.46-0.14-0.58c-0.08-0.14-0.19-0.25-0.34-0.32
				s-0.36-0.1-0.63-0.1c-0.19,0-0.39,0.03-0.58,0.09s-0.41,0.16-0.64,0.3v4.66h-2.12v-6.58h2.12v0.73c0.37-0.29,0.73-0.52,1.08-0.67
				c0.34-0.16,0.73-0.23,1.15-0.23c0.71,0,1.26,0.21,1.67,0.62c0.4,0.41,0.6,1.03,0.6,1.86V207.64z"/>
			<path d="M414.3,207.64h-2.75l-2.37-3.2h-1.04v3.2h-2.24v-8.72h3.77c0.52,0,0.96,0.03,1.33,0.09s0.72,0.19,1.04,0.38
				c0.33,0.2,0.59,0.45,0.78,0.76s0.29,0.7,0.29,1.17c0,0.64-0.15,1.17-0.45,1.58s-0.73,0.74-1.28,1.01L414.3,207.64z
				 M410.79,201.59c0-0.22-0.04-0.41-0.13-0.56s-0.24-0.28-0.46-0.37c-0.15-0.06-0.33-0.1-0.53-0.11s-0.44-0.02-0.71-0.02h-0.81
				v2.35h0.69c0.36,0,0.66-0.02,0.9-0.05s0.45-0.12,0.61-0.24c0.16-0.12,0.27-0.25,0.34-0.4S410.79,201.84,410.79,201.59z"/>
			<path d="M419.15,206.95c-0.11,0.09-0.25,0.19-0.42,0.31s-0.33,0.22-0.47,0.29c-0.21,0.09-0.42,0.16-0.64,0.21
				s-0.47,0.07-0.73,0.07c-0.63,0-1.15-0.19-1.57-0.58s-0.63-0.88-0.63-1.48c0-0.48,0.11-0.87,0.32-1.18s0.52-0.54,0.91-0.72
				c0.39-0.18,0.88-0.3,1.45-0.38s1.18-0.13,1.8-0.16v-0.04c0-0.36-0.15-0.61-0.45-0.75s-0.73-0.21-1.31-0.21
				c-0.35,0-0.72,0.06-1.11,0.18s-0.68,0.22-0.85,0.28h-0.19v-1.59c0.22-0.06,0.58-0.13,1.09-0.21s1-0.12,1.51-0.12
				c1.2,0,2.07,0.18,2.6,0.55s0.8,0.95,0.8,1.74v4.48h-2.09V206.95z M419.15,205.92v-1.37c-0.29,0.02-0.59,0.06-0.93,0.1
				c-0.33,0.04-0.58,0.09-0.76,0.14c-0.21,0.07-0.37,0.16-0.48,0.29s-0.17,0.29-0.17,0.5c0,0.14,0.01,0.25,0.04,0.33
				c0.02,0.09,0.08,0.17,0.18,0.25c0.09,0.08,0.2,0.14,0.32,0.17c0.13,0.04,0.32,0.06,0.59,0.06c0.21,0,0.42-0.04,0.64-0.13
				C418.8,206.17,418.99,206.06,419.15,205.92z"/>
			<path d="M427.31,207.58c-0.23,0.06-0.47,0.1-0.72,0.14s-0.56,0.05-0.93,0.05c-0.82,0-1.43-0.17-1.83-0.5s-0.6-0.9-0.6-1.71v-3.08
				h-0.87v-1.43h0.87v-1.88h2.12v1.88h1.97v1.43h-1.97v2.34c0,0.23,0,0.43,0.01,0.6c0,0.17,0.04,0.33,0.09,0.46
				c0.05,0.14,0.15,0.25,0.29,0.33c0.14,0.08,0.34,0.12,0.6,0.12c0.11,0,0.25-0.02,0.43-0.07c0.18-0.05,0.3-0.09,0.37-0.13h0.17
				V207.58z"/>
			<path d="M435.09,204.74h-4.83c0.03,0.52,0.23,0.91,0.59,1.18s0.89,0.41,1.6,0.41c0.45,0,0.88-0.08,1.29-0.24s0.75-0.33,0.99-0.52
				h0.23v1.69c-0.48,0.19-0.93,0.33-1.35,0.42s-0.89,0.13-1.4,0.13c-1.32,0-2.33-0.3-3.04-0.89s-1.05-1.44-1.05-2.54
				c0-1.09,0.33-1.95,1-2.58s1.58-0.95,2.74-0.95c1.07,0,1.88,0.27,2.41,0.81s0.81,1.32,0.81,2.33V204.74z M432.99,203.51
				c-0.01-0.44-0.12-0.77-0.33-1s-0.53-0.33-0.97-0.33c-0.41,0-0.74,0.11-1,0.32s-0.41,0.55-0.44,1.01H432.99z"/>
		</g>
	</g>
</g>
<g>
	<g>
		<g>
			<path d="M4.39,166.77c0.39,0,0.77,0.07,1.15,0.21s0.69,0.33,0.94,0.59c0.34,0.35,0.6,0.74,0.78,1.16s0.26,0.96,0.26,1.6v1.4h2.84
				v2.25H1.64v-3.7c0-0.55,0.05-1.02,0.14-1.4s0.24-0.72,0.43-1.01c0.23-0.35,0.53-0.62,0.88-0.81S3.89,166.77,4.39,166.77z
				 M4.44,169.1c-0.25,0-0.46,0.07-0.63,0.2c-0.18,0.13-0.3,0.29-0.37,0.46c-0.09,0.23-0.15,0.46-0.15,0.69s-0.01,0.52-0.01,0.89
				v0.39h2.61v-0.64c0-0.38-0.02-0.7-0.07-0.95c-0.05-0.25-0.14-0.46-0.28-0.62c-0.13-0.14-0.27-0.25-0.45-0.31
				S4.69,169.1,4.44,169.1z"/>
			<path d="M7.46,158.96v4.83c0.52-0.03,0.91-0.23,1.18-0.59s0.41-0.89,0.41-1.6c0-0.45-0.08-0.88-0.24-1.29s-0.33-0.75-0.52-0.99
				v-0.23h1.69c0.19,0.48,0.33,0.93,0.42,1.35s0.13,0.89,0.13,1.4c0,1.32-0.3,2.33-0.89,3.04s-1.44,1.05-2.54,1.05
				c-1.09,0-1.95-0.33-2.58-1s-0.95-1.58-0.95-2.74c0-1.07,0.27-1.88,0.81-2.41s1.32-0.81,2.33-0.81H7.46z M6.23,161.05
				c-0.44,0.01-0.77,0.12-1,0.33s-0.33,0.53-0.33,0.97c0,0.41,0.11,0.74,0.32,1s0.55,0.41,1.01,0.44V161.05z"/>
			<path d="M5.79,152.67v0.19c-0.03,0.09-0.05,0.23-0.07,0.43s-0.02,0.36-0.02,0.5c0,0.3,0.02,0.56,0.06,0.79s0.11,0.48,0.2,0.74
				h4.41v2.12H3.78v-2.12h0.97c-0.4-0.46-0.66-0.87-0.79-1.21c-0.13-0.34-0.2-0.66-0.2-0.95c0-0.07,0-0.16,0.01-0.25
				c0-0.09,0.01-0.18,0.02-0.25H5.79z"/>
			<path d="M10.54,147.96c0,0.57-0.07,1.1-0.21,1.57s-0.35,0.89-0.63,1.24c-0.29,0.35-0.64,0.62-1.08,0.81s-0.94,0.29-1.52,0.29
				c-0.61,0-1.14-0.1-1.59-0.31s-0.81-0.49-1.11-0.86c-0.28-0.36-0.48-0.77-0.61-1.23s-0.19-0.95-0.19-1.45
				c0-0.45,0.05-0.86,0.15-1.24s0.22-0.73,0.38-1.06h1.8v0.3c-0.07,0.08-0.15,0.18-0.25,0.3c-0.09,0.12-0.19,0.26-0.28,0.42
				c-0.09,0.16-0.16,0.34-0.21,0.53c-0.06,0.19-0.08,0.41-0.08,0.67c0,0.56,0.18,0.99,0.54,1.3c0.36,0.3,0.84,0.45,1.46,0.45
				c0.63,0,1.11-0.15,1.44-0.46c0.33-0.31,0.49-0.75,0.49-1.32c0-0.27-0.03-0.5-0.09-0.72c-0.06-0.21-0.13-0.39-0.21-0.53
				c-0.08-0.13-0.16-0.25-0.25-0.35c-0.09-0.1-0.17-0.19-0.25-0.28v-0.3h1.8c0.16,0.33,0.28,0.68,0.37,1.04
				S10.54,147.53,10.54,147.96z"/>
			<path d="M7.46,137.76v4.83c0.52-0.03,0.91-0.23,1.18-0.59s0.41-0.89,0.41-1.6c0-0.45-0.08-0.88-0.24-1.29s-0.33-0.75-0.52-0.99
				v-0.23h1.69c0.19,0.48,0.33,0.93,0.42,1.35s0.13,0.89,0.13,1.4c0,1.32-0.3,2.33-0.89,3.04s-1.44,1.05-2.54,1.05
				c-1.09,0-1.95-0.33-2.58-1s-0.95-1.58-0.95-2.74c0-1.07,0.27-1.88,0.81-2.41s1.32-0.81,2.33-0.81H7.46z M6.23,139.86
				c-0.44,0.01-0.77,0.12-1,0.33s-0.33,0.53-0.33,0.97c0,0.41,0.11,0.74,0.32,1s0.55,0.41,1.01,0.44V139.86z"/>
			<path d="M10.36,129.63v2.12H7.1c-0.27,0-0.53,0.01-0.79,0.04s-0.46,0.07-0.58,0.14c-0.14,0.08-0.25,0.19-0.32,0.34
				s-0.1,0.36-0.1,0.63c0,0.19,0.03,0.39,0.09,0.58s0.16,0.41,0.3,0.64h4.66v2.12H3.78v-2.12h0.73c-0.29-0.37-0.52-0.73-0.67-1.08
				s-0.23-0.73-0.23-1.15c0-0.71,0.21-1.26,0.62-1.67c0.41-0.4,1.03-0.6,1.86-0.6H10.36z"/>
			<path d="M10.3,123.57c0.06,0.23,0.1,0.47,0.14,0.72s0.05,0.56,0.05,0.93c0,0.82-0.17,1.43-0.5,1.83s-0.9,0.6-1.71,0.6H5.21v0.87
				H3.78v-0.87H1.9v-2.12h1.88v-1.97h1.43v1.97h2.34c0.23,0,0.43,0,0.6-0.01c0.17,0,0.33-0.04,0.46-0.09
				c0.14-0.05,0.25-0.15,0.33-0.29c0.08-0.14,0.12-0.34,0.12-0.6c0-0.11-0.02-0.25-0.07-0.43s-0.09-0.3-0.13-0.37v-0.18H10.3z"/>
			<path d="M9.67,118.2c0.09,0.11,0.19,0.25,0.31,0.42s0.22,0.33,0.29,0.47c0.09,0.21,0.16,0.42,0.21,0.64s0.07,0.47,0.07,0.73
				c0,0.63-0.19,1.15-0.58,1.57s-0.88,0.63-1.48,0.63c-0.48,0-0.87-0.11-1.18-0.32s-0.54-0.52-0.72-0.91
				c-0.18-0.39-0.3-0.88-0.38-1.45s-0.13-1.18-0.16-1.8H6c-0.36,0-0.61,0.15-0.75,0.45s-0.21,0.73-0.21,1.31
				c0,0.35,0.06,0.72,0.18,1.11s0.22,0.68,0.28,0.85v0.19H3.92c-0.06-0.22-0.13-0.58-0.21-1.09s-0.12-1-0.12-1.51
				c0-1.2,0.18-2.07,0.55-2.6s0.95-0.8,1.74-0.8h4.48v2.09H9.67z M8.64,118.2H7.27c0.02,0.29,0.06,0.59,0.1,0.93
				c0.04,0.33,0.09,0.58,0.14,0.76c0.07,0.21,0.16,0.37,0.29,0.48s0.29,0.17,0.5,0.17c0.14,0,0.25-0.01,0.33-0.04
				c0.09-0.02,0.17-0.08,0.25-0.18c0.08-0.09,0.14-0.2,0.17-0.32c0.04-0.13,0.06-0.32,0.06-0.59c0-0.21-0.04-0.42-0.13-0.64
				C8.89,118.55,8.78,118.36,8.64,118.2z"/>
			<path d="M9.61,107.81c0.62,0,1.14,0.09,1.56,0.26s0.75,0.42,0.99,0.74c0.24,0.32,0.42,0.7,0.52,1.15s0.16,0.95,0.16,1.51
				c0,0.46-0.03,0.91-0.08,1.35s-0.12,0.83-0.2,1.15h-1.65v-0.26c0.1-0.26,0.19-0.57,0.28-0.94s0.13-0.7,0.13-0.99
				c0-0.39-0.04-0.71-0.11-0.95c-0.07-0.24-0.17-0.43-0.31-0.56c-0.13-0.12-0.29-0.21-0.48-0.26s-0.43-0.08-0.7-0.08H9.59
				c0.21,0.25,0.37,0.53,0.49,0.84s0.18,0.65,0.18,1.03c0,0.92-0.28,1.63-0.83,2.13s-1.4,0.75-2.53,0.75
				c-0.54,0-1.01-0.08-1.41-0.23c-0.39-0.15-0.74-0.37-1.03-0.64c-0.27-0.26-0.49-0.57-0.64-0.95S3.6,112.1,3.6,111.7
				c0-0.36,0.04-0.68,0.13-0.97s0.2-0.55,0.35-0.79l-0.29-0.08v-2.05H9.61z M8.29,109.93H5.31c-0.05,0.12-0.09,0.27-0.12,0.44
				s-0.04,0.33-0.04,0.47c0,0.55,0.16,0.97,0.48,1.25s0.76,0.42,1.33,0.42c0.63,0,1.07-0.12,1.32-0.35s0.38-0.59,0.38-1.05
				c0-0.21-0.03-0.42-0.1-0.62C8.49,110.28,8.4,110.1,8.29,109.93z"/>
			<path d="M7.46,99.41v4.83c0.52-0.03,0.91-0.23,1.18-0.59s0.41-0.89,0.41-1.6c0-0.45-0.08-0.88-0.24-1.29S8.48,100,8.3,99.76
				v-0.23h1.69c0.19,0.48,0.33,0.93,0.42,1.35s0.13,0.89,0.13,1.4c0,1.32-0.3,2.33-0.89,3.04s-1.44,1.05-2.54,1.05
				c-1.09,0-1.95-0.33-2.58-1s-0.95-1.58-0.95-2.74c0-1.07,0.27-1.88,0.81-2.41s1.32-0.81,2.33-0.81H7.46z M6.23,101.5
				c-0.44,0.01-0.77,0.12-1,0.33s-0.33,0.53-0.33,0.97c0,0.41,0.11,0.74,0.32,1s0.55,0.41,1.01,0.44V101.5z"/>
			<path d="M7.08,87.09c1.08,0,1.93,0.32,2.56,0.95s0.93,1.52,0.93,2.66s-0.31,2.03-0.93,2.66S8.16,94.3,7.08,94.3
				c-1.09,0-1.95-0.32-2.57-0.95s-0.93-1.52-0.93-2.65c0-1.15,0.31-2.04,0.94-2.66S5.99,87.09,7.08,87.09z M8.67,89.68
				c-0.17-0.14-0.37-0.24-0.61-0.31s-0.56-0.1-0.98-0.1c-0.39,0-0.71,0.04-0.97,0.11s-0.47,0.17-0.63,0.29
				c-0.16,0.13-0.27,0.28-0.34,0.45s-0.1,0.37-0.1,0.57s0.03,0.38,0.08,0.54s0.16,0.31,0.33,0.45c0.15,0.13,0.36,0.23,0.63,0.31
				s0.6,0.11,1,0.11c0.36,0,0.67-0.03,0.93-0.1s0.48-0.16,0.64-0.29c0.15-0.13,0.26-0.27,0.33-0.45S9.1,90.9,9.1,90.67
				c0-0.19-0.03-0.37-0.1-0.55S8.83,89.81,8.67,89.68z"/>
			<path d="M2.79,81.33v0.16c-0.03,0.09-0.06,0.22-0.09,0.37s-0.05,0.31-0.05,0.48c0,0.41,0.07,0.69,0.22,0.84
				c0.15,0.15,0.44,0.22,0.86,0.22h0.05v-1.62h1.43v1.55h5.15v2.12H5.21v0.9H3.78v-0.9H3.6c-0.8,0-1.41-0.21-1.81-0.64
				s-0.6-1.08-0.6-1.94c0-0.31,0.01-0.6,0.03-0.85s0.05-0.48,0.08-0.67H2.79z"/>
			<path d="M4.39,69.11c0.39,0,0.77,0.07,1.15,0.21s0.69,0.33,0.94,0.59c0.34,0.35,0.6,0.74,0.78,1.16s0.26,0.96,0.26,1.6v1.4h2.84
				v2.25H1.64v-3.7c0-0.55,0.05-1.02,0.14-1.4s0.24-0.72,0.43-1.01c0.23-0.35,0.53-0.62,0.88-0.81S3.89,69.11,4.39,69.11z
				 M4.44,71.44c-0.25,0-0.46,0.07-0.63,0.2c-0.18,0.13-0.3,0.29-0.37,0.46c-0.09,0.23-0.15,0.46-0.15,0.69s-0.01,0.52-0.01,0.89
				v0.39h2.61v-0.64c0-0.38-0.02-0.7-0.07-0.95c-0.05-0.25-0.14-0.46-0.28-0.62C5.4,71.7,5.25,71.6,5.08,71.53
				S4.69,71.44,4.44,71.44z"/>
			<path d="M9.67,63.87c0.09,0.11,0.19,0.25,0.31,0.42s0.22,0.33,0.29,0.47c0.09,0.21,0.16,0.42,0.21,0.64s0.07,0.47,0.07,0.73
				c0,0.63-0.19,1.15-0.58,1.57s-0.88,0.63-1.48,0.63c-0.48,0-0.87-0.11-1.18-0.32s-0.54-0.52-0.72-0.91
				c-0.18-0.39-0.3-0.88-0.38-1.45s-0.13-1.18-0.16-1.8H6c-0.36,0-0.61,0.15-0.75,0.45s-0.21,0.73-0.21,1.31
				c0,0.35,0.06,0.72,0.18,1.11s0.22,0.68,0.28,0.85v0.19H3.92c-0.06-0.22-0.13-0.58-0.21-1.09s-0.12-1-0.12-1.51
				c0-1.2,0.18-2.07,0.55-2.6s0.95-0.8,1.74-0.8h4.48v2.09H9.67z M8.64,63.87H7.27c0.02,0.29,0.06,0.59,0.1,0.93
				c0.04,0.33,0.09,0.58,0.14,0.76c0.07,0.21,0.16,0.37,0.29,0.48S8.1,66.2,8.3,66.2c0.14,0,0.25-0.01,0.33-0.04
				c0.09-0.02,0.17-0.08,0.25-0.18c0.08-0.09,0.14-0.2,0.17-0.32c0.04-0.13,0.06-0.32,0.06-0.59c0-0.21-0.04-0.42-0.13-0.64
				C8.89,64.22,8.78,64.03,8.64,63.87z"/>
			<path d="M10.3,55.71c0.06,0.23,0.1,0.47,0.14,0.72s0.05,0.56,0.05,0.93c0,0.82-0.17,1.43-0.5,1.83s-0.9,0.6-1.71,0.6H5.21v0.87
				H3.78v-0.87H1.9v-2.12h1.88v-1.97h1.43v1.97h2.34c0.23,0,0.43,0,0.6-0.01c0.17,0,0.33-0.04,0.46-0.09
				c0.14-0.05,0.25-0.15,0.33-0.29c0.08-0.14,0.12-0.34,0.12-0.6c0-0.11-0.02-0.25-0.07-0.43s-0.09-0.3-0.13-0.37v-0.18H10.3z"/>
			<path d="M2.84,52.19v2.23h-1.6v-2.23H2.84z M10.36,52.25v2.12H3.78v-2.12H10.36z"/>
			<path d="M7.46,43.86v4.83c0.52-0.03,0.91-0.23,1.18-0.59s0.41-0.89,0.41-1.6c0-0.45-0.08-0.88-0.24-1.29s-0.33-0.75-0.52-0.99
				v-0.23h1.69c0.19,0.48,0.33,0.93,0.42,1.35s0.13,0.89,0.13,1.4c0,1.32-0.3,2.33-0.89,3.04s-1.44,1.05-2.54,1.05
				c-1.09,0-1.95-0.33-2.58-1s-0.95-1.58-0.95-2.74c0-1.07,0.27-1.88,0.81-2.41s1.32-0.81,2.33-0.81H7.46z M6.23,45.96
				c-0.44,0.01-0.77,0.12-1,0.33S4.9,46.81,4.9,47.25c0,0.41,0.11,0.74,0.32,1s0.55,0.41,1.01,0.44V45.96z"/>
			<path d="M10.36,35.73v2.12H7.1c-0.27,0-0.53,0.01-0.79,0.04s-0.46,0.07-0.58,0.14c-0.14,0.08-0.25,0.19-0.32,0.34
				s-0.1,0.36-0.1,0.63c0,0.19,0.03,0.39,0.09,0.58S5.56,40,5.7,40.23h4.66v2.12H3.78v-2.12h0.73c-0.29-0.37-0.52-0.73-0.67-1.08
				S3.6,38.42,3.6,38c0-0.71,0.21-1.26,0.62-1.67c0.41-0.4,1.03-0.6,1.86-0.6H10.36z"/>
			<path d="M10.3,29.67c0.06,0.23,0.1,0.47,0.14,0.72s0.05,0.56,0.05,0.93c0,0.82-0.17,1.43-0.5,1.83s-0.9,0.6-1.71,0.6H5.21v0.87
				H3.78v-0.87H1.9v-2.12h1.88v-1.97h1.43v1.97h2.34c0.23,0,0.43,0,0.6-0.01c0.17,0,0.33-0.04,0.46-0.09
				c0.14-0.05,0.25-0.15,0.33-0.29c0.08-0.14,0.12-0.34,0.12-0.6c0-0.11-0.02-0.25-0.07-0.43s-0.09-0.3-0.13-0.37v-0.18H10.3z"/>
			<path d="M8.28,22.46c0.68,0,1.23,0.3,1.64,0.91s0.62,1.44,0.62,2.5c0,0.59-0.05,1.12-0.16,1.59s-0.23,0.86-0.36,1.15H8.28v-0.19
				c0.07-0.11,0.16-0.23,0.24-0.37s0.18-0.33,0.28-0.59C8.9,27.25,8.98,27,9.04,26.72s0.1-0.57,0.1-0.89c0-0.41-0.05-0.72-0.14-0.92
				s-0.23-0.3-0.41-0.3c-0.16,0-0.28,0.06-0.35,0.18s-0.14,0.34-0.21,0.67C8,25.61,7.96,25.83,7.92,26.09s-0.09,0.51-0.15,0.73
				c-0.16,0.6-0.4,1.04-0.73,1.33s-0.74,0.43-1.23,0.43c-0.63,0-1.16-0.3-1.58-0.9S3.6,26.27,3.6,25.23c0-0.49,0.05-0.96,0.15-1.42
				s0.21-0.8,0.32-1.06h1.66v0.18c-0.21,0.31-0.39,0.67-0.52,1.07s-0.2,0.81-0.2,1.22c0,0.34,0.05,0.63,0.14,0.86
				s0.23,0.35,0.4,0.35c0.16,0,0.28-0.05,0.36-0.16s0.16-0.35,0.25-0.74c0.04-0.21,0.08-0.45,0.13-0.69s0.09-0.5,0.16-0.75
				c0.14-0.55,0.37-0.96,0.68-1.23S7.81,22.46,8.28,22.46z"/>
		</g>
	</g>
</g>
<g>
	<polygon class="st4" points="375.26,14.39 383.76,14.39 383.76,22.89 375.26,22.89 375.26,14.39 	"/>
</g>
<g>
	<path d="M396.57,22.82h-5.77v-8.72h5.77v1.03h-4.61v2.39h4.61v1.03h-4.61v3.24h4.61V22.82z"/>
	<path d="M403.02,20.93c0,0.6-0.25,1.09-0.74,1.47c-0.5,0.38-1.17,0.57-2.03,0.57c-0.49,0-0.93-0.06-1.34-0.17s-0.75-0.24-1.02-0.38
		v-1.24h0.06c0.35,0.26,0.74,0.47,1.17,0.62s0.84,0.23,1.23,0.23c0.49,0,0.87-0.08,1.14-0.23s0.41-0.4,0.41-0.74
		c0-0.26-0.07-0.45-0.22-0.59s-0.44-0.25-0.86-0.34c-0.16-0.04-0.36-0.08-0.61-0.12s-0.48-0.1-0.69-0.15
		c-0.58-0.15-0.99-0.38-1.23-0.67s-0.36-0.66-0.36-1.09c0-0.27,0.06-0.52,0.17-0.76c0.11-0.24,0.28-0.45,0.51-0.64
		c0.22-0.18,0.5-0.33,0.84-0.44c0.34-0.11,0.72-0.16,1.14-0.16c0.39,0,0.79,0.05,1.19,0.14c0.4,0.1,0.74,0.21,1,0.35v1.18h-0.06
		c-0.28-0.21-0.63-0.38-1.03-0.52s-0.8-0.21-1.19-0.21c-0.4,0-0.75,0.08-1.02,0.23c-0.28,0.15-0.42,0.38-0.42,0.69
		c0,0.27,0.08,0.47,0.25,0.61c0.17,0.14,0.43,0.25,0.8,0.33c0.2,0.05,0.43,0.09,0.69,0.14s0.46,0.09,0.63,0.13
		c0.51,0.12,0.91,0.32,1.19,0.6C402.88,20.07,403.02,20.45,403.02,20.93z"/>
	<path d="M410.51,22.82h-1.46l-2.64-2.87l-0.72,0.68v2.19h-1.11V13.7h1.11v5.85l3.19-3.28h1.39l-3.05,3.02L410.51,22.82z"/>
	<path d="M416.77,19.66h-4.84c0,0.4,0.06,0.75,0.18,1.05c0.12,0.3,0.29,0.54,0.5,0.74c0.2,0.19,0.45,0.33,0.73,0.42
		c0.28,0.09,0.59,0.14,0.93,0.14c0.45,0,0.9-0.09,1.35-0.27s0.78-0.35,0.97-0.52h0.06v1.2c-0.37,0.16-0.75,0.29-1.14,0.39
		s-0.8,0.16-1.22,0.16c-1.09,0-1.94-0.29-2.55-0.88c-0.61-0.59-0.92-1.42-0.92-2.5c0-1.07,0.29-1.92,0.88-2.55
		c0.59-0.63,1.36-0.94,2.32-0.94c0.89,0,1.57,0.26,2.05,0.77s0.72,1.25,0.72,2.2V19.66z M415.7,18.82c0-0.58-0.15-1.03-0.44-1.34
		S414.53,17,413.94,17c-0.59,0-1.06,0.17-1.42,0.52c-0.35,0.35-0.55,0.78-0.6,1.29H415.7z"/>
	<path d="M421.83,22.76c-0.21,0.05-0.43,0.1-0.68,0.13s-0.46,0.05-0.66,0.05c-0.67,0-1.18-0.18-1.53-0.54
		c-0.35-0.36-0.52-0.94-0.52-1.73V17.2h-0.75v-0.93h0.75v-1.88h1.11v1.88h2.28v0.93h-2.28v2.98c0,0.34,0.01,0.61,0.02,0.81
		s0.07,0.37,0.16,0.54c0.09,0.16,0.21,0.27,0.36,0.34c0.15,0.07,0.38,0.11,0.69,0.11c0.18,0,0.37-0.03,0.56-0.08s0.34-0.1,0.42-0.13
		h0.06V22.76z"/>
	<path d="M428.41,22.82h-1.1v-0.7c-0.1,0.07-0.23,0.16-0.4,0.28s-0.33,0.21-0.49,0.28c-0.18,0.09-0.4,0.17-0.64,0.23
		S425.27,23,424.95,23c-0.59,0-1.09-0.2-1.51-0.59c-0.41-0.39-0.62-0.89-0.62-1.49c0-0.5,0.11-0.9,0.32-1.2s0.52-0.55,0.92-0.72
		c0.4-0.18,0.88-0.29,1.44-0.36s1.16-0.11,1.81-0.14v-0.17c0-0.25-0.04-0.46-0.13-0.62c-0.09-0.16-0.21-0.29-0.38-0.39
		c-0.16-0.09-0.35-0.15-0.57-0.18s-0.45-0.05-0.69-0.05c-0.29,0-0.61,0.04-0.97,0.11c-0.36,0.08-0.73,0.19-1.11,0.33h-0.06v-1.12
		c0.22-0.06,0.53-0.12,0.94-0.19s0.81-0.11,1.21-0.11c0.46,0,0.87,0.04,1.21,0.11c0.34,0.08,0.64,0.21,0.89,0.39
		c0.25,0.18,0.44,0.41,0.57,0.7c0.13,0.29,0.19,0.64,0.19,1.06V22.82z M427.31,21.21v-1.82c-0.34,0.02-0.73,0.05-1.19,0.09
		s-0.82,0.1-1.09,0.17c-0.32,0.09-0.57,0.23-0.77,0.42s-0.29,0.45-0.29,0.78c0,0.38,0.11,0.66,0.34,0.85s0.57,0.28,1.04,0.28
		c0.39,0,0.74-0.08,1.07-0.23S427.04,21.42,427.31,21.21z"/>
	<path d="M439.97,22.82h-1.11v-3.73c0-0.28-0.01-0.55-0.04-0.81s-0.08-0.47-0.16-0.63c-0.09-0.17-0.22-0.29-0.39-0.38
		c-0.17-0.09-0.41-0.13-0.73-0.13c-0.31,0-0.62,0.08-0.93,0.23c-0.31,0.15-0.62,0.35-0.93,0.59c0.01,0.09,0.02,0.19,0.03,0.31
		c0.01,0.12,0.01,0.24,0.01,0.35v4.19h-1.11v-3.73c0-0.29-0.01-0.56-0.04-0.82s-0.08-0.47-0.16-0.62c-0.09-0.17-0.22-0.29-0.39-0.38
		c-0.17-0.08-0.41-0.13-0.73-0.13c-0.3,0-0.6,0.07-0.91,0.22c-0.3,0.15-0.61,0.34-0.91,0.57v4.89h-1.11v-6.54h1.11V17
		c0.35-0.29,0.69-0.51,1.03-0.67c0.34-0.16,0.71-0.24,1.1-0.24c0.45,0,0.83,0.09,1.14,0.28c0.31,0.19,0.54,0.45,0.7,0.78
		c0.45-0.38,0.86-0.65,1.22-0.81c0.37-0.17,0.76-0.25,1.18-0.25c0.72,0,1.25,0.22,1.6,0.65c0.34,0.44,0.51,1.04,0.51,1.83V22.82z"/>
	<path d="M443.11,15.18h-1.25v-1.14h1.25V15.18z M443.04,22.82h-1.11v-6.54h1.11V22.82z"/>
	<path d="M450.54,22.82h-1.11v-3.73c0-0.3-0.02-0.58-0.05-0.85s-0.1-0.47-0.19-0.62c-0.1-0.16-0.24-0.29-0.42-0.37
		c-0.18-0.08-0.42-0.12-0.72-0.12c-0.3,0-0.62,0.07-0.95,0.22c-0.33,0.15-0.64,0.34-0.95,0.57v4.89h-1.11v-6.54h1.11V17
		c0.35-0.29,0.7-0.51,1.07-0.67s0.75-0.24,1.14-0.24c0.71,0,1.25,0.21,1.62,0.64c0.37,0.43,0.56,1.04,0.56,1.84V22.82z"/>
	<path d="M458.08,19.66h-4.84c0,0.4,0.06,0.75,0.18,1.05c0.12,0.3,0.29,0.54,0.5,0.74c0.2,0.19,0.45,0.33,0.73,0.42
		c0.28,0.09,0.59,0.14,0.93,0.14c0.45,0,0.9-0.09,1.35-0.27s0.78-0.35,0.97-0.52h0.06v1.2c-0.37,0.16-0.75,0.29-1.14,0.39
		s-0.8,0.16-1.22,0.16c-1.09,0-1.94-0.29-2.55-0.88c-0.61-0.59-0.92-1.42-0.92-2.5c0-1.07,0.29-1.92,0.88-2.55
		c0.59-0.63,1.36-0.94,2.32-0.94c0.89,0,1.57,0.26,2.05,0.77s0.72,1.25,0.72,2.2V19.66z M457,18.82c0-0.58-0.15-1.03-0.44-1.34
		S455.84,17,455.25,17c-0.59,0-1.06,0.17-1.42,0.52c-0.35,0.35-0.55,0.78-0.6,1.29H457z"/>
	<path d="M471.53,19.47h-3.21v3.19h-0.98v-3.19h-3.21v-0.94h3.21v-3.19h0.98v3.19h3.21V19.47z"/>
	<path d="M485.09,22.82h-1.24l-0.86-2.43h-3.79l-0.86,2.43h-1.18l3.19-8.72h1.55L485.09,22.82z M482.63,19.39l-1.54-4.28l-1.54,4.28
		H482.63z"/>
	<path d="M493.83,18.46c0,0.79-0.17,1.51-0.52,2.16c-0.35,0.64-0.81,1.14-1.39,1.5c-0.4,0.25-0.85,0.42-1.34,0.53
		s-1.14,0.16-1.94,0.16h-2.21v-8.72h2.19c0.86,0,1.54,0.06,2.04,0.18s0.93,0.29,1.28,0.51c0.6,0.37,1.06,0.87,1.39,1.48
		C493.66,16.88,493.83,17.62,493.83,18.46z M492.61,18.45c0-0.68-0.12-1.26-0.36-1.73s-0.6-0.84-1.07-1.11
		c-0.34-0.2-0.71-0.33-1.1-0.41c-0.39-0.08-0.85-0.11-1.39-0.11h-1.09v6.73h1.09c0.56,0,1.05-0.04,1.47-0.12s0.8-0.23,1.15-0.46
		c0.44-0.28,0.76-0.64,0.98-1.1S492.61,19.13,492.61,18.45z"/>
</g>
<g>
	<polygon class="st5" points="375.26,40.57 383.76,40.57 383.76,49.08 375.26,49.08 375.26,40.57 	"/>
</g>
<g>
	<path d="M397.7,49.01h-1.24l-0.86-2.43h-3.79l-0.86,2.43h-1.18l3.19-8.72h1.55L397.7,49.01z M395.24,45.58l-1.54-4.28l-1.54,4.28
		H395.24z"/>
	<path d="M406.44,44.66c0,0.79-0.17,1.51-0.52,2.16c-0.35,0.64-0.81,1.14-1.39,1.5c-0.4,0.25-0.85,0.42-1.34,0.53
		s-1.14,0.16-1.94,0.16h-2.21v-8.72h2.19c0.86,0,1.54,0.06,2.04,0.18s0.93,0.29,1.28,0.51c0.6,0.37,1.06,0.87,1.39,1.48
		C406.27,43.08,406.44,43.81,406.44,44.66z M405.22,44.64c0-0.68-0.12-1.26-0.36-1.73s-0.6-0.84-1.07-1.11
		c-0.34-0.2-0.71-0.33-1.1-0.41c-0.39-0.08-0.85-0.11-1.39-0.11h-1.09v6.73h1.09c0.56,0,1.05-0.04,1.47-0.12s0.8-0.23,1.15-0.46
		c0.44-0.28,0.76-0.64,0.98-1.1S405.22,45.32,405.22,44.64z"/>
	<path d="M420.01,45.66h-3.21v3.19h-0.98v-3.19h-3.21v-0.94h3.21v-3.19h0.98v3.19h3.21V45.66z"/>
	<path d="M432.39,42.92c0,0.39-0.07,0.75-0.2,1.08c-0.14,0.33-0.33,0.62-0.57,0.86c-0.3,0.3-0.66,0.53-1.07,0.68
		s-0.93,0.23-1.56,0.23h-1.17v3.25h-1.17v-8.72h2.38c0.53,0,0.97,0.04,1.34,0.13s0.69,0.23,0.97,0.41c0.33,0.22,0.59,0.5,0.77,0.83
		C432.3,42,432.39,42.42,432.39,42.92z M431.18,42.95c0-0.3-0.05-0.56-0.16-0.79c-0.11-0.22-0.27-0.4-0.48-0.54
		c-0.19-0.12-0.4-0.21-0.64-0.26s-0.55-0.08-0.92-0.08h-1.15v3.49h0.98c0.47,0,0.85-0.04,1.15-0.13s0.53-0.22,0.72-0.4
		c0.18-0.19,0.32-0.38,0.39-0.59S431.18,43.21,431.18,42.95z"/>
	<path d="M434.87,49.01h-1.11V39.9h1.11V49.01z"/>
	<path d="M442.03,49.01h-1.1v-0.7c-0.1,0.07-0.23,0.16-0.4,0.28s-0.33,0.21-0.49,0.28c-0.18,0.09-0.4,0.17-0.64,0.23
		s-0.52,0.09-0.84,0.09c-0.59,0-1.09-0.2-1.51-0.59c-0.41-0.39-0.62-0.89-0.62-1.49c0-0.5,0.11-0.9,0.32-1.2s0.52-0.55,0.92-0.72
		c0.4-0.18,0.88-0.29,1.44-0.36s1.16-0.11,1.81-0.14v-0.17c0-0.25-0.04-0.46-0.13-0.62c-0.09-0.16-0.21-0.29-0.38-0.39
		c-0.16-0.09-0.35-0.15-0.57-0.18s-0.45-0.05-0.69-0.05c-0.29,0-0.61,0.04-0.97,0.11c-0.36,0.08-0.73,0.19-1.11,0.33h-0.06v-1.12
		c0.22-0.06,0.53-0.12,0.94-0.19s0.81-0.11,1.21-0.11c0.46,0,0.87,0.04,1.21,0.11c0.34,0.08,0.64,0.21,0.89,0.39
		c0.25,0.18,0.44,0.41,0.57,0.7c0.13,0.29,0.19,0.64,0.19,1.06V49.01z M440.93,47.4v-1.82c-0.34,0.02-0.73,0.05-1.19,0.09
		s-0.82,0.1-1.09,0.17c-0.32,0.09-0.57,0.23-0.77,0.42s-0.29,0.45-0.29,0.78c0,0.38,0.11,0.66,0.34,0.85s0.57,0.28,1.04,0.28
		c0.39,0,0.74-0.08,1.07-0.23S440.65,47.61,440.93,47.4z"/>
	<path d="M448.92,48.6c-0.37,0.18-0.72,0.31-1.05,0.41s-0.68,0.15-1.06,0.15c-0.47,0-0.91-0.07-1.31-0.21s-0.74-0.35-1.02-0.63
		c-0.29-0.28-0.51-0.64-0.67-1.07c-0.16-0.43-0.24-0.93-0.24-1.51c0-1.07,0.29-1.91,0.88-2.52c0.59-0.61,1.37-0.91,2.34-0.91
		c0.38,0,0.75,0.05,1.11,0.16c0.36,0.11,0.7,0.23,1,0.39v1.22h-0.06c-0.34-0.26-0.69-0.46-1.04-0.6c-0.36-0.14-0.71-0.21-1.05-0.21
		c-0.63,0-1.12,0.21-1.49,0.63c-0.36,0.42-0.54,1.04-0.54,1.85c0,0.79,0.18,1.4,0.53,1.82c0.35,0.42,0.85,0.64,1.5,0.64
		c0.22,0,0.45-0.03,0.68-0.09s0.44-0.13,0.62-0.23c0.16-0.08,0.31-0.17,0.45-0.26c0.14-0.09,0.25-0.17,0.33-0.24h0.06V48.6z"/>
	<path d="M455.87,45.85h-4.84c0,0.4,0.06,0.75,0.18,1.05c0.12,0.3,0.29,0.54,0.5,0.74c0.2,0.19,0.45,0.33,0.73,0.42
		c0.28,0.09,0.59,0.14,0.93,0.14c0.45,0,0.9-0.09,1.35-0.27s0.78-0.35,0.97-0.52h0.06v1.2c-0.37,0.16-0.75,0.29-1.14,0.39
		s-0.8,0.16-1.22,0.16c-1.09,0-1.94-0.29-2.55-0.88c-0.61-0.59-0.92-1.42-0.92-2.5c0-1.07,0.29-1.92,0.88-2.55
		c0.59-0.63,1.36-0.94,2.32-0.94c0.89,0,1.57,0.26,2.05,0.77s0.72,1.25,0.72,2.2V45.85z M454.8,45.01c0-0.58-0.15-1.03-0.44-1.34
		s-0.73-0.47-1.32-0.47c-0.59,0-1.06,0.17-1.42,0.52c-0.35,0.35-0.55,0.78-0.6,1.29H454.8z"/>
	<path d="M463.32,45.69c0,0.55-0.08,1.04-0.23,1.48c-0.16,0.44-0.36,0.8-0.63,1.1c-0.28,0.31-0.58,0.54-0.92,0.69
		c-0.33,0.15-0.7,0.23-1.1,0.23c-0.37,0-0.7-0.04-0.98-0.13s-0.55-0.21-0.82-0.35l-0.07,0.3h-1.04V39.9h1.11v3.26
		c0.31-0.25,0.64-0.46,0.99-0.62c0.35-0.16,0.74-0.24,1.18-0.24c0.78,0,1.39,0.3,1.84,0.89S463.32,44.61,463.32,45.69z
		 M462.17,45.72c0-0.78-0.13-1.37-0.39-1.78s-0.68-0.61-1.25-0.61c-0.32,0-0.65,0.07-0.98,0.21c-0.33,0.14-0.63,0.32-0.92,0.54v3.75
		c0.31,0.14,0.58,0.24,0.81,0.29s0.48,0.08,0.77,0.08c0.61,0,1.09-0.2,1.44-0.6C462,47.2,462.17,46.58,462.17,45.72z"/>
	<path d="M470.63,45.74c0,1.07-0.27,1.91-0.82,2.53c-0.55,0.62-1.28,0.93-2.21,0.93c-0.93,0-1.67-0.31-2.22-0.93
		c-0.55-0.62-0.82-1.46-0.82-2.53s0.27-1.91,0.82-2.53c0.55-0.62,1.29-0.93,2.22-0.93c0.92,0,1.66,0.31,2.21,0.93
		C470.36,43.83,470.63,44.68,470.63,45.74z M469.49,45.74c0-0.85-0.17-1.48-0.5-1.89c-0.33-0.41-0.8-0.62-1.39-0.62
		c-0.6,0-1.07,0.21-1.4,0.62c-0.33,0.41-0.5,1.04-0.5,1.89c0,0.82,0.17,1.44,0.5,1.87c0.33,0.42,0.8,0.64,1.39,0.64
		c0.59,0,1.05-0.21,1.39-0.63C469.33,47.2,469.49,46.57,469.49,45.74z"/>
</g>
</svg>
