<?xml version="1.0" encoding="utf-8"?>
<!-- Generator: Adobe Illustrator 24.2.0, SVG Export Plug-In . SVG Version: 6.00 Build 0)  -->
<svg version="1.1" id="Layer_1" xmlns="http://www.w3.org/2000/svg" xmlns:xlink="http://www.w3.org/1999/xlink" x="0px" y="0px"
	 viewBox="0 0 735.13 427.38" style="enable-background:new 0 0 735.13 427.38;" xml:space="preserve">
<style type="text/css">
	.st0{fill:#333333;}
	.st1{fill:none;stroke:#231F20;stroke-width:1.5;stroke-linejoin:round;stroke-miterlimit:10;}
	.st2{fill:none;stroke:#231F20;stroke-width:1.5;stroke-linejoin:round;stroke-miterlimit:10;stroke-dasharray:4.8316,3.6237;}
	.st3{fill:none;stroke:#868686;stroke-width:1.5;stroke-linejoin:round;stroke-miterlimit:10;}
	.st4{fill:none;stroke:#00417B;stroke-width:1.5;stroke-linejoin:round;stroke-miterlimit:10;}
	.st5{fill:none;stroke:#868686;stroke-width:1.5;stroke-linejoin:round;stroke-miterlimit:10;stroke-dasharray:4.8316,3.6237;}
	.st6{fill-rule:evenodd;clip-rule:evenodd;fill:#868686;}
	.st7{fill-rule:evenodd;clip-rule:evenodd;fill:#00417B;}
</style>
<g>
	<g>
		<path class="st0" d="M51.15,375.12v-6.04h0.72v7.12h-0.74l-4.25-6.03v6.03h-0.72v-7.12h0.77L51.15,375.12z"/>
		<path class="st0" d="M56.03,370.85c1.56,0,2.63,1.12,2.63,2.73s-1.07,2.73-2.63,2.73c-1.56,0-2.63-1.12-2.63-2.73
			S54.47,370.85,56.03,370.85z M56.03,371.47c-1.1,0-1.89,0.84-1.89,2.11s0.79,2.11,1.89,2.11c1.1,0,1.9-0.84,1.9-2.11
			S57.13,371.47,56.03,371.47z"/>
		<path class="st0" d="M60.59,375.12c0.32,0,0.6,0.26,0.6,0.59c0,0.32-0.28,0.6-0.6,0.6c-0.32,0-0.59-0.28-0.59-0.6
			C60,375.38,60.26,375.12,60.59,375.12z"/>
		<path class="st0" d="M67.44,370.85c1.56,0,2.63,1.12,2.63,2.73s-1.07,2.73-2.63,2.73c-1.56,0-2.63-1.12-2.63-2.73
			S65.88,370.85,67.44,370.85z M67.44,371.47c-1.1,0-1.89,0.84-1.89,2.11s0.79,2.11,1.89,2.11c1.1,0,1.9-0.84,1.9-2.11
			S68.54,371.47,67.44,371.47z"/>
		<path class="st0" d="M72.33,376.19h-0.72v-4.62h-0.8v-0.61h0.8v-1.31c0-1.09,0.56-1.74,1.61-1.74c0.4,0,0.68,0.08,0.94,0.26v0.68
			c-0.25-0.18-0.54-0.31-0.92-0.31c-0.55,0-0.9,0.26-0.9,1.12v1.29h1.44v0.61h-1.44V376.19z"/>
		<path class="st0" d="M77.84,376.19H77.1v-7.14c0.32-0.05,0.84-0.11,1.26-0.11c1.97,0,2.79,0.91,2.79,2.25
			c0,1.52-1.07,2.35-2.85,2.35c-0.13,0-0.3-0.01-0.46-0.02V376.19z M77.84,372.91c0.13,0.01,0.26,0.01,0.38,0.01
			c1.48,0,2.17-0.56,2.17-1.71c0-0.92-0.54-1.62-2.07-1.62c-0.14,0-0.31,0.01-0.48,0.02V372.91z"/>
		<path class="st0" d="M85.07,372.54c0-0.67-0.43-1.02-1.1-1.02c-0.6,0-1.06,0.17-1.54,0.42v-0.68c0.44-0.24,1.01-0.41,1.62-0.41
			c1.06,0,1.74,0.47,1.74,1.64v3.61c-0.48,0.13-1.04,0.19-1.49,0.19c-1.42,0-2.36-0.44-2.36-1.55c0-1.03,0.95-1.57,2.54-1.57h0.59
			V372.54z M85.07,373.76h-0.54c-1.08,0-1.87,0.29-1.87,0.98s0.72,0.95,1.68,0.95c0.22,0,0.48-0.02,0.73-0.07V373.76z"/>
		<path class="st0" d="M86.78,370.97h0.8v-1.27h0.72v1.27h1.48v0.61h-1.48v3.19c0,0.67,0.26,0.93,0.76,0.93
			c0.34,0,0.61-0.11,0.97-0.29v0.64c-0.31,0.16-0.67,0.26-1.13,0.26c-0.76,0-1.32-0.4-1.32-1.48v-3.26h-0.8V370.97z"/>
		<path class="st0" d="M91.11,369.33c0-0.3,0.25-0.54,0.54-0.54c0.3,0,0.54,0.24,0.54,0.54c0,0.29-0.24,0.54-0.54,0.54
			C91.37,369.87,91.11,369.62,91.11,369.33z M92.01,376.19h-0.72v-5.23h0.72V376.19z"/>
		<path class="st0" d="M94.14,373.62v0.02c0,1.28,0.92,2.04,1.94,2.04c0.74,0,1.26-0.19,1.79-0.59v0.72
			c-0.47,0.35-1.14,0.5-1.79,0.5c-1.51,0-2.66-1.03-2.66-2.73c0-1.57,1.08-2.73,2.48-2.73c1.32,0,2.2,0.79,2.2,2.28v0.49H94.14z
			 M97.38,373.02c-0.05-1.09-0.64-1.54-1.51-1.54c-0.82,0-1.47,0.55-1.68,1.54H97.38z"/>
		<path class="st0" d="M99.48,371.24c0.7-0.25,1.49-0.4,2.2-0.4c1.32,0,2.12,0.52,2.12,1.82v3.53h-0.72v-3.38
			c0-1.07-0.75-1.3-1.46-1.3c-0.55,0-1.04,0.1-1.42,0.19v4.49h-0.72V371.24z"/>
		<path class="st0" d="M104.82,370.97h0.8v-1.27h0.72v1.27h1.48v0.61h-1.48v3.19c0,0.67,0.26,0.93,0.76,0.93
			c0.34,0,0.61-0.11,0.97-0.29v0.64c-0.31,0.16-0.67,0.26-1.13,0.26c-0.76,0-1.32-0.4-1.32-1.48v-3.26h-0.8V370.97z"/>
		<path class="st0" d="M109.02,375.08c0.44,0.4,0.9,0.62,1.47,0.62c0.66,0,1.08-0.25,1.08-0.84c0-0.62-0.46-0.79-1.28-1.07
			c-0.92-0.31-1.32-0.7-1.32-1.54c0-0.92,0.7-1.42,1.64-1.42c0.52,0,1.02,0.11,1.43,0.4v0.78c-0.41-0.34-0.83-0.56-1.43-0.56
			c-0.58,0-0.95,0.31-0.95,0.8c0,0.48,0.29,0.73,1.09,0.98c0.91,0.28,1.52,0.62,1.52,1.57c0,1.03-0.8,1.5-1.79,1.5
			c-0.59,0-1.15-0.17-1.47-0.42V375.08z"/>
	</g>
</g>
<g>
	<g>
		<path class="st0" d="M69.47,399.14h-0.74v-7.14c0.32-0.05,0.84-0.11,1.26-0.11c1.97,0,2.79,0.91,2.79,2.25
			c0,1.52-1.07,2.35-2.85,2.35c-0.13,0-0.3-0.01-0.46-0.02V399.14z M69.47,395.86c0.13,0.01,0.26,0.01,0.38,0.01
			c1.48,0,2.17-0.56,2.17-1.71c0-0.92-0.54-1.62-2.07-1.62c-0.14,0-0.31,0.01-0.48,0.02V395.86z"/>
		<path class="st0" d="M74.11,392.01c0.48-0.06,1.02-0.11,1.44-0.11c1.8,0,2.58,0.7,2.58,1.93c0,0.92-0.59,1.56-1.5,1.67
			c1.1,0.07,1.79,0.68,1.79,1.73c0,1.15-0.79,2.04-2.87,2.04c-0.48,0-0.97-0.05-1.44-0.13V392.01z M74.84,395.22h0.64
			c1.2,0,1.92-0.47,1.92-1.39c0-0.89-0.68-1.32-1.86-1.32c-0.2,0-0.44,0.01-0.7,0.04V395.22z M74.84,398.6
			c0.29,0.04,0.53,0.05,0.71,0.05c1.51,0,2.13-0.54,2.13-1.43c0-0.95-0.83-1.37-2.1-1.37h-0.74V398.6z"/>
		<path class="st0" d="M83.12,391.9c2.05,0,3.68,1.5,3.68,3.68c0,2.18-1.63,3.68-3.68,3.68s-3.68-1.5-3.68-3.68
			C79.43,393.4,81.07,391.9,83.12,391.9z M83.12,392.57c-1.61,0-2.93,1.17-2.93,3.01s1.32,3.01,2.93,3.01s2.93-1.18,2.93-3.01
			S84.72,392.57,83.12,392.57z"/>
		<path class="st0" d="M87.82,395.95v-0.64h1.96v-1.96h0.64v1.96h1.96v0.64h-1.96v1.96h-0.64v-1.96H87.82z"/>
		<path class="st0" d="M93.35,397.89c0.58,0.46,1.09,0.73,1.81,0.73c0.85,0,1.58-0.37,1.58-1.31c0-0.85-0.63-1.17-1.49-1.49
			c-1.27-0.47-1.96-0.89-1.96-2.1c0-1.21,1.01-1.83,2.07-1.83c0.7,0,1.27,0.22,1.7,0.56v0.77c-0.58-0.46-1.05-0.7-1.7-0.7
			c-0.8,0-1.35,0.48-1.35,1.21c0,0.68,0.41,1.02,1.44,1.38c1.32,0.46,2.02,0.95,2.02,2.19c0,1.31-1.03,1.94-2.32,1.94
			c-0.77,0-1.38-0.22-1.81-0.55V397.89z"/>
		<path class="st0" d="M102.22,391.9c2.05,0,3.68,1.5,3.68,3.68c0,2.18-1.63,3.68-3.68,3.68s-3.68-1.5-3.68-3.68
			C98.54,393.4,100.17,391.9,102.22,391.9z M102.22,392.57c-1.61,0-2.93,1.17-2.93,3.01s1.32,3.01,2.93,3.01s2.93-1.18,2.93-3.01
			S103.83,392.57,102.22,392.57z"/>
		<path class="st0" d="M112.63,393.3c-0.52-0.49-1.22-0.73-1.98-0.73c-1.61,0-2.92,1.17-2.92,3.01s1.31,3.01,2.92,3.01
			c0.75,0,1.5-0.23,2.01-0.71v0.85c-0.56,0.34-1.28,0.53-2,0.53c-2.16,0-3.68-1.5-3.68-3.68c0-2.19,1.63-3.68,3.68-3.68
			c0.72,0,1.39,0.19,1.97,0.54V393.3z"/>
	</g>
</g>
<g>
	<g>
		<path class="st0" d="M5.37,418.77c0-1.03,0.83-1.7,1.56-1.85c-0.61-0.18-1.15-0.76-1.15-1.59c0-1.21,0.91-1.86,1.97-1.86
			s1.97,0.65,1.97,1.86c0,0.84-0.54,1.42-1.15,1.59c0.73,0.14,1.56,0.82,1.56,1.85c0,1.32-1.06,2.06-2.38,2.06
			S5.37,420.09,5.37,418.77z M9.37,418.77c0-0.96-0.73-1.54-1.62-1.54s-1.62,0.58-1.62,1.54c0,0.98,0.73,1.46,1.62,1.46
			S9.37,419.76,9.37,418.77z M9,415.32c0-0.79-0.58-1.27-1.26-1.27s-1.26,0.48-1.26,1.27c0,0.78,0.58,1.25,1.26,1.25
			S9,416.1,9,415.32z"/>
		<path class="st0" d="M15.15,418.13h1.35v0.61h-1.35v1.98h-0.71v-1.98h-3.53v-0.61l3.37-4.53h0.86V418.13z M11.68,418.13h2.76
			v-3.75L11.68,418.13z"/>
		<path class="st0" d="M26.52,417.22c0-0.97-0.66-1.2-1.22-1.2c-0.62,0-1.22,0.16-1.54,0.3c0.1,0.23,0.16,0.52,0.16,0.86v3.54H23.2
			v-3.5c0-0.97-0.64-1.2-1.24-1.2c-0.59,0-1.05,0.12-1.38,0.24v4.46h-0.72v-4.89c0.68-0.28,1.4-0.46,2.1-0.46
			c0.61,0,1.08,0.13,1.4,0.41c0.62-0.24,1.3-0.41,1.93-0.41c1.26,0,1.94,0.52,1.94,1.82v3.53h-0.72V417.22z"/>
		<path class="st0" d="M32.58,420.54c-0.18,0.12-0.66,0.23-1.08,0.23c-1.71,0-2.91-0.9-2.91-2.69c0-1.69,1.17-2.71,3.01-2.71
			c0.54,0,1.26,0.14,1.7,0.33v5.07c0,1.6-1.2,2.22-2.4,2.22c-0.64,0-1.24-0.14-1.62-0.32v-0.68c0.46,0.22,1.06,0.4,1.62,0.4
			c0.86,0,1.68-0.42,1.68-1.74V420.54z M32.58,416.18c-0.29-0.1-0.61-0.16-0.98-0.16c-1.45,0-2.29,0.77-2.29,2.05
			c0,1.26,0.84,2.05,2.19,2.05c0.43,0,0.72-0.07,1.08-0.2V416.18z"/>
		<path class="st0" d="M36.99,419.47c0.58,0.46,1.09,0.73,1.81,0.73c0.85,0,1.58-0.37,1.58-1.31c0-0.85-0.64-1.17-1.49-1.49
			c-1.27-0.47-1.96-0.89-1.96-2.1c0-1.21,1.01-1.83,2.07-1.83c0.7,0,1.27,0.22,1.7,0.56v0.77c-0.58-0.46-1.05-0.7-1.7-0.7
			c-0.8,0-1.35,0.48-1.35,1.21c0,0.68,0.41,1.02,1.44,1.38c1.32,0.46,2.02,0.95,2.02,2.19c0,1.31-1.03,1.94-2.32,1.94
			c-0.77,0-1.38-0.22-1.81-0.55V419.47z"/>
		<path class="st0" d="M43.4,420.72h-0.74v-7.14c0.32-0.05,0.84-0.11,1.26-0.11c1.97,0,2.79,0.91,2.79,2.25
			c0,1.52-1.07,2.35-2.85,2.35c-0.13,0-0.3-0.01-0.46-0.02V420.72z M43.4,417.43c0.13,0.01,0.26,0.01,0.38,0.01
			c1.48,0,2.17-0.56,2.17-1.71c0-0.92-0.54-1.62-2.07-1.62c-0.14,0-0.31,0.01-0.48,0.02V417.43z"/>
		<path class="st0" d="M48.77,420.72h-0.74v-7.14c0.32-0.05,0.94-0.11,1.36-0.11c1.92,0,2.77,0.89,2.77,2.21
			c0,1.06-0.6,1.83-1.55,2.11l2.36,2.93h-0.92l-2.21-2.76h-1.07V420.72z M48.77,417.35h0.74c1.17,0,1.87-0.55,1.87-1.64
			c0-0.91-0.56-1.58-2.02-1.58c-0.14,0-0.43,0.01-0.6,0.02V417.35z"/>
		<path class="st0" d="M54.61,418.75l-0.74,1.97H53.1l2.76-7.12h0.95l2.79,7.12H58.8l-0.74-1.97H54.61z M56.32,414.19l-1.49,3.93
			h2.99L56.32,414.19z"/>
		<path class="st0" d="M62.59,420.72l-2.75-7.12h0.8l2.4,6.38l2.4-6.38h0.78l-2.75,7.12H62.59z"/>
		<path class="st0" d="M67.97,418.75l-0.74,1.97h-0.77l2.76-7.12h0.95l2.79,7.12h-0.79l-0.74-1.97H67.97z M69.69,414.19l-1.49,3.93
			h2.99L69.69,414.19z"/>
		<path class="st0" d="M76.36,420.72h-0.74v-6.48h-2.35v-0.65h5.45v0.65h-2.35V420.72z"/>
		<path class="st0" d="M83.12,413.47c2.05,0,3.68,1.5,3.68,3.68c0,2.18-1.63,3.68-3.68,3.68s-3.68-1.5-3.68-3.68
			C79.44,414.97,81.07,413.47,83.12,413.47z M83.12,414.14c-1.61,0-2.93,1.17-2.93,3.01c0,1.84,1.32,3.01,2.93,3.01
			s2.93-1.17,2.93-3.01C86.04,415.32,84.72,414.14,83.12,414.14z"/>
		<path class="st0" d="M87.82,417.53v-0.64h1.96v-1.96h0.64v1.96h1.96v0.64h-1.96v1.96h-0.64v-1.96H87.82z"/>
		<path class="st0" d="M93.36,419.47c0.58,0.46,1.09,0.73,1.81,0.73c0.85,0,1.58-0.37,1.58-1.31c0-0.85-0.64-1.17-1.49-1.49
			c-1.27-0.47-1.96-0.89-1.96-2.1c0-1.21,1.01-1.83,2.07-1.83c0.7,0,1.27,0.22,1.7,0.56v0.77c-0.58-0.46-1.05-0.7-1.7-0.7
			c-0.8,0-1.35,0.48-1.35,1.21c0,0.68,0.41,1.02,1.44,1.38c1.32,0.46,2.02,0.95,2.02,2.19c0,1.31-1.03,1.94-2.32,1.94
			c-0.77,0-1.38-0.22-1.81-0.55V419.47z"/>
		<path class="st0" d="M102.22,413.47c2.05,0,3.68,1.5,3.68,3.68c0,2.18-1.63,3.68-3.68,3.68s-3.68-1.5-3.68-3.68
			C98.54,414.97,100.17,413.47,102.22,413.47z M102.22,414.14c-1.61,0-2.93,1.17-2.93,3.01c0,1.84,1.32,3.01,2.93,3.01
			s2.93-1.17,2.93-3.01C105.15,415.32,103.83,414.14,102.22,414.14z"/>
		<path class="st0" d="M112.64,414.88c-0.52-0.49-1.22-0.73-1.98-0.73c-1.61,0-2.92,1.17-2.92,3.01c0,1.84,1.31,3.01,2.92,3.01
			c0.75,0,1.5-0.23,2.01-0.71v0.85c-0.56,0.34-1.28,0.53-2,0.53c-2.16,0-3.68-1.5-3.68-3.68c0-2.19,1.63-3.68,3.68-3.68
			c0.72,0,1.39,0.19,1.97,0.54V414.88z"/>
	</g>
</g>
<g>
	<path class="st0" d="M121.05,413.88l2.22-0.4v7.23h-0.73v-6.42l-1.49,0.23V413.88z"/>
	<path class="st0" d="M127.76,413.47c1.63,0,2.65,1.55,2.65,3.68c0,2.14-1.02,3.68-2.65,3.68s-2.65-1.55-2.65-3.68
		C125.11,415.02,126.13,413.47,127.76,413.47z M127.76,420.2c1.15,0,1.91-1.26,1.91-3.05c0-1.79-0.76-3.05-1.91-3.05
		s-1.91,1.26-1.91,3.05C125.86,418.94,126.61,420.2,127.76,420.2z"/>
	<path class="st0" d="M134.27,413.47c1.63,0,2.65,1.55,2.65,3.68c0,2.14-1.02,3.68-2.65,3.68s-2.65-1.55-2.65-3.68
		C131.62,415.02,132.64,413.47,134.27,413.47z M134.27,420.2c1.15,0,1.91-1.26,1.91-3.05c0-1.79-0.76-3.05-1.91-3.05
		s-1.91,1.26-1.91,3.05C132.36,418.94,133.12,420.2,134.27,420.2z"/>
</g>
<g>
	<path class="st0" d="M130.11,399.14l1.57-2.39l0.61-0.86c-0.37,0.44-0.86,0.65-1.48,0.65c-1.19,0-2.27-0.82-2.27-2.31
		c0-1.25,0.89-2.33,2.43-2.33c1.52,0,2.38,1.08,2.38,2.33c0,0.86-0.34,1.62-0.84,2.4l-1.63,2.52H130.11z M130.97,392.5
		c-0.97,0-1.69,0.66-1.69,1.71c0,1.03,0.71,1.7,1.68,1.7c0.95,0,1.67-0.67,1.67-1.7C132.62,393.16,131.89,392.5,130.97,392.5z"/>
	<path class="st0" d="M134.05,392.31l2.22-0.4v7.23h-0.73v-6.42l-1.49,0.23V392.31z"/>
</g>
<g>
	<path class="st0" d="M146.69,420.72l1.57-2.39l0.61-0.86c-0.37,0.44-0.86,0.65-1.48,0.65c-1.19,0-2.27-0.82-2.27-2.31
		c0-1.25,0.89-2.33,2.43-2.33c1.52,0,2.38,1.08,2.38,2.33c0,0.86-0.34,1.62-0.84,2.4l-1.63,2.52H146.69z M147.55,414.07
		c-0.97,0-1.69,0.66-1.69,1.71c0,1.03,0.71,1.7,1.68,1.7c0.95,0,1.67-0.67,1.67-1.7C149.2,414.73,148.47,414.07,147.55,414.07z"/>
	<path class="st0" d="M152.43,420.72l1.57-2.39l0.61-0.86c-0.37,0.44-0.86,0.65-1.48,0.65c-1.19,0-2.27-0.82-2.27-2.31
		c0-1.25,0.89-2.33,2.43-2.33c1.52,0,2.38,1.08,2.38,2.33c0,0.86-0.34,1.62-0.84,2.4l-1.63,2.52H152.43z M153.3,414.07
		c-0.97,0-1.69,0.66-1.69,1.71c0,1.03,0.71,1.7,1.68,1.7c0.95,0,1.67-0.67,1.67-1.7C154.95,414.73,154.22,414.07,153.3,414.07z"/>
</g>
<g>
	<path class="st0" d="M146.69,399.14l1.57-2.39l0.61-0.86c-0.37,0.44-0.86,0.65-1.48,0.65c-1.19,0-2.27-0.82-2.27-2.31
		c0-1.25,0.89-2.33,2.43-2.33c1.52,0,2.38,1.08,2.38,2.33c0,0.86-0.34,1.62-0.84,2.4l-1.63,2.52H146.69z M147.55,392.5
		c-0.97,0-1.69,0.66-1.69,1.71c0,1.03,0.71,1.7,1.68,1.7c0.95,0,1.67-0.67,1.67-1.7C149.2,393.16,148.47,392.5,147.55,392.5z"/>
	<path class="st0" d="M150.63,392.31l2.22-0.4v7.23h-0.73v-6.42l-1.49,0.23V392.31z"/>
</g>
<g>
	<path class="st0" d="M161.83,413.88l2.22-0.4v7.23h-0.73v-6.42l-1.49,0.23V413.88z"/>
	<path class="st0" d="M168.55,413.47c1.63,0,2.65,1.55,2.65,3.68c0,2.14-1.02,3.68-2.65,3.68s-2.65-1.55-2.65-3.68
		C165.9,415.02,166.92,413.47,168.55,413.47z M168.55,420.2c1.15,0,1.91-1.26,1.91-3.05c0-1.79-0.76-3.05-1.91-3.05
		s-1.91,1.26-1.91,3.05C166.64,418.94,167.4,420.2,168.55,420.2z"/>
	<path class="st0" d="M175.05,413.47c1.63,0,2.65,1.55,2.65,3.68c0,2.14-1.02,3.68-2.65,3.68s-2.65-1.55-2.65-3.68
		C172.4,415.02,173.42,413.47,175.05,413.47z M175.05,420.2c1.15,0,1.91-1.26,1.91-3.05c0-1.79-0.76-3.05-1.91-3.05
		s-1.91,1.26-1.91,3.05C173.15,418.94,173.9,420.2,175.05,420.2z"/>
</g>
<g>
	<path class="st0" d="M163.63,399.14l1.57-2.39l0.61-0.86c-0.37,0.44-0.86,0.65-1.48,0.65c-1.19,0-2.27-0.82-2.27-2.31
		c0-1.25,0.89-2.33,2.43-2.33c1.52,0,2.38,1.08,2.38,2.33c0,0.86-0.34,1.62-0.84,2.4l-1.63,2.52H163.63z M164.49,392.5
		c-0.97,0-1.69,0.66-1.69,1.71c0,1.03,0.71,1.7,1.68,1.7c0.95,0,1.67-0.67,1.67-1.7C166.15,393.16,165.42,392.5,164.49,392.5z"/>
	<path class="st0" d="M170.64,391.9c1.63,0,2.65,1.55,2.65,3.68c0,2.14-1.02,3.68-2.65,3.68s-2.65-1.55-2.65-3.68
		C167.99,393.44,169.01,391.9,170.64,391.9z M170.64,398.63c1.15,0,1.91-1.26,1.91-3.05c0-1.79-0.76-3.05-1.91-3.05
		s-1.91,1.26-1.91,3.05C168.73,397.37,169.49,398.63,170.64,398.63z"/>
</g>
<g>
	<path class="st0" d="M183.5,413.88l2.22-0.4v7.23h-0.73v-6.42l-1.49,0.23V413.88z"/>
	<path class="st0" d="M190.22,413.47c1.63,0,2.65,1.55,2.65,3.68c0,2.14-1.02,3.68-2.65,3.68s-2.65-1.55-2.65-3.68
		C187.57,415.02,188.59,413.47,190.22,413.47z M190.22,420.2c1.15,0,1.91-1.26,1.91-3.05c0-1.79-0.76-3.05-1.91-3.05
		s-1.91,1.26-1.91,3.05C188.31,418.94,189.07,420.2,190.22,420.2z"/>
	<path class="st0" d="M196.72,413.47c1.63,0,2.65,1.55,2.65,3.68c0,2.14-1.02,3.68-2.65,3.68s-2.65-1.55-2.65-3.68
		C194.07,415.02,195.09,413.47,196.72,413.47z M196.72,420.2c1.15,0,1.91-1.26,1.91-3.05c0-1.79-0.76-3.05-1.91-3.05
		s-1.91,1.26-1.91,3.05C194.82,418.94,195.57,420.2,196.72,420.2z"/>
</g>
<g>
	<path class="st0" d="M185.3,399.14l1.57-2.39l0.61-0.86c-0.37,0.44-0.86,0.65-1.48,0.65c-1.19,0-2.27-0.82-2.27-2.31
		c0-1.25,0.89-2.33,2.43-2.33c1.52,0,2.38,1.08,2.38,2.33c0,0.86-0.34,1.62-0.84,2.4l-1.63,2.52H185.3z M186.16,392.5
		c-0.97,0-1.69,0.66-1.69,1.71c0,1.03,0.71,1.7,1.68,1.7c0.95,0,1.67-0.67,1.67-1.7C187.82,393.16,187.09,392.5,186.16,392.5z"/>
	<path class="st0" d="M189.25,392.31l2.22-0.4v7.23h-0.73v-6.42l-1.49,0.23V392.31z"/>
</g>
<g>
	<path class="st0" d="M211.64,420.72l1.57-2.39l0.61-0.86c-0.37,0.44-0.86,0.65-1.48,0.65c-1.19,0-2.27-0.82-2.27-2.31
		c0-1.25,0.89-2.33,2.43-2.33c1.52,0,2.38,1.08,2.38,2.33c0,0.86-0.34,1.62-0.84,2.4l-1.63,2.52H211.64z M212.5,414.07
		c-0.97,0-1.69,0.66-1.69,1.71c0,1.03,0.71,1.7,1.68,1.7c0.95,0,1.67-0.67,1.67-1.7C214.16,414.73,213.43,414.07,212.5,414.07z"/>
	<path class="st0" d="M215.52,414.24v-0.65h4.39v0.65l-3.11,6.48h-0.76l3.11-6.48H215.52z"/>
</g>
<g>
	<path class="st0" d="M212.23,399.14l1.57-2.39l0.61-0.86c-0.37,0.44-0.86,0.65-1.48,0.65c-1.19,0-2.27-0.82-2.27-2.31
		c0-1.25,0.89-2.33,2.43-2.33c1.52,0,2.38,1.08,2.38,2.33c0,0.86-0.34,1.62-0.84,2.4l-1.63,2.52H212.23z M213.09,392.5
		c-0.97,0-1.69,0.66-1.69,1.71c0,1.03,0.71,1.7,1.68,1.7c0.95,0,1.67-0.67,1.67-1.7C214.75,393.16,214.02,392.5,213.09,392.5z"/>
	<path class="st0" d="M216.18,392.31l2.22-0.4v7.23h-0.73v-6.42l-1.49,0.23V392.31z"/>
</g>
<g>
	<path class="st0" d="M231.6,420.72l1.57-2.39l0.61-0.86c-0.37,0.44-0.86,0.65-1.48,0.65c-1.19,0-2.27-0.82-2.27-2.31
		c0-1.25,0.89-2.33,2.43-2.33c1.52,0,2.38,1.08,2.38,2.33c0,0.86-0.34,1.62-0.84,2.4l-1.63,2.52H231.6z M232.46,414.07
		c-0.97,0-1.69,0.66-1.69,1.71c0,1.03,0.71,1.7,1.68,1.7c0.95,0,1.67-0.67,1.67-1.7C234.12,414.73,233.39,414.07,232.46,414.07z"/>
	<path class="st0" d="M239.9,418.13h1.35v0.61h-1.35v1.98h-0.71v-1.98h-3.53v-0.61l3.37-4.53h0.86V418.13z M236.44,418.13h2.76
		v-3.75L236.44,418.13z"/>
</g>
<g>
	<path class="st0" d="M232.81,399.14l1.57-2.39l0.61-0.86c-0.37,0.44-0.86,0.65-1.48,0.65c-1.19,0-2.27-0.82-2.27-2.31
		c0-1.25,0.89-2.33,2.43-2.33c1.52,0,2.38,1.08,2.38,2.33c0,0.86-0.34,1.62-0.84,2.4l-1.63,2.52H232.81z M233.67,392.5
		c-0.97,0-1.69,0.66-1.69,1.71c0,1.03,0.71,1.7,1.68,1.7c0.95,0,1.67-0.67,1.67-1.7C235.33,393.16,234.6,392.5,233.67,392.5z"/>
	<path class="st0" d="M236.76,392.31l2.22-0.4v7.23h-0.73v-6.42l-1.49,0.23V392.31z"/>
</g>
<g>
	<path class="st0" d="M260.03,420.72l1.57-2.39l0.61-0.86c-0.37,0.44-0.86,0.65-1.48,0.65c-1.19,0-2.27-0.82-2.27-2.31
		c0-1.25,0.89-2.33,2.43-2.33c1.52,0,2.38,1.08,2.38,2.33c0,0.86-0.34,1.62-0.84,2.4l-1.63,2.52H260.03z M260.9,414.07
		c-0.97,0-1.69,0.66-1.69,1.71c0,1.03,0.71,1.7,1.68,1.7c0.95,0,1.67-0.67,1.67-1.7C262.55,414.73,261.82,414.07,260.9,414.07z"/>
	<path class="st0" d="M265.78,420.72l1.57-2.39l0.61-0.86c-0.37,0.44-0.86,0.65-1.48,0.65c-1.19,0-2.27-0.82-2.27-2.31
		c0-1.25,0.89-2.33,2.43-2.33c1.52,0,2.38,1.08,2.38,2.33c0,0.86-0.34,1.62-0.84,2.4l-1.63,2.52H265.78z M266.64,414.07
		c-0.97,0-1.69,0.66-1.69,1.71c0,1.03,0.71,1.7,1.68,1.7c0.95,0,1.67-0.67,1.67-1.7C268.3,414.73,267.57,414.07,266.64,414.07z"/>
</g>
<g>
	<path class="st0" d="M258.56,397.2c0-1.03,0.83-1.7,1.56-1.85c-0.61-0.18-1.15-0.76-1.15-1.59c0-1.21,0.91-1.86,1.97-1.86
		s1.97,0.65,1.97,1.86c0,0.84-0.54,1.42-1.15,1.59c0.73,0.14,1.56,0.82,1.56,1.85c0,1.32-1.06,2.06-2.38,2.06
		S258.56,398.52,258.56,397.2z M262.55,397.2c0-0.96-0.73-1.54-1.62-1.54s-1.62,0.58-1.62,1.54c0,0.98,0.73,1.46,1.62,1.46
		S262.55,398.18,262.55,397.2z M262.19,393.74c0-0.79-0.58-1.27-1.26-1.27s-1.26,0.48-1.26,1.27c0,0.78,0.58,1.25,1.26,1.25
		S262.19,394.52,262.19,393.74z"/>
	<path class="st0" d="M264.27,397.2c0-1.03,0.83-1.7,1.56-1.85c-0.61-0.18-1.15-0.76-1.15-1.59c0-1.21,0.91-1.86,1.97-1.86
		s1.97,0.65,1.97,1.86c0,0.84-0.54,1.42-1.15,1.59c0.73,0.14,1.56,0.82,1.56,1.85c0,1.32-1.06,2.06-2.38,2.06
		S264.27,398.52,264.27,397.2z M268.26,397.2c0-0.96-0.73-1.54-1.62-1.54s-1.62,0.58-1.62,1.54c0,0.98,0.73,1.46,1.62,1.46
		S268.26,398.18,268.26,397.2z M267.9,393.74c0-0.79-0.58-1.27-1.26-1.27s-1.26,0.48-1.26,1.27c0,0.78,0.58,1.25,1.26,1.25
		S267.9,394.52,267.9,393.74z"/>
</g>
<g>
	<path class="st0" d="M281.69,420.72l1.57-2.39l0.61-0.86c-0.37,0.44-0.86,0.65-1.48,0.65c-1.19,0-2.27-0.82-2.27-2.31
		c0-1.25,0.89-2.33,2.43-2.33c1.52,0,2.38,1.08,2.38,2.33c0,0.86-0.34,1.62-0.84,2.4l-1.63,2.52H281.69z M282.55,414.07
		c-0.97,0-1.69,0.66-1.69,1.71c0,1.03,0.71,1.7,1.68,1.7c0.95,0,1.67-0.67,1.67-1.7C284.2,414.73,283.47,414.07,282.55,414.07z"/>
	<path class="st0" d="M285.56,414.24v-0.65h4.39v0.65l-3.11,6.48h-0.76l3.11-6.48H285.56z"/>
</g>
<g>
	<path class="st0" d="M280.19,397.2c0-1.03,0.83-1.7,1.56-1.85c-0.61-0.18-1.15-0.76-1.15-1.59c0-1.21,0.91-1.86,1.97-1.86
		s1.97,0.65,1.97,1.86c0,0.84-0.54,1.42-1.15,1.59c0.73,0.14,1.56,0.82,1.56,1.85c0,1.32-1.06,2.06-2.38,2.06
		S280.19,398.52,280.19,397.2z M284.19,397.2c0-0.96-0.73-1.54-1.62-1.54s-1.62,0.58-1.62,1.54c0,0.98,0.73,1.46,1.62,1.46
		S284.19,398.18,284.19,397.2z M283.83,393.74c0-0.79-0.58-1.27-1.26-1.27s-1.26,0.48-1.26,1.27c0,0.78,0.58,1.25,1.26,1.25
		S283.83,394.52,283.83,393.74z"/>
	<path class="st0" d="M285.54,392.67v-0.65h4.39v0.65l-3.11,6.48h-0.76l3.11-6.48H285.54z"/>
</g>
<g>
	<path class="st0" d="M305.54,420.72l1.57-2.39l0.61-0.86c-0.37,0.44-0.86,0.65-1.48,0.65c-1.19,0-2.27-0.82-2.27-2.31
		c0-1.25,0.89-2.33,2.43-2.33c1.52,0,2.38,1.08,2.38,2.33c0,0.86-0.34,1.62-0.84,2.4l-1.63,2.52H305.54z M306.4,414.07
		c-0.97,0-1.69,0.66-1.69,1.71c0,1.03,0.71,1.7,1.68,1.7c0.95,0,1.67-0.67,1.67-1.7C308.05,414.73,307.32,414.07,306.4,414.07z"/>
	<path class="st0" d="M311.28,420.72l1.57-2.39l0.61-0.86c-0.37,0.44-0.86,0.65-1.48,0.65c-1.19,0-2.27-0.82-2.27-2.31
		c0-1.25,0.89-2.33,2.43-2.33c1.52,0,2.38,1.08,2.38,2.33c0,0.86-0.34,1.62-0.84,2.4l-1.63,2.52H311.28z M312.15,414.07
		c-0.97,0-1.69,0.66-1.69,1.71c0,1.03,0.71,1.7,1.68,1.7c0.95,0,1.67-0.67,1.67-1.7C313.8,414.73,313.07,414.07,312.15,414.07z"/>
</g>
<g>
	<path class="st0" d="M304.06,397.2c0-1.03,0.83-1.7,1.56-1.85c-0.61-0.18-1.15-0.76-1.15-1.59c0-1.21,0.91-1.86,1.97-1.86
		s1.97,0.65,1.97,1.86c0,0.84-0.54,1.42-1.15,1.59c0.73,0.14,1.56,0.82,1.56,1.85c0,1.32-1.06,2.06-2.38,2.06
		S304.06,398.52,304.06,397.2z M308.05,397.2c0-0.96-0.73-1.54-1.62-1.54s-1.62,0.58-1.62,1.54c0,0.98,0.73,1.46,1.62,1.46
		S308.05,398.18,308.05,397.2z M307.69,393.74c0-0.79-0.58-1.27-1.26-1.27s-1.26,0.48-1.26,1.27c0,0.78,0.58,1.25,1.26,1.25
		S307.69,394.52,307.69,393.74z"/>
	<path class="st0" d="M311.28,399.14l1.57-2.39l0.61-0.86c-0.37,0.44-0.86,0.65-1.48,0.65c-1.19,0-2.27-0.82-2.27-2.31
		c0-1.25,0.89-2.33,2.43-2.33c1.52,0,2.38,1.08,2.38,2.33c0,0.86-0.34,1.62-0.84,2.4l-1.63,2.52H311.28z M312.15,392.5
		c-0.97,0-1.69,0.66-1.69,1.71c0,1.03,0.71,1.7,1.68,1.7c0.95,0,1.67-0.67,1.67-1.7C313.8,393.16,313.07,392.5,312.15,392.5z"/>
</g>
<g>
	<path class="st0" d="M332.16,420.72l1.57-2.39l0.61-0.86c-0.37,0.44-0.86,0.65-1.48,0.65c-1.19,0-2.27-0.82-2.27-2.31
		c0-1.25,0.89-2.33,2.43-2.33c1.52,0,2.38,1.08,2.38,2.33c0,0.86-0.34,1.62-0.84,2.4l-1.63,2.52H332.16z M333.03,414.07
		c-0.97,0-1.69,0.66-1.69,1.71c0,1.03,0.71,1.7,1.68,1.7c0.95,0,1.67-0.67,1.67-1.7C334.68,414.73,333.95,414.07,333.03,414.07z"/>
	<path class="st0" d="M337.35,416.33c1.63,0.2,2.9,0.82,2.9,2.41c0,1.09-0.78,2.1-2.48,2.1c-0.62,0-1.2-0.18-1.61-0.46v-0.7
		c0.5,0.34,1.04,0.54,1.59,0.54c1.15,0,1.75-0.61,1.75-1.49c0-1.3-1.22-1.69-2.84-1.87l0.23-3.27h3.18v0.65h-2.58L337.35,416.33z"/>
</g>
<g>
	<path class="st0" d="M330.47,399.14l1.57-2.39l0.61-0.86c-0.37,0.44-0.86,0.65-1.48,0.65c-1.19,0-2.27-0.82-2.27-2.31
		c0-1.25,0.89-2.33,2.43-2.33c1.52,0,2.38,1.08,2.38,2.33c0,0.86-0.34,1.62-0.84,2.4l-1.63,2.52H330.47z M331.33,392.5
		c-0.97,0-1.69,0.66-1.69,1.71c0,1.03,0.71,1.7,1.68,1.7c0.95,0,1.67-0.67,1.67-1.7C332.99,393.16,332.26,392.5,331.33,392.5z"/>
	<path class="st0" d="M337.48,391.9c1.63,0,2.65,1.55,2.65,3.68c0,2.14-1.02,3.68-2.65,3.68s-2.65-1.55-2.65-3.68
		C334.83,393.44,335.85,391.9,337.48,391.9z M337.48,398.63c1.15,0,1.91-1.26,1.91-3.05c0-1.79-0.76-3.05-1.91-3.05
		s-1.91,1.26-1.91,3.05C335.57,397.37,336.33,398.63,337.48,398.63z"/>
</g>
<g>
	<path class="st0" d="M348.16,420.72l1.57-2.39l0.61-0.86c-0.37,0.44-0.86,0.65-1.48,0.65c-1.19,0-2.27-0.82-2.27-2.31
		c0-1.25,0.89-2.33,2.43-2.33c1.52,0,2.38,1.08,2.38,2.33c0,0.86-0.34,1.62-0.84,2.4l-1.63,2.52H348.16z M349.03,414.07
		c-0.97,0-1.69,0.66-1.69,1.71c0,1.03,0.71,1.7,1.68,1.7c0.95,0,1.67-0.67,1.67-1.7C350.68,414.73,349.95,414.07,349.03,414.07z"/>
	<path class="st0" d="M352.24,414.3c0.33-0.42,1.05-0.83,1.86-0.83c1.34,0,1.99,0.82,1.99,1.76c0,0.88-0.68,1.72-1.63,1.85
		c0.98,0.12,1.79,0.78,1.79,1.81c0,1.06-0.82,1.94-2.36,1.94c-0.65,0-1.38-0.2-1.73-0.5v-0.68c0.5,0.35,1,0.58,1.73,0.58
		c0.97,0,1.62-0.52,1.62-1.33c0-0.9-0.55-1.29-1.99-1.54v-0.5c1.22-0.26,1.81-0.78,1.81-1.62c0-0.71-0.54-1.12-1.22-1.12
		c-0.8,0-1.42,0.48-1.86,0.96V414.3z"/>
</g>
<g>
	<path class="st0" d="M346.65,397.2c0-1.03,0.83-1.7,1.56-1.85c-0.61-0.18-1.15-0.76-1.15-1.59c0-1.21,0.91-1.86,1.97-1.86
		s1.97,0.65,1.97,1.86c0,0.84-0.54,1.42-1.15,1.59c0.73,0.14,1.56,0.82,1.56,1.85c0,1.32-1.06,2.06-2.38,2.06
		S346.65,398.52,346.65,397.2z M350.64,397.2c0-0.96-0.73-1.54-1.62-1.54s-1.62,0.58-1.62,1.54c0,0.98,0.73,1.46,1.62,1.46
		S350.64,398.18,350.64,397.2z M350.28,393.74c0-0.79-0.58-1.27-1.26-1.27s-1.26,0.48-1.26,1.27c0,0.78,0.58,1.25,1.26,1.25
		S350.28,394.52,350.28,393.74z"/>
	<path class="st0" d="M355.64,392.02l-1.57,2.39l-0.61,0.86c0.37-0.44,0.86-0.65,1.47-0.65c1.19,0,2.27,0.82,2.27,2.31
		c0,1.25-0.89,2.33-2.44,2.33c-1.52,0-2.37-1.08-2.37-2.33c0-0.86,0.34-1.62,0.84-2.4l1.63-2.52H355.64z M354.77,398.66
		c0.97,0,1.69-0.66,1.69-1.71c0-1.03-0.71-1.7-1.68-1.7c-0.95,0-1.67,0.67-1.67,1.7C353.12,398,353.85,398.66,354.77,398.66z"/>
</g>
<g>
	<path class="st0" d="M369.95,418.77c0-1.03,0.83-1.7,1.56-1.85c-0.61-0.18-1.15-0.76-1.15-1.59c0-1.21,0.91-1.86,1.97-1.86
		s1.97,0.65,1.97,1.86c0,0.84-0.54,1.42-1.15,1.59c0.73,0.14,1.56,0.82,1.56,1.85c0,1.32-1.06,2.06-2.38,2.06
		S369.95,420.09,369.95,418.77z M373.94,418.77c0-0.96-0.73-1.54-1.62-1.54s-1.62,0.58-1.62,1.54c0,0.98,0.73,1.46,1.62,1.46
		S373.94,419.76,373.94,418.77z M373.58,415.32c0-0.79-0.58-1.27-1.26-1.27s-1.26,0.48-1.26,1.27c0,0.78,0.58,1.25,1.26,1.25
		S373.58,416.1,373.58,415.32z"/>
	<path class="st0" d="M375.51,414.3c0.33-0.42,1.05-0.83,1.86-0.83c1.34,0,1.99,0.82,1.99,1.76c0,0.88-0.68,1.72-1.63,1.85
		c0.98,0.12,1.79,0.78,1.79,1.81c0,1.06-0.82,1.94-2.36,1.94c-0.65,0-1.38-0.2-1.73-0.5v-0.68c0.5,0.35,1,0.58,1.73,0.58
		c0.97,0,1.62-0.52,1.62-1.33c0-0.9-0.55-1.29-1.99-1.54v-0.5c1.22-0.26,1.81-0.78,1.81-1.62c0-0.71-0.54-1.12-1.22-1.12
		c-0.8,0-1.42,0.48-1.86,0.96V414.3z"/>
</g>
<g>
	<path class="st0" d="M369.95,397.2c0-1.03,0.83-1.7,1.56-1.85c-0.61-0.18-1.15-0.76-1.15-1.59c0-1.21,0.91-1.86,1.97-1.86
		s1.97,0.65,1.97,1.86c0,0.84-0.54,1.42-1.15,1.59c0.73,0.14,1.56,0.82,1.56,1.85c0,1.32-1.06,2.06-2.38,2.06
		S369.95,398.52,369.95,397.2z M373.94,397.2c0-0.96-0.73-1.54-1.62-1.54s-1.62,0.58-1.62,1.54c0,0.98,0.73,1.46,1.62,1.46
		S373.94,398.18,373.94,397.2z M373.58,393.74c0-0.79-0.58-1.27-1.26-1.27s-1.26,0.48-1.26,1.27c0,0.78,0.58,1.25,1.26,1.25
		S373.58,394.52,373.58,393.74z"/>
	<path class="st0" d="M379.76,398.49v0.65h-4.52v-0.55c1.83-1.55,3.61-3.09,3.61-4.67c0-0.92-0.55-1.36-1.32-1.36
		c-0.92,0-1.55,0.48-2.03,0.96v-0.8c0.43-0.44,1.15-0.83,2.03-0.83c1.16,0,2.05,0.62,2.05,2.03c0,1.58-1.76,3.36-3.41,4.57H379.76z"
		/>
</g>
<g>
	<path class="st0" d="M392.97,420.72l1.57-2.39l0.61-0.86c-0.37,0.44-0.86,0.65-1.48,0.65c-1.19,0-2.27-0.82-2.27-2.31
		c0-1.25,0.89-2.33,2.43-2.33c1.52,0,2.38,1.08,2.38,2.33c0,0.86-0.34,1.62-0.84,2.4l-1.63,2.52H392.97z M393.83,414.07
		c-0.97,0-1.69,0.66-1.69,1.71c0,1.03,0.71,1.7,1.68,1.7c0.95,0,1.67-0.67,1.67-1.7C395.49,414.73,394.75,414.07,393.83,414.07z"/>
	<path class="st0" d="M398.15,416.33c1.63,0.2,2.9,0.82,2.9,2.41c0,1.09-0.78,2.1-2.48,2.1c-0.62,0-1.2-0.18-1.61-0.46v-0.7
		c0.5,0.34,1.04,0.54,1.59,0.54c1.15,0,1.75-0.61,1.75-1.49c0-1.3-1.22-1.69-2.84-1.87l0.23-3.27h3.18v0.65h-2.58L398.15,416.33z"/>
</g>
<g>
	<path class="st0" d="M392.97,399.14l1.57-2.39l0.61-0.86c-0.37,0.44-0.86,0.65-1.48,0.65c-1.19,0-2.27-0.82-2.27-2.31
		c0-1.25,0.89-2.33,2.43-2.33c1.52,0,2.38,1.08,2.38,2.33c0,0.86-0.34,1.62-0.84,2.4l-1.63,2.52H392.97z M393.83,392.5
		c-0.97,0-1.69,0.66-1.69,1.71c0,1.03,0.71,1.7,1.68,1.7c0.95,0,1.67-0.67,1.67-1.7C395.49,393.16,394.75,392.5,393.83,392.5z"/>
	<path class="st0" d="M399.97,391.9c1.63,0,2.65,1.55,2.65,3.68c0,2.14-1.02,3.68-2.65,3.68s-2.65-1.55-2.65-3.68
		C397.32,393.44,398.34,391.9,399.97,391.9z M399.97,398.63c1.15,0,1.91-1.26,1.91-3.05c0-1.79-0.76-3.05-1.91-3.05
		s-1.91,1.26-1.91,3.05C398.07,397.37,398.82,398.63,399.97,398.63z"/>
</g>
<g>
	<path class="st0" d="M429.81,420.72l1.57-2.39l0.61-0.86c-0.37,0.44-0.86,0.65-1.48,0.65c-1.19,0-2.27-0.82-2.27-2.31
		c0-1.25,0.89-2.33,2.43-2.33c1.52,0,2.38,1.08,2.38,2.33c0,0.86-0.34,1.62-0.84,2.4l-1.63,2.52H429.81z M430.67,414.07
		c-0.97,0-1.69,0.66-1.69,1.71c0,1.03,0.71,1.7,1.68,1.7c0.95,0,1.67-0.67,1.67-1.7C432.32,414.73,431.59,414.07,430.67,414.07z"/>
	<path class="st0" d="M433.89,414.3c0.33-0.42,1.05-0.83,1.86-0.83c1.34,0,1.99,0.82,1.99,1.76c0,0.88-0.68,1.72-1.63,1.85
		c0.98,0.12,1.79,0.78,1.79,1.81c0,1.06-0.82,1.94-2.36,1.94c-0.65,0-1.38-0.2-1.73-0.5v-0.68c0.5,0.35,1,0.58,1.73,0.58
		c0.97,0,1.62-0.52,1.62-1.33c0-0.9-0.55-1.29-1.99-1.54v-0.5c1.22-0.26,1.81-0.78,1.81-1.62c0-0.71-0.54-1.12-1.22-1.12
		c-0.8,0-1.42,0.48-1.86,0.96V414.3z"/>
</g>
<g>
	<path class="st0" d="M428.27,397.2c0-1.03,0.83-1.7,1.56-1.85c-0.61-0.18-1.15-0.76-1.15-1.59c0-1.21,0.91-1.86,1.97-1.86
		s1.97,0.65,1.97,1.86c0,0.84-0.54,1.42-1.15,1.59c0.73,0.14,1.56,0.82,1.56,1.85c0,1.32-1.06,2.06-2.38,2.06
		S428.27,398.52,428.27,397.2z M432.26,397.2c0-0.96-0.73-1.54-1.62-1.54s-1.62,0.58-1.62,1.54c0,0.98,0.73,1.46,1.62,1.46
		S432.26,398.18,432.26,397.2z M431.9,393.74c0-0.79-0.58-1.27-1.26-1.27s-1.26,0.48-1.26,1.27c0,0.78,0.58,1.25,1.26,1.25
		S431.9,394.52,431.9,393.74z"/>
	<path class="st0" d="M433.62,392.67v-0.65h4.39v0.65l-3.11,6.48h-0.76l3.11-6.48H433.62z"/>
</g>
<g>
	<path class="st0" d="M477.28,418.77c0-1.03,0.83-1.7,1.56-1.85c-0.61-0.18-1.15-0.76-1.15-1.59c0-1.21,0.91-1.86,1.97-1.86
		s1.97,0.65,1.97,1.86c0,0.84-0.54,1.42-1.15,1.59c0.73,0.14,1.56,0.82,1.56,1.85c0,1.32-1.06,2.06-2.38,2.06
		S477.28,420.09,477.28,418.77z M481.27,418.77c0-0.96-0.73-1.54-1.62-1.54s-1.62,0.58-1.62,1.54c0,0.98,0.73,1.46,1.62,1.46
		S481.27,419.76,481.27,418.77z M480.91,415.32c0-0.79-0.58-1.27-1.26-1.27s-1.26,0.48-1.26,1.27c0,0.78,0.58,1.25,1.26,1.25
		S480.91,416.1,480.91,415.32z"/>
	<path class="st0" d="M484.5,420.72l1.57-2.39l0.61-0.86c-0.37,0.44-0.86,0.65-1.48,0.65c-1.19,0-2.27-0.82-2.27-2.31
		c0-1.25,0.89-2.33,2.43-2.33c1.52,0,2.38,1.08,2.38,2.33c0,0.86-0.34,1.62-0.84,2.4l-1.63,2.52H484.5z M485.36,414.07
		c-0.97,0-1.69,0.66-1.69,1.71c0,1.03,0.71,1.7,1.68,1.7c0.95,0,1.67-0.67,1.67-1.7C487.02,414.73,486.29,414.07,485.36,414.07z"/>
</g>
<g>
	<path class="st0" d="M477.35,392.67v-0.65h4.39v0.65l-3.11,6.48h-0.76l3.11-6.48H477.35z"/>
	<path class="st0" d="M484.06,399.14l1.57-2.39l0.61-0.86c-0.37,0.44-0.86,0.65-1.48,0.65c-1.19,0-2.27-0.82-2.27-2.31
		c0-1.25,0.89-2.33,2.43-2.33c1.52,0,2.38,1.08,2.38,2.33c0,0.86-0.34,1.62-0.84,2.4l-1.63,2.52H484.06z M484.92,392.5
		c-0.97,0-1.69,0.66-1.69,1.71c0,1.03,0.71,1.7,1.68,1.7c0.95,0,1.67-0.67,1.67-1.7C486.58,393.16,485.85,392.5,484.92,392.5z"/>
</g>
<g>
	<path class="st0" d="M527.06,418.77c0-1.03,0.83-1.7,1.56-1.85c-0.61-0.18-1.15-0.76-1.15-1.59c0-1.21,0.91-1.86,1.97-1.86
		s1.97,0.65,1.97,1.86c0,0.84-0.54,1.42-1.15,1.59c0.73,0.14,1.56,0.82,1.56,1.85c0,1.32-1.06,2.06-2.38,2.06
		S527.06,420.09,527.06,418.77z M531.06,418.77c0-0.96-0.73-1.54-1.62-1.54s-1.62,0.58-1.62,1.54c0,0.98,0.73,1.46,1.62,1.46
		S531.06,419.76,531.06,418.77z M530.7,415.32c0-0.79-0.58-1.27-1.26-1.27s-1.26,0.48-1.26,1.27c0,0.78,0.58,1.25,1.26,1.25
		S530.7,416.1,530.7,415.32z"/>
	<path class="st0" d="M532.78,418.77c0-1.03,0.83-1.7,1.56-1.85c-0.61-0.18-1.15-0.76-1.15-1.59c0-1.21,0.91-1.86,1.97-1.86
		s1.97,0.65,1.97,1.86c0,0.84-0.54,1.42-1.15,1.59c0.73,0.14,1.56,0.82,1.56,1.85c0,1.32-1.06,2.06-2.38,2.06
		S532.78,420.09,532.78,418.77z M536.77,418.77c0-0.96-0.73-1.54-1.62-1.54s-1.62,0.58-1.62,1.54c0,0.98,0.73,1.46,1.62,1.46
		S536.77,419.76,536.77,418.77z M536.41,415.32c0-0.79-0.58-1.27-1.26-1.27s-1.26,0.48-1.26,1.27c0,0.78,0.58,1.25,1.26,1.25
		S536.41,416.1,536.41,415.32z"/>
</g>
<g>
	<path class="st0" d="M527.54,397.2c0-1.03,0.83-1.7,1.56-1.85c-0.61-0.18-1.15-0.76-1.15-1.59c0-1.21,0.91-1.86,1.97-1.86
		s1.97,0.65,1.97,1.86c0,0.84-0.54,1.42-1.15,1.59c0.73,0.14,1.56,0.82,1.56,1.85c0,1.32-1.06,2.06-2.38,2.06
		S527.54,398.52,527.54,397.2z M531.54,397.2c0-0.96-0.73-1.54-1.62-1.54s-1.62,0.58-1.62,1.54c0,0.98,0.73,1.46,1.62,1.46
		S531.54,398.18,531.54,397.2z M531.18,393.74c0-0.79-0.58-1.27-1.26-1.27s-1.26,0.48-1.26,1.27c0,0.78,0.58,1.25,1.26,1.25
		S531.18,394.52,531.18,393.74z"/>
	<path class="st0" d="M533.1,392.73c0.33-0.42,1.05-0.83,1.86-0.83c1.34,0,1.99,0.82,1.99,1.76c0,0.88-0.68,1.72-1.63,1.85
		c0.98,0.12,1.79,0.78,1.79,1.81c0,1.06-0.82,1.94-2.36,1.94c-0.65,0-1.38-0.2-1.73-0.5v-0.68c0.5,0.35,1,0.58,1.73,0.58
		c0.97,0,1.62-0.52,1.62-1.33c0-0.9-0.55-1.29-1.99-1.54v-0.5c1.22-0.26,1.81-0.78,1.81-1.62c0-0.71-0.54-1.12-1.22-1.12
		c-0.8,0-1.42,0.48-1.86,0.96V392.73z"/>
</g>
<g>
	<path class="st0" d="M625.81,418.77c0-1.03,0.83-1.7,1.56-1.85c-0.61-0.18-1.15-0.76-1.15-1.59c0-1.21,0.91-1.86,1.97-1.86
		s1.97,0.65,1.97,1.86c0,0.84-0.54,1.42-1.15,1.59c0.73,0.14,1.56,0.82,1.56,1.85c0,1.32-1.06,2.06-2.38,2.06
		S625.81,420.09,625.81,418.77z M629.8,418.77c0-0.96-0.73-1.54-1.62-1.54s-1.62,0.58-1.62,1.54c0,0.98,0.73,1.46,1.62,1.46
		S629.8,419.76,629.8,418.77z M629.44,415.32c0-0.79-0.58-1.27-1.26-1.27s-1.26,0.48-1.26,1.27c0,0.78,0.58,1.25,1.26,1.25
		S629.44,416.1,629.44,415.32z"/>
	<path class="st0" d="M631.16,414.24v-0.65h4.39v0.65l-3.11,6.48h-0.76l3.11-6.48H631.16z"/>
</g>
<g>
	<path class="st0" d="M625.45,392.67v-0.65h4.39v0.65l-3.11,6.48h-0.76l3.11-6.48H625.45z"/>
	<path class="st0" d="M630.65,397.2c0-1.03,0.83-1.7,1.56-1.85c-0.61-0.18-1.15-0.76-1.15-1.59c0-1.21,0.91-1.86,1.97-1.86
		s1.97,0.65,1.97,1.86c0,0.84-0.54,1.42-1.15,1.59c0.73,0.14,1.56,0.82,1.56,1.85c0,1.32-1.06,2.06-2.38,2.06
		S630.65,398.52,630.65,397.2z M634.64,397.2c0-0.96-0.73-1.54-1.62-1.54s-1.62,0.58-1.62,1.54c0,0.98,0.73,1.46,1.62,1.46
		S634.64,398.18,634.64,397.2z M634.28,393.74c0-0.79-0.58-1.27-1.26-1.27s-1.26,0.48-1.26,1.27c0,0.78,0.58,1.25,1.26,1.25
		S634.28,394.52,634.28,393.74z"/>
</g>
<g>
	<path class="st0" d="M717.71,418.77c0-1.03,0.83-1.7,1.56-1.85c-0.61-0.18-1.15-0.76-1.15-1.59c0-1.21,0.91-1.86,1.97-1.86
		s1.97,0.65,1.97,1.86c0,0.84-0.54,1.42-1.15,1.59c0.73,0.14,1.56,0.82,1.56,1.85c0,1.32-1.06,2.06-2.38,2.06
		S717.71,420.09,717.71,418.77z M721.71,418.77c0-0.96-0.73-1.54-1.62-1.54s-1.62,0.58-1.62,1.54c0,0.98,0.73,1.46,1.62,1.46
		S721.71,419.76,721.71,418.77z M721.34,415.32c0-0.79-0.58-1.27-1.26-1.27s-1.26,0.48-1.26,1.27c0,0.78,0.58,1.25,1.26,1.25
		S721.34,416.1,721.34,415.32z"/>
	<path class="st0" d="M723.27,414.3c0.33-0.42,1.05-0.83,1.86-0.83c1.34,0,1.99,0.82,1.99,1.76c0,0.88-0.68,1.72-1.63,1.85
		c0.98,0.12,1.79,0.78,1.79,1.81c0,1.06-0.82,1.94-2.36,1.94c-0.65,0-1.38-0.2-1.73-0.5v-0.68c0.5,0.35,1,0.58,1.73,0.58
		c0.97,0,1.62-0.52,1.62-1.33c0-0.9-0.55-1.29-1.99-1.54v-0.5c1.22-0.26,1.81-0.78,1.81-1.62c0-0.71-0.54-1.12-1.22-1.12
		c-0.8,0-1.42,0.48-1.86,0.96V414.3z"/>
</g>
<g>
	<path class="st0" d="M717.29,392.67v-0.65h4.39v0.65l-3.11,6.48h-0.76l3.11-6.48H717.29z"/>
	<path class="st0" d="M724,399.14l1.57-2.39l0.61-0.86c-0.37,0.44-0.86,0.65-1.48,0.65c-1.19,0-2.27-0.82-2.27-2.31
		c0-1.25,0.89-2.33,2.43-2.33c1.52,0,2.38,1.08,2.38,2.33c0,0.86-0.34,1.62-0.84,2.4l-1.63,2.52H724z M724.86,392.5
		c-0.97,0-1.69,0.66-1.69,1.71c0,1.03,0.71,1.7,1.68,1.7c0.95,0,1.67-0.67,1.67-1.7C726.52,393.16,725.79,392.5,724.86,392.5z"/>
</g>
<g>
	<g>
		<path class="st0" d="M53.31,261.73v-1.79h5.55v-2.71h1.57v4.5H53.31z"/>
		<path class="st0" d="M58.29,256.41c0.4-0.53,0.73-1.16,0.73-1.97c0-0.54-0.16-1.01-0.64-1.01c-0.43,0-0.59,0.37-0.77,1.09
			c-0.37,1.48-1.04,2.03-2.23,2.03c-1.4,0-2.21-1.07-2.21-2.47c0-0.85,0.21-1.44,0.52-1.97h1.75c-0.46,0.55-0.74,1.16-0.74,1.89
			c0,0.54,0.24,0.8,0.58,0.8c0.46,0,0.6-0.41,0.79-1.16c0.38-1.46,1.07-1.97,2.26-1.97c1.55,0,2.22,1.24,2.22,2.75
			c0,0.79-0.22,1.51-0.5,1.98H58.29z"/>
		<path class="st0" d="M60.43,244.94l-4.47,1.38l4.47,0.61v1.76l-7.12-0.97v-2.13l4.82-1.49l-4.82-1.4v-2.15l7.12-0.97v1.78
			l-4.47,0.62l4.47,1.38V244.94z"/>
		<path class="st0" d="M58.26,237.2h0.02c0.58-0.14,0.82-0.83,0.82-1.45c0-0.71-0.16-1.26-0.43-1.79h1.4
			c0.34,0.5,0.48,1.25,0.48,1.98c0,1.82-1.08,2.9-2.73,2.9c-1.82,0-2.9-1.13-2.9-2.66c0-1.79,1.21-2.36,2.61-2.36h0.73V237.2z
			 M57.3,235.38c-0.52,0-1,0.22-1,0.84c0,0.55,0.41,0.88,1,0.97V235.38z"/>
		<path class="st0" d="M56.99,230.04c-0.47,0-0.64,0.42-0.64,0.91c0,0.64,0.19,1.14,0.45,1.55h-1.44c-0.29-0.49-0.44-1.15-0.44-1.86
			c0-1.3,0.49-2.28,2-2.28h3.39c0.12,0.53,0.24,1.44,0.24,2.21c0,1.33-0.4,2.41-1.69,2.41c-1.14,0-1.66-0.89-1.66-2.36v-0.58H56.99z
			 M58.24,230.04v0.46c0,0.53,0.17,0.79,0.54,0.79c0.37,0,0.55-0.26,0.55-0.7c0-0.14-0.01-0.38-0.05-0.55H58.24z"/>
		<path class="st0" d="M55.42,227c-0.31-0.78-0.5-1.85-0.5-2.69c0-1.42,0.52-2.35,2.22-2.35h3.3v1.7H57.2
			c-0.43,0-0.77,0.18-0.77,0.77c0,0.28,0.04,0.6,0.13,0.86h3.86v1.7H55.42z"/>
		<path class="st0" d="M62.09,215.96c-1.21,1.28-3.12,2.06-4.91,2.06s-3.71-0.78-4.9-2.06v-1.86c1.47,1.49,3.22,2.24,4.9,2.24
			s3.43-0.76,4.91-2.24V215.96z"/>
		<path class="st0" d="M56.62,213.38h-1.24v-1.54h-1.18v-1.24h1.18v-1.54h1.24v1.54h1.17v1.24h-1.17V213.38z M58.26,213.38v-4.31
			h1.23v4.31H58.26z"/>
		<path class="st0" d="M58.29,208.01c0.4-0.53,0.73-1.16,0.73-1.97c0-0.54-0.16-1.01-0.64-1.01c-0.43,0-0.59,0.37-0.77,1.09
			c-0.37,1.48-1.04,2.03-2.23,2.03c-1.4,0-2.21-1.07-2.21-2.47c0-0.85,0.21-1.44,0.52-1.97h1.75c-0.46,0.55-0.74,1.16-0.74,1.89
			c0,0.54,0.24,0.8,0.58,0.8c0.46,0,0.6-0.41,0.79-1.16c0.38-1.46,1.07-1.97,2.26-1.97c1.55,0,2.22,1.24,2.22,2.75
			c0,0.79-0.22,1.51-0.5,1.98H58.29z"/>
		<path class="st0" d="M58.86,197.44h1.57v4.8h-7.12v-4.71h1.57v2.95h1.22v-2.69h1.54v2.69h1.22V197.44z"/>
		<path class="st0" d="M52.28,194.94c1.2-1.28,3.12-2.06,4.9-2.06s3.69,0.78,4.91,2.06v1.86c-1.48-1.49-3.23-2.24-4.91-2.24
			s-3.43,0.75-4.9,2.24V194.94z"/>
		<path class="st0" d="M54.91,186.39c0-1.62,1.14-2.87,2.82-2.87c1.68,0,2.82,1.25,2.82,2.87c0,1.61-1.14,2.85-2.82,2.85
			C56.05,189.25,54.91,188,54.91,186.39z M56.38,186.39c0,0.66,0.5,1.14,1.36,1.14s1.36-0.48,1.36-1.14c0-0.67-0.5-1.15-1.36-1.15
			S56.38,185.72,56.38,186.39z"/>
		<path class="st0" d="M60.43,180.54v1.7h-3.98v0.85h-1.42v-0.85h-0.66c-1.57,0-2.22-0.89-2.22-2.1c0-0.44,0.08-0.79,0.26-1.15h1.55
			c-0.19,0.32-0.26,0.56-0.26,0.9c0,0.44,0.24,0.65,0.65,0.65h0.68v-1.26h1.42v1.26H60.43z"/>
		<path class="st0" d="M55.55,170.93c-0.44,0.44-0.76,1.1-0.76,1.93c0,1.17,0.86,1.85,2.07,1.85c1.26,0,2.08-0.77,2.08-1.92
			c0-0.85-0.25-1.38-0.74-2h1.82c0.42,0.7,0.53,1.36,0.53,2.09c0,2.24-1.52,3.67-3.68,3.67c-2.17,0-3.68-1.46-3.68-3.67
			c0-0.73,0.12-1.37,0.46-1.94H55.55z"/>
		<path class="st0" d="M52.28,169.58v-1.7h2.85c-0.08-0.19-0.21-0.66-0.21-1.24c0-1.14,0.54-2.1,2.22-2.1h3.3v1.7H57.2
			c-0.43,0-0.77,0.18-0.77,0.77c0,0.28,0.03,0.6,0.12,0.86h3.87v1.7H52.28z"/>
		<path class="st0" d="M56.99,160.55c-0.47,0-0.64,0.42-0.64,0.91c0,0.64,0.19,1.14,0.45,1.55h-1.44c-0.29-0.49-0.44-1.15-0.44-1.86
			c0-1.3,0.49-2.28,2-2.28h3.39c0.12,0.53,0.24,1.44,0.24,2.21c0,1.33-0.4,2.41-1.69,2.41c-1.14,0-1.66-0.89-1.66-2.36v-0.58H56.99z
			 M58.24,160.55V161c0,0.53,0.17,0.79,0.54,0.79c0.37,0,0.55-0.26,0.55-0.7c0-0.14-0.01-0.38-0.05-0.55H58.24z"/>
		<path class="st0" d="M55.42,157.51c-0.31-0.78-0.5-1.85-0.5-2.69c0-1.42,0.52-2.35,2.22-2.35h3.3v1.7H57.2
			c-0.43,0-0.77,0.18-0.77,0.77c0,0.28,0.04,0.6,0.13,0.86h3.86v1.7H55.42z"/>
		<path class="st0" d="M60.18,147.84c0.1,0.18,0.17,0.55,0.17,0.96c0,1.58-0.95,2.69-2.69,2.69c-1.7,0-2.75-1.14-2.75-3.01
			c0-0.94,0.18-1.7,0.43-2.34h4.95c1.92,0,2.41,1.57,2.41,2.78c0,0.67-0.13,1.29-0.42,1.91h-1.57c0.42-0.71,0.56-1.21,0.56-1.91
			c0-0.64-0.35-1.08-0.98-1.08H60.18z M56.48,147.84c-0.06,0.16-0.1,0.4-0.1,0.64c0,0.78,0.4,1.28,1.27,1.28
			c0.8,0,1.27-0.49,1.27-1.19c0-0.3-0.06-0.52-0.13-0.73H56.48z"/>
		<path class="st0" d="M58.26,143.47h0.02c0.58-0.14,0.82-0.83,0.82-1.45c0-0.71-0.16-1.26-0.43-1.79h1.4
			c0.34,0.5,0.48,1.25,0.48,1.98c0,1.82-1.08,2.9-2.73,2.9c-1.82,0-2.9-1.13-2.9-2.66c0-1.79,1.21-2.36,2.61-2.36h0.73V143.47z
			 M57.3,141.64c-0.52,0-1,0.22-1,0.84c0,0.55,0.41,0.88,1,0.97V141.64z"/>
		<path class="st0" d="M53.41,136.77c-0.55,0-0.98-0.44-0.98-0.98c0-0.52,0.43-0.97,0.98-0.97c0.54,0,0.97,0.46,0.97,0.97
			C54.38,136.33,53.95,136.77,53.41,136.77z M60.43,134.94v1.7h-5.4v-1.7H60.43z"/>
		<path class="st0" d="M55.42,133.47c-0.31-0.78-0.5-1.85-0.5-2.69c0-1.42,0.52-2.35,2.22-2.35h3.3v1.7H57.2
			c-0.43,0-0.77,0.18-0.77,0.77c0,0.28,0.04,0.6,0.13,0.86h3.86v1.7H55.42z"/>
		<path class="st0" d="M60.43,121.35l-4.47,1.38l4.47,0.61v1.76l-7.12-0.97V122l4.82-1.49l-4.82-1.4v-2.15l7.12-0.97v1.77
			l-4.47,0.62l4.47,1.38V121.35z"/>
		<path class="st0" d="M59.07,113.22l1.36,0.49v1.88l-7.12-2.77v-2.15l7.12-2.77v1.96l-1.36,0.48V113.22z M55.09,111.75l2.53,0.92
			v-1.82L55.09,111.75z"/>
		<path class="st0" d="M53.37,107.17c-0.08-0.53-0.18-1.51-0.18-2.39c0-2.38,1.22-3.99,3.61-3.99c2.6,0,3.73,1.69,3.73,4.04
			c0,0.85-0.05,1.79-0.17,2.34H53.37z M58.93,105.38c0.02-0.22,0.04-0.52,0.04-0.77c0-1.19-0.68-1.99-2.17-1.99
			c-1.37,0-1.97,0.9-1.97,2.03c0,0.23,0.01,0.52,0.04,0.73H58.93z"/>
		<path class="st0" d="M60.43,97.89v1.78h-7.09c-0.1-0.56-0.16-1.51-0.16-2.25c0-1.82,0.77-3.05,2.47-3.05
			c1.02,0,1.74,0.58,2.11,1.28l2.66-1.91v2.1l-2.28,1.54v0.52H60.43z M56.69,97.89v-0.44c0-0.74-0.25-1.27-0.98-1.27
			c-0.72,0-0.97,0.55-0.97,1.22c0,0.14,0.01,0.4,0.03,0.49H56.69z"/>
		<path class="st0" d="M58.29,93.28c0.4-0.53,0.73-1.16,0.73-1.97c0-0.54-0.16-1.01-0.64-1.01c-0.43,0-0.59,0.37-0.77,1.09
			c-0.37,1.48-1.04,2.03-2.23,2.03c-1.4,0-2.21-1.07-2.21-2.47c0-0.85,0.21-1.44,0.52-1.97h1.75c-0.46,0.55-0.74,1.16-0.74,1.9
			c0,0.54,0.24,0.8,0.58,0.8c0.46,0,0.6-0.41,0.79-1.16c0.38-1.46,1.07-1.97,2.26-1.97c1.55,0,2.22,1.24,2.22,2.75
			c0,0.79-0.22,1.51-0.5,1.98H58.29z"/>
		<path class="st0" d="M60.43,81.87v1.77h-5.55v2.14h-1.57v-6.04h1.57v2.13H60.43z"/>
		<path class="st0" d="M54.91,77.03c0-1.62,1.14-2.87,2.82-2.87c1.68,0,2.82,1.25,2.82,2.87c0,1.61-1.14,2.85-2.82,2.85
			C56.05,79.88,54.91,78.63,54.91,77.03z M56.38,77.03c0,0.66,0.5,1.14,1.36,1.14s1.36-0.48,1.36-1.14c0-0.67-0.5-1.15-1.36-1.15
			S56.38,76.35,56.38,77.03z"/>
		<path class="st0" d="M55.03,73.76v-0.8H53.7v-1.69h1.33v-1.55h1.42v1.55h1.77c0.6,0,0.76-0.3,0.76-0.71c0-0.37-0.11-0.7-0.3-0.98
			h1.56c0.22,0.41,0.31,0.9,0.31,1.46c0,0.98-0.47,1.92-1.84,1.92h-2.27v0.8H55.03z"/>
		<path class="st0" d="M56.99,65.93c-0.47,0-0.64,0.42-0.64,0.91c0,0.64,0.19,1.14,0.45,1.55h-1.44c-0.29-0.49-0.44-1.15-0.44-1.86
			c0-1.3,0.49-2.28,2-2.28h3.39c0.12,0.53,0.24,1.44,0.24,2.21c0,1.33-0.4,2.41-1.69,2.41c-1.14,0-1.66-0.89-1.66-2.36v-0.58H56.99z
			 M58.24,65.93v0.46c0,0.53,0.17,0.79,0.54,0.79c0.37,0,0.55-0.26,0.55-0.7c0-0.14-0.01-0.38-0.05-0.55H58.24z"/>
		<path class="st0" d="M60.43,61.19v1.7h-8.15v-1.7H60.43z"/>
		<path class="st0" d="M58.29,57.72c0.4-0.53,0.73-1.16,0.73-1.97c0-0.54-0.16-1.01-0.64-1.01c-0.43,0-0.59,0.37-0.77,1.09
			c-0.37,1.48-1.04,2.03-2.23,2.03c-1.4,0-2.21-1.07-2.21-2.47c0-0.85,0.21-1.44,0.52-1.97h1.75c-0.46,0.55-0.74,1.16-0.74,1.9
			c0,0.54,0.24,0.8,0.58,0.8c0.46,0,0.6-0.41,0.79-1.16c0.38-1.46,1.07-1.97,2.26-1.97c1.55,0,2.22,1.24,2.22,2.75
			c0,0.79-0.22,1.51-0.5,1.98H58.29z"/>
		<path class="st0" d="M56.89,47.82c-0.37,0.44-0.49,0.85-0.49,1.34c0,0.82,0.49,1.34,1.32,1.34c0.77,0,1.34-0.5,1.34-1.4
			c0-0.49-0.16-0.94-0.47-1.31h1.56c0.3,0.46,0.4,1,0.4,1.56c0,1.81-1.13,2.87-2.81,2.87c-1.67,0-2.83-1.16-2.83-2.87
			c0-0.62,0.12-1.08,0.39-1.54H56.89z"/>
		<path class="st0" d="M54.91,44.18c0-1.62,1.14-2.87,2.82-2.87c1.68,0,2.82,1.25,2.82,2.87c0,1.61-1.14,2.85-2.82,2.85
			C56.05,47.04,54.91,45.79,54.91,44.18z M56.38,44.18c0,0.66,0.5,1.14,1.36,1.14s1.36-0.48,1.36-1.14c0-0.67-0.5-1.15-1.36-1.15
			S56.38,43.51,56.38,44.18z"/>
		<path class="st0" d="M60.43,38.54v1.7h-5c-0.31-0.6-0.48-1.42-0.48-2.21c0-0.47,0.04-0.77,0.16-1.2h1.64
			c-0.16,0.36-0.2,0.74-0.2,1.13c0,0.18,0.02,0.37,0.07,0.58H60.43z"/>
		<path class="st0" d="M58.26,34.69h0.02c0.58-0.14,0.82-0.83,0.82-1.45c0-0.71-0.16-1.26-0.43-1.79h1.4
			c0.34,0.5,0.48,1.25,0.48,1.98c0,1.82-1.08,2.9-2.73,2.9c-1.82,0-2.9-1.13-2.9-2.66c0-1.79,1.21-2.36,2.61-2.36h0.73V34.69z
			 M57.3,32.87c-0.52,0-1,0.22-1,0.84c0,0.55,0.41,0.88,1,0.97V32.87z"/>
	</g>
</g>
<g>
	<g>
		<path class="st0" d="M182.68,7.46c0.53-0.08,1.51-0.18,2.39-0.18c2.38,0,3.99,1.22,3.99,3.61c0,2.6-1.69,3.73-4.04,3.73
			c-0.85,0-1.79-0.05-2.34-0.17V7.46z M184.46,13.03c0.22,0.02,0.52,0.04,0.77,0.04c1.19,0,1.99-0.68,1.99-2.17
			c0-1.37-0.9-1.97-2.03-1.97c-0.23,0-0.52,0.01-0.73,0.04V13.03z"/>
		<path class="st0" d="M192.76,9.01c1.62,0,2.87,1.14,2.87,2.82c0,1.68-1.25,2.82-2.87,2.82c-1.61,0-2.85-1.14-2.85-2.82
			C189.9,10.15,191.15,9.01,192.76,9.01z M192.76,10.47c-0.66,0-1.14,0.5-1.14,1.35s0.48,1.36,1.14,1.36c0.67,0,1.15-0.5,1.15-1.36
			S193.43,10.47,192.76,10.47z"/>
		<path class="st0" d="M201.49,14.34c-0.61,0.19-1.63,0.31-2.34,0.31c-1.56,0-2.57-0.47-2.57-2.15V9.13h1.7v3.21
			c0,0.59,0.13,0.91,0.86,0.91c0.14,0,0.41-0.02,0.64-0.07V9.13h1.7V14.34z"/>
		<path class="st0" d="M202.96,6.37h1.7v2.9c0.28-0.16,0.74-0.26,1.18-0.26c1.5,0,2.61,1.06,2.61,2.65c0,1.75-1.06,2.99-3.21,2.99
			c-1.01,0-1.74-0.22-2.28-0.43V6.37z M204.66,13.09c0.16,0.06,0.41,0.11,0.65,0.11c0.76,0,1.4-0.4,1.4-1.49
			c0-0.68-0.5-1.16-1.17-1.16c-0.4,0-0.7,0.14-0.88,0.28V13.09z"/>
		<path class="st0" d="M211.22,14.53h-1.7V6.37h1.7V14.53z"/>
		<path class="st0" d="M213.94,12.36v0.02c0.14,0.58,0.83,0.82,1.45,0.82c0.71,0,1.26-0.16,1.79-0.43v1.4
			c-0.5,0.34-1.25,0.48-1.98,0.48c-1.82,0-2.9-1.08-2.9-2.73c0-1.82,1.13-2.9,2.66-2.9c1.79,0,2.36,1.21,2.36,2.61v0.73H213.94z
			 M215.76,11.4c0-0.52-0.22-1-0.84-1c-0.55,0-0.88,0.41-0.97,1H215.76z"/>
		<path class="st0" d="M218.28,10.64h3.44v1.51h-3.44V10.64z"/>
		<path class="st0" d="M222.87,7.47c0.56-0.1,1.51-0.19,2.18-0.19c1.58,0,2.84,0.5,2.84,2.03c0,0.83-0.58,1.39-1.27,1.52
			c0.92,0.1,1.62,0.68,1.62,1.7c0,1.35-1.04,2.09-3.44,2.09c-0.67,0-1.45-0.07-1.93-0.14V7.47z M224.58,10.26h0.52
			c0.74,0,1.04-0.28,1.04-0.79c0-0.47-0.37-0.68-0.91-0.68c-0.22,0-0.52,0.02-0.65,0.05V10.26z M224.58,13.14
			c0.16,0.01,0.43,0.02,0.56,0.02c0.72,0,1.27-0.18,1.27-0.76c0-0.55-0.41-0.73-1.03-0.73h-0.8V13.14z"/>
		<path class="st0" d="M231.01,14.53h-1.7V6.37h1.7V14.53z"/>
		<path class="st0" d="M232.35,7.51c0-0.55,0.44-0.98,0.98-0.98c0.52,0,0.97,0.43,0.97,0.98c0,0.54-0.46,0.97-0.97,0.97
			C232.79,8.48,232.35,8.05,232.35,7.51z M234.18,14.53h-1.7v-5.4h1.7V14.53z"/>
		<path class="st0" d="M235.65,9.51c0.78-0.31,1.85-0.5,2.69-0.5c1.42,0,2.35,0.52,2.35,2.22v3.3h-1.7V11.3
			c0-0.43-0.18-0.77-0.77-0.77c-0.28,0-0.6,0.04-0.86,0.13v3.86h-1.7V9.51z"/>
		<path class="st0" d="M247.12,14.37c-0.67,0.18-1.57,0.28-2.35,0.28c-1.87,0-3.09-0.98-3.09-2.81c0-1.67,1.08-2.83,2.79-2.83
			c0.36,0,0.72,0.05,0.95,0.14V6.37h1.7V14.37z M245.41,10.65c-0.22-0.11-0.48-0.16-0.79-0.16c-0.76,0-1.22,0.48-1.22,1.28
			c0,0.91,0.53,1.42,1.43,1.42c0.13,0,0.38-0.01,0.59-0.05V10.65z"/>
		<path class="st0" d="M254.22,14.53h-1.78V8.97h-2.13V7.4h6.04v1.57h-2.13V14.53z"/>
		<path class="st0" d="M258.49,14.53h-1.7v-5c0.6-0.31,1.42-0.48,2.21-0.48c0.47,0,0.77,0.04,1.2,0.16v1.64
			c-0.36-0.16-0.74-0.2-1.13-0.2c-0.18,0-0.37,0.02-0.58,0.07V14.53z"/>
		<path class="st0" d="M262.34,12.36v0.02c0.14,0.58,0.83,0.82,1.45,0.82c0.71,0,1.26-0.16,1.79-0.43v1.4
			c-0.5,0.34-1.25,0.48-1.98,0.48c-1.82,0-2.9-1.08-2.9-2.73c0-1.82,1.13-2.9,2.66-2.9c1.79,0,2.36,1.21,2.36,2.61v0.73H262.34z
			 M264.17,11.4c0-0.52-0.22-1-0.84-1c-0.55,0-0.88,0.41-0.97,1H264.17z"/>
		<path class="st0" d="M269.51,11.09c0-0.47-0.42-0.64-0.91-0.64c-0.64,0-1.14,0.19-1.55,0.44V9.45c0.49-0.29,1.15-0.44,1.86-0.44
			c1.3,0,2.28,0.49,2.28,2v3.39c-0.53,0.12-1.44,0.24-2.21,0.24c-1.33,0-2.41-0.4-2.41-1.69c0-1.14,0.89-1.65,2.36-1.65h0.58V11.09z
			 M269.51,12.33h-0.46c-0.53,0-0.79,0.17-0.79,0.54c0,0.37,0.26,0.55,0.7,0.55c0.14,0,0.38-0.01,0.55-0.05V12.33z"/>
		<path class="st0" d="M271.81,9.13h0.8V7.8h1.69v1.33h1.55v1.42h-1.55v1.78c0,0.6,0.3,0.76,0.71,0.76c0.37,0,0.7-0.11,0.98-0.3
			v1.56c-0.41,0.22-0.9,0.31-1.46,0.31c-0.98,0-1.92-0.47-1.92-1.83v-2.27h-0.8V9.13z"/>
		<path class="st0" d="M283.25,11.24c0-0.42-0.12-0.74-0.68-0.74c-0.3,0-0.6,0.07-0.82,0.18c0.04,0.08,0.08,0.23,0.08,0.44v3.41
			h-1.7v-3.29c0-0.42-0.13-0.74-0.67-0.74c-0.26,0-0.44,0.04-0.72,0.11v3.92h-1.7V9.49c0.77-0.29,1.7-0.48,2.52-0.48
			c0.64,0,1.18,0.17,1.5,0.43c0.43-0.22,0.95-0.43,1.78-0.43c1.28,0,2.12,0.49,2.12,2.16v3.36h-1.7V11.24z"/>
		<path class="st0" d="M287.59,12.36v0.02c0.14,0.58,0.83,0.82,1.45,0.82c0.71,0,1.26-0.16,1.79-0.43v1.4
			c-0.5,0.34-1.25,0.48-1.98,0.48c-1.82,0-2.9-1.08-2.9-2.73c0-1.82,1.13-2.9,2.66-2.9c1.79,0,2.36,1.21,2.36,2.61v0.73H287.59z
			 M289.42,11.4c0-0.52-0.22-1-0.84-1c-0.55,0-0.88,0.41-0.97,1H289.42z"/>
		<path class="st0" d="M292.14,9.51c0.78-0.31,1.85-0.5,2.69-0.5c1.42,0,2.35,0.52,2.35,2.22v3.3h-1.7V11.3
			c0-0.43-0.18-0.77-0.77-0.77c-0.28,0-0.6,0.04-0.86,0.13v3.86h-1.7V9.51z"/>
		<path class="st0" d="M297.83,9.13h0.8V7.8h1.69v1.33h1.55v1.42h-1.55v1.78c0,0.6,0.3,0.76,0.71,0.76c0.37,0,0.7-0.11,0.98-0.3
			v1.56c-0.41,0.22-0.9,0.31-1.46,0.31c-0.98,0-1.92-0.47-1.92-1.83v-2.27h-0.8V9.13z"/>
	</g>
</g>
<g>
	<g>
		<path class="st0" d="M497.35,14.53V7.4h4.33v1.57h-2.54v1.51h2.27v1.55h-2.27v2.49H497.35z"/>
		<path class="st0" d="M505.16,9.01c1.62,0,2.87,1.14,2.87,2.82c0,1.68-1.25,2.82-2.87,2.82c-1.61,0-2.85-1.14-2.85-2.82
			C502.31,10.15,503.55,9.01,505.16,9.01z M505.16,10.47c-0.66,0-1.14,0.5-1.14,1.35s0.48,1.36,1.14,1.36c0.67,0,1.15-0.5,1.15-1.36
			S505.83,10.47,505.16,10.47z"/>
		<path class="st0" d="M510.8,14.53h-1.7V6.37h1.7V14.53z"/>
		<path class="st0" d="M513.97,14.53h-1.7V6.37h1.7V14.53z"/>
		<path class="st0" d="M517.89,9.01c1.62,0,2.87,1.14,2.87,2.82c0,1.68-1.25,2.82-2.87,2.82c-1.61,0-2.85-1.14-2.85-2.82
			C515.04,10.15,516.28,9.01,517.89,9.01z M517.89,10.47c-0.66,0-1.14,0.5-1.14,1.35s0.48,1.36,1.14,1.36c0.67,0,1.15-0.5,1.15-1.36
			S518.56,10.47,517.89,10.47z"/>
		<path class="st0" d="M527.06,12.63l0.89-3.5h1.7l-1.54,5.4h-1.86l-0.86-3.15l-0.86,3.15h-1.83l-1.54-5.4h1.75l0.88,3.5l0.92-3.5
			h1.44L527.06,12.63z"/>
		<path class="st0" d="M530.24,10.64h3.44v1.51h-3.44V10.64z"/>
		<path class="st0" d="M539.62,14.34c-0.61,0.19-1.63,0.31-2.34,0.31c-1.56,0-2.57-0.47-2.57-2.15V9.13h1.7v3.21
			c0,0.59,0.13,0.91,0.86,0.91c0.14,0,0.41-0.02,0.64-0.07V9.13h1.7V14.34z"/>
		<path class="st0" d="M541.03,9.5c0.61-0.26,1.56-0.49,2.52-0.49c1.74,0,2.96,1.02,2.96,2.67c0,1.91-1.12,2.96-3.02,2.96
			c-0.33,0-0.61-0.04-0.75-0.07v2.11h-1.7V9.5z M542.73,13.09c0.14,0.05,0.4,0.08,0.61,0.08c0.79,0,1.44-0.4,1.44-1.42
			c0-0.8-0.55-1.22-1.27-1.22c-0.24,0-0.55,0.04-0.78,0.12V13.09z"/>
		<path class="st0" d="M552.2,16.18c-1.28-1.21-2.06-3.12-2.06-4.91c0-1.79,0.78-3.71,2.06-4.91h1.86
			c-1.49,1.48-2.24,3.23-2.24,4.91c0,1.68,0.76,3.43,2.24,4.91H552.2z"/>
		<path class="st0" d="M554.64,12.39c0.53,0.4,1.16,0.73,1.97,0.73c0.54,0,1.01-0.16,1.01-0.64c0-0.43-0.37-0.59-1.09-0.77
			c-1.48-0.37-2.03-1.04-2.03-2.23c0-1.4,1.07-2.21,2.47-2.21c0.85,0,1.44,0.2,1.97,0.52v1.75c-0.55-0.46-1.16-0.74-1.89-0.74
			c-0.54,0-0.8,0.24-0.8,0.58c0,0.46,0.41,0.6,1.16,0.79c1.46,0.38,1.97,1.07,1.97,2.25c0,1.55-1.24,2.22-2.75,2.22
			c-0.79,0-1.51-0.22-1.98-0.5V12.39z"/>
		<path class="st0" d="M563.77,7.28c2.06,0,3.72,1.51,3.72,3.68s-1.66,3.68-3.72,3.68s-3.71-1.51-3.71-3.68S561.7,7.28,563.77,7.28z
			 M563.77,8.89c-1.08,0-1.87,0.83-1.87,2.07c0,1.25,0.79,2.07,1.87,2.07c1.09,0,1.87-0.83,1.87-2.07
			C565.64,9.72,564.86,8.89,563.77,8.89z"/>
		<path class="st0" d="M573.93,9.65c-0.44-0.44-1.1-0.76-1.93-0.76c-1.17,0-1.85,0.86-1.85,2.07c0,1.26,0.77,2.07,1.92,2.07
			c0.85,0,1.38-0.25,2-0.74v1.82c-0.7,0.42-1.36,0.53-2.09,0.53c-2.24,0-3.67-1.52-3.67-3.68c0-2.17,1.46-3.68,3.67-3.68
			c0.73,0,1.37,0.12,1.94,0.46V9.65z"/>
		<path class="st0" d="M580.02,9.01c1.62,0,2.87,1.14,2.87,2.82c0,1.68-1.25,2.82-2.87,2.82c-1.61,0-2.85-1.14-2.85-2.82
			C577.16,10.15,578.41,9.01,580.02,9.01z M580.02,10.47c-0.66,0-1.14,0.5-1.14,1.35s0.48,1.36,1.14,1.36c0.67,0,1.15-0.5,1.15-1.36
			S580.69,10.47,580.02,10.47z"/>
		<path class="st0" d="M583.95,9.51c0.78-0.31,1.85-0.5,2.69-0.5c1.42,0,2.35,0.52,2.35,2.22v3.3h-1.7V11.3
			c0-0.43-0.18-0.77-0.77-0.77c-0.28,0-0.6,0.04-0.86,0.13v3.86h-1.7V9.51z"/>
		<path class="st0" d="M592.08,14.53h-1.7V6.37h1.7V14.53z"/>
		<path class="st0" d="M595.94,12.64l1.21-3.51h1.77l-2.95,7.56h-1.68l0.78-2.05l-2.21-5.5h1.83L595.94,12.64z"/>
		<path class="st0" d="M600.85,6.37c1.28,1.2,2.06,3.12,2.06,4.91c0,1.79-0.78,3.69-2.06,4.91h-1.86c1.49-1.48,2.24-3.23,2.24-4.91
			c0-1.68-0.75-3.43-2.24-4.91H600.85z"/>
	</g>
</g>
<g>
	<path class="st0" d="M347.19,293.64c0.53-0.06,1.02-0.1,1.46-0.1c3.26,0,4.37,1.69,4.37,3.51c0,2-1.16,3.85-4.27,3.85
		c-0.6,0-1.05-0.05-1.56-0.11V293.64z M347.93,300.21c0.29,0.04,0.56,0.05,0.83,0.05c2.04,0,3.48-1.02,3.48-3.19
		c0-1.68-1.07-2.85-3.61-2.85c-0.23,0-0.44,0.01-0.7,0.04V300.21z"/>
	<path class="st0" d="M358.14,300.14v0.65h-4.52v-0.55c1.83-1.55,3.61-3.09,3.61-4.67c0-0.92-0.55-1.36-1.32-1.36
		c-0.92,0-1.55,0.48-2.03,0.96v-0.8c0.43-0.44,1.15-0.83,2.03-0.83c1.16,0,2.05,0.62,2.05,2.03c0,1.58-1.76,3.36-3.41,4.57H358.14z"
		/>
	<path class="st0" d="M360.03,296.4c1.63,0.2,2.9,0.82,2.9,2.41c0,1.09-0.78,2.1-2.48,2.1c-0.62,0-1.2-0.18-1.61-0.46v-0.7
		c0.5,0.34,1.04,0.54,1.59,0.54c1.15,0,1.75-0.61,1.75-1.49c0-1.3-1.22-1.69-2.84-1.87l0.23-3.27h3.18v0.65h-2.58L360.03,296.4z"/>
	<path class="st0" d="M364.84,295.69c0.32,0,0.6,0.26,0.6,0.59c0,0.32-0.28,0.6-0.6,0.6c-0.32,0-0.59-0.28-0.59-0.6
		C364.25,295.96,364.52,295.69,364.84,295.69z M364.84,299.71c0.32,0,0.6,0.26,0.6,0.59c0,0.32-0.28,0.6-0.6,0.6
		c-0.32,0-0.59-0.28-0.59-0.6C364.25,299.97,364.52,299.71,364.84,299.71z"/>
	<path class="st0" d="M350.72,312.6h1.35v0.61h-1.35v1.98h-0.71v-1.98h-3.53v-0.61l3.37-4.53h0.86V312.6z M347.25,312.6h2.76v-3.75
		L347.25,312.6z"/>
	<path class="st0" d="M353.15,307.03h0.72v3.08c0.4-0.14,0.98-0.28,1.54-0.28c1.26,0,2.06,0.52,2.06,1.82v3.53h-0.72v-3.38
		c0-1.07-0.75-1.3-1.46-1.3c-0.55,0-1.06,0.12-1.42,0.24v4.44h-0.72V307.03z"/>
	<path class="st0" d="M347.07,324.57c0.48-0.18,1.15-0.33,1.82-0.33c1.8,0,2.89,0.93,2.89,2.73c0,1.7-1.13,2.73-2.84,2.73
		c-0.42,0-0.88-0.08-1.15-0.22v2.25h-0.72V324.57z M347.79,328.87c0.34,0.14,0.71,0.22,1.15,0.22c1.27,0,2.11-0.78,2.11-2.11
		c0-1.28-0.78-2.08-2.16-2.08c-0.41,0-0.83,0.05-1.1,0.14V328.87z"/>
	<path class="st0" d="M355.42,324.24c1.56,0,2.63,1.12,2.63,2.73s-1.07,2.73-2.63,2.73c-1.56,0-2.63-1.12-2.63-2.73
		S353.86,324.24,355.42,324.24z M355.42,324.86c-1.1,0-1.89,0.84-1.89,2.11c0,1.27,0.79,2.11,1.89,2.11c1.1,0,1.9-0.84,1.9-2.11
		C357.32,325.7,356.52,324.86,355.42,324.86z"/>
	<path class="st0" d="M359.14,328.47c0.44,0.4,0.9,0.62,1.47,0.62c0.66,0,1.08-0.25,1.08-0.84c0-0.62-0.46-0.79-1.28-1.07
		c-0.92-0.31-1.32-0.7-1.32-1.54c0-0.92,0.7-1.42,1.64-1.42c0.52,0,1.02,0.11,1.43,0.4v0.78c-0.41-0.34-0.83-0.56-1.43-0.56
		c-0.58,0-0.95,0.31-0.95,0.8c0,0.48,0.29,0.73,1.09,0.98c0.91,0.28,1.52,0.62,1.52,1.57c0,1.03-0.8,1.5-1.79,1.5
		c-0.59,0-1.15-0.17-1.47-0.42V328.47z"/>
	<path class="st0" d="M363.13,324.36h0.8v-1.27h0.72v1.27h1.48v0.61h-1.48v3.19c0,0.67,0.26,0.93,0.76,0.93
		c0.34,0,0.61-0.11,0.97-0.29v0.64c-0.31,0.16-0.67,0.26-1.13,0.26c-0.76,0-1.32-0.4-1.32-1.48v-3.26h-0.8V324.36z"/>
	<path class="st0" d="M371.98,329.52c-0.56,0.13-1.15,0.19-1.7,0.19c-1.81,0-3.03-0.98-3.03-2.73c0-1.76,1.32-2.73,2.88-2.73
		c0.4,0,0.88,0.08,1.14,0.24v-3.05h0.72V329.52z M371.26,325.13c-0.26-0.14-0.66-0.24-1.14-0.24c-1.21,0-2.15,0.74-2.15,2.09
		c0,1.33,0.92,2.1,2.3,2.1c0.34,0,0.67-0.01,0.98-0.06V325.13z"/>
	<path class="st0" d="M376.01,324.24c1.56,0,2.63,1.12,2.63,2.73s-1.07,2.73-2.63,2.73c-1.56,0-2.63-1.12-2.63-2.73
		S374.45,324.24,376.01,324.24z M376.01,324.86c-1.1,0-1.89,0.84-1.89,2.11c0,1.27,0.79,2.11,1.89,2.11c1.1,0,1.9-0.84,1.9-2.11
		C377.91,325.7,377.12,324.86,376.01,324.86z"/>
	<path class="st0" d="M379.73,328.47c0.44,0.4,0.9,0.62,1.47,0.62c0.66,0,1.08-0.25,1.08-0.84c0-0.62-0.46-0.79-1.28-1.07
		c-0.92-0.31-1.32-0.7-1.32-1.54c0-0.92,0.7-1.42,1.64-1.42c0.52,0,1.02,0.11,1.43,0.4v0.78c-0.41-0.34-0.83-0.56-1.43-0.56
		c-0.58,0-0.95,0.31-0.95,0.8c0,0.48,0.29,0.73,1.09,0.98c0.91,0.28,1.52,0.62,1.52,1.57c0,1.03-0.8,1.5-1.79,1.5
		c-0.59,0-1.15-0.17-1.47-0.42V328.47z"/>
	<path class="st0" d="M384.76,327.01v0.02c0,1.28,0.92,2.04,1.94,2.04c0.74,0,1.26-0.19,1.79-0.59v0.72
		c-0.47,0.35-1.14,0.5-1.79,0.5c-1.51,0-2.66-1.03-2.66-2.73c0-1.57,1.08-2.73,2.48-2.73c1.32,0,2.2,0.79,2.2,2.28v0.49H384.76z
		 M388,326.41c-0.05-1.09-0.64-1.54-1.51-1.54c-0.82,0-1.47,0.55-1.68,1.54H388z"/>
</g>
<g>
	<path class="st0" d="M321.64,293.64c0.53-0.06,1.02-0.1,1.46-0.1c3.26,0,4.37,1.69,4.37,3.51c0,2-1.16,3.85-4.27,3.85
		c-0.6,0-1.05-0.05-1.56-0.11V293.64z M322.38,300.21c0.29,0.04,0.56,0.05,0.83,0.05c2.04,0,3.48-1.02,3.48-3.19
		c0-1.68-1.07-2.85-3.61-2.85c-0.23,0-0.44,0.01-0.7,0.04V300.21z"/>
	<path class="st0" d="M332.59,300.14v0.65h-4.52v-0.55c1.83-1.55,3.61-3.09,3.61-4.67c0-0.92-0.55-1.36-1.32-1.36
		c-0.92,0-1.55,0.48-2.03,0.96v-0.8c0.43-0.44,1.15-0.83,2.03-0.83c1.16,0,2.05,0.62,2.05,2.03c0,1.58-1.76,3.36-3.41,4.57H332.59z"
		/>
	<path class="st0" d="M334.48,296.4c1.63,0.2,2.9,0.82,2.9,2.41c0,1.09-0.78,2.1-2.48,2.1c-0.62,0-1.2-0.18-1.61-0.46v-0.7
		c0.5,0.34,1.04,0.54,1.59,0.54c1.15,0,1.75-0.61,1.75-1.49c0-1.3-1.22-1.69-2.84-1.87l0.23-3.27h3.18v0.65h-2.58L334.48,296.4z"/>
	<path class="st0" d="M339.29,295.69c0.32,0,0.6,0.26,0.6,0.59c0,0.32-0.28,0.6-0.6,0.6c-0.32,0-0.59-0.28-0.59-0.6
		C338.71,295.96,338.97,295.69,339.29,295.69z M339.29,299.71c0.32,0,0.6,0.26,0.6,0.59c0,0.32-0.28,0.6-0.6,0.6
		c-0.32,0-0.59-0.28-0.59-0.6C338.71,299.97,338.97,299.71,339.29,299.71z"/>
	<path class="st0" d="M303.42,310.18c0.48-0.18,1.15-0.33,1.82-0.33c1.8,0,2.89,0.94,2.89,2.73c0,1.7-1.13,2.73-2.84,2.73
		c-0.42,0-0.88-0.08-1.15-0.22v2.25h-0.72V310.18z M304.14,314.47c0.34,0.14,0.71,0.22,1.15,0.22c1.27,0,2.11-0.78,2.11-2.11
		c0-1.28-0.78-2.08-2.16-2.08c-0.41,0-0.83,0.05-1.1,0.14V314.47z"/>
	<path class="st0" d="M310.26,315.19h-0.72v-4.75c0.55-0.35,1.22-0.56,1.94-0.56c0.29,0,0.58,0.04,0.88,0.11v0.71
		c-0.31-0.11-0.68-0.13-0.92-0.13c-0.52,0-0.9,0.11-1.18,0.26V315.19z"/>
	<path class="st0" d="M313.83,312.61v0.02c0,1.28,0.92,2.04,1.94,2.04c0.74,0,1.26-0.19,1.79-0.59v0.72
		c-0.47,0.35-1.14,0.5-1.79,0.5c-1.51,0-2.66-1.03-2.66-2.73c0-1.57,1.08-2.73,2.48-2.73c1.32,0,2.19,0.79,2.19,2.28v0.49H313.83z
		 M317.07,312.01c-0.05-1.09-0.64-1.54-1.51-1.54c-0.82,0-1.47,0.55-1.68,1.54H317.07z"/>
	<path class="st0" d="M323.51,315.12c-0.56,0.13-1.15,0.19-1.7,0.19c-1.81,0-3.03-0.98-3.03-2.73c0-1.76,1.32-2.73,2.88-2.73
		c0.4,0,0.88,0.08,1.14,0.24v-3.05h0.72V315.12z M322.79,310.73c-0.26-0.14-0.66-0.24-1.14-0.24c-1.21,0-2.15,0.74-2.15,2.09
		c0,1.33,0.92,2.1,2.3,2.1c0.34,0,0.67-0.01,0.98-0.06V310.73z"/>
	<path class="st0" d="M327.54,309.84c1.56,0,2.63,1.12,2.63,2.73s-1.07,2.73-2.63,2.73c-1.56,0-2.63-1.12-2.63-2.73
		S325.98,309.84,327.54,309.84z M327.54,310.46c-1.1,0-1.89,0.84-1.89,2.11s0.79,2.11,1.89,2.11c1.1,0,1.9-0.84,1.9-2.11
		S328.65,310.46,327.54,310.46z"/>
	<path class="st0" d="M331.26,314.07c0.44,0.4,0.9,0.62,1.47,0.62c0.66,0,1.08-0.25,1.08-0.84c0-0.62-0.46-0.79-1.28-1.07
		c-0.92-0.31-1.32-0.7-1.32-1.54c0-0.92,0.7-1.42,1.64-1.42c0.52,0,1.02,0.11,1.43,0.4v0.78c-0.41-0.34-0.83-0.56-1.43-0.56
		c-0.58,0-0.95,0.31-0.95,0.8c0,0.48,0.29,0.73,1.09,0.98c0.91,0.28,1.52,0.62,1.52,1.57c0,1.03-0.8,1.5-1.79,1.5
		c-0.59,0-1.15-0.17-1.47-0.42V314.07z"/>
	<path class="st0" d="M336.29,312.61v0.02c0,1.28,0.92,2.04,1.94,2.04c0.74,0,1.26-0.19,1.79-0.59v0.72
		c-0.47,0.35-1.14,0.5-1.79,0.5c-1.51,0-2.66-1.03-2.66-2.73c0-1.57,1.08-2.73,2.48-2.73c1.32,0,2.19,0.79,2.19,2.28v0.49H336.29z
		 M339.53,312.01c-0.05-1.09-0.64-1.54-1.51-1.54c-0.82,0-1.47,0.55-1.68,1.54H339.53z"/>
</g>
<polyline class="st1" points="723,278.69 121.85,278.69 121.85,13.93 "/>
<line class="st2" x1="362.41" y1="278.69" x2="362.41" y2="5.62"/>
<line class="st1" x1="116.72" y1="24.02" x2="121.85" y2="24.02"/>
<line class="st1" x1="116.72" y1="59.34" x2="121.85" y2="59.34"/>
<line class="st1" x1="116.72" y1="95.26" x2="121.85" y2="95.26"/>
<line class="st1" x1="116.72" y1="130.58" x2="121.85" y2="130.58"/>
<line class="st1" x1="116.72" y1="167.09" x2="121.85" y2="167.09"/>
<line class="st1" x1="116.72" y1="202.71" x2="121.85" y2="202.71"/>
<line class="st1" x1="116.72" y1="238.62" x2="121.85" y2="238.62"/>
<line class="st1" x1="116.72" y1="274.54" x2="121.85" y2="274.54"/>
<line class="st1" x1="137.52" y1="283.74" x2="137.52" y2="278.69"/>
<line class="st1" x1="151.65" y1="283.74" x2="151.65" y2="278.69"/>
<line class="st1" x1="165.79" y1="283.74" x2="165.79" y2="278.69"/>
<line class="st1" x1="186.68" y1="283.74" x2="186.68" y2="278.69"/>
<line class="st3" x1="161.64" y1="239.66" x2="132.76" y2="239.66"/>
<g>
	<path class="st0" d="M167.63,243.02h-0.55v-5.27c0.24-0.04,0.62-0.08,0.93-0.08c1.45,0,2.06,0.67,2.06,1.66
		c0,1.12-0.79,1.73-2.11,1.73c-0.1,0-0.22-0.01-0.34-0.02V243.02z M167.63,240.59c0.1,0.01,0.2,0.01,0.28,0.01
		c1.09,0,1.6-0.42,1.6-1.27c0-0.68-0.4-1.19-1.53-1.19c-0.11,0-0.23,0.01-0.35,0.02V240.59z"/>
	<path class="st0" d="M171.05,237.75c0.35-0.04,0.75-0.08,1.06-0.08c1.33,0,1.9,0.51,1.9,1.42c0,0.68-0.43,1.15-1.11,1.23
		c0.81,0.05,1.32,0.5,1.32,1.27c0,0.85-0.58,1.5-2.12,1.5c-0.35,0-0.72-0.04-1.06-0.1V237.75z M171.59,240.13h0.47
		c0.89,0,1.42-0.35,1.42-1.03c0-0.65-0.5-0.97-1.37-0.97c-0.15,0-0.33,0.01-0.51,0.03V240.13z M171.59,242.62
		c0.21,0.03,0.39,0.04,0.52,0.04c1.12,0,1.58-0.4,1.58-1.05c0-0.7-0.61-1.01-1.55-1.01h-0.55V242.62z"/>
	<path class="st0" d="M177.69,237.67c1.51,0,2.72,1.11,2.72,2.72c0,1.61-1.2,2.72-2.72,2.72s-2.72-1.11-2.72-2.72
		C174.97,238.78,176.18,237.67,177.69,237.67z M177.69,238.17c-1.19,0-2.16,0.87-2.16,2.22c0,1.35,0.97,2.22,2.16,2.22
		s2.16-0.87,2.16-2.22C179.85,239.04,178.88,238.17,177.69,238.17z"/>
	<path class="st0" d="M181.16,240.66v-0.47h1.44v-1.44h0.47v1.44h1.44v0.47h-1.44v1.44h-0.47v-1.44H181.16z"/>
	<path class="st0" d="M185.23,242.1c0.42,0.34,0.8,0.54,1.34,0.54c0.63,0,1.17-0.27,1.17-0.96c0-0.63-0.47-0.87-1.1-1.1
		c-0.94-0.35-1.44-0.66-1.44-1.55s0.74-1.35,1.53-1.35c0.51,0,0.94,0.16,1.26,0.42v0.57c-0.42-0.34-0.78-0.51-1.26-0.51
		c-0.59,0-1,0.35-1,0.89c0,0.5,0.3,0.75,1.06,1.02c0.97,0.34,1.49,0.7,1.49,1.62c0,0.96-0.76,1.43-1.71,1.43
		c-0.57,0-1.02-0.16-1.34-0.41V242.1z"/>
	<path class="st0" d="M191.77,237.67c1.51,0,2.72,1.11,2.72,2.72c0,1.61-1.2,2.72-2.72,2.72s-2.72-1.11-2.72-2.72
		C189.05,238.78,190.26,237.67,191.77,237.67z M191.77,238.17c-1.19,0-2.16,0.87-2.16,2.22c0,1.35,0.97,2.22,2.16,2.22
		s2.16-0.87,2.16-2.22C193.93,239.04,192.96,238.17,191.77,238.17z"/>
	<path class="st0" d="M199.45,238.71c-0.38-0.36-0.9-0.54-1.46-0.54c-1.19,0-2.15,0.87-2.15,2.22c0,1.35,0.96,2.22,2.15,2.22
		c0.56,0,1.11-0.17,1.49-0.52v0.63c-0.42,0.25-0.95,0.39-1.48,0.39c-1.59,0-2.72-1.11-2.72-2.72c0-1.62,1.2-2.72,2.72-2.72
		c0.53,0,1.03,0.14,1.45,0.4V238.71z"/>
</g>
<line class="st4" x1="161.64" y1="263.11" x2="132.76" y2="263.11"/>
<g>
	<path class="st0" d="M166.69,264.87c0-0.76,0.61-1.26,1.15-1.36c-0.45-0.13-0.85-0.56-0.85-1.18c0-0.89,0.67-1.37,1.45-1.37
		c0.78,0,1.45,0.48,1.45,1.37c0,0.62-0.4,1.04-0.85,1.18c0.54,0.11,1.15,0.6,1.15,1.36c0,0.97-0.78,1.52-1.75,1.52
		S166.69,265.84,166.69,264.87z M169.63,264.87c0-0.71-0.54-1.13-1.19-1.13c-0.66,0-1.2,0.42-1.2,1.13c0,0.73,0.54,1.08,1.2,1.08
		C169.09,265.95,169.63,265.59,169.63,264.87z M169.37,262.32c0-0.58-0.42-0.94-0.93-0.94c-0.5,0-0.93,0.35-0.93,0.94
		c0,0.58,0.42,0.92,0.93,0.92C168.94,263.24,169.37,262.89,169.37,262.32z"/>
	<path class="st0" d="M173.9,264.39h1v0.45h-1v1.46h-0.52v-1.46h-2.6v-0.45l2.49-3.34h0.64V264.39z M171.34,264.39h2.04v-2.77
		L171.34,264.39z"/>
	<path class="st0" d="M182.28,263.72c0-0.72-0.49-0.88-0.9-0.88c-0.46,0-0.9,0.11-1.13,0.22c0.07,0.17,0.12,0.38,0.12,0.64v2.61
		h-0.53v-2.58c0-0.72-0.47-0.88-0.91-0.88c-0.43,0-0.78,0.09-1.02,0.18v3.29h-0.53v-3.61c0.5-0.2,1.04-0.34,1.55-0.34
		c0.45,0,0.8,0.1,1.04,0.3c0.46-0.18,0.96-0.3,1.42-0.3c0.93,0,1.43,0.38,1.43,1.35v2.6h-0.53V263.72z"/>
	<path class="st0" d="M186.75,266.17c-0.13,0.09-0.49,0.17-0.8,0.17c-1.27,0-2.15-0.66-2.15-1.98c0-1.25,0.87-2,2.22-2
		c0.4,0,0.93,0.11,1.26,0.25v3.74c0,1.18-0.88,1.64-1.77,1.64c-0.47,0-0.91-0.11-1.2-0.24v-0.5c0.34,0.16,0.78,0.29,1.2,0.29
		c0.64,0,1.24-0.31,1.24-1.28V266.17z M186.75,262.96c-0.21-0.07-0.45-0.11-0.73-0.11c-1.07,0-1.69,0.57-1.69,1.51
		c0,0.93,0.62,1.51,1.62,1.51c0.32,0,0.53-0.05,0.8-0.15V262.96z"/>
	<path class="st0" d="M189.99,265.38c0.42,0.34,0.8,0.54,1.34,0.54c0.63,0,1.17-0.27,1.17-0.96c0-0.63-0.47-0.87-1.1-1.1
		c-0.94-0.35-1.44-0.66-1.44-1.55s0.74-1.35,1.53-1.35c0.51,0,0.94,0.16,1.26,0.42v0.57c-0.42-0.34-0.78-0.51-1.26-0.51
		c-0.59,0-1,0.35-1,0.89c0,0.5,0.3,0.75,1.06,1.02c0.97,0.34,1.49,0.7,1.49,1.62c0,0.96-0.76,1.43-1.71,1.43
		c-0.57,0-1.02-0.16-1.34-0.41V265.38z"/>
	<path class="st0" d="M194.72,266.3h-0.55v-5.27c0.24-0.04,0.62-0.08,0.93-0.08c1.45,0,2.06,0.67,2.06,1.66
		c0,1.12-0.79,1.73-2.11,1.73c-0.1,0-0.22-0.01-0.34-0.02V266.3z M194.72,263.88c0.1,0.01,0.2,0.01,0.28,0.01
		c1.09,0,1.6-0.42,1.6-1.27c0-0.68-0.4-1.19-1.53-1.19c-0.11,0-0.23,0.01-0.35,0.02V263.88z"/>
	<path class="st0" d="M198.68,266.3h-0.55v-5.27c0.24-0.04,0.69-0.08,1-0.08c1.42,0,2.04,0.66,2.04,1.63c0,0.78-0.44,1.35-1.14,1.56
		l1.74,2.16h-0.68l-1.63-2.04h-0.79V266.3z M198.68,263.81h0.55c0.87,0,1.38-0.41,1.38-1.21c0-0.67-0.42-1.17-1.49-1.17
		c-0.11,0-0.32,0.01-0.44,0.02V263.81z"/>
	<path class="st0" d="M202.98,264.85l-0.55,1.45h-0.57l2.04-5.26h0.7l2.06,5.26h-0.58l-0.55-1.45H202.98z M204.24,261.49l-1.1,2.9
		h2.2L204.24,261.49z"/>
	<path class="st0" d="M208.86,266.3l-2.03-5.26h0.59l1.77,4.71l1.77-4.71h0.58l-2.03,5.26H208.86z"/>
	<path class="st0" d="M212.83,264.85l-0.55,1.45h-0.57l2.04-5.26h0.7l2.06,5.26h-0.58l-0.55-1.45H212.83z M214.1,261.49l-1.1,2.9
		h2.2L214.1,261.49z"/>
	<path class="st0" d="M219.01,266.3h-0.55v-4.78h-1.73v-0.48h4.02v0.48h-1.73V266.3z"/>
	<path class="st0" d="M223.99,260.96c1.51,0,2.72,1.11,2.72,2.72c0,1.61-1.2,2.72-2.72,2.72s-2.72-1.11-2.72-2.72
		C221.28,262.06,222.48,260.96,223.99,260.96z M223.99,261.45c-1.19,0-2.16,0.87-2.16,2.22c0,1.35,0.97,2.22,2.16,2.22
		s2.16-0.87,2.16-2.22C226.15,262.32,225.18,261.45,223.99,261.45z"/>
	<path class="st0" d="M227.46,263.95v-0.47h1.44v-1.44h0.47v1.44h1.44v0.47h-1.44v1.44h-0.47v-1.44H227.46z"/>
	<path class="st0" d="M231.54,265.38c0.42,0.34,0.8,0.54,1.34,0.54c0.63,0,1.17-0.27,1.17-0.96c0-0.63-0.47-0.87-1.1-1.1
		c-0.94-0.35-1.44-0.66-1.44-1.55s0.74-1.35,1.53-1.35c0.51,0,0.94,0.16,1.26,0.42v0.57c-0.42-0.34-0.78-0.51-1.26-0.51
		c-0.59,0-1,0.35-1,0.89c0,0.5,0.3,0.75,1.06,1.02c0.97,0.34,1.49,0.7,1.49,1.62c0,0.96-0.76,1.43-1.71,1.43
		c-0.57,0-1.02-0.16-1.34-0.41V265.38z"/>
	<path class="st0" d="M238.08,260.96c1.51,0,2.72,1.11,2.72,2.72c0,1.61-1.2,2.72-2.72,2.72s-2.72-1.11-2.72-2.72
		C235.36,262.06,236.56,260.96,238.08,260.96z M238.08,261.45c-1.19,0-2.16,0.87-2.16,2.22c0,1.35,0.97,2.22,2.16,2.22
		s2.16-0.87,2.16-2.22C240.23,262.32,239.26,261.45,238.08,261.45z"/>
	<path class="st0" d="M245.75,261.99c-0.38-0.36-0.9-0.54-1.46-0.54c-1.19,0-2.15,0.87-2.15,2.22c0,1.35,0.96,2.22,2.15,2.22
		c0.56,0,1.11-0.17,1.49-0.52V266c-0.42,0.25-0.95,0.39-1.48,0.39c-1.59,0-2.72-1.11-2.72-2.72c0-1.62,1.2-2.72,2.72-2.72
		c0.53,0,1.03,0.14,1.45,0.4V261.99z"/>
</g>
<g>
	<path class="st0" d="M100.77,293.65c0.48-0.06,1.02-0.11,1.44-0.11c1.8,0,2.58,0.7,2.58,1.93c0,0.92-0.59,1.56-1.5,1.67
		c1.1,0.07,1.79,0.68,1.79,1.73c0,1.15-0.79,2.04-2.87,2.04c-0.48,0-0.97-0.05-1.44-0.13V293.65z M101.5,296.87h0.64
		c1.2,0,1.92-0.47,1.92-1.39c0-0.89-0.68-1.32-1.86-1.32c-0.2,0-0.44,0.01-0.7,0.04V296.87z M101.5,300.25
		c0.29,0.04,0.53,0.05,0.71,0.05c1.51,0,2.13-0.54,2.13-1.43c0-0.95-0.83-1.37-2.1-1.37h-0.74V300.25z"/>
	<path class="st0" d="M109.17,297.13c0-0.67-0.43-1.02-1.1-1.02c-0.6,0-1.06,0.17-1.54,0.42v-0.68c0.44-0.24,1.01-0.41,1.62-0.41
		c1.05,0,1.74,0.47,1.74,1.64v3.61c-0.48,0.13-1.04,0.19-1.49,0.19c-1.42,0-2.36-0.44-2.36-1.55c0-1.03,0.95-1.57,2.54-1.57h0.59
		V297.13z M109.17,298.35h-0.54c-1.08,0-1.87,0.29-1.87,0.98s0.72,0.95,1.68,0.95c0.22,0,0.48-0.02,0.73-0.07V298.35z"/>
	<path class="st0" d="M111.29,299.67c0.44,0.4,0.9,0.62,1.47,0.62c0.66,0,1.08-0.25,1.08-0.84c0-0.62-0.46-0.79-1.28-1.07
		c-0.92-0.31-1.32-0.7-1.32-1.54c0-0.92,0.7-1.42,1.64-1.42c0.52,0,1.02,0.11,1.43,0.4v0.78c-0.41-0.34-0.83-0.56-1.43-0.56
		c-0.58,0-0.95,0.31-0.95,0.8c0,0.48,0.29,0.73,1.09,0.98c0.91,0.28,1.52,0.62,1.52,1.57c0,1.03-0.8,1.5-1.79,1.5
		c-0.59,0-1.15-0.17-1.47-0.42V299.67z"/>
	<path class="st0" d="M116.32,298.21v0.02c0,1.28,0.92,2.04,1.94,2.04c0.74,0,1.26-0.19,1.79-0.59v0.72
		c-0.47,0.35-1.14,0.5-1.79,0.5c-1.51,0-2.66-1.03-2.66-2.73c0-1.57,1.08-2.73,2.48-2.73c1.32,0,2.2,0.79,2.2,2.28v0.49H116.32z
		 M119.56,297.61c-0.05-1.09-0.64-1.54-1.51-1.54c-0.82,0-1.47,0.55-1.68,1.54H119.56z"/>
	<path class="st0" d="M122.38,300.79h-0.72v-8.16h0.72V300.79z"/>
	<path class="st0" d="M124,293.93c0-0.3,0.25-0.54,0.54-0.54c0.3,0,0.54,0.24,0.54,0.54c0,0.29-0.24,0.54-0.54,0.54
		C124.25,294.47,124,294.22,124,293.93z M124.9,300.79h-0.72v-5.23h0.72V300.79z"/>
	<path class="st0" d="M126.7,295.84c0.7-0.25,1.49-0.4,2.2-0.4c1.32,0,2.12,0.52,2.12,1.82v3.53h-0.72v-3.38
		c0-1.07-0.75-1.3-1.46-1.3c-0.55,0-1.04,0.1-1.42,0.19v4.49h-0.72V295.84z"/>
	<path class="st0" d="M133.08,298.21v0.02c0,1.28,0.92,2.04,1.94,2.04c0.74,0,1.26-0.19,1.79-0.59v0.72
		c-0.47,0.35-1.14,0.5-1.79,0.5c-1.51,0-2.66-1.03-2.66-2.73c0-1.57,1.08-2.73,2.48-2.73c1.32,0,2.2,0.79,2.2,2.28v0.49H133.08z
		 M136.32,297.61c-0.05-1.09-0.64-1.54-1.51-1.54c-0.82,0-1.47,0.55-1.68,1.54H136.32z"/>
</g>
<g>
	<path class="st0" d="M145.71,293.64c0.53-0.06,1.02-0.1,1.46-0.1c3.26,0,4.37,1.69,4.37,3.51c0,2-1.16,3.85-4.27,3.85
		c-0.6,0-1.05-0.05-1.56-0.11V293.64z M146.46,300.21c0.29,0.04,0.56,0.05,0.83,0.05c2.04,0,3.48-1.02,3.48-3.19
		c0-1.68-1.07-2.85-3.61-2.85c-0.23,0-0.44,0.01-0.7,0.04V300.21z"/>
	<path class="st0" d="M152.28,293.95l2.22-0.4v7.23h-0.73v-6.42l-1.49,0.23V293.95z"/>
	<path class="st0" d="M157.17,295.69c0.32,0,0.6,0.26,0.6,0.59c0,0.32-0.28,0.6-0.6,0.6c-0.32,0-0.59-0.28-0.59-0.6
		C156.59,295.96,156.85,295.69,157.17,295.69z M157.17,299.71c0.32,0,0.6,0.26,0.6,0.59c0,0.32-0.28,0.6-0.6,0.6
		c-0.32,0-0.59-0.28-0.59-0.6C156.59,299.97,156.85,299.71,157.17,299.71z"/>
	<path class="st0" d="M150.13,312.6h1.35v0.61h-1.35v1.98h-0.71v-1.98h-3.53v-0.61l3.37-4.53h0.86V312.6z M146.66,312.6h2.76v-3.75
		L146.66,312.6z"/>
	<path class="st0" d="M152.57,307.03h0.72v3.08c0.4-0.14,0.98-0.28,1.54-0.28c1.26,0,2.06,0.52,2.06,1.82v3.53h-0.72v-3.38
		c0-1.07-0.75-1.3-1.46-1.3c-0.55,0-1.06,0.12-1.42,0.24v4.44h-0.72V307.03z"/>
</g>
<g>
	<path class="st0" d="M162.66,293.64c0.53-0.06,1.02-0.1,1.46-0.1c3.26,0,4.37,1.69,4.37,3.51c0,2-1.16,3.85-4.27,3.85
		c-0.6,0-1.05-0.05-1.56-0.11V293.64z M163.4,300.21c0.29,0.04,0.56,0.05,0.83,0.05c2.04,0,3.48-1.02,3.48-3.19
		c0-1.68-1.07-2.85-3.61-2.85c-0.23,0-0.44,0.01-0.7,0.04V300.21z"/>
	<path class="st0" d="M173.61,300.14v0.65h-4.52v-0.55c1.83-1.55,3.61-3.09,3.61-4.67c0-0.92-0.55-1.36-1.32-1.36
		c-0.92,0-1.55,0.48-2.03,0.96v-0.8c0.43-0.44,1.15-0.83,2.03-0.83c1.16,0,2.05,0.62,2.05,2.03c0,1.58-1.76,3.36-3.41,4.57H173.61z"
		/>
</g>
<g>
	<path class="st0" d="M184.33,293.64c0.53-0.06,1.02-0.1,1.46-0.1c3.26,0,4.37,1.69,4.37,3.51c0,2-1.16,3.85-4.27,3.85
		c-0.6,0-1.05-0.05-1.56-0.11V293.64z M185.07,300.21c0.29,0.04,0.56,0.05,0.83,0.05c2.04,0,3.48-1.02,3.48-3.19
		c0-1.68-1.07-2.85-3.61-2.85c-0.23,0-0.44,0.01-0.7,0.04V300.21z"/>
	<path class="st0" d="M195.25,298.2h1.35v0.61h-1.35v1.98h-0.71v-1.98h-3.53v-0.61l3.37-4.53h0.86V298.2z M191.78,298.2h2.76v-3.75
		L191.78,298.2z"/>
</g>
<line class="st1" x1="214.94" y1="283.74" x2="214.94" y2="278.69"/>
<g>
	<path class="st0" d="M209.41,293.64c0.53-0.06,1.02-0.1,1.46-0.1c3.26,0,4.37,1.69,4.37,3.51c0,2-1.16,3.85-4.27,3.85
		c-0.6,0-1.05-0.05-1.56-0.11V293.64z M210.15,300.21c0.29,0.04,0.56,0.05,0.83,0.05c2.04,0,3.48-1.02,3.48-3.19
		c0-1.68-1.07-2.85-3.61-2.85c-0.23,0-0.44,0.01-0.7,0.04V300.21z"/>
	<path class="st0" d="M216.26,298.85c0-1.03,0.83-1.7,1.56-1.85c-0.61-0.18-1.15-0.76-1.15-1.59c0-1.21,0.91-1.86,1.97-1.86
		s1.97,0.65,1.97,1.86c0,0.84-0.54,1.42-1.15,1.59c0.73,0.14,1.56,0.82,1.56,1.85c0,1.32-1.06,2.06-2.38,2.06
		S216.26,300.17,216.26,298.85z M220.25,298.85c0-0.96-0.73-1.54-1.62-1.54s-1.62,0.58-1.62,1.54c0,0.98,0.73,1.46,1.62,1.46
		S220.25,299.83,220.25,298.85z M219.89,295.39c0-0.79-0.58-1.27-1.26-1.27s-1.26,0.48-1.26,1.27c0,0.78,0.58,1.25,1.26,1.25
		S219.89,296.17,219.89,295.39z"/>
</g>
<line class="st1" x1="235.52" y1="283.74" x2="235.52" y2="278.69"/>
<g>
	<path class="st0" d="M229.19,293.64c0.53-0.06,1.02-0.1,1.46-0.1c3.26,0,4.37,1.69,4.37,3.51c0,2-1.16,3.85-4.27,3.85
		c-0.6,0-1.05-0.05-1.56-0.11V293.64z M229.93,300.21c0.29,0.04,0.56,0.05,0.83,0.05c2.04,0,3.48-1.02,3.48-3.19
		c0-1.68-1.07-2.85-3.61-2.85c-0.23,0-0.44,0.01-0.7,0.04V300.21z"/>
	<path class="st0" d="M235.75,293.95l2.22-0.4v7.23h-0.73v-6.42l-1.49,0.23V293.95z"/>
	<path class="st0" d="M239.41,293.95l2.22-0.4v7.23h-0.73v-6.42l-1.49,0.23V293.95z"/>
</g>
<line class="st1" x1="263.79" y1="283.74" x2="263.79" y2="278.69"/>
<g>
	<path class="st0" d="M256.88,293.64c0.53-0.06,1.02-0.1,1.46-0.1c3.26,0,4.37,1.69,4.37,3.51c0,2-1.16,3.85-4.27,3.85
		c-0.6,0-1.05-0.05-1.56-0.11V293.64z M257.62,300.21c0.29,0.04,0.56,0.05,0.83,0.05c2.04,0,3.48-1.02,3.48-3.19
		c0-1.68-1.07-2.85-3.61-2.85c-0.23,0-0.44,0.01-0.7,0.04V300.21z"/>
	<path class="st0" d="M263.44,293.95l2.22-0.4v7.23h-0.73v-6.42l-1.49,0.23V293.95z"/>
	<path class="st0" d="M268.33,296.4c1.63,0.2,2.9,0.82,2.9,2.41c0,1.09-0.78,2.1-2.48,2.1c-0.62,0-1.2-0.18-1.61-0.46v-0.7
		c0.5,0.34,1.04,0.54,1.59,0.54c1.15,0,1.75-0.61,1.75-1.49c0-1.3-1.22-1.69-2.84-1.87l0.23-3.27h3.18v0.65h-2.58L268.33,296.4z"/>
</g>
<line class="st1" x1="284.99" y1="283.74" x2="284.99" y2="278.69"/>
<g>
	<path class="st0" d="M277.62,293.64c0.53-0.06,1.02-0.1,1.46-0.1c3.26,0,4.37,1.69,4.37,3.51c0,2-1.16,3.85-4.27,3.85
		c-0.6,0-1.05-0.05-1.56-0.11V293.64z M278.37,300.21c0.29,0.04,0.56,0.05,0.83,0.05c2.04,0,3.48-1.02,3.48-3.19
		c0-1.68-1.07-2.85-3.61-2.85c-0.23,0-0.44,0.01-0.7,0.04V300.21z"/>
	<path class="st0" d="M284.19,293.95l2.22-0.4v7.23h-0.73v-6.42l-1.49,0.23V293.95z"/>
	<path class="st0" d="M288.14,298.85c0-1.03,0.83-1.7,1.56-1.85c-0.61-0.18-1.15-0.76-1.15-1.59c0-1.21,0.91-1.86,1.97-1.86
		s1.97,0.65,1.97,1.86c0,0.84-0.54,1.42-1.15,1.59c0.73,0.14,1.56,0.82,1.56,1.85c0,1.32-1.06,2.06-2.38,2.06
		S288.14,300.17,288.14,298.85z M292.13,298.85c0-0.96-0.73-1.54-1.62-1.54s-1.62,0.58-1.62,1.54c0,0.98,0.73,1.46,1.62,1.46
		S292.13,299.83,292.13,298.85z M291.77,295.39c0-0.79-0.58-1.27-1.26-1.27s-1.26,0.48-1.26,1.27c0,0.78,0.58,1.25,1.26,1.25
		S291.77,296.17,291.77,295.39z"/>
</g>
<g>
	<path class="st0" d="M298.59,293.64c0.53-0.06,1.02-0.1,1.46-0.1c3.26,0,4.37,1.69,4.37,3.51c0,2-1.16,3.85-4.27,3.85
		c-0.6,0-1.05-0.05-1.56-0.11V293.64z M299.33,300.21c0.29,0.04,0.56,0.05,0.83,0.05c2.04,0,3.48-1.02,3.48-3.19
		c0-1.68-1.07-2.85-3.61-2.85c-0.23,0-0.44,0.01-0.7,0.04V300.21z"/>
	<path class="st0" d="M309.54,300.14v0.65h-4.52v-0.55c1.83-1.55,3.61-3.09,3.61-4.67c0-0.92-0.55-1.36-1.32-1.36
		c-0.92,0-1.55,0.48-2.03,0.96v-0.8c0.43-0.44,1.15-0.83,2.03-0.83c1.16,0,2.05,0.62,2.05,2.03c0,1.58-1.76,3.36-3.41,4.57H309.54z"
		/>
	<path class="st0" d="M314.58,300.14v0.65h-4.52v-0.55c1.83-1.55,3.61-3.09,3.61-4.67c0-0.92-0.55-1.36-1.32-1.36
		c-0.92,0-1.55,0.48-2.03,0.96v-0.8c0.43-0.44,1.15-0.83,2.03-0.83c1.16,0,2.05,0.62,2.05,2.03c0,1.58-1.76,3.36-3.41,4.57H314.58z"
		/>
</g>
<line class="st1" x1="722.46" y1="283.74" x2="722.46" y2="278.69"/>
<g>
	<path class="st0" d="M713.66,293.64c0.53-0.06,1.02-0.1,1.46-0.1c3.26,0,4.37,1.69,4.37,3.51c0,2-1.16,3.85-4.27,3.85
		c-0.6,0-1.05-0.05-1.56-0.11V293.64z M714.4,300.21c0.29,0.04,0.56,0.05,0.83,0.05c2.04,0,3.48-1.02,3.48-3.19
		c0-1.68-1.07-2.85-3.61-2.85c-0.23,0-0.44,0.01-0.7,0.04V300.21z"/>
	<path class="st0" d="M722.02,300.79l1.57-2.39l0.61-0.86c-0.37,0.44-0.86,0.65-1.48,0.65c-1.19,0-2.27-0.82-2.27-2.31
		c0-1.25,0.89-2.33,2.43-2.33c1.52,0,2.38,1.08,2.38,2.33c0,0.86-0.34,1.62-0.84,2.4l-1.63,2.52H722.02z M722.89,294.14
		c-0.97,0-1.69,0.66-1.69,1.71c0,1.03,0.71,1.7,1.68,1.7c0.95,0,1.67-0.67,1.67-1.7C724.54,294.8,723.81,294.14,722.89,294.14z"/>
	<path class="st0" d="M729.03,293.55c1.63,0,2.65,1.55,2.65,3.68c0,2.14-1.02,3.68-2.65,3.68s-2.65-1.55-2.65-3.68
		C726.38,295.09,727.4,293.55,729.03,293.55z M729.03,300.27c1.15,0,1.91-1.26,1.91-3.05c0-1.79-0.76-3.05-1.91-3.05
		s-1.91,1.26-1.91,3.05C727.12,299.01,727.88,300.27,729.03,300.27z"/>
</g>
<line class="st1" x1="630.6" y1="283.74" x2="630.6" y2="278.69"/>
<g>
	<path class="st0" d="M622.64,293.64c0.53-0.06,1.02-0.1,1.46-0.1c3.26,0,4.37,1.69,4.37,3.51c0,2-1.16,3.85-4.27,3.85
		c-0.6,0-1.05-0.05-1.56-0.11V293.64z M623.38,300.21c0.29,0.04,0.56,0.05,0.83,0.05c2.04,0,3.48-1.02,3.48-3.19
		c0-1.68-1.07-2.85-3.61-2.85c-0.23,0-0.44,0.01-0.7,0.04V300.21z"/>
	<path class="st0" d="M632.76,293.67l-1.57,2.39l-0.61,0.86c0.37-0.44,0.86-0.65,1.47-0.65c1.19,0,2.27,0.82,2.27,2.31
		c0,1.25-0.89,2.33-2.44,2.33c-1.52,0-2.37-1.08-2.37-2.33c0-0.86,0.34-1.62,0.84-2.4l1.63-2.52H632.76z M631.9,300.31
		c0.97,0,1.69-0.66,1.69-1.71c0-1.03-0.71-1.7-1.68-1.7c-0.95,0-1.67,0.67-1.67,1.7C630.24,299.65,630.98,300.31,631.9,300.31z"/>
	<path class="st0" d="M634.88,294.31v-0.65h4.39v0.65l-3.11,6.48h-0.76l3.11-6.48H634.88z"/>
</g>
<line class="st1" x1="532.3" y1="283.74" x2="532.3" y2="278.69"/>
<g>
	<path class="st0" d="M524.84,293.64c0.53-0.06,1.02-0.1,1.46-0.1c3.26,0,4.37,1.69,4.37,3.51c0,2-1.16,3.85-4.27,3.85
		c-0.6,0-1.05-0.05-1.56-0.11V293.64z M525.58,300.21c0.29,0.04,0.56,0.05,0.83,0.05c2.04,0,3.48-1.02,3.48-3.19
		c0-1.68-1.07-2.85-3.61-2.85c-0.23,0-0.44,0.01-0.7,0.04V300.21z"/>
	<path class="st0" d="M532.64,296.4c1.63,0.2,2.9,0.82,2.9,2.41c0,1.09-0.78,2.1-2.48,2.1c-0.62,0-1.2-0.18-1.61-0.46v-0.7
		c0.5,0.34,1.04,0.54,1.59,0.54c1.15,0,1.75-0.61,1.75-1.49c0-1.3-1.22-1.69-2.84-1.87l0.23-3.27h3.18v0.65h-2.58L532.64,296.4z"/>
	<path class="st0" d="M536.35,294.37c0.33-0.42,1.05-0.83,1.86-0.83c1.34,0,1.99,0.82,1.99,1.76c0,0.88-0.68,1.72-1.63,1.85
		c0.98,0.12,1.79,0.78,1.79,1.81c0,1.06-0.82,1.94-2.36,1.94c-0.65,0-1.38-0.2-1.73-0.5v-0.68c0.5,0.35,1,0.58,1.73,0.58
		c0.97,0,1.62-0.52,1.62-1.33c0-0.9-0.55-1.29-1.99-1.54v-0.5c1.22-0.26,1.81-0.78,1.81-1.62c0-0.71-0.54-1.12-1.22-1.12
		c-0.8,0-1.42,0.48-1.86,0.96V294.37z"/>
</g>
<line class="st1" x1="482.53" y1="283.74" x2="482.53" y2="278.69"/>
<g>
	<path class="st0" d="M473.93,293.64c0.53-0.06,1.02-0.1,1.46-0.1c3.26,0,4.37,1.69,4.37,3.51c0,2-1.16,3.85-4.27,3.85
		c-0.6,0-1.05-0.05-1.56-0.11V293.64z M474.68,300.21c0.29,0.04,0.56,0.05,0.83,0.05c2.04,0,3.48-1.02,3.48-3.19
		c0-1.68-1.07-2.85-3.61-2.85c-0.23,0-0.44,0.01-0.7,0.04V300.21z"/>
	<path class="st0" d="M484.85,298.2h1.35v0.61h-1.35v1.98h-0.71v-1.98h-3.53v-0.61l3.37-4.53h0.86V298.2z M481.38,298.2h2.76v-3.75
		L481.38,298.2z"/>
	<path class="st0" d="M490.14,293.67l-1.57,2.39l-0.61,0.86c0.37-0.44,0.86-0.65,1.47-0.65c1.19,0,2.27,0.82,2.27,2.31
		c0,1.25-0.89,2.33-2.43,2.33c-1.52,0-2.38-1.08-2.38-2.33c0-0.86,0.34-1.62,0.84-2.4l1.63-2.52H490.14z M489.28,300.31
		c0.97,0,1.69-0.66,1.69-1.71c0-1.03-0.71-1.7-1.68-1.7c-0.95,0-1.67,0.67-1.67,1.7C487.63,299.65,488.36,300.31,489.28,300.31z"/>
</g>
<line class="st1" x1="433.06" y1="283.74" x2="433.06" y2="278.69"/>
<g>
	<path class="st0" d="M425.14,293.64c0.53-0.06,1.02-0.1,1.46-0.1c3.26,0,4.37,1.69,4.37,3.51c0,2-1.16,3.85-4.27,3.85
		c-0.6,0-1.05-0.05-1.56-0.11V293.64z M425.88,300.21c0.29,0.04,0.56,0.05,0.83,0.05c2.04,0,3.48-1.02,3.48-3.19
		c0-1.68-1.07-2.85-3.61-2.85c-0.23,0-0.44,0.01-0.7,0.04V300.21z"/>
	<path class="st0" d="M431.83,294.37c0.33-0.42,1.05-0.83,1.86-0.83c1.34,0,1.99,0.82,1.99,1.76c0,0.88-0.68,1.72-1.63,1.85
		c0.98,0.12,1.79,0.78,1.79,1.81c0,1.06-0.82,1.94-2.36,1.94c-0.65,0-1.38-0.2-1.73-0.5v-0.68c0.5,0.35,1,0.58,1.73,0.58
		c0.97,0,1.62-0.52,1.62-1.33c0-0.9-0.55-1.29-1.99-1.54v-0.5c1.22-0.26,1.81-0.78,1.81-1.62c0-0.71-0.54-1.12-1.22-1.12
		c-0.8,0-1.42,0.48-1.86,0.96V294.37z"/>
	<path class="st0" d="M438.25,300.79l1.57-2.39l0.61-0.86c-0.37,0.44-0.86,0.65-1.48,0.65c-1.19,0-2.27-0.82-2.27-2.31
		c0-1.25,0.89-2.33,2.43-2.33c1.52,0,2.38,1.08,2.38,2.33c0,0.86-0.34,1.62-0.84,2.4l-1.63,2.52H438.25z M439.12,294.14
		c-0.97,0-1.69,0.66-1.69,1.71c0,1.03,0.71,1.7,1.68,1.7c0.95,0,1.67-0.67,1.67-1.7C440.77,294.8,440.04,294.14,439.12,294.14z"/>
</g>
<line class="st1" x1="390.98" y1="283.74" x2="390.98" y2="278.69"/>
<g>
	<path class="st0" d="M392,293.64c0.53-0.06,1.02-0.1,1.46-0.1c3.26,0,4.37,1.69,4.37,3.51c0,2-1.16,3.85-4.27,3.85
		c-0.6,0-1.05-0.05-1.56-0.11V293.64z M392.74,300.21c0.29,0.04,0.56,0.05,0.83,0.05c2.04,0,3.48-1.02,3.48-3.19
		c0-1.68-1.07-2.85-3.61-2.85c-0.23,0-0.44,0.01-0.7,0.04V300.21z"/>
	<path class="st0" d="M398.69,294.37c0.33-0.42,1.05-0.83,1.86-0.83c1.34,0,1.99,0.82,1.99,1.76c0,0.88-0.68,1.72-1.63,1.85
		c0.98,0.12,1.79,0.78,1.79,1.81c0,1.06-0.82,1.94-2.36,1.94c-0.65,0-1.38-0.2-1.73-0.5v-0.68c0.5,0.35,1,0.58,1.73,0.58
		c0.97,0,1.62-0.52,1.62-1.33c0-0.9-0.55-1.29-1.99-1.54v-0.5c1.22-0.26,1.81-0.78,1.81-1.62c0-0.71-0.54-1.12-1.22-1.12
		c-0.8,0-1.42,0.48-1.86,0.96V294.37z"/>
	<path class="st0" d="M407.7,300.14v0.65h-4.52v-0.55c1.83-1.55,3.61-3.09,3.61-4.67c0-0.92-0.55-1.36-1.32-1.36
		c-0.92,0-1.55,0.48-2.03,0.96v-0.8c0.43-0.44,1.15-0.83,2.03-0.83c1.16,0,2.05,0.62,2.05,2.03c0,1.58-1.76,3.36-3.41,4.57H407.7z"
		/>
</g>
<line class="st1" x1="369.47" y1="283.74" x2="369.47" y2="278.69"/>
<line class="st1" x1="348.58" y1="283.74" x2="348.58" y2="278.69"/>
<line class="st1" x1="334.14" y1="283.74" x2="334.14" y2="278.69"/>
<line class="st1" x1="312.94" y1="283.74" x2="312.94" y2="278.69"/>
<g>
	<path class="st0" d="M370.49,293.64c0.53-0.06,1.02-0.1,1.46-0.1c3.26,0,4.37,1.69,4.37,3.51c0,2-1.16,3.85-4.27,3.85
		c-0.6,0-1.05-0.05-1.56-0.11V293.64z M371.23,300.21c0.29,0.04,0.56,0.05,0.83,0.05c2.04,0,3.48-1.02,3.48-3.19
		c0-1.68-1.07-2.85-3.61-2.85c-0.23,0-0.44,0.01-0.7,0.04V300.21z"/>
	<path class="st0" d="M381.44,300.14v0.65h-4.52v-0.55c1.83-1.55,3.61-3.09,3.61-4.67c0-0.92-0.55-1.36-1.32-1.36
		c-0.92,0-1.55,0.48-2.03,0.96v-0.8c0.43-0.44,1.15-0.83,2.03-0.83c1.16,0,2.05,0.62,2.05,2.03c0,1.58-1.76,3.36-3.41,4.57H381.44z"
		/>
	<path class="st0" d="M382.38,298.85c0-1.03,0.83-1.7,1.56-1.85c-0.61-0.18-1.15-0.76-1.15-1.59c0-1.21,0.91-1.86,1.97-1.86
		s1.97,0.65,1.97,1.86c0,0.84-0.54,1.42-1.15,1.59c0.73,0.14,1.56,0.82,1.56,1.85c0,1.32-1.06,2.06-2.38,2.06
		S382.38,300.17,382.38,298.85z M386.38,298.85c0-0.96-0.73-1.54-1.62-1.54s-1.62,0.58-1.62,1.54c0,0.98,0.73,1.46,1.62,1.46
		S386.38,299.83,386.38,298.85z M386.02,295.39c0-0.79-0.58-1.27-1.26-1.27s-1.26,0.48-1.26,1.27c0,0.78,0.58,1.25,1.26,1.25
		S386.02,296.17,386.02,295.39z"/>
</g>
<g>
	<path class="st0" d="M410.97,335.05c0.53-0.08,1.51-0.18,2.39-0.18c2.38,0,3.99,1.22,3.99,3.61c0,2.6-1.69,3.73-4.04,3.73
		c-0.85,0-1.79-0.05-2.34-0.17V335.05z M412.76,340.61c0.22,0.02,0.52,0.04,0.77,0.04c1.19,0,1.99-0.68,1.99-2.17
		c0-1.37-0.9-1.97-2.03-1.97c-0.23,0-0.52,0.01-0.73,0.04V340.61z"/>
	<path class="st0" d="M421.09,338.67c0-0.47-0.42-0.64-0.91-0.64c-0.64,0-1.14,0.19-1.55,0.44v-1.44c0.49-0.29,1.15-0.44,1.86-0.44
		c1.3,0,2.28,0.49,2.28,2v3.39c-0.53,0.12-1.44,0.24-2.21,0.24c-1.33,0-2.41-0.4-2.41-1.69c0-1.14,0.89-1.66,2.36-1.66h0.58V338.67z
		 M421.09,339.92h-0.46c-0.53,0-0.79,0.17-0.79,0.54s0.26,0.55,0.7,0.55c0.14,0,0.38-0.01,0.55-0.05V339.92z"/>
	<path class="st0" d="M426.52,340.23l1.21-3.51h1.77l-2.95,7.56h-1.68l0.78-2.05l-2.21-5.51h1.83L426.52,340.23z"/>
	<path class="st0" d="M430.14,340.29c0.54,0.36,1.28,0.59,1.79,0.59c0.37,0,0.64-0.1,0.64-0.34c0-0.22-0.16-0.34-0.66-0.41
		c-1.31-0.18-1.86-0.7-1.86-1.72c0-1.26,0.96-1.82,2.18-1.82c0.68,0,1.14,0.14,1.62,0.41v1.45c-0.53-0.34-1.02-0.5-1.55-0.5
		c-0.46,0-0.6,0.17-0.6,0.35c0,0.2,0.16,0.31,0.55,0.37c1.55,0.25,1.97,0.84,1.97,1.81c0,1.2-0.9,1.75-2.24,1.75
		c-0.66,0-1.36-0.16-1.83-0.44V340.29z"/>
</g>
<polyline class="st5" points="139.67,24.02 154.13,101.64 167.93,117.65 189.62,127.56 217.39,152.92 238.58,162.41 266.68,180.11 
	287.71,181.53 315.96,178.41 337.65,187.62 351.62,206.74 372.32,195.84 393.84,193.29 436.23,194.84 485.85,181.53 534.81,196.54 
	633.88,204.19 725.23,210.42 "/>
<path class="st6" d="M135.58,23.87c0-2.31,1.9-4.18,4.25-4.18c2.35,0,4.25,1.87,4.25,4.18c0,2.31-1.9,4.18-4.25,4.18
	C137.48,28.05,135.58,26.18,135.58,23.87"/>
<path class="st6" d="M150.48,101.64c0-2.31,1.9-4.18,4.25-4.18s4.25,1.87,4.25,4.18c0,2.31-1.9,4.18-4.25,4.18
	S150.48,103.95,150.48,101.64"/>
<line class="st3" x1="154.73" y1="94.07" x2="154.73" y2="109.21"/>
<line class="st3" x1="149.5" y1="109.21" x2="159.95" y2="109.21"/>
<line class="st3" x1="149.5" y1="94.07" x2="159.95" y2="94.07"/>
<path class="st6" d="M164.3,117.52c0-2.31,1.9-4.18,4.25-4.18s4.25,1.87,4.25,4.18c0,2.31-1.9,4.18-4.25,4.18
	S164.3,119.83,164.3,117.52"/>
<line class="st3" x1="168.55" y1="109.5" x2="168.55" y2="125.24"/>
<line class="st3" x1="163.33" y1="125.24" x2="174.08" y2="125.24"/>
<line class="st3" x1="163.33" y1="109.5" x2="174.08" y2="109.5"/>
<path class="st6" d="M185.19,127.61c0-2.31,1.9-4.18,4.25-4.18c2.35,0,4.25,1.87,4.25,4.18c0,2.31-1.9,4.18-4.25,4.18
	C187.1,131.79,185.19,129.92,185.19,127.61"/>
<path class="st6" d="M142.95,239.66c0-2.31,1.9-4.18,4.25-4.18s4.25,1.87,4.25,4.18c0,2.31-1.9,4.18-4.25,4.18
	S142.95,241.97,142.95,239.66"/>
<line class="st3" x1="189.44" y1="119.89" x2="189.44" y2="135.62"/>
<line class="st3" x1="184.53" y1="135.62" x2="194.66" y2="135.62"/>
<line class="st3" x1="184.53" y1="119.89" x2="194.66" y2="119.89"/>
<path class="st6" d="M214.07,153.58c0-2.31,1.9-4.18,4.25-4.18s4.25,1.87,4.25,4.18c0,2.31-1.9,4.18-4.25,4.18
	S214.07,155.89,214.07,153.58"/>
<line class="st3" x1="218.32" y1="145.72" x2="218.32" y2="161.45"/>
<line class="st3" x1="213.1" y1="161.45" x2="223.54" y2="161.45"/>
<line class="st3" x1="213.1" y1="145.72" x2="223.54" y2="145.72"/>
<path class="st6" d="M234.66,162.49c0-2.31,1.9-4.18,4.25-4.18s4.25,1.87,4.25,4.18c0,2.31-1.9,4.18-4.25,4.18
	S234.66,164.79,234.66,162.49"/>
<line class="st3" x1="238.9" y1="154.03" x2="238.9" y2="170.35"/>
<line class="st3" x1="233.68" y1="170.35" x2="244.13" y2="170.35"/>
<line class="st3" x1="233.68" y1="154.03" x2="244.13" y2="154.03"/>
<path class="st6" d="M262.61,180.59c0-2.31,1.9-4.18,4.25-4.18s4.25,1.87,4.25,4.18c0,2.31-1.9,4.18-4.25,4.18
	S262.61,182.9,262.61,180.59"/>
<line class="st3" x1="266.86" y1="171.84" x2="266.86" y2="188.16"/>
<line class="st3" x1="261.95" y1="188.16" x2="272.08" y2="188.16"/>
<line class="st3" x1="261.95" y1="171.84" x2="272.08" y2="171.84"/>
<path class="st6" d="M283.81,181.19c0-2.31,1.9-4.18,4.25-4.18s4.25,1.87,4.25,4.18c0,2.31-1.9,4.18-4.25,4.18
	S283.81,183.49,283.81,181.19"/>
<path class="st6" d="M312.07,177.63c0-2.31,1.9-4.18,4.25-4.18s4.25,1.87,4.25,4.18c0,2.31-1.9,4.18-4.25,4.18
	S312.07,179.93,312.07,177.63"/>
<path class="st6" d="M333.58,187.87c0-2.31,1.9-4.18,4.25-4.18s4.25,1.87,4.25,4.18c0,2.31-1.9,4.18-4.25,4.18
	S333.58,190.17,333.58,187.87"/>
<path class="st6" d="M347.4,206.86c0-2.31,1.9-4.18,4.25-4.18s4.25,1.87,4.25,4.18c0,2.31-1.9,4.18-4.25,4.18
	S347.4,209.17,347.4,206.86"/>
<path class="st6" d="M368.6,195.73c0-2.31,1.9-4.18,4.25-4.18s4.25,1.87,4.25,4.18c0,2.31-1.9,4.18-4.25,4.18
	S368.6,198.04,368.6,195.73"/>
<path class="st6" d="M389.49,193.21c0-2.31,1.9-4.18,4.25-4.18s4.25,1.87,4.25,4.18c0,2.31-1.9,4.18-4.25,4.18
	S389.49,195.52,389.49,193.21"/>
<path class="st6" d="M431.89,195.14c0-2.31,1.9-4.18,4.25-4.18s4.25,1.87,4.25,4.18c0,2.31-1.9,4.18-4.25,4.18
	S431.89,197.45,431.89,195.14"/>
<path class="st6" d="M481.5,181.63c0-2.31,1.9-4.18,4.25-4.18s4.25,1.87,4.25,4.18c0,2.31-1.9,4.18-4.25,4.18
	S481.5,183.94,481.5,181.63"/>
<path class="st6" d="M530.81,196.47c0-2.31,1.9-4.18,4.25-4.18s4.25,1.87,4.25,4.18c0,2.31-1.9,4.18-4.25,4.18
	S530.81,198.78,530.81,196.47"/>
<path class="st6" d="M629.74,204.64c0-2.31,1.9-4.18,4.25-4.18s4.25,1.87,4.25,4.18c0,2.31-1.9,4.18-4.25,4.18
	S629.74,206.94,629.74,204.64"/>
<path class="st6" d="M720.67,211.02c0-2.31,1.9-4.18,4.25-4.18s4.25,1.87,4.25,4.18c0,2.31-1.9,4.18-4.25,4.18
	S720.67,213.33,720.67,211.02"/>
<line class="st3" x1="288.06" y1="173.92" x2="288.06" y2="189.65"/>
<line class="st3" x1="282.84" y1="189.65" x2="293.28" y2="189.65"/>
<line class="st3" x1="282.84" y1="173.92" x2="293.28" y2="173.92"/>
<line class="st3" x1="316.32" y1="169.76" x2="316.32" y2="186.38"/>
<line class="st3" x1="311.41" y1="186.38" x2="321.55" y2="186.38"/>
<line class="st3" x1="311.41" y1="169.76" x2="321.55" y2="169.76"/>
<line class="st3" x1="337.83" y1="178.37" x2="337.83" y2="196.47"/>
<line class="st3" x1="332.61" y1="196.47" x2="342.74" y2="196.47"/>
<line class="st3" x1="332.61" y1="178.37" x2="342.74" y2="178.37"/>
<line class="st3" x1="351.65" y1="199.44" x2="351.65" y2="214.28"/>
<line class="st3" x1="346.43" y1="214.28" x2="356.88" y2="214.28"/>
<line class="st3" x1="346.43" y1="199.44" x2="356.88" y2="199.44"/>
<line class="st3" x1="372.85" y1="186.68" x2="372.85" y2="204.19"/>
<line class="st3" x1="367.93" y1="204.19" x2="378.07" y2="204.19"/>
<line class="st3" x1="367.93" y1="186.68" x2="378.07" y2="186.68"/>
<line class="st3" x1="393.74" y1="184.6" x2="393.74" y2="201.52"/>
<line class="st3" x1="388.52" y1="201.52" x2="398.96" y2="201.52"/>
<line class="st3" x1="388.52" y1="184.6" x2="398.96" y2="184.6"/>
<line class="st3" x1="436.14" y1="185.79" x2="436.14" y2="204.78"/>
<line class="st3" x1="431.22" y1="204.78" x2="441.67" y2="204.78"/>
<line class="st3" x1="431.22" y1="185.79" x2="441.67" y2="185.79"/>
<line class="st3" x1="485.6" y1="172.43" x2="485.6" y2="192.32"/>
<line class="st3" x1="480.38" y1="192.02" x2="490.82" y2="192.02"/>
<line class="st3" x1="480.38" y1="172.43" x2="490.82" y2="172.43"/>
<line class="st3" x1="535.06" y1="186.68" x2="535.06" y2="206.27"/>
<line class="st3" x1="530.15" y1="206.27" x2="540.28" y2="206.27"/>
<line class="st3" x1="530.15" y1="186.68" x2="540.28" y2="186.68"/>
<line class="st3" x1="633.98" y1="194.1" x2="633.98" y2="213.69"/>
<line class="st3" x1="628.76" y1="213.69" x2="638.9" y2="213.69"/>
<line class="st3" x1="628.76" y1="194.1" x2="638.9" y2="194.1"/>
<line class="st3" x1="724.92" y1="199.44" x2="724.92" y2="222"/>
<line class="st3" x1="719.7" y1="221.7" x2="730.14" y2="221.7"/>
<line class="st3" x1="719.7" y1="199.44" x2="730.14" y2="199.44"/>
<polygon class="st7" points="148.36,117.05 151.12,121.16 153.74,125.41 148.36,125.41 143.12,125.41 145.74,121.16 "/>
<line class="st4" x1="148.28" y1="114.25" x2="148.28" y2="129.09"/>
<line class="st4" x1="143.36" y1="129.09" x2="153.5" y2="129.09"/>
<line class="st4" x1="143.36" y1="114.25" x2="153.5" y2="114.25"/>
<polygon class="st7" points="162.79,131.59 165.41,135.84 168.02,139.95 162.79,139.95 157.4,139.95 160.02,135.84 "/>
<line class="st4" x1="162.71" y1="129.09" x2="162.71" y2="144.53"/>
<line class="st4" x1="157.8" y1="144.53" x2="167.94" y2="144.53"/>
<line class="st4" x1="157.8" y1="129.09" x2="167.94" y2="129.09"/>
<polygon class="st7" points="183.99,153.26 186.6,157.37 189.22,161.62 183.99,161.62 178.6,161.62 181.22,157.37 "/>
<line class="st4" x1="183.91" y1="150.17" x2="183.91" y2="166.2"/>
<line class="st4" x1="178.69" y1="166.2" x2="188.83" y2="166.2"/>
<line class="st4" x1="178.69" y1="150.17" x2="188.83" y2="150.17"/>
<polygon class="st7" points="233.45,166.62 236.07,170.65 238.68,174.98 233.45,174.98 228.06,174.98 230.68,170.65 "/>
<polygon class="st7" points="147.27,258.23 149.89,262.26 152.51,266.59 147.27,266.59 141.89,266.59 144.51,262.26 "/>
<line class="st4" x1="233.07" y1="163.23" x2="233.07" y2="179.55"/>
<line class="st4" x1="228.15" y1="179.55" x2="238.29" y2="179.55"/>
<line class="st4" x1="228.15" y1="163.23" x2="238.29" y2="163.23"/>
<polygon class="st7" points="261.64,172.26 264.22,176.37 266.95,180.62 261.64,180.62 256.33,180.62 259.05,176.37 "/>
<line class="st4" x1="261.33" y1="169.17" x2="261.33" y2="184.6"/>
<line class="st4" x1="256.11" y1="184.6" x2="266.55" y2="184.6"/>
<line class="st4" x1="256.11" y1="169.17" x2="266.55" y2="169.17"/>
<polygon class="st7" points="332.23,191.55 334.99,195.66 337.61,199.91 332.23,199.91 326.99,199.91 329.61,195.66 "/>
<line class="st4" x1="331.99" y1="188.16" x2="331.99" y2="205.68"/>
<line class="st4" x1="326.77" y1="205.68" x2="337.21" y2="205.68"/>
<line class="st4" x1="326.77" y1="188.16" x2="337.21" y2="188.16"/>
<polygon class="st7" points="367.39,195.71 370.01,199.82 372.63,204.07 367.39,204.07 362.01,204.07 364.77,199.82 "/>
<line class="st4" x1="367.32" y1="192.62" x2="367.32" y2="209.53"/>
<line class="st4" x1="362.1" y1="209.53" x2="372.24" y2="209.53"/>
<line class="st4" x1="362.1" y1="192.62" x2="372.24" y2="192.62"/>
<polygon class="st7" points="387.83,198.97 390.45,203.08 393.21,207.33 387.83,207.33 382.59,207.33 385.21,203.08 "/>
<line class="st4" x1="387.9" y1="194.69" x2="387.9" y2="212.21"/>
<line class="st4" x1="382.68" y1="212.21" x2="393.13" y2="212.21"/>
<line class="st4" x1="382.68" y1="194.69" x2="393.13" y2="194.69"/>
<polygon class="st7" points="429.92,190.96 432.68,195.07 435.3,199.32 429.92,199.32 424.68,199.32 427.3,195.07 "/>
<line class="st4" x1="429.99" y1="187.57" x2="429.99" y2="205.68"/>
<line class="st4" x1="424.77" y1="205.68" x2="435.22" y2="205.68"/>
<line class="st4" x1="424.77" y1="187.57" x2="435.22" y2="187.57"/>
<polygon class="st7" points="480.6,183.69 483.22,187.79 485.84,192.04 480.6,192.04 475.22,192.04 477.84,187.79 "/>
<line class="st4" x1="480.38" y1="178.37" x2="480.38" y2="197.96"/>
<line class="st4" x1="475.15" y1="197.96" x2="485.29" y2="197.96"/>
<line class="st4" x1="475.15" y1="178.37" x2="485.29" y2="178.37"/>
<polygon class="st7" points="529.22,185.62 531.81,189.87 534.53,193.97 529.22,193.97 523.91,193.97 526.64,189.87 "/>
<line class="st4" x1="528.92" y1="181.04" x2="528.92" y2="200.04"/>
<line class="st4" x1="523.69" y1="200.04" x2="534.14" y2="200.04"/>
<line class="st4" x1="523.69" y1="181.04" x2="534.14" y2="181.04"/>
<polygon class="st7" points="627.91,192.44 630.53,196.69 633.15,200.8 627.91,200.8 622.53,200.8 625.15,196.69 "/>
<line class="st4" x1="627.84" y1="186.98" x2="627.84" y2="206.86"/>
<line class="st4" x1="622.31" y1="206.86" x2="632.76" y2="206.86"/>
<line class="st4" x1="622.31" y1="186.98" x2="632.76" y2="186.98"/>
<polygon class="st7" points="719.78,193.93 722.54,198.18 725.16,202.29 719.78,202.29 714.54,202.29 717.16,198.18 "/>
<line class="st4" x1="719.7" y1="187.87" x2="719.7" y2="208.94"/>
<line class="st4" x1="714.47" y1="208.94" x2="724.61" y2="208.94"/>
<line class="st4" x1="714.47" y1="187.87" x2="724.61" y2="187.87"/>
<polygon class="st7" points="346.5,225.09 349.12,229.34 351.74,233.45 346.5,233.45 341.12,233.45 343.74,229.34 "/>
<line class="st4" x1="346.12" y1="222.3" x2="346.12" y2="237.14"/>
<line class="st4" x1="340.9" y1="237.14" x2="351.35" y2="237.14"/>
<line class="st4" x1="340.9" y1="222.3" x2="351.35" y2="222.3"/>
<polyline class="st4" points="133.84,24.02 148.62,122.47 162.91,136.78 183.27,158.17 211.52,161.28 232.88,171.06 261.13,176.73 
	282.15,189.47 310.89,190.04 331.59,196.7 346.04,229.42 366.9,201.23 387.76,203.92 429.81,196.56 479.74,188.77 528.84,190.61 
	627.56,196.98 719.7,198.26 "/>
<polygon class="st7" points="133.91,18.21 136.53,22.32 139.15,26.57 133.91,26.57 128.53,26.57 131.29,22.32 "/>
<polygon class="st7" points="212.1,156.38 214.71,160.48 217.33,164.74 212.1,164.74 206.71,164.74 209.33,160.48 "/>
<line class="st4" x1="212.18" y1="152.84" x2="212.18" y2="169.46"/>
<line class="st4" x1="206.65" y1="169.46" x2="217.09" y2="169.46"/>
<line class="st4" x1="206.65" y1="152.84" x2="217.09" y2="152.84"/>
<polygon class="st7" points="282.76,184.73 285.38,188.98 288.15,193.08 282.76,193.08 277.53,193.08 280.14,188.98 "/>
<line class="st4" x1="282.84" y1="181.34" x2="282.84" y2="197.36"/>
<line class="st4" x1="277.31" y1="197.36" x2="287.75" y2="197.36"/>
<line class="st4" x1="277.31" y1="181.34" x2="287.75" y2="181.34"/>
<polygon class="st7" points="311.03,184.73 313.65,188.98 316.41,193.08 311.03,193.08 305.79,193.08 308.41,188.98 "/>
<line class="st4" x1="310.79" y1="181.34" x2="310.79" y2="197.96"/>
<line class="st4" x1="305.57" y1="197.96" x2="316.02" y2="197.96"/>
<line class="st4" x1="305.57" y1="181.34" x2="316.02" y2="181.34"/>
<g>
	<g>
		<path class="st0" d="M105.82,20.02c1.63,0,2.65,1.55,2.65,3.68s-1.02,3.68-2.65,3.68s-2.65-1.55-2.65-3.68
			S104.19,20.02,105.82,20.02z M105.82,26.74c1.15,0,1.91-1.26,1.91-3.05s-0.76-3.05-1.91-3.05s-1.91,1.26-1.91,3.05
			S104.67,26.74,105.82,26.74z"/>
	</g>
</g>
<g>
	<g>
		<path class="st0" d="M98.42,59.19h5.18v0.58h-5.18V59.19z"/>
		<path class="st0" d="M105.69,58.19c1.63,0.2,2.9,0.82,2.9,2.41c0,1.09-0.78,2.1-2.48,2.1c-0.62,0-1.2-0.18-1.61-0.46v-0.7
			c0.5,0.34,1.04,0.54,1.59,0.54c1.15,0,1.75-0.61,1.75-1.49c0-1.3-1.22-1.69-2.84-1.87l0.23-3.27h3.18v0.65h-2.58L105.69,58.19z"/>
	</g>
</g>
<g>
	<g>
		<path class="st0" d="M93.24,95.1h5.18v0.58h-5.18V95.1z"/>
		<path class="st0" d="M99.1,91.66l2.22-0.4v7.23h-0.73v-6.42l-1.49,0.23V91.66z"/>
		<path class="st0" d="M105.82,91.25c1.63,0,2.65,1.55,2.65,3.68s-1.02,3.68-2.65,3.68s-2.65-1.55-2.65-3.68
			S104.19,91.25,105.82,91.25z M105.82,97.98c1.15,0,1.91-1.26,1.91-3.05s-0.76-3.05-1.91-3.05s-1.91,1.26-1.91,3.05
			S104.67,97.98,105.82,97.98z"/>
	</g>
</g>
<g>
	<g>
		<path class="st0" d="M94.94,130.43h5.18V131h-5.18V130.43z"/>
		<path class="st0" d="M100.79,126.98l2.22-0.4v7.23h-0.73v-6.42l-1.49,0.23V126.98z"/>
		<path class="st0" d="M105.69,129.43c1.63,0.2,2.9,0.82,2.9,2.41c0,1.09-0.78,2.1-2.48,2.1c-0.62,0-1.2-0.18-1.61-0.46v-0.7
			c0.5,0.34,1.04,0.54,1.59,0.54c1.15,0,1.75-0.61,1.75-1.49c0-1.3-1.22-1.69-2.84-1.87l0.23-3.27h3.18v0.65h-2.58L105.69,129.43z"
			/>
	</g>
</g>
<g>
	<g>
		<path class="st0" d="M91.8,166.94h5.18v0.58H91.8V166.94z"/>
		<path class="st0" d="M102.11,169.68v0.65h-4.52v-0.55c1.83-1.55,3.61-3.09,3.61-4.67c0-0.92-0.55-1.36-1.32-1.36
			c-0.92,0-1.55,0.48-2.03,0.96v-0.8c0.43-0.44,1.15-0.83,2.03-0.83c1.16,0,2.05,0.62,2.05,2.03c0,1.58-1.76,3.36-3.41,4.57H102.11z
			"/>
		<path class="st0" d="M105.82,163.09c1.63,0,2.65,1.55,2.65,3.68c0,2.14-1.02,3.68-2.65,3.68s-2.65-1.55-2.65-3.68
			C103.17,164.63,104.19,163.09,105.82,163.09z M105.82,169.81c1.15,0,1.91-1.26,1.91-3.05c0-1.79-0.76-3.05-1.91-3.05
			s-1.91,1.26-1.91,3.05C103.91,168.55,104.67,169.81,105.82,169.81z"/>
	</g>
</g>
<g>
	<g>
		<path class="st0" d="M93.26,202.55h5.18v0.58h-5.18V202.55z"/>
		<path class="st0" d="M103.56,205.3v0.65h-4.52v-0.55c1.83-1.55,3.61-3.09,3.61-4.67c0-0.92-0.55-1.36-1.32-1.36
			c-0.92,0-1.55,0.48-2.03,0.96v-0.8c0.43-0.44,1.15-0.83,2.03-0.83c1.16,0,2.05,0.62,2.05,2.03c0,1.58-1.76,3.36-3.41,4.57H103.56z
			"/>
		<path class="st0" d="M105.69,201.56c1.63,0.2,2.9,0.82,2.9,2.41c0,1.09-0.78,2.1-2.48,2.1c-0.62,0-1.2-0.18-1.61-0.46v-0.7
			c0.5,0.34,1.04,0.54,1.59,0.54c1.15,0,1.75-0.61,1.75-1.49c0-1.3-1.22-1.69-2.84-1.87l0.23-3.27h3.18v0.65h-2.58L105.69,201.56z"
			/>
	</g>
</g>
<g>
	<g>
		<path class="st0" d="M92.15,238.47h5.18v0.58h-5.18V238.47z"/>
		<path class="st0" d="M98.14,235.45c0.33-0.42,1.05-0.83,1.86-0.83c1.34,0,1.99,0.82,1.99,1.76c0,0.88-0.68,1.72-1.63,1.85
			c0.98,0.12,1.79,0.78,1.79,1.81c0,1.06-0.82,1.94-2.36,1.94c-0.65,0-1.38-0.2-1.73-0.5v-0.68c0.5,0.35,1,0.58,1.73,0.58
			c0.97,0,1.62-0.52,1.62-1.33c0-0.9-0.55-1.29-1.99-1.54V238c1.22-0.26,1.81-0.78,1.81-1.62c0-0.71-0.54-1.12-1.22-1.12
			c-0.8,0-1.42,0.48-1.86,0.96V235.45z"/>
		<path class="st0" d="M105.82,234.62c1.63,0,2.65,1.55,2.65,3.68c0,2.14-1.02,3.68-2.65,3.68s-2.65-1.55-2.65-3.68
			C103.17,236.17,104.19,234.62,105.82,234.62z M105.82,241.35c1.15,0,1.91-1.26,1.91-3.05c0-1.79-0.76-3.05-1.91-3.05
			s-1.91,1.26-1.91,3.05C103.91,240.09,104.67,241.35,105.82,241.35z"/>
	</g>
</g>
<g>
	<g>
		<path class="st0" d="M93.84,274.39h5.18v0.58h-5.18V274.39z"/>
		<path class="st0" d="M99.83,271.37c0.33-0.42,1.05-0.83,1.86-0.83c1.34,0,1.99,0.82,1.99,1.76c0,0.88-0.68,1.72-1.63,1.85
			c0.98,0.12,1.79,0.78,1.79,1.81c0,1.06-0.82,1.94-2.36,1.94c-0.65,0-1.38-0.2-1.73-0.5v-0.68c0.5,0.35,1,0.58,1.73,0.58
			c0.97,0,1.62-0.52,1.62-1.33c0-0.9-0.55-1.29-1.99-1.54v-0.5c1.22-0.26,1.81-0.78,1.81-1.62c0-0.71-0.54-1.12-1.22-1.12
			c-0.8,0-1.42,0.48-1.86,0.96V271.37z"/>
		<path class="st0" d="M105.69,273.39c1.63,0.2,2.9,0.82,2.9,2.41c0,1.09-0.78,2.1-2.48,2.1c-0.62,0-1.2-0.18-1.61-0.46v-0.7
			c0.5,0.34,1.04,0.54,1.59,0.54c1.15,0,1.75-0.61,1.75-1.49c0-1.3-1.22-1.69-2.84-1.87l0.23-3.27h3.18v0.65h-2.58L105.69,273.39z"
			/>
	</g>
</g>
</svg>
