<?xml version="1.0" encoding="utf-8"?>
<!-- Generator: Adobe Illustrator 23.0.3, SVG Export Plug-In . SVG Version: 6.00 Build 0)  -->
<svg version="1.1" id="Layer_1" xmlns="http://www.w3.org/2000/svg" xmlns:xlink="http://www.w3.org/1999/xlink" x="0px" y="0px"
	 viewBox="0 0 200 98" style="enable-background:new 0 0 200 98;" xml:space="preserve">
<style type="text/css">
	.st0{clip-path:url(#SVGID_2_);fill:url(#SVGID_3_);}
	.st1{fill:#0058A9;}
	.st2{fill:#939598;}
	.st3{fill:#ED1C24;}
</style>
<g>
	<g>
		<defs>
			<path id="SVGID_1_" d="M166.01,41.75c0,18.85-8.22,32.74-18.84,42.09c17.93-3.77,31.66-23.6,31.66-44.94
				c0.02-1.74-0.01-3.49-0.08-5.04l13.86-4.74c1.75-0.61,2.87-1.57,2.88-3.24c0.01-1.13,0.01-1.72,0.01-1.72
				c-7.49-0.14-34.66-1.04-34.66-1.04C163.38,27.13,166.01,34,166.01,41.75 M159.78,18.3c12.71,1.93,20.61,0.41,20.61,0.41
				s-1.81-6.69-7.07-6.71c-8.32-0.03-14.18-0.88-14.18-0.88c-17.75-2.68-22.35-8.96-22.35-8.96
				C137.82,9.08,148.42,16.57,159.78,18.3"/>
		</defs>
		<clipPath id="SVGID_2_">
			<use xlink:href="#SVGID_1_"  style="overflow:visible;"/>
		</clipPath>
		
			<linearGradient id="SVGID_3_" gradientUnits="userSpaceOnUse" x1="-295.1219" y1="355.5006" x2="-293.4894" y2="355.5006" gradientTransform="matrix(35.9648 0 0 -35.9648 10750.7871 12828.5088)">
			<stop  offset="0" style="stop-color:#00B3EF"/>
			<stop  offset="0.2" style="stop-color:#00B3EF"/>
			<stop  offset="0.2605" style="stop-color:#00A9E7"/>
			<stop  offset="0.704" style="stop-color:#006EB9"/>
			<stop  offset="0.9" style="stop-color:#0058A9"/>
			<stop  offset="1" style="stop-color:#0058A9"/>
		</linearGradient>
		<rect x="136.79" y="2.16" class="st0" width="58.71" height="81.67"/>
	</g>
	<path class="st1" d="M4.5,69.71v-2.48c2.44-0.9,4.23-3.08,4.23-8.08V37.17h3.76v21.72C12.49,65.52,8.6,69.24,4.5,69.71"/>
	<path class="st1" d="M26.43,60.64c-5.98,0-8.76-2.61-8.76-6.8c0-6.12,5.73-7.91,12.87-8.64V43.8c0-3.55-2.14-4.58-5.08-4.58
		c-2.23,0-4.27,0.81-5.56,1.45l-0.89-2.22c1.32-0.73,3.89-1.71,7.05-1.71c4.28,0,8.04,1.84,8.04,7.48v14.8
		C32.33,60,29.63,60.64,26.43,60.64 M30.53,47.13c-5.81,0.72-9.28,1.97-9.28,6.63c0,3.34,2.05,4.7,5.48,4.7
		c1.45,0,2.86-0.26,3.8-0.77V47.13z"/>
	<path class="st1" d="M53.11,60.22V43.67c0-2.13-0.9-4.49-4.83-4.49c-2.14,0-3.16,0.3-4.36,0.81v20.22h-3.76V38.37
		c2.05-0.99,4.75-1.63,8.42-1.63c6.41,0,8.3,3.55,8.3,6.84v16.63H53.11z"/>
	<path class="st1" d="M67.43,60.55c-2.48,0-4.66-0.64-5.9-1.58l1.02-2.48c0.81,0.69,2.44,1.37,4.49,1.37c2.56,0,4.27-1.76,4.27-3.98
		c0-2.39-1.28-3.46-3.81-4.4c-4.49-1.67-5.39-4.07-5.39-6.46c0-3.42,2.7-6.33,6.89-6.33c2.35,0,4.19,0.77,5.38,1.58l-0.98,2.26
		c-0.69-0.51-2.05-1.28-3.85-1.28c-2.52,0-3.85,1.67-3.85,3.63c0,2.22,1.62,3.29,3.85,4.15c4.49,1.71,5.6,4.1,5.6,6.76
		C75.17,57.31,72.13,60.55,67.43,60.55"/>
	<path class="st1" d="M84.27,60.55c-2.48,0-4.66-0.64-5.9-1.58l1.02-2.48c0.82,0.69,2.44,1.37,4.49,1.37c2.56,0,4.28-1.76,4.28-3.98
		c0-2.39-1.29-3.46-3.81-4.4c-4.49-1.67-5.39-4.07-5.39-6.46c0-3.42,2.69-6.33,6.88-6.33c2.35,0,4.19,0.77,5.39,1.58l-0.99,2.26
		c-0.68-0.51-2.05-1.28-3.85-1.28c-2.52,0-3.85,1.67-3.85,3.63c0,2.22,1.62,3.29,3.85,4.15c4.49,1.71,5.6,4.1,5.6,6.76
		C92.01,57.31,88.97,60.55,84.27,60.55"/>
	<path class="st1" d="M99.7,50.13c0.43,5.21,2.87,7.78,7.01,7.78c2.61,0,4.49-0.64,5.69-1.33l0.98,2.48
		c-1.41,0.85-3.85,1.58-6.97,1.58c-6.03,0-10.26-3.81-10.26-12.02c0-7.82,3.85-11.88,9.28-11.88c5.52,0,8.85,3.59,8.77,11.28
		L99.7,50.13z M105.3,39.18c-3.33,0-5.82,2.7-5.73,8.94l11.03-1.67C110.6,41.23,108.6,39.18,105.3,39.18"/>
	<path class="st1" d="M132.32,60.22V43.67c0-2.13-0.9-4.49-4.83-4.49c-2.14,0-3.16,0.3-4.36,0.81v20.22h-3.76V38.37
		c2.05-0.99,4.74-1.63,8.42-1.63c6.41,0,8.29,3.55,8.29,6.84v16.63H132.32z"/>
	<path class="st2" d="M22.38,73.66c1.04,0,1.59,0.49,1.59,1.51c0,1.11-0.98,1.46-1.78,1.46H21.3v1.44h-1.1v-4.4H22.38z M21.3,75.81
		h0.72c0.5,0,0.85-0.12,0.85-0.69c0-0.64-0.52-0.64-0.87-0.64h-0.7V75.81z"/>
	<polygon class="st2" points="27.38,78.07 27.38,76.19 25.77,76.19 25.77,78.07 24.66,78.07 24.66,73.67 25.77,73.67 25.77,75.26 
		27.38,75.26 27.38,73.67 28.48,73.67 28.48,78.07 	"/>
	<path class="st2" d="M32.36,78.07l-0.22-0.71h-1.62l-0.22,0.71h-1.17l1.63-4.4h1.15l1.62,4.4H32.36z M31.32,74.71l-0.54,1.86h1.12
		L31.32,74.71z"/>
	<path class="st2" d="M36.28,73.67c0.65,0,1.69,0.17,1.69,1.43c0,0.75-0.42,1.05-0.9,1.21l1.02,1.76h-1.21l-0.88-1.57H35.3v1.57
		H34.2v-4.4H36.28z M35.3,75.68h0.91c0.63,0,0.66-0.48,0.66-0.61c0-0.57-0.46-0.59-0.65-0.59H35.3V75.68z"/>
	<path class="st2" d="M42.84,78.07c0,0,0-2.43,0.02-3.29l-0.92,3.29H41l-0.91-3.29c0.02,0.62,0.03,3.29,0.03,3.29h-1.07v-4.4h1.61
		l0.83,3.08l0.82-3.08h1.61v4.4H42.84z"/>
	<path class="st2" d="M47.78,78.07l-0.22-0.71h-1.62l-0.22,0.71h-1.17l1.63-4.4h1.15l1.62,4.4H47.78z M46.74,74.71l-0.54,1.86h1.12
		L46.74,74.71z"/>
	<path class="st2" d="M53.19,77.06c-0.35,0.61-0.98,1.14-1.9,1.14c-1.17,0-2.11-0.85-2.11-2.34c0-1.3,0.89-2.33,2.13-2.33
		c0.81,0,1.55,0.48,1.86,1.14l-0.87,0.44c-0.1-0.33-0.49-0.67-0.94-0.67c-0.71,0-1.08,0.66-1.08,1.4c0,0.97,0.49,1.45,1.08,1.45
		c0.57,0,0.8-0.4,0.95-0.66L53.19,77.06z"/>
	<polygon class="st2" points="53.97,73.67 57.23,73.67 57.23,74.52 55.07,74.52 55.07,75.32 57.08,75.32 57.08,76.15 55.07,76.15 
		55.07,77.2 57.42,77.2 57.42,78.07 53.97,78.07 	"/>
	<path class="st2" d="M62.01,76.33c0,1.11-0.71,1.84-1.9,1.84c-1.03,0-1.86-0.55-1.86-1.76v-2.74h1.11v2.86
		c0,0.58,0.3,0.73,0.79,0.73c0.56,0,0.76-0.28,0.76-0.78v-2.81h1.1V76.33z"/>
	<polygon class="st2" points="64.87,74.53 64.87,78.07 63.76,78.07 63.76,74.53 62.62,74.53 62.62,73.67 66.01,73.67 66.01,74.53 	
		"/>
	<rect x="66.72" y="73.67" class="st2" width="1.1" height="4.4"/>
	<path class="st2" d="M72.59,77.06c-0.35,0.61-0.98,1.14-1.9,1.14c-1.17,0-2.11-0.85-2.11-2.34c0-1.3,0.88-2.33,2.13-2.33
		c0.81,0,1.55,0.48,1.86,1.14l-0.87,0.44c-0.09-0.33-0.48-0.67-0.93-0.67c-0.71,0-1.09,0.66-1.09,1.4c0,0.97,0.49,1.45,1.09,1.45
		c0.57,0,0.8-0.4,0.95-0.66L72.59,77.06z"/>
	<path class="st2" d="M75.92,78.07l-0.22-0.71h-1.62l-0.22,0.71h-1.17l1.64-4.4h1.14l1.62,4.4H75.92z M74.88,74.71l-0.54,1.86h1.12
		L74.88,74.71z"/>
	<polygon class="st2" points="77.63,78.07 77.63,73.67 78.73,73.67 78.73,77.14 80.45,77.14 80.45,78.07 	"/>
	<path class="st2" d="M86.84,77.06c-0.35,0.61-0.98,1.14-1.9,1.14c-1.17,0-2.11-0.85-2.11-2.34c0-1.3,0.88-2.33,2.13-2.33
		c0.81,0,1.55,0.48,1.86,1.14l-0.87,0.44c-0.09-0.33-0.48-0.67-0.93-0.67c-0.71,0-1.08,0.66-1.08,1.4c0,0.97,0.49,1.45,1.08,1.45
		c0.57,0,0.8-0.4,0.95-0.66L86.84,77.06z"/>
	<path class="st2" d="M89.5,73.53c1.6,0,2.23,1.32,2.23,2.37c0,1.18-0.8,2.3-2.22,2.3c-1.45,0-2.19-1.14-2.19-2.35
		C87.33,74.84,87.91,73.53,89.5,73.53 M89.52,77.26c0.82,0,1.11-0.76,1.11-1.38c0-0.8-0.35-1.44-1.13-1.44
		c-0.83,0-1.09,0.79-1.09,1.39C88.41,76.54,88.73,77.26,89.52,77.26"/>
	<path class="st2" d="M96.46,78.07c0,0,0-2.43,0.02-3.29l-0.92,3.29h-0.95l-0.91-3.29c0.02,0.62,0.02,3.29,0.02,3.29h-1.07v-4.4
		h1.61l0.83,3.08l0.82-3.08h1.61v4.4H96.46z"/>
	<path class="st2" d="M100.84,73.66c1.04,0,1.59,0.49,1.59,1.51c0,1.11-0.98,1.46-1.77,1.46h-0.89v1.44h-1.11v-4.4H100.84z
		 M99.76,75.81h0.72c0.5,0,0.85-0.12,0.85-0.69c0-0.64-0.52-0.64-0.87-0.64h-0.7V75.81z"/>
	<path class="st2" d="M105.53,78.07l-0.22-0.71h-1.62l-0.22,0.71h-1.17l1.63-4.4h1.15l1.62,4.4H105.53z M104.48,74.71l-0.54,1.86
		h1.12L104.48,74.71z"/>
	<polygon class="st2" points="109.85,78.07 108.29,75.44 108.29,78.07 107.23,78.07 107.23,73.67 108.31,73.67 109.87,76.35 
		109.87,73.67 110.92,73.67 110.92,78.07 	"/>
	<rect x="112.26" y="73.67" class="st2" width="1.1" height="4.4"/>
	<polygon class="st2" points="114.71,73.67 117.96,73.67 117.96,74.52 115.81,74.52 115.81,75.32 117.82,75.32 117.82,76.15 
		115.81,76.15 115.81,77.2 118.16,77.2 118.16,78.07 114.71,78.07 	"/>
	<path class="st2" d="M121.87,74.97c-0.32-0.33-0.68-0.55-1.15-0.55c-0.45,0-0.65,0.26-0.65,0.47c0,0.23,0.18,0.35,0.56,0.4
		l0.49,0.07c1.14,0.16,1.62,0.51,1.62,1.27c0,0.93-0.74,1.53-2,1.53c-1.03,0-1.56-0.37-2.01-0.89l0.84-0.53
		c0.29,0.35,0.8,0.55,1.27,0.55c0.32,0,0.81-0.15,0.81-0.51c0-0.31-0.38-0.4-0.77-0.45l-0.51-0.07c-0.77-0.11-1.4-0.47-1.4-1.24
		c0-0.87,0.64-1.47,1.78-1.47c0.93,0,1.51,0.42,1.94,0.84L121.87,74.97z"/>
	<path class="st2" d="M22.09,86.39c1.6,0,2.23,1.32,2.23,2.37c0,1.18-0.8,2.3-2.22,2.3c-1.45,0-2.19-1.14-2.19-2.35
		C19.91,87.71,20.5,86.39,22.09,86.39 M22.11,90.13c0.82,0,1.11-0.76,1.11-1.38c0-0.8-0.35-1.43-1.13-1.43
		c-0.83,0-1.09,0.79-1.09,1.39C21,89.4,21.32,90.13,22.11,90.13"/>
	<polygon class="st2" points="28.48,86.53 28.48,87.38 26.2,87.38 26.2,88.3 28.3,88.3 28.3,89.15 26.2,89.15 26.2,90.93 
		25.1,90.93 25.1,86.53 	"/>
	<path class="st3" d="M35.14,83.04c0,0.08-0.19,0.45-0.43,1.12c-0.25,0.69-0.49,1.67-0.49,2.86c0,0.7,0.17,1.64,0.32,2.58
		l-0.43,0.57c-0.68-0.82-1.1-1.75-1.1-3.35c0-2.26,1.37-3.83,2.07-3.83C35.12,82.99,35.14,83,35.14,83.04 M54.08,89.38
		c0.08,0.23,0.12,0.42,0.12,0.6c0,0.21-0.08,0.43-0.23,0.43c-0.1,0-0.21-0.12-0.21-0.31C53.76,89.9,53.93,89.58,54.08,89.38
		 M34.65,90.29c0.11,0.7,0.2,1.4,0.2,1.94c0,1.28-0.43,2.77-1.16,2.76c-0.28,0-0.52-0.29-0.53-0.77
		C33.14,92.62,33.9,91.26,34.65,90.29 M56.56,87.38c-0.23,0.33-0.42,0.77-0.42,1.36c0,1.12,0.64,2.18,1.87,2.18
		c1.2,0,2.04-0.95,2.04-2.27c0-0.38-0.01-0.43-0.04-0.59c0.28-0.12,0.52-0.3,0.71-0.45c0.16-0.12,0.28-0.19,0.37-0.19
		c0.12,0,0.17,0.09,0.17,0.27v2.61c0,0.42,0.13,0.63,0.46,0.63c0.3,0,0.52-0.21,0.64-0.47c0.44-0.92,1.08-2.14,1.35-2.61
		c0.07-0.11,0.12-0.18,0.16-0.18c0.06,0,0.08,0.04,0.08,0.21v2.08c0,0.59,0.27,0.97,0.85,0.97c0.61,0,0.92-0.59,1.45-1.49
		c0.03-0.06,0.04-0.09,0.04-0.13c0-0.12-0.1-0.18-0.21-0.18c-0.12,0-0.19,0.12-0.59,0.56c-0.08,0.08-0.16,0.2-0.3,0.2
		c-0.05,0-0.1-0.06-0.1-0.14V87.4c0-0.62-0.28-0.88-0.64-0.88c-0.29,0-0.53,0.12-0.78,0.49c-0.45,0.66-0.92,1.61-1.17,2.09
		c-0.03,0.05-0.07,0.13-0.09,0.13c-0.02,0-0.04-0.04-0.04-0.13v-1.7c0-0.49-0.13-0.88-0.65-0.88c-0.55,0-0.83,0.37-1.22,0.65
		c-0.25,0.18-0.48,0.32-0.65,0.4c-0.26-0.68-0.76-1.02-1.17-1.01c-0.41,0.01-0.71,0.26-0.71,0.69c0,0.44,0.27,0.74,0.62,0.88
		c0.2,0.08,0.39,0.09,0.65,0.09c0.08,0,0.16,0,0.21-0.01c0.03,0.13,0.02,0.32,0.02,0.46c0,0.66-0.39,1.31-1.1,1.31
		c-0.75,0-1.18-0.72-1.18-1.54c0-0.63,0.18-1.15,0.49-1.5c0.12-0.13,0.21-0.21,0.21-0.34c0-0.06-0.09-0.07-0.17-0.07
		c-0.51,0-1.06,0.22-1.45,0.42c-0.51,0.26-1.1,0.71-1.6,1.14c-0.24-0.53-0.53-1-0.68-1.36c-0.05-0.15-0.09-0.32-0.2-0.32
		c-0.09,0-0.13,0.1-0.2,0.28c-0.24,0.71-1.52,2.77-1.79,3.05c-0.02,0.04-0.07,0.08-0.08,0.08c-0.03,0-0.05-0.01-0.05-0.1V87.4
		c0-0.62-0.25-0.88-0.6-0.88c-0.29,0-0.55,0.12-0.78,0.49c-0.44,0.66-0.97,1.64-1.23,2.12c-0.04,0.08-0.08,0.1-0.1,0.1
		c-0.01,0-0.02-0.05-0.02-0.13v-1.7c0-0.62-0.25-0.88-0.6-0.88c-0.3,0-0.57,0.11-0.8,0.49c-0.56,0.94-1.49,2.39-1.66,2.63
		c-0.03,0.04-0.05,0.07-0.08,0.08c-0.03,0-0.04-0.03-0.04-0.09V87.4c0-0.62-0.25-0.88-0.6-0.88c-0.48,0-0.74,0.44-0.92,0.72
		c-0.24,0.39-0.56,0.9-0.81,1.38c-0.17,0.32-0.32,0.61-0.37,0.61c-0.03,0-0.03-0.12-0.03-0.34v-1.78c0.84-0.93,1.36-2.08,1.36-3.33
		c0-0.72-0.32-1.12-0.81-1.12c-0.92,0-1.62,1.44-1.62,3.14v1.38c-0.43,0.27-0.83,0.4-1.32,0.49c-0.25-0.74-0.78-1.13-1.21-1.12
		c-0.41,0.01-0.7,0.26-0.7,0.69c0,0.71,0.69,1,1.3,1h0.17c0.03,0.13,0.03,0.28,0.03,0.43c0,0.66-0.39,1.31-1.1,1.31
		c-0.74,0-1.19-0.72-1.19-1.54c0-0.63,0.19-1.15,0.49-1.5c0.12-0.13,0.22-0.25,0.22-0.34c0-0.06-0.09-0.07-0.17-0.07
		c-0.5,0-1.62,0.68-2.95,2.01c-0.12-1.07-0.25-2.1-0.25-3.11c0-1.13,0.23-2.09,0.28-2.37c0.03-0.17,0.04-0.28,0.04-0.35
		c0-0.11-0.06-0.16-0.2-0.16c-1.08,0-3.45,1.72-3.45,4.28c0,1.82,0.67,2.7,1.82,3.83c-0.7,1.13-1.27,2.47-1.27,3.67
		c0,0.87,0.2,1.52,0.84,1.52c1.33,0,2.33-2.77,2.33-4.81c0-0.61-0.03-1.22-0.08-1.84c0.49-0.52,1.25-1.22,1.43-1.29
		c-0.08,0.28-0.13,0.57-0.13,0.85c0,1.12,0.64,2.18,1.87,2.18c1.16,0,2.03-0.95,2.03-2.27c0-0.17-0.01-0.32-0.02-0.47
		c0.42-0.08,0.81-0.19,1.18-0.41v2.67c0,0.35,0.24,0.48,0.46,0.48c0.31,0,0.47-0.21,0.69-0.7c0.19-0.4,0.69-1.32,1-1.87
		c0.24-0.43,0.37-0.7,0.48-0.7c0.03,0,0.05,0.06,0.05,0.22v2.28c0,0.61,0.32,0.77,0.59,0.77c0.27,0,0.44-0.15,0.61-0.39
		c0.7-0.99,1.42-2.16,1.71-2.66c0.06-0.09,0.12-0.16,0.17-0.16c0.05,0,0.08,0.03,0.08,0.2v2.39c0,0.42,0.14,0.63,0.47,0.63
		c0.31,0,0.5-0.21,0.62-0.47c0.44-0.92,1.09-2.13,1.37-2.61c0.07-0.11,0.13-0.2,0.17-0.2c0.05,0,0.07,0.06,0.07,0.24v2.26
		c0,0.61,0.32,0.77,0.6,0.77c0.37,0,0.61-0.26,0.85-0.57c0.44-0.58,1.07-1.6,1.46-2.25c0.13,0.21,0.28,0.47,0.4,0.74
		c-0.32,0.39-0.64,0.83-0.64,1.29c0,0.49,0.35,0.79,0.7,0.79c0.61,0,1.17-0.59,1.17-1.4c0-0.32-0.09-0.65-0.21-0.97
		C55.43,88.02,56.08,87.51,56.56,87.38 M43.06,85.43c0-1.98,0.39-2.28,0.5-2.28c0.22,0,0.24,0.13,0.24,0.89
		c0,0.78-0.33,1.81-0.74,2.37V85.43z M39.36,87.35c0-0.12,0.08-0.19,0.18-0.19c0.17,0,0.42,0.19,0.57,0.56
		C39.62,87.72,39.36,87.61,39.36,87.35 M58.59,87.35c0-0.12,0.08-0.19,0.18-0.19c0.17,0,0.44,0.19,0.59,0.56
		c-0.06,0-0.13,0.02-0.19,0.02C58.85,87.74,58.59,87.59,58.59,87.35"/>
	<path class="st3" d="M69.3,89.56c-0.22,0.03-0.36,0.03-0.6,0.03c-0.52,0-0.9-0.2-0.9-0.49c0-0.19,0.09-0.29,0.36-0.29
		C68.59,88.8,68.93,89.09,69.3,89.56 M71.92,89.69c0.24,0.32,0.53,0.63,0.88,0.96c-0.7,1.13-1.26,2.47-1.26,3.67
		c0,0.87,0.2,1.52,0.84,1.52c1.33,0,2.33-2.77,2.33-4.81c0-0.61-0.03-1.22-0.08-1.84c0.49-0.52,1.25-1.22,1.44-1.29
		c-0.08,0.28-0.13,0.57-0.13,0.85c0,1.12,0.64,2.18,1.88,2.18c1.15,0,2.03-0.95,2.03-2.27c0-0.17-0.01-0.32-0.03-0.47
		c0.43-0.08,0.81-0.19,1.19-0.41v2.67c0,0.35,0.24,0.48,0.46,0.48c0.31,0,0.47-0.21,0.7-0.7c0.19-0.4,0.69-1.32,1-1.87
		c0.24-0.43,0.37-0.7,0.48-0.7c0.03,0,0.05,0.06,0.05,0.22v2.28c0,0.61,0.31,0.77,0.6,0.77c0.26,0,0.44-0.15,0.62-0.39
		c0.69-0.99,1.42-2.16,1.71-2.66c0.05-0.09,0.12-0.16,0.17-0.16c0.05,0,0.08,0.03,0.08,0.2v2.39c0,0.42,0.13,0.63,0.46,0.63
		c0.31,0,0.51-0.21,0.63-0.47c0.44-0.92,1.09-2.13,1.37-2.61c0.07-0.11,0.14-0.2,0.18-0.2c0.05,0,0.06,0.06,0.06,0.24v2.26
		c0,0.61,0.31,0.77,0.59,0.77c0.38,0,0.62-0.26,0.85-0.57c0.44-0.58,1.08-1.6,1.46-2.25c0.13,0.21,0.28,0.47,0.4,0.74
		c-0.32,0.39-0.64,0.83-0.64,1.29c0,0.49,0.34,0.79,0.7,0.79c0.61,0,1.17-0.59,1.17-1.4c0-0.32-0.09-0.65-0.21-0.97
		c0.55-0.54,1.2-1.05,1.68-1.18c-0.23,0.33-0.41,0.77-0.41,1.36c0,1.12,0.64,2.18,1.87,2.18c1.2,0,2.03-0.95,2.03-2.27
		c0-0.38-0.01-0.43-0.04-0.59c0.28-0.12,0.52-0.3,0.71-0.45c0.16-0.12,0.28-0.19,0.37-0.19c0.12,0,0.17,0.09,0.17,0.27v2.61
		c0,0.42,0.13,0.63,0.47,0.63c0.31,0,0.52-0.21,0.64-0.47c0.44-0.92,1.07-2.14,1.35-2.61c0.07-0.11,0.12-0.18,0.16-0.18
		c0.05,0,0.08,0.04,0.08,0.21v2.08c0,0.59,0.26,0.97,0.85,0.97c0.61,0,0.92-0.59,1.45-1.49c0.02-0.06,0.04-0.09,0.04-0.13
		c0-0.12-0.11-0.18-0.21-0.18c-0.12,0-0.19,0.12-0.59,0.56c-0.08,0.08-0.16,0.2-0.3,0.2c-0.06,0-0.1-0.06-0.1-0.14V87.4
		c0-0.62-0.28-0.88-0.64-0.88c-0.29,0-0.53,0.12-0.78,0.49c-0.45,0.66-0.92,1.61-1.17,2.09c-0.03,0.05-0.06,0.13-0.1,0.13
		c-0.03,0-0.04-0.04-0.04-0.13v-1.7c0-0.49-0.13-0.88-0.66-0.88c-0.55,0-0.82,0.37-1.22,0.65c-0.25,0.18-0.48,0.32-0.66,0.4
		c-0.26-0.68-0.76-1.02-1.17-1.01c-0.41,0.01-0.71,0.26-0.71,0.69c0,0.44,0.27,0.74,0.62,0.88c0.2,0.08,0.39,0.09,0.66,0.09
		c0.08,0,0.16,0,0.21-0.01c0.03,0.13,0.02,0.32,0.02,0.46c0,0.66-0.39,1.31-1.11,1.31c-0.74,0-1.18-0.72-1.18-1.54
		c0-0.63,0.19-1.15,0.49-1.5c0.12-0.13,0.21-0.21,0.21-0.34c0-0.06-0.09-0.07-0.17-0.07c-0.51,0-1.06,0.22-1.45,0.42
		c-0.51,0.26-1.1,0.71-1.6,1.14c-0.24-0.53-0.53-1-0.68-1.36c-0.05-0.15-0.09-0.32-0.2-0.32c-0.09,0-0.13,0.1-0.2,0.28
		c-0.24,0.71-1.52,2.77-1.8,3.05c-0.03,0.04-0.07,0.08-0.08,0.08c-0.02,0-0.04-0.01-0.04-0.1V87.4c0-0.62-0.25-0.88-0.6-0.88
		c-0.3,0-0.54,0.12-0.79,0.49c-0.44,0.66-0.97,1.64-1.22,2.12c-0.04,0.08-0.08,0.1-0.09,0.1c-0.02,0-0.03-0.05-0.03-0.13v-1.7
		c0-0.62-0.25-0.88-0.6-0.88c-0.29,0-0.58,0.11-0.8,0.49c-0.56,0.94-1.49,2.39-1.66,2.63c-0.02,0.04-0.05,0.07-0.08,0.08
		c-0.02,0-0.04-0.03-0.04-0.09V87.4c0-0.62-0.26-0.88-0.6-0.88c-0.48,0-0.74,0.44-0.92,0.72c-0.24,0.39-0.56,0.9-0.81,1.38
		c-0.17,0.32-0.32,0.61-0.37,0.61c-0.03,0-0.03-0.12-0.03-0.34v-1.78c0.84-0.93,1.36-2.08,1.36-3.33c0-0.72-0.32-1.12-0.81-1.12
		c-0.92,0-1.62,1.44-1.62,3.14v1.38c-0.43,0.27-0.83,0.4-1.32,0.49c-0.25-0.74-0.78-1.13-1.2-1.12c-0.42,0.01-0.71,0.26-0.71,0.69
		c0,0.71,0.69,1,1.3,1h0.17c0.03,0.13,0.03,0.28,0.03,0.43c0,0.66-0.39,1.31-1.11,1.31c-0.74,0-1.18-0.72-1.18-1.54
		c0-0.63,0.19-1.15,0.49-1.5c0.12-0.13,0.21-0.25,0.21-0.34c0-0.06-0.09-0.07-0.17-0.07c-0.5,0-1.62,0.68-2.96,2.01
		c-0.12-1.07-0.25-2.1-0.25-3.11c0-1.13,0.23-2.09,0.28-2.37c0.02-0.17,0.04-0.28,0.04-0.35c0-0.11-0.05-0.16-0.2-0.16
		c-1.08,0-3.44,1.72-3.44,4.28c0,1.05,0.22,1.8,0.62,2.45c-0.14-0.03-0.26-0.03-0.37-0.03c-0.43,0-0.83,0.11-1.08,0.16v-0.27
		c0-0.57-0.13-1.36-0.38-1.62c-0.03-0.03-0.06-0.04-0.1-0.04c-0.11,0-0.24,0.05-0.38,0.13c-0.16,0.08-0.32,0.16-0.32,0.21
		c0,0.03,0,0.05,0.04,0.12c0.09,0.13,0.35,0.4,0.44,1.02C69,88.51,68.48,88.3,67.8,88.3c-0.8,0-1.04,0.36-1.04,0.72
		c0,0.69,0.92,1.04,2.07,1.04c0.21,0,0.45-0.04,0.69-0.1c0,0.21,0.03,0.4,0.03,0.56c0,0.23,0.04,0.4,0.19,0.4
		c0.23,0,0.36-0.45,0.38-1.1c0.42-0.11,0.84-0.2,1.2-0.2C71.5,89.62,71.71,89.65,71.92,89.69 M74.14,83.04
		c0,0.08-0.18,0.45-0.42,1.12c-0.25,0.69-0.49,1.67-0.49,2.86c0,0.7,0.18,1.64,0.32,2.58l-0.43,0.57c-0.68-0.82-1.1-1.75-1.1-3.35
		c0-2.26,1.37-3.83,2.07-3.83C74.13,82.99,74.14,83,74.14,83.04 M93.08,89.38c0.09,0.23,0.12,0.42,0.12,0.6
		c0,0.21-0.08,0.43-0.23,0.43c-0.1,0-0.21-0.12-0.21-0.31C92.76,89.9,92.94,89.58,93.08,89.38 M73.67,90.29
		c0.11,0.7,0.2,1.4,0.2,1.94c0,1.28-0.42,2.77-1.15,2.76c-0.28,0-0.52-0.29-0.54-0.77C72.15,92.62,72.91,91.26,73.67,90.29
		 M82.07,85.43c0-1.98,0.38-2.28,0.51-2.28c0.21,0,0.24,0.13,0.24,0.89c0,0.78-0.33,1.81-0.74,2.37V85.43z M78.36,87.35
		c0-0.12,0.08-0.19,0.18-0.19c0.17,0,0.43,0.19,0.57,0.56C78.62,87.72,78.36,87.61,78.36,87.35 M97.59,87.35
		c0-0.12,0.08-0.19,0.19-0.19c0.17,0,0.44,0.19,0.58,0.56c-0.05,0-0.13,0.02-0.19,0.02C97.86,87.74,97.59,87.59,97.59,87.35"/>
</g>
</svg>
