<?xml version="1.0" encoding="utf-8"?>
<!-- Generator: Adobe Illustrator 24.2.3, SVG Export Plug-In . SVG Version: 6.00 Build 0)  -->
<svg version="1.1" id="Layer_1" xmlns="http://www.w3.org/2000/svg" xmlns:xlink="http://www.w3.org/1999/xlink" x="0px" y="0px"
	 viewBox="0 0 465.79 234.09" style="enable-background:new 0 0 465.79 234.09;" xml:space="preserve">
<style type="text/css">
	.st0{fill-rule:evenodd;clip-rule:evenodd;fill:none;stroke:#00417B;stroke-miterlimit:10;}
	.st1{fill:none;stroke:#00417B;stroke-width:1.5;stroke-miterlimit:2.613;}
	.st2{fill:#00417B;}
	.st3{fill-rule:evenodd;clip-rule:evenodd;fill:#00417B;}
	.st4{fill-rule:evenodd;clip-rule:evenodd;fill:#868686;}
	.st5{fill:none;stroke:#868686;stroke-miterlimit:2.613;}
	.st6{fill:none;stroke:#00417B;stroke-miterlimit:2.613;}
	.st7{fill:#333333;}
	.st8{fill:none;stroke:#00417B;stroke-width:0.75;stroke-miterlimit:10;}
	.st9{fill:#868686;}
	.st10{fill:#FFFFFF;}
</style>
<path class="st0" d="M134.53,8.65h168.09c2.74,0,4.96,2.01,4.96,4.49v61.33c0,2.48-2.22,4.49-4.96,4.49H134.53
	c-2.74,0-4.96-2.01-4.96-4.49V13.13C129.57,10.66,131.79,8.65,134.53,8.65z"/>
<polyline class="st1" points="447.59,183.79 69.28,183.79 69.28,12.71 "/>
<line class="st1" x1="65.23" y1="20.18" x2="69.07" y2="20.18"/>
<line class="st1" x1="65.23" y1="43.55" x2="69.07" y2="43.55"/>
<line class="st1" x1="65.23" y1="66.92" x2="69.07" y2="66.92"/>
<line class="st1" x1="65.23" y1="90.29" x2="69.07" y2="90.29"/>
<line class="st1" x1="65.23" y1="113.67" x2="69.07" y2="113.67"/>
<line class="st1" x1="65.23" y1="137.04" x2="69.07" y2="137.04"/>
<line class="st1" x1="65.23" y1="160.41" x2="69.07" y2="160.41"/>
<line class="st1" x1="65.23" y1="183.79" x2="69.07" y2="183.79"/>
<g>
	<g>
		<path class="st2" d="M59.45,15.66c1.5,0,2.43,1.42,2.43,3.38s-0.94,3.38-2.43,3.38s-2.43-1.42-2.43-3.38S57.95,15.66,59.45,15.66z
			 M59.45,21.83c1.06,0,1.75-1.16,1.75-2.79c0-1.64-0.69-2.79-1.75-2.79c-1.06,0-1.75,1.16-1.75,2.79
			C57.7,20.68,58.39,21.83,59.45,21.83z"/>
	</g>
</g>
<g>
	<g>
		<path class="st2" d="M18.81,164.85v-1.79h5.55v-2.71h1.57v4.5H18.81z"/>
		<path class="st2" d="M23.8,159.53c0.4-0.53,0.73-1.16,0.73-1.97c0-0.54-0.16-1.01-0.64-1.01c-0.43,0-0.59,0.37-0.77,1.09
			c-0.37,1.48-1.04,2.03-2.23,2.03c-1.4,0-2.21-1.07-2.21-2.47c0-0.85,0.2-1.44,0.52-1.97h1.75c-0.46,0.55-0.74,1.16-0.74,1.9
			c0,0.54,0.24,0.8,0.58,0.8c0.46,0,0.6-0.41,0.79-1.16c0.38-1.46,1.07-1.97,2.25-1.97c1.55,0,2.22,1.24,2.22,2.75
			c0,0.79-0.22,1.51-0.5,1.98H23.8z"/>
		<path class="st2" d="M25.94,148.07l-4.47,1.38l4.47,0.61v1.76l-7.12-0.97v-2.13l4.82-1.49l-4.82-1.4v-2.15l7.12-0.97v1.78
			l-4.47,0.62l4.47,1.38V148.07z"/>
		<path class="st2" d="M23.77,140.32h0.02c0.58-0.14,0.82-0.83,0.82-1.45c0-0.71-0.16-1.26-0.43-1.79h1.4
			c0.33,0.5,0.48,1.25,0.48,1.98c0,1.82-1.08,2.9-2.73,2.9c-1.82,0-2.9-1.13-2.9-2.66c0-1.79,1.21-2.36,2.61-2.36h0.73V140.32z
			 M22.81,138.5c-0.52,0-1,0.22-1,0.84c0,0.55,0.41,0.88,1,0.97V138.5z"/>
		<path class="st2" d="M22.5,133.16c-0.47,0-0.64,0.42-0.64,0.91c0,0.64,0.19,1.14,0.44,1.55h-1.44c-0.29-0.49-0.44-1.15-0.44-1.86
			c0-1.29,0.49-2.28,2-2.28h3.39c0.12,0.53,0.24,1.44,0.24,2.21c0,1.33-0.4,2.41-1.69,2.41c-1.14,0-1.66-0.89-1.66-2.36v-0.58H22.5z
			 M23.74,133.16v0.46c0,0.53,0.17,0.79,0.54,0.79s0.55-0.26,0.55-0.7c0-0.14-0.01-0.38-0.05-0.55H23.74z"/>
		<path class="st2" d="M20.92,130.12c-0.31-0.78-0.5-1.85-0.5-2.69c0-1.42,0.52-2.35,2.22-2.35h3.3v1.7h-3.23
			c-0.43,0-0.77,0.18-0.77,0.77c0,0.28,0.04,0.6,0.13,0.86h3.86v1.7H20.92z"/>
		<path class="st2" d="M27.59,119.09c-1.21,1.28-3.12,2.06-4.91,2.06s-3.71-0.78-4.91-2.06v-1.86c1.47,1.49,3.23,2.24,4.91,2.24
			c1.68,0,3.43-0.76,4.91-2.24V119.09z"/>
		<path class="st2" d="M22.12,116.5h-1.24v-1.54h-1.18v-1.24h1.18v-1.54h1.24v1.54h1.17v1.24h-1.17V116.5z M23.77,116.5v-4.31H25
			v4.31H23.77z"/>
		<path class="st2" d="M23.8,111.14c0.4-0.53,0.73-1.16,0.73-1.97c0-0.54-0.16-1.01-0.64-1.01c-0.43,0-0.59,0.37-0.77,1.09
			c-0.37,1.48-1.04,2.03-2.23,2.03c-1.4,0-2.21-1.07-2.21-2.47c0-0.85,0.2-1.44,0.52-1.97h1.75c-0.46,0.55-0.74,1.16-0.74,1.9
			c0,0.54,0.24,0.8,0.58,0.8c0.46,0,0.6-0.41,0.79-1.16c0.38-1.46,1.07-1.97,2.25-1.97c1.55,0,2.22,1.24,2.22,2.75
			c0,0.79-0.22,1.51-0.5,1.98H23.8z"/>
		<path class="st2" d="M24.37,100.57h1.57v4.8h-7.12v-4.71h1.57v2.95h1.22v-2.69h1.54v2.69h1.22V100.57z"/>
		<path class="st2" d="M17.78,98.06c1.2-1.28,3.12-2.06,4.91-2.06s3.69,0.78,4.91,2.06v1.86c-1.48-1.49-3.23-2.24-4.91-2.24
			c-1.68,0-3.43,0.76-4.91,2.24V98.06z"/>
		<path class="st2" d="M20.42,89.52c0-1.62,1.14-2.87,2.82-2.87c1.68,0,2.82,1.25,2.82,2.87c0,1.61-1.14,2.85-2.82,2.85
			C21.56,92.37,20.42,91.13,20.42,89.52z M21.88,89.52c0,0.66,0.5,1.14,1.36,1.14s1.36-0.48,1.36-1.14c0-0.67-0.5-1.15-1.36-1.15
			S21.88,88.85,21.88,89.52z"/>
		<path class="st2" d="M25.94,83.66v1.7h-3.98v0.85h-1.42v-0.85h-0.66c-1.57,0-2.22-0.89-2.22-2.1c0-0.44,0.08-0.79,0.26-1.15h1.55
			c-0.19,0.32-0.26,0.56-0.26,0.9c0,0.44,0.24,0.65,0.65,0.65h0.68V82.4h1.42v1.26H25.94z"/>
		<path class="st2" d="M21.06,74.05c-0.44,0.44-0.76,1.1-0.76,1.93c0,1.17,0.86,1.85,2.07,1.85c1.26,0,2.08-0.77,2.08-1.92
			c0-0.85-0.25-1.38-0.74-2h1.82c0.42,0.7,0.53,1.36,0.53,2.09c0,2.24-1.52,3.67-3.68,3.67c-2.17,0-3.68-1.46-3.68-3.67
			c0-0.73,0.12-1.37,0.46-1.94H21.06z"/>
		<path class="st2" d="M17.78,72.71V71h2.85c-0.08-0.19-0.22-0.66-0.22-1.24c0-1.14,0.54-2.1,2.22-2.1h3.3v1.7h-3.23
			c-0.43,0-0.77,0.18-0.77,0.77c0,0.28,0.02,0.6,0.12,0.86h3.87v1.7H17.78z"/>
		<path class="st2" d="M22.5,63.67c-0.47,0-0.64,0.42-0.64,0.91c0,0.64,0.19,1.14,0.44,1.55h-1.44c-0.29-0.49-0.44-1.15-0.44-1.86
			c0-1.29,0.49-2.28,2-2.28h3.39c0.12,0.53,0.24,1.44,0.24,2.21c0,1.33-0.4,2.41-1.69,2.41c-1.14,0-1.66-0.89-1.66-2.36v-0.58H22.5z
			 M23.74,63.67v0.46c0,0.53,0.17,0.79,0.54,0.79s0.55-0.26,0.55-0.7c0-0.14-0.01-0.38-0.05-0.55H23.74z"/>
		<path class="st2" d="M20.92,60.63c-0.31-0.78-0.5-1.85-0.5-2.69c0-1.42,0.52-2.35,2.22-2.35h3.3v1.7h-3.23
			c-0.43,0-0.77,0.18-0.77,0.77c0,0.28,0.04,0.6,0.13,0.86h3.86v1.7H20.92z"/>
		<path class="st2" d="M25.69,50.96c0.1,0.18,0.17,0.55,0.17,0.96c0,1.58-0.95,2.69-2.69,2.69c-1.7,0-2.75-1.14-2.75-3.01
			c0-0.94,0.18-1.7,0.43-2.34h4.95c1.92,0,2.41,1.57,2.41,2.78c0,0.67-0.13,1.3-0.42,1.91h-1.57c0.42-0.71,0.56-1.21,0.56-1.91
			c0-0.64-0.35-1.08-0.98-1.08H25.69z M21.99,50.96c-0.06,0.16-0.1,0.4-0.1,0.64c0,0.78,0.4,1.28,1.27,1.28
			c0.8,0,1.27-0.49,1.27-1.19c0-0.3-0.06-0.52-0.13-0.73H21.99z"/>
		<path class="st2" d="M23.77,46.59h0.02c0.58-0.14,0.82-0.83,0.82-1.45c0-0.71-0.16-1.26-0.43-1.79h1.4
			c0.33,0.5,0.48,1.25,0.48,1.98c0,1.82-1.08,2.9-2.73,2.9c-1.82,0-2.9-1.13-2.9-2.66c0-1.79,1.21-2.36,2.61-2.36h0.73V46.59z
			 M22.81,44.77c-0.52,0-1,0.22-1,0.84c0,0.55,0.41,0.88,1,0.97V44.77z"/>
		<path class="st2" d="M18.92,39.9c-0.55,0-0.98-0.44-0.98-0.98c0-0.52,0.43-0.97,0.98-0.97c0.54,0,0.97,0.46,0.97,0.97
			C19.89,39.45,19.46,39.9,18.92,39.9z M25.94,38.06v1.7h-5.4v-1.7H25.94z"/>
		<path class="st2" d="M20.92,36.6c-0.31-0.78-0.5-1.85-0.5-2.69c0-1.42,0.52-2.35,2.22-2.35h3.3v1.7h-3.23
			c-0.43,0-0.77,0.18-0.77,0.77c0,0.28,0.04,0.6,0.13,0.86h3.86v1.7H20.92z"/>
		<path class="st2" d="M40.34,141.41l-4.47,1.38l4.47,0.61v1.76l-7.12-0.97v-2.13l4.82-1.49l-4.82-1.4v-2.15l7.12-0.97v1.78
			l-4.47,0.62l4.47,1.38V141.41z"/>
		<path class="st2" d="M38.98,133.27l1.36,0.49v1.88l-7.12-2.77v-2.15l7.12-2.77v1.96l-1.36,0.48V133.27z M35,131.81l2.53,0.92
			v-1.82L35,131.81z"/>
		<path class="st2" d="M33.27,127.23c-0.08-0.53-0.18-1.51-0.18-2.39c0-2.38,1.22-3.99,3.61-3.99c2.6,0,3.73,1.69,3.73,4.04
			c0,0.85-0.05,1.79-0.17,2.34H33.27z M38.84,125.44c0.02-0.22,0.04-0.52,0.04-0.77c0-1.19-0.68-1.99-2.17-1.99
			c-1.37,0-1.97,0.9-1.97,2.03c0,0.23,0.01,0.52,0.04,0.73H38.84z"/>
		<path class="st2" d="M40.34,117.95v1.78h-7.09c-0.1-0.56-0.16-1.51-0.16-2.25c0-1.82,0.77-3.05,2.47-3.05
			c1.02,0,1.74,0.58,2.11,1.28l2.66-1.91v2.1l-2.28,1.54v0.52H40.34z M36.6,117.95v-0.44c0-0.74-0.25-1.27-0.98-1.27
			c-0.72,0-0.97,0.55-0.97,1.22c0,0.14,0.01,0.4,0.02,0.49H36.6z"/>
		<path class="st2" d="M38.2,113.34c0.4-0.53,0.73-1.16,0.73-1.97c0-0.54-0.16-1.01-0.64-1.01c-0.43,0-0.59,0.37-0.77,1.09
			c-0.37,1.48-1.04,2.03-2.23,2.03c-1.4,0-2.21-1.07-2.21-2.47c0-0.85,0.2-1.44,0.52-1.97h1.75c-0.46,0.55-0.74,1.16-0.74,1.9
			c0,0.54,0.24,0.8,0.58,0.8c0.46,0,0.6-0.41,0.79-1.16c0.38-1.46,1.07-1.97,2.25-1.97c1.55,0,2.22,1.24,2.22,2.75
			c0,0.79-0.22,1.51-0.5,1.98H38.2z"/>
		<path class="st2" d="M40.34,101.93v1.78h-5.55v2.13h-1.57V99.8h1.57v2.13H40.34z"/>
		<path class="st2" d="M34.82,97.08c0-1.62,1.14-2.87,2.82-2.87c1.68,0,2.82,1.25,2.82,2.87c0,1.61-1.14,2.85-2.82,2.85
			C35.96,99.94,34.82,98.69,34.82,97.08z M36.28,97.08c0,0.66,0.5,1.14,1.36,1.14S39,97.74,39,97.08c0-0.67-0.5-1.15-1.36-1.15
			S36.28,96.41,36.28,97.08z"/>
		<path class="st2" d="M34.94,93.82v-0.8h-1.33v-1.69h1.33v-1.55h1.42v1.55h1.77c0.6,0,0.76-0.3,0.76-0.71c0-0.37-0.11-0.7-0.3-0.98
			h1.56c0.22,0.41,0.31,0.9,0.31,1.46c0,0.98-0.47,1.92-1.83,1.92h-2.27v0.8H34.94z"/>
		<path class="st2" d="M36.9,85.98c-0.47,0-0.64,0.42-0.64,0.91c0,0.64,0.19,1.14,0.44,1.55h-1.44c-0.29-0.49-0.44-1.15-0.44-1.86
			c0-1.3,0.49-2.28,2-2.28h3.39c0.12,0.53,0.24,1.44,0.24,2.21c0,1.33-0.4,2.41-1.69,2.41c-1.14,0-1.66-0.89-1.66-2.36v-0.58H36.9z
			 M38.14,85.98v0.46c0,0.53,0.17,0.79,0.54,0.79s0.55-0.26,0.55-0.7c0-0.14-0.01-0.38-0.05-0.55H38.14z"/>
		<path class="st2" d="M40.34,81.24v1.7h-8.16v-1.7H40.34z"/>
		<path class="st2" d="M38.2,77.78c0.4-0.53,0.73-1.16,0.73-1.97c0-0.54-0.16-1.01-0.64-1.01c-0.43,0-0.59,0.37-0.77,1.09
			c-0.37,1.48-1.04,2.03-2.23,2.03c-1.4,0-2.21-1.07-2.21-2.47c0-0.85,0.2-1.44,0.52-1.97h1.75c-0.46,0.55-0.74,1.16-0.74,1.89
			c0,0.54,0.24,0.8,0.58,0.8c0.46,0,0.6-0.41,0.79-1.16c0.38-1.46,1.07-1.97,2.25-1.97c1.55,0,2.22,1.24,2.22,2.75
			c0,0.79-0.22,1.51-0.5,1.98H38.2z"/>
		<path class="st2" d="M36.8,67.88c-0.37,0.44-0.49,0.85-0.49,1.34c0,0.82,0.49,1.34,1.32,1.34c0.77,0,1.34-0.5,1.34-1.4
			c0-0.49-0.16-0.94-0.47-1.31h1.56c0.3,0.46,0.4,1,0.4,1.56c0,1.81-1.13,2.87-2.81,2.87c-1.67,0-2.83-1.16-2.83-2.87
			c0-0.62,0.12-1.08,0.4-1.54H36.8z"/>
		<path class="st2" d="M34.82,64.24c0-1.62,1.14-2.87,2.82-2.87c1.68,0,2.82,1.25,2.82,2.87c0,1.61-1.14,2.85-2.82,2.85
			C35.96,67.1,34.82,65.85,34.82,64.24z M36.28,64.24c0,0.66,0.5,1.14,1.36,1.14S39,64.9,39,64.24c0-0.67-0.5-1.15-1.36-1.15
			S36.28,63.57,36.28,64.24z"/>
		<path class="st2" d="M40.34,58.6v1.7h-5c-0.31-0.6-0.48-1.42-0.48-2.21c0-0.47,0.04-0.77,0.16-1.2h1.64
			c-0.16,0.36-0.2,0.74-0.2,1.13c0,0.18,0.02,0.37,0.07,0.58H40.34z"/>
		<path class="st2" d="M38.17,54.75h0.02c0.58-0.14,0.82-0.83,0.82-1.45c0-0.71-0.16-1.26-0.43-1.79h1.4
			c0.33,0.5,0.48,1.25,0.48,1.98c0,1.82-1.08,2.9-2.73,2.9c-1.82,0-2.9-1.13-2.9-2.66c0-1.79,1.21-2.36,2.61-2.36h0.73V54.75z
			 M37.21,52.93c-0.52,0-1,0.22-1,0.84c0,0.55,0.41,0.88,1,0.97V52.93z"/>
	</g>
</g>
<g>
	<g>
		<path class="st2" d="M52.66,42.57h4.75v0.53h-4.75V42.57z"/>
		<path class="st2" d="M59.33,41.65c1.5,0.19,2.66,0.75,2.66,2.21c0,1-0.71,1.92-2.28,1.92c-0.57,0-1.1-0.17-1.47-0.42v-0.64
			c0.46,0.31,0.96,0.5,1.46,0.5c1.06,0,1.61-0.56,1.61-1.36c0-1.19-1.12-1.55-2.61-1.72l0.21-3h2.92v0.59h-2.37L59.33,41.65z"/>
	</g>
</g>
<g>
	<g>
		<path class="st2" d="M47.92,65.94h4.75v0.53h-4.75V65.94z"/>
		<path class="st2" d="M53.29,62.78l2.04-0.36v6.63h-0.67v-5.89l-1.36,0.21V62.78z"/>
		<path class="st2" d="M59.45,62.41c1.5,0,2.43,1.42,2.43,3.38c0,1.96-0.94,3.38-2.43,3.38s-2.43-1.42-2.43-3.38
			C57.02,63.83,57.95,62.41,59.45,62.41z M59.45,68.58c1.06,0,1.75-1.16,1.75-2.79c0-1.64-0.69-2.79-1.75-2.79
			c-1.06,0-1.75,1.16-1.75,2.79C57.7,67.42,58.39,68.58,59.45,68.58z"/>
	</g>
</g>
<g>
	<g>
		<path class="st2" d="M49.47,89.31h4.75v0.53h-4.75V89.31z"/>
		<path class="st2" d="M54.84,86.15l2.04-0.36v6.63h-0.67v-5.89l-1.36,0.21V86.15z"/>
		<path class="st2" d="M59.33,88.4c1.5,0.19,2.66,0.75,2.66,2.21c0,1-0.71,1.92-2.28,1.92c-0.57,0-1.1-0.17-1.47-0.42v-0.64
			c0.46,0.31,0.96,0.5,1.46,0.5c1.06,0,1.61-0.56,1.61-1.36c0-1.19-1.12-1.55-2.61-1.72l0.21-3h2.92v0.59h-2.37L59.33,88.4z"/>
	</g>
</g>
<g>
	<g>
		<path class="st2" d="M46.6,112.68h4.75v0.53H46.6V112.68z"/>
		<path class="st2" d="M56.05,115.2v0.59H51.9v-0.51c1.68-1.42,3.31-2.84,3.31-4.28c0-0.85-0.51-1.24-1.21-1.24
			c-0.85,0-1.42,0.44-1.86,0.88v-0.74c0.4-0.41,1.06-0.76,1.86-0.76c1.07,0,1.88,0.57,1.88,1.86c0,1.45-1.62,3.08-3.12,4.19H56.05z"
			/>
		<path class="st2" d="M59.45,109.15c1.5,0,2.43,1.42,2.43,3.38s-0.94,3.38-2.43,3.38s-2.43-1.42-2.43-3.38
			S57.95,109.15,59.45,109.15z M59.45,115.32c1.06,0,1.75-1.16,1.75-2.79c0-1.64-0.69-2.79-1.75-2.79c-1.06,0-1.75,1.16-1.75,2.79
			C57.7,114.17,58.39,115.32,59.45,115.32z"/>
	</g>
</g>
<g>
	<g>
		<path class="st2" d="M47.93,136.06h4.75v0.53h-4.75V136.06z"/>
		<path class="st2" d="M57.38,138.58v0.59h-4.15v-0.51c1.68-1.42,3.31-2.84,3.31-4.28c0-0.85-0.51-1.24-1.21-1.24
			c-0.85,0-1.42,0.44-1.86,0.88v-0.74c0.4-0.41,1.06-0.76,1.86-0.76c1.07,0,1.88,0.57,1.88,1.86c0,1.45-1.62,3.08-3.12,4.19H57.38z"
			/>
		<path class="st2" d="M59.33,135.14c1.5,0.19,2.66,0.75,2.66,2.21c0,1-0.71,1.93-2.28,1.93c-0.57,0-1.1-0.17-1.47-0.42v-0.64
			c0.46,0.31,0.96,0.5,1.46,0.5c1.06,0,1.61-0.56,1.61-1.36c0-1.19-1.12-1.55-2.61-1.72l0.21-3h2.92v0.59h-2.37L59.33,135.14z"/>
	</g>
</g>
<g>
	<g>
		<path class="st2" d="M46.92,159.43h4.75v0.53h-4.75V159.43z"/>
		<path class="st2" d="M52.41,156.66c0.31-0.39,0.97-0.76,1.71-0.76c1.23,0,1.83,0.75,1.83,1.62c0,0.8-0.63,1.57-1.5,1.69
			c0.9,0.11,1.64,0.72,1.64,1.66c0,0.97-0.75,1.78-2.17,1.78c-0.59,0-1.27-0.19-1.58-0.46v-0.63c0.46,0.32,0.91,0.53,1.58,0.53
			c0.89,0,1.48-0.47,1.48-1.22c0-0.83-0.51-1.19-1.83-1.41V159c1.12-0.24,1.66-0.71,1.66-1.49c0-0.65-0.5-1.02-1.12-1.02
			c-0.74,0-1.3,0.44-1.71,0.88V156.66z"/>
		<path class="st2" d="M59.45,155.9c1.5,0,2.43,1.42,2.43,3.38s-0.94,3.38-2.43,3.38s-2.43-1.42-2.43-3.38S57.95,155.9,59.45,155.9z
			 M59.45,162.07c1.06,0,1.75-1.16,1.75-2.79c0-1.64-0.69-2.79-1.75-2.79c-1.06,0-1.75,1.16-1.75,2.79
			C57.7,160.91,58.39,162.07,59.45,162.07z"/>
	</g>
</g>
<g>
	<g>
		<path class="st2" d="M48.47,182.8h4.75v0.53h-4.75V182.8z"/>
		<path class="st2" d="M53.96,180.03c0.31-0.39,0.97-0.76,1.71-0.76c1.23,0,1.83,0.75,1.83,1.62c0,0.8-0.63,1.57-1.5,1.69
			c0.9,0.11,1.64,0.72,1.64,1.66c0,0.97-0.75,1.78-2.17,1.78c-0.59,0-1.27-0.19-1.58-0.46v-0.63c0.46,0.32,0.91,0.53,1.58,0.53
			c0.89,0,1.48-0.47,1.48-1.22c0-0.83-0.51-1.19-1.83-1.41v-0.46c1.12-0.24,1.66-0.71,1.66-1.49c0-0.65-0.5-1.02-1.12-1.02
			c-0.74,0-1.3,0.44-1.71,0.88V180.03z"/>
		<path class="st2" d="M59.33,181.89c1.5,0.19,2.66,0.75,2.66,2.21c0,1-0.71,1.92-2.28,1.92c-0.57,0-1.1-0.17-1.47-0.42v-0.64
			c0.46,0.31,0.96,0.5,1.46,0.5c1.06,0,1.61-0.56,1.61-1.36c0-1.19-1.12-1.55-2.61-1.72l0.21-3h2.92v0.59h-2.37L59.33,181.89z"/>
	</g>
</g>
<g>
	<g>
		<path class="st2" d="M55.44,191.65c0.44-0.06,0.93-0.1,1.32-0.1c1.65,0,2.37,0.64,2.37,1.77c0,0.85-0.54,1.43-1.38,1.53
			c1.01,0.07,1.64,0.63,1.64,1.58c0,1.06-0.73,1.87-2.63,1.87c-0.44,0-0.89-0.04-1.32-0.12V191.65z M56.11,194.6h0.58
			c1.1,0,1.76-0.43,1.76-1.28c0-0.81-0.63-1.21-1.71-1.21c-0.19,0-0.41,0.01-0.64,0.03V194.6z M56.11,197.7
			c0.26,0.03,0.48,0.04,0.65,0.04c1.39,0,1.96-0.5,1.96-1.31c0-0.87-0.76-1.25-1.93-1.25h-0.68V197.7z"/>
		<path class="st2" d="M63.25,194.84c0-0.62-0.4-0.94-1.01-0.94c-0.55,0-0.97,0.15-1.41,0.38v-0.63c0.41-0.22,0.92-0.37,1.48-0.37
			c0.97,0,1.6,0.43,1.6,1.51v3.31c-0.44,0.12-0.96,0.18-1.36,0.18c-1.3,0-2.17-0.41-2.17-1.42c0-0.95,0.87-1.44,2.33-1.44h0.54
			V194.84z M63.25,195.96h-0.5c-0.99,0-1.72,0.26-1.72,0.9c0,0.64,0.66,0.87,1.54,0.87c0.2,0,0.44-0.02,0.67-0.07V195.96z"/>
		<path class="st2" d="M65.2,197.17c0.41,0.36,0.83,0.57,1.35,0.57c0.6,0,0.99-0.23,0.99-0.77c0-0.57-0.42-0.73-1.18-0.98
			c-0.85-0.29-1.21-0.64-1.21-1.41c0-0.85,0.64-1.3,1.51-1.3c0.47,0,0.94,0.1,1.31,0.36v0.71c-0.37-0.31-0.76-0.52-1.31-0.52
			c-0.53,0-0.87,0.29-0.87,0.74c0,0.44,0.26,0.67,1,0.9c0.84,0.25,1.4,0.57,1.4,1.44c0,0.95-0.74,1.38-1.64,1.38
			c-0.54,0-1.06-0.15-1.35-0.38V197.17z"/>
		<path class="st2" d="M69.75,195.83v0.02c0,1.18,0.85,1.87,1.78,1.87c0.68,0,1.16-0.18,1.64-0.54v0.66
			c-0.43,0.32-1.05,0.46-1.64,0.46c-1.39,0-2.44-0.95-2.44-2.51c0-1.44,0.99-2.51,2.28-2.51c1.21,0,2.01,0.73,2.01,2.09v0.45H69.75z
			 M72.72,195.28c-0.04-1-0.58-1.41-1.39-1.41c-0.75,0-1.35,0.51-1.54,1.41H72.72z"/>
		<path class="st2" d="M75.31,198.19h-0.66v-7.48h0.66V198.19z"/>
		<path class="st2" d="M76.79,191.9c0-0.28,0.23-0.5,0.5-0.5c0.28,0,0.5,0.22,0.5,0.5c0,0.26-0.22,0.5-0.5,0.5
			C77.02,192.4,76.79,192.16,76.79,191.9z M77.61,198.19h-0.66v-4.8h0.66V198.19z"/>
		<path class="st2" d="M79.26,193.65c0.64-0.23,1.36-0.36,2.01-0.36c1.21,0,1.95,0.47,1.95,1.67v3.23h-0.66v-3.1
			c0-0.98-0.69-1.19-1.34-1.19c-0.51,0-0.96,0.09-1.3,0.18v4.12h-0.66V193.65z"/>
		<path class="st2" d="M85.12,195.83v0.02c0,1.18,0.85,1.87,1.78,1.87c0.68,0,1.16-0.18,1.64-0.54v0.66
			c-0.43,0.32-1.05,0.46-1.64,0.46c-1.39,0-2.44-0.95-2.44-2.51c0-1.44,0.99-2.51,2.28-2.51c1.21,0,2.01,0.73,2.01,2.09v0.45H85.12z
			 M88.09,195.28c-0.04-1-0.58-1.41-1.39-1.41c-0.75,0-1.35,0.51-1.54,1.41H88.09z"/>
	</g>
</g>
<g>
	<g>
		<path class="st2" d="M94.44,191.64c0.48-0.05,0.93-0.09,1.34-0.09c2.99,0,4,1.55,4,3.22c0,1.84-1.07,3.53-3.92,3.53
			c-0.55,0-0.97-0.04-1.43-0.1V191.64z M95.13,197.66c0.26,0.03,0.52,0.04,0.76,0.04c1.87,0,3.19-0.94,3.19-2.93
			c0-1.54-0.98-2.62-3.31-2.62c-0.21,0-0.41,0.01-0.64,0.03V197.66z"/>
		<path class="st2" d="M100.46,191.92l2.04-0.36v6.63h-0.67v-5.89l-1.36,0.21V191.92z"/>
		<path class="st2" d="M104.73,193.52c0.3,0,0.55,0.24,0.55,0.54c0,0.3-0.25,0.55-0.55,0.55c-0.3,0-0.54-0.25-0.54-0.55
			C104.19,193.76,104.43,193.52,104.73,193.52z M104.73,197.2c0.3,0,0.55,0.24,0.55,0.54c0,0.3-0.25,0.55-0.55,0.55
			c-0.3,0-0.54-0.25-0.54-0.55C104.19,197.44,104.43,197.2,104.73,197.2z"/>
		<path class="st2" d="M98.38,205.57h1.24v0.56h-1.24v1.82h-0.65v-1.82H94.5v-0.56l3.09-4.16h0.79V205.57z M95.2,205.57h2.53v-3.44
			L95.2,205.57z"/>
		<path class="st2" d="M100.61,200.47h0.66v2.83c0.36-0.13,0.9-0.25,1.41-0.25c1.16,0,1.89,0.47,1.89,1.67v3.23h-0.66v-3.1
			c0-0.98-0.69-1.19-1.34-1.19c-0.51,0-0.97,0.11-1.3,0.22v4.07h-0.66V200.47z"/>
	</g>
</g>
<g>
	<g>
		<path class="st2" d="M110.02,191.64c0.48-0.05,0.93-0.09,1.34-0.09c2.99,0,4,1.55,4,3.22c0,1.84-1.07,3.53-3.92,3.53
			c-0.55,0-0.97-0.04-1.43-0.1V191.64z M110.71,197.66c0.26,0.03,0.52,0.04,0.76,0.04c1.87,0,3.19-0.94,3.19-2.93
			c0-1.54-0.98-2.62-3.31-2.62c-0.21,0-0.41,0.01-0.64,0.03V197.66z"/>
		<path class="st2" d="M120.07,197.6v0.59h-4.15v-0.51c1.68-1.42,3.31-2.84,3.31-4.28c0-0.85-0.51-1.24-1.21-1.24
			c-0.85,0-1.42,0.44-1.86,0.88v-0.74c0.4-0.41,1.06-0.76,1.86-0.76c1.07,0,1.88,0.57,1.88,1.86c0,1.45-1.62,3.08-3.12,4.19H120.07z
			"/>
		<path class="st2" d="M121.91,193.52c0.3,0,0.55,0.24,0.55,0.54s-0.25,0.55-0.55,0.55c-0.3,0-0.54-0.25-0.54-0.55
			S121.61,193.52,121.91,193.52z M121.91,197.2c0.3,0,0.55,0.24,0.55,0.54s-0.25,0.55-0.55,0.55c-0.3,0-0.54-0.25-0.54-0.55
			S121.61,197.2,121.91,197.2z"/>
		<path class="st2" d="M113.29,207.36v0.59h-4.15v-0.51c1.68-1.42,3.31-2.84,3.31-4.28c0-0.85-0.51-1.24-1.21-1.24
			c-0.85,0-1.42,0.44-1.86,0.88v-0.74c0.4-0.41,1.06-0.76,1.86-0.76c1.07,0,1.88,0.57,1.88,1.86c0,1.45-1.62,3.08-3.12,4.19H113.29z
			"/>
		<path class="st2" d="M117.6,205.57h1.24v0.56h-1.24v1.82h-0.65v-1.82h-3.23v-0.56l3.09-4.16h0.79V205.57z M114.42,205.57h2.53
			v-3.44L114.42,205.57z"/>
		<path class="st2" d="M119.84,200.47h0.66v2.83c0.36-0.13,0.9-0.25,1.41-0.25c1.16,0,1.89,0.47,1.89,1.67v3.23h-0.66v-3.1
			c0-0.98-0.69-1.19-1.34-1.19c-0.51,0-0.97,0.11-1.3,0.22v4.07h-0.66V200.47z"/>
		<path class="st2" d="M109.91,213.11c0.44-0.17,1.06-0.31,1.67-0.31c1.65,0,2.65,0.86,2.65,2.51c0,1.56-1.03,2.51-2.61,2.51
			c-0.38,0-0.8-0.08-1.06-0.2v2.07h-0.66V213.11z M110.57,217.05c0.31,0.13,0.65,0.2,1.06,0.2c1.17,0,1.94-0.72,1.94-1.94
			c0-1.18-0.71-1.9-1.98-1.9c-0.37,0-0.76,0.04-1.01,0.13V217.05z"/>
		<path class="st2" d="M117.63,212.8c1.43,0,2.41,1.02,2.41,2.51s-0.98,2.51-2.41,2.51c-1.43,0-2.41-1.02-2.41-2.51
			S116.2,212.8,117.63,212.8z M117.63,213.37c-1.01,0-1.74,0.77-1.74,1.94s0.73,1.94,1.74,1.94c1.01,0,1.74-0.77,1.74-1.94
			S118.64,213.37,117.63,213.37z"/>
		<path class="st2" d="M121.04,216.69c0.41,0.36,0.83,0.57,1.35,0.57c0.6,0,0.99-0.23,0.99-0.77c0-0.57-0.42-0.73-1.18-0.98
			c-0.85-0.29-1.21-0.64-1.21-1.41c0-0.85,0.64-1.3,1.51-1.3c0.47,0,0.94,0.1,1.31,0.36v0.71c-0.37-0.31-0.76-0.52-1.31-0.52
			c-0.53,0-0.87,0.29-0.87,0.74c0,0.44,0.26,0.67,1,0.9c0.84,0.25,1.4,0.57,1.4,1.44c0,0.95-0.74,1.38-1.64,1.38
			c-0.54,0-1.06-0.15-1.35-0.38V216.69z"/>
		<path class="st2" d="M124.69,212.91h0.74v-1.17h0.66v1.17h1.35v0.56h-1.35v2.93c0,0.62,0.24,0.86,0.69,0.86
			c0.31,0,0.56-0.1,0.89-0.26v0.58c-0.29,0.14-0.62,0.24-1.03,0.24c-0.69,0-1.21-0.36-1.21-1.35v-2.99h-0.74V212.91z"/>
		<path class="st2" d="M132.7,217.64c-0.52,0.12-1.06,0.18-1.56,0.18c-1.66,0-2.78-0.9-2.78-2.51c0-1.62,1.21-2.51,2.64-2.51
			c0.36,0,0.8,0.08,1.04,0.22v-2.79h0.66V217.64z M132.04,213.62c-0.24-0.13-0.6-0.22-1.04-0.22c-1.11,0-1.97,0.68-1.97,1.91
			c0,1.22,0.85,1.92,2.11,1.92c0.31,0,0.62-0.01,0.9-0.05V213.62z"/>
		<path class="st2" d="M136.39,212.8c1.43,0,2.41,1.02,2.41,2.51s-0.98,2.51-2.41,2.51c-1.43,0-2.41-1.02-2.41-2.51
			S134.96,212.8,136.39,212.8z M136.39,213.37c-1.01,0-1.74,0.77-1.74,1.94s0.73,1.94,1.74,1.94c1.01,0,1.74-0.77,1.74-1.94
			S137.4,213.37,136.39,213.37z"/>
		<path class="st2" d="M139.8,216.69c0.41,0.36,0.83,0.57,1.35,0.57c0.6,0,0.99-0.23,0.99-0.77c0-0.57-0.42-0.73-1.18-0.98
			c-0.85-0.29-1.21-0.64-1.21-1.41c0-0.85,0.64-1.3,1.51-1.3c0.47,0,0.94,0.1,1.31,0.36v0.71c-0.37-0.31-0.76-0.52-1.31-0.52
			c-0.53,0-0.87,0.29-0.87,0.74c0,0.44,0.26,0.67,1,0.9c0.84,0.25,1.4,0.57,1.4,1.44c0,0.95-0.74,1.38-1.64,1.38
			c-0.54,0-1.06-0.15-1.35-0.38V216.69z"/>
		<path class="st2" d="M144.36,215.34v0.02c0,1.18,0.85,1.87,1.78,1.87c0.68,0,1.16-0.18,1.64-0.54v0.66
			c-0.43,0.32-1.05,0.46-1.64,0.46c-1.39,0-2.44-0.95-2.44-2.51c0-1.44,0.99-2.51,2.28-2.51c1.21,0,2.01,0.73,2.01,2.09v0.45H144.36
			z M147.33,214.79c-0.04-1-0.58-1.41-1.39-1.41c-0.75,0-1.35,0.51-1.54,1.41H147.33z"/>
	</g>
</g>
<g>
	<g>
		<path class="st2" d="M133.02,191.64c0.48-0.05,0.93-0.09,1.34-0.09c2.99,0,4,1.55,4,3.22c0,1.84-1.07,3.53-3.92,3.53
			c-0.55,0-0.97-0.04-1.43-0.1V191.64z M133.7,197.66c0.26,0.03,0.52,0.04,0.76,0.04c1.87,0,3.19-0.94,3.19-2.93
			c0-1.54-0.98-2.62-3.31-2.62c-0.21,0-0.41,0.01-0.64,0.03V197.66z"/>
		<path class="st2" d="M143.03,195.82h1.24v0.56h-1.24v1.82h-0.65v-1.82h-3.23v-0.56l3.09-4.16h0.79V195.82z M139.85,195.82h2.53
			v-3.44L139.85,195.82z"/>
	</g>
</g>
<g>
	<g>
		<path class="st2" d="M187.42,191.64c0.48-0.05,0.93-0.09,1.34-0.09c2.99,0,4,1.55,4,3.22c0,1.84-1.07,3.53-3.92,3.53
			c-0.55,0-0.97-0.04-1.43-0.1V191.64z M188.11,197.66c0.26,0.03,0.52,0.04,0.76,0.04c1.87,0,3.19-0.94,3.19-2.93
			c0-1.54-0.98-2.62-3.31-2.62c-0.21,0-0.41,0.01-0.64,0.03V197.66z"/>
		<path class="st2" d="M193.71,196.41c0-0.95,0.76-1.56,1.43-1.69c-0.56-0.17-1.06-0.69-1.06-1.46c0-1.11,0.84-1.71,1.8-1.71
			c0.97,0,1.8,0.59,1.8,1.71c0,0.77-0.5,1.3-1.06,1.46c0.67,0.13,1.43,0.75,1.43,1.69c0,1.21-0.97,1.89-2.18,1.89
			S193.71,197.62,193.71,196.41z M197.37,196.41c0-0.88-0.67-1.41-1.49-1.41c-0.81,0-1.49,0.53-1.49,1.41c0,0.9,0.67,1.34,1.49,1.34
			C196.7,197.75,197.37,197.31,197.37,196.41z M197.04,193.24c0-0.73-0.53-1.17-1.16-1.17s-1.16,0.44-1.16,1.17
			c0,0.71,0.53,1.14,1.16,1.14S197.04,193.96,197.04,193.24z"/>
	</g>
</g>
<g>
	<g>
		<path class="st2" d="M225.49,191.64c0.48-0.05,0.93-0.09,1.34-0.09c2.99,0,4,1.55,4,3.22c0,1.84-1.07,3.53-3.92,3.53
			c-0.55,0-0.97-0.04-1.43-0.1V191.64z M226.17,197.66c0.26,0.03,0.52,0.04,0.76,0.04c1.87,0,3.19-0.94,3.19-2.93
			c0-1.54-0.98-2.62-3.31-2.62c-0.21,0-0.41,0.01-0.64,0.03V197.66z"/>
		<path class="st2" d="M231.51,191.92l2.04-0.36v6.63h-0.67v-5.89l-1.36,0.21V191.92z"/>
		<path class="st2" d="M234.86,191.92l2.04-0.36v6.63h-0.67v-5.89l-1.36,0.21V191.92z"/>
	</g>
</g>
<g>
	<g>
		<path class="st2" d="M278.37,191.64c0.48-0.05,0.93-0.09,1.34-0.09c2.99,0,4,1.55,4,3.22c0,1.84-1.07,3.53-3.92,3.53
			c-0.55,0-0.97-0.04-1.43-0.1V191.64z M279.05,197.66c0.26,0.03,0.52,0.04,0.76,0.04c1.87,0,3.19-0.94,3.19-2.93
			c0-1.54-0.98-2.62-3.31-2.62c-0.21,0-0.41,0.01-0.64,0.03V197.66z"/>
		<path class="st2" d="M284.39,191.92l2.04-0.36v6.63h-0.67v-5.89l-1.36,0.21V191.92z"/>
		<path class="st2" d="M288.87,194.17c1.5,0.19,2.66,0.75,2.66,2.21c0,1-0.71,1.92-2.28,1.92c-0.57,0-1.1-0.17-1.47-0.42v-0.64
			c0.46,0.31,0.96,0.5,1.46,0.5c1.06,0,1.61-0.56,1.61-1.36c0-1.19-1.12-1.55-2.61-1.72l0.21-3h2.92v0.59h-2.37L288.87,194.17z"/>
	</g>
</g>
<g>
	<g>
		<path class="st2" d="M317.75,191.64c0.48-0.05,0.93-0.09,1.34-0.09c2.99,0,4,1.55,4,3.22c0,1.84-1.07,3.53-3.92,3.53
			c-0.55,0-0.97-0.04-1.43-0.1V191.64z M318.43,197.66c0.26,0.03,0.52,0.04,0.76,0.04c1.87,0,3.19-0.94,3.19-2.93
			c0-1.54-0.98-2.62-3.31-2.62c-0.21,0-0.41,0.01-0.64,0.03V197.66z"/>
		<path class="st2" d="M323.76,191.92l2.04-0.36v6.63h-0.67v-5.89l-1.36,0.21V191.92z"/>
		<path class="st2" d="M327.38,196.41c0-0.95,0.76-1.56,1.43-1.69c-0.56-0.17-1.06-0.69-1.06-1.46c0-1.11,0.84-1.71,1.8-1.71
			c0.97,0,1.8,0.59,1.8,1.71c0,0.77-0.5,1.3-1.06,1.46c0.67,0.13,1.43,0.75,1.43,1.69c0,1.21-0.97,1.89-2.18,1.89
			S327.38,197.62,327.38,196.41z M331.05,196.41c0-0.88-0.67-1.41-1.49-1.41c-0.81,0-1.49,0.53-1.49,1.41c0,0.9,0.67,1.34,1.49,1.34
			C330.37,197.75,331.05,197.31,331.05,196.41z M330.72,193.24c0-0.73-0.53-1.17-1.16-1.17s-1.16,0.44-1.16,1.17
			c0,0.71,0.53,1.14,1.16,1.14S330.72,193.96,330.72,193.24z"/>
	</g>
</g>
<g>
	<g>
		<path class="st2" d="M370.48,191.64c0.48-0.05,0.93-0.09,1.34-0.09c2.99,0,4,1.55,4,3.22c0,1.84-1.07,3.53-3.92,3.53
			c-0.55,0-0.97-0.04-1.43-0.1V191.64z M371.16,197.66c0.26,0.03,0.52,0.04,0.76,0.04c1.87,0,3.19-0.94,3.19-2.93
			c0-1.54-0.98-2.62-3.31-2.62c-0.21,0-0.41,0.01-0.64,0.03V197.66z"/>
		<path class="st2" d="M380.52,197.6v0.59h-4.15v-0.51c1.68-1.42,3.31-2.84,3.31-4.28c0-0.85-0.51-1.24-1.21-1.24
			c-0.85,0-1.42,0.44-1.86,0.88v-0.74c0.4-0.41,1.06-0.76,1.86-0.76c1.07,0,1.88,0.57,1.88,1.86c0,1.45-1.62,3.08-3.12,4.19H380.52z
			"/>
		<path class="st2" d="M385.36,197.6v0.59h-4.15v-0.51c1.68-1.42,3.31-2.84,3.31-4.28c0-0.85-0.51-1.24-1.21-1.24
			c-0.85,0-1.42,0.44-1.86,0.88v-0.74c0.4-0.41,1.06-0.76,1.86-0.76c1.07,0,1.88,0.57,1.88,1.86c0,1.45-1.62,3.08-3.12,4.19H385.36z
			"/>
	</g>
</g>
<g>
	<g>
		<path class="st2" d="M403.6,191.64c0.48-0.05,0.93-0.09,1.34-0.09c2.99,0,4,1.55,4,3.22c0,1.84-1.07,3.53-3.92,3.53
			c-0.55,0-0.97-0.04-1.43-0.1V191.64z M404.28,197.66c0.26,0.03,0.52,0.04,0.76,0.04c1.87,0,3.19-0.94,3.19-2.93
			c0-1.54-0.98-2.62-3.31-2.62c-0.21,0-0.41,0.01-0.64,0.03V197.66z"/>
		<path class="st2" d="M413.64,197.6v0.59h-4.15v-0.51c1.68-1.42,3.31-2.84,3.31-4.28c0-0.85-0.51-1.24-1.21-1.24
			c-0.85,0-1.42,0.44-1.86,0.88v-0.74c0.4-0.41,1.06-0.76,1.86-0.76c1.07,0,1.88,0.57,1.88,1.86c0,1.45-1.62,3.08-3.12,4.19H413.64z
			"/>
		<path class="st2" d="M415.59,194.17c1.5,0.19,2.66,0.75,2.66,2.21c0,1-0.71,1.92-2.28,1.92c-0.57,0-1.1-0.17-1.47-0.42v-0.64
			c0.46,0.31,0.96,0.5,1.46,0.5c1.06,0,1.61-0.56,1.61-1.36c0-1.19-1.12-1.55-2.61-1.72l0.21-3h2.92v0.59h-2.37L415.59,194.17z"/>
		<path class="st2" d="M420,193.52c0.3,0,0.55,0.24,0.55,0.54s-0.25,0.55-0.55,0.55c-0.3,0-0.54-0.25-0.54-0.55
			S419.7,193.52,420,193.52z M420,197.2c0.3,0,0.55,0.24,0.55,0.54s-0.25,0.55-0.55,0.55c-0.3,0-0.54-0.25-0.54-0.55
			S419.7,197.2,420,197.2z"/>
		<path class="st2" d="M390.85,207.95h-0.68v-6.55c0.3-0.04,0.77-0.1,1.15-0.1c1.8,0,2.56,0.84,2.56,2.07c0,1.4-0.98,2.16-2.62,2.16
			c-0.12,0-0.28-0.01-0.42-0.02V207.95z M390.85,204.94c0.12,0.01,0.24,0.01,0.35,0.01c1.35,0,1.99-0.52,1.99-1.57
			c0-0.85-0.5-1.49-1.9-1.49c-0.13,0-0.29,0.01-0.44,0.02V204.94z"/>
		<path class="st2" d="M395.64,207.95h-0.66v-4.36c0.51-0.32,1.12-0.52,1.78-0.52c0.26,0,0.53,0.03,0.8,0.1v0.65
			c-0.29-0.1-0.63-0.12-0.85-0.12c-0.47,0-0.83,0.1-1.08,0.24V207.95z"/>
		<path class="st2" d="M398.74,205.59v0.02c0,1.18,0.85,1.87,1.78,1.87c0.68,0,1.16-0.18,1.64-0.54v0.66
			c-0.43,0.32-1.05,0.46-1.64,0.46c-1.39,0-2.44-0.95-2.44-2.51c0-1.44,0.99-2.51,2.28-2.51c1.21,0,2.01,0.73,2.01,2.09v0.45H398.74
			z M401.72,205.03c-0.04-1-0.58-1.41-1.39-1.41c-0.75,0-1.35,0.51-1.54,1.41H401.72z"/>
		<path class="st2" d="M407.68,207.88c-0.52,0.12-1.06,0.18-1.56,0.18c-1.66,0-2.78-0.9-2.78-2.51c0-1.62,1.21-2.51,2.64-2.51
			c0.36,0,0.8,0.08,1.04,0.22v-2.79h0.66V207.88z M407.02,203.86c-0.24-0.13-0.6-0.22-1.04-0.22c-1.11,0-1.97,0.68-1.97,1.91
			c0,1.22,0.85,1.92,2.11,1.92c0.31,0,0.62-0.01,0.9-0.05V203.86z"/>
		<path class="st2" d="M411.37,203.04c1.43,0,2.41,1.02,2.41,2.51s-0.98,2.51-2.41,2.51c-1.43,0-2.41-1.02-2.41-2.51
			S409.94,203.04,411.37,203.04z M411.37,203.62c-1.01,0-1.74,0.77-1.74,1.94s0.73,1.94,1.74,1.94c1.01,0,1.74-0.77,1.74-1.94
			S412.38,203.62,411.37,203.62z"/>
		<path class="st2" d="M414.78,206.93c0.41,0.36,0.83,0.57,1.35,0.57c0.6,0,0.99-0.23,0.99-0.77c0-0.57-0.42-0.73-1.18-0.98
			c-0.85-0.29-1.21-0.64-1.21-1.41c0-0.85,0.64-1.3,1.51-1.3c0.47,0,0.94,0.1,1.31,0.36v0.71c-0.37-0.31-0.76-0.52-1.31-0.52
			c-0.53,0-0.87,0.29-0.87,0.74c0,0.44,0.26,0.67,1,0.9c0.84,0.25,1.4,0.57,1.4,1.44c0,0.95-0.74,1.38-1.64,1.38
			c-0.54,0-1.06-0.15-1.35-0.38V206.93z"/>
		<path class="st2" d="M419.34,205.59v0.02c0,1.18,0.85,1.87,1.78,1.87c0.68,0,1.16-0.18,1.64-0.54v0.66
			c-0.43,0.32-1.05,0.46-1.64,0.46c-1.39,0-2.44-0.95-2.44-2.51c0-1.44,0.99-2.51,2.28-2.51c1.21,0,2.01,0.73,2.01,2.09v0.45H419.34
			z M422.31,205.03c-0.04-1-0.58-1.41-1.39-1.41c-0.75,0-1.35,0.51-1.54,1.41H422.31z"/>
	</g>
</g>
<g>
	<g>
		<path class="st2" d="M427.81,191.64c0.48-0.05,0.93-0.09,1.34-0.09c2.99,0,4,1.55,4,3.22c0,1.84-1.07,3.53-3.92,3.53
			c-0.55,0-0.97-0.04-1.43-0.1V191.64z M428.5,197.66c0.26,0.03,0.52,0.04,0.76,0.04c1.87,0,3.19-0.94,3.19-2.93
			c0-1.54-0.98-2.62-3.31-2.62c-0.21,0-0.41,0.01-0.64,0.03V197.66z"/>
		<path class="st2" d="M437.86,197.6v0.59h-4.15v-0.51c1.68-1.42,3.31-2.84,3.31-4.28c0-0.85-0.51-1.24-1.21-1.24
			c-0.85,0-1.42,0.44-1.86,0.88v-0.74c0.4-0.41,1.06-0.76,1.86-0.76c1.07,0,1.88,0.57,1.88,1.86c0,1.45-1.62,3.08-3.12,4.19H437.86z
			"/>
		<path class="st2" d="M439.8,194.17c1.5,0.19,2.66,0.75,2.66,2.21c0,1-0.71,1.92-2.28,1.92c-0.57,0-1.1-0.17-1.47-0.42v-0.64
			c0.46,0.31,0.96,0.5,1.46,0.5c1.06,0,1.61-0.56,1.61-1.36c0-1.19-1.12-1.55-2.61-1.72l0.21-3h2.92v0.59h-2.37L439.8,194.17z"/>
		<path class="st2" d="M444.22,193.52c0.3,0,0.55,0.24,0.55,0.54s-0.25,0.55-0.55,0.55c-0.3,0-0.54-0.25-0.54-0.55
			S443.92,193.52,444.22,193.52z M444.22,197.2c0.3,0,0.55,0.24,0.55,0.54s-0.25,0.55-0.55,0.55c-0.3,0-0.54-0.25-0.54-0.55
			S443.92,197.2,444.22,197.2z"/>
		<path class="st2" d="M431.05,205.57h1.24v0.56h-1.24v1.82h-0.65v-1.82h-3.23v-0.56l3.09-4.16h0.79V205.57z M427.87,205.57h2.53
			v-3.44L427.87,205.57z"/>
		<path class="st2" d="M433.28,200.47h0.66v2.83c0.36-0.13,0.9-0.25,1.41-0.25c1.16,0,1.89,0.47,1.89,1.67v3.23h-0.66v-3.1
			c0-0.98-0.69-1.19-1.34-1.19c-0.51,0-0.97,0.11-1.3,0.22v4.07h-0.66V200.47z"/>
	</g>
</g>
<g>
	<g>
		<path class="st2" d="M245.16,215.76c0.53-0.08,1.51-0.18,2.39-0.18c2.38,0,3.99,1.22,3.99,3.61c0,2.6-1.69,3.73-4.04,3.73
			c-0.85,0-1.79-0.05-2.34-0.17V215.76z M246.95,221.32c0.22,0.02,0.52,0.04,0.77,0.04c1.19,0,1.99-0.68,1.99-2.17
			c0-1.37-0.9-1.97-2.03-1.97c-0.23,0-0.52,0.01-0.73,0.04V221.32z"/>
		<path class="st2" d="M255.22,219.38c0-0.47-0.42-0.64-0.91-0.64c-0.64,0-1.14,0.19-1.55,0.44v-1.44c0.49-0.29,1.15-0.44,1.86-0.44
			c1.3,0,2.28,0.49,2.28,2v3.39c-0.53,0.12-1.44,0.24-2.21,0.24c-1.33,0-2.41-0.4-2.41-1.69c0-1.14,0.89-1.66,2.36-1.66h0.58V219.38
			z M255.22,220.63h-0.46c-0.53,0-0.79,0.17-0.79,0.54s0.26,0.55,0.7,0.55c0.14,0,0.38-0.01,0.55-0.05V220.63z"/>
		<path class="st2" d="M260.47,220.94l1.21-3.51h1.77l-2.95,7.56h-1.68l0.78-2.05l-2.21-5.5h1.83L260.47,220.94z"/>
		<path class="st2" d="M263.91,221c0.54,0.36,1.28,0.59,1.79,0.59c0.37,0,0.64-0.1,0.64-0.34c0-0.22-0.16-0.34-0.66-0.41
			c-1.31-0.18-1.86-0.7-1.86-1.71c0-1.26,0.96-1.82,2.18-1.82c0.68,0,1.14,0.14,1.62,0.41v1.45c-0.53-0.34-1.02-0.5-1.55-0.5
			c-0.46,0-0.6,0.17-0.6,0.35c0,0.2,0.16,0.31,0.55,0.37c1.55,0.25,1.97,0.84,1.97,1.81c0,1.2-0.9,1.75-2.24,1.75
			c-0.66,0-1.36-0.16-1.83-0.44V221z"/>
	</g>
</g>
<line class="st1" x1="85.23" y1="187.37" x2="85.23" y2="184.18"/>
<line class="st1" x1="98.46" y1="187.37" x2="98.46" y2="184.18"/>
<line class="st1" x1="112.11" y1="187.37" x2="112.11" y2="184.18"/>
<line class="st1" x1="138.26" y1="187.37" x2="138.26" y2="184.18"/>
<line class="st1" x1="191.29" y1="187.37" x2="191.29" y2="184.18"/>
<line class="st1" x1="230.36" y1="187.37" x2="230.36" y2="184.18"/>
<line class="st1" x1="283.6" y1="187.37" x2="283.6" y2="184.18"/>
<line class="st1" x1="322.98" y1="187.37" x2="322.98" y2="184.18"/>
<line class="st1" x1="375.7" y1="187.37" x2="375.7" y2="184.18"/>
<line class="st1" x1="415.08" y1="187.37" x2="415.08" y2="184.18"/>
<line class="st1" x1="428.45" y1="187.37" x2="428.45" y2="184.18"/>
<polygon class="st3" points="83.72,17.41 85.14,20.01 86.56,22.62 83.72,22.62 80.89,22.62 82.31,20.01 "/>
<polygon class="st3" points="96.79,75.9 98.2,78.5 99.62,81.11 96.79,81.11 93.95,81.11 95.37,78.5 "/>
<polygon class="st3" points="110.36,91.6 111.77,94.21 113.19,96.82 110.36,96.82 107.52,96.82 108.94,94.21 "/>
<polygon class="st3" points="136.14,100.99 137.56,103.6 138.98,106.2 136.14,106.2 133.31,106.2 134.73,103.6 "/>
<polygon class="st3" points="188.94,108.7 190.36,111.31 191.77,113.91 188.94,113.91 186.1,113.91 187.52,111.31 "/>
<polygon class="st3" points="228.47,116.58 229.88,119.18 231.3,121.79 228.47,121.79 225.63,121.79 227.05,119.18 "/>
<polygon class="st3" points="281.54,121.6 282.96,124.21 284.38,126.82 281.54,126.82 278.71,126.82 280.13,124.21 "/>
<polygon class="st3" points="321.26,123.93 322.68,126.54 324.1,129.14 321.26,129.14 318.43,129.14 319.84,126.54 "/>
<polygon class="st3" points="373.87,128.2 375.29,130.81 376.7,133.42 373.87,133.42 371.03,133.42 372.45,130.81 "/>
<polygon class="st3" points="413.66,133.04 415.08,135.64 416.5,138.25 413.66,138.25 410.83,138.25 412.25,135.64 "/>
<polygon class="st3" points="426.55,150.63 427.97,153.24 429.39,155.85 426.55,155.85 423.72,155.85 425.14,153.24 "/>
<path class="st4" d="M87.17,17.75c1.25,0,2.27,1.01,2.27,2.27c0,1.25-1.02,2.27-2.27,2.27c-1.25,0-2.27-1.02-2.27-2.27
	C84.9,18.76,85.91,17.75,87.17,17.75"/>
<path class="st4" d="M100.28,60.9c1.25,0,2.27,1.01,2.27,2.27c0,1.25-1.02,2.27-2.27,2.27c-1.25,0-2.27-1.02-2.27-2.27
	C98.01,61.92,99.03,60.9,100.28,60.9"/>
<path class="st4" d="M113.35,75.06c1.25,0,2.27,1.01,2.27,2.27c0,1.25-1.02,2.27-2.27,2.27c-1.25,0-2.27-1.02-2.27-2.27
	C111.08,76.08,112.09,75.06,113.35,75.06"/>
<path class="st4" d="M139.79,86.88c1.25,0,2.27,1.01,2.27,2.27c0,1.25-1.02,2.27-2.27,2.27c-1.25,0-2.27-1.02-2.27-2.27
	C137.52,87.89,138.54,86.88,139.79,86.88"/>
<path class="st4" d="M192.49,97.33c1.25,0,2.27,1.01,2.27,2.27c0,1.25-1.02,2.27-2.27,2.27c-1.25,0-2.27-1.02-2.27-2.27
	C190.23,98.35,191.24,97.33,192.49,97.33"/>
<path class="st4" d="M232.06,105.55c1.25,0,2.27,1.01,2.27,2.27c0,1.25-1.02,2.27-2.27,2.27c-1.25,0-2.27-1.02-2.27-2.27
	C229.79,106.56,230.81,105.55,232.06,105.55"/>
<path class="st4" d="M284.73,111.16c1.25,0,2.27,1.01,2.27,2.27c0,1.25-1.02,2.27-2.27,2.27c-1.25,0-2.27-1.02-2.27-2.27
	C282.47,112.17,283.48,111.16,284.73,111.16"/>
<path class="st4" d="M324.49,115.94c1.25,0,2.27,1.01,2.27,2.27c0,1.25-1.02,2.27-2.27,2.27c-1.25,0-2.27-1.02-2.27-2.27
	C322.23,116.95,323.24,115.94,324.49,115.94"/>
<path class="st4" d="M377.69,115.52c1.25,0,2.27,1.01,2.27,2.27c0,1.25-1.02,2.27-2.27,2.27c-1.25,0-2.27-1.02-2.27-2.27
	C375.42,116.53,376.44,115.52,377.69,115.52"/>
<path class="st4" d="M416.65,119.07c1.25,0,2.27,1.01,2.27,2.27c0,1.25-1.02,2.27-2.27,2.27c-1.25,0-2.27-1.02-2.27-2.27
	C414.39,120.08,415.4,119.07,416.65,119.07"/>
<path class="st4" d="M430.02,135.15c1.25,0,2.27,1.01,2.27,2.27c0,1.25-1.02,2.27-2.27,2.27c-1.25,0-2.27-1.02-2.27-2.27
	C427.75,136.17,428.76,135.15,430.02,135.15"/>
<g>
	<line class="st5" x1="100.25" y1="59.45" x2="100.25" y2="66.99"/>
	<line class="st5" x1="98.63" y1="66.99" x2="101.93" y2="66.99"/>
	<line class="st5" x1="98.63" y1="59.45" x2="101.93" y2="59.45"/>
</g>
<g>
	<line class="st5" x1="113.32" y1="72.89" x2="113.32" y2="81.66"/>
	<line class="st5" x1="111.7" y1="81.66" x2="114.99" y2="81.66"/>
	<line class="st5" x1="111.7" y1="72.89" x2="114.99" y2="72.89"/>
</g>
<g>
	<line class="st5" x1="139.76" y1="85" x2="139.76" y2="93.18"/>
	<line class="st5" x1="138.15" y1="93.18" x2="141.44" y2="93.18"/>
	<line class="st5" x1="138.15" y1="85" x2="141.44" y2="85"/>
</g>
<g>
	<line class="st5" x1="192.47" y1="95.39" x2="192.47" y2="103.81"/>
	<line class="st5" x1="190.85" y1="103.81" x2="194.14" y2="103.81"/>
	<line class="st5" x1="190.85" y1="95.39" x2="194.14" y2="95.39"/>
</g>
<g>
	<line class="st5" x1="232.03" y1="103.81" x2="232.03" y2="111.82"/>
	<line class="st5" x1="230.41" y1="111.82" x2="233.71" y2="111.82"/>
	<line class="st5" x1="230.41" y1="103.81" x2="233.71" y2="103.81"/>
</g>
<g>
	<line class="st5" x1="284.71" y1="109.12" x2="284.71" y2="117.36"/>
	<line class="st5" x1="283.09" y1="117.36" x2="286.38" y2="117.36"/>
	<line class="st5" x1="283.09" y1="109.12" x2="286.38" y2="109.12"/>
</g>
<g>
	<line class="st5" x1="324.47" y1="114.22" x2="324.47" y2="121.86"/>
	<line class="st5" x1="322.85" y1="121.85" x2="326.14" y2="121.85"/>
	<line class="st5" x1="322.85" y1="114.22" x2="326.14" y2="114.22"/>
</g>
<g>
	<line class="st5" x1="377.66" y1="113.96" x2="377.66" y2="121.6"/>
	<line class="st5" x1="376.04" y1="121.6" x2="379.34" y2="121.6"/>
	<line class="st5" x1="376.04" y1="113.96" x2="379.34" y2="113.96"/>
</g>
<g>
	<line class="st5" x1="416.62" y1="117.52" x2="416.62" y2="125.16"/>
	<line class="st5" x1="415.01" y1="125.15" x2="418.3" y2="125.15"/>
	<line class="st5" x1="415.01" y1="117.52" x2="418.3" y2="117.52"/>
</g>
<g>
	<line class="st5" x1="430.02" y1="133.42" x2="430.02" y2="141.93"/>
	<line class="st5" x1="428.4" y1="141.93" x2="431.69" y2="141.93"/>
	<line class="st5" x1="428.4" y1="133.42" x2="431.69" y2="133.42"/>
</g>
<g>
	<line class="st6" x1="426.52" y1="149.93" x2="426.52" y2="157.01"/>
	<line class="st6" x1="424.91" y1="157.01" x2="428.2" y2="157.01"/>
	<line class="st6" x1="424.91" y1="149.93" x2="428.2" y2="149.93"/>
</g>
<g>
	<line class="st6" x1="413.63" y1="131.54" x2="413.63" y2="139.86"/>
	<line class="st6" x1="412.02" y1="139.86" x2="415.31" y2="139.86"/>
	<line class="st6" x1="412.02" y1="131.54" x2="415.31" y2="131.54"/>
</g>
<g>
	<line class="st6" x1="373.84" y1="126.65" x2="373.84" y2="134.91"/>
	<line class="st6" x1="372.22" y1="134.91" x2="375.52" y2="134.91"/>
	<line class="st6" x1="372.22" y1="126.65" x2="375.52" y2="126.65"/>
</g>
<g>
	<line class="st6" x1="321.23" y1="123.11" x2="321.23" y2="130.78"/>
	<line class="st6" x1="319.61" y1="130.78" x2="322.91" y2="130.78"/>
	<line class="st6" x1="319.61" y1="123.11" x2="322.91" y2="123.11"/>
</g>
<g>
	<line class="st6" x1="281.52" y1="119.52" x2="281.52" y2="128.91"/>
	<line class="st6" x1="279.9" y1="128.91" x2="283.19" y2="128.91"/>
	<line class="st6" x1="279.9" y1="119.52" x2="283.19" y2="119.52"/>
</g>
<g>
	<line class="st6" x1="228.44" y1="114.74" x2="228.44" y2="123.63"/>
	<line class="st6" x1="226.82" y1="123.63" x2="230.11" y2="123.63"/>
	<line class="st6" x1="226.82" y1="114.74" x2="230.11" y2="114.74"/>
</g>
<g>
	<line class="st6" x1="188.91" y1="106.71" x2="188.91" y2="115.56"/>
	<line class="st6" x1="187.29" y1="115.56" x2="190.59" y2="115.56"/>
	<line class="st6" x1="187.29" y1="106.71" x2="190.59" y2="106.71"/>
</g>
<g>
	<line class="st6" x1="136.11" y1="99.6" x2="136.11" y2="108.42"/>
	<line class="st6" x1="134.5" y1="108.42" x2="137.79" y2="108.42"/>
	<line class="st6" x1="134.5" y1="99.6" x2="137.79" y2="99.6"/>
</g>
<g>
	<line class="st6" x1="110.33" y1="89.91" x2="110.33" y2="98.52"/>
	<line class="st6" x1="108.71" y1="98.51" x2="112" y2="98.51"/>
	<line class="st6" x1="108.71" y1="89.91" x2="112" y2="89.91"/>
</g>
<g>
	<line class="st6" x1="96.76" y1="74.72" x2="96.76" y2="83.02"/>
	<line class="st6" x1="95.14" y1="83.02" x2="98.43" y2="83.02"/>
	<line class="st6" x1="95.14" y1="74.72" x2="98.43" y2="74.72"/>
</g>
<polyline class="st5" points="86.71,20.18 100.45,63.22 112.81,77.33 139.79,89.15 192.5,99.6 232.23,107.47 285.33,113.43 
	324.5,118.2 377.66,118.04 416.62,121.86 430.05,137.42 "/>
<polyline class="st6" points="83.72,20.18 96.79,79.11 110.36,95.14 136.11,104.47 188.91,111.65 228.44,119.56 281.52,124.76 
	321.23,126.95 373.87,131.54 413.63,136.18 426.55,153.47 "/>
<path class="st0" d="M318.88,8.65h139.74c2.74,0,4.96,2.01,4.96,4.49v61.33c0,2.48-2.22,4.49-4.96,4.49H318.88
	c-2.74,0-4.96-2.01-4.96-4.49V13.13C313.92,10.66,316.14,8.65,318.88,8.65z"/>
<g>
	<path class="st7" d="M326.19,24.55h0.62v5.4h2.56v0.54h-3.18V24.55z"/>
	<path class="st7" d="M329.99,29.44c0.48,0.38,0.91,0.61,1.51,0.61c0.71,0,1.32-0.31,1.32-1.09c0-0.71-0.53-0.98-1.24-1.24
		c-1.06-0.39-1.63-0.74-1.63-1.75s0.84-1.53,1.73-1.53c0.58,0,1.06,0.18,1.42,0.47v0.64c-0.48-0.38-0.88-0.58-1.42-0.58
		c-0.67,0-1.13,0.4-1.13,1.01c0,0.57,0.34,0.85,1.2,1.15c1.1,0.38,1.68,0.79,1.68,1.83c0,1.09-0.86,1.62-1.93,1.62
		c-0.64,0-1.15-0.18-1.51-0.46V29.44z"/>
	<path class="st7" d="M337.32,30.48l-1.63-5.35l-0.91,5.35h-0.6l1.06-5.94h0.83l1.62,5.31l1.62-5.31h0.83l1.06,5.94h-0.62
		l-0.91-5.35l-1.63,5.35H337.32z"/>
	<path class="st7" d="M342.37,24.52c0.44-0.05,0.85-0.08,1.22-0.08c2.72,0,3.64,1.41,3.64,2.93c0,1.67-0.97,3.21-3.56,3.21
		c-0.5,0-0.88-0.04-1.3-0.09V24.52z M342.99,30c0.24,0.03,0.47,0.04,0.69,0.04c1.7,0,2.9-0.85,2.9-2.66c0-1.4-0.89-2.38-3.01-2.38
		c-0.19,0-0.37,0.01-0.58,0.03V30z"/>
	<path class="st7" d="M350.18,24.77c0-0.25,0.21-0.45,0.45-0.45c0.25,0,0.45,0.2,0.45,0.45c0,0.24-0.2,0.45-0.45,0.45
		C350.39,25.21,350.18,25,350.18,24.77z M350.93,30.48h-0.6v-4.36h0.6V30.48z"/>
	<path class="st7" d="M352.43,26.35c0.58-0.21,1.24-0.33,1.83-0.33c1.1,0,1.77,0.43,1.77,1.52v2.94h-0.6v-2.82
		c0-0.89-0.63-1.08-1.22-1.08c-0.46,0-0.87,0.08-1.18,0.16v3.74h-0.6V26.35z"/>
	<path class="st7" d="M362.08,30.48l-1.63-5.35l-0.91,5.35h-0.6l1.06-5.94h0.83l1.62,5.31l1.62-5.31h0.83l1.06,5.94h-0.62
		l-0.91-5.35l-1.63,5.35H362.08z"/>
	<path class="st7" d="M367.65,28.84l-0.62,1.64h-0.64l2.3-5.94h0.79l2.33,5.94h-0.66l-0.62-1.64H367.65z M369.07,25.04l-1.24,3.28
		h2.49L369.07,25.04z"/>
	<path class="st7" d="M372.76,24.52c0.44-0.05,0.85-0.08,1.22-0.08c2.72,0,3.64,1.41,3.64,2.93c0,1.67-0.97,3.21-3.56,3.21
		c-0.5,0-0.88-0.04-1.3-0.09V24.52z M373.38,30c0.24,0.03,0.47,0.04,0.69,0.04c1.7,0,2.9-0.85,2.9-2.66c0-1.4-0.89-2.38-3.01-2.38
		c-0.19,0-0.37,0.01-0.58,0.03V30z"/>
	<path class="st7" d="M379.54,30.48h-0.62v-5.95c0.27-0.04,0.78-0.09,1.13-0.09c1.6,0,2.31,0.74,2.31,1.84
		c0,0.88-0.5,1.53-1.29,1.76l1.97,2.44h-0.77l-1.84-2.3h-0.89V30.48z M379.54,27.67h0.62c0.98,0,1.56-0.46,1.56-1.37
		c0-0.76-0.47-1.32-1.68-1.32c-0.12,0-0.36,0.01-0.5,0.02V27.67z"/>
	<path class="st7" d="M383.46,29.44c0.48,0.38,0.91,0.61,1.51,0.61c0.71,0,1.32-0.31,1.32-1.09c0-0.71-0.53-0.98-1.24-1.24
		c-1.06-0.39-1.63-0.74-1.63-1.75s0.84-1.53,1.73-1.53c0.58,0,1.06,0.18,1.42,0.47v0.64c-0.48-0.38-0.88-0.58-1.42-0.58
		c-0.67,0-1.13,0.4-1.13,1.01c0,0.57,0.34,0.85,1.2,1.15c1.1,0.38,1.68,0.79,1.68,1.83c0,1.09-0.86,1.62-1.93,1.62
		c-0.64,0-1.15-0.18-1.51-0.46V29.44z"/>
	<path class="st7" d="M389.38,26.12h0.67v-1.06h0.6v1.06h1.23v0.51h-1.23v2.66c0,0.56,0.22,0.78,0.63,0.78
		c0.28,0,0.51-0.09,0.81-0.24v0.53c-0.26,0.13-0.56,0.22-0.94,0.22c-0.63,0-1.1-0.33-1.1-1.23v-2.72h-0.67V26.12z"/>
	<path class="st7" d="M394.99,26.02c1.3,0,2.19,0.93,2.19,2.28c0,1.35-0.89,2.28-2.19,2.28c-1.3,0-2.19-0.93-2.19-2.28
		C392.81,26.95,393.7,26.02,394.99,26.02z M394.99,26.54c-0.92,0-1.58,0.7-1.58,1.76s0.66,1.76,1.58,1.76c0.92,0,1.58-0.7,1.58-1.76
		S395.91,26.54,394.99,26.54z"/>
	<path class="st7" d="M397.76,26.12h0.67v-1.06h0.6v1.06h1.23v0.51h-1.23v2.66c0,0.56,0.22,0.78,0.63,0.78
		c0.28,0,0.51-0.09,0.81-0.24v0.53c-0.26,0.13-0.56,0.22-0.94,0.22c-0.63,0-1.1-0.33-1.1-1.23v-2.72h-0.67V26.12z"/>
	<path class="st7" d="M403.77,27.43c0-0.56-0.36-0.85-0.92-0.85c-0.5,0-0.88,0.14-1.28,0.35v-0.57c0.37-0.2,0.84-0.34,1.35-0.34
		c0.88,0,1.45,0.39,1.45,1.37v3.01c-0.4,0.11-0.87,0.16-1.24,0.16c-1.18,0-1.97-0.37-1.97-1.29c0-0.86,0.79-1.31,2.12-1.31h0.49
		V27.43z M403.77,28.45h-0.45c-0.9,0-1.56,0.24-1.56,0.82c0,0.58,0.6,0.79,1.4,0.79c0.18,0,0.4-0.02,0.61-0.06V28.45z"/>
	<path class="st7" d="M406.41,30.48h-0.6v-6.8h0.6V30.48z"/>
	<path class="st7" d="M409.54,29.55c0.37,0.33,0.75,0.52,1.23,0.52c0.55,0,0.9-0.21,0.9-0.7c0-0.52-0.38-0.66-1.07-0.89
		c-0.77-0.26-1.1-0.58-1.1-1.28c0-0.77,0.58-1.18,1.37-1.18c0.43,0,0.85,0.09,1.19,0.33V27c-0.34-0.28-0.69-0.47-1.19-0.47
		c-0.48,0-0.79,0.26-0.79,0.67c0,0.4,0.24,0.61,0.91,0.82c0.76,0.23,1.27,0.52,1.27,1.31c0,0.86-0.67,1.25-1.49,1.25
		c-0.49,0-0.96-0.14-1.23-0.35V29.55z"/>
	<path class="st7" d="M416.64,26.98c-0.37-0.26-0.81-0.41-1.22-0.41c-0.9,0-1.68,0.6-1.68,1.74c0,1.1,0.77,1.72,1.72,1.72
		c0.46,0,0.85-0.15,1.25-0.41v0.63c-0.43,0.22-0.85,0.33-1.31,0.33c-1.22,0-2.27-0.85-2.27-2.28c0-1.46,1.08-2.28,2.26-2.28
		c0.48,0,0.86,0.11,1.25,0.33V26.98z"/>
	<path class="st7" d="M419.72,26.02c1.3,0,2.19,0.93,2.19,2.28c0,1.35-0.89,2.28-2.19,2.28c-1.3,0-2.19-0.93-2.19-2.28
		C417.53,26.95,418.42,26.02,419.72,26.02z M419.72,26.54c-0.92,0-1.58,0.7-1.58,1.76s0.66,1.76,1.58,1.76
		c0.92,0,1.58-0.7,1.58-1.76S420.64,26.54,419.72,26.54z"/>
	<path class="st7" d="M423.68,30.48h-0.6v-3.96c0.46-0.29,1.02-0.47,1.62-0.47c0.24,0,0.48,0.03,0.73,0.09v0.59
		c-0.26-0.09-0.57-0.11-0.77-0.11c-0.43,0-0.75,0.09-0.98,0.22V30.48z"/>
	<path class="st7" d="M426.65,28.33v0.02c0,1.07,0.77,1.7,1.62,1.7c0.62,0,1.05-0.16,1.49-0.49v0.6c-0.39,0.29-0.95,0.42-1.49,0.42
		c-1.26,0-2.22-0.86-2.22-2.28c0-1.31,0.9-2.28,2.07-2.28c1.1,0,1.83,0.66,1.83,1.9v0.41H426.65z M429.35,27.83
		c-0.04-0.91-0.53-1.28-1.26-1.28c-0.68,0-1.23,0.46-1.4,1.28H429.35z"/>
	<path class="st7" d="M433.72,30.48h-0.6v-3.85h-0.67v-0.51h0.67v-1.09c0-0.91,0.47-1.45,1.34-1.45c0.33,0,0.57,0.07,0.78,0.22v0.57
		c-0.21-0.15-0.45-0.26-0.77-0.26c-0.46,0-0.75,0.22-0.75,0.93v1.08h1.2v0.51h-1.2V30.48z"/>
	<path class="st7" d="M436.29,30.48h-0.6v-3.96c0.46-0.29,1.02-0.47,1.62-0.47c0.24,0,0.48,0.03,0.73,0.09v0.59
		c-0.26-0.09-0.57-0.11-0.77-0.11c-0.43,0-0.75,0.09-0.98,0.22V30.48z"/>
	<path class="st7" d="M440.85,26.02c1.3,0,2.19,0.93,2.19,2.28c0,1.35-0.89,2.28-2.19,2.28c-1.3,0-2.19-0.93-2.19-2.28
		C438.66,26.95,439.55,26.02,440.85,26.02z M440.85,26.54c-0.92,0-1.58,0.7-1.58,1.76s0.66,1.76,1.58,1.76
		c0.92,0,1.58-0.7,1.58-1.76S441.77,26.54,440.85,26.54z"/>
	<path class="st7" d="M449.76,27.56c0-0.81-0.55-1-1.02-1c-0.52,0-1.02,0.13-1.28,0.25c0.08,0.19,0.13,0.43,0.13,0.72v2.95h-0.6
		v-2.92c0-0.81-0.53-1-1.03-1c-0.49,0-0.88,0.1-1.15,0.2v3.72h-0.6V26.4c0.57-0.23,1.17-0.38,1.75-0.38c0.51,0,0.9,0.11,1.17,0.34
		c0.52-0.2,1.08-0.34,1.61-0.34c1.05,0,1.62,0.43,1.62,1.52v2.94h-0.6V27.56z"/>
	<path class="st7" d="M332.35,33.29h0.6v2.56c0.19-0.11,0.62-0.22,1.04-0.22c1.31,0,2.29,0.76,2.29,2.26c0,1.41-1,2.3-2.51,2.3
		c-0.46,0-0.97-0.08-1.42-0.22V33.29z M332.95,39.55c0.25,0.07,0.54,0.1,0.82,0.1c1.16,0,1.9-0.66,1.9-1.77
		c0-1.12-0.77-1.72-1.68-1.72c-0.45,0-0.79,0.08-1.04,0.2V39.55z"/>
	<path class="st7" d="M339.71,37.03c0-0.56-0.36-0.85-0.92-0.85c-0.5,0-0.88,0.14-1.28,0.35v-0.57c0.37-0.2,0.84-0.34,1.35-0.34
		c0.88,0,1.45,0.39,1.45,1.37V40c-0.4,0.11-0.87,0.16-1.24,0.16c-1.18,0-1.97-0.37-1.97-1.29c0-0.86,0.79-1.31,2.12-1.31h0.49V37.03
		z M339.71,38.05h-0.45c-0.9,0-1.56,0.24-1.56,0.82c0,0.58,0.6,0.79,1.4,0.79c0.18,0,0.4-0.02,0.61-0.06V38.05z"/>
	<path class="st7" d="M341.48,39.15c0.37,0.33,0.75,0.52,1.23,0.52c0.55,0,0.9-0.21,0.9-0.7c0-0.52-0.38-0.66-1.07-0.89
		c-0.77-0.26-1.1-0.58-1.1-1.28c0-0.77,0.58-1.18,1.37-1.18c0.43,0,0.85,0.09,1.19,0.33v0.65c-0.34-0.28-0.69-0.47-1.19-0.47
		c-0.48,0-0.79,0.26-0.79,0.67c0,0.4,0.24,0.61,0.91,0.82c0.76,0.23,1.27,0.52,1.27,1.31c0,0.86-0.67,1.25-1.49,1.25
		c-0.49,0-0.96-0.14-1.23-0.35V39.15z"/>
	<path class="st7" d="M345.67,37.93v0.02c0,1.07,0.77,1.7,1.62,1.7c0.62,0,1.05-0.16,1.49-0.49v0.6c-0.39,0.29-0.95,0.42-1.49,0.42
		c-1.26,0-2.22-0.86-2.22-2.28c0-1.31,0.9-2.28,2.07-2.28c1.1,0,1.83,0.66,1.83,1.9v0.41H345.67z M348.37,37.43
		c-0.04-0.91-0.53-1.28-1.26-1.28c-0.68,0-1.23,0.46-1.4,1.28H348.37z"/>
	<path class="st7" d="M350.72,40.08h-0.6v-6.8h0.6V40.08z"/>
	<path class="st7" d="M352.07,34.36c0-0.25,0.21-0.45,0.45-0.45c0.25,0,0.45,0.2,0.45,0.45c0,0.24-0.2,0.45-0.45,0.45
		C352.28,34.82,352.07,34.61,352.07,34.36z M352.82,40.08h-0.6v-4.36h0.6V40.08z"/>
	<path class="st7" d="M354.32,35.95c0.58-0.21,1.24-0.33,1.83-0.33c1.1,0,1.77,0.43,1.77,1.52v2.94h-0.6v-2.82
		c0-0.89-0.63-1.08-1.22-1.08c-0.46,0-0.87,0.08-1.18,0.16v3.74h-0.6V35.95z"/>
	<path class="st7" d="M359.64,37.93v0.02c0,1.07,0.77,1.7,1.62,1.7c0.62,0,1.05-0.16,1.49-0.49v0.6c-0.39,0.29-0.95,0.42-1.49,0.42
		c-1.26,0-2.22-0.86-2.22-2.28c0-1.31,0.9-2.28,2.07-2.28c1.1,0,1.83,0.66,1.83,1.9v0.41H359.64z M362.33,37.43
		c-0.04-0.91-0.53-1.28-1.26-1.28c-0.68,0-1.23,0.46-1.4,1.28H362.33z"/>
	<path class="st7" d="M365.39,35.72h0.67v-1.06h0.6v1.06h1.23v0.51h-1.23v2.66c0,0.56,0.22,0.78,0.63,0.78
		c0.28,0,0.51-0.09,0.81-0.24v0.53c-0.26,0.13-0.56,0.22-0.94,0.22c-0.63,0-1.1-0.33-1.1-1.23v-2.72h-0.67V35.72z"/>
	<path class="st7" d="M371,35.62c1.3,0,2.19,0.93,2.19,2.28c0,1.35-0.89,2.28-2.19,2.28c-1.3,0-2.19-0.93-2.19-2.28
		C368.82,36.55,369.71,35.62,371,35.62z M371,36.14c-0.92,0-1.58,0.7-1.58,1.76s0.66,1.76,1.58,1.76c0.92,0,1.58-0.7,1.58-1.76
		S371.92,36.14,371,36.14z"/>
	<path class="st7" d="M379.33,39.54v0.54h-3.77v-0.46c1.53-1.29,3.01-2.58,3.01-3.89c0-0.77-0.46-1.13-1.1-1.13
		c-0.77,0-1.29,0.4-1.69,0.8v-0.67c0.36-0.37,0.96-0.69,1.69-0.69c0.97,0,1.71,0.52,1.71,1.69c0,1.32-1.47,2.8-2.84,3.81H379.33z"/>
	<path class="st7" d="M383.5,37.92h1.13v0.51h-1.13v1.65h-0.59v-1.65h-2.94v-0.51l2.81-3.78h0.72V37.92z M380.61,37.92h2.3v-3.13
		L380.61,37.92z"/>
	<path class="st7" d="M387.43,33.29h0.6v2.57c0.33-0.12,0.82-0.23,1.28-0.23c1.05,0,1.72,0.43,1.72,1.52v2.94h-0.6v-2.82
		c0-0.89-0.63-1.08-1.22-1.08c-0.46,0-0.88,0.1-1.18,0.2v3.7h-0.6V33.29z"/>
	<path class="st7" d="M394.34,35.62c1.3,0,2.19,0.93,2.19,2.28c0,1.35-0.89,2.28-2.19,2.28c-1.3,0-2.19-0.93-2.19-2.28
		C392.15,36.55,393.04,35.62,394.34,35.62z M394.34,36.14c-0.92,0-1.58,0.7-1.58,1.76s0.66,1.76,1.58,1.76
		c0.92,0,1.58-0.7,1.58-1.76S395.26,36.14,394.34,36.14z"/>
	<path class="st7" d="M401.1,40.03c-0.53,0.1-1.07,0.15-1.52,0.15c-1.26,0-1.98-0.43-1.98-1.52v-2.94h0.6v2.91
		c0,0.82,0.65,1.03,1.34,1.03c0.3,0,0.64-0.02,0.96-0.06v-3.88h0.6V40.03z"/>
	<path class="st7" d="M403.2,40.08h-0.6v-3.96c0.46-0.29,1.02-0.47,1.62-0.47c0.24,0,0.48,0.03,0.73,0.09v0.59
		c-0.26-0.09-0.57-0.11-0.77-0.11c-0.43,0-0.75,0.09-0.98,0.22V40.08z"/>
	<path class="st7" d="M405.64,39.15c0.37,0.33,0.75,0.52,1.23,0.52c0.55,0,0.9-0.21,0.9-0.7c0-0.52-0.38-0.66-1.07-0.89
		c-0.77-0.26-1.1-0.58-1.1-1.28c0-0.77,0.58-1.18,1.37-1.18c0.43,0,0.85,0.09,1.19,0.33v0.65c-0.34-0.28-0.69-0.47-1.19-0.47
		c-0.48,0-0.79,0.26-0.79,0.67c0,0.4,0.24,0.61,0.91,0.82c0.76,0.23,1.27,0.52,1.27,1.31c0,0.86-0.67,1.25-1.49,1.25
		c-0.49,0-0.96-0.14-1.23-0.35V39.15z"/>
	<path class="st7" d="M411.46,35.9c0.4-0.15,0.96-0.28,1.52-0.28c1.5,0,2.41,0.78,2.41,2.28c0,1.42-0.94,2.28-2.37,2.28
		c-0.35,0-0.73-0.07-0.96-0.18v1.88h-0.6V35.9z M412.06,39.48c0.28,0.12,0.59,0.18,0.96,0.18c1.06,0,1.76-0.65,1.76-1.76
		c0-1.07-0.65-1.73-1.8-1.73c-0.34,0-0.69,0.04-0.92,0.12V39.48z"/>
	<path class="st7" d="M418.42,35.62c1.3,0,2.19,0.93,2.19,2.28c0,1.35-0.89,2.28-2.19,2.28c-1.3,0-2.19-0.93-2.19-2.28
		C416.23,36.55,417.12,35.62,418.42,35.62z M418.42,36.14c-0.92,0-1.58,0.7-1.58,1.76s0.66,1.76,1.58,1.76
		c0.92,0,1.58-0.7,1.58-1.76S419.34,36.14,418.42,36.14z"/>
	<path class="st7" d="M421.52,39.15c0.37,0.33,0.75,0.52,1.23,0.52c0.55,0,0.9-0.21,0.9-0.7c0-0.52-0.38-0.66-1.07-0.89
		c-0.77-0.26-1.1-0.58-1.1-1.28c0-0.77,0.58-1.18,1.37-1.18c0.43,0,0.85,0.09,1.19,0.33v0.65c-0.34-0.28-0.69-0.47-1.19-0.47
		c-0.48,0-0.79,0.26-0.79,0.67c0,0.4,0.24,0.61,0.91,0.82c0.76,0.23,1.27,0.52,1.27,1.31c0,0.86-0.67,1.25-1.49,1.25
		c-0.49,0-0.96-0.14-1.23-0.35V39.15z"/>
	<path class="st7" d="M424.84,35.72h0.67v-1.06h0.6v1.06h1.23v0.51h-1.23v2.66c0,0.56,0.22,0.78,0.63,0.78
		c0.28,0,0.51-0.09,0.81-0.24v0.53c-0.26,0.13-0.56,0.22-0.94,0.22c-0.63,0-1.1-0.33-1.1-1.23v-2.72h-0.67V35.72z"/>
	<path class="st7" d="M431.22,40.08h-0.6v-3.85h-0.67v-0.51h0.67v-0.9c0-1.01,0.59-1.64,1.53-1.64c0.5,0,0.87,0.17,1.08,0.32v0.6
		c-0.28-0.21-0.61-0.38-1.08-0.38c-0.6,0-0.93,0.39-0.93,1.1v0.9h2.71v4.36h-0.6v-3.85h-2.11V40.08z"/>
	<path class="st7" d="M436.03,40.08h-0.6v-3.96c0.46-0.29,1.02-0.47,1.62-0.47c0.24,0,0.48,0.03,0.73,0.09v0.59
		c-0.26-0.09-0.57-0.11-0.77-0.11c-0.43,0-0.75,0.09-0.98,0.22V40.08z"/>
	<path class="st7" d="M438.47,39.15c0.37,0.33,0.75,0.52,1.23,0.52c0.55,0,0.9-0.21,0.9-0.7c0-0.52-0.38-0.66-1.07-0.89
		c-0.77-0.26-1.1-0.58-1.1-1.28c0-0.77,0.58-1.18,1.37-1.18c0.43,0,0.85,0.09,1.19,0.33v0.65c-0.34-0.28-0.69-0.47-1.19-0.47
		c-0.48,0-0.79,0.26-0.79,0.67c0,0.4,0.24,0.61,0.91,0.82c0.76,0.23,1.27,0.52,1.27,1.31c0,0.86-0.67,1.25-1.49,1.25
		c-0.49,0-0.96-0.14-1.23-0.35V39.15z"/>
	<path class="st7" d="M441.79,35.72h0.67v-1.06h0.6v1.06h1.23v0.51h-1.23v2.66c0,0.56,0.22,0.78,0.63,0.78
		c0.28,0,0.51-0.09,0.81-0.24v0.53c-0.26,0.13-0.56,0.22-0.94,0.22c-0.63,0-1.1-0.33-1.1-1.23v-2.72h-0.67V35.72z"/>
	<path class="st7" d="M369.64,49.62c-0.47,0.11-0.96,0.16-1.42,0.16c-1.51,0-2.53-0.82-2.53-2.28c0-1.47,1.1-2.28,2.4-2.28
		c0.33,0,0.73,0.07,0.95,0.2v-2.54h0.6V49.62z M369.05,45.96c-0.22-0.12-0.55-0.2-0.95-0.2c-1.01,0-1.79,0.62-1.79,1.74
		c0,1.11,0.77,1.75,1.92,1.75c0.28,0,0.56-0.01,0.82-0.05V45.96z"/>
	<path class="st7" d="M373.01,45.22c1.3,0,2.19,0.93,2.19,2.28c0,1.35-0.89,2.28-2.19,2.28c-1.3,0-2.19-0.93-2.19-2.28
		C370.82,46.15,371.71,45.22,373.01,45.22z M373.01,45.74c-0.92,0-1.58,0.7-1.58,1.76s0.66,1.76,1.58,1.76
		c0.92,0,1.58-0.7,1.58-1.76S373.93,45.74,373.01,45.74z"/>
	<path class="st7" d="M376.11,48.75c0.37,0.33,0.75,0.52,1.23,0.52c0.55,0,0.9-0.21,0.9-0.7c0-0.52-0.38-0.66-1.07-0.89
		c-0.77-0.26-1.1-0.58-1.1-1.28c0-0.77,0.58-1.18,1.37-1.18c0.43,0,0.85,0.09,1.19,0.33v0.65c-0.34-0.28-0.69-0.47-1.19-0.47
		c-0.48,0-0.79,0.26-0.79,0.67c0,0.4,0.24,0.61,0.91,0.82c0.76,0.23,1.27,0.52,1.27,1.31c0,0.86-0.67,1.25-1.49,1.25
		c-0.49,0-0.96-0.14-1.23-0.35V48.75z"/>
	<path class="st7" d="M380.3,47.53v0.02c0,1.07,0.77,1.7,1.62,1.7c0.62,0,1.05-0.16,1.49-0.49v0.6c-0.39,0.29-0.95,0.42-1.49,0.42
		c-1.26,0-2.22-0.86-2.22-2.28c0-1.31,0.9-2.28,2.07-2.28c1.1,0,1.83,0.66,1.83,1.9v0.41H380.3z M383,47.03
		c-0.04-0.91-0.53-1.28-1.26-1.28c-0.68,0-1.23,0.46-1.4,1.28H383z"/>
	<path class="st7" d="M388.28,51.08c-0.99-0.92-1.78-2.33-1.78-4.1c0-1.77,0.79-3.18,1.78-4.1h0.67c-1.04,1.02-1.88,2.24-1.88,4.1
		c0,1.86,0.84,3.08,1.88,4.1H388.28z"/>
	<path class="st7" d="M389.9,43.73c0.44-0.05,0.85-0.08,1.22-0.08c2.72,0,3.64,1.41,3.64,2.93c0,1.67-0.97,3.21-3.56,3.21
		c-0.5,0-0.88-0.04-1.3-0.09V43.73z M390.52,49.2c0.24,0.03,0.47,0.04,0.69,0.04c1.7,0,2.9-0.85,2.9-2.66c0-1.4-0.89-2.38-3.01-2.38
		c-0.19,0-0.37,0.01-0.58,0.03V49.2z"/>
	<path class="st7" d="M398.22,46.63c0-0.56-0.36-0.85-0.92-0.85c-0.5,0-0.88,0.14-1.28,0.35v-0.57c0.37-0.2,0.84-0.34,1.35-0.34
		c0.88,0,1.45,0.39,1.45,1.37v3.01c-0.4,0.11-0.87,0.16-1.24,0.16c-1.18,0-1.97-0.37-1.97-1.29c0-0.86,0.79-1.31,2.12-1.31h0.49
		V46.63z M398.22,47.65h-0.45c-0.9,0-1.56,0.24-1.56,0.82c0,0.58,0.6,0.79,1.4,0.79c0.18,0,0.4-0.02,0.61-0.06V47.65z"/>
	<path class="st7" d="M401.67,49.29l1.44-3.97h0.62l-2.36,6.16h-0.59l0.59-1.51l-1.82-4.65h0.66L401.67,49.29z"/>
	<path class="st7" d="M409.49,49.14v0.54h-3.77v-0.46c1.53-1.29,3.01-2.58,3.01-3.89c0-0.77-0.46-1.13-1.1-1.13
		c-0.77,0-1.29,0.4-1.69,0.8v-0.67c0.36-0.37,0.96-0.69,1.69-0.69c0.97,0,1.71,0.52,1.71,1.69c0,1.32-1.47,2.8-2.84,3.81H409.49z"/>
	<path class="st7" d="M410.65,42.89c0.99,0.92,1.78,2.33,1.78,4.1c0,1.77-0.79,3.18-1.78,4.1h-0.67c1.04-1.02,1.88-2.24,1.88-4.1
		c0-1.86-0.84-3.08-1.88-4.1H410.65z"/>
</g>
<path class="st8" d="M437.62,74.5h-97.74c-1.92,0-3.47-1.56-3.47-3.47V57.57c0-1.92,1.56-3.47,3.47-3.47h97.74
	c1.92,0,3.47,1.56,3.47,3.47v13.46C441.09,72.95,439.54,74.5,437.62,74.5z"/>
<g>
	<g>
		<path class="st2" d="M381.65,59.05h2.87v1.26h-2.87V59.05z"/>
		<path class="st2" d="M385.08,56.81c0.54-0.41,1.14-0.55,1.74-0.55c1.11,0,1.83,0.57,1.83,1.58c0,0.77-0.41,1.2-0.97,1.46
			c0.7,0.23,1.08,0.69,1.08,1.41c0,1.23-1.11,1.69-2.15,1.69c-0.76,0-1.25-0.19-1.65-0.44v-1.38c0.36,0.31,0.89,0.6,1.52,0.6
			c0.45,0,0.79-0.18,0.79-0.58c0-0.5-0.41-0.66-1.24-0.66v-1.16c0.77,0,1.13-0.27,1.13-0.72c0-0.35-0.25-0.51-0.6-0.51
			c-0.54,0-1.11,0.33-1.48,0.63V56.81z"/>
		<path class="st2" d="M390.2,60.56c0.5,0,0.91,0.41,0.91,0.91c0,0.5-0.41,0.9-0.91,0.9s-0.9-0.4-0.9-0.9
			C389.3,60.97,389.7,60.56,390.2,60.56z"/>
		<path class="st2" d="M391.78,60.66c0-0.71,0.48-1.18,0.99-1.36c-0.47-0.24-0.78-0.72-0.78-1.34c0-1.09,0.86-1.71,1.89-1.71
			c1.05,0,1.88,0.62,1.88,1.71c0,0.62-0.3,1.1-0.76,1.34c0.49,0.18,0.98,0.65,0.98,1.36c0,1.09-0.94,1.73-2.1,1.73
			S391.78,61.75,391.78,60.66z M394.54,60.59c0-0.39-0.27-0.64-0.66-0.64s-0.66,0.25-0.66,0.64c0,0.37,0.27,0.61,0.66,0.61
			S394.54,60.96,394.54,60.59z M394.47,58.04c0-0.37-0.25-0.59-0.59-0.59s-0.59,0.22-0.59,0.59c0,0.38,0.25,0.6,0.59,0.6
			S394.47,58.42,394.47,58.04z"/>
		<path class="st2" d="M355.57,71.89l1.31-1.99l0.51-0.72c-0.31,0.37-0.72,0.54-1.23,0.54c-0.99,0-1.89-0.68-1.89-1.93
			c0-1.04,0.74-1.94,2.03-1.94c1.27,0,1.98,0.9,1.98,1.94c0,0.72-0.28,1.35-0.7,2l-1.36,2.1H355.57z M356.29,66.36
			c-0.81,0-1.41,0.55-1.41,1.43c0,0.86,0.59,1.42,1.4,1.42c0.79,0,1.39-0.56,1.39-1.42C357.66,66.9,357.06,66.36,356.29,66.36z"/>
		<path class="st2" d="M359.89,68.23c1.36,0.17,2.42,0.68,2.42,2.01c0,0.91-0.65,1.75-2.07,1.75c-0.52,0-1-0.15-1.34-0.38v-0.58
			c0.42,0.28,0.87,0.45,1.33,0.45c0.96,0,1.46-0.51,1.46-1.24c0-1.08-1.02-1.41-2.37-1.56l0.19-2.73h2.65v0.54h-2.15L359.89,68.23z"
			/>
		<path class="st2" d="M364.48,65.86c0.76,0,1.38,0.57,1.38,1.38c0,0.8-0.62,1.37-1.38,1.37c-0.75,0-1.37-0.57-1.37-1.37
			C363.11,66.43,363.73,65.86,364.48,65.86z M364.48,68.08c0.47,0,0.82-0.3,0.82-0.85c0-0.56-0.35-0.86-0.82-0.86
			c-0.46,0-0.81,0.3-0.81,0.86C363.67,67.78,364.02,68.08,364.48,68.08z M364.68,71.89h-0.58l3.57-5.94h0.58L364.68,71.89z
			 M367.84,71.99c-0.75,0-1.37-0.57-1.37-1.37c0-0.81,0.62-1.38,1.37-1.38c0.76,0,1.38,0.57,1.38,1.38
			C369.22,71.42,368.6,71.99,367.84,71.99z M367.84,69.76c-0.46,0-0.81,0.3-0.81,0.86c0,0.55,0.35,0.85,0.81,0.85
			c0.47,0,0.82-0.3,0.82-0.85C368.66,70.06,368.31,69.76,367.84,69.76z"/>
		<path class="st2" d="M376.68,67.02c-0.43-0.41-1.02-0.61-1.65-0.61c-1.34,0-2.43,0.98-2.43,2.51s1.09,2.51,2.43,2.51
			c0.63,0,1.25-0.19,1.68-0.59v0.71c-0.47,0.28-1.07,0.44-1.67,0.44c-1.8,0-3.07-1.25-3.07-3.07c0-1.83,1.36-3.07,3.07-3.07
			c0.6,0,1.16,0.16,1.64,0.45V67.02z"/>
		<path class="st2" d="M378.58,71.89h-0.62v-5.94h0.62V71.89z"/>
		<path class="st2" d="M380.63,67.65c0.27,0,0.5,0.22,0.5,0.49s-0.23,0.5-0.5,0.5s-0.49-0.23-0.49-0.5S380.36,67.65,380.63,67.65z
			 M380.63,70.99c0.27,0,0.5,0.22,0.5,0.49c0,0.27-0.23,0.5-0.5,0.5s-0.49-0.23-0.49-0.5C380.14,71.21,380.36,70.99,380.63,70.99z"
			/>
		<path class="st2" d="M384.42,69.03h2.15v0.54h-2.15V69.03z"/>
		<path class="st2" d="M388.31,68.23c1.36,0.17,2.42,0.68,2.42,2.01c0,0.91-0.65,1.75-2.07,1.75c-0.52,0-1-0.15-1.34-0.38v-0.58
			c0.42,0.28,0.87,0.45,1.33,0.45c0.96,0,1.46-0.51,1.46-1.24c0-1.08-1.02-1.41-2.37-1.56l0.19-2.73h2.65v0.54h-2.15L388.31,68.23z"
			/>
		<path class="st2" d="M392.17,70.99c0.27,0,0.5,0.22,0.5,0.49c0,0.27-0.23,0.5-0.5,0.5s-0.49-0.23-0.49-0.5
			C391.68,71.21,391.9,70.99,392.17,70.99z"/>
		<path class="st2" d="M393.57,66.5v-0.54h3.66v0.54l-2.59,5.4h-0.63l2.59-5.4H393.57z"/>
		<path class="st2" d="M398.59,68.23c1.36,0.17,2.42,0.68,2.42,2.01c0,0.91-0.65,1.75-2.07,1.75c-0.52,0-1-0.15-1.34-0.38v-0.58
			c0.42,0.28,0.87,0.45,1.33,0.45c0.96,0,1.46-0.51,1.46-1.24c0-1.08-1.02-1.41-2.37-1.56l0.19-2.73h2.65v0.54h-2.15L398.59,68.23z"
			/>
		<path class="st2" d="M402.8,71.09c0,0.83-0.47,1.7-0.99,2.04h-0.48c0.48-0.5,0.77-1.24,0.77-2.04H402.8z"/>
		<path class="st2" d="M406.25,69.03h2.15v0.54h-2.15V69.03z"/>
		<path class="st2" d="M408.96,66.2l1.85-0.33v6.03h-0.61v-5.35l-1.24,0.19V66.2z"/>
		<path class="st2" d="M412.94,70.99c0.27,0,0.5,0.22,0.5,0.49c0,0.27-0.23,0.5-0.5,0.5s-0.49-0.23-0.49-0.5
			C412.45,71.21,412.67,70.99,412.94,70.99z"/>
		<path class="st2" d="M414.44,70.27c0-0.86,0.69-1.42,1.3-1.54c-0.51-0.15-0.96-0.63-0.96-1.33c0-1.01,0.76-1.55,1.64-1.55
			c0.88,0,1.64,0.54,1.64,1.55c0,0.7-0.45,1.18-0.96,1.33c0.61,0.12,1.3,0.68,1.3,1.54c0,1.1-0.88,1.72-1.98,1.72
			S414.44,71.37,414.44,70.27z M417.77,70.27c0-0.8-0.61-1.28-1.35-1.28c-0.74,0-1.35,0.48-1.35,1.28c0,0.82,0.61,1.22,1.35,1.22
			C417.16,71.49,417.77,71.09,417.77,70.27z M417.47,67.4c0-0.66-0.48-1.06-1.05-1.06c-0.57,0-1.05,0.4-1.05,1.06
			c0,0.65,0.48,1.04,1.05,1.04C416.99,68.43,417.47,68.04,417.47,67.4z"/>
		<path class="st2" d="M420.46,71.89l1.31-1.99l0.51-0.72c-0.31,0.37-0.72,0.54-1.23,0.54c-0.99,0-1.89-0.68-1.89-1.93
			c0-1.04,0.74-1.94,2.03-1.94c1.27,0,1.98,0.9,1.98,1.94c0,0.72-0.28,1.35-0.7,2l-1.36,2.1H420.46z M421.18,66.36
			c-0.81,0-1.41,0.55-1.41,1.43c0,0.86,0.59,1.42,1.4,1.42c0.79,0,1.39-0.56,1.39-1.42C422.56,66.9,421.95,66.36,421.18,66.36z"/>
	</g>
</g>
<g>
	<path class="st7" d="M146.79,18.94h0.62v5.4h2.56v0.54h-3.18V18.94z"/>
	<path class="st7" d="M150.59,23.84c0.48,0.38,0.91,0.61,1.51,0.61c0.71,0,1.32-0.31,1.32-1.09c0-0.71-0.53-0.98-1.24-1.24
		c-1.06-0.39-1.63-0.74-1.63-1.75c0-1.01,0.84-1.53,1.73-1.53c0.58,0,1.06,0.18,1.42,0.47v0.64c-0.48-0.38-0.88-0.58-1.42-0.58
		c-0.67,0-1.13,0.4-1.13,1.01c0,0.57,0.34,0.85,1.2,1.15c1.1,0.38,1.68,0.79,1.68,1.83c0,1.09-0.86,1.62-1.93,1.62
		c-0.64,0-1.15-0.18-1.51-0.46V23.84z"/>
	<path class="st7" d="M162.66,21.96c0-0.81-0.55-1-1.02-1c-0.52,0-1.02,0.13-1.28,0.25c0.08,0.19,0.13,0.43,0.13,0.72v2.95h-0.6
		v-2.92c0-0.81-0.53-1-1.03-1c-0.49,0-0.88,0.1-1.15,0.2v3.72h-0.6V20.8c0.57-0.23,1.17-0.38,1.75-0.38c0.51,0,0.9,0.11,1.17,0.34
		c0.52-0.2,1.08-0.34,1.61-0.34c1.05,0,1.62,0.43,1.62,1.52v2.94h-0.6V21.96z"/>
	<path class="st7" d="M164.98,22.73v0.02c0,1.07,0.77,1.7,1.62,1.7c0.62,0,1.05-0.16,1.49-0.49v0.6c-0.39,0.29-0.95,0.42-1.49,0.42
		c-1.26,0-2.22-0.86-2.22-2.28c0-1.31,0.9-2.28,2.07-2.28c1.1,0,1.83,0.66,1.83,1.9v0.41H164.98z M167.68,22.23
		c-0.04-0.91-0.53-1.28-1.26-1.28c-0.68,0-1.23,0.46-1.4,1.28H167.68z"/>
	<path class="st7" d="M171.69,21.83c0-0.56-0.36-0.85-0.92-0.85c-0.5,0-0.88,0.14-1.28,0.35v-0.57c0.37-0.2,0.84-0.34,1.35-0.34
		c0.88,0,1.45,0.39,1.45,1.37v3.01c-0.4,0.11-0.87,0.16-1.24,0.16c-1.18,0-1.97-0.37-1.97-1.29c0-0.86,0.79-1.31,2.12-1.31h0.49
		V21.83z M171.69,22.85h-0.45c-0.9,0-1.56,0.24-1.56,0.82c0,0.58,0.6,0.79,1.4,0.79c0.18,0,0.4-0.02,0.61-0.06V22.85z"/>
	<path class="st7" d="M173.72,20.75c0.58-0.21,1.24-0.33,1.83-0.33c1.1,0,1.77,0.43,1.77,1.52v2.94h-0.6v-2.82
		c0-0.89-0.63-1.08-1.22-1.08c-0.46,0-0.87,0.08-1.18,0.16v3.74h-0.6V20.75z"/>
	<path class="st7" d="M183.85,21.38c-0.37-0.26-0.81-0.41-1.22-0.41c-0.9,0-1.68,0.6-1.68,1.74c0,1.1,0.77,1.72,1.72,1.72
		c0.46,0,0.85-0.15,1.25-0.41v0.63c-0.43,0.22-0.85,0.33-1.31,0.33c-1.22,0-2.27-0.85-2.27-2.28c0-1.46,1.08-2.28,2.26-2.28
		c0.48,0,0.86,0.11,1.25,0.33V21.38z"/>
	<path class="st7" d="M185.07,18.09h0.6v2.57c0.33-0.12,0.82-0.23,1.28-0.23c1.05,0,1.72,0.43,1.72,1.52v2.94h-0.6v-2.82
		c0-0.89-0.63-1.08-1.22-1.08c-0.46,0-0.88,0.1-1.18,0.2v3.7h-0.6V18.09z"/>
	<path class="st7" d="M192.38,21.83c0-0.56-0.36-0.85-0.92-0.85c-0.5,0-0.88,0.14-1.28,0.35v-0.57c0.37-0.2,0.84-0.34,1.35-0.34
		c0.88,0,1.45,0.39,1.45,1.37v3.01c-0.4,0.11-0.87,0.16-1.24,0.16c-1.18,0-1.97-0.37-1.97-1.29c0-0.86,0.79-1.31,2.12-1.31h0.49
		V21.83z M192.38,22.85h-0.45c-0.9,0-1.56,0.24-1.56,0.82c0,0.58,0.6,0.79,1.4,0.79c0.18,0,0.4-0.02,0.61-0.06V22.85z"/>
	<path class="st7" d="M194.41,20.75c0.58-0.21,1.24-0.33,1.83-0.33c1.1,0,1.77,0.43,1.77,1.52v2.94h-0.6v-2.82
		c0-0.89-0.63-1.08-1.22-1.08c-0.46,0-0.87,0.08-1.18,0.16v3.74h-0.6V20.75z"/>
	<path class="st7" d="M202.46,24.73c-0.15,0.1-0.55,0.19-0.9,0.19c-1.43,0-2.43-0.75-2.43-2.24c0-1.41,0.98-2.26,2.51-2.26
		c0.45,0,1.05,0.12,1.42,0.28v4.23c0,1.33-1,1.85-2,1.85c-0.53,0-1.03-0.12-1.35-0.27v-0.57c0.38,0.18,0.88,0.33,1.35,0.33
		c0.72,0,1.4-0.35,1.4-1.45V24.73z M202.46,21.1c-0.24-0.08-0.51-0.13-0.82-0.13c-1.21,0-1.91,0.64-1.91,1.71
		c0,1.05,0.7,1.71,1.83,1.71c0.36,0,0.6-0.06,0.9-0.17V21.1z"/>
	<path class="st7" d="M204.83,22.73v0.02c0,1.07,0.77,1.7,1.62,1.7c0.62,0,1.05-0.16,1.49-0.49v0.6c-0.39,0.29-0.95,0.42-1.49,0.42
		c-1.26,0-2.22-0.86-2.22-2.28c0-1.31,0.9-2.28,2.07-2.28c1.1,0,1.83,0.66,1.83,1.9v0.41H204.83z M207.53,22.23
		c-0.04-0.91-0.53-1.28-1.26-1.28c-0.68,0-1.23,0.46-1.4,1.28H207.53z"/>
	<path class="st7" d="M211.03,19.16c0-0.25,0.21-0.45,0.45-0.45c0.25,0,0.45,0.2,0.45,0.45c0,0.24-0.2,0.45-0.45,0.45
		C211.24,19.61,211.03,19.4,211.03,19.16z M211.78,24.88h-0.6v-4.36h0.6V24.88z"/>
	<path class="st7" d="M213.28,20.75c0.58-0.21,1.24-0.33,1.83-0.33c1.1,0,1.77,0.43,1.77,1.52v2.94h-0.6v-2.82
		c0-0.89-0.63-1.08-1.22-1.08c-0.46,0-0.87,0.08-1.18,0.16v3.74h-0.6V20.75z"/>
	<path class="st7" d="M222.94,24.88l-1.63-5.35l-0.91,5.35h-0.6l1.06-5.94h0.83l1.62,5.31l1.62-5.31h0.83l1.06,5.94h-0.62
		l-0.91-5.35l-1.63,5.35H222.94z"/>
	<path class="st7" d="M228.5,23.24l-0.62,1.64h-0.64l2.3-5.94h0.79l2.33,5.94H232l-0.62-1.64H228.5z M229.93,19.44l-1.24,3.28h2.49
		L229.93,19.44z"/>
	<path class="st7" d="M233.61,18.93c0.44-0.05,0.85-0.08,1.22-0.08c2.72,0,3.64,1.41,3.64,2.93c0,1.67-0.97,3.21-3.56,3.21
		c-0.5,0-0.88-0.04-1.3-0.09V18.93z M234.23,24.4c0.24,0.03,0.47,0.04,0.69,0.04c1.7,0,2.9-0.85,2.9-2.66c0-1.4-0.89-2.38-3.01-2.38
		c-0.19,0-0.37,0.01-0.58,0.03V24.4z"/>
	<path class="st7" d="M240.39,24.88h-0.62v-5.95c0.27-0.04,0.78-0.09,1.13-0.09c1.6,0,2.31,0.74,2.31,1.84
		c0,0.88-0.5,1.53-1.29,1.76l1.97,2.44h-0.77l-1.84-2.3h-0.89V24.88z M240.39,22.07h0.62c0.98,0,1.56-0.46,1.56-1.37
		c0-0.76-0.47-1.32-1.68-1.32c-0.12,0-0.36,0.01-0.5,0.02V22.07z"/>
	<path class="st7" d="M244.31,23.84c0.48,0.38,0.91,0.61,1.51,0.61c0.71,0,1.32-0.31,1.32-1.09c0-0.71-0.53-0.98-1.24-1.24
		c-1.06-0.39-1.63-0.74-1.63-1.75c0-1.01,0.84-1.53,1.73-1.53c0.58,0,1.06,0.18,1.42,0.47v0.64c-0.48-0.38-0.88-0.58-1.42-0.58
		c-0.67,0-1.13,0.4-1.13,1.01c0,0.57,0.34,0.85,1.2,1.15c1.1,0.38,1.68,0.79,1.68,1.83c0,1.09-0.86,1.62-1.93,1.62
		c-0.64,0-1.15-0.18-1.51-0.46V23.84z"/>
	<path class="st7" d="M250.23,20.52h0.67v-1.06h0.6v1.06h1.23v0.51h-1.23v2.66c0,0.56,0.22,0.78,0.63,0.78
		c0.28,0,0.51-0.09,0.81-0.24v0.53c-0.26,0.13-0.56,0.22-0.94,0.22c-0.63,0-1.1-0.33-1.1-1.23v-2.72h-0.67V20.52z"/>
	<path class="st7" d="M255.85,20.42c1.3,0,2.19,0.93,2.19,2.28c0,1.35-0.89,2.28-2.19,2.28c-1.3,0-2.19-0.93-2.19-2.28
		C253.66,21.35,254.55,20.42,255.85,20.42z M255.85,20.94c-0.92,0-1.58,0.7-1.58,1.76s0.66,1.76,1.58,1.76
		c0.92,0,1.58-0.7,1.58-1.76S256.77,20.94,255.85,20.94z"/>
	<path class="st7" d="M258.61,20.52h0.67v-1.06h0.6v1.06h1.23v0.51h-1.23v2.66c0,0.56,0.22,0.78,0.63,0.78
		c0.28,0,0.51-0.09,0.81-0.24v0.53c-0.26,0.13-0.56,0.22-0.94,0.22c-0.63,0-1.1-0.33-1.1-1.23v-2.72h-0.67V20.52z"/>
	<path class="st7" d="M264.63,21.83c0-0.56-0.36-0.85-0.92-0.85c-0.5,0-0.88,0.14-1.28,0.35v-0.57c0.37-0.2,0.84-0.34,1.35-0.34
		c0.88,0,1.45,0.39,1.45,1.37v3.01c-0.4,0.11-0.87,0.16-1.24,0.16c-1.18,0-1.97-0.37-1.97-1.29c0-0.86,0.79-1.31,2.12-1.31h0.49
		V21.83z M264.63,22.85h-0.45c-0.9,0-1.56,0.24-1.56,0.82c0,0.58,0.6,0.79,1.4,0.79c0.18,0,0.4-0.02,0.61-0.06V22.85z"/>
	<path class="st7" d="M267.26,24.88h-0.6v-6.8h0.6V24.88z"/>
	<path class="st7" d="M270.4,23.95c0.37,0.33,0.75,0.52,1.23,0.52c0.55,0,0.9-0.21,0.9-0.7c0-0.52-0.38-0.66-1.07-0.89
		c-0.77-0.26-1.1-0.58-1.1-1.28c0-0.77,0.58-1.18,1.37-1.18c0.43,0,0.85,0.09,1.19,0.33v0.65c-0.34-0.28-0.69-0.47-1.19-0.47
		c-0.48,0-0.79,0.26-0.79,0.67c0,0.4,0.24,0.61,0.91,0.82c0.76,0.23,1.27,0.52,1.27,1.31c0,0.86-0.67,1.25-1.49,1.25
		c-0.49,0-0.96-0.14-1.23-0.35V23.95z"/>
	<path class="st7" d="M277.5,21.38c-0.37-0.26-0.81-0.41-1.22-0.41c-0.9,0-1.68,0.6-1.68,1.74c0,1.1,0.77,1.72,1.72,1.72
		c0.46,0,0.85-0.15,1.25-0.41v0.63c-0.43,0.22-0.85,0.33-1.31,0.33c-1.22,0-2.27-0.85-2.27-2.28c0-1.46,1.08-2.28,2.26-2.28
		c0.48,0,0.86,0.11,1.25,0.33V21.38z"/>
	<path class="st7" d="M280.58,20.42c1.3,0,2.19,0.93,2.19,2.28c0,1.35-0.89,2.28-2.19,2.28c-1.3,0-2.19-0.93-2.19-2.28
		C278.39,21.35,279.28,20.42,280.58,20.42z M280.58,20.94c-0.92,0-1.58,0.7-1.58,1.76s0.66,1.76,1.58,1.76
		c0.92,0,1.58-0.7,1.58-1.76S281.5,20.94,280.58,20.94z"/>
	<path class="st7" d="M284.54,24.88h-0.6v-3.96c0.46-0.29,1.02-0.47,1.62-0.47c0.24,0,0.48,0.03,0.73,0.09v0.59
		c-0.26-0.09-0.57-0.11-0.77-0.11c-0.43,0-0.75,0.09-0.98,0.22V24.88z"/>
	<path class="st7" d="M287.51,22.73v0.02c0,1.07,0.77,1.7,1.62,1.7c0.62,0,1.05-0.16,1.49-0.49v0.6c-0.39,0.29-0.95,0.42-1.49,0.42
		c-1.26,0-2.22-0.86-2.22-2.28c0-1.31,0.9-2.28,2.07-2.28c1.1,0,1.83,0.66,1.83,1.9v0.41H287.51z M290.2,22.23
		c-0.04-0.91-0.53-1.28-1.26-1.28c-0.68,0-1.23,0.46-1.4,1.28H290.2z"/>
	<path class="st7" d="M152.14,34.48h-0.6v-3.85h-0.67v-0.51h0.67v-1.09c0-0.91,0.47-1.45,1.34-1.45c0.33,0,0.57,0.07,0.78,0.22v0.57
		c-0.21-0.15-0.45-0.26-0.77-0.26c-0.46,0-0.75,0.22-0.75,0.93v1.08h1.2v0.51h-1.2V34.48z"/>
	<path class="st7" d="M154.71,34.48h-0.6v-3.96c0.46-0.29,1.02-0.47,1.62-0.47c0.24,0,0.48,0.03,0.73,0.09v0.59
		c-0.26-0.09-0.57-0.11-0.77-0.11c-0.43,0-0.75,0.09-0.98,0.22V34.48z"/>
	<path class="st7" d="M159.27,30.02c1.3,0,2.19,0.93,2.19,2.28c0,1.35-0.89,2.28-2.19,2.28c-1.3,0-2.19-0.93-2.19-2.28
		C157.08,30.95,157.97,30.02,159.27,30.02z M159.27,30.54c-0.92,0-1.58,0.7-1.58,1.76s0.66,1.76,1.58,1.76
		c0.92,0,1.58-0.7,1.58-1.76S160.19,30.54,159.27,30.54z"/>
	<path class="st7" d="M168.18,31.56c0-0.81-0.55-1-1.02-1c-0.52,0-1.02,0.13-1.28,0.25c0.08,0.19,0.13,0.43,0.13,0.72v2.95h-0.6
		v-2.92c0-0.81-0.53-1-1.03-1c-0.49,0-0.88,0.1-1.15,0.2v3.72h-0.6V30.4c0.57-0.23,1.17-0.38,1.75-0.38c0.51,0,0.9,0.11,1.17,0.34
		c0.52-0.2,1.08-0.34,1.61-0.34c1.05,0,1.62,0.43,1.62,1.52v2.94h-0.6V31.56z"/>
	<path class="st7" d="M172.13,27.69h0.6v2.56c0.19-0.11,0.62-0.22,1.04-0.22c1.31,0,2.29,0.76,2.29,2.26c0,1.41-1,2.3-2.51,2.3
		c-0.46,0-0.97-0.08-1.42-0.22V27.69z M172.73,33.95c0.25,0.07,0.54,0.1,0.82,0.1c1.16,0,1.9-0.66,1.9-1.77
		c0-1.12-0.77-1.72-1.68-1.72c-0.45,0-0.79,0.08-1.04,0.2V33.95z"/>
	<path class="st7" d="M179.49,31.43c0-0.56-0.36-0.85-0.92-0.85c-0.5,0-0.88,0.14-1.28,0.35v-0.57c0.37-0.2,0.84-0.34,1.35-0.34
		c0.88,0,1.45,0.39,1.45,1.37v3.01c-0.4,0.11-0.87,0.16-1.24,0.16c-1.18,0-1.97-0.37-1.97-1.29c0-0.86,0.79-1.31,2.12-1.31h0.49
		V31.43z M179.49,32.45h-0.45c-0.9,0-1.56,0.24-1.56,0.82c0,0.58,0.6,0.79,1.4,0.79c0.18,0,0.4-0.02,0.61-0.06V32.45z"/>
	<path class="st7" d="M181.26,33.55c0.37,0.33,0.75,0.52,1.23,0.52c0.55,0,0.9-0.21,0.9-0.7c0-0.52-0.38-0.66-1.07-0.89
		c-0.77-0.26-1.1-0.58-1.1-1.28c0-0.77,0.58-1.18,1.37-1.18c0.43,0,0.85,0.09,1.19,0.33V31c-0.34-0.28-0.69-0.47-1.19-0.47
		c-0.48,0-0.79,0.26-0.79,0.67c0,0.4,0.24,0.61,0.91,0.82c0.76,0.23,1.27,0.52,1.27,1.31c0,0.86-0.67,1.25-1.49,1.25
		c-0.49,0-0.96-0.14-1.23-0.35V33.55z"/>
	<path class="st7" d="M185.45,32.33v0.02c0,1.07,0.77,1.7,1.62,1.7c0.62,0,1.05-0.16,1.49-0.49v0.6c-0.39,0.29-0.95,0.42-1.49,0.42
		c-1.26,0-2.22-0.86-2.22-2.28c0-1.31,0.9-2.28,2.07-2.28c1.1,0,1.83,0.66,1.83,1.9v0.41H185.45z M188.15,31.83
		c-0.04-0.91-0.53-1.28-1.26-1.28c-0.68,0-1.23,0.46-1.4,1.28H188.15z"/>
	<path class="st7" d="M190.5,34.48h-0.6v-6.8h0.6V34.48z"/>
	<path class="st7" d="M191.85,28.77c0-0.25,0.21-0.45,0.45-0.45c0.25,0,0.45,0.2,0.45,0.45c0,0.24-0.2,0.45-0.45,0.45
		C192.06,29.21,191.85,29,191.85,28.77z M192.6,34.48H192v-4.36h0.6V34.48z"/>
	<path class="st7" d="M194.1,30.35c0.58-0.21,1.24-0.33,1.83-0.33c1.1,0,1.77,0.43,1.77,1.52v2.94h-0.6v-2.82
		c0-0.89-0.63-1.08-1.22-1.08c-0.46,0-0.87,0.08-1.18,0.16v3.74h-0.6V30.35z"/>
	<path class="st7" d="M199.42,32.33v0.02c0,1.07,0.77,1.7,1.62,1.7c0.62,0,1.05-0.16,1.49-0.49v0.6c-0.39,0.29-0.95,0.42-1.49,0.42
		c-1.26,0-2.22-0.86-2.22-2.28c0-1.31,0.9-2.28,2.07-2.28c1.1,0,1.83,0.66,1.83,1.9v0.41H199.42z M202.11,31.83
		c-0.04-0.91-0.53-1.28-1.26-1.28c-0.68,0-1.23,0.46-1.4,1.28H202.11z"/>
	<path class="st7" d="M205.17,30.12h0.67v-1.06h0.6v1.06h1.23v0.51h-1.23v2.66c0,0.56,0.22,0.78,0.63,0.78
		c0.28,0,0.51-0.09,0.81-0.24v0.53c-0.26,0.13-0.56,0.22-0.94,0.22c-0.63,0-1.1-0.33-1.1-1.23v-2.72h-0.67V30.12z"/>
	<path class="st7" d="M210.78,30.02c1.3,0,2.19,0.93,2.19,2.28c0,1.35-0.89,2.28-2.19,2.28c-1.3,0-2.19-0.93-2.19-2.28
		C208.6,30.95,209.49,30.02,210.78,30.02z M210.78,30.54c-0.92,0-1.58,0.7-1.58,1.76s0.66,1.76,1.58,1.76c0.92,0,1.58-0.7,1.58-1.76
		S211.7,30.54,210.78,30.54z"/>
	<path class="st7" d="M219.11,33.94v0.54h-3.77v-0.46c1.53-1.29,3.01-2.58,3.01-3.89c0-0.77-0.46-1.13-1.1-1.13
		c-0.77,0-1.29,0.4-1.69,0.8v-0.67c0.36-0.37,0.96-0.69,1.69-0.69c0.97,0,1.71,0.52,1.71,1.69c0,1.32-1.47,2.8-2.84,3.81H219.11z"/>
	<path class="st7" d="M223.28,32.32h1.13v0.51h-1.13v1.65h-0.59v-1.65h-2.94v-0.51l2.81-3.78h0.72V32.32z M220.39,32.32h2.3v-3.13
		L220.39,32.32z"/>
	<path class="st7" d="M227.22,27.69h0.6v2.57c0.33-0.12,0.82-0.23,1.28-0.23c1.05,0,1.72,0.43,1.72,1.52v2.94h-0.6v-2.82
		c0-0.89-0.63-1.08-1.22-1.08c-0.46,0-0.88,0.1-1.18,0.2v3.7h-0.6V27.69z"/>
	<path class="st7" d="M234.12,30.02c1.3,0,2.19,0.93,2.19,2.28c0,1.35-0.89,2.28-2.19,2.28c-1.3,0-2.19-0.93-2.19-2.28
		C231.93,30.95,232.82,30.02,234.12,30.02z M234.12,30.54c-0.92,0-1.58,0.7-1.58,1.76s0.66,1.76,1.58,1.76
		c0.92,0,1.58-0.7,1.58-1.76S235.04,30.54,234.12,30.54z"/>
	<path class="st7" d="M240.88,34.43c-0.53,0.1-1.07,0.15-1.52,0.15c-1.26,0-1.98-0.43-1.98-1.52v-2.94h0.6v2.91
		c0,0.82,0.65,1.03,1.34,1.03c0.3,0,0.64-0.02,0.96-0.06v-3.88h0.6V34.43z"/>
	<path class="st7" d="M242.98,34.48h-0.6v-3.96c0.46-0.29,1.02-0.47,1.62-0.47c0.24,0,0.48,0.03,0.73,0.09v0.59
		c-0.26-0.09-0.57-0.11-0.77-0.11c-0.43,0-0.75,0.09-0.98,0.22V34.48z"/>
	<path class="st7" d="M245.42,33.55c0.37,0.33,0.75,0.52,1.23,0.52c0.55,0,0.9-0.21,0.9-0.7c0-0.52-0.38-0.66-1.07-0.89
		c-0.77-0.26-1.1-0.58-1.1-1.28c0-0.77,0.58-1.18,1.37-1.18c0.43,0,0.85,0.09,1.19,0.33V31c-0.34-0.28-0.69-0.47-1.19-0.47
		c-0.48,0-0.79,0.26-0.79,0.67c0,0.4,0.24,0.61,0.91,0.82c0.76,0.23,1.27,0.52,1.27,1.31c0,0.86-0.67,1.25-1.49,1.25
		c-0.49,0-0.96-0.14-1.23-0.35V33.55z"/>
	<path class="st7" d="M251.24,30.3c0.4-0.15,0.96-0.28,1.52-0.28c1.5,0,2.41,0.78,2.41,2.28c0,1.42-0.94,2.28-2.37,2.28
		c-0.35,0-0.73-0.07-0.96-0.18v1.88h-0.6V30.3z M251.84,33.88c0.28,0.12,0.59,0.18,0.96,0.18c1.06,0,1.76-0.65,1.76-1.76
		c0-1.07-0.65-1.73-1.8-1.73c-0.34,0-0.69,0.04-0.92,0.12V33.88z"/>
	<path class="st7" d="M258.2,30.02c1.3,0,2.19,0.93,2.19,2.28c0,1.35-0.89,2.28-2.19,2.28c-1.3,0-2.19-0.93-2.19-2.28
		C256.01,30.95,256.9,30.02,258.2,30.02z M258.2,30.54c-0.92,0-1.58,0.7-1.58,1.76s0.66,1.76,1.58,1.76c0.92,0,1.58-0.7,1.58-1.76
		S259.12,30.54,258.2,30.54z"/>
	<path class="st7" d="M261.3,33.55c0.37,0.33,0.75,0.52,1.23,0.52c0.55,0,0.9-0.21,0.9-0.7c0-0.52-0.38-0.66-1.07-0.89
		c-0.77-0.26-1.1-0.58-1.1-1.28c0-0.77,0.58-1.18,1.37-1.18c0.43,0,0.85,0.09,1.19,0.33V31c-0.34-0.28-0.69-0.47-1.19-0.47
		c-0.48,0-0.79,0.26-0.79,0.67c0,0.4,0.24,0.61,0.91,0.82c0.76,0.23,1.27,0.52,1.27,1.31c0,0.86-0.67,1.25-1.49,1.25
		c-0.49,0-0.96-0.14-1.23-0.35V33.55z"/>
	<path class="st7" d="M264.62,30.12h0.67v-1.06h0.6v1.06h1.23v0.51h-1.23v2.66c0,0.56,0.22,0.78,0.63,0.78
		c0.28,0,0.51-0.09,0.81-0.24v0.53c-0.26,0.13-0.56,0.22-0.94,0.22c-0.63,0-1.1-0.33-1.1-1.23v-2.72h-0.67V30.12z"/>
	<path class="st7" d="M271,34.48h-0.6v-3.85h-0.67v-0.51h0.67v-0.9c0-1.01,0.59-1.64,1.53-1.64c0.5,0,0.87,0.17,1.08,0.32v0.6
		c-0.28-0.21-0.61-0.38-1.08-0.38c-0.6,0-0.93,0.39-0.93,1.1v0.9h2.71v4.36h-0.6v-3.85H271V34.48z"/>
	<path class="st7" d="M275.81,34.48h-0.6v-3.96c0.46-0.29,1.02-0.47,1.62-0.47c0.24,0,0.48,0.03,0.73,0.09v0.59
		c-0.26-0.09-0.57-0.11-0.77-0.11c-0.43,0-0.75,0.09-0.98,0.22V34.48z"/>
	<path class="st7" d="M278.25,33.55c0.37,0.33,0.75,0.52,1.23,0.52c0.55,0,0.9-0.21,0.9-0.7c0-0.52-0.38-0.66-1.07-0.89
		c-0.77-0.26-1.1-0.58-1.1-1.28c0-0.77,0.58-1.18,1.37-1.18c0.43,0,0.85,0.09,1.19,0.33V31c-0.34-0.28-0.69-0.47-1.19-0.47
		c-0.48,0-0.79,0.26-0.79,0.67c0,0.4,0.24,0.61,0.91,0.82c0.76,0.23,1.27,0.52,1.27,1.31c0,0.86-0.67,1.25-1.49,1.25
		c-0.49,0-0.96-0.14-1.23-0.35V33.55z"/>
	<path class="st7" d="M281.57,30.12h0.67v-1.06h0.6v1.06h1.23v0.51h-1.23v2.66c0,0.56,0.22,0.78,0.63,0.78
		c0.28,0,0.51-0.09,0.81-0.24v0.53c-0.26,0.13-0.56,0.22-0.94,0.22c-0.63,0-1.1-0.33-1.1-1.23v-2.72h-0.67V30.12z"/>
	<path class="st7" d="M199.07,44.02c-0.47,0.11-0.96,0.16-1.42,0.16c-1.51,0-2.53-0.82-2.53-2.28c0-1.47,1.1-2.28,2.4-2.28
		c0.33,0,0.73,0.07,0.95,0.2v-2.54h0.6V44.02z M198.47,40.36c-0.22-0.12-0.55-0.2-0.95-0.2c-1.01,0-1.79,0.62-1.79,1.74
		c0,1.11,0.77,1.75,1.92,1.75c0.28,0,0.56-0.01,0.82-0.05V40.36z"/>
	<path class="st7" d="M202.43,39.62c1.3,0,2.19,0.93,2.19,2.28c0,1.35-0.89,2.28-2.19,2.28c-1.3,0-2.19-0.93-2.19-2.28
		C200.24,40.55,201.13,39.62,202.43,39.62z M202.43,40.14c-0.92,0-1.58,0.7-1.58,1.76s0.66,1.76,1.58,1.76
		c0.92,0,1.58-0.7,1.58-1.76S203.35,40.14,202.43,40.14z"/>
	<path class="st7" d="M205.53,43.15c0.37,0.33,0.75,0.52,1.23,0.52c0.55,0,0.9-0.21,0.9-0.7c0-0.52-0.38-0.66-1.07-0.89
		c-0.77-0.26-1.1-0.58-1.1-1.28c0-0.77,0.58-1.18,1.37-1.18c0.43,0,0.85,0.09,1.19,0.33v0.65c-0.34-0.28-0.69-0.47-1.19-0.47
		c-0.48,0-0.79,0.26-0.79,0.67c0,0.4,0.24,0.61,0.91,0.82c0.76,0.23,1.27,0.52,1.27,1.31c0,0.86-0.67,1.25-1.49,1.25
		c-0.49,0-0.96-0.14-1.23-0.35V43.15z"/>
	<path class="st7" d="M209.72,41.93v0.02c0,1.07,0.77,1.7,1.62,1.7c0.62,0,1.05-0.16,1.49-0.49v0.6c-0.39,0.29-0.95,0.42-1.49,0.42
		c-1.26,0-2.22-0.86-2.22-2.28c0-1.31,0.9-2.28,2.07-2.28c1.1,0,1.83,0.66,1.83,1.9v0.41H209.72z M212.42,41.43
		c-0.04-0.91-0.53-1.28-1.26-1.28c-0.68,0-1.23,0.46-1.4,1.28H212.42z"/>
	<path class="st7" d="M217.7,45.48c-0.99-0.92-1.78-2.33-1.78-4.1c0-1.77,0.79-3.18,1.78-4.1h0.67c-1.04,1.02-1.88,2.24-1.88,4.1
		s0.84,3.08,1.88,4.1H217.7z"/>
	<path class="st7" d="M219.32,38.13c0.44-0.05,0.85-0.08,1.22-0.08c2.72,0,3.64,1.41,3.64,2.93c0,1.67-0.97,3.21-3.56,3.21
		c-0.5,0-0.88-0.04-1.3-0.09V38.13z M219.94,43.6c0.24,0.03,0.47,0.04,0.69,0.04c1.7,0,2.9-0.85,2.9-2.66c0-1.4-0.89-2.38-3.01-2.38
		c-0.19,0-0.37,0.01-0.58,0.03V43.6z"/>
	<path class="st7" d="M227.64,41.03c0-0.56-0.36-0.85-0.92-0.85c-0.5,0-0.88,0.14-1.28,0.35v-0.57c0.37-0.2,0.84-0.34,1.35-0.34
		c0.88,0,1.45,0.39,1.45,1.37V44c-0.4,0.11-0.87,0.16-1.24,0.16c-1.18,0-1.97-0.37-1.97-1.29c0-0.86,0.79-1.31,2.12-1.31h0.49V41.03
		z M227.64,42.05h-0.45c-0.9,0-1.56,0.24-1.56,0.82c0,0.58,0.6,0.79,1.4,0.79c0.18,0,0.4-0.02,0.61-0.06V42.05z"/>
	<path class="st7" d="M231.09,43.69l1.44-3.97h0.62l-2.36,6.16h-0.59l0.59-1.51l-1.82-4.65h0.66L231.09,43.69z"/>
	<path class="st7" d="M238.92,43.54v0.54h-3.77v-0.46c1.53-1.29,3.01-2.58,3.01-3.89c0-0.77-0.46-1.13-1.1-1.13
		c-0.77,0-1.29,0.4-1.69,0.8v-0.67c0.36-0.37,0.96-0.69,1.69-0.69c0.97,0,1.71,0.52,1.71,1.69c0,1.32-1.47,2.8-2.84,3.81H238.92z"/>
	<path class="st7" d="M240.07,37.29c0.99,0.92,1.78,2.33,1.78,4.1c0,1.77-0.79,3.18-1.78,4.1h-0.67c1.04-1.02,1.88-2.24,1.88-4.1
		s-0.84-3.08-1.88-4.1H240.07z"/>
</g>
<line class="st5" x1="95.63" y1="154.76" x2="78.63" y2="154.76"/>
<path class="st4" d="M87.13,152.49c1.25,0,2.27,1.02,2.27,2.27c0,1.25-1.02,2.27-2.27,2.27c-1.25,0-2.27-1.02-2.27-2.27
	C84.86,153.51,85.88,152.49,87.13,152.49"/>
<g>
	<path class="st2" d="M101.85,156.9h-0.68v-6.55c0.3-0.04,0.77-0.1,1.15-0.1c1.8,0,2.56,0.84,2.56,2.07c0,1.4-0.98,2.16-2.62,2.16
		c-0.12,0-0.27-0.01-0.42-0.02V156.9z M101.85,153.88c0.12,0.01,0.24,0.01,0.35,0.01c1.35,0,1.99-0.52,1.99-1.57
		c0-0.85-0.5-1.49-1.9-1.49c-0.13,0-0.29,0.01-0.44,0.02V153.88z"/>
	<path class="st2" d="M106.1,150.35c0.44-0.05,0.93-0.1,1.32-0.1c1.65,0,2.37,0.64,2.37,1.77c0,0.85-0.54,1.43-1.38,1.53
		c1.01,0.07,1.64,0.63,1.64,1.58c0,1.06-0.73,1.87-2.63,1.87c-0.44,0-0.89-0.04-1.32-0.12V150.35z M106.77,153.3h0.58
		c1.1,0,1.76-0.43,1.76-1.28c0-0.81-0.63-1.21-1.71-1.21c-0.19,0-0.41,0.01-0.64,0.03V153.3z M106.77,156.4
		c0.26,0.03,0.48,0.04,0.65,0.04c1.39,0,1.96-0.5,1.96-1.31c0-0.87-0.76-1.25-1.93-1.25h-0.68V156.4z"/>
	<path class="st2" d="M114.41,150.25c1.88,0,3.38,1.38,3.38,3.38c0,2-1.5,3.38-3.38,3.38c-1.88,0-3.38-1.38-3.38-3.38
		C111.04,151.63,112.53,150.25,114.41,150.25z M114.41,150.87c-1.47,0-2.68,1.08-2.68,2.76c0,1.68,1.21,2.76,2.68,2.76
		c1.47,0,2.68-1.08,2.68-2.76C117.1,151.95,115.89,150.87,114.41,150.87z"/>
	<path class="st2" d="M118.73,153.97v-0.58h1.79v-1.79h0.58v1.79h1.79v0.58h-1.79v1.79h-0.58v-1.79H118.73z"/>
	<path class="st2" d="M123.8,155.76c0.53,0.42,1,0.67,1.66,0.67c0.78,0,1.45-0.34,1.45-1.2c0-0.78-0.58-1.08-1.36-1.36
		c-1.17-0.43-1.79-0.81-1.79-1.93c0-1.11,0.92-1.68,1.9-1.68c0.64,0,1.17,0.2,1.56,0.52v0.7c-0.53-0.42-0.97-0.64-1.56-0.64
		c-0.74,0-1.24,0.44-1.24,1.11c0,0.63,0.37,0.93,1.32,1.26c1.21,0.42,1.85,0.87,1.85,2.01c0,1.2-0.95,1.78-2.12,1.78
		c-0.7,0-1.26-0.2-1.66-0.51V155.76z"/>
	<path class="st2" d="M131.93,150.25c1.88,0,3.38,1.38,3.38,3.38c0,2-1.5,3.38-3.38,3.38c-1.88,0-3.38-1.38-3.38-3.38
		C128.55,151.63,130.04,150.25,131.93,150.25z M131.93,150.87c-1.47,0-2.68,1.08-2.68,2.76c0,1.68,1.21,2.76,2.68,2.76
		c1.47,0,2.68-1.08,2.68-2.76C134.61,151.95,133.4,150.87,131.93,150.87z"/>
	<path class="st2" d="M141.53,151.54c-0.47-0.45-1.12-0.67-1.82-0.67c-1.47,0-2.67,1.08-2.67,2.76c0,1.68,1.2,2.76,2.67,2.76
		c0.69,0,1.38-0.21,1.85-0.65v0.78c-0.52,0.31-1.18,0.48-1.84,0.48c-1.98,0-3.38-1.38-3.38-3.38c0-2.01,1.5-3.38,3.38-3.38
		c0.66,0,1.28,0.18,1.8,0.5V151.54z"/>
</g>
<line class="st6" x1="96.53" y1="170.86" x2="79.54" y2="170.86"/>
<polygon class="st3" points="88.03,168.06 89.73,170.33 91.44,172.6 88.03,172.6 84.63,172.6 86.33,170.33 "/>
<g>
	<g>
		<path class="st2" d="M100.68,170.69c0-0.95,0.76-1.56,1.43-1.69c-0.56-0.17-1.06-0.69-1.06-1.46c0-1.11,0.84-1.71,1.8-1.71
			c0.97,0,1.8,0.59,1.8,1.71c0,0.77-0.5,1.3-1.06,1.46c0.67,0.13,1.43,0.75,1.43,1.69c0,1.21-0.97,1.89-2.18,1.89
			S100.68,171.9,100.68,170.69z M104.34,170.69c0-0.88-0.67-1.41-1.49-1.41c-0.81,0-1.49,0.53-1.49,1.41c0,0.9,0.67,1.34,1.49,1.34
			C103.67,172.03,104.34,171.59,104.34,170.69z M104.01,167.52c0-0.73-0.53-1.17-1.16-1.17s-1.16,0.44-1.16,1.17
			c0,0.71,0.53,1.14,1.16,1.14S104.01,168.23,104.01,167.52z"/>
		<path class="st2" d="M109.64,170.09h1.24v0.56h-1.24v1.82h-0.65v-1.82h-3.23v-0.56l3.09-4.16h0.79V170.09z M106.46,170.09h2.53
			v-3.44L106.46,170.09z"/>
		<path class="st2" d="M120.07,169.26c0-0.89-0.6-1.1-1.12-1.1c-0.57,0-1.12,0.14-1.41,0.27c0.09,0.21,0.14,0.47,0.14,0.79v3.25
			h-0.66v-3.21c0-0.89-0.58-1.1-1.13-1.1c-0.54,0-0.97,0.11-1.26,0.22v4.09h-0.66v-4.49c0.63-0.25,1.29-0.42,1.92-0.42
			c0.56,0,0.99,0.12,1.29,0.37c0.57-0.22,1.19-0.37,1.77-0.37c1.16,0,1.78,0.47,1.78,1.67v3.23h-0.66V169.26z"/>
		<path class="st2" d="M125.62,172.3c-0.17,0.11-0.61,0.21-0.99,0.21c-1.57,0-2.67-0.83-2.67-2.46c0-1.55,1.08-2.49,2.76-2.49
			c0.5,0,1.16,0.13,1.56,0.31v4.65c0,1.46-1.1,2.04-2.2,2.04c-0.58,0-1.13-0.13-1.48-0.3v-0.63c0.42,0.2,0.97,0.36,1.48,0.36
			c0.79,0,1.54-0.39,1.54-1.6V172.3z M125.62,168.31c-0.26-0.09-0.56-0.14-0.9-0.14c-1.33,0-2.1,0.7-2.1,1.88
			c0,1.16,0.77,1.88,2.01,1.88c0.4,0,0.66-0.07,0.99-0.19V168.31z"/>
		<path class="st2" d="M129.66,171.32c0.53,0.42,1,0.67,1.66,0.67c0.78,0,1.45-0.34,1.45-1.2c0-0.78-0.58-1.08-1.36-1.36
			c-1.17-0.43-1.79-0.81-1.79-1.92s0.92-1.68,1.9-1.68c0.64,0,1.17,0.2,1.56,0.52v0.7c-0.53-0.42-0.97-0.64-1.56-0.64
			c-0.74,0-1.24,0.44-1.24,1.11c0,0.63,0.37,0.94,1.32,1.27c1.21,0.42,1.85,0.87,1.85,2.01c0,1.2-0.95,1.78-2.12,1.78
			c-0.7,0-1.26-0.2-1.66-0.51V171.32z"/>
		<path class="st2" d="M135.53,172.47h-0.68v-6.55c0.3-0.04,0.77-0.1,1.15-0.1c1.8,0,2.56,0.84,2.56,2.07c0,1.4-0.98,2.16-2.62,2.16
			c-0.12,0-0.28-0.01-0.42-0.02V172.47z M135.53,169.45c0.12,0.01,0.24,0.01,0.35,0.01c1.35,0,1.99-0.52,1.99-1.57
			c0-0.85-0.5-1.49-1.9-1.49c-0.13,0-0.29,0.01-0.44,0.02V169.45z"/>
		<path class="st2" d="M140.46,172.47h-0.68v-6.55c0.3-0.04,0.86-0.1,1.24-0.1c1.76,0,2.54,0.81,2.54,2.02
			c0,0.97-0.55,1.68-1.42,1.94l2.17,2.68h-0.85l-2.02-2.53h-0.98V172.47z M140.46,169.38h0.68c1.08,0,1.72-0.51,1.72-1.51
			c0-0.84-0.52-1.45-1.85-1.45c-0.13,0-0.4,0.01-0.55,0.02V169.38z"/>
		<path class="st2" d="M146.03,170.66l-0.68,1.8h-0.7l2.53-6.54h0.87l2.56,6.54h-0.73l-0.68-1.8H146.03z M147.6,166.48l-1.36,3.61
			h2.74L147.6,166.48z"/>
		<path class="st2" d="M152.9,172.47l-2.52-6.54h0.74l2.2,5.85l2.2-5.85h0.71l-2.52,6.54H152.9z"/>
		<path class="st2" d="M157.4,170.66l-0.68,1.8h-0.7l2.53-6.54h0.87l2.56,6.54h-0.73l-0.68-1.8H157.4z M158.98,166.48l-1.36,3.61
			h2.74L158.98,166.48z"/>
		<path class="st2" d="M164.65,172.47h-0.68v-5.94h-2.16v-0.59h5v0.59h-2.16V172.47z"/>
		<path class="st2" d="M170.52,165.82c1.88,0,3.38,1.38,3.38,3.38s-1.5,3.38-3.38,3.38c-1.88,0-3.38-1.38-3.38-3.38
			S168.63,165.82,170.52,165.82z M170.52,166.44c-1.47,0-2.68,1.08-2.68,2.76s1.21,2.76,2.68,2.76c1.47,0,2.68-1.08,2.68-2.76
			S171.99,166.44,170.52,166.44z"/>
		<path class="st2" d="M174.83,169.54v-0.58h1.79v-1.79h0.58v1.79H179v0.58h-1.79v1.79h-0.58v-1.79H174.83z"/>
		<path class="st2" d="M179.9,171.32c0.53,0.42,1,0.67,1.66,0.67c0.78,0,1.45-0.34,1.45-1.2c0-0.78-0.58-1.08-1.36-1.36
			c-1.17-0.43-1.79-0.81-1.79-1.92s0.92-1.68,1.9-1.68c0.64,0,1.17,0.2,1.56,0.52v0.7c-0.53-0.42-0.97-0.64-1.56-0.64
			c-0.74,0-1.24,0.44-1.24,1.11c0,0.63,0.37,0.94,1.32,1.27c1.21,0.42,1.85,0.87,1.85,2.01c0,1.2-0.95,1.78-2.12,1.78
			c-0.7,0-1.26-0.2-1.66-0.51V171.32z"/>
		<path class="st2" d="M188.03,165.82c1.88,0,3.38,1.38,3.38,3.38s-1.5,3.38-3.38,3.38c-1.88,0-3.38-1.38-3.38-3.38
			S186.14,165.82,188.03,165.82z M188.03,166.44c-1.47,0-2.68,1.08-2.68,2.76s1.21,2.76,2.68,2.76c1.47,0,2.68-1.08,2.68-2.76
			S189.5,166.44,188.03,166.44z"/>
		<path class="st2" d="M197.63,167.11c-0.47-0.45-1.12-0.67-1.82-0.67c-1.47,0-2.67,1.08-2.67,2.76s1.2,2.76,2.67,2.76
			c0.69,0,1.38-0.21,1.85-0.65v0.78c-0.52,0.31-1.18,0.48-1.84,0.48c-1.98,0-3.38-1.38-3.38-3.38c0-2.01,1.5-3.38,3.38-3.38
			c0.66,0,1.28,0.18,1.8,0.5V167.11z"/>
	</g>
</g>
<path class="st9" d="M296.62,75.64h-56.38c-3.22,0-5.83-2.61-5.83-5.83V58.79c0-3.22,2.61-5.83,5.83-5.83h56.38
	c3.22,0,5.83,2.61,5.83,5.83v11.02C302.45,73.03,299.84,75.64,296.62,75.64z"/>
<g>
	<g>
		<path class="st10" d="M250.91,62.29h-0.62v-5.95c0.27-0.04,0.7-0.09,1.05-0.09c1.64,0,2.33,0.76,2.33,1.88
			c0,1.27-0.89,1.96-2.38,1.96c-0.11,0-0.25-0.01-0.38-0.02V62.29z M250.91,59.55c0.11,0.01,0.22,0.01,0.32,0.01
			c1.23,0,1.81-0.47,1.81-1.43c0-0.77-0.45-1.35-1.73-1.35c-0.12,0-0.26,0.01-0.4,0.02V59.55z"/>
		<path class="st10" d="M254.77,56.35c0.4-0.05,0.85-0.09,1.2-0.09c1.5,0,2.15,0.58,2.15,1.61c0,0.77-0.49,1.3-1.25,1.39
			c0.92,0.06,1.49,0.57,1.49,1.44c0,0.96-0.66,1.7-2.39,1.7c-0.4,0-0.81-0.04-1.2-0.11V56.35z M255.38,59.02h0.53
			c1,0,1.6-0.39,1.6-1.16c0-0.74-0.57-1.1-1.55-1.1c-0.17,0-0.37,0.01-0.58,0.03V59.02z M255.38,61.84
			c0.24,0.03,0.44,0.04,0.59,0.04c1.26,0,1.78-0.45,1.78-1.19c0-0.79-0.69-1.14-1.75-1.14h-0.62V61.84z"/>
		<path class="st10" d="M262.33,56.26c1.71,0,3.07,1.25,3.07,3.07s-1.36,3.07-3.07,3.07c-1.71,0-3.07-1.25-3.07-3.07
			S260.62,56.26,262.33,56.26z M262.33,56.82c-1.34,0-2.44,0.98-2.44,2.51s1.1,2.51,2.44,2.51c1.34,0,2.44-0.98,2.44-2.51
			S263.67,56.82,262.33,56.82z"/>
		<path class="st10" d="M266.25,59.63V59.1h1.63v-1.63h0.53v1.63h1.63v0.53h-1.63v1.63h-0.53v-1.63H266.25z"/>
		<path class="st10" d="M270.86,61.25c0.48,0.38,0.91,0.61,1.51,0.61c0.71,0,1.32-0.31,1.32-1.09c0-0.71-0.53-0.98-1.24-1.24
			c-1.06-0.39-1.63-0.74-1.63-1.75s0.84-1.53,1.73-1.53c0.58,0,1.06,0.18,1.42,0.47v0.64c-0.48-0.38-0.88-0.58-1.42-0.58
			c-0.67,0-1.13,0.4-1.13,1.01c0,0.57,0.34,0.85,1.2,1.15c1.1,0.38,1.68,0.79,1.68,1.83c0,1.09-0.86,1.62-1.93,1.62
			c-0.64,0-1.15-0.18-1.51-0.46V61.25z"/>
		<path class="st10" d="M278.25,56.26c1.71,0,3.07,1.25,3.07,3.07s-1.36,3.07-3.07,3.07c-1.71,0-3.07-1.25-3.07-3.07
			S276.54,56.26,278.25,56.26z M278.25,56.82c-1.34,0-2.44,0.98-2.44,2.51s1.1,2.51,2.44,2.51c1.34,0,2.44-0.98,2.44-2.51
			S279.59,56.82,278.25,56.82z"/>
		<path class="st10" d="M286.98,57.43c-0.43-0.41-1.02-0.61-1.65-0.61c-1.34,0-2.43,0.98-2.43,2.51s1.09,2.51,2.43,2.51
			c0.63,0,1.25-0.19,1.68-0.59v0.71c-0.47,0.28-1.07,0.44-1.67,0.44c-1.8,0-3.07-1.25-3.07-3.07c0-1.83,1.36-3.07,3.07-3.07
			c0.6,0,1.16,0.16,1.64,0.45V57.43z"/>
		<path class="st10" d="M260.42,68.65h2.87v1.26h-2.87V68.65z"/>
		<path class="st10" d="M263.59,66.28l2.54-0.41v6.03h-1.47v-4.41l-1.07,0.13V66.28z"/>
		<path class="st10" d="M271.13,70.58v1.31H267V70.8c1.3-1.13,2.39-2.05,2.39-2.88c0-0.48-0.31-0.7-0.81-0.7
			c-0.48,0-1.09,0.33-1.47,0.66v-1.4c0.47-0.4,1.12-0.63,1.91-0.63c1.09,0,1.96,0.63,1.96,1.8c0,1.12-0.83,2.03-2.04,2.93H271.13z"
			/>
		<path class="st10" d="M272.79,70.16c0.5,0,0.91,0.41,0.91,0.91s-0.41,0.9-0.91,0.9s-0.9-0.4-0.9-0.9S272.29,70.16,272.79,70.16z"
			/>
		<path class="st10" d="M273.67,66.28l2.54-0.41v6.03h-1.47v-4.41l-1.07,0.13V66.28z"/>
	</g>
</g>
<path class="st2" d="M225.22,75.64H140.5c-3.22,0-5.83-2.61-5.83-5.83V58.79c0-3.22,2.61-5.83,5.83-5.83h84.72
	c3.22,0,5.83,2.61,5.83,5.83v11.02C231.05,73.03,228.44,75.64,225.22,75.64z"/>
<g>
	<g>
		<path class="st10" d="M138.77,60.67c0-0.86,0.69-1.42,1.3-1.54c-0.51-0.15-0.96-0.63-0.96-1.33c0-1.01,0.76-1.55,1.64-1.55
			s1.64,0.54,1.64,1.55c0,0.7-0.45,1.18-0.96,1.33c0.61,0.12,1.3,0.68,1.3,1.54c0,1.1-0.88,1.72-1.98,1.72
			S138.77,61.77,138.77,60.67z M142.1,60.67c0-0.8-0.61-1.28-1.35-1.28s-1.35,0.48-1.35,1.28c0,0.82,0.61,1.22,1.35,1.22
			S142.1,61.49,142.1,60.67z M141.8,57.79c0-0.66-0.48-1.06-1.05-1.06s-1.05,0.4-1.05,1.06c0,0.65,0.48,1.04,1.05,1.04
			S141.8,58.44,141.8,57.79z"/>
		<path class="st10" d="M146.92,60.13h1.13v0.51h-1.13v1.65h-0.59v-1.65h-2.94v-0.51l2.81-3.78h0.72V60.13z M144.03,60.13h2.3v-3.13
			L144.03,60.13z"/>
		<path class="st10" d="M156.4,59.37c0-0.81-0.55-1-1.02-1c-0.52,0-1.02,0.13-1.28,0.25c0.08,0.19,0.13,0.43,0.13,0.72v2.95h-0.6
			v-2.92c0-0.81-0.53-1-1.03-1c-0.49,0-0.88,0.1-1.15,0.2v3.72h-0.6v-4.08c0.57-0.23,1.17-0.38,1.75-0.38c0.51,0,0.9,0.11,1.17,0.34
			c0.52-0.2,1.08-0.34,1.61-0.34c1.05,0,1.62,0.43,1.62,1.52v2.94h-0.6V59.37z"/>
		<path class="st10" d="M161.45,62.14c-0.15,0.1-0.55,0.19-0.9,0.19c-1.43,0-2.43-0.75-2.43-2.24c0-1.41,0.98-2.26,2.51-2.26
			c0.45,0,1.05,0.12,1.42,0.28v4.23c0,1.33-1,1.85-2,1.85c-0.53,0-1.03-0.12-1.35-0.27v-0.57c0.38,0.18,0.88,0.33,1.35,0.33
			c0.72,0,1.4-0.35,1.4-1.45V62.14z M161.45,58.51c-0.24-0.08-0.51-0.13-0.82-0.13c-1.21,0-1.91,0.64-1.91,1.71
			c0,1.05,0.7,1.71,1.83,1.71c0.36,0,0.6-0.06,0.9-0.17V58.51z"/>
		<path class="st10" d="M165.12,61.25c0.48,0.38,0.91,0.61,1.51,0.61c0.71,0,1.32-0.31,1.32-1.09c0-0.71-0.53-0.98-1.24-1.24
			c-1.06-0.39-1.63-0.74-1.63-1.75s0.84-1.53,1.73-1.53c0.58,0,1.06,0.18,1.42,0.47v0.64c-0.48-0.38-0.88-0.58-1.42-0.58
			c-0.67,0-1.13,0.4-1.13,1.01c0,0.57,0.34,0.85,1.2,1.15c1.1,0.38,1.68,0.79,1.68,1.83c0,1.09-0.86,1.62-1.93,1.62
			c-0.64,0-1.15-0.18-1.51-0.46V61.25z"/>
		<path class="st10" d="M170.46,62.29h-0.62v-5.95c0.27-0.04,0.7-0.09,1.05-0.09c1.64,0,2.33,0.76,2.33,1.88
			c0,1.27-0.89,1.96-2.38,1.96c-0.11,0-0.25-0.01-0.38-0.02V62.29z M170.46,59.55c0.11,0.01,0.22,0.01,0.32,0.01
			c1.23,0,1.81-0.47,1.81-1.43c0-0.77-0.45-1.35-1.73-1.35c-0.12,0-0.26,0.01-0.4,0.02V59.55z"/>
		<path class="st10" d="M174.94,62.29h-0.62v-5.95c0.27-0.04,0.78-0.09,1.13-0.09c1.6,0,2.31,0.74,2.31,1.84
			c0,0.88-0.5,1.53-1.29,1.76l1.97,2.44h-0.77l-1.84-2.3h-0.89V62.29z M174.94,59.48h0.62c0.98,0,1.56-0.46,1.56-1.37
			c0-0.76-0.47-1.32-1.68-1.32c-0.12,0-0.36,0.01-0.5,0.02V59.48z"/>
		<path class="st10" d="M180,60.65l-0.62,1.64h-0.64l2.3-5.94h0.79l2.33,5.94h-0.66l-0.62-1.64H180z M181.43,56.86l-1.24,3.28h2.49
			L181.43,56.86z"/>
		<path class="st10" d="M186.25,62.29l-2.29-5.94h0.67l2,5.32l2-5.32h0.65l-2.29,5.94H186.25z"/>
		<path class="st10" d="M190.34,60.65l-0.62,1.64h-0.64l2.3-5.94h0.79l2.33,5.94h-0.66l-0.62-1.64H190.34z M191.77,56.86l-1.24,3.28
			h2.49L191.77,56.86z"/>
		<path class="st10" d="M196.93,62.29h-0.62v-5.4h-1.96v-0.54h4.54v0.54h-1.96V62.29z"/>
		<path class="st10" d="M202.26,56.26c1.71,0,3.07,1.25,3.07,3.07s-1.36,3.07-3.07,3.07c-1.71,0-3.07-1.25-3.07-3.07
			S200.55,56.26,202.26,56.26z M202.26,56.82c-1.34,0-2.44,0.98-2.44,2.51s1.1,2.51,2.44,2.51c1.34,0,2.44-0.98,2.44-2.51
			S203.6,56.82,202.26,56.82z"/>
		<path class="st10" d="M206.18,59.63V59.1h1.63v-1.63h0.53v1.63h1.63v0.53h-1.63v1.63h-0.53v-1.63H206.18z"/>
		<path class="st10" d="M210.79,61.25c0.48,0.38,0.91,0.61,1.51,0.61c0.71,0,1.32-0.31,1.32-1.09c0-0.71-0.53-0.98-1.24-1.24
			c-1.06-0.39-1.63-0.74-1.63-1.75s0.84-1.53,1.73-1.53c0.58,0,1.06,0.18,1.42,0.47v0.64c-0.48-0.38-0.88-0.58-1.42-0.58
			c-0.67,0-1.13,0.4-1.13,1.01c0,0.57,0.34,0.85,1.2,1.15c1.1,0.38,1.68,0.79,1.68,1.83c0,1.09-0.86,1.62-1.93,1.62
			c-0.64,0-1.15-0.18-1.51-0.46V61.25z"/>
		<path class="st10" d="M218.18,56.26c1.71,0,3.07,1.25,3.07,3.07s-1.36,3.07-3.07,3.07c-1.71,0-3.07-1.25-3.07-3.07
			S216.47,56.26,218.18,56.26z M218.18,56.82c-1.34,0-2.44,0.98-2.44,2.51s1.1,2.51,2.44,2.51c1.34,0,2.44-0.98,2.44-2.51
			S219.52,56.82,218.18,56.82z"/>
		<path class="st10" d="M226.91,57.43c-0.43-0.41-1.02-0.61-1.65-0.61c-1.34,0-2.43,0.98-2.43,2.51s1.09,2.51,2.43,2.51
			c0.63,0,1.25-0.19,1.68-0.59v0.71c-0.47,0.28-1.07,0.44-1.67,0.44c-1.8,0-3.07-1.25-3.07-3.07c0-1.83,1.36-3.07,3.07-3.07
			c0.6,0,1.16,0.16,1.64,0.45V57.43z"/>
		<path class="st10" d="M173.75,68.65h2.87v1.26h-2.87V68.65z"/>
		<path class="st10" d="M176.92,66.28l2.54-0.41v6.03h-1.47v-4.41l-1.07,0.13V66.28z"/>
		<path class="st10" d="M183.6,65.96l-0.79,1.35l-0.4,0.64c0.07-0.02,0.21-0.04,0.32-0.04c0.99,0,1.95,0.69,1.95,1.97
			c0,1.2-0.89,2.12-2.27,2.12c-1.33,0-2.16-0.92-2.16-2.12c0-0.81,0.46-1.61,0.73-2.07l1.08-1.85H183.6z M182.43,70.77
			c0.46,0,0.83-0.32,0.83-0.86c0-0.55-0.37-0.87-0.83-0.87c-0.45,0-0.82,0.32-0.82,0.87C181.62,70.45,181.99,70.77,182.43,70.77z"/>
		<path class="st10" d="M186.04,70.16c0.5,0,0.91,0.41,0.91,0.91s-0.41,0.9-0.91,0.9s-0.9-0.4-0.9-0.9S185.54,70.16,186.04,70.16z"
			/>
		<path class="st10" d="M189.68,65.86c1.42,0,2.36,1.26,2.36,3.08c0,1.8-0.94,3.06-2.36,3.06c-1.43,0-2.37-1.26-2.37-3.06
			C187.32,67.11,188.26,65.86,189.68,65.86z M189.68,70.73c0.53,0,0.89-0.58,0.89-1.8c0-1.24-0.36-1.82-0.89-1.82
			c-0.54,0-0.89,0.58-0.89,1.82C188.8,70.15,189.15,70.73,189.68,70.73z"/>
	</g>
</g>
<g>
	<path class="st7" d="M336.21,19.35h-1.49v-5.89c0.5-0.08,1.28-0.15,1.94-0.15c1.47,0,2.52,0.68,2.52,2.19
		c0,1.55-1.19,2.13-2.44,2.13c-0.18,0-0.41-0.01-0.53-0.02V19.35z M336.21,16.34c0.07,0.01,0.28,0.02,0.45,0.02
		c0.61,0,1.02-0.25,1.02-0.86c0-0.63-0.48-0.86-1.02-0.86c-0.12,0-0.33,0.01-0.45,0.03V16.34z"/>
	<path class="st7" d="M341.4,19.35h-1.42v-4.17c0.5-0.26,1.18-0.4,1.84-0.4c0.39,0,0.64,0.03,1,0.13v1.37
		c-0.3-0.13-0.62-0.17-0.94-0.17c-0.15,0-0.31,0.02-0.48,0.06V19.35z"/>
	<path class="st7" d="M343.46,13.5c0-0.46,0.37-0.82,0.82-0.82c0.43,0,0.81,0.36,0.81,0.82c0,0.45-0.38,0.81-0.81,0.81
		C343.83,14.31,343.46,13.95,343.46,13.5z M344.99,19.35h-1.42v-4.5h1.42V19.35z"/>
	<path class="st7" d="M351.39,16.61c0-0.35-0.1-0.62-0.57-0.62c-0.25,0-0.5,0.06-0.68,0.15c0.03,0.07,0.07,0.19,0.07,0.37v2.84
		h-1.42v-2.74c0-0.35-0.11-0.62-0.56-0.62c-0.22,0-0.37,0.03-0.6,0.09v3.27h-1.42v-4.2c0.64-0.24,1.42-0.4,2.1-0.4
		c0.53,0,0.98,0.14,1.25,0.36c0.36-0.18,0.79-0.36,1.48-0.36c1.07,0,1.77,0.41,1.77,1.8v2.8h-1.42V16.61z"/>
	<path class="st7" d="M356.15,16.48c0-0.39-0.35-0.53-0.76-0.53c-0.53,0-0.95,0.16-1.29,0.37v-1.2c0.41-0.24,0.96-0.37,1.55-0.37
		c1.08,0,1.9,0.41,1.9,1.67v2.83c-0.44,0.1-1.2,0.2-1.84,0.2c-1.11,0-2.01-0.33-2.01-1.41c0-0.95,0.74-1.38,1.97-1.38h0.48V16.48z
		 M356.15,17.52h-0.38c-0.44,0-0.66,0.14-0.66,0.45c0,0.31,0.22,0.46,0.58,0.46c0.12,0,0.32-0.01,0.46-0.04V17.52z"/>
	<path class="st7" d="M360.1,19.35h-1.42v-4.17c0.5-0.26,1.18-0.4,1.84-0.4c0.39,0,0.64,0.03,1,0.13v1.37
		c-0.3-0.13-0.62-0.17-0.94-0.17c-0.15,0-0.31,0.02-0.48,0.06V19.35z"/>
	<path class="st7" d="M364.37,17.78l1.01-2.93h1.48l-2.46,6.3H363l0.65-1.71l-1.84-4.59h1.53L364.37,17.78z"/>
	<path class="st7" d="M370.46,17.54v0.02c0.12,0.48,0.69,0.68,1.21,0.68c0.59,0,1.05-0.13,1.49-0.36v1.17
		c-0.42,0.28-1.04,0.4-1.65,0.4c-1.52,0-2.42-0.9-2.42-2.28c0-1.52,0.94-2.42,2.22-2.42c1.49,0,1.97,1.01,1.97,2.18v0.61H370.46z
		 M371.98,16.74c0-0.43-0.18-0.83-0.7-0.83c-0.46,0-0.73,0.34-0.81,0.83H371.98z"/>
	<path class="st7" d="M378.69,19.35h-1.42v-3.32h-1.42v3.32h-1.42v-3.32h-0.71v-1.18h0.71V14.4c0-1.25,0.74-1.79,1.65-1.79
		c0.3,0,0.56,0.06,0.78,0.17v1.3c-0.16-0.11-0.33-0.15-0.54-0.15c-0.3,0-0.47,0.2-0.47,0.54v0.38h1.42v-0.36
		c0-1.4,0.99-2.04,2.05-2.04c0.59,0,0.94,0.11,1.23,0.3v1.32c-0.28-0.19-0.56-0.31-1.02-0.31c-0.44,0-0.84,0.2-0.84,0.75v0.34h2.84
		v4.5h-1.42v-3.32h-1.42V19.35z"/>
	<path class="st7" d="M386.08,16.4c-0.37-0.31-0.71-0.41-1.12-0.41c-0.68,0-1.12,0.41-1.12,1.1c0,0.64,0.42,1.12,1.17,1.12
		c0.41,0,0.78-0.13,1.09-0.39v1.3c-0.38,0.25-0.83,0.33-1.3,0.33c-1.51,0-2.39-0.94-2.39-2.34c0-1.39,0.97-2.36,2.39-2.36
		c0.52,0,0.9,0.1,1.28,0.33V16.4z"/>
	<path class="st7" d="M389.24,16.48c0-0.39-0.35-0.53-0.76-0.53c-0.53,0-0.95,0.16-1.29,0.37v-1.2c0.41-0.24,0.96-0.37,1.55-0.37
		c1.08,0,1.9,0.41,1.9,1.67v2.83c-0.44,0.1-1.2,0.2-1.84,0.2c-1.11,0-2.01-0.33-2.01-1.41c0-0.95,0.74-1.38,1.97-1.38h0.48V16.48z
		 M389.24,17.52h-0.38c-0.44,0-0.66,0.14-0.66,0.45c0,0.31,0.22,0.46,0.58,0.46c0.12,0,0.32-0.01,0.46-0.04V17.52z"/>
	<path class="st7" d="M395.11,16.4c-0.37-0.31-0.71-0.41-1.12-0.41c-0.68,0-1.12,0.41-1.12,1.1c0,0.64,0.42,1.12,1.17,1.12
		c0.41,0,0.78-0.13,1.09-0.39v1.3c-0.38,0.25-0.83,0.33-1.3,0.33c-1.51,0-2.39-0.94-2.39-2.34c0-1.39,0.97-2.36,2.39-2.36
		c0.52,0,0.9,0.1,1.28,0.33V16.4z"/>
	<path class="st7" d="M398.09,17.78l1.01-2.93h1.48l-2.46,6.3h-1.4l0.65-1.71l-1.84-4.59h1.53L398.09,17.78z"/>
	<path class="st7" d="M404.18,17.54v0.02c0.12,0.48,0.69,0.68,1.21,0.68c0.59,0,1.05-0.13,1.49-0.36v1.17
		c-0.42,0.28-1.04,0.4-1.65,0.4c-1.52,0-2.42-0.9-2.42-2.28c0-1.52,0.94-2.42,2.22-2.42c1.49,0,1.97,1.01,1.97,2.18v0.61H404.18z
		 M405.7,16.74c0-0.43-0.18-0.83-0.7-0.83c-0.46,0-0.73,0.34-0.81,0.83H405.7z"/>
	<path class="st7" d="M407.97,15.17c0.65-0.26,1.54-0.42,2.24-0.42c1.18,0,1.96,0.43,1.96,1.85v2.75h-1.42v-2.69
		c0-0.36-0.15-0.64-0.64-0.64c-0.23,0-0.5,0.03-0.72,0.11v3.22h-1.42V15.17z"/>
	<path class="st7" d="M417.53,19.22c-0.56,0.15-1.31,0.23-1.96,0.23c-1.56,0-2.58-0.82-2.58-2.34c0-1.39,0.9-2.36,2.33-2.36
		c0.3,0,0.6,0.04,0.79,0.12v-2.32h1.42V19.22z M416.11,16.12c-0.18-0.09-0.4-0.13-0.66-0.13c-0.63,0-1.02,0.4-1.02,1.07
		c0,0.76,0.44,1.18,1.19,1.18c0.11,0,0.32-0.01,0.49-0.04V16.12z"/>
	<path class="st7" d="M418.7,15.16c0.51-0.22,1.3-0.41,2.1-0.41c1.45,0,2.47,0.85,2.47,2.23c0,1.59-0.93,2.47-2.52,2.47
		c-0.28,0-0.51-0.03-0.63-0.06v1.76h-1.42V15.16z M420.12,18.15c0.12,0.04,0.33,0.07,0.51,0.07c0.66,0,1.2-0.33,1.2-1.18
		c0-0.67-0.46-1.02-1.06-1.02c-0.2,0-0.46,0.03-0.65,0.1V18.15z"/>
	<path class="st7" d="M426.26,14.75c1.35,0,2.39,0.95,2.39,2.35s-1.04,2.35-2.39,2.35c-1.34,0-2.38-0.95-2.38-2.35
		S424.92,14.75,426.26,14.75z M426.26,15.97c-0.55,0-0.95,0.42-0.95,1.13s0.4,1.13,0.95,1.13c0.56,0,0.96-0.42,0.96-1.13
		S426.82,15.97,426.26,15.97z"/>
	<path class="st7" d="M429.43,13.5c0-0.46,0.37-0.82,0.82-0.82c0.43,0,0.81,0.36,0.81,0.82c0,0.45-0.38,0.81-0.81,0.81
		C429.8,14.31,429.43,13.95,429.43,13.5z M430.96,19.35h-1.42v-4.5h1.42V19.35z"/>
	<path class="st7" d="M432.18,15.17c0.65-0.26,1.54-0.42,2.24-0.42c1.18,0,1.96,0.43,1.96,1.85v2.75h-1.42v-2.69
		c0-0.36-0.15-0.64-0.64-0.64c-0.23,0-0.5,0.03-0.72,0.11v3.22h-1.42V15.17z"/>
	<path class="st7" d="M436.92,14.85h0.67v-1.11H439v1.11h1.29v1.18H439v1.48c0,0.5,0.25,0.63,0.59,0.63c0.31,0,0.58-0.09,0.82-0.25
		v1.3c-0.34,0.18-0.75,0.26-1.22,0.26c-0.82,0-1.6-0.39-1.6-1.53v-1.89h-0.67V14.85z"/>
	<path class="st7" d="M442.02,15.04c0.5,0,0.91,0.41,0.91,0.91c0,0.5-0.41,0.9-0.91,0.9s-0.9-0.4-0.9-0.9
		C441.12,15.45,441.52,15.04,442.02,15.04z M442.02,17.62c0.5,0,0.91,0.41,0.91,0.91c0,0.5-0.41,0.9-0.91,0.9s-0.9-0.4-0.9-0.9
		C441.12,18.03,441.52,17.62,442.02,17.62z"/>
</g>
</svg>
