<?xml version="1.0" encoding="utf-8"?>
<svg version="1.1" id="Layer_1" x="0px" y="0px" viewBox="0 0 46.6 57.8" style="enable-background:new 0 0 46.6 57.8;" xmlns="http://www.w3.org/2000/svg">
  <g>
    <g>
      <polygon points="24.5,36 26.3,36 26.3,31.1 29,31.1 29,29.5 26.3,29.5 26.3,26.1 29.2,26.1 29.2,24.5 24.5,24.5 &#9;&#9;&#9;" style="fill: rgb(255, 255, 255);"/>
      <path d="M11.3,24.5c-0.8,0-1.5,0.1-2.1,0.2V36H11v-4.5c0.2,0,0.3,0,0.5,0c1,0,2.1-0.4,2.8-1.2c0.5-0.6,0.9-1.4,0.9-2.5 c0-1-0.3-1.9-0.9-2.5C13.5,24.7,12.5,24.5,11.3,24.5z M11.4,30.1c-0.2,0-0.3,0-0.4,0v-4c0.2-0.1,0.4-0.1,0.6-0.1 c1.2,0,1.7,0.9,1.7,2C13.3,29.2,12.6,30.1,11.4,30.1z" style="fill: rgb(255, 255, 255);"/>
      <path d="M18.6,24.5c-0.8,0-1.5,0.1-2,0.2V36c0.4,0.1,1,0.1,1.7,0.1c1.5,0,2.6-0.4,3.4-1.2c0.9-0.8,1.5-2.4,1.5-4.9 c0-2.3-0.6-3.8-1.5-4.6C20.8,24.8,19.9,24.5,18.6,24.5z M18.8,34.6c-0.1,0-0.3,0-0.4,0V26c0.2,0,0.3-0.1,0.5-0.1 c1.6,0,2.3,1.5,2.3,4.1C21.2,33.5,20,34.6,18.8,34.6z" style="fill: rgb(255, 255, 255);"/>
      <path d="M38,38.2V14.6L23.4,0H0v50h27.1c0.9,4.5,4.9,7.8,9.6,7.8c5.4,0,9.8-4.4,9.8-9.8C46.6,43,42.8,38.9,38,38.2z M24,3.4 L34.6,14H24V3.4z M26.9,48H2V2h20v14h14v21.2v1C30.9,38.6,26.9,42.8,26.9,48z M41.2,49.1c-1.4,1.4-2.8,2.8-4.2,4.2 c-0.2,0.2-0.5,0.2-0.6,0c-1.4-1.4-2.8-2.8-4.1-4.1c0,0,0,0,0-0.1c-0.1-0.1-0.1-0.3-0.1-0.4c0.1-0.1,0.2-0.2,0.4-0.3c0,0,0,0,0,0 c0.9,0,1.9,0,2.8,0c0-1.5,0-2.9,0-4.4c0-1.7,2.6-1.7,2.6,0c0,1.5,0,2.9,0,4.4c1,0,1.9,0,2.9,0C41.3,48.3,41.4,48.8,41.2,49.1z" style="fill: rgb(255, 255, 255);"/>
    </g>
  </g>
</svg>