<?xml version="1.0" encoding="utf-8"?>
<!-- Generator: Adobe Illustrator 24.1.3, SVG Export Plug-In . SVG Version: 6.00 Build 0)  -->
<svg version="1.1" id="Layer_1" xmlns="http://www.w3.org/2000/svg" xmlns:xlink="http://www.w3.org/1999/xlink" x="0px" y="0px"
	 viewBox="0 0 252.28 290.96" style="enable-background:new 0 0 252.28 290.96;" xml:space="preserve">
<style type="text/css">
	.st0{fill:#00417B;}
	.st1{fill:#FFFFFF;}
	.st2{fill:none;}
	.st3{fill:none;stroke:#00417B;stroke-miterlimit:10;}
	.st4{fill:#FFFFFF;stroke:#00417B;stroke-width:1.2188;stroke-miterlimit:10;}
	.st5{fill:#FFFFFF;stroke:#00417B;stroke-width:1.5;stroke-miterlimit:10;}
	.st6{fill-rule:evenodd;clip-rule:evenodd;fill:none;stroke:#00417B;stroke-miterlimit:10;}
	.st7{fill:none;stroke:#00417B;stroke-width:1.5;stroke-miterlimit:2.613;}
	.st8{fill-rule:evenodd;clip-rule:evenodd;fill:#00417B;}
	.st9{fill-rule:evenodd;clip-rule:evenodd;fill:#868686;}
	.st10{fill:none;stroke:#868686;stroke-miterlimit:2.613;}
	.st11{fill:none;stroke:#00417B;stroke-miterlimit:2.613;}
	.st12{fill:#333333;}
	.st13{fill:none;stroke:#00417B;stroke-width:0.75;stroke-miterlimit:10;}
	.st14{fill:#868686;}
	.st15{fill:none;stroke:#00417B;stroke-miterlimit:8;}
	.st16{fill:#4CA5DD;}
</style>
<path class="st0" d="M208.94,28.5H43.35c-6.07,0-10.98-4.92-10.98-10.98v-2.75c0-6.07,4.92-10.98,10.98-10.98h165.59
	c6.07,0,10.98,4.92,10.98,10.98v2.75C219.92,23.59,215,28.5,208.94,28.5z"/>
<g>
	<g>
		<path class="st1" d="M82.33,18.44c0.59,0.45,1.31,0.82,2.21,0.82c0.61,0,1.13-0.18,1.13-0.72c0-0.49-0.42-0.66-1.23-0.86
			c-1.66-0.42-2.28-1.17-2.28-2.51c0-1.58,1.2-2.48,2.78-2.48c0.96,0,1.62,0.23,2.21,0.58v1.97c-0.62-0.51-1.31-0.84-2.13-0.84
			c-0.61,0-0.9,0.27-0.9,0.65c0,0.51,0.46,0.68,1.31,0.89c1.65,0.43,2.21,1.2,2.21,2.54c0,1.74-1.39,2.5-3.09,2.5
			c-0.89,0-1.7-0.24-2.23-0.57V18.44z"/>
		<path class="st1" d="M91.77,16.97c0-0.53-0.47-0.72-1.03-0.72c-0.72,0-1.28,0.22-1.74,0.5v-1.62c0.55-0.32,1.3-0.5,2.09-0.5
			c1.46,0,2.57,0.55,2.57,2.26v3.82c-0.59,0.14-1.62,0.27-2.48,0.27c-1.5,0-2.71-0.45-2.71-1.9c0-1.28,1-1.86,2.66-1.86h0.65V16.97z
			 M91.77,18.38h-0.51c-0.59,0-0.89,0.19-0.89,0.61c0,0.42,0.3,0.62,0.78,0.62c0.16,0,0.43-0.01,0.62-0.05V18.38z"/>
		<path class="st1" d="M97.34,20.85h-1.92v-4.48h-0.96v-1.59h0.96v-0.74c0-1.77,1-2.5,2.36-2.5c0.5,0,0.89,0.09,1.3,0.3v1.74
			c-0.37-0.22-0.63-0.3-1.01-0.3c-0.5,0-0.73,0.27-0.73,0.73v0.77h1.42v1.59h-1.42V20.85z"/>
		<path class="st1" d="M101.07,18.4v0.03c0.16,0.65,0.93,0.92,1.63,0.92c0.8,0,1.42-0.18,2.01-0.49v1.58
			c-0.57,0.38-1.4,0.54-2.23,0.54c-2.05,0-3.27-1.22-3.27-3.08c0-2.05,1.27-3.27,3-3.27c2.01,0,2.66,1.36,2.66,2.94v0.82H101.07z
			 M103.12,17.32c0-0.58-0.24-1.12-0.95-1.12c-0.62,0-0.99,0.46-1.09,1.12H103.12z"/>
		<path class="st1" d="M105.43,14.77h0.9v-1.5h1.9v1.5h1.74v1.59h-1.74v2c0,0.68,0.34,0.85,0.8,0.85c0.42,0,0.78-0.12,1.11-0.34
			v1.76c-0.46,0.24-1.01,0.35-1.65,0.35c-1.11,0-2.16-0.53-2.16-2.07v-2.55h-0.9V14.77z"/>
		<path class="st1" d="M113.93,18.73l1.36-3.96h2l-3.32,8.51h-1.89l0.88-2.31l-2.49-6.2h2.07L113.93,18.73z"/>
		<path class="st1" d="M122.75,20.85h-2v-7.98c0.63-0.11,1.7-0.18,2.54-0.18c2.05,0,3.43,0.86,3.43,2.78c0,1.15-0.65,1.96-1.45,2.38
			l2.15,3h-2.36l-1.73-2.57h-0.58V20.85z M122.75,16.63h0.5c0.84,0,1.43-0.28,1.43-1.11c0-0.81-0.62-1.09-1.38-1.09
			c-0.16,0-0.45,0.01-0.55,0.03V16.63z"/>
		<path class="st1" d="M129.58,18.4v0.03c0.16,0.65,0.93,0.92,1.63,0.92c0.8,0,1.42-0.18,2.01-0.49v1.58
			c-0.57,0.38-1.4,0.54-2.23,0.54c-2.05,0-3.27-1.22-3.27-3.08c0-2.05,1.27-3.27,3-3.27c2.01,0,2.66,1.36,2.66,2.94v0.82H129.58z
			 M131.63,17.32c0-0.58-0.24-1.12-0.95-1.12c-0.62,0-0.99,0.46-1.09,1.12H131.63z"/>
		<path class="st1" d="M134.51,18.8c0.61,0.41,1.45,0.66,2.01,0.66c0.42,0,0.72-0.11,0.72-0.38c0-0.24-0.18-0.38-0.74-0.46
			c-1.47-0.2-2.09-0.78-2.09-1.93c0-1.42,1.08-2.05,2.46-2.05c0.77,0,1.28,0.16,1.82,0.46v1.63c-0.59-0.38-1.15-0.57-1.74-0.57
			c-0.51,0-0.67,0.19-0.67,0.39c0,0.23,0.17,0.35,0.62,0.42c1.74,0.28,2.21,0.95,2.21,2.04c0,1.35-1.01,1.97-2.52,1.97
			c-0.74,0-1.53-0.18-2.07-0.5V18.8z"/>
		<path class="st1" d="M145.77,20.63c-0.69,0.22-1.84,0.35-2.63,0.35c-1.75,0-2.89-0.53-2.89-2.42v-3.79h1.92v3.62
			c0,0.66,0.15,1.03,0.97,1.03c0.16,0,0.46-0.03,0.72-0.08v-4.56h1.92V20.63z"/>
		<path class="st1" d="M149.33,20.85h-1.92v-9.18h1.92V20.85z"/>
		<path class="st1" d="M150.15,14.77h0.9v-1.5h1.9v1.5h1.74v1.59h-1.74v2c0,0.68,0.34,0.85,0.8,0.85c0.42,0,0.78-0.12,1.11-0.34
			v1.76c-0.46,0.24-1.01,0.35-1.65,0.35c-1.11,0-2.16-0.53-2.16-2.07v-2.55h-0.9V14.77z"/>
		<path class="st1" d="M155.84,18.8c0.61,0.41,1.45,0.66,2.01,0.66c0.42,0,0.72-0.11,0.72-0.38c0-0.24-0.18-0.38-0.74-0.46
			c-1.47-0.2-2.09-0.78-2.09-1.93c0-1.42,1.08-2.05,2.46-2.05c0.77,0,1.28,0.16,1.82,0.46v1.63c-0.59-0.38-1.15-0.57-1.74-0.57
			c-0.51,0-0.67,0.19-0.67,0.39c0,0.23,0.17,0.35,0.62,0.42c1.74,0.28,2.21,0.95,2.21,2.04c0,1.35-1.01,1.97-2.52,1.97
			c-0.74,0-1.53-0.18-2.07-0.5V18.8z"/>
		<path class="st1" d="M161.12,12.03c0.42-0.32,0.9-0.43,1.37-0.43c0.87,0,1.44,0.45,1.44,1.24c0,0.61-0.32,0.94-0.76,1.15
			c0.55,0.18,0.85,0.54,0.85,1.11c0,0.97-0.87,1.33-1.69,1.33c-0.6,0-0.98-0.15-1.3-0.35V15c0.28,0.24,0.7,0.47,1.2,0.47
			c0.35,0,0.62-0.14,0.62-0.46c0-0.39-0.32-0.52-0.98-0.52v-0.91c0.61,0,0.89-0.21,0.89-0.57c0-0.28-0.2-0.4-0.47-0.4
			c-0.42,0-0.87,0.26-1.17,0.5V12.03z"/>
		<path class="st1" d="M165.77,15.37c0,0.91-0.36,1.52-0.82,1.87h-0.8c0.38-0.58,0.49-1.17,0.49-1.87H165.77z"/>
		<path class="st1" d="M169.55,14.37h0.63v0.91h-0.63v1.07h-1.12v-1.07h-2.19v-0.94l2.2-2.66h1.11V14.37z M167.34,14.37h1.09v-1.35
			L167.34,14.37z"/>
	</g>
</g>
<path class="st3" d="M235.5,254.96h-98.13c-3.13,0-5.67-2.54-5.67-5.67V65.04c0-3.13,2.54-5.67,5.67-5.67h98.13
	c3.13,0,5.67,2.54,5.67,5.67v184.25C241.17,252.42,238.63,254.96,235.5,254.96z"/>
<path class="st3" d="M114.91,254.96H16.79c-3.13,0-5.67-2.54-5.67-5.67V65.04c0-3.13,2.54-5.67,5.67-5.67h98.13
	c3.13,0,5.67,2.54,5.67,5.67v184.25C120.58,252.42,118.04,254.96,114.91,254.96z"/>
<g>
	<path class="st0" d="M13.04,272.55c0.6,0,1.08,0.48,1.08,1.08s-0.48,1.08-1.08,1.08s-1.08-0.48-1.08-1.08
		S12.44,272.55,13.04,272.55z"/>
	<path class="st0" d="M21.31,269.9l2.22-0.4v7.23H22.8v-6.42l-1.49,0.23V269.9z"/>
	<path class="st0" d="M32.3,276.66c-0.56,0.13-1.15,0.19-1.7,0.19c-1.81,0-3.03-0.98-3.03-2.73c0-1.76,1.32-2.73,2.88-2.73
		c0.4,0,0.88,0.08,1.14,0.24v-3.05h0.72V276.66z M31.58,272.27c-0.26-0.14-0.66-0.24-1.14-0.24c-1.21,0-2.15,0.74-2.15,2.09
		c0,1.33,0.92,2.1,2.3,2.1c0.34,0,0.67-0.01,0.98-0.06V272.27z"/>
	<path class="st0" d="M34.43,274.15v0.02c0,1.28,0.92,2.04,1.94,2.04c0.74,0,1.26-0.19,1.79-0.59v0.72c-0.47,0.35-1.14,0.5-1.79,0.5
		c-1.51,0-2.66-1.03-2.66-2.73c0-1.57,1.08-2.73,2.48-2.73c1.32,0,2.2,0.79,2.2,2.28v0.49H34.43z M37.66,273.55
		c-0.05-1.09-0.64-1.54-1.51-1.54c-0.82,0-1.47,0.55-1.68,1.54H37.66z"/>
	<path class="st0" d="M42.54,273.07c0-0.67-0.43-1.02-1.1-1.02c-0.6,0-1.06,0.17-1.54,0.42v-0.68c0.44-0.24,1.01-0.41,1.62-0.41
		c1.05,0,1.74,0.47,1.74,1.64v3.61c-0.48,0.13-1.04,0.19-1.49,0.19c-1.42,0-2.36-0.44-2.36-1.55c0-1.03,0.95-1.57,2.54-1.57h0.59
		V273.07z M42.54,274.3H42c-1.08,0-1.87,0.29-1.87,0.98c0,0.7,0.72,0.95,1.68,0.95c0.22,0,0.48-0.02,0.73-0.07V274.3z"/>
	<path class="st0" d="M44.25,271.5h0.8v-1.27h0.72v1.27h1.48v0.61h-1.48v3.19c0,0.67,0.26,0.94,0.76,0.94
		c0.34,0,0.61-0.11,0.97-0.29v0.64c-0.31,0.16-0.67,0.26-1.13,0.26c-0.76,0-1.32-0.4-1.32-1.48v-3.26h-0.8V271.5z"/>
	<path class="st0" d="M48.77,268.58h0.72v3.08c0.4-0.14,0.98-0.28,1.54-0.28c1.26,0,2.06,0.52,2.06,1.82v3.53h-0.72v-3.38
		c0-1.07-0.75-1.29-1.46-1.29c-0.55,0-1.06,0.12-1.42,0.24v4.44h-0.72V268.58z"/>
	<path class="st0" d="M56.93,269.87c0-0.3,0.25-0.54,0.54-0.54c0.3,0,0.54,0.24,0.54,0.54c0,0.29-0.24,0.54-0.54,0.54
		C57.18,270.41,56.93,270.16,56.93,269.87z M57.82,276.73H57.1v-5.23h0.72V276.73z"/>
	<path class="st0" d="M59.62,271.78c0.7-0.25,1.49-0.4,2.2-0.4c1.32,0,2.12,0.52,2.12,1.82v3.53h-0.72v-3.38
		c0-1.07-0.75-1.29-1.46-1.29c-0.55,0-1.04,0.1-1.42,0.19v4.49h-0.72V271.78z"/>
	<path class="st0" d="M68.83,276.73h-0.72v-4.62h-0.8v-0.61h0.8v-1.31c0-1.09,0.56-1.74,1.61-1.74c0.4,0,0.68,0.08,0.94,0.26v0.68
		c-0.25-0.18-0.54-0.31-0.92-0.31c-0.55,0-0.9,0.26-0.9,1.12v1.3h1.44v0.61h-1.44V276.73z"/>
	<path class="st0" d="M73.42,271.38c1.56,0,2.63,1.12,2.63,2.73s-1.07,2.73-2.63,2.73c-1.56,0-2.63-1.12-2.63-2.73
		S71.86,271.38,73.42,271.38z M73.42,272.01c-1.1,0-1.89,0.84-1.89,2.11s0.79,2.11,1.89,2.11c1.1,0,1.9-0.84,1.9-2.11
		S74.53,272.01,73.42,272.01z"/>
	<path class="st0" d="M78.18,276.73h-0.72v-8.16h0.72V276.73z"/>
	<path class="st0" d="M80.69,276.73h-0.72v-8.16h0.72V276.73z"/>
	<path class="st0" d="M84.73,271.38c1.56,0,2.63,1.12,2.63,2.73s-1.07,2.73-2.63,2.73c-1.56,0-2.63-1.12-2.63-2.73
		S83.17,271.38,84.73,271.38z M84.73,272.01c-1.1,0-1.89,0.84-1.89,2.11s0.79,2.11,1.89,2.11c1.1,0,1.9-0.84,1.9-2.11
		S85.83,272.01,84.73,272.01z"/>
	<path class="st0" d="M93.39,276.07l1.31-4.57h0.72l-1.58,5.23h-0.88l-1.26-4.45l-1.26,4.45h-0.88l-1.58-5.23h0.76l1.31,4.57
		l1.29-4.57h0.74L93.39,276.07z"/>
	<path class="st0" d="M96.38,273.3h2.58v0.65h-2.58V273.3z"/>
	<path class="st0" d="M104.78,276.67c-0.64,0.12-1.28,0.18-1.82,0.18c-1.51,0-2.38-0.52-2.38-1.82v-3.53h0.72v3.49
		c0,0.98,0.78,1.24,1.61,1.24c0.36,0,0.77-0.02,1.15-0.07v-4.65h0.72V276.67z"/>
	<path class="st0" d="M106.58,271.72c0.48-0.18,1.15-0.34,1.82-0.34c1.8,0,2.89,0.94,2.89,2.73c0,1.7-1.13,2.73-2.84,2.73
		c-0.42,0-0.88-0.08-1.15-0.22v2.25h-0.72V271.72z M107.3,276.01c0.34,0.14,0.71,0.22,1.15,0.22c1.27,0,2.11-0.78,2.11-2.11
		c0-1.28-0.78-2.08-2.16-2.08c-0.41,0-0.83,0.05-1.1,0.14V276.01z"/>
	<path class="st0" d="M114.98,271.72c0.48-0.18,1.15-0.34,1.82-0.34c1.8,0,2.89,0.94,2.89,2.73c0,1.7-1.13,2.73-2.84,2.73
		c-0.42,0-0.88-0.08-1.15-0.22v2.25h-0.72V271.72z M115.7,276.01c0.34,0.14,0.71,0.22,1.15,0.22c1.27,0,2.11-0.78,2.11-2.11
		c0-1.28-0.78-2.08-2.16-2.08c-0.41,0-0.83,0.05-1.1,0.14V276.01z"/>
	<path class="st0" d="M121.1,268.58h0.72v3.08c0.4-0.14,0.98-0.28,1.54-0.28c1.26,0,2.06,0.52,2.06,1.82v3.53h-0.72v-3.38
		c0-1.07-0.75-1.29-1.46-1.29c-0.55,0-1.06,0.12-1.42,0.24v4.44h-0.72V268.58z"/>
	<path class="st0" d="M129.87,273.07c0-0.67-0.43-1.02-1.1-1.02c-0.6,0-1.06,0.17-1.54,0.42v-0.68c0.44-0.24,1.01-0.41,1.62-0.41
		c1.05,0,1.74,0.47,1.74,1.64v3.61c-0.48,0.13-1.04,0.19-1.49,0.19c-1.42,0-2.36-0.44-2.36-1.55c0-1.03,0.95-1.57,2.54-1.57h0.59
		V273.07z M129.87,274.3h-0.54c-1.08,0-1.87,0.29-1.87,0.98c0,0.7,0.72,0.95,1.68,0.95c0.22,0,0.48-0.02,0.73-0.07V274.3z"/>
	<path class="st0" d="M131.99,275.62c0.44,0.4,0.9,0.62,1.47,0.62c0.66,0,1.08-0.25,1.08-0.84c0-0.62-0.46-0.79-1.28-1.07
		c-0.92-0.31-1.32-0.7-1.32-1.54c0-0.92,0.7-1.42,1.64-1.42c0.52,0,1.02,0.11,1.43,0.4v0.78c-0.41-0.34-0.83-0.56-1.43-0.56
		c-0.58,0-0.95,0.31-0.95,0.8c0,0.48,0.29,0.73,1.09,0.98c0.91,0.28,1.52,0.62,1.52,1.57c0,1.03-0.8,1.5-1.79,1.5
		c-0.59,0-1.15-0.17-1.47-0.42V275.62z"/>
	<path class="st0" d="M136.96,274.15v0.02c0,1.28,0.92,2.04,1.94,2.04c0.74,0,1.26-0.19,1.79-0.59v0.72
		c-0.47,0.35-1.14,0.5-1.79,0.5c-1.51,0-2.66-1.03-2.66-2.73c0-1.57,1.08-2.73,2.48-2.73c1.32,0,2.2,0.79,2.2,2.28v0.49H136.96z
		 M140.2,273.55c-0.05-1.09-0.64-1.54-1.51-1.54c-0.82,0-1.47,0.55-1.68,1.54H140.2z"/>
	<path class="st0" d="M144.4,269.87c0-0.3,0.25-0.54,0.54-0.54c0.3,0,0.54,0.24,0.54,0.54c0,0.29-0.24,0.54-0.54,0.54
		C144.65,270.41,144.4,270.16,144.4,269.87z M145.3,276.73h-0.72v-5.23h0.72V276.73z"/>
	<path class="st0" d="M147.1,271.78c0.7-0.25,1.49-0.4,2.2-0.4c1.32,0,2.12,0.52,2.12,1.82v3.53h-0.72v-3.38
		c0-1.07-0.75-1.29-1.46-1.29c-0.55,0-1.04,0.1-1.42,0.19v4.49h-0.72V271.78z"/>
	<path class="st0" d="M156.17,274.76l-0.74,1.97h-0.77l2.76-7.12h0.95l2.79,7.12h-0.79l-0.74-1.97H156.17z M157.89,270.21
		l-1.49,3.93h2.99L157.89,270.21z"/>
	<path class="st0" d="M161.85,275.48c0.58,0.46,1.09,0.73,1.81,0.73c0.85,0,1.58-0.37,1.58-1.31c0-0.85-0.64-1.17-1.49-1.49
		c-1.27-0.47-1.96-0.89-1.96-2.1c0-1.21,1.01-1.83,2.07-1.83c0.7,0,1.27,0.22,1.7,0.56v0.77c-0.58-0.46-1.05-0.7-1.7-0.7
		c-0.8,0-1.35,0.48-1.35,1.21c0,0.68,0.41,1.02,1.44,1.38c1.32,0.46,2.02,0.95,2.02,2.19c0,1.31-1.03,1.94-2.32,1.94
		c-0.77,0-1.38-0.22-1.81-0.55V275.48z"/>
	<path class="st0" d="M168.26,276.73h-0.74v-7.14c0.32-0.05,0.84-0.11,1.26-0.11c1.97,0,2.79,0.91,2.79,2.25
		c0,1.52-1.07,2.35-2.85,2.35c-0.13,0-0.3-0.01-0.46-0.02V276.73z M168.26,273.45c0.13,0.01,0.26,0.01,0.38,0.01
		c1.48,0,2.17-0.56,2.17-1.71c0-0.92-0.54-1.62-2.07-1.62c-0.14,0-0.31,0.01-0.48,0.02V273.45z"/>
	<path class="st0" d="M173.63,276.73h-0.74v-7.12h0.74V276.73z"/>
	<path class="st0" d="M176.42,276.73h-0.74v-7.14c0.32-0.05,0.94-0.11,1.36-0.11c1.92,0,2.77,0.89,2.77,2.21
		c0,1.06-0.6,1.83-1.55,2.11l2.36,2.93h-0.92l-2.21-2.76h-1.07V276.73z M176.42,273.36h0.74c1.17,0,1.87-0.55,1.87-1.64
		c0-0.91-0.56-1.58-2.02-1.58c-0.14,0-0.43,0.01-0.6,0.02V273.36z"/>
	<path class="st0" d="M185.74,276.08v0.65h-4.1v-7.12h4.05v0.65h-3.31v2.52h3.09v0.65h-3.09v2.66H185.74z"/>
	<path class="st0" d="M187.18,273.3h2.58v0.65h-2.58V273.3z"/>
	<path class="st0" d="M192.36,276.73h-0.74v-7.12h0.74V276.73z"/>
</g>
<g>
	<path class="st0" d="M30.54,47.53l-1.38-4.47l-0.61,4.47h-1.76l0.97-7.12h2.13l1.49,4.82l1.4-4.82h2.15l0.97,7.12h-1.78l-0.62-4.47
		l-1.38,4.47H30.54z"/>
	<path class="st0" d="M39.5,42.01c1.62,0,2.87,1.14,2.87,2.82c0,1.68-1.25,2.82-2.87,2.82c-1.61,0-2.85-1.14-2.85-2.82
		C36.64,43.15,37.89,42.01,39.5,42.01z M39.5,43.48c-0.66,0-1.14,0.5-1.14,1.35s0.48,1.36,1.14,1.36c0.67,0,1.15-0.5,1.15-1.36
		S40.17,43.48,39.5,43.48z"/>
	<path class="st0" d="M43.27,45.71c0.54,0.36,1.28,0.59,1.79,0.59c0.37,0,0.64-0.1,0.64-0.34c0-0.22-0.16-0.34-0.66-0.41
		c-1.31-0.18-1.86-0.7-1.86-1.71c0-1.26,0.96-1.82,2.18-1.82c0.68,0,1.14,0.14,1.62,0.41v1.45c-0.53-0.34-1.02-0.5-1.55-0.5
		c-0.46,0-0.6,0.17-0.6,0.35c0,0.2,0.16,0.31,0.55,0.37c1.55,0.25,1.97,0.84,1.97,1.81c0,1.2-0.9,1.75-2.24,1.75
		c-0.66,0-1.36-0.16-1.83-0.44V45.71z"/>
	<path class="st0" d="M47.74,42.13h0.8V40.8h1.69v1.33h1.55v1.42h-1.55v1.78c0,0.6,0.3,0.76,0.71,0.76c0.37,0,0.7-0.11,0.98-0.3
		v1.56c-0.41,0.22-0.9,0.31-1.46,0.31c-0.98,0-1.92-0.47-1.92-1.83v-2.27h-0.8V42.13z"/>
	<path class="st0" d="M59.25,43.99c-0.44-0.37-0.85-0.49-1.34-0.49c-0.82,0-1.34,0.49-1.34,1.32c0,0.77,0.5,1.34,1.4,1.34
		c0.49,0,0.94-0.16,1.31-0.47v1.56c-0.46,0.3-1,0.4-1.56,0.4c-1.81,0-2.87-1.13-2.87-2.81c0-1.67,1.16-2.83,2.87-2.83
		c0.62,0,1.08,0.12,1.54,0.4V43.99z"/>
	<path class="st0" d="M62.88,42.01c1.62,0,2.87,1.14,2.87,2.82c0,1.68-1.25,2.82-2.87,2.82c-1.61,0-2.85-1.14-2.85-2.82
		C60.03,43.15,61.28,42.01,62.88,42.01z M62.88,43.48c-0.66,0-1.14,0.5-1.14,1.35s0.48,1.36,1.14,1.36c0.67,0,1.15-0.5,1.15-1.36
		S63.56,43.48,62.88,43.48z"/>
	<path class="st0" d="M73.03,44.25c0-0.42-0.12-0.74-0.68-0.74c-0.3,0-0.6,0.07-0.82,0.18c0.04,0.08,0.08,0.23,0.08,0.44v3.41h-1.7
		v-3.29c0-0.42-0.13-0.74-0.67-0.74c-0.26,0-0.44,0.04-0.72,0.11v3.92h-1.7v-5.04c0.77-0.29,1.7-0.48,2.52-0.48
		c0.64,0,1.18,0.17,1.5,0.43c0.43-0.22,0.95-0.43,1.78-0.43c1.28,0,2.12,0.49,2.12,2.16v3.36h-1.7V44.25z"/>
	<path class="st0" d="M82.35,44.25c0-0.42-0.12-0.74-0.68-0.74c-0.3,0-0.6,0.07-0.82,0.18c0.04,0.08,0.08,0.23,0.08,0.44v3.41h-1.7
		v-3.29c0-0.42-0.13-0.74-0.67-0.74c-0.26,0-0.44,0.04-0.72,0.11v3.92h-1.7v-5.04c0.77-0.29,1.7-0.48,2.52-0.48
		c0.64,0,1.18,0.17,1.5,0.43c0.43-0.22,0.95-0.43,1.78-0.43c1.28,0,2.12,0.49,2.12,2.16v3.36h-1.7V44.25z"/>
	<path class="st0" d="M87.9,42.01c1.62,0,2.87,1.14,2.87,2.82c0,1.68-1.25,2.82-2.87,2.82c-1.61,0-2.85-1.14-2.85-2.82
		C85.05,43.15,86.3,42.01,87.9,42.01z M87.9,43.48c-0.66,0-1.14,0.5-1.14,1.35s0.48,1.36,1.14,1.36c0.67,0,1.15-0.5,1.15-1.36
		S88.58,43.48,87.9,43.48z"/>
	<path class="st0" d="M91.84,42.52c0.78-0.31,1.85-0.5,2.69-0.5c1.42,0,2.35,0.52,2.35,2.22v3.3h-1.7v-3.23
		c0-0.43-0.18-0.77-0.77-0.77c-0.28,0-0.6,0.04-0.86,0.13v3.86h-1.7V42.52z"/>
	<path class="st0" d="M103.9,47.53h-1.78v-5.55h-2.13v-1.57h6.04v1.57h-2.13V47.53z"/>
	<path class="st0" d="M111.75,45.96v1.57h-4.8v-7.12h4.71v1.57h-2.95v1.22h2.69v1.54h-2.69v1.22H111.75z"/>
	<path class="st0" d="M114.65,46.18l-0.49,1.36h-1.88l2.77-7.12h2.15l2.77,7.12h-1.96l-0.48-1.36H114.65z M116.11,42.2l-0.92,2.53
		h1.82L116.11,42.2z"/>
	<path class="st0" d="M125.5,45.96v1.57h-4.8v-7.12h4.71v1.57h-2.95v1.22h2.69v1.54h-2.69v1.22H125.5z"/>
	<path class="st0" d="M126.59,45.71c0.54,0.36,1.28,0.59,1.79,0.59c0.37,0,0.64-0.1,0.64-0.34c0-0.22-0.16-0.34-0.66-0.41
		c-1.31-0.18-1.86-0.7-1.86-1.71c0-1.26,0.96-1.82,2.18-1.82c0.68,0,1.14,0.14,1.62,0.41v1.45c-0.53-0.34-1.02-0.5-1.55-0.5
		c-0.46,0-0.6,0.17-0.6,0.35c0,0.2,0.16,0.31,0.55,0.37c1.55,0.25,1.97,0.84,1.97,1.81c0,1.2-0.9,1.75-2.24,1.75
		c-0.66,0-1.36-0.16-1.83-0.44V45.71z"/>
	<path class="st0" d="M136.2,49.21c-1.19-1.1-2.13-2.79-2.13-4.92c0-2.12,0.95-3.81,2.13-4.92h0.8c-1.25,1.22-2.25,2.69-2.25,4.92
		s1.01,3.69,2.25,4.92H136.2z"/>
	<path class="st0" d="M140.83,43.73l-3.23,1.73v-0.74l1.98-1.03l-1.98-1.03v-0.74l3.23,1.73V43.73z M140.83,46.38h-3.23v-0.64h3.23
		V46.38z"/>
	<path class="st0" d="M145.66,46.88v0.65h-4.52v-0.55c1.83-1.55,3.61-3.09,3.61-4.67c0-0.92-0.55-1.35-1.32-1.35
		c-0.92,0-1.55,0.48-2.03,0.96v-0.8c0.43-0.44,1.15-0.83,2.03-0.83c1.16,0,2.05,0.62,2.05,2.03c0,1.58-1.76,3.36-3.41,4.57H145.66z"
		/>
	<path class="st0" d="M149.37,40.29c1.63,0,2.65,1.55,2.65,3.68s-1.02,3.68-2.65,3.68s-2.65-1.55-2.65-3.68
		S147.73,40.29,149.37,40.29z M149.37,47.02c1.15,0,1.91-1.26,1.91-3.05s-0.76-3.05-1.91-3.05s-1.91,1.26-1.91,3.05
		S148.21,47.02,149.37,47.02z"/>
	<path class="st0" d="M154.62,40.29c0.91,0,1.66,0.68,1.66,1.66c0,0.96-0.74,1.64-1.66,1.64c-0.9,0-1.64-0.68-1.64-1.64
		C152.98,40.97,153.72,40.29,154.62,40.29z M154.62,42.96c0.56,0,0.98-0.36,0.98-1.02c0-0.67-0.42-1.03-0.98-1.03
		c-0.55,0-0.97,0.36-0.97,1.03C153.65,42.6,154.07,42.96,154.62,42.96z M154.86,47.53h-0.7l4.28-7.12h0.7L154.86,47.53z
		 M158.66,47.65c-0.9,0-1.64-0.68-1.64-1.64c0-0.97,0.74-1.66,1.64-1.66c0.91,0,1.65,0.68,1.65,1.66
		C160.32,46.97,159.58,47.65,158.66,47.65z M158.66,44.98c-0.55,0-0.97,0.36-0.97,1.03c0,0.66,0.42,1.02,0.97,1.02
		c0.56,0,0.98-0.36,0.98-1.02C159.65,45.34,159.23,44.98,158.66,44.98z"/>
	<path class="st0" d="M163.8,40.67c0-0.3,0.25-0.54,0.54-0.54c0.3,0,0.54,0.24,0.54,0.54c0,0.29-0.24,0.54-0.54,0.54
		C164.06,41.21,163.8,40.96,163.8,40.67z M164.7,47.53h-0.72V42.3h0.72V47.53z"/>
	<path class="st0" d="M166.5,42.58c0.7-0.25,1.49-0.4,2.2-0.4c1.32,0,2.12,0.52,2.12,1.82v3.53h-0.72v-3.38
		c0-1.07-0.75-1.29-1.46-1.29c-0.55,0-1.04,0.1-1.42,0.19v4.49h-0.72V42.58z"/>
	<path class="st0" d="M175.17,44.95v0.02c0,1.28,0.92,2.04,1.94,2.04c0.74,0,1.26-0.19,1.79-0.59v0.72c-0.47,0.35-1.14,0.5-1.79,0.5
		c-1.51,0-2.66-1.03-2.66-2.73c0-1.57,1.08-2.73,2.48-2.73c1.32,0,2.2,0.79,2.2,2.28v0.49H175.17z M178.4,44.35
		c-0.05-1.09-0.64-1.54-1.51-1.54c-0.82,0-1.47,0.55-1.68,1.54H178.4z"/>
	<path class="st0" d="M180.33,40.67c0-0.3,0.25-0.54,0.54-0.54c0.3,0,0.54,0.24,0.54,0.54c0,0.29-0.24,0.54-0.54,0.54
		C180.58,41.21,180.33,40.96,180.33,40.67z M181.23,47.53h-0.72V42.3h0.72V47.53z"/>
	<path class="st0" d="M182.31,42.3h0.8v-1.27h0.72v1.27h1.48v0.61h-1.48v3.19c0,0.67,0.26,0.94,0.76,0.94
		c0.34,0,0.61-0.11,0.97-0.29v0.64c-0.31,0.16-0.67,0.26-1.13,0.26c-0.76,0-1.32-0.4-1.32-1.48v-3.26h-0.8V42.3z"/>
	<path class="st0" d="M186.82,39.38h0.72v3.08c0.4-0.14,0.98-0.28,1.54-0.28c1.26,0,2.06,0.52,2.06,1.82v3.53h-0.72v-3.38
		c0-1.07-0.75-1.29-1.46-1.29c-0.55,0-1.06,0.12-1.42,0.24v4.44h-0.72V39.38z"/>
	<path class="st0" d="M193.2,44.95v0.02c0,1.28,0.92,2.04,1.94,2.04c0.74,0,1.26-0.19,1.79-0.59v0.72c-0.47,0.35-1.14,0.5-1.79,0.5
		c-1.51,0-2.66-1.03-2.66-2.73c0-1.57,1.08-2.73,2.48-2.73c1.32,0,2.2,0.79,2.2,2.28v0.49H193.2z M196.44,44.35
		c-0.05-1.09-0.64-1.54-1.51-1.54c-0.82,0-1.47,0.55-1.68,1.54H196.44z"/>
	<path class="st0" d="M199.26,47.53h-0.72v-4.75c0.55-0.35,1.22-0.56,1.94-0.56c0.29,0,0.58,0.04,0.88,0.11v0.71
		c-0.31-0.11-0.68-0.13-0.92-0.13c-0.52,0-0.9,0.11-1.18,0.26V47.53z"/>
	<path class="st0" d="M207.49,43.87c0-0.67-0.43-1.02-1.1-1.02c-0.6,0-1.06,0.17-1.54,0.42v-0.68c0.44-0.24,1.01-0.41,1.62-0.41
		c1.06,0,1.74,0.47,1.74,1.64v3.61c-0.48,0.13-1.04,0.19-1.49,0.19c-1.42,0-2.36-0.44-2.36-1.55c0-1.03,0.95-1.57,2.54-1.57h0.59
		V43.87z M207.49,45.1h-0.54c-1.08,0-1.87,0.29-1.87,0.98s0.72,0.95,1.68,0.95c0.22,0,0.48-0.02,0.73-0.07V45.1z"/>
	<path class="st0" d="M210.65,47.53h-0.72v-4.75c0.55-0.35,1.22-0.56,1.94-0.56c0.29,0,0.58,0.04,0.88,0.11v0.71
		c-0.31-0.11-0.68-0.13-0.92-0.13c-0.52,0-0.9,0.11-1.18,0.26V47.53z"/>
	<path class="st0" d="M220.55,44.03c0-0.97-0.66-1.2-1.22-1.2c-0.62,0-1.22,0.16-1.54,0.3c0.1,0.23,0.16,0.52,0.16,0.86v3.54h-0.72
		v-3.5c0-0.97-0.64-1.2-1.24-1.2c-0.59,0-1.05,0.12-1.38,0.24v4.46h-0.72v-4.89c0.68-0.28,1.4-0.46,2.1-0.46
		c0.61,0,1.08,0.13,1.4,0.41c0.62-0.24,1.3-0.41,1.93-0.41c1.26,0,1.94,0.52,1.94,1.82v3.53h-0.72V44.03z"/>
	<path class="st0" d="M223.03,39.38c1.19,1.1,2.13,2.79,2.13,4.92c0,2.12-0.95,3.81-2.13,4.92h-0.8c1.25-1.22,2.25-2.69,2.25-4.92
		s-1.01-3.69-2.25-4.92H223.03z"/>
</g>
<g>
	<rect x="30.63" y="96.43" class="st2" width="70.44" height="55.67"/>
	<path class="st0" d="M33.04,100.61c0.29,0,0.57,0.07,0.85,0.22c0.28,0.15,0.49,0.36,0.64,0.64c0.15,0.28,0.23,0.56,0.23,0.86
		c0,0.48-0.17,0.88-0.5,1.22s-0.74,0.5-1.21,0.5c-0.48,0-0.88-0.17-1.22-0.5s-0.5-0.74-0.5-1.22c0-0.3,0.08-0.59,0.23-0.86
		c0.15-0.27,0.37-0.49,0.64-0.63C32.48,100.68,32.76,100.61,33.04,100.61z M33.05,100.91c-0.24,0-0.48,0.06-0.7,0.18
		s-0.4,0.3-0.53,0.53c-0.13,0.23-0.19,0.47-0.19,0.71c0,0.39,0.14,0.73,0.42,1.01c0.28,0.28,0.62,0.42,1.01,0.42
		c0.39,0,0.73-0.14,1.01-0.42s0.42-0.61,0.42-1.01c0-0.25-0.06-0.48-0.19-0.71c-0.13-0.23-0.3-0.41-0.53-0.53
		S33.29,100.91,33.05,100.91z"/>
	<path class="st0" d="M42.18,97.44c0.53-0.06,1.02-0.1,1.46-0.1c3.26,0,4.37,1.69,4.37,3.51c0,2-1.16,3.85-4.27,3.85
		c-0.6,0-1.05-0.05-1.56-0.11V97.44z M42.92,104.01c0.29,0.04,0.56,0.05,0.83,0.05c2.04,0,3.48-1.02,3.48-3.19
		c0-1.68-1.07-2.85-3.61-2.85c-0.23,0-0.45,0.01-0.7,0.04V104.01z"/>
	<path class="st0" d="M49.27,97.73c0-0.3,0.25-0.54,0.54-0.54c0.3,0,0.54,0.24,0.54,0.54c0,0.29-0.24,0.54-0.54,0.54
		C49.52,98.27,49.27,98.01,49.27,97.73z M50.17,104.59h-0.72v-5.23h0.72V104.59z"/>
	<path class="st0" d="M55.57,104.59h-4.08v-0.62l3.13-3.99h-2.97v-0.61h3.83v0.62l-3.18,3.99h3.27V104.59z"/>
	<path class="st0" d="M60.46,104.59h-4.08v-0.62l3.13-3.99h-2.97v-0.61h3.82v0.62l-3.18,3.99h3.27V104.59z"/>
	<path class="st0" d="M61.58,97.73c0-0.3,0.25-0.54,0.54-0.54c0.3,0,0.54,0.24,0.54,0.54c0,0.29-0.24,0.54-0.54,0.54
		C61.84,98.27,61.58,98.01,61.58,97.73z M62.48,104.59h-0.72v-5.23h0.72V104.59z"/>
	<path class="st0" d="M64.28,99.63c0.7-0.25,1.49-0.4,2.2-0.4c1.32,0,2.12,0.52,2.12,1.82v3.53h-0.72v-3.38
		c0-1.07-0.76-1.3-1.46-1.3c-0.55,0-1.04,0.1-1.42,0.19v4.49h-0.72V99.63z"/>
	<path class="st0" d="M70.67,102.01v0.02c0,1.28,0.92,2.04,1.94,2.04c0.74,0,1.26-0.19,1.79-0.59v0.72c-0.47,0.35-1.14,0.5-1.79,0.5
		c-1.51,0-2.66-1.03-2.66-2.73c0-1.57,1.08-2.73,2.48-2.73c1.32,0,2.2,0.79,2.2,2.28v0.49H70.67z M73.9,101.41
		c-0.05-1.09-0.63-1.54-1.51-1.54c-0.81,0-1.47,0.55-1.68,1.54H73.9z"/>
	<path class="st0" d="M75.75,103.47c0.44,0.4,0.9,0.62,1.47,0.62c0.66,0,1.08-0.25,1.08-0.84c0-0.62-0.46-0.79-1.28-1.07
		c-0.92-0.31-1.32-0.7-1.32-1.54c0-0.92,0.7-1.42,1.64-1.42c0.52,0,1.02,0.11,1.43,0.4v0.78c-0.41-0.34-0.83-0.56-1.43-0.56
		c-0.58,0-0.95,0.31-0.95,0.8c0,0.48,0.29,0.73,1.09,0.98c0.91,0.28,1.52,0.62,1.52,1.57c0,1.03-0.8,1.5-1.79,1.5
		c-0.59,0-1.15-0.17-1.47-0.42V103.47z"/>
	<path class="st0" d="M80.15,103.47c0.44,0.4,0.9,0.62,1.47,0.62c0.66,0,1.08-0.25,1.08-0.84c0-0.62-0.46-0.79-1.28-1.07
		c-0.92-0.31-1.32-0.7-1.32-1.54c0-0.92,0.7-1.42,1.64-1.42c0.52,0,1.02,0.11,1.43,0.4v0.78c-0.41-0.34-0.83-0.56-1.43-0.56
		c-0.57,0-0.95,0.31-0.95,0.8c0,0.48,0.29,0.73,1.09,0.98c0.91,0.28,1.52,0.62,1.52,1.57c0,1.03-0.8,1.5-1.79,1.5
		c-0.59,0-1.15-0.17-1.47-0.42V103.47z"/>
	<path class="st0" d="M33.04,120.61c0.29,0,0.57,0.07,0.85,0.22c0.28,0.15,0.49,0.36,0.64,0.64c0.15,0.28,0.23,0.56,0.23,0.86
		c0,0.48-0.17,0.88-0.5,1.22s-0.74,0.5-1.21,0.5c-0.48,0-0.88-0.17-1.22-0.5s-0.5-0.74-0.5-1.22c0-0.3,0.08-0.59,0.23-0.86
		c0.15-0.27,0.37-0.49,0.64-0.63C32.48,120.68,32.76,120.61,33.04,120.61z M33.05,120.91c-0.24,0-0.48,0.06-0.7,0.18
		s-0.4,0.3-0.53,0.53c-0.13,0.23-0.19,0.47-0.19,0.71c0,0.39,0.14,0.73,0.42,1.01c0.28,0.28,0.62,0.42,1.01,0.42
		c0.39,0,0.73-0.14,1.01-0.42s0.42-0.61,0.42-1.01c0-0.25-0.06-0.48-0.19-0.71c-0.13-0.23-0.3-0.41-0.53-0.53
		S33.29,120.91,33.05,120.91z"/>
	<path class="st0" d="M42.18,117.44c0.53-0.06,1.02-0.1,1.46-0.1c3.26,0,4.37,1.69,4.37,3.51c0,2-1.16,3.85-4.27,3.85
		c-0.6,0-1.05-0.05-1.56-0.11V117.44z M42.92,124.01c0.29,0.04,0.56,0.05,0.83,0.05c2.04,0,3.48-1.02,3.48-3.19
		c0-1.68-1.07-2.85-3.61-2.85c-0.23,0-0.45,0.01-0.7,0.04V124.01z"/>
	<path class="st0" d="M49.27,117.73c0-0.3,0.25-0.54,0.54-0.54c0.3,0,0.54,0.24,0.54,0.54c0,0.29-0.24,0.54-0.54,0.54
		C49.52,118.27,49.27,118.01,49.27,117.73z M50.17,124.59h-0.72v-5.23h0.72V124.59z"/>
	<path class="st0" d="M51.66,123.47c0.44,0.4,0.9,0.62,1.47,0.62c0.66,0,1.08-0.25,1.08-0.84c0-0.62-0.46-0.79-1.28-1.07
		c-0.92-0.31-1.32-0.7-1.32-1.54c0-0.92,0.7-1.42,1.64-1.42c0.52,0,1.02,0.11,1.43,0.4v0.78c-0.41-0.34-0.83-0.56-1.43-0.56
		c-0.58,0-0.95,0.31-0.95,0.8c0,0.48,0.29,0.73,1.09,0.98c0.91,0.28,1.52,0.62,1.52,1.57c0,1.03-0.8,1.5-1.79,1.5
		c-0.59,0-1.15-0.17-1.47-0.42V123.47z"/>
	<path class="st0" d="M56.05,123.47c0.44,0.4,0.9,0.62,1.47,0.62c0.66,0,1.08-0.25,1.08-0.84c0-0.62-0.46-0.79-1.28-1.07
		c-0.92-0.31-1.32-0.7-1.32-1.54c0-0.92,0.7-1.42,1.64-1.42c0.52,0,1.02,0.11,1.43,0.4v0.78c-0.41-0.34-0.83-0.56-1.43-0.56
		c-0.57,0-0.95,0.31-0.95,0.8c0,0.48,0.29,0.73,1.09,0.98c0.91,0.28,1.52,0.62,1.52,1.57c0,1.03-0.8,1.5-1.79,1.5
		c-0.59,0-1.15-0.17-1.47-0.42V123.47z"/>
	<path class="st0" d="M62.93,119.24c1.56,0,2.63,1.12,2.63,2.73s-1.07,2.73-2.63,2.73c-1.56,0-2.63-1.12-2.63-2.73
		S61.37,119.24,62.93,119.24z M62.93,119.86c-1.1,0-1.89,0.84-1.89,2.11c0,1.27,0.79,2.11,1.89,2.11c1.1,0,1.9-0.84,1.9-2.11
		C64.82,120.7,64.03,119.86,62.93,119.86z"/>
	<path class="st0" d="M70.83,120.39c-0.45-0.31-0.97-0.49-1.46-0.49c-1.08,0-2.01,0.72-2.01,2.09c0,1.32,0.92,2.06,2.06,2.06
		c0.55,0,1.02-0.18,1.5-0.49v0.76c-0.52,0.26-1.02,0.4-1.57,0.4c-1.46,0-2.72-1.02-2.72-2.73c0-1.75,1.29-2.73,2.71-2.73
		c0.58,0,1.03,0.13,1.5,0.4V120.39z"/>
	<path class="st0" d="M72.12,117.73c0-0.3,0.25-0.54,0.54-0.54c0.3,0,0.54,0.24,0.54,0.54c0,0.29-0.24,0.54-0.54,0.54
		C72.37,118.27,72.12,118.01,72.12,117.73z M73.02,124.59H72.3v-5.23h0.72V124.59z"/>
	<path class="st0" d="M77.53,120.93c0-0.67-0.43-1.02-1.1-1.02c-0.6,0-1.05,0.17-1.54,0.42v-0.68c0.44-0.24,1.01-0.41,1.62-0.41
		c1.06,0,1.74,0.47,1.74,1.64v3.61c-0.48,0.13-1.04,0.19-1.49,0.19c-1.42,0-2.36-0.44-2.36-1.55c0-1.03,0.95-1.57,2.54-1.57h0.59
		V120.93z M77.53,122.15h-0.54c-1.08,0-1.87,0.29-1.87,0.98s0.72,0.95,1.68,0.95c0.21,0,0.48-0.02,0.73-0.07V122.15z"/>
	<path class="st0" d="M79.25,119.36h0.8v-1.27h0.72v1.27h1.48v0.61h-1.48v3.19c0,0.67,0.26,0.93,0.76,0.93
		c0.34,0,0.61-0.11,0.97-0.29v0.64c-0.31,0.16-0.67,0.26-1.13,0.26c-0.76,0-1.32-0.4-1.32-1.48v-3.26h-0.8V119.36z"/>
	<path class="st0" d="M83.58,117.73c0-0.3,0.25-0.54,0.54-0.54c0.3,0,0.54,0.24,0.54,0.54c0,0.29-0.24,0.54-0.54,0.54
		C83.83,118.27,83.58,118.01,83.58,117.73z M84.48,124.59h-0.72v-5.23h0.72V124.59z"/>
	<path class="st0" d="M88.51,119.24c1.56,0,2.63,1.12,2.63,2.73s-1.07,2.73-2.63,2.73c-1.56,0-2.63-1.12-2.63-2.73
		S86.95,119.24,88.51,119.24z M88.51,119.86c-1.1,0-1.89,0.84-1.89,2.11c0,1.27,0.79,2.11,1.89,2.11c1.1,0,1.9-0.84,1.9-2.11
		C90.4,120.7,89.61,119.86,88.51,119.86z"/>
	<path class="st0" d="M92.54,119.63c0.7-0.25,1.49-0.4,2.2-0.4c1.32,0,2.12,0.52,2.12,1.82v3.53h-0.72v-3.38
		c0-1.07-0.75-1.3-1.46-1.3c-0.55,0-1.04,0.1-1.41,0.19v4.49h-0.72V119.63z"/>
	<path class="st0" d="M33.04,140.61c0.29,0,0.57,0.07,0.85,0.22c0.28,0.15,0.49,0.36,0.64,0.64c0.15,0.28,0.23,0.56,0.23,0.86
		c0,0.48-0.17,0.88-0.5,1.22s-0.74,0.5-1.21,0.5c-0.48,0-0.88-0.17-1.22-0.5s-0.5-0.74-0.5-1.22c0-0.3,0.08-0.59,0.23-0.86
		c0.15-0.27,0.37-0.49,0.64-0.63C32.48,140.68,32.76,140.61,33.04,140.61z M33.05,140.91c-0.24,0-0.48,0.06-0.7,0.18
		s-0.4,0.3-0.53,0.53c-0.13,0.23-0.19,0.47-0.19,0.71c0,0.39,0.14,0.73,0.42,1.01c0.28,0.28,0.62,0.42,1.01,0.42
		c0.39,0,0.73-0.14,1.01-0.42s0.42-0.61,0.42-1.01c0-0.25-0.06-0.48-0.19-0.71c-0.13-0.23-0.3-0.41-0.53-0.53
		S33.29,140.91,33.05,140.91z"/>
	<path class="st0" d="M47.17,143.51v-6.04h0.72v7.12h-0.74l-4.25-6.03v6.03h-0.72v-7.12h0.77L47.17,143.51z"/>
	<path class="st0" d="M52.52,140.93c0-0.67-0.43-1.02-1.1-1.02c-0.6,0-1.05,0.17-1.54,0.42v-0.68c0.44-0.24,1.01-0.41,1.62-0.41
		c1.06,0,1.74,0.47,1.74,1.64v3.61c-0.48,0.13-1.04,0.19-1.49,0.19c-1.42,0-2.36-0.44-2.36-1.55c0-1.03,0.95-1.57,2.54-1.57h0.59
		V140.93z M52.52,142.15h-0.54c-1.08,0-1.87,0.29-1.87,0.98s0.72,0.95,1.68,0.95c0.21,0,0.48-0.02,0.73-0.07V142.15z"/>
	<path class="st0" d="M59.04,144.53c-0.64,0.12-1.28,0.18-1.82,0.18c-1.51,0-2.38-0.52-2.38-1.82v-3.53h0.72v3.49
		c0,0.98,0.78,1.24,1.61,1.24c0.36,0,0.77-0.02,1.15-0.07v-4.65h0.72V144.53z"/>
	<path class="st0" d="M60.53,143.47c0.44,0.4,0.9,0.62,1.47,0.62c0.66,0,1.08-0.25,1.08-0.84c0-0.62-0.46-0.79-1.28-1.07
		c-0.92-0.31-1.32-0.7-1.32-1.54c0-0.92,0.7-1.42,1.64-1.42c0.52,0,1.02,0.11,1.43,0.4v0.78c-0.41-0.34-0.83-0.56-1.43-0.56
		c-0.57,0-0.95,0.31-0.95,0.8c0,0.48,0.29,0.73,1.09,0.98c0.91,0.28,1.52,0.62,1.52,1.57c0,1.03-0.8,1.5-1.79,1.5
		c-0.59,0-1.15-0.17-1.47-0.42V143.47z"/>
	<path class="st0" d="M65.5,142.01v0.02c0,1.28,0.92,2.04,1.94,2.04c0.74,0,1.26-0.19,1.79-0.59v0.72c-0.47,0.35-1.14,0.5-1.79,0.5
		c-1.51,0-2.66-1.03-2.66-2.73c0-1.57,1.08-2.73,2.48-2.73c1.32,0,2.2,0.79,2.2,2.28v0.49H65.5z M68.73,141.41
		c-0.05-1.09-0.63-1.54-1.51-1.54c-0.81,0-1.47,0.55-1.68,1.54H68.73z"/>
	<path class="st0" d="M73.61,140.93c0-0.67-0.43-1.02-1.1-1.02c-0.6,0-1.06,0.17-1.54,0.42v-0.68c0.44-0.24,1.01-0.41,1.62-0.41
		c1.05,0,1.74,0.47,1.74,1.64v3.61c-0.48,0.13-1.04,0.19-1.49,0.19c-1.42,0-2.36-0.44-2.36-1.55c0-1.03,0.95-1.57,2.54-1.57h0.59
		V140.93z M73.61,142.15h-0.54c-1.08,0-1.87,0.29-1.87,0.98s0.72,0.95,1.68,0.95c0.22,0,0.48-0.02,0.73-0.07V142.15z"/>
</g>
<g>
	<g>
		<path class="st0" d="M33,82.7l-0.49,1.36h-1.88l2.77-7.12h2.15l2.77,7.12h-1.96l-0.48-1.36H33z M34.47,78.72l-0.92,2.53h1.82
			L34.47,78.72z"/>
		<path class="st0" d="M38.78,81.92c0.53,0.4,1.16,0.73,1.97,0.73c0.54,0,1.01-0.16,1.01-0.64c0-0.43-0.37-0.59-1.09-0.77
			c-1.48-0.37-2.03-1.04-2.03-2.23c0-1.4,1.07-2.21,2.47-2.21c0.85,0,1.44,0.2,1.97,0.52v1.75c-0.55-0.46-1.16-0.74-1.89-0.74
			c-0.54,0-0.8,0.24-0.8,0.58c0,0.46,0.41,0.6,1.16,0.79c1.46,0.38,1.97,1.07,1.97,2.25c0,1.55-1.24,2.22-2.75,2.22
			c-0.79,0-1.51-0.22-1.98-0.5V81.92z"/>
		<path class="st0" d="M46.34,84.06h-1.79v-7.06c0.6-0.1,1.54-0.18,2.33-0.18c1.76,0,3.02,0.82,3.02,2.63
			c0,1.86-1.43,2.55-2.93,2.55c-0.22,0-0.49-0.01-0.64-0.02V84.06z M46.34,80.45c0.08,0.01,0.34,0.02,0.54,0.02
			c0.73,0,1.22-0.3,1.22-1.03c0-0.76-0.58-1.03-1.22-1.03c-0.14,0-0.4,0.01-0.54,0.04V80.45z"/>
		<path class="st0" d="M52.65,84.06h-1.79v-7.12h1.79V84.06z"/>
		<path class="st0" d="M55.89,84.06h-1.78v-7.09c0.56-0.1,1.51-0.16,2.25-0.16c1.82,0,3.05,0.77,3.05,2.47
			c0,1.02-0.58,1.74-1.28,2.11l1.91,2.66h-2.1l-1.54-2.28h-0.52V84.06z M55.89,80.32h0.44c0.74,0,1.27-0.25,1.27-0.98
			c0-0.72-0.55-0.97-1.22-0.97c-0.14,0-0.4,0.01-0.49,0.02V80.32z"/>
		<path class="st0" d="M65.57,82.49v1.57h-4.8v-7.12h4.71v1.57h-2.95v1.22h2.69v1.54h-2.69v1.22H65.57z"/>
		<path class="st0" d="M66.51,80.17h3.44v1.51h-3.44V80.17z"/>
		<path class="st0" d="M72.88,84.06h-1.79v-7.12h1.79V84.06z"/>
		<path class="st0" d="M75.24,78.89c0.6,0,1.09,0.49,1.09,1.09s-0.49,1.08-1.09,1.08s-1.08-0.48-1.08-1.08S74.64,78.89,75.24,78.89z
			 M75.24,81.98c0.6,0,1.09,0.49,1.09,1.09s-0.49,1.08-1.09,1.08s-1.08-0.48-1.08-1.08S74.64,81.98,75.24,81.98z"/>
	</g>
</g>
<g>
	<rect x="151.21" y="96.43" class="st2" width="70.44" height="143.41"/>
	<path class="st0" d="M153.63,100.61c0.29,0,0.57,0.07,0.85,0.22s0.49,0.36,0.64,0.64s0.23,0.56,0.23,0.86
		c0,0.48-0.17,0.88-0.5,1.22s-0.74,0.5-1.21,0.5c-0.48,0-0.88-0.17-1.22-0.5s-0.5-0.74-0.5-1.22c0-0.3,0.08-0.59,0.23-0.86
		s0.37-0.49,0.64-0.63S153.34,100.61,153.63,100.61z M153.63,100.91c-0.24,0-0.48,0.06-0.7,0.18s-0.4,0.3-0.53,0.53
		s-0.19,0.47-0.19,0.71c0,0.39,0.14,0.73,0.42,1.01s0.61,0.42,1.01,0.42s0.73-0.14,1.01-0.42s0.42-0.61,0.42-1.01
		c0-0.25-0.06-0.48-0.19-0.71s-0.3-0.41-0.53-0.53S153.87,100.91,153.63,100.91z"/>
	<path class="st0" d="M162.76,97.44c0.53-0.06,1.02-0.1,1.46-0.1c3.26,0,4.37,1.69,4.37,3.51c0,2-1.16,3.85-4.27,3.85
		c-0.6,0-1.05-0.05-1.56-0.11V97.44z M163.51,104.01c0.29,0.04,0.56,0.05,0.83,0.05c2.04,0,3.48-1.02,3.48-3.19
		c0-1.68-1.07-2.85-3.61-2.85c-0.23,0-0.44,0.01-0.7,0.04V104.01z"/>
	<path class="st0" d="M169.86,97.73c0-0.3,0.25-0.54,0.54-0.54c0.3,0,0.54,0.24,0.54,0.54c0,0.29-0.24,0.54-0.54,0.54
		C170.11,98.27,169.86,98.01,169.86,97.73z M170.76,104.59h-0.72v-5.23h0.72V104.59z"/>
	<path class="st0" d="M176.15,104.59h-4.08v-0.62l3.13-3.99h-2.97v-0.61h3.83v0.62l-3.18,3.99h3.27V104.59z"/>
	<path class="st0" d="M181.05,104.59h-4.08v-0.62l3.13-3.99h-2.97v-0.61h3.83v0.62l-3.18,3.99h3.27V104.59z"/>
	<path class="st0" d="M182.17,97.73c0-0.3,0.25-0.54,0.54-0.54c0.3,0,0.54,0.24,0.54,0.54c0,0.29-0.24,0.54-0.54,0.54
		C182.42,98.27,182.17,98.01,182.17,97.73z M183.07,104.59h-0.72v-5.23h0.72V104.59z"/>
	<path class="st0" d="M184.87,99.63c0.7-0.25,1.49-0.4,2.2-0.4c1.32,0,2.12,0.52,2.12,1.82v3.53h-0.72v-3.38
		c0-1.07-0.75-1.3-1.46-1.3c-0.55,0-1.04,0.1-1.42,0.19v4.49h-0.72V99.63z"/>
	<path class="st0" d="M191.25,102.01v0.02c0,1.28,0.92,2.04,1.94,2.04c0.74,0,1.26-0.19,1.79-0.59v0.72
		c-0.47,0.35-1.14,0.5-1.79,0.5c-1.51,0-2.66-1.03-2.66-2.73c0-1.57,1.08-2.73,2.48-2.73c1.32,0,2.19,0.79,2.19,2.28v0.49H191.25z
		 M194.49,101.41c-0.05-1.09-0.64-1.54-1.51-1.54c-0.82,0-1.47,0.55-1.68,1.54H194.49z"/>
	<path class="st0" d="M196.34,103.47c0.44,0.4,0.9,0.62,1.47,0.62c0.66,0,1.08-0.25,1.08-0.84c0-0.62-0.46-0.79-1.28-1.07
		c-0.92-0.31-1.32-0.7-1.32-1.54c0-0.92,0.7-1.42,1.64-1.42c0.52,0,1.02,0.11,1.43,0.4v0.78c-0.41-0.34-0.83-0.56-1.43-0.56
		c-0.58,0-0.95,0.31-0.95,0.8c0,0.48,0.29,0.73,1.09,0.98c0.91,0.28,1.52,0.62,1.52,1.57c0,1.03-0.8,1.5-1.79,1.5
		c-0.59,0-1.15-0.17-1.47-0.42V103.47z"/>
	<path class="st0" d="M200.73,103.47c0.44,0.4,0.9,0.62,1.47,0.62c0.66,0,1.08-0.25,1.08-0.84c0-0.62-0.46-0.79-1.28-1.07
		c-0.92-0.31-1.32-0.7-1.32-1.54c0-0.92,0.7-1.42,1.64-1.42c0.52,0,1.02,0.11,1.43,0.4v0.78c-0.41-0.34-0.83-0.56-1.43-0.56
		c-0.58,0-0.95,0.31-0.95,0.8c0,0.48,0.29,0.73,1.09,0.98c0.91,0.28,1.52,0.62,1.52,1.57c0,1.03-0.8,1.5-1.79,1.5
		c-0.59,0-1.15-0.17-1.47-0.42V103.47z"/>
	<path class="st0" d="M153.63,120.61c0.29,0,0.57,0.07,0.85,0.22s0.49,0.36,0.64,0.64s0.23,0.56,0.23,0.86
		c0,0.48-0.17,0.88-0.5,1.22s-0.74,0.5-1.21,0.5c-0.48,0-0.88-0.17-1.22-0.5s-0.5-0.74-0.5-1.22c0-0.3,0.08-0.59,0.23-0.86
		s0.37-0.49,0.64-0.63S153.34,120.61,153.63,120.61z M153.63,120.91c-0.24,0-0.48,0.06-0.7,0.18s-0.4,0.3-0.53,0.53
		s-0.19,0.47-0.19,0.71c0,0.39,0.14,0.73,0.42,1.01s0.61,0.42,1.01,0.42s0.73-0.14,1.01-0.42s0.42-0.61,0.42-1.01
		c0-0.25-0.06-0.48-0.19-0.71s-0.3-0.41-0.53-0.53S153.87,120.91,153.63,120.91z"/>
	<path class="st0" d="M162.76,117.44c0.53-0.06,1.02-0.1,1.46-0.1c3.26,0,4.37,1.69,4.37,3.51c0,2-1.16,3.85-4.27,3.85
		c-0.6,0-1.05-0.05-1.56-0.11V117.44z M163.51,124.01c0.29,0.04,0.56,0.05,0.83,0.05c2.04,0,3.48-1.02,3.48-3.19
		c0-1.68-1.07-2.85-3.61-2.85c-0.23,0-0.44,0.01-0.7,0.04V124.01z"/>
	<path class="st0" d="M169.86,117.73c0-0.3,0.25-0.54,0.54-0.54c0.3,0,0.54,0.24,0.54,0.54c0,0.29-0.24,0.54-0.54,0.54
		C170.11,118.27,169.86,118.01,169.86,117.73z M170.76,124.59h-0.72v-5.23h0.72V124.59z"/>
	<path class="st0" d="M172.24,123.47c0.44,0.4,0.9,0.62,1.47,0.62c0.66,0,1.08-0.25,1.08-0.84c0-0.62-0.46-0.79-1.28-1.07
		c-0.92-0.31-1.32-0.7-1.32-1.54c0-0.92,0.7-1.42,1.64-1.42c0.52,0,1.02,0.11,1.43,0.4v0.78c-0.41-0.34-0.83-0.56-1.43-0.56
		c-0.58,0-0.95,0.31-0.95,0.8c0,0.48,0.29,0.73,1.09,0.98c0.91,0.28,1.52,0.62,1.52,1.57c0,1.03-0.8,1.5-1.79,1.5
		c-0.59,0-1.15-0.17-1.47-0.42V123.47z"/>
	<path class="st0" d="M176.64,123.47c0.44,0.4,0.9,0.62,1.47,0.62c0.66,0,1.08-0.25,1.08-0.84c0-0.62-0.46-0.79-1.28-1.07
		c-0.92-0.31-1.32-0.7-1.32-1.54c0-0.92,0.7-1.42,1.64-1.42c0.52,0,1.02,0.11,1.43,0.4v0.78c-0.41-0.34-0.83-0.56-1.43-0.56
		c-0.58,0-0.95,0.31-0.95,0.8c0,0.48,0.29,0.73,1.09,0.98c0.91,0.28,1.52,0.62,1.52,1.57c0,1.03-0.8,1.5-1.79,1.5
		c-0.59,0-1.15-0.17-1.47-0.42V123.47z"/>
	<path class="st0" d="M183.51,119.24c1.56,0,2.63,1.12,2.63,2.73s-1.07,2.73-2.63,2.73c-1.56,0-2.63-1.12-2.63-2.73
		S181.95,119.24,183.51,119.24z M183.51,119.86c-1.1,0-1.89,0.84-1.89,2.11c0,1.27,0.79,2.11,1.89,2.11c1.1,0,1.9-0.84,1.9-2.11
		C185.4,120.7,184.61,119.86,183.51,119.86z"/>
	<path class="st0" d="M191.42,120.39c-0.44-0.31-0.97-0.49-1.46-0.49c-1.08,0-2.01,0.72-2.01,2.09c0,1.32,0.92,2.06,2.06,2.06
		c0.55,0,1.02-0.18,1.5-0.49v0.76c-0.52,0.26-1.02,0.4-1.57,0.4c-1.46,0-2.72-1.02-2.72-2.73c0-1.75,1.29-2.73,2.71-2.73
		c0.58,0,1.03,0.13,1.5,0.4V120.39z"/>
	<path class="st0" d="M192.7,117.73c0-0.3,0.25-0.54,0.54-0.54c0.3,0,0.54,0.24,0.54,0.54c0,0.29-0.24,0.54-0.54,0.54
		C192.95,118.27,192.7,118.01,192.7,117.73z M193.6,124.59h-0.72v-5.23h0.72V124.59z"/>
	<path class="st0" d="M198.11,120.93c0-0.67-0.43-1.02-1.1-1.02c-0.6,0-1.06,0.17-1.54,0.42v-0.68c0.44-0.24,1.01-0.41,1.62-0.41
		c1.05,0,1.74,0.47,1.74,1.64v3.61c-0.48,0.13-1.04,0.19-1.49,0.19c-1.42,0-2.36-0.44-2.36-1.55c0-1.03,0.95-1.57,2.54-1.57h0.59
		V120.93z M198.11,122.15h-0.54c-1.08,0-1.87,0.29-1.87,0.98s0.72,0.95,1.68,0.95c0.22,0,0.48-0.02,0.73-0.07V122.15z"/>
	<path class="st0" d="M199.83,119.36h0.8v-1.27h0.72v1.27h1.48v0.61h-1.48v3.19c0,0.67,0.26,0.93,0.76,0.93
		c0.34,0,0.61-0.11,0.97-0.29v0.64c-0.31,0.16-0.67,0.26-1.13,0.26c-0.76,0-1.32-0.4-1.32-1.48v-3.26h-0.8V119.36z"/>
	<path class="st0" d="M204.16,117.73c0-0.3,0.25-0.54,0.54-0.54c0.3,0,0.54,0.24,0.54,0.54c0,0.29-0.24,0.54-0.54,0.54
		C204.41,118.27,204.16,118.01,204.16,117.73z M205.06,124.59h-0.72v-5.23h0.72V124.59z"/>
	<path class="st0" d="M209.09,119.24c1.56,0,2.63,1.12,2.63,2.73s-1.07,2.73-2.63,2.73c-1.56,0-2.63-1.12-2.63-2.73
		S207.53,119.24,209.09,119.24z M209.09,119.86c-1.1,0-1.89,0.84-1.89,2.11c0,1.27,0.79,2.11,1.89,2.11c1.1,0,1.9-0.84,1.9-2.11
		C210.99,120.7,210.19,119.86,209.09,119.86z"/>
	<path class="st0" d="M213.12,119.63c0.7-0.25,1.49-0.4,2.2-0.4c1.32,0,2.12,0.52,2.12,1.82v3.53h-0.72v-3.38
		c0-1.07-0.75-1.3-1.46-1.3c-0.55,0-1.04,0.1-1.42,0.19v4.49h-0.72V119.63z"/>
	<path class="st0" d="M153.63,140.61c0.29,0,0.57,0.07,0.85,0.22s0.49,0.36,0.64,0.64s0.23,0.56,0.23,0.86
		c0,0.48-0.17,0.88-0.5,1.22s-0.74,0.5-1.21,0.5c-0.48,0-0.88-0.17-1.22-0.5s-0.5-0.74-0.5-1.22c0-0.3,0.08-0.59,0.23-0.86
		s0.37-0.49,0.64-0.63S153.34,140.61,153.63,140.61z M153.63,140.91c-0.24,0-0.48,0.06-0.7,0.18s-0.4,0.3-0.53,0.53
		s-0.19,0.47-0.19,0.71c0,0.39,0.14,0.73,0.42,1.01s0.61,0.42,1.01,0.42s0.73-0.14,1.01-0.42s0.42-0.61,0.42-1.01
		c0-0.25-0.06-0.48-0.19-0.71s-0.3-0.41-0.53-0.53S153.87,140.91,153.63,140.91z"/>
	<path class="st0" d="M167.75,143.51v-6.04h0.72v7.12h-0.74l-4.25-6.03v6.03h-0.72v-7.12h0.77L167.75,143.51z"/>
	<path class="st0" d="M173.11,140.93c0-0.67-0.43-1.02-1.1-1.02c-0.6,0-1.06,0.17-1.54,0.42v-0.68c0.44-0.24,1.01-0.41,1.62-0.41
		c1.05,0,1.74,0.47,1.74,1.64v3.61c-0.48,0.13-1.04,0.19-1.49,0.19c-1.42,0-2.36-0.44-2.36-1.55c0-1.03,0.95-1.57,2.54-1.57h0.59
		V140.93z M173.11,142.15h-0.54c-1.08,0-1.87,0.29-1.87,0.98s0.72,0.95,1.68,0.95c0.22,0,0.48-0.02,0.73-0.07V142.15z"/>
	<path class="st0" d="M179.62,144.53c-0.64,0.12-1.28,0.18-1.82,0.18c-1.51,0-2.38-0.52-2.38-1.82v-3.53h0.72v3.49
		c0,0.98,0.78,1.24,1.61,1.24c0.36,0,0.77-0.02,1.15-0.07v-4.65h0.72V144.53z"/>
	<path class="st0" d="M181.11,143.47c0.44,0.4,0.9,0.62,1.47,0.62c0.66,0,1.08-0.25,1.08-0.84c0-0.62-0.46-0.79-1.28-1.07
		c-0.92-0.31-1.32-0.7-1.32-1.54c0-0.92,0.7-1.42,1.64-1.42c0.52,0,1.02,0.11,1.43,0.4v0.78c-0.41-0.34-0.83-0.56-1.43-0.56
		c-0.58,0-0.95,0.31-0.95,0.8c0,0.48,0.29,0.73,1.09,0.98c0.91,0.28,1.52,0.62,1.52,1.57c0,1.03-0.8,1.5-1.79,1.5
		c-0.59,0-1.15-0.17-1.47-0.42V143.47z"/>
	<path class="st0" d="M186.08,142.01v0.02c0,1.28,0.92,2.04,1.94,2.04c0.74,0,1.26-0.19,1.79-0.59v0.72
		c-0.47,0.35-1.14,0.5-1.79,0.5c-1.51,0-2.66-1.03-2.66-2.73c0-1.57,1.08-2.73,2.48-2.73c1.32,0,2.19,0.79,2.19,2.28v0.49H186.08z
		 M189.32,141.41c-0.05-1.09-0.64-1.54-1.51-1.54c-0.82,0-1.47,0.55-1.68,1.54H189.32z"/>
	<path class="st0" d="M194.19,140.93c0-0.67-0.43-1.02-1.1-1.02c-0.6,0-1.06,0.17-1.54,0.42v-0.68c0.44-0.24,1.01-0.41,1.62-0.41
		c1.06,0,1.74,0.47,1.74,1.64v3.61c-0.48,0.13-1.04,0.19-1.49,0.19c-1.42,0-2.36-0.44-2.36-1.55c0-1.03,0.95-1.57,2.54-1.57h0.59
		V140.93z M194.19,142.15h-0.54c-1.08,0-1.87,0.29-1.87,0.98s0.72,0.95,1.68,0.95c0.22,0,0.48-0.02,0.73-0.07V142.15z"/>
	<path class="st0" d="M153.63,160.61c0.29,0,0.57,0.07,0.85,0.22s0.49,0.36,0.64,0.64s0.23,0.56,0.23,0.86
		c0,0.48-0.17,0.88-0.5,1.22s-0.74,0.5-1.21,0.5c-0.48,0-0.88-0.17-1.22-0.5s-0.5-0.74-0.5-1.22c0-0.3,0.08-0.59,0.23-0.86
		s0.37-0.49,0.64-0.63S153.34,160.61,153.63,160.61z M153.63,160.91c-0.24,0-0.48,0.06-0.7,0.18s-0.4,0.3-0.53,0.53
		s-0.19,0.47-0.19,0.71c0,0.39,0.14,0.73,0.42,1.01s0.61,0.42,1.01,0.42s0.73-0.14,1.01-0.42s0.42-0.61,0.42-1.01
		c0-0.25-0.06-0.48-0.19-0.71s-0.3-0.41-0.53-0.53S153.87,160.91,153.63,160.91z"/>
	<path class="st0" d="M162.76,157.44c0.53-0.06,1.02-0.1,1.46-0.1c3.26,0,4.37,1.69,4.37,3.51c0,2-1.16,3.85-4.27,3.85
		c-0.6,0-1.05-0.05-1.56-0.11V157.44z M163.51,164.01c0.29,0.04,0.56,0.05,0.83,0.05c2.04,0,3.48-1.02,3.48-3.19
		c0-1.68-1.07-2.85-3.61-2.85c-0.23,0-0.44,0.01-0.7,0.04V164.01z"/>
	<path class="st0" d="M171.8,164.12l1.73-4.76h0.74l-2.83,7.39h-0.71l0.71-1.81l-2.18-5.58h0.79L171.8,164.12z"/>
	<path class="st0" d="M174.98,163.47c0.44,0.4,0.9,0.62,1.47,0.62c0.66,0,1.08-0.25,1.08-0.84c0-0.62-0.46-0.79-1.28-1.07
		c-0.92-0.31-1.32-0.7-1.32-1.54c0-0.92,0.7-1.42,1.64-1.42c0.52,0,1.02,0.11,1.43,0.4v0.78c-0.41-0.34-0.83-0.56-1.43-0.56
		c-0.58,0-0.95,0.31-0.95,0.8c0,0.48,0.29,0.73,1.09,0.98c0.91,0.28,1.52,0.62,1.52,1.57c0,1.03-0.8,1.5-1.79,1.5
		c-0.59,0-1.15-0.17-1.47-0.42V163.47z"/>
	<path class="st0" d="M183.22,164.41c-0.18,0.12-0.66,0.23-1.08,0.23c-1.71,0-2.91-0.9-2.91-2.69c0-1.69,1.17-2.71,3.01-2.71
		c0.54,0,1.26,0.14,1.7,0.33v5.07c0,1.6-1.2,2.22-2.4,2.22c-0.64,0-1.24-0.14-1.62-0.32v-0.68c0.46,0.22,1.06,0.4,1.62,0.4
		c0.86,0,1.68-0.42,1.68-1.74V164.41z M183.22,160.05c-0.29-0.1-0.61-0.16-0.98-0.16c-1.45,0-2.29,0.77-2.29,2.05
		c0,1.26,0.84,2.05,2.19,2.05c0.43,0,0.72-0.07,1.08-0.2V160.05z"/>
	<path class="st0" d="M186.01,162.01v0.02c0,1.28,0.92,2.04,1.94,2.04c0.74,0,1.26-0.19,1.79-0.59v0.72
		c-0.47,0.35-1.14,0.5-1.79,0.5c-1.51,0-2.66-1.03-2.66-2.73c0-1.57,1.08-2.73,2.48-2.73c1.32,0,2.19,0.79,2.19,2.28v0.49H186.01z
		 M189.25,161.41c-0.05-1.09-0.64-1.54-1.51-1.54c-0.82,0-1.47,0.55-1.68,1.54H189.25z"/>
	<path class="st0" d="M195.43,164.53c-0.64,0.12-1.28,0.18-1.82,0.18c-1.51,0-2.38-0.52-2.38-1.82v-3.53h0.72v3.49
		c0,0.98,0.78,1.24,1.61,1.24c0.36,0,0.77-0.02,1.15-0.07v-4.65h0.72V164.53z"/>
	<path class="st0" d="M196.92,163.47c0.44,0.4,0.9,0.62,1.47,0.62c0.66,0,1.08-0.25,1.08-0.84c0-0.62-0.46-0.79-1.28-1.07
		c-0.92-0.31-1.32-0.7-1.32-1.54c0-0.92,0.7-1.42,1.64-1.42c0.52,0,1.02,0.11,1.43,0.4v0.78c-0.41-0.34-0.83-0.56-1.43-0.56
		c-0.58,0-0.95,0.31-0.95,0.8c0,0.48,0.29,0.73,1.09,0.98c0.91,0.28,1.52,0.62,1.52,1.57c0,1.03-0.8,1.5-1.79,1.5
		c-0.59,0-1.15-0.17-1.47-0.42V163.47z"/>
	<path class="st0" d="M201.44,157.73c0-0.3,0.25-0.54,0.54-0.54c0.3,0,0.54,0.24,0.54,0.54c0,0.29-0.24,0.54-0.54,0.54
		C201.69,158.27,201.44,158.01,201.44,157.73z M202.34,164.59h-0.72v-5.23h0.72V164.59z"/>
	<path class="st0" d="M206.85,160.93c0-0.67-0.43-1.02-1.1-1.02c-0.6,0-1.06,0.17-1.54,0.42v-0.68c0.44-0.24,1.01-0.41,1.62-0.41
		c1.05,0,1.74,0.47,1.74,1.64v3.61c-0.48,0.13-1.04,0.19-1.49,0.19c-1.42,0-2.36-0.44-2.36-1.55c0-1.03,0.95-1.57,2.54-1.57h0.59
		V160.93z M206.85,162.15h-0.54c-1.08,0-1.87,0.29-1.87,0.98s0.72,0.95,1.68,0.95c0.22,0,0.48-0.02,0.73-0.07V162.15z"/>
	<path class="st0" d="M153.63,180.61c0.29,0,0.57,0.07,0.85,0.22s0.49,0.36,0.64,0.64s0.23,0.56,0.23,0.86
		c0,0.48-0.17,0.88-0.5,1.22s-0.74,0.5-1.21,0.5c-0.48,0-0.88-0.17-1.22-0.5s-0.5-0.74-0.5-1.22c0-0.3,0.08-0.59,0.23-0.86
		s0.37-0.49,0.64-0.63S153.34,180.61,153.63,180.61z M153.63,180.91c-0.24,0-0.48,0.06-0.7,0.18s-0.4,0.3-0.53,0.53
		s-0.19,0.47-0.19,0.71c0,0.39,0.14,0.73,0.42,1.01s0.61,0.42,1.01,0.42s0.73-0.14,1.01-0.42s0.42-0.61,0.42-1.01
		c0-0.25-0.06-0.48-0.19-0.71s-0.3-0.41-0.53-0.53S153.87,180.91,153.63,180.91z"/>
	<path class="st0" d="M162.25,183.34c0.58,0.46,1.09,0.73,1.81,0.73c0.85,0,1.58-0.37,1.58-1.31c0-0.85-0.63-1.17-1.49-1.49
		c-1.27-0.47-1.96-0.89-1.96-2.1c0-1.21,1.01-1.83,2.07-1.83c0.7,0,1.27,0.22,1.7,0.56v0.77c-0.58-0.46-1.05-0.7-1.7-0.7
		c-0.8,0-1.35,0.48-1.35,1.21c0,0.68,0.41,1.02,1.44,1.38c1.32,0.46,2.02,0.95,2.02,2.19c0,1.31-1.03,1.94-2.32,1.94
		c-0.77,0-1.38-0.22-1.81-0.55V183.34z"/>
	<path class="st0" d="M170.02,179.24c1.56,0,2.63,1.12,2.63,2.73s-1.07,2.73-2.63,2.73c-1.56,0-2.63-1.12-2.63-2.73
		S168.46,179.24,170.02,179.24z M170.02,179.86c-1.1,0-1.89,0.84-1.89,2.11c0,1.27,0.79,2.11,1.89,2.11c1.1,0,1.9-0.84,1.9-2.11
		C171.92,180.7,171.13,179.86,170.02,179.86z"/>
	<path class="st0" d="M180.71,181.09c0-0.97-0.66-1.2-1.22-1.2c-0.62,0-1.22,0.16-1.54,0.3c0.1,0.23,0.16,0.52,0.16,0.86v3.54h-0.72
		v-3.5c0-0.97-0.64-1.2-1.24-1.2c-0.59,0-1.05,0.12-1.38,0.24v4.46h-0.72v-4.89c0.68-0.28,1.4-0.46,2.1-0.46
		c0.61,0,1.08,0.13,1.4,0.41c0.62-0.24,1.3-0.41,1.93-0.41c1.26,0,1.94,0.52,1.94,1.82v3.53h-0.72V181.09z"/>
	<path class="st0" d="M183.18,179.63c0.7-0.25,1.49-0.4,2.2-0.4c1.32,0,2.12,0.52,2.12,1.82v3.53h-0.72v-3.38
		c0-1.07-0.75-1.3-1.46-1.3c-0.55,0-1.04,0.1-1.42,0.19v4.49h-0.72V179.63z"/>
	<path class="st0" d="M191.47,179.24c1.56,0,2.63,1.12,2.63,2.73s-1.07,2.73-2.63,2.73c-1.56,0-2.63-1.12-2.63-2.73
		S189.91,179.24,191.47,179.24z M191.47,179.86c-1.1,0-1.89,0.84-1.89,2.11c0,1.27,0.79,2.11,1.89,2.11c1.1,0,1.9-0.84,1.9-2.11
		C193.36,180.7,192.57,179.86,191.47,179.86z"/>
	<path class="st0" d="M196.22,184.59h-0.72v-8.16h0.72V184.59z"/>
	<path class="st0" d="M198.34,182.01v0.02c0,1.28,0.92,2.04,1.94,2.04c0.74,0,1.26-0.19,1.79-0.59v0.72
		c-0.47,0.35-1.14,0.5-1.79,0.5c-1.51,0-2.66-1.03-2.66-2.73c0-1.57,1.08-2.73,2.48-2.73c1.32,0,2.2,0.79,2.2,2.28v0.49H198.34z
		 M201.58,181.41c-0.05-1.09-0.64-1.54-1.51-1.54c-0.82,0-1.47,0.55-1.68,1.54H201.58z"/>
	<path class="st0" d="M203.68,179.63c0.7-0.25,1.49-0.4,2.2-0.4c1.32,0,2.12,0.52,2.12,1.82v3.53h-0.72v-3.38
		c0-1.07-0.75-1.3-1.46-1.3c-0.55,0-1.04,0.1-1.42,0.19v4.49h-0.72V179.63z"/>
	<path class="st0" d="M213.56,180.39c-0.44-0.31-0.97-0.49-1.46-0.49c-1.08,0-2.01,0.72-2.01,2.09c0,1.32,0.92,2.06,2.06,2.06
		c0.55,0,1.02-0.18,1.5-0.49v0.76c-0.52,0.26-1.02,0.4-1.57,0.4c-1.46,0-2.72-1.02-2.72-2.73c0-1.75,1.29-2.73,2.71-2.73
		c0.58,0,1.03,0.13,1.5,0.4V180.39z"/>
	<path class="st0" d="M215.35,182.01v0.02c0,1.28,0.92,2.04,1.94,2.04c0.74,0,1.26-0.19,1.79-0.59v0.72
		c-0.47,0.35-1.14,0.5-1.79,0.5c-1.51,0-2.66-1.03-2.66-2.73c0-1.57,1.08-2.73,2.48-2.73c1.32,0,2.2,0.79,2.2,2.28v0.49H215.35z
		 M218.58,181.41c-0.05-1.09-0.64-1.54-1.51-1.54c-0.82,0-1.47,0.55-1.68,1.54H218.58z"/>
	<path class="st0" d="M153.63,200.61c0.29,0,0.57,0.07,0.85,0.22s0.49,0.36,0.64,0.64s0.23,0.56,0.23,0.86
		c0,0.48-0.17,0.88-0.5,1.22s-0.74,0.5-1.21,0.5c-0.48,0-0.88-0.17-1.22-0.5s-0.5-0.74-0.5-1.22c0-0.3,0.08-0.59,0.23-0.86
		s0.37-0.49,0.64-0.63S153.34,200.61,153.63,200.61z M153.63,200.91c-0.24,0-0.48,0.06-0.7,0.18s-0.4,0.3-0.53,0.53
		s-0.19,0.47-0.19,0.71c0,0.39,0.14,0.73,0.42,1.01s0.61,0.42,1.01,0.42s0.73-0.14,1.01-0.42s0.42-0.61,0.42-1.01
		c0-0.25-0.06-0.48-0.19-0.71s-0.3-0.41-0.53-0.53S153.87,200.91,153.63,200.91z"/>
	<path class="st0" d="M167.9,197.46h0.74v7.12h-0.74v-3.3h-4.39v3.3h-0.74v-7.12h0.74v3.17h4.39V197.46z"/>
	<path class="st0" d="M170.89,202.01v0.02c0,1.28,0.92,2.04,1.94,2.04c0.74,0,1.26-0.19,1.79-0.59v0.72
		c-0.47,0.35-1.14,0.5-1.79,0.5c-1.51,0-2.66-1.03-2.66-2.73c0-1.57,1.08-2.73,2.48-2.73c1.32,0,2.19,0.79,2.19,2.28v0.49H170.89z
		 M174.13,201.41c-0.05-1.09-0.64-1.54-1.51-1.54c-0.82,0-1.47,0.55-1.68,1.54H174.13z"/>
	<path class="st0" d="M179,200.93c0-0.67-0.43-1.02-1.1-1.02c-0.6,0-1.06,0.17-1.54,0.42v-0.68c0.44-0.24,1.01-0.41,1.62-0.41
		c1.06,0,1.74,0.47,1.74,1.64v3.61c-0.48,0.13-1.04,0.19-1.49,0.19c-1.42,0-2.36-0.44-2.36-1.55c0-1.03,0.95-1.57,2.54-1.57H179
		V200.93z M179,202.15h-0.54c-1.08,0-1.87,0.29-1.87,0.98s0.72,0.95,1.68,0.95c0.22,0,0.48-0.02,0.73-0.07V202.15z"/>
	<path class="st0" d="M185.78,204.51c-0.56,0.13-1.15,0.19-1.7,0.19c-1.81,0-3.03-0.98-3.03-2.73c0-1.76,1.32-2.73,2.88-2.73
		c0.4,0,0.88,0.08,1.14,0.24v-3.05h0.72V204.51z M185.06,200.13c-0.26-0.14-0.66-0.24-1.14-0.24c-1.21,0-2.15,0.74-2.15,2.09
		c0,1.33,0.92,2.1,2.3,2.1c0.34,0,0.67-0.01,0.98-0.06V200.13z"/>
	<path class="st0" d="M190.29,200.93c0-0.67-0.43-1.02-1.1-1.02c-0.6,0-1.06,0.17-1.54,0.42v-0.68c0.44-0.24,1.01-0.41,1.62-0.41
		c1.06,0,1.74,0.47,1.74,1.64v3.61c-0.48,0.13-1.04,0.19-1.49,0.19c-1.42,0-2.36-0.44-2.36-1.55c0-1.03,0.95-1.57,2.54-1.57h0.59
		V200.93z M190.29,202.15h-0.54c-1.08,0-1.87,0.29-1.87,0.98s0.72,0.95,1.68,0.95c0.22,0,0.48-0.02,0.73-0.07V202.15z"/>
	<path class="st0" d="M196.54,200.39c-0.44-0.31-0.97-0.49-1.46-0.49c-1.08,0-2.01,0.72-2.01,2.09c0,1.32,0.92,2.06,2.06,2.06
		c0.55,0,1.02-0.18,1.5-0.49v0.76c-0.52,0.26-1.02,0.4-1.57,0.4c-1.46,0-2.72-1.02-2.72-2.73c0-1.75,1.29-2.73,2.71-2.73
		c0.58,0,1.03,0.13,1.5,0.4V200.39z"/>
	<path class="st0" d="M198.01,196.43h0.72v3.08c0.4-0.14,0.98-0.28,1.54-0.28c1.26,0,2.06,0.52,2.06,1.82v3.53h-0.72v-3.38
		c0-1.07-0.75-1.3-1.46-1.3c-0.55,0-1.06,0.12-1.42,0.24v4.44h-0.72V196.43z"/>
	<path class="st0" d="M204.39,202.01v0.02c0,1.28,0.92,2.04,1.94,2.04c0.74,0,1.26-0.19,1.79-0.59v0.72
		c-0.47,0.35-1.14,0.5-1.79,0.5c-1.51,0-2.66-1.03-2.66-2.73c0-1.57,1.08-2.73,2.48-2.73c1.32,0,2.19,0.79,2.19,2.28v0.49H204.39z
		 M207.63,201.41c-0.05-1.09-0.64-1.54-1.51-1.54c-0.82,0-1.47,0.55-1.68,1.54H207.63z"/>
	<path class="st0" d="M153.63,220.61c0.29,0,0.57,0.07,0.85,0.22s0.49,0.36,0.64,0.64s0.23,0.56,0.23,0.86
		c0,0.48-0.17,0.88-0.5,1.22s-0.74,0.5-1.21,0.5c-0.48,0-0.88-0.17-1.22-0.5s-0.5-0.74-0.5-1.22c0-0.3,0.08-0.59,0.23-0.86
		s0.37-0.49,0.64-0.63S153.34,220.61,153.63,220.61z M153.63,220.91c-0.24,0-0.48,0.06-0.7,0.18s-0.4,0.3-0.53,0.53
		s-0.19,0.47-0.19,0.71c0,0.39,0.14,0.73,0.42,1.01s0.61,0.42,1.01,0.42s0.73-0.14,1.01-0.42s0.42-0.61,0.42-1.01
		c0-0.25-0.06-0.48-0.19-0.71s-0.3-0.41-0.53-0.53S153.87,220.91,153.63,220.91z"/>
	<path class="st0" d="M163.51,224.59h-0.74v-7.14c0.32-0.05,0.84-0.11,1.26-0.11c1.97,0,2.79,0.91,2.79,2.25
		c0,1.52-1.07,2.35-2.85,2.35c-0.13,0-0.3-0.01-0.46-0.02V224.59z M163.51,221.3c0.13,0.01,0.26,0.01,0.38,0.01
		c1.48,0,2.17-0.56,2.17-1.71c0-0.92-0.54-1.62-2.07-1.62c-0.14,0-0.31,0.01-0.48,0.02V221.3z"/>
	<path class="st0" d="M170.73,220.93c0-0.67-0.43-1.02-1.1-1.02c-0.6,0-1.06,0.17-1.54,0.42v-0.68c0.44-0.24,1.01-0.41,1.62-0.41
		c1.06,0,1.74,0.47,1.74,1.64v3.61c-0.48,0.13-1.04,0.19-1.49,0.19c-1.42,0-2.36-0.44-2.36-1.55c0-1.03,0.95-1.57,2.54-1.57h0.59
		V220.93z M170.73,222.15h-0.54c-1.08,0-1.87,0.29-1.87,0.98s0.72,0.95,1.68,0.95c0.22,0,0.48-0.02,0.73-0.07V222.15z"/>
	<path class="st0" d="M173.89,224.59h-0.72v-4.75c0.55-0.35,1.22-0.56,1.94-0.56c0.29,0,0.58,0.04,0.88,0.11v0.71
		c-0.31-0.11-0.68-0.13-0.92-0.13c-0.52,0-0.9,0.11-1.18,0.26V224.59z"/>
	<path class="st0" d="M177.27,222.01v0.02c0,1.28,0.92,2.04,1.94,2.04c0.74,0,1.26-0.19,1.79-0.59v0.72
		c-0.47,0.35-1.14,0.5-1.79,0.5c-1.51,0-2.66-1.03-2.66-2.73c0-1.57,1.08-2.73,2.48-2.73c1.32,0,2.2,0.79,2.2,2.28v0.49H177.27z
		 M180.51,221.41c-0.05-1.09-0.64-1.54-1.51-1.54c-0.82,0-1.47,0.55-1.68,1.54H180.51z"/>
	<path class="st0" d="M182.36,223.47c0.44,0.4,0.9,0.62,1.47,0.62c0.66,0,1.08-0.25,1.08-0.84c0-0.62-0.46-0.79-1.28-1.07
		c-0.92-0.31-1.32-0.7-1.32-1.54c0-0.92,0.7-1.42,1.64-1.42c0.52,0,1.02,0.11,1.43,0.4v0.78c-0.41-0.34-0.83-0.56-1.43-0.56
		c-0.58,0-0.95,0.31-0.95,0.8c0,0.48,0.29,0.73,1.09,0.98c0.91,0.28,1.52,0.62,1.52,1.57c0,1.03-0.8,1.5-1.79,1.5
		c-0.59,0-1.15-0.17-1.47-0.42V223.47z"/>
	<path class="st0" d="M186.34,219.36h0.8v-1.27h0.72v1.27h1.48v0.61h-1.48v3.19c0,0.67,0.26,0.93,0.76,0.93
		c0.34,0,0.61-0.11,0.97-0.29v0.64c-0.31,0.16-0.67,0.26-1.13,0.26c-0.76,0-1.32-0.4-1.32-1.48v-3.26h-0.8V219.36z"/>
	<path class="st0" d="M190.85,216.43h0.72v3.08c0.4-0.14,0.98-0.28,1.54-0.28c1.26,0,2.06,0.52,2.06,1.82v3.53h-0.72v-3.38
		c0-1.07-0.75-1.3-1.46-1.3c-0.55,0-1.06,0.12-1.42,0.24v4.44h-0.72V216.43z"/>
	<path class="st0" d="M197.24,222.01v0.02c0,1.28,0.92,2.04,1.94,2.04c0.74,0,1.26-0.19,1.79-0.59v0.72
		c-0.47,0.35-1.14,0.5-1.79,0.5c-1.51,0-2.66-1.03-2.66-2.73c0-1.57,1.08-2.73,2.48-2.73c1.32,0,2.2,0.79,2.2,2.28v0.49H197.24z
		 M200.48,221.41c-0.05-1.09-0.64-1.54-1.51-1.54c-0.82,0-1.47,0.55-1.68,1.54H200.48z"/>
	<path class="st0" d="M202.33,223.47c0.44,0.4,0.9,0.62,1.47,0.62c0.66,0,1.08-0.25,1.08-0.84c0-0.62-0.46-0.79-1.28-1.07
		c-0.92-0.31-1.32-0.7-1.32-1.54c0-0.92,0.7-1.42,1.64-1.42c0.52,0,1.02,0.11,1.43,0.4v0.78c-0.41-0.34-0.83-0.56-1.43-0.56
		c-0.58,0-0.95,0.31-0.95,0.8c0,0.48,0.29,0.73,1.09,0.98c0.91,0.28,1.52,0.62,1.52,1.57c0,1.03-0.8,1.5-1.79,1.5
		c-0.59,0-1.15-0.17-1.47-0.42V223.47z"/>
	<path class="st0" d="M206.85,217.73c0-0.3,0.25-0.54,0.54-0.54c0.3,0,0.54,0.24,0.54,0.54c0,0.29-0.24,0.54-0.54,0.54
		C207.1,218.27,206.85,218.01,206.85,217.73z M207.75,224.59h-0.72v-5.23h0.72V224.59z"/>
	<path class="st0" d="M212.26,220.93c0-0.67-0.43-1.02-1.1-1.02c-0.6,0-1.06,0.17-1.54,0.42v-0.68c0.44-0.24,1.01-0.41,1.62-0.41
		c1.06,0,1.74,0.47,1.74,1.64v3.61c-0.48,0.13-1.04,0.19-1.49,0.19c-1.42,0-2.36-0.44-2.36-1.55c0-1.03,0.95-1.57,2.54-1.57h0.59
		V220.93z M212.26,222.15h-0.54c-1.08,0-1.87,0.29-1.87,0.98s0.72,0.95,1.68,0.95c0.22,0,0.48-0.02,0.73-0.07V222.15z"/>
</g>
<g>
	<g>
		<path class="st0" d="M153.59,82.7l-0.49,1.36h-1.88l2.77-7.12h2.15l2.77,7.12h-1.96l-0.48-1.36H153.59z M155.05,78.72l-0.92,2.53
			h1.82L155.05,78.72z"/>
		<path class="st0" d="M159.36,81.92c0.53,0.4,1.16,0.73,1.97,0.73c0.54,0,1.01-0.16,1.01-0.64c0-0.43-0.37-0.59-1.09-0.77
			c-1.48-0.37-2.03-1.04-2.03-2.23c0-1.4,1.07-2.21,2.47-2.21c0.85,0,1.44,0.2,1.97,0.52v1.75c-0.55-0.46-1.16-0.74-1.89-0.74
			c-0.54,0-0.8,0.24-0.8,0.58c0,0.46,0.41,0.6,1.16,0.79c1.46,0.38,1.97,1.07,1.97,2.25c0,1.55-1.24,2.22-2.75,2.22
			c-0.79,0-1.51-0.22-1.98-0.5V81.92z"/>
		<path class="st0" d="M166.92,84.06h-1.79v-7.06c0.6-0.1,1.54-0.18,2.33-0.18c1.76,0,3.02,0.82,3.02,2.63
			c0,1.86-1.43,2.55-2.93,2.55c-0.22,0-0.49-0.01-0.64-0.02V84.06z M166.92,80.45c0.08,0.01,0.34,0.02,0.54,0.02
			c0.73,0,1.22-0.3,1.22-1.03c0-0.76-0.58-1.03-1.22-1.03c-0.14,0-0.4,0.01-0.54,0.04V80.45z"/>
		<path class="st0" d="M173.23,84.06h-1.79v-7.12h1.79V84.06z"/>
		<path class="st0" d="M176.47,84.06h-1.78v-7.09c0.56-0.1,1.51-0.16,2.25-0.16c1.82,0,3.05,0.77,3.05,2.47
			c0,1.02-0.58,1.74-1.28,2.11l1.91,2.66h-2.1l-1.54-2.28h-0.52V84.06z M176.47,80.32h0.44c0.74,0,1.27-0.25,1.27-0.98
			c0-0.72-0.55-0.97-1.22-0.97c-0.14,0-0.4,0.01-0.49,0.02V80.32z"/>
		<path class="st0" d="M186.15,82.49v1.57h-4.8v-7.12h4.71v1.57h-2.95v1.22h2.69v1.54h-2.69v1.22H186.15z"/>
		<path class="st0" d="M187.09,80.17h3.44v1.51h-3.44V80.17z"/>
		<path class="st0" d="M193.46,84.06h-1.79v-7.12h1.79V84.06z"/>
		<path class="st0" d="M196.71,84.06h-1.79v-7.12h1.79V84.06z"/>
		<path class="st0" d="M199.08,78.89c0.6,0,1.09,0.49,1.09,1.09s-0.49,1.08-1.09,1.08S198,80.58,198,79.98
			S198.48,78.89,199.08,78.89z M199.08,81.98c0.6,0,1.09,0.49,1.09,1.09s-0.49,1.08-1.09,1.08S198,83.67,198,83.07
			S198.48,81.98,199.08,81.98z"/>
	</g>
</g>
</svg>
