<?xml version="1.0" encoding="utf-8"?>
<!-- Generator: Adobe Illustrator 24.1.3, SVG Export Plug-In . SVG Version: 6.00 Build 0)  -->
<svg version="1.1" id="Layer_1" xmlns="http://www.w3.org/2000/svg" xmlns:xlink="http://www.w3.org/1999/xlink" x="0px" y="0px"
	 viewBox="0 0 260.79 170.38" style="enable-background:new 0 0 260.79 170.38;" xml:space="preserve">
<style type="text/css">
	.st0{fill:#00417B;}
	.st1{fill:#FFFFFF;}
	.st2{fill:none;}
	.st3{fill:none;stroke:#00417B;stroke-miterlimit:10;}
	.st4{fill:#FFFFFF;stroke:#00417B;stroke-width:1.2188;stroke-miterlimit:10;}
	.st5{fill:#FFFFFF;stroke:#00417B;stroke-width:1.5;stroke-miterlimit:10;}
	.st6{fill-rule:evenodd;clip-rule:evenodd;fill:none;stroke:#00417B;stroke-miterlimit:10;}
	.st7{fill:none;stroke:#00417B;stroke-width:1.5;stroke-miterlimit:2.613;}
	.st8{fill-rule:evenodd;clip-rule:evenodd;fill:#00417B;}
	.st9{fill-rule:evenodd;clip-rule:evenodd;fill:#868686;}
	.st10{fill:none;stroke:#868686;stroke-miterlimit:2.613;}
	.st11{fill:none;stroke:#00417B;stroke-miterlimit:2.613;}
	.st12{fill:#333333;}
	.st13{fill:none;stroke:#00417B;stroke-width:0.75;stroke-miterlimit:10;}
	.st14{fill:#868686;}
	.st15{fill:none;stroke:#00417B;stroke-miterlimit:8;}
	.st16{fill:#4CA5DD;}
</style>
<path class="st0" d="M213.19,28.5H47.6c-6.07,0-10.98-4.92-10.98-10.98v-2.75c0-6.07,4.92-10.98,10.98-10.98h165.59
	c6.07,0,10.98,4.92,10.98,10.98v2.75C224.17,23.59,219.25,28.5,213.19,28.5z"/>
<g>
	<g>
		<path class="st1" d="M82.73,19.08v1.77h-5.4v-8.02h5.31v1.77h-3.32v1.38h3.03v1.73h-3.03v1.38H82.73z"/>
		<path class="st1" d="M87.82,17.72l2.24,3.13h-2.23l-1.17-1.69l-1.15,1.69h-2.13l2.24-3.12l-2.11-2.96h2.28l0.96,1.51l0.97-1.51
			h2.2L87.82,17.72z"/>
		<path class="st1" d="M95.18,16.86c-0.5-0.42-0.96-0.55-1.51-0.55c-0.92,0-1.51,0.55-1.51,1.49c0,0.86,0.57,1.51,1.58,1.51
			c0.55,0,1.05-0.18,1.47-0.53v1.76c-0.51,0.34-1.12,0.45-1.76,0.45c-2.04,0-3.23-1.27-3.23-3.16c0-1.88,1.31-3.19,3.23-3.19
			c0.7,0,1.22,0.14,1.73,0.45V16.86z"/>
		<path class="st1" d="M98.42,20.85H96.5v-9.18h1.92V20.85z"/>
		<path class="st1" d="M105.46,20.63c-0.69,0.22-1.84,0.35-2.63,0.35c-1.75,0-2.89-0.53-2.89-2.42v-3.79h1.92v3.62
			c0,0.66,0.15,1.03,0.97,1.03c0.16,0,0.46-0.03,0.72-0.08v-4.56h1.92V20.63z"/>
		<path class="st1" d="M106.92,18.8c0.61,0.41,1.45,0.66,2.01,0.66c0.42,0,0.72-0.11,0.72-0.38c0-0.24-0.18-0.38-0.74-0.46
			c-1.47-0.2-2.09-0.78-2.09-1.93c0-1.42,1.08-2.05,2.46-2.05c0.77,0,1.28,0.16,1.82,0.46v1.63c-0.59-0.38-1.15-0.57-1.74-0.57
			c-0.51,0-0.67,0.19-0.67,0.39c0,0.23,0.17,0.35,0.62,0.42c1.74,0.28,2.21,0.95,2.21,2.04c0,1.35-1.01,1.97-2.52,1.97
			c-0.74,0-1.53-0.18-2.07-0.5V18.8z"/>
		<path class="st1" d="M112.63,12.95c0-0.62,0.5-1.11,1.11-1.11c0.58,0,1.09,0.49,1.09,1.11c0,0.61-0.51,1.09-1.09,1.09
			C113.13,14.04,112.63,13.56,112.63,12.95z M114.7,20.85h-1.92v-6.08h1.92V20.85z"/>
		<path class="st1" d="M119.11,14.64c1.82,0,3.23,1.28,3.23,3.17s-1.4,3.17-3.23,3.17c-1.81,0-3.21-1.28-3.21-3.17
			S117.3,14.64,119.11,14.64z M119.11,16.28c-0.74,0-1.28,0.57-1.28,1.53c0,0.96,0.54,1.53,1.28,1.53c0.76,0,1.3-0.57,1.3-1.53
			C120.41,16.85,119.87,16.28,119.11,16.28z"/>
		<path class="st1" d="M123.54,15.2c0.88-0.35,2.08-0.57,3.02-0.57c1.59,0,2.65,0.58,2.65,2.5v3.71h-1.92v-3.63
			c0-0.49-0.2-0.86-0.86-0.86c-0.31,0-0.68,0.04-0.97,0.15v4.35h-1.92V15.2z"/>
		<path class="st1" d="M139.25,15.35c-0.5-0.5-1.24-0.85-2.17-0.85c-1.32,0-2.08,0.97-2.08,2.34c0,1.42,0.86,2.34,2.16,2.34
			c0.96,0,1.55-0.28,2.25-0.84v2.05c-0.78,0.47-1.53,0.59-2.35,0.59c-2.53,0-4.13-1.72-4.13-4.15c0-2.44,1.65-4.15,4.13-4.15
			c0.82,0,1.54,0.13,2.19,0.51V15.35z"/>
		<path class="st1" d="M142.68,20.85h-1.92v-5.63c0.67-0.35,1.59-0.54,2.48-0.54c0.53,0,0.86,0.04,1.35,0.18v1.85
			c-0.41-0.18-0.84-0.23-1.27-0.23c-0.2,0-0.42,0.03-0.65,0.08V20.85z"/>
		<path class="st1" d="M145.46,12.95c0-0.62,0.5-1.11,1.11-1.11c0.58,0,1.09,0.49,1.09,1.11c0,0.61-0.51,1.09-1.09,1.09
			C145.96,14.04,145.46,13.56,145.46,12.95z M147.53,20.85h-1.92v-6.08h1.92V20.85z"/>
		<path class="st1" d="M148.35,14.77h0.9v-1.5h1.9v1.5h1.74v1.59h-1.74v2c0,0.68,0.34,0.85,0.8,0.85c0.42,0,0.78-0.12,1.11-0.34
			v1.76c-0.46,0.24-1.01,0.35-1.65,0.35c-1.11,0-2.16-0.53-2.16-2.07v-2.55h-0.9V14.77z"/>
		<path class="st1" d="M155.63,18.4v0.03c0.16,0.65,0.93,0.92,1.63,0.92c0.8,0,1.42-0.18,2.01-0.49v1.58
			c-0.57,0.38-1.4,0.54-2.23,0.54c-2.05,0-3.27-1.22-3.27-3.08c0-2.05,1.27-3.27,3-3.27c2.01,0,2.66,1.36,2.66,2.94v0.82H155.63z
			 M157.68,17.32c0-0.58-0.24-1.12-0.95-1.12c-0.62,0-0.99,0.46-1.09,1.12H157.68z"/>
		<path class="st1" d="M162.66,20.85h-1.92v-5.63c0.67-0.35,1.59-0.54,2.48-0.54c0.53,0,0.86,0.04,1.35,0.18v1.85
			c-0.41-0.18-0.84-0.23-1.27-0.23c-0.2,0-0.42,0.03-0.65,0.08V20.85z"/>
		<path class="st1" d="M165.44,12.95c0-0.62,0.5-1.11,1.11-1.11c0.58,0,1.09,0.49,1.09,1.11c0,0.61-0.51,1.09-1.09,1.09
			C165.94,14.04,165.44,13.56,165.44,12.95z M167.51,20.85h-1.92v-6.08h1.92V20.85z"/>
		<path class="st1" d="M172.1,16.97c0-0.53-0.47-0.72-1.03-0.72c-0.72,0-1.28,0.22-1.74,0.5v-1.62c0.55-0.32,1.3-0.5,2.09-0.5
			c1.46,0,2.57,0.55,2.57,2.26v3.82c-0.59,0.14-1.62,0.27-2.48,0.27c-1.5,0-2.71-0.45-2.71-1.9c0-1.28,1-1.86,2.66-1.86h0.65V16.97z
			 M172.1,18.38h-0.51c-0.59,0-0.89,0.19-0.89,0.61c0,0.42,0.3,0.62,0.78,0.62c0.16,0,0.43-0.01,0.62-0.05V18.38z"/>
		<path class="st1" d="M174.94,12.03c0.42-0.32,0.9-0.43,1.37-0.43c0.87,0,1.44,0.45,1.44,1.24c0,0.61-0.32,0.94-0.76,1.15
			c0.55,0.18,0.85,0.54,0.85,1.11c0,0.97-0.87,1.33-1.69,1.33c-0.6,0-0.98-0.15-1.3-0.35V15c0.28,0.24,0.7,0.47,1.2,0.47
			c0.35,0,0.62-0.14,0.62-0.46c0-0.39-0.32-0.52-0.98-0.52v-0.91c0.61,0,0.89-0.21,0.89-0.57c0-0.28-0.2-0.4-0.47-0.4
			c-0.42,0-0.87,0.26-1.17,0.5V12.03z"/>
		<path class="st1" d="M179.59,15.37c0,0.91-0.36,1.52-0.82,1.87h-0.8c0.38-0.58,0.49-1.17,0.49-1.87H179.59z"/>
		<path class="st1" d="M183.36,14.37h0.63v0.91h-0.63v1.07h-1.12v-1.07h-2.19v-0.94l2.2-2.66h1.11V14.37z M181.16,14.37h1.09v-1.35
			L181.16,14.37z"/>
	</g>
</g>
<g>
	<rect x="6.85" y="35.99" class="st2" width="247.08" height="128.61"/>
	<path class="st0" d="M8.77,39.97c0.6,0,1.08,0.48,1.08,1.08s-0.48,1.08-1.08,1.08s-1.08-0.48-1.08-1.08S8.17,39.97,8.77,39.97z"/>
	<path class="st0" d="M23.57,38.31c-0.52-0.49-1.22-0.73-1.98-0.73c-1.61,0-2.92,1.17-2.92,3.01s1.31,3.01,2.92,3.01
		c0.75,0,1.5-0.23,2.01-0.71v0.85c-0.56,0.34-1.28,0.53-2,0.53c-2.16,0-3.68-1.5-3.68-3.68c0-2.19,1.63-3.68,3.68-3.68
		c0.72,0,1.39,0.19,1.97,0.54V38.31z"/>
	<path class="st0" d="M29.13,44.09c-0.64,0.12-1.28,0.18-1.82,0.18c-1.51,0-2.38-0.52-2.38-1.82v-3.53h0.72v3.49
		c0,0.98,0.78,1.24,1.61,1.24c0.36,0,0.77-0.02,1.15-0.07v-4.65h0.72V44.09z"/>
	<path class="st0" d="M31.65,44.15h-0.72v-4.75c0.55-0.35,1.22-0.56,1.94-0.56c0.29,0,0.58,0.04,0.88,0.11v0.71
		c-0.31-0.11-0.68-0.13-0.92-0.13c-0.52,0-0.9,0.11-1.18,0.26V44.15z"/>
	<path class="st0" d="M35.61,44.15h-0.72v-4.75c0.55-0.35,1.22-0.56,1.94-0.56c0.29,0,0.58,0.04,0.88,0.11v0.71
		c-0.31-0.11-0.68-0.13-0.92-0.13c-0.52,0-0.9,0.11-1.18,0.26V44.15z"/>
	<path class="st0" d="M39,41.58v0.02c0,1.28,0.92,2.04,1.94,2.04c0.74,0,1.26-0.19,1.79-0.59v0.72c-0.47,0.35-1.14,0.5-1.79,0.5
		c-1.51,0-2.66-1.03-2.66-2.73c0-1.57,1.08-2.73,2.48-2.73c1.32,0,2.19,0.79,2.19,2.28v0.49H39z M42.24,40.98
		c-0.05-1.09-0.64-1.54-1.51-1.54c-0.82,0-1.47,0.55-1.68,1.54H42.24z"/>
	<path class="st0" d="M44.34,39.2c0.7-0.25,1.49-0.4,2.2-0.4c1.32,0,2.12,0.52,2.12,1.82v3.53h-0.72v-3.38c0-1.07-0.75-1.3-1.46-1.3
		c-0.55,0-1.04,0.1-1.42,0.19v4.49h-0.72V39.2z"/>
	<path class="st0" d="M49.68,38.93h0.8v-1.27h0.72v1.27h1.48v0.61H51.2v3.19c0,0.67,0.26,0.93,0.76,0.93c0.34,0,0.61-0.11,0.97-0.29
		v0.64c-0.31,0.16-0.67,0.26-1.13,0.26c-0.76,0-1.32-0.4-1.32-1.48v-3.26h-0.8V38.93z"/>
	<path class="st0" d="M56.59,37.01c0.53-0.06,1.02-0.1,1.46-0.1c3.26,0,4.37,1.69,4.37,3.51c0,2-1.16,3.85-4.27,3.85
		c-0.6,0-1.05-0.05-1.56-0.11V37.01z M57.33,43.58c0.29,0.04,0.56,0.05,0.83,0.05c2.04,0,3.48-1.02,3.48-3.19
		c0-1.68-1.07-2.85-3.61-2.85c-0.23,0-0.44,0.01-0.7,0.04V43.58z"/>
	<path class="st0" d="M63.46,42.91c0.58,0.46,1.09,0.73,1.81,0.73c0.85,0,1.58-0.37,1.58-1.31c0-0.85-0.63-1.17-1.49-1.49
		c-1.27-0.47-1.96-0.89-1.96-2.1c0-1.21,1.01-1.83,2.07-1.83c0.7,0,1.27,0.22,1.7,0.56v0.77c-0.58-0.46-1.05-0.7-1.7-0.7
		c-0.8,0-1.35,0.48-1.35,1.21c0,0.68,0.41,1.02,1.44,1.38c1.32,0.46,2.02,0.95,2.02,2.19c0,1.31-1.03,1.94-2.32,1.94
		c-0.77,0-1.38-0.22-1.81-0.55V42.91z"/>
	<path class="st0" d="M72.38,44.15l-1.96-6.42l-1.09,6.42h-0.72l1.27-7.12h1l1.94,6.37l1.94-6.37h1l1.27,7.12h-0.74l-1.09-6.42
		l-1.95,6.42H72.38z"/>
	<path class="st0" d="M78.26,40.72h2.58v0.65h-2.58V40.72z"/>
	<path class="st0" d="M82.93,39.76c1.63,0.2,2.9,0.82,2.9,2.41c0,1.09-0.78,2.1-2.48,2.1c-0.62,0-1.2-0.18-1.61-0.46v-0.7
		c0.5,0.34,1.04,0.54,1.59,0.54c1.15,0,1.75-0.61,1.75-1.49c0-1.3-1.22-1.69-2.84-1.87l0.23-3.27h3.18v0.65h-2.58L82.93,39.76z"/>
	<path class="st0" d="M93.83,44.08c-0.56,0.13-1.15,0.19-1.7,0.19c-1.81,0-3.03-0.98-3.03-2.73c0-1.76,1.32-2.73,2.88-2.73
		c0.4,0,0.88,0.08,1.14,0.24V36h0.72V44.08z M93.11,39.69c-0.26-0.14-0.66-0.24-1.14-0.24c-1.21,0-2.15,0.74-2.15,2.09
		c0,1.33,0.92,2.1,2.3,2.1c0.34,0,0.67-0.01,0.98-0.06V39.69z"/>
	<path class="st0" d="M95.46,37.29c0-0.3,0.25-0.54,0.54-0.54c0.3,0,0.54,0.24,0.54,0.54c0,0.29-0.24,0.54-0.54,0.54
		C95.71,37.83,95.46,37.58,95.46,37.29z M96.35,44.15h-0.72v-5.23h0.72V44.15z"/>
	<path class="st0" d="M100.87,40.5c0-0.67-0.43-1.02-1.1-1.02c-0.6,0-1.06,0.17-1.54,0.42v-0.68c0.44-0.24,1.01-0.41,1.62-0.41
		c1.06,0,1.74,0.47,1.74,1.64v3.61c-0.48,0.13-1.04,0.19-1.49,0.19c-1.42,0-2.36-0.44-2.36-1.55c0-1.03,0.95-1.57,2.54-1.57h0.59
		V40.5z M100.87,41.72h-0.54c-1.08,0-1.87,0.29-1.87,0.98s0.72,0.95,1.68,0.95c0.22,0,0.48-0.02,0.73-0.07V41.72z"/>
	<path class="st0" d="M106.9,43.97c-0.18,0.12-0.66,0.23-1.08,0.23c-1.71,0-2.91-0.9-2.91-2.69c0-1.69,1.17-2.71,3.01-2.71
		c0.54,0,1.26,0.14,1.7,0.33v5.07c0,1.6-1.2,2.22-2.4,2.22c-0.64,0-1.24-0.14-1.62-0.32v-0.68c0.46,0.22,1.06,0.4,1.62,0.4
		c0.86,0,1.68-0.42,1.68-1.74V43.97z M106.9,39.62c-0.29-0.1-0.61-0.16-0.98-0.16c-1.45,0-2.29,0.77-2.29,2.05
		c0,1.26,0.84,2.05,2.19,2.05c0.43,0,0.72-0.07,1.08-0.2V39.62z"/>
	<path class="st0" d="M109.42,39.2c0.7-0.25,1.49-0.4,2.2-0.4c1.32,0,2.12,0.52,2.12,1.82v3.53h-0.72v-3.38
		c0-1.07-0.75-1.3-1.46-1.3c-0.55,0-1.04,0.1-1.42,0.19v4.49h-0.72V39.2z"/>
	<path class="st0" d="M117.71,38.81c1.56,0,2.63,1.12,2.63,2.73s-1.07,2.73-2.63,2.73c-1.56,0-2.63-1.12-2.63-2.73
		S116.15,38.81,117.71,38.81z M117.71,39.43c-1.1,0-1.89,0.84-1.89,2.11s0.79,2.11,1.89,2.11c1.1,0,1.9-0.84,1.9-2.11
		S118.82,39.43,117.71,39.43z"/>
	<path class="st0" d="M121.43,43.04c0.44,0.4,0.9,0.62,1.47,0.62c0.66,0,1.08-0.25,1.08-0.84c0-0.62-0.46-0.79-1.28-1.07
		c-0.92-0.31-1.32-0.7-1.32-1.54c0-0.92,0.7-1.42,1.64-1.42c0.52,0,1.02,0.11,1.43,0.4v0.78c-0.41-0.34-0.83-0.56-1.43-0.56
		c-0.58,0-0.95,0.31-0.95,0.8c0,0.48,0.29,0.73,1.09,0.98c0.91,0.28,1.52,0.62,1.52,1.57c0,1.03-0.8,1.5-1.79,1.5
		c-0.59,0-1.15-0.17-1.47-0.42V43.04z"/>
	<path class="st0" d="M125.96,37.29c0-0.3,0.25-0.54,0.54-0.54c0.3,0,0.54,0.24,0.54,0.54c0,0.29-0.24,0.54-0.54,0.54
		C126.21,37.83,125.96,37.58,125.96,37.29z M126.86,44.15h-0.72v-5.23h0.72V44.15z"/>
	<path class="st0" d="M128.34,43.04c0.44,0.4,0.9,0.62,1.47,0.62c0.66,0,1.08-0.25,1.08-0.84c0-0.62-0.46-0.79-1.28-1.07
		c-0.92-0.31-1.32-0.7-1.32-1.54c0-0.92,0.7-1.42,1.64-1.42c0.52,0,1.02,0.11,1.43,0.4v0.78c-0.41-0.34-0.83-0.56-1.43-0.56
		c-0.58,0-0.95,0.31-0.95,0.8c0,0.48,0.29,0.73,1.09,0.98c0.91,0.28,1.52,0.62,1.52,1.57c0,1.03-0.8,1.5-1.79,1.5
		c-0.59,0-1.15-0.17-1.47-0.42V43.04z"/>
	<path class="st0" d="M137.56,38.81c1.56,0,2.63,1.12,2.63,2.73s-1.07,2.73-2.63,2.73c-1.56,0-2.63-1.12-2.63-2.73
		S136,38.81,137.56,38.81z M137.56,39.43c-1.1,0-1.89,0.84-1.89,2.11s0.79,2.11,1.89,2.11c1.1,0,1.9-0.84,1.9-2.11
		S138.66,39.43,137.56,39.43z"/>
	<path class="st0" d="M142.46,44.15h-0.72v-4.62h-0.8v-0.61h0.8v-1.31c0-1.09,0.56-1.74,1.61-1.74c0.4,0,0.68,0.08,0.94,0.26v0.68
		c-0.25-0.18-0.54-0.31-0.92-0.31c-0.55,0-0.9,0.26-0.9,1.12v1.29h1.44v0.61h-1.44V44.15z"/>
	<path class="st0" d="M147.1,36h0.72v3.07c0.23-0.13,0.74-0.26,1.25-0.26c1.57,0,2.75,0.91,2.75,2.71c0,1.69-1.2,2.76-3.01,2.76
		c-0.55,0-1.16-0.1-1.7-0.26V36z M147.82,43.52c0.3,0.08,0.65,0.12,0.98,0.12c1.39,0,2.28-0.79,2.28-2.12
		c0-1.34-0.92-2.06-2.01-2.06c-0.54,0-0.95,0.1-1.25,0.24V43.52z"/>
	<path class="st0" d="M153.04,37.29c0-0.3,0.25-0.54,0.54-0.54c0.3,0,0.54,0.24,0.54,0.54c0,0.29-0.24,0.54-0.54,0.54
		C153.29,37.83,153.04,37.58,153.04,37.29z M153.94,44.15h-0.72v-5.23h0.72V44.15z"/>
	<path class="st0" d="M155.74,39.14c0.48-0.18,1.15-0.33,1.82-0.33c1.8,0,2.89,0.94,2.89,2.73c0,1.7-1.13,2.73-2.84,2.73
		c-0.42,0-0.88-0.08-1.15-0.22v2.25h-0.72V39.14z M156.46,43.43c0.34,0.14,0.71,0.22,1.15,0.22c1.27,0,2.11-0.78,2.11-2.11
		c0-1.28-0.78-2.08-2.16-2.08c-0.41,0-0.83,0.05-1.1,0.14V43.43z"/>
	<path class="st0" d="M164.15,38.81c1.56,0,2.63,1.12,2.63,2.73s-1.07,2.73-2.63,2.73c-1.56,0-2.63-1.12-2.63-2.73
		S162.59,38.81,164.15,38.81z M164.15,39.43c-1.1,0-1.89,0.84-1.89,2.11s0.79,2.11,1.89,2.11c1.1,0,1.9-0.84,1.9-2.11
		S165.25,39.43,164.15,39.43z"/>
	<path class="st0" d="M168.9,44.15h-0.72V36h0.72V44.15z"/>
	<path class="st0" d="M173.41,40.5c0-0.67-0.43-1.02-1.1-1.02c-0.6,0-1.06,0.17-1.54,0.42v-0.68c0.44-0.24,1.01-0.41,1.62-0.41
		c1.06,0,1.74,0.47,1.74,1.64v3.61c-0.48,0.13-1.04,0.19-1.49,0.19c-1.42,0-2.36-0.44-2.36-1.55c0-1.03,0.95-1.57,2.54-1.57h0.59
		V40.5z M173.41,41.72h-0.54c-1.08,0-1.87,0.29-1.87,0.98s0.72,0.95,1.68,0.95c0.22,0,0.48-0.02,0.73-0.07V41.72z"/>
	<path class="st0" d="M176.57,44.15h-0.72v-4.75c0.55-0.35,1.22-0.56,1.94-0.56c0.29,0,0.58,0.04,0.88,0.11v0.71
		c-0.31-0.11-0.68-0.13-0.92-0.13c-0.52,0-0.9,0.11-1.18,0.26V44.15z"/>
	<path class="st0" d="M184.05,45.83c-1.19-1.1-2.13-2.79-2.13-4.92s0.95-3.81,2.13-4.92h0.8c-1.25,1.22-2.25,2.69-2.25,4.92
		s1.01,3.69,2.25,4.92H184.05z"/>
	<path class="st0" d="M187.98,38.81c1.56,0,2.63,1.12,2.63,2.73s-1.07,2.73-2.63,2.73c-1.56,0-2.63-1.12-2.63-2.73
		S186.42,38.81,187.98,38.81z M187.98,39.43c-1.1,0-1.89,0.84-1.89,2.11s0.79,2.11,1.89,2.11c1.1,0,1.9-0.84,1.9-2.11
		S189.08,39.43,187.98,39.43z"/>
	<path class="st0" d="M192.73,44.15h-0.72v-4.75c0.55-0.35,1.22-0.56,1.94-0.56c0.29,0,0.58,0.04,0.88,0.11v0.71
		c-0.31-0.11-0.68-0.13-0.92-0.13c-0.52,0-0.9,0.11-1.18,0.26V44.15z"/>
	<path class="st0" d="M198.97,44.15h-0.72v-4.75c0.55-0.35,1.22-0.56,1.94-0.56c0.29,0,0.58,0.04,0.88,0.11v0.71
		c-0.31-0.11-0.68-0.13-0.92-0.13c-0.52,0-0.9,0.11-1.18,0.26V44.15z"/>
	<path class="st0" d="M202.36,41.58v0.02c0,1.28,0.92,2.04,1.94,2.04c0.74,0,1.26-0.19,1.79-0.59v0.72c-0.47,0.35-1.14,0.5-1.79,0.5
		c-1.51,0-2.66-1.03-2.66-2.73c0-1.57,1.08-2.73,2.48-2.73c1.32,0,2.2,0.79,2.2,2.28v0.49H202.36z M205.6,40.98
		c-0.05-1.09-0.64-1.54-1.51-1.54c-0.82,0-1.47,0.55-1.68,1.54H205.6z"/>
	<path class="st0" d="M208.42,44.15h-0.72V36h0.72V44.15z"/>
	<path class="st0" d="M212.93,40.5c0-0.67-0.43-1.02-1.1-1.02c-0.6,0-1.06,0.17-1.54,0.42v-0.68c0.44-0.24,1.01-0.41,1.62-0.41
		c1.06,0,1.74,0.47,1.74,1.64v3.61c-0.48,0.13-1.04,0.19-1.49,0.19c-1.42,0-2.36-0.44-2.36-1.55c0-1.03,0.95-1.57,2.54-1.57h0.59
		V40.5z M212.93,41.72h-0.54c-1.08,0-1.87,0.29-1.87,0.98s0.72,0.95,1.68,0.95c0.22,0,0.48-0.02,0.73-0.07V41.72z"/>
	<path class="st0" d="M214.65,38.93h0.8v-1.27h0.72v1.27h1.48v0.61h-1.48v3.19c0,0.67,0.26,0.93,0.76,0.93
		c0.34,0,0.61-0.11,0.97-0.29v0.64c-0.31,0.16-0.67,0.26-1.13,0.26c-0.76,0-1.32-0.4-1.32-1.48v-3.26h-0.8V38.93z"/>
	<path class="st0" d="M219.36,41.58v0.02c0,1.28,0.92,2.04,1.94,2.04c0.74,0,1.26-0.19,1.79-0.59v0.72c-0.47,0.35-1.14,0.5-1.79,0.5
		c-1.51,0-2.66-1.03-2.66-2.73c0-1.57,1.08-2.73,2.48-2.73c1.32,0,2.19,0.79,2.19,2.28v0.49H219.36z M222.6,40.98
		c-0.05-1.09-0.64-1.54-1.51-1.54c-0.82,0-1.47,0.55-1.68,1.54H222.6z"/>
	<path class="st0" d="M229.1,44.08c-0.56,0.13-1.15,0.19-1.7,0.19c-1.81,0-3.03-0.98-3.03-2.73c0-1.76,1.32-2.73,2.88-2.73
		c0.4,0,0.88,0.08,1.14,0.24V36h0.72V44.08z M228.38,39.69c-0.26-0.14-0.66-0.24-1.14-0.24c-1.21,0-2.15,0.74-2.15,2.09
		c0,1.33,0.92,2.1,2.3,2.1c0.34,0,0.67-0.01,0.98-0.06V39.69z"/>
	<path class="st0" d="M230.93,36c1.19,1.1,2.13,2.79,2.13,4.92s-0.95,3.81-2.13,4.92h-0.8c1.25-1.22,2.25-2.69,2.25-4.92
		s-1.01-3.69-2.25-4.92H230.93z"/>
	<path class="st0" d="M22.63,56.08c-0.56,0.13-1.15,0.19-1.7,0.19c-1.81,0-3.03-0.98-3.03-2.73c0-1.76,1.32-2.73,2.88-2.73
		c0.4,0,0.88,0.08,1.14,0.24V48h0.72V56.08z M21.91,51.69c-0.26-0.14-0.66-0.24-1.14-0.24c-1.21,0-2.15,0.74-2.15,2.09
		c0,1.33,0.92,2.1,2.3,2.1c0.34,0,0.67-0.01,0.98-0.06V51.69z"/>
	<path class="st0" d="M24.25,49.29c0-0.3,0.25-0.54,0.54-0.54c0.3,0,0.54,0.24,0.54,0.54c0,0.29-0.24,0.54-0.54,0.54
		C24.5,49.83,24.25,49.58,24.25,49.29z M25.15,56.15h-0.72v-5.23h0.72V56.15z"/>
	<path class="st0" d="M26.64,55.04c0.44,0.4,0.9,0.62,1.47,0.62c0.66,0,1.08-0.25,1.08-0.84c0-0.62-0.46-0.79-1.28-1.07
		c-0.92-0.31-1.32-0.7-1.32-1.54c0-0.92,0.7-1.42,1.64-1.42c0.52,0,1.02,0.11,1.43,0.4v0.78c-0.41-0.34-0.83-0.56-1.43-0.56
		c-0.58,0-0.95,0.31-0.95,0.8c0,0.48,0.29,0.73,1.09,0.98c0.91,0.28,1.52,0.62,1.52,1.57c0,1.03-0.8,1.5-1.79,1.5
		c-0.59,0-1.15-0.17-1.47-0.42V55.04z"/>
	<path class="st0" d="M33.51,50.81c1.56,0,2.63,1.12,2.63,2.73s-1.07,2.73-2.63,2.73c-1.56,0-2.63-1.12-2.63-2.73
		S31.95,50.81,33.51,50.81z M33.51,51.43c-1.1,0-1.89,0.84-1.89,2.11s0.79,2.11,1.89,2.11c1.1,0,1.9-0.84,1.9-2.11
		S34.61,51.43,33.51,51.43z"/>
	<path class="st0" d="M38.26,56.15h-0.72v-4.75c0.55-0.35,1.22-0.56,1.94-0.56c0.29,0,0.58,0.04,0.88,0.11v0.71
		c-0.31-0.11-0.68-0.13-0.92-0.13c-0.52,0-0.9,0.11-1.18,0.26V56.15z"/>
	<path class="st0" d="M45.67,56.08c-0.56,0.13-1.15,0.19-1.7,0.19c-1.81,0-3.03-0.98-3.03-2.73c0-1.76,1.32-2.73,2.88-2.73
		c0.4,0,0.88,0.08,1.14,0.24V48h0.72V56.08z M44.95,51.69c-0.26-0.14-0.66-0.24-1.14-0.24c-1.21,0-2.15,0.74-2.15,2.09
		c0,1.33,0.92,2.1,2.3,2.1c0.34,0,0.67-0.01,0.98-0.06V51.69z"/>
	<path class="st0" d="M47.79,53.58v0.02c0,1.28,0.92,2.04,1.94,2.04c0.74,0,1.26-0.19,1.79-0.59v0.72c-0.47,0.35-1.14,0.5-1.79,0.5
		c-1.51,0-2.66-1.03-2.66-2.73c0-1.57,1.08-2.73,2.48-2.73c1.32,0,2.2,0.79,2.2,2.28v0.49H47.79z M51.03,52.98
		c-0.05-1.09-0.64-1.54-1.51-1.54c-0.82,0-1.47,0.55-1.68,1.54H51.03z"/>
	<path class="st0" d="M53.85,56.15h-0.72v-4.75c0.55-0.35,1.22-0.56,1.94-0.56c0.29,0,0.58,0.04,0.88,0.11v0.71
		c-0.31-0.11-0.68-0.13-0.92-0.13c-0.52,0-0.9,0.11-1.18,0.26V56.15z"/>
	<path class="st0" d="M57.38,55.19c0,1-0.56,2.04-1.19,2.45h-0.58c0.58-0.6,0.92-1.49,0.92-2.45H57.38z"/>
	<path class="st0" d="M64.9,48.91c2.05,0,3.68,1.5,3.68,3.68c0,2.18-1.63,3.68-3.68,3.68s-3.68-1.5-3.68-3.68
		C61.22,50.41,62.85,48.91,64.9,48.91z M64.9,49.58c-1.61,0-2.93,1.17-2.93,3.01s1.32,3.01,2.93,3.01s2.93-1.18,2.93-3.01
		S66.51,49.58,64.9,49.58z"/>
	<path class="st0" d="M75.38,50.31c-0.52-0.49-1.22-0.73-1.98-0.73c-1.61,0-2.92,1.17-2.92,3.01s1.31,3.01,2.92,3.01
		c0.75,0,1.5-0.23,2.01-0.71v0.85c-0.56,0.34-1.28,0.53-2,0.53c-2.16,0-3.68-1.5-3.68-3.68c0-2.19,1.63-3.68,3.68-3.68
		c0.72,0,1.39,0.19,1.97,0.54V50.31z"/>
	<path class="st0" d="M76.92,49.01c0.53-0.06,1.02-0.1,1.46-0.1c3.26,0,4.37,1.69,4.37,3.51c0,2-1.16,3.85-4.27,3.85
		c-0.6,0-1.05-0.05-1.56-0.11V49.01z M77.66,55.58c0.29,0.04,0.56,0.05,0.83,0.05c2.04,0,3.48-1.02,3.48-3.19
		c0-1.68-1.07-2.85-3.61-2.85c-0.23,0-0.44,0.01-0.7,0.04V55.58z"/>
	<path class="st0" d="M84.77,55.19c0,1-0.56,2.04-1.19,2.45h-0.58c0.58-0.6,0.92-1.49,0.92-2.45H84.77z"/>
	<path class="st0" d="M91.69,52.5c0-0.67-0.43-1.02-1.1-1.02c-0.6,0-1.06,0.17-1.54,0.42v-0.68c0.44-0.24,1.01-0.41,1.62-0.41
		c1.05,0,1.74,0.47,1.74,1.64v3.61c-0.48,0.13-1.04,0.19-1.49,0.19c-1.42,0-2.36-0.44-2.36-1.55c0-1.03,0.95-1.57,2.54-1.57h0.59
		V52.5z M91.69,53.72h-0.54c-1.08,0-1.87,0.29-1.87,0.98s0.72,0.95,1.68,0.95c0.22,0,0.48-0.02,0.73-0.07V53.72z"/>
	<path class="st0" d="M94.12,51.2c0.7-0.25,1.49-0.4,2.2-0.4c1.32,0,2.12,0.52,2.12,1.82v3.53h-0.72v-3.38c0-1.07-0.75-1.3-1.46-1.3
		c-0.55,0-1.04,0.1-1.42,0.19v4.49h-0.72V51.2z"/>
	<path class="st0" d="M99.46,50.93h0.8v-1.27h0.72v1.27h1.48v0.61h-1.48v3.19c0,0.67,0.26,0.93,0.76,0.93
		c0.34,0,0.61-0.11,0.97-0.29v0.64c-0.31,0.16-0.67,0.26-1.13,0.26c-0.76,0-1.32-0.4-1.32-1.48v-3.26h-0.8V50.93z"/>
	<path class="st0" d="M103.79,49.29c0-0.3,0.25-0.54,0.54-0.54c0.3,0,0.54,0.24,0.54,0.54c0,0.29-0.24,0.54-0.54,0.54
		C104.05,49.83,103.79,49.58,103.79,49.29z M104.69,56.15h-0.72v-5.23h0.72V56.15z"/>
	<path class="st0" d="M106.18,55.04c0.44,0.4,0.9,0.62,1.47,0.62c0.66,0,1.08-0.25,1.08-0.84c0-0.62-0.46-0.79-1.28-1.07
		c-0.92-0.31-1.32-0.7-1.32-1.54c0-0.92,0.7-1.42,1.64-1.42c0.52,0,1.02,0.11,1.43,0.4v0.78c-0.41-0.34-0.83-0.56-1.43-0.56
		c-0.58,0-0.95,0.31-0.95,0.8c0,0.48,0.29,0.73,1.09,0.98c0.91,0.28,1.52,0.62,1.52,1.57c0,1.03-0.8,1.5-1.79,1.5
		c-0.59,0-1.15-0.17-1.47-0.42V55.04z"/>
	<path class="st0" d="M113.06,50.81c1.56,0,2.63,1.12,2.63,2.73s-1.07,2.73-2.63,2.73c-1.56,0-2.63-1.12-2.63-2.73
		S111.5,50.81,113.06,50.81z M113.06,51.43c-1.1,0-1.89,0.84-1.89,2.11s0.79,2.11,1.89,2.11c1.1,0,1.9-0.84,1.9-2.11
		S114.16,51.43,113.06,51.43z"/>
	<path class="st0" d="M120.96,51.96c-0.44-0.31-0.97-0.49-1.46-0.49c-1.08,0-2.01,0.72-2.01,2.09c0,1.32,0.92,2.06,2.06,2.06
		c0.55,0,1.02-0.18,1.5-0.49v0.76c-0.52,0.26-1.02,0.4-1.57,0.4c-1.46,0-2.72-1.02-2.72-2.73c0-1.75,1.29-2.73,2.71-2.73
		c0.58,0,1.03,0.13,1.5,0.4V51.96z"/>
	<path class="st0" d="M122.25,49.29c0-0.3,0.25-0.54,0.54-0.54c0.3,0,0.54,0.24,0.54,0.54c0,0.29-0.24,0.54-0.54,0.54
		C122.5,49.83,122.25,49.58,122.25,49.29z M123.15,56.15h-0.72v-5.23h0.72V56.15z"/>
	<path class="st0" d="M127.66,52.5c0-0.67-0.43-1.02-1.1-1.02c-0.6,0-1.06,0.17-1.54,0.42v-0.68c0.44-0.24,1.01-0.41,1.62-0.41
		c1.06,0,1.74,0.47,1.74,1.64v3.61c-0.48,0.13-1.04,0.19-1.49,0.19c-1.42,0-2.36-0.44-2.36-1.55c0-1.03,0.95-1.57,2.54-1.57h0.59
		V52.5z M127.66,53.72h-0.54c-1.08,0-1.87,0.29-1.87,0.98s0.72,0.95,1.68,0.95c0.22,0,0.48-0.02,0.73-0.07V53.72z"/>
	<path class="st0" d="M130.82,56.15h-0.72V48h0.72V56.15z"/>
	<path class="st0" d="M134.9,51.14c0.48-0.18,1.15-0.33,1.82-0.33c1.8,0,2.89,0.94,2.89,2.73c0,1.7-1.13,2.73-2.84,2.73
		c-0.42,0-0.88-0.08-1.15-0.22v2.25h-0.72V51.14z M135.62,55.43c0.34,0.14,0.71,0.22,1.15,0.22c1.27,0,2.11-0.78,2.11-2.11
		c0-1.28-0.78-2.08-2.16-2.08c-0.41,0-0.83,0.05-1.1,0.14V55.43z"/>
	<path class="st0" d="M141.4,53.58v0.02c0,1.28,0.92,2.04,1.94,2.04c0.74,0,1.26-0.19,1.79-0.59v0.72c-0.47,0.35-1.14,0.5-1.79,0.5
		c-1.51,0-2.66-1.03-2.66-2.73c0-1.57,1.08-2.73,2.48-2.73c1.32,0,2.19,0.79,2.19,2.28v0.49H141.4z M144.64,52.98
		c-0.05-1.09-0.64-1.54-1.51-1.54c-0.82,0-1.47,0.55-1.68,1.54H144.64z"/>
	<path class="st0" d="M147.46,56.15h-0.72v-4.75c0.55-0.35,1.22-0.56,1.94-0.56c0.29,0,0.58,0.04,0.88,0.11v0.71
		c-0.31-0.11-0.68-0.13-0.92-0.13c-0.52,0-0.9,0.11-1.18,0.26V56.15z"/>
	<path class="st0" d="M150.45,55.04c0.44,0.4,0.9,0.62,1.47,0.62c0.66,0,1.08-0.25,1.08-0.84c0-0.62-0.46-0.79-1.28-1.07
		c-0.92-0.31-1.32-0.7-1.32-1.54c0-0.92,0.7-1.42,1.64-1.42c0.52,0,1.02,0.11,1.43,0.4v0.78c-0.41-0.34-0.83-0.56-1.43-0.56
		c-0.58,0-0.95,0.31-0.95,0.8c0,0.48,0.29,0.73,1.09,0.98c0.91,0.28,1.52,0.62,1.52,1.57c0,1.03-0.8,1.5-1.79,1.5
		c-0.59,0-1.15-0.17-1.47-0.42V55.04z"/>
	<path class="st0" d="M157.32,50.81c1.56,0,2.63,1.12,2.63,2.73s-1.07,2.73-2.63,2.73c-1.56,0-2.63-1.12-2.63-2.73
		S155.76,50.81,157.32,50.81z M157.32,51.43c-1.1,0-1.89,0.84-1.89,2.11s0.79,2.11,1.89,2.11c1.1,0,1.9-0.84,1.9-2.11
		S158.43,51.43,157.32,51.43z"/>
	<path class="st0" d="M161.36,51.2c0.7-0.25,1.49-0.4,2.2-0.4c1.32,0,2.12,0.52,2.12,1.82v3.53h-0.72v-3.38
		c0-1.07-0.75-1.3-1.46-1.3c-0.55,0-1.04,0.1-1.42,0.19v4.49h-0.72V51.2z"/>
	<path class="st0" d="M170.13,52.5c0-0.67-0.43-1.02-1.1-1.02c-0.6,0-1.06,0.17-1.54,0.42v-0.68c0.44-0.24,1.01-0.41,1.62-0.41
		c1.06,0,1.74,0.47,1.74,1.64v3.61c-0.48,0.13-1.04,0.19-1.49,0.19c-1.42,0-2.36-0.44-2.36-1.55c0-1.03,0.95-1.57,2.54-1.57h0.59
		V52.5z M170.13,53.72h-0.54c-1.08,0-1.87,0.29-1.87,0.98s0.72,0.95,1.68,0.95c0.22,0,0.48-0.02,0.73-0.07V53.72z"/>
	<path class="st0" d="M173.28,56.15h-0.72V48h0.72V56.15z"/>
	<path class="st0" d="M174.9,49.29c0-0.3,0.25-0.54,0.54-0.54c0.3,0,0.54,0.24,0.54,0.54c0,0.29-0.24,0.54-0.54,0.54
		C175.16,49.83,174.9,49.58,174.9,49.29z M175.8,56.15h-0.72v-5.23h0.72V56.15z"/>
	<path class="st0" d="M176.88,50.93h0.8v-1.27h0.72v1.27h1.48v0.61h-1.48v3.19c0,0.67,0.26,0.93,0.76,0.93
		c0.34,0,0.61-0.11,0.97-0.29v0.64c-0.31,0.16-0.67,0.26-1.13,0.26c-0.76,0-1.32-0.4-1.32-1.48v-3.26h-0.8V50.93z"/>
	<path class="st0" d="M183.04,55.69l1.73-4.76h0.74l-2.83,7.39h-0.71l0.71-1.81l-2.18-5.58h0.79L183.04,55.69z"/>
	<path class="st0" d="M193.09,56.08c-0.56,0.13-1.15,0.19-1.7,0.19c-1.81,0-3.03-0.98-3.03-2.73c0-1.76,1.32-2.73,2.88-2.73
		c0.4,0,0.88,0.08,1.14,0.24V48h0.72V56.08z M192.37,51.69c-0.26-0.14-0.66-0.24-1.14-0.24c-1.21,0-2.15,0.74-2.15,2.09
		c0,1.33,0.92,2.1,2.3,2.1c0.34,0,0.67-0.01,0.98-0.06V51.69z"/>
	<path class="st0" d="M194.71,49.29c0-0.3,0.25-0.54,0.54-0.54c0.3,0,0.54,0.24,0.54,0.54c0,0.29-0.24,0.54-0.54,0.54
		C194.97,49.83,194.71,49.58,194.71,49.29z M195.61,56.15h-0.72v-5.23h0.72V56.15z"/>
	<path class="st0" d="M197.1,55.04c0.44,0.4,0.9,0.62,1.47,0.62c0.66,0,1.08-0.25,1.08-0.84c0-0.62-0.46-0.79-1.28-1.07
		c-0.92-0.31-1.32-0.7-1.32-1.54c0-0.92,0.7-1.42,1.64-1.42c0.52,0,1.02,0.11,1.43,0.4v0.78c-0.41-0.34-0.83-0.56-1.43-0.56
		c-0.58,0-0.95,0.31-0.95,0.8c0,0.48,0.29,0.73,1.09,0.98c0.91,0.28,1.52,0.62,1.52,1.57c0,1.03-0.8,1.5-1.79,1.5
		c-0.59,0-1.15-0.17-1.47-0.42V55.04z"/>
	<path class="st0" d="M203.98,50.81c1.56,0,2.63,1.12,2.63,2.73s-1.07,2.73-2.63,2.73c-1.56,0-2.63-1.12-2.63-2.73
		S202.42,50.81,203.98,50.81z M203.98,51.43c-1.1,0-1.89,0.84-1.89,2.11s0.79,2.11,1.89,2.11c1.1,0,1.9-0.84,1.9-2.11
		S205.08,51.43,203.98,51.43z"/>
	<path class="st0" d="M208.73,56.15h-0.72v-4.75c0.55-0.35,1.22-0.56,1.94-0.56c0.29,0,0.58,0.04,0.88,0.11v0.71
		c-0.31-0.11-0.68-0.13-0.92-0.13c-0.52,0-0.9,0.11-1.18,0.26V56.15z"/>
	<path class="st0" d="M216.13,56.08c-0.56,0.13-1.15,0.19-1.7,0.19c-1.81,0-3.03-0.98-3.03-2.73c0-1.76,1.32-2.73,2.88-2.73
		c0.4,0,0.88,0.08,1.14,0.24V48h0.72V56.08z M215.41,51.69c-0.26-0.14-0.66-0.24-1.14-0.24c-1.21,0-2.15,0.74-2.15,2.09
		c0,1.33,0.92,2.1,2.3,2.1c0.34,0,0.67-0.01,0.98-0.06V51.69z"/>
	<path class="st0" d="M218.26,53.58v0.02c0,1.28,0.92,2.04,1.94,2.04c0.74,0,1.26-0.19,1.79-0.59v0.72c-0.47,0.35-1.14,0.5-1.79,0.5
		c-1.51,0-2.66-1.03-2.66-2.73c0-1.57,1.08-2.73,2.48-2.73c1.32,0,2.19,0.79,2.19,2.28v0.49H218.26z M221.5,52.98
		c-0.05-1.09-0.64-1.54-1.51-1.54c-0.82,0-1.47,0.55-1.68,1.54H221.5z"/>
	<path class="st0" d="M224.32,56.15h-0.72v-4.75c0.55-0.35,1.22-0.56,1.94-0.56c0.29,0,0.58,0.04,0.88,0.11v0.71
		c-0.31-0.11-0.68-0.13-0.92-0.13c-0.52,0-0.9,0.11-1.18,0.26V56.15z"/>
	<path class="st0" d="M227.84,55.19c0,1-0.56,2.04-1.19,2.45h-0.58c0.58-0.6,0.92-1.49,0.92-2.45H227.84z"/>
	<path class="st0" d="M234.28,50.81c1.56,0,2.63,1.12,2.63,2.73s-1.07,2.73-2.63,2.73c-1.56,0-2.63-1.12-2.63-2.73
		S232.72,50.81,234.28,50.81z M234.28,51.43c-1.1,0-1.89,0.84-1.89,2.11s0.79,2.11,1.89,2.11c1.1,0,1.9-0.84,1.9-2.11
		S235.38,51.43,234.28,51.43z"/>
	<path class="st0" d="M239.03,56.15h-0.72v-4.75c0.55-0.35,1.22-0.56,1.94-0.56c0.29,0,0.58,0.04,0.88,0.11v0.71
		c-0.31-0.11-0.68-0.13-0.92-0.13c-0.52,0-0.9,0.11-1.18,0.26V56.15z"/>
	<path class="st0" d="M18.29,60H19v3.07c0.23-0.13,0.74-0.26,1.25-0.26c1.57,0,2.75,0.91,2.75,2.71c0,1.69-1.2,2.76-3.01,2.76
		c-0.55,0-1.16-0.1-1.7-0.26V60z M19,67.52c0.3,0.08,0.65,0.12,0.98,0.12c1.39,0,2.28-0.79,2.28-2.12c0-1.34-0.92-2.06-2.01-2.06
		c-0.54,0-0.95,0.1-1.25,0.24V67.52z"/>
	<path class="st0" d="M26.7,62.81c1.56,0,2.63,1.12,2.63,2.73s-1.07,2.73-2.63,2.73c-1.56,0-2.63-1.12-2.63-2.73
		S25.14,62.81,26.7,62.81z M26.7,63.43c-1.1,0-1.89,0.84-1.89,2.11s0.79,2.11,1.89,2.11c1.1,0,1.9-0.84,1.9-2.11
		S27.8,63.43,26.7,63.43z"/>
	<path class="st0" d="M31.45,68.15h-0.72v-4.75c0.55-0.35,1.22-0.56,1.94-0.56c0.29,0,0.58,0.04,0.88,0.11v0.71
		c-0.31-0.11-0.68-0.13-0.92-0.13c-0.52,0-0.9,0.11-1.18,0.26V68.15z"/>
	<path class="st0" d="M38.85,68.08c-0.56,0.13-1.15,0.19-1.7,0.19c-1.81,0-3.03-0.98-3.03-2.73c0-1.76,1.32-2.73,2.88-2.73
		c0.4,0,0.88,0.08,1.14,0.24V60h0.72V68.08z M38.13,63.69c-0.26-0.14-0.66-0.24-1.14-0.24c-1.21,0-2.15,0.74-2.15,2.09
		c0,1.33,0.92,2.1,2.3,2.1c0.34,0,0.67-0.01,0.98-0.06V63.69z"/>
	<path class="st0" d="M40.98,65.58v0.02c0,1.28,0.92,2.04,1.94,2.04c0.74,0,1.26-0.19,1.79-0.59v0.72c-0.47,0.35-1.14,0.5-1.79,0.5
		c-1.51,0-2.66-1.03-2.66-2.73c0-1.57,1.08-2.73,2.48-2.73c1.32,0,2.2,0.79,2.2,2.28v0.49H40.98z M44.21,64.98
		c-0.05-1.09-0.64-1.54-1.51-1.54c-0.82,0-1.47,0.55-1.68,1.54H44.21z"/>
	<path class="st0" d="M47.04,68.15h-0.72v-4.75c0.55-0.35,1.22-0.56,1.94-0.56c0.29,0,0.58,0.04,0.88,0.11v0.71
		c-0.31-0.11-0.68-0.13-0.92-0.13c-0.52,0-0.9,0.11-1.18,0.26V68.15z"/>
	<path class="st0" d="M51,68.15h-0.72V60H51V68.15z"/>
	<path class="st0" d="M52.62,61.29c0-0.3,0.25-0.54,0.54-0.54c0.3,0,0.54,0.24,0.54,0.54c0,0.29-0.24,0.54-0.54,0.54
		C52.87,61.83,52.62,61.58,52.62,61.29z M53.52,68.15H52.8v-5.23h0.72V68.15z"/>
	<path class="st0" d="M55.32,63.2c0.7-0.25,1.49-0.4,2.2-0.4c1.32,0,2.12,0.52,2.12,1.82v3.53h-0.72v-3.38c0-1.07-0.75-1.3-1.46-1.3
		c-0.55,0-1.04,0.1-1.42,0.19v4.49h-0.72V63.2z"/>
	<path class="st0" d="M61.7,65.58v0.02c0,1.28,0.92,2.04,1.94,2.04c0.74,0,1.26-0.19,1.79-0.59v0.72c-0.47,0.35-1.14,0.5-1.79,0.5
		c-1.51,0-2.66-1.03-2.66-2.73c0-1.57,1.08-2.73,2.48-2.73c1.32,0,2.2,0.79,2.2,2.28v0.49H61.7z M64.94,64.98
		c-0.05-1.09-0.64-1.54-1.51-1.54c-0.82,0-1.47,0.55-1.68,1.54H64.94z"/>
	<path class="st0" d="M69.32,63.14c0.48-0.18,1.15-0.33,1.82-0.33c1.8,0,2.89,0.94,2.89,2.73c0,1.7-1.13,2.73-2.84,2.73
		c-0.42,0-0.88-0.08-1.15-0.22v2.25h-0.72V63.14z M70.04,67.43c0.34,0.14,0.71,0.22,1.15,0.22c1.27,0,2.11-0.78,2.11-2.11
		c0-1.28-0.78-2.08-2.16-2.08c-0.41,0-0.83,0.05-1.1,0.14V67.43z"/>
	<path class="st0" d="M75.82,65.58v0.02c0,1.28,0.92,2.04,1.94,2.04c0.74,0,1.26-0.19,1.79-0.59v0.72c-0.47,0.35-1.14,0.5-1.79,0.5
		c-1.51,0-2.66-1.03-2.66-2.73c0-1.57,1.08-2.73,2.48-2.73c1.32,0,2.19,0.79,2.19,2.28v0.49H75.82z M79.06,64.98
		c-0.05-1.09-0.64-1.54-1.51-1.54c-0.82,0-1.47,0.55-1.68,1.54H79.06z"/>
	<path class="st0" d="M81.88,68.15h-0.72v-4.75c0.55-0.35,1.22-0.56,1.94-0.56c0.29,0,0.58,0.04,0.88,0.11v0.71
		c-0.31-0.11-0.68-0.13-0.92-0.13c-0.52,0-0.9,0.11-1.18,0.26V68.15z"/>
	<path class="st0" d="M84.87,67.04c0.44,0.4,0.9,0.62,1.47,0.62c0.66,0,1.08-0.25,1.08-0.84c0-0.62-0.46-0.79-1.28-1.07
		c-0.92-0.31-1.32-0.7-1.32-1.54c0-0.92,0.7-1.42,1.64-1.42c0.52,0,1.02,0.11,1.43,0.4v0.78c-0.41-0.34-0.83-0.56-1.43-0.56
		c-0.58,0-0.95,0.31-0.95,0.8c0,0.48,0.29,0.73,1.09,0.98c0.91,0.28,1.52,0.62,1.52,1.57c0,1.03-0.8,1.5-1.79,1.5
		c-0.59,0-1.15-0.17-1.47-0.42V67.04z"/>
	<path class="st0" d="M91.75,62.81c1.56,0,2.63,1.12,2.63,2.73s-1.07,2.73-2.63,2.73c-1.56,0-2.63-1.12-2.63-2.73
		S90.19,62.81,91.75,62.81z M91.75,63.43c-1.1,0-1.89,0.84-1.89,2.11s0.79,2.11,1.89,2.11c1.1,0,1.9-0.84,1.9-2.11
		S92.85,63.43,91.75,63.43z"/>
	<path class="st0" d="M95.78,63.2c0.7-0.25,1.49-0.4,2.2-0.4c1.32,0,2.12,0.52,2.12,1.82v3.53h-0.72v-3.38c0-1.07-0.75-1.3-1.46-1.3
		c-0.55,0-1.04,0.1-1.42,0.19v4.49h-0.72V63.2z"/>
	<path class="st0" d="M104.55,64.5c0-0.67-0.43-1.02-1.1-1.02c-0.6,0-1.06,0.17-1.54,0.42v-0.68c0.44-0.24,1.01-0.41,1.62-0.41
		c1.06,0,1.74,0.47,1.74,1.64v3.61c-0.48,0.13-1.04,0.19-1.49,0.19c-1.42,0-2.36-0.44-2.36-1.55c0-1.03,0.95-1.57,2.54-1.57h0.59
		V64.5z M104.55,65.72h-0.54c-1.08,0-1.87,0.29-1.87,0.98s0.72,0.95,1.68,0.95c0.22,0,0.48-0.02,0.73-0.07V65.72z"/>
	<path class="st0" d="M107.71,68.15h-0.72V60h0.72V68.15z"/>
	<path class="st0" d="M109.33,61.29c0-0.3,0.25-0.54,0.54-0.54c0.3,0,0.54,0.24,0.54,0.54c0,0.29-0.24,0.54-0.54,0.54
		C109.58,61.83,109.33,61.58,109.33,61.29z M110.22,68.15h-0.72v-5.23h0.72V68.15z"/>
	<path class="st0" d="M111.3,62.93h0.8v-1.27h0.72v1.27h1.48v0.61h-1.48v3.19c0,0.67,0.26,0.93,0.76,0.93
		c0.34,0,0.61-0.11,0.97-0.29v0.64c-0.31,0.16-0.67,0.26-1.13,0.26c-0.76,0-1.32-0.4-1.32-1.48v-3.26h-0.8V62.93z"/>
	<path class="st0" d="M117.46,67.69l1.73-4.76h0.74l-2.83,7.39h-0.71l0.71-1.81l-2.18-5.58h0.79L117.46,67.69z"/>
	<path class="st0" d="M127.51,68.08c-0.56,0.13-1.15,0.19-1.7,0.19c-1.81,0-3.03-0.98-3.03-2.73c0-1.76,1.32-2.73,2.88-2.73
		c0.4,0,0.88,0.08,1.14,0.24V60h0.72V68.08z M126.79,63.69c-0.26-0.14-0.66-0.24-1.14-0.24c-1.21,0-2.15,0.74-2.15,2.09
		c0,1.33,0.92,2.1,2.3,2.1c0.34,0,0.67-0.01,0.98-0.06V63.69z"/>
	<path class="st0" d="M129.14,61.29c0-0.3,0.25-0.54,0.54-0.54c0.3,0,0.54,0.24,0.54,0.54c0,0.29-0.24,0.54-0.54,0.54
		C129.39,61.83,129.14,61.58,129.14,61.29z M130.04,68.15h-0.72v-5.23h0.72V68.15z"/>
	<path class="st0" d="M131.52,67.04c0.44,0.4,0.9,0.62,1.47,0.62c0.66,0,1.08-0.25,1.08-0.84c0-0.62-0.46-0.79-1.28-1.07
		c-0.92-0.31-1.32-0.7-1.32-1.54c0-0.92,0.7-1.42,1.64-1.42c0.52,0,1.02,0.11,1.43,0.4v0.78c-0.41-0.34-0.83-0.56-1.43-0.56
		c-0.58,0-0.95,0.31-0.95,0.8c0,0.48,0.29,0.73,1.09,0.98c0.91,0.28,1.52,0.62,1.52,1.57c0,1.03-0.8,1.5-1.79,1.5
		c-0.59,0-1.15-0.17-1.47-0.42V67.04z"/>
	<path class="st0" d="M138.4,62.81c1.56,0,2.63,1.12,2.63,2.73s-1.07,2.73-2.63,2.73c-1.56,0-2.63-1.12-2.63-2.73
		S136.84,62.81,138.4,62.81z M138.4,63.43c-1.1,0-1.89,0.84-1.89,2.11s0.79,2.11,1.89,2.11c1.1,0,1.9-0.84,1.9-2.11
		S139.5,63.43,138.4,63.43z"/>
	<path class="st0" d="M143.15,68.15h-0.72v-4.75c0.55-0.35,1.22-0.56,1.94-0.56c0.29,0,0.58,0.04,0.88,0.11v0.71
		c-0.31-0.11-0.68-0.13-0.92-0.13c-0.52,0-0.9,0.11-1.18,0.26V68.15z"/>
	<path class="st0" d="M150.55,68.08c-0.56,0.13-1.15,0.19-1.7,0.19c-1.81,0-3.03-0.98-3.03-2.73c0-1.76,1.32-2.73,2.88-2.73
		c0.4,0,0.88,0.08,1.14,0.24V60h0.72V68.08z M149.83,63.69c-0.26-0.14-0.66-0.24-1.14-0.24c-1.21,0-2.15,0.74-2.15,2.09
		c0,1.33,0.92,2.1,2.3,2.1c0.34,0,0.67-0.01,0.98-0.06V63.69z"/>
	<path class="st0" d="M152.68,65.58v0.02c0,1.28,0.92,2.04,1.94,2.04c0.74,0,1.26-0.19,1.79-0.59v0.72c-0.47,0.35-1.14,0.5-1.79,0.5
		c-1.51,0-2.66-1.03-2.66-2.73c0-1.57,1.08-2.73,2.48-2.73c1.32,0,2.19,0.79,2.19,2.28v0.49H152.68z M155.92,64.98
		c-0.05-1.09-0.64-1.54-1.51-1.54c-0.82,0-1.47,0.55-1.68,1.54H155.92z"/>
	<path class="st0" d="M158.74,68.15h-0.72v-4.75c0.55-0.35,1.22-0.56,1.94-0.56c0.29,0,0.58,0.04,0.88,0.11v0.71
		c-0.31-0.11-0.68-0.13-0.92-0.13c-0.52,0-0.9,0.11-1.18,0.26V68.15z"/>
	<path class="st0" d="M8.77,78.37c0.6,0,1.08,0.48,1.08,1.08s-0.48,1.08-1.08,1.08s-1.08-0.48-1.08-1.08S8.17,78.37,8.77,78.37z"/>
	<path class="st0" d="M23.57,76.71c-0.52-0.49-1.22-0.73-1.98-0.73c-1.61,0-2.92,1.17-2.92,3.01c0,1.84,1.31,3.01,2.92,3.01
		c0.75,0,1.5-0.23,2.01-0.71v0.85c-0.56,0.34-1.28,0.53-2,0.53c-2.16,0-3.68-1.5-3.68-3.68c0-2.19,1.63-3.68,3.68-3.68
		c0.72,0,1.39,0.19,1.97,0.54V76.71z"/>
	<path class="st0" d="M29.13,82.49c-0.64,0.12-1.28,0.18-1.82,0.18c-1.51,0-2.38-0.52-2.38-1.82v-3.53h0.72v3.49
		c0,0.98,0.78,1.24,1.61,1.24c0.36,0,0.77-0.02,1.15-0.07v-4.65h0.72V82.49z"/>
	<path class="st0" d="M31.65,82.55h-0.72V77.8c0.55-0.35,1.22-0.56,1.94-0.56c0.29,0,0.58,0.04,0.88,0.11v0.71
		c-0.31-0.11-0.68-0.13-0.92-0.13c-0.52,0-0.9,0.11-1.18,0.26V82.55z"/>
	<path class="st0" d="M35.61,82.55h-0.72V77.8c0.55-0.35,1.22-0.56,1.94-0.56c0.29,0,0.58,0.04,0.88,0.11v0.71
		c-0.31-0.11-0.68-0.13-0.92-0.13c-0.52,0-0.9,0.11-1.18,0.26V82.55z"/>
	<path class="st0" d="M39,79.98V80c0,1.28,0.92,2.04,1.94,2.04c0.74,0,1.26-0.19,1.79-0.59v0.72c-0.47,0.35-1.14,0.5-1.79,0.5
		c-1.51,0-2.66-1.03-2.66-2.73c0-1.57,1.08-2.73,2.48-2.73c1.32,0,2.19,0.79,2.19,2.28v0.49H39z M42.24,79.38
		c-0.05-1.09-0.64-1.54-1.51-1.54c-0.82,0-1.47,0.55-1.68,1.54H42.24z"/>
	<path class="st0" d="M44.34,77.6c0.7-0.25,1.49-0.4,2.2-0.4c1.32,0,2.12,0.52,2.12,1.82v3.53h-0.72v-3.38c0-1.07-0.75-1.3-1.46-1.3
		c-0.55,0-1.04,0.1-1.42,0.19v4.49h-0.72V77.6z"/>
	<path class="st0" d="M49.68,77.32h0.8v-1.27h0.72v1.27h1.48v0.61H51.2v3.19c0,0.67,0.26,0.93,0.76,0.93c0.34,0,0.61-0.11,0.97-0.29
		v0.64c-0.31,0.16-0.67,0.26-1.13,0.26c-0.76,0-1.32-0.4-1.32-1.48v-3.26h-0.8V77.32z"/>
	<path class="st0" d="M58.7,77.21c1.56,0,2.63,1.12,2.63,2.73s-1.07,2.73-2.63,2.73c-1.56,0-2.63-1.12-2.63-2.73
		S57.14,77.21,58.7,77.21z M58.7,77.83c-1.1,0-1.89,0.84-1.89,2.11c0,1.27,0.79,2.11,1.89,2.11c1.1,0,1.9-0.84,1.9-2.11
		C60.59,78.67,59.8,77.83,58.7,77.83z"/>
	<path class="st0" d="M63.45,82.55h-0.72V77.8c0.55-0.35,1.22-0.56,1.94-0.56c0.29,0,0.58,0.04,0.88,0.11v0.71
		c-0.31-0.11-0.68-0.13-0.92-0.13c-0.52,0-0.9,0.11-1.18,0.26V82.55z"/>
	<path class="st0" d="M68.97,77.54c0.48-0.18,1.15-0.33,1.82-0.33c1.8,0,2.89,0.93,2.89,2.73c0,1.7-1.13,2.73-2.84,2.73
		c-0.42,0-0.88-0.08-1.15-0.22v2.25h-0.72V77.54z M69.69,81.83c0.34,0.14,0.71,0.22,1.15,0.22c1.27,0,2.11-0.78,2.11-2.11
		c0-1.28-0.78-2.08-2.16-2.08c-0.41,0-0.83,0.05-1.1,0.14V81.83z"/>
	<path class="st0" d="M75.81,82.55h-0.72V77.8c0.55-0.35,1.22-0.56,1.94-0.56c0.29,0,0.58,0.04,0.88,0.11v0.71
		c-0.31-0.11-0.68-0.13-0.92-0.13c-0.52,0-0.9,0.11-1.18,0.26V82.55z"/>
	<path class="st0" d="M78.87,75.69c0-0.3,0.25-0.54,0.54-0.54c0.3,0,0.54,0.24,0.54,0.54c0,0.29-0.24,0.54-0.54,0.54
		C79.12,76.23,78.87,75.98,78.87,75.69z M79.77,82.55h-0.72v-5.23h0.72V82.55z"/>
	<path class="st0" d="M83.8,77.21c1.56,0,2.63,1.12,2.63,2.73s-1.07,2.73-2.63,2.73c-1.56,0-2.63-1.12-2.63-2.73
		S82.24,77.21,83.8,77.21z M83.8,77.83c-1.1,0-1.89,0.84-1.89,2.11c0,1.27,0.79,2.11,1.89,2.11c1.1,0,1.9-0.84,1.9-2.11
		C85.7,78.67,84.91,77.83,83.8,77.83z"/>
	<path class="st0" d="M88.56,82.55h-0.72V77.8c0.55-0.35,1.22-0.56,1.94-0.56c0.29,0,0.58,0.04,0.88,0.11v0.71
		c-0.31-0.11-0.68-0.13-0.92-0.13c-0.52,0-0.9,0.11-1.18,0.26V82.55z"/>
	<path class="st0" d="M94.2,75.41c0.53-0.06,1.02-0.1,1.46-0.1c3.26,0,4.37,1.69,4.37,3.51c0,2-1.16,3.85-4.27,3.85
		c-0.6,0-1.05-0.05-1.56-0.11V75.41z M94.94,81.98c0.29,0.04,0.56,0.05,0.83,0.05c2.04,0,3.48-1.02,3.48-3.19
		c0-1.68-1.07-2.85-3.61-2.85c-0.23,0-0.44,0.01-0.7,0.04V81.98z"/>
	<path class="st0" d="M101.07,81.31c0.58,0.46,1.09,0.73,1.81,0.73c0.85,0,1.58-0.37,1.58-1.31c0-0.85-0.63-1.17-1.49-1.49
		c-1.27-0.47-1.96-0.89-1.96-2.1c0-1.21,1.01-1.83,2.07-1.83c0.7,0,1.27,0.22,1.7,0.56v0.77c-0.58-0.46-1.05-0.7-1.7-0.7
		c-0.8,0-1.35,0.48-1.35,1.21c0,0.68,0.41,1.02,1.44,1.38c1.32,0.46,2.02,0.95,2.02,2.19c0,1.31-1.03,1.94-2.32,1.94
		c-0.77,0-1.38-0.22-1.81-0.55V81.31z"/>
	<path class="st0" d="M109.99,82.55l-1.96-6.42l-1.09,6.42h-0.72l1.27-7.12h1l1.94,6.37l1.94-6.37h1l1.27,7.12h-0.74l-1.09-6.42
		l-1.95,6.42H109.99z"/>
	<path class="st0" d="M115.87,79.12h2.58v0.65h-2.58V79.12z"/>
	<path class="st0" d="M120.54,78.16c1.63,0.2,2.9,0.82,2.9,2.41c0,1.09-0.78,2.1-2.48,2.1c-0.62,0-1.2-0.18-1.61-0.46v-0.7
		c0.5,0.34,1.04,0.54,1.59,0.54c1.15,0,1.75-0.61,1.75-1.49c0-1.3-1.22-1.69-2.84-1.87l0.23-3.27h3.18v0.65h-2.58L120.54,78.16z"/>
	<path class="st0" d="M131.44,82.48c-0.56,0.13-1.15,0.19-1.7,0.19c-1.81,0-3.03-0.98-3.03-2.73c0-1.76,1.32-2.73,2.88-2.73
		c0.4,0,0.88,0.08,1.14,0.24V74.4h0.72V82.48z M130.72,78.09c-0.26-0.14-0.66-0.24-1.14-0.24c-1.21,0-2.15,0.74-2.15,2.09
		c0,1.33,0.92,2.1,2.3,2.1c0.34,0,0.67-0.01,0.98-0.06V78.09z"/>
	<path class="st0" d="M133.06,75.69c0-0.3,0.25-0.54,0.54-0.54c0.3,0,0.54,0.24,0.54,0.54c0,0.29-0.24,0.54-0.54,0.54
		C133.31,76.23,133.06,75.98,133.06,75.69z M133.96,82.55h-0.72v-5.23h0.72V82.55z"/>
	<path class="st0" d="M138.47,78.9c0-0.67-0.43-1.02-1.1-1.02c-0.6,0-1.06,0.17-1.54,0.42v-0.68c0.44-0.24,1.01-0.41,1.62-0.41
		c1.06,0,1.74,0.47,1.74,1.64v3.61c-0.48,0.13-1.04,0.19-1.49,0.19c-1.42,0-2.36-0.44-2.36-1.55c0-1.03,0.95-1.57,2.54-1.57h0.59
		V78.9z M138.47,80.12h-0.54c-1.08,0-1.87,0.29-1.87,0.98s0.72,0.95,1.68,0.95c0.22,0,0.48-0.02,0.73-0.07V80.12z"/>
	<path class="st0" d="M144.51,82.37c-0.18,0.12-0.66,0.23-1.08,0.23c-1.71,0-2.91-0.9-2.91-2.69c0-1.69,1.17-2.71,3.01-2.71
		c0.54,0,1.26,0.14,1.7,0.33v5.07c0,1.6-1.2,2.22-2.4,2.22c-0.64,0-1.24-0.14-1.62-0.32v-0.68c0.46,0.22,1.06,0.4,1.62,0.4
		c0.86,0,1.68-0.42,1.68-1.74V82.37z M144.51,78.02c-0.29-0.1-0.61-0.16-0.98-0.16c-1.45,0-2.29,0.77-2.29,2.05
		c0,1.26,0.84,2.05,2.19,2.05c0.43,0,0.72-0.07,1.08-0.2V78.02z"/>
	<path class="st0" d="M147.03,77.6c0.7-0.25,1.49-0.4,2.2-0.4c1.32,0,2.12,0.52,2.12,1.82v3.53h-0.72v-3.38
		c0-1.07-0.75-1.3-1.46-1.3c-0.55,0-1.04,0.1-1.42,0.19v4.49h-0.72V77.6z"/>
	<path class="st0" d="M155.32,77.21c1.56,0,2.63,1.12,2.63,2.73s-1.07,2.73-2.63,2.73c-1.56,0-2.63-1.12-2.63-2.73
		S153.76,77.21,155.32,77.21z M155.32,77.83c-1.1,0-1.89,0.84-1.89,2.11c0,1.27,0.79,2.11,1.89,2.11c1.1,0,1.9-0.84,1.9-2.11
		C157.22,78.67,156.42,77.83,155.32,77.83z"/>
	<path class="st0" d="M159.04,81.44c0.44,0.4,0.9,0.62,1.47,0.62c0.66,0,1.08-0.25,1.08-0.84c0-0.62-0.46-0.79-1.28-1.07
		c-0.92-0.31-1.32-0.7-1.32-1.54c0-0.92,0.7-1.42,1.64-1.42c0.52,0,1.02,0.11,1.43,0.4v0.78c-0.41-0.34-0.83-0.56-1.43-0.56
		c-0.58,0-0.95,0.31-0.95,0.8c0,0.48,0.29,0.73,1.09,0.98c0.91,0.28,1.52,0.62,1.52,1.57c0,1.03-0.8,1.5-1.79,1.5
		c-0.59,0-1.15-0.17-1.47-0.42V81.44z"/>
	<path class="st0" d="M163.56,75.69c0-0.3,0.25-0.54,0.54-0.54c0.3,0,0.54,0.24,0.54,0.54c0,0.29-0.24,0.54-0.54,0.54
		C163.82,76.23,163.56,75.98,163.56,75.69z M164.46,82.55h-0.72v-5.23h0.72V82.55z"/>
	<path class="st0" d="M165.95,81.44c0.44,0.4,0.9,0.62,1.47,0.62c0.66,0,1.08-0.25,1.08-0.84c0-0.62-0.46-0.79-1.28-1.07
		c-0.92-0.31-1.32-0.7-1.32-1.54c0-0.92,0.7-1.42,1.64-1.42c0.52,0,1.02,0.11,1.43,0.4v0.78c-0.41-0.34-0.83-0.56-1.43-0.56
		c-0.58,0-0.95,0.31-0.95,0.8c0,0.48,0.29,0.73,1.09,0.98c0.91,0.28,1.52,0.62,1.52,1.57c0,1.03-0.8,1.5-1.79,1.5
		c-0.59,0-1.15-0.17-1.47-0.42V81.44z"/>
	<path class="st0" d="M175.17,77.21c1.56,0,2.63,1.12,2.63,2.73s-1.07,2.73-2.63,2.73c-1.56,0-2.63-1.12-2.63-2.73
		S173.61,77.21,175.17,77.21z M175.17,77.83c-1.1,0-1.89,0.84-1.89,2.11c0,1.27,0.79,2.11,1.89,2.11c1.1,0,1.9-0.84,1.9-2.11
		C177.06,78.67,176.27,77.83,175.17,77.83z"/>
	<path class="st0" d="M180.06,82.55h-0.72v-4.62h-0.8v-0.61h0.8v-1.31c0-1.09,0.56-1.74,1.61-1.74c0.4,0,0.68,0.08,0.94,0.26v0.68
		c-0.25-0.18-0.54-0.31-0.92-0.31c-0.55,0-0.9,0.26-0.9,1.12v1.29h1.44v0.61h-1.44V82.55z"/>
	<path class="st0" d="M187.42,78.9c0-0.67-0.43-1.02-1.1-1.02c-0.6,0-1.06,0.17-1.54,0.42v-0.68c0.44-0.24,1.01-0.41,1.62-0.41
		c1.06,0,1.74,0.47,1.74,1.64v3.61c-0.48,0.13-1.04,0.19-1.49,0.19c-1.42,0-2.36-0.44-2.36-1.55c0-1.03,0.95-1.57,2.54-1.57h0.59
		V78.9z M187.42,80.12h-0.54c-1.08,0-1.87,0.29-1.87,0.98s0.72,0.95,1.68,0.95c0.22,0,0.48-0.02,0.73-0.07V80.12z"/>
	<path class="st0" d="M192.13,77.54c0.48-0.18,1.15-0.33,1.82-0.33c1.8,0,2.89,0.93,2.89,2.73c0,1.7-1.13,2.73-2.84,2.73
		c-0.42,0-0.88-0.08-1.15-0.22v2.25h-0.72V77.54z M192.85,81.83c0.34,0.14,0.71,0.22,1.15,0.22c1.27,0,2.11-0.78,2.11-2.11
		c0-1.28-0.78-2.08-2.16-2.08c-0.41,0-0.83,0.05-1.1,0.14V81.83z"/>
	<path class="st0" d="M197.94,81.44c0.44,0.4,0.9,0.62,1.47,0.62c0.66,0,1.08-0.25,1.08-0.84c0-0.62-0.46-0.79-1.28-1.07
		c-0.92-0.31-1.32-0.7-1.32-1.54c0-0.92,0.7-1.42,1.64-1.42c0.52,0,1.02,0.11,1.43,0.4v0.78c-0.41-0.34-0.83-0.56-1.43-0.56
		c-0.58,0-0.95,0.31-0.95,0.8c0,0.48,0.29,0.73,1.09,0.98c0.91,0.28,1.52,0.62,1.52,1.57c0,1.03-0.8,1.5-1.79,1.5
		c-0.59,0-1.15-0.17-1.47-0.42V81.44z"/>
	<path class="st0" d="M204.29,82.09l1.73-4.76h0.74l-2.83,7.39h-0.71l0.71-1.81l-2.18-5.58h0.79L204.29,82.09z"/>
	<path class="st0" d="M211.54,78.36c-0.44-0.31-0.97-0.49-1.46-0.49c-1.08,0-2.01,0.72-2.01,2.09c0,1.32,0.92,2.06,2.06,2.06
		c0.55,0,1.02-0.18,1.5-0.49v0.76c-0.52,0.26-1.02,0.4-1.57,0.4c-1.46,0-2.72-1.02-2.72-2.73c0-1.75,1.29-2.73,2.71-2.73
		c0.58,0,1.03,0.13,1.5,0.4V78.36z"/>
	<path class="st0" d="M213,74.4h0.72v3.08c0.4-0.14,0.98-0.28,1.54-0.28c1.26,0,2.06,0.52,2.06,1.82v3.53h-0.72v-3.38
		c0-1.07-0.75-1.3-1.46-1.3c-0.55,0-1.06,0.12-1.42,0.24v4.44H213V74.4z"/>
	<path class="st0" d="M221.29,77.21c1.56,0,2.63,1.12,2.63,2.73s-1.07,2.73-2.63,2.73c-1.56,0-2.63-1.12-2.63-2.73
		S219.73,77.21,221.29,77.21z M221.29,77.83c-1.1,0-1.89,0.84-1.89,2.11c0,1.27,0.79,2.11,1.89,2.11c1.1,0,1.9-0.84,1.9-2.11
		C223.19,78.67,222.4,77.83,221.29,77.83z"/>
	<path class="st0" d="M224.61,77.32h0.8v-1.27h0.72v1.27h1.48v0.61h-1.48v3.19c0,0.67,0.26,0.93,0.76,0.93
		c0.34,0,0.61-0.11,0.97-0.29v0.64c-0.31,0.16-0.67,0.26-1.13,0.26c-0.76,0-1.32-0.4-1.32-1.48v-3.26h-0.8V77.32z"/>
	<path class="st0" d="M228.94,75.69c0-0.3,0.25-0.54,0.54-0.54c0.3,0,0.54,0.24,0.54,0.54c0,0.29-0.24,0.54-0.54,0.54
		C229.19,76.23,228.94,75.98,228.94,75.69z M229.84,82.55h-0.72v-5.23h0.72V82.55z"/>
	<path class="st0" d="M235.45,78.36c-0.44-0.31-0.97-0.49-1.46-0.49c-1.08,0-2.01,0.72-2.01,2.09c0,1.32,0.92,2.06,2.06,2.06
		c0.55,0,1.02-0.18,1.5-0.49v0.76c-0.52,0.26-1.02,0.4-1.57,0.4c-1.46,0-2.72-1.02-2.72-2.73c0-1.75,1.29-2.73,2.71-2.73
		c0.58,0,1.03,0.13,1.5,0.4V78.36z"/>
	<path class="st0" d="M22.63,94.48c-0.56,0.13-1.15,0.19-1.7,0.19c-1.81,0-3.03-0.98-3.03-2.73c0-1.76,1.32-2.73,2.88-2.73
		c0.4,0,0.88,0.08,1.14,0.24V86.4h0.72V94.48z M21.91,90.09c-0.26-0.14-0.66-0.24-1.14-0.24c-1.21,0-2.15,0.74-2.15,2.09
		c0,1.33,0.92,2.1,2.3,2.1c0.34,0,0.67-0.01,0.98-0.06V90.09z"/>
	<path class="st0" d="M24.25,87.69c0-0.3,0.25-0.54,0.54-0.54c0.3,0,0.54,0.24,0.54,0.54c0,0.29-0.24,0.54-0.54,0.54
		C24.5,88.23,24.25,87.98,24.25,87.69z M25.15,94.55h-0.72v-5.23h0.72V94.55z"/>
	<path class="st0" d="M26.64,93.44c0.44,0.4,0.9,0.62,1.47,0.62c0.66,0,1.08-0.25,1.08-0.84c0-0.62-0.46-0.79-1.28-1.07
		c-0.92-0.31-1.32-0.7-1.32-1.54c0-0.92,0.7-1.42,1.64-1.42c0.52,0,1.02,0.11,1.43,0.4v0.78c-0.41-0.34-0.83-0.56-1.43-0.56
		c-0.58,0-0.95,0.31-0.95,0.8c0,0.48,0.29,0.73,1.09,0.98c0.91,0.28,1.52,0.62,1.52,1.57c0,1.03-0.8,1.5-1.79,1.5
		c-0.59,0-1.15-0.17-1.47-0.42V93.44z"/>
	<path class="st0" d="M33.51,89.21c1.56,0,2.63,1.12,2.63,2.73s-1.07,2.73-2.63,2.73c-1.56,0-2.63-1.12-2.63-2.73
		S31.95,89.21,33.51,89.21z M33.51,89.83c-1.1,0-1.89,0.84-1.89,2.11c0,1.27,0.79,2.11,1.89,2.11c1.1,0,1.9-0.84,1.9-2.11
		C35.41,90.67,34.61,89.83,33.51,89.83z"/>
	<path class="st0" d="M38.26,94.55h-0.72V89.8c0.55-0.35,1.22-0.56,1.94-0.56c0.29,0,0.58,0.04,0.88,0.11v0.71
		c-0.31-0.11-0.68-0.13-0.92-0.13c-0.52,0-0.9,0.11-1.18,0.26V94.55z"/>
	<path class="st0" d="M45.67,94.48c-0.56,0.13-1.15,0.19-1.7,0.19c-1.81,0-3.03-0.98-3.03-2.73c0-1.76,1.32-2.73,2.88-2.73
		c0.4,0,0.88,0.08,1.14,0.24V86.4h0.72V94.48z M44.95,90.09c-0.26-0.14-0.66-0.24-1.14-0.24c-1.21,0-2.15,0.74-2.15,2.09
		c0,1.33,0.92,2.1,2.3,2.1c0.34,0,0.67-0.01,0.98-0.06V90.09z"/>
	<path class="st0" d="M47.79,91.98V92c0,1.28,0.92,2.04,1.94,2.04c0.74,0,1.26-0.19,1.79-0.59v0.72c-0.47,0.35-1.14,0.5-1.79,0.5
		c-1.51,0-2.66-1.03-2.66-2.73c0-1.57,1.08-2.73,2.48-2.73c1.32,0,2.2,0.79,2.2,2.28v0.49H47.79z M51.03,91.38
		c-0.05-1.09-0.64-1.54-1.51-1.54c-0.82,0-1.47,0.55-1.68,1.54H51.03z"/>
	<path class="st0" d="M53.85,94.55h-0.72V89.8c0.55-0.35,1.22-0.56,1.94-0.56c0.29,0,0.58,0.04,0.88,0.11v0.71
		c-0.31-0.11-0.68-0.13-0.92-0.13c-0.52,0-0.9,0.11-1.18,0.26V94.55z"/>
	<path class="st0" d="M61.6,89.21c1.56,0,2.63,1.12,2.63,2.73s-1.07,2.73-2.63,2.73c-1.56,0-2.63-1.12-2.63-2.73
		S60.04,89.21,61.6,89.21z M61.6,89.83c-1.1,0-1.89,0.84-1.89,2.11c0,1.27,0.79,2.11,1.89,2.11c1.1,0,1.9-0.84,1.9-2.11
		C63.5,90.67,62.71,89.83,61.6,89.83z"/>
	<path class="st0" d="M66.35,94.55h-0.72V89.8c0.55-0.35,1.22-0.56,1.94-0.56c0.29,0,0.58,0.04,0.88,0.11v0.71
		c-0.31-0.11-0.68-0.13-0.92-0.13c-0.52,0-0.9,0.11-1.18,0.26V94.55z"/>
	<path class="st0" d="M75.12,94.55l-1.96-6.42l-1.09,6.42h-0.72l1.27-7.12h1l1.94,6.37l1.94-6.37h1l1.27,7.12h-0.74l-1.09-6.42
		l-1.95,6.42H75.12z"/>
	<path class="st0" d="M81.19,87.41c0.53-0.06,1.02-0.1,1.46-0.1c3.26,0,4.37,1.69,4.37,3.51c0,2-1.16,3.85-4.27,3.85
		c-0.6,0-1.05-0.05-1.56-0.11V87.41z M81.93,93.98c0.29,0.04,0.56,0.05,0.83,0.05c2.04,0,3.48-1.02,3.48-3.19
		c0-1.68-1.07-2.85-3.61-2.85c-0.23,0-0.44,0.01-0.7,0.04V93.98z"/>
	<path class="st0" d="M88.58,87.41c0.53-0.06,1.02-0.1,1.46-0.1c3.26,0,4.37,1.69,4.37,3.51c0,2-1.16,3.85-4.27,3.85
		c-0.6,0-1.05-0.05-1.56-0.11V87.41z M89.32,93.98c0.29,0.04,0.56,0.05,0.83,0.05c2.04,0,3.48-1.02,3.48-3.19
		c0-1.68-1.07-2.85-3.61-2.85c-0.23,0-0.44,0.01-0.7,0.04V93.98z"/>
	<path class="st0" d="M102.7,93.89l1.31-4.57h0.72l-1.58,5.23h-0.88l-1.26-4.45l-1.26,4.45h-0.88l-1.58-5.23h0.76l1.31,4.57
		l1.29-4.57h0.74L102.7,93.89z"/>
	<path class="st0" d="M105.51,87.69c0-0.3,0.25-0.54,0.54-0.54c0.3,0,0.54,0.24,0.54,0.54c0,0.29-0.24,0.54-0.54,0.54
		C105.76,88.23,105.51,87.98,105.51,87.69z M106.41,94.55h-0.72v-5.23h0.72V94.55z"/>
	<path class="st0" d="M107.49,89.32h0.8v-1.27h0.72v1.27h1.48v0.61h-1.48v3.19c0,0.67,0.26,0.93,0.76,0.93
		c0.34,0,0.61-0.11,0.97-0.29v0.64c-0.31,0.16-0.67,0.26-1.13,0.26c-0.76,0-1.32-0.4-1.32-1.48v-3.26h-0.8V89.32z"/>
	<path class="st0" d="M112,86.4h0.72v3.08c0.4-0.14,0.98-0.28,1.54-0.28c1.26,0,2.06,0.52,2.06,1.82v3.53h-0.72v-3.38
		c0-1.07-0.75-1.3-1.46-1.3c-0.55,0-1.06,0.12-1.42,0.24v4.44H112V86.4z"/>
	<path class="st0" d="M120.34,89.54c0.48-0.18,1.15-0.33,1.82-0.33c1.8,0,2.89,0.93,2.89,2.73c0,1.7-1.13,2.73-2.84,2.73
		c-0.42,0-0.88-0.08-1.15-0.22v2.25h-0.72V89.54z M121.06,93.83c0.34,0.14,0.71,0.22,1.15,0.22c1.27,0,2.11-0.78,2.11-2.11
		c0-1.28-0.78-2.08-2.16-2.08c-0.41,0-0.83,0.05-1.1,0.14V93.83z"/>
	<path class="st0" d="M126.15,93.44c0.44,0.4,0.9,0.62,1.47,0.62c0.66,0,1.08-0.25,1.08-0.84c0-0.62-0.46-0.79-1.28-1.07
		c-0.92-0.31-1.32-0.7-1.32-1.54c0-0.92,0.7-1.42,1.64-1.42c0.52,0,1.02,0.11,1.43,0.4v0.78c-0.41-0.34-0.83-0.56-1.43-0.56
		c-0.58,0-0.95,0.31-0.95,0.8c0,0.48,0.29,0.73,1.09,0.98c0.91,0.28,1.52,0.62,1.52,1.57c0,1.03-0.8,1.5-1.79,1.5
		c-0.59,0-1.15-0.17-1.47-0.42V93.44z"/>
	<path class="st0" d="M132.5,94.09l1.73-4.76h0.74l-2.83,7.39h-0.71l0.71-1.81l-2.18-5.58h0.79L132.5,94.09z"/>
	<path class="st0" d="M139.74,90.36c-0.44-0.31-0.97-0.49-1.46-0.49c-1.08,0-2.01,0.72-2.01,2.09c0,1.32,0.92,2.06,2.06,2.06
		c0.55,0,1.02-0.18,1.5-0.49v0.76c-0.52,0.26-1.02,0.4-1.57,0.4c-1.46,0-2.72-1.02-2.72-2.73c0-1.75,1.29-2.73,2.71-2.73
		c0.58,0,1.03,0.13,1.5,0.4V90.36z"/>
	<path class="st0" d="M141.21,86.4h0.72v3.08c0.4-0.14,0.98-0.28,1.54-0.28c1.26,0,2.06,0.52,2.06,1.82v3.53h-0.72v-3.38
		c0-1.07-0.75-1.3-1.46-1.3c-0.55,0-1.06,0.12-1.42,0.24v4.44h-0.72V86.4z"/>
	<path class="st0" d="M149.5,89.21c1.56,0,2.63,1.12,2.63,2.73s-1.07,2.73-2.63,2.73c-1.56,0-2.63-1.12-2.63-2.73
		S147.94,89.21,149.5,89.21z M149.5,89.83c-1.1,0-1.89,0.84-1.89,2.11c0,1.27,0.79,2.11,1.89,2.11c1.1,0,1.9-0.84,1.9-2.11
		C151.39,90.67,150.6,89.83,149.5,89.83z"/>
	<path class="st0" d="M153.22,93.44c0.44,0.4,0.9,0.62,1.47,0.62c0.66,0,1.08-0.25,1.08-0.84c0-0.62-0.46-0.79-1.28-1.07
		c-0.92-0.31-1.32-0.7-1.32-1.54c0-0.92,0.7-1.42,1.64-1.42c0.52,0,1.02,0.11,1.43,0.4v0.78c-0.41-0.34-0.83-0.56-1.43-0.56
		c-0.58,0-0.95,0.31-0.95,0.8c0,0.48,0.29,0.73,1.09,0.98c0.91,0.28,1.52,0.62,1.52,1.57c0,1.03-0.8,1.5-1.79,1.5
		c-0.59,0-1.15-0.17-1.47-0.42V93.44z"/>
	<path class="st0" d="M157.74,87.69c0-0.3,0.25-0.54,0.54-0.54c0.3,0,0.54,0.24,0.54,0.54c0,0.29-0.24,0.54-0.54,0.54
		C158,88.23,157.74,87.98,157.74,87.69z M158.64,94.55h-0.72v-5.23h0.72V94.55z"/>
	<path class="st0" d="M160.13,93.44c0.44,0.4,0.9,0.62,1.47,0.62c0.66,0,1.08-0.25,1.08-0.84c0-0.62-0.46-0.79-1.28-1.07
		c-0.92-0.31-1.32-0.7-1.32-1.54c0-0.92,0.7-1.42,1.64-1.42c0.52,0,1.02,0.11,1.43,0.4v0.78c-0.41-0.34-0.83-0.56-1.43-0.56
		c-0.58,0-0.95,0.31-0.95,0.8c0,0.48,0.29,0.73,1.09,0.98c0.91,0.28,1.52,0.62,1.52,1.57c0,1.03-0.8,1.5-1.79,1.5
		c-0.59,0-1.15-0.17-1.47-0.42V93.44z"/>
	<path class="st0" d="M8.77,104.77c0.6,0,1.08,0.48,1.08,1.08s-0.48,1.08-1.08,1.08s-1.08-0.48-1.08-1.08S8.17,104.77,8.77,104.77z"
		/>
	<path class="st0" d="M23.54,101.83h0.74v7.12h-0.74v-3.3h-4.39v3.3h-0.74v-7.12h0.74V105h4.39V101.83z"/>
	<path class="st0" d="M26.03,102.09c0-0.3,0.25-0.54,0.54-0.54c0.3,0,0.54,0.24,0.54,0.54c0,0.29-0.24,0.54-0.54,0.54
		C26.28,102.63,26.03,102.38,26.03,102.09z M26.92,108.95h-0.72v-5.23h0.72V108.95z"/>
	<path class="st0" d="M28.41,107.84c0.44,0.4,0.9,0.62,1.47,0.62c0.66,0,1.08-0.25,1.08-0.84c0-0.62-0.46-0.79-1.28-1.07
		c-0.92-0.31-1.32-0.7-1.32-1.54c0-0.92,0.7-1.42,1.64-1.42c0.52,0,1.02,0.11,1.43,0.4v0.78c-0.41-0.34-0.83-0.56-1.43-0.56
		c-0.58,0-0.95,0.31-0.95,0.8c0,0.48,0.29,0.73,1.09,0.98c0.91,0.28,1.52,0.62,1.52,1.57c0,1.03-0.8,1.5-1.79,1.5
		c-0.59,0-1.15-0.17-1.47-0.42V107.84z"/>
	<path class="st0" d="M32.4,103.72h0.8v-1.27h0.72v1.27h1.48v0.61h-1.48v3.19c0,0.67,0.26,0.93,0.76,0.93
		c0.34,0,0.61-0.11,0.97-0.29v0.64c-0.31,0.16-0.67,0.26-1.13,0.26c-0.76,0-1.32-0.4-1.32-1.48v-3.26h-0.8V103.72z"/>
	<path class="st0" d="M39.02,103.61c1.56,0,2.63,1.12,2.63,2.73s-1.07,2.73-2.63,2.73c-1.56,0-2.63-1.12-2.63-2.73
		S37.46,103.61,39.02,103.61z M39.02,104.23c-1.1,0-1.89,0.84-1.89,2.11c0,1.27,0.79,2.11,1.89,2.11c1.1,0,1.9-0.84,1.9-2.11
		C40.91,105.07,40.12,104.23,39.02,104.23z"/>
	<path class="st0" d="M43.77,108.95h-0.72v-4.75c0.55-0.35,1.22-0.56,1.94-0.56c0.29,0,0.58,0.04,0.88,0.11v0.71
		c-0.31-0.11-0.68-0.13-0.92-0.13c-0.52,0-0.9,0.11-1.18,0.26V108.95z"/>
	<path class="st0" d="M48.96,108.49l1.73-4.76h0.74l-2.83,7.39h-0.71l0.71-1.81l-2.18-5.58h0.79L48.96,108.49z"/>
	<path class="st0" d="M56.9,103.61c1.56,0,2.63,1.12,2.63,2.73s-1.07,2.73-2.63,2.73c-1.56,0-2.63-1.12-2.63-2.73
		S55.34,103.61,56.9,103.61z M56.9,104.23c-1.1,0-1.89,0.84-1.89,2.11c0,1.27,0.79,2.11,1.89,2.11c1.1,0,1.9-0.84,1.9-2.11
		C58.79,105.07,58,104.23,56.9,104.23z"/>
	<path class="st0" d="M61.79,108.95h-0.72v-4.62h-0.8v-0.61h0.8v-1.31c0-1.09,0.56-1.74,1.61-1.74c0.4,0,0.68,0.08,0.94,0.26v0.68
		c-0.25-0.18-0.54-0.31-0.92-0.31c-0.55,0-0.9,0.26-0.9,1.12v1.29h1.44v0.61h-1.44V108.95z"/>
	<path class="st0" d="M73.1,105.45c0-0.97-0.66-1.2-1.22-1.2c-0.62,0-1.22,0.16-1.54,0.3c0.1,0.23,0.16,0.52,0.16,0.86v3.54h-0.72
		v-3.5c0-0.97-0.64-1.2-1.24-1.2c-0.59,0-1.05,0.12-1.38,0.24v4.46h-0.72v-4.89c0.68-0.28,1.4-0.46,2.1-0.46
		c0.61,0,1.08,0.13,1.4,0.41c0.62-0.24,1.3-0.41,1.93-0.41c1.26,0,1.94,0.52,1.94,1.82v3.53H73.1V105.45z"/>
	<path class="st0" d="M77.79,103.61c1.56,0,2.63,1.12,2.63,2.73s-1.07,2.73-2.63,2.73c-1.56,0-2.63-1.12-2.63-2.73
		S76.23,103.61,77.79,103.61z M77.79,104.23c-1.1,0-1.89,0.84-1.89,2.11c0,1.27,0.79,2.11,1.89,2.11c1.1,0,1.9-0.84,1.9-2.11
		C79.69,105.07,78.89,104.23,77.79,104.23z"/>
	<path class="st0" d="M86.22,108.88c-0.56,0.13-1.15,0.19-1.7,0.19c-1.81,0-3.03-0.98-3.03-2.73c0-1.76,1.32-2.73,2.88-2.73
		c0.4,0,0.88,0.08,1.14,0.24v-3.05h0.72V108.88z M85.5,104.49c-0.26-0.14-0.66-0.24-1.14-0.24c-1.21,0-2.15,0.74-2.15,2.09
		c0,1.33,0.92,2.1,2.3,2.1c0.34,0,0.67-0.01,0.98-0.06V104.49z"/>
	<path class="st0" d="M88.35,106.38v0.02c0,1.28,0.92,2.04,1.94,2.04c0.74,0,1.26-0.19,1.79-0.59v0.72c-0.47,0.35-1.14,0.5-1.79,0.5
		c-1.51,0-2.66-1.03-2.66-2.73c0-1.57,1.08-2.73,2.48-2.73c1.32,0,2.19,0.79,2.19,2.28v0.49H88.35z M91.59,105.78
		c-0.05-1.09-0.64-1.54-1.51-1.54c-0.82,0-1.47,0.55-1.68,1.54H91.59z"/>
	<path class="st0" d="M94.41,108.95h-0.72v-4.75c0.55-0.35,1.22-0.56,1.94-0.56c0.29,0,0.58,0.04,0.88,0.11v0.71
		c-0.31-0.11-0.68-0.13-0.92-0.13c-0.52,0-0.9,0.11-1.18,0.26V108.95z"/>
	<path class="st0" d="M100.24,105.3c0-0.67-0.43-1.02-1.1-1.02c-0.6,0-1.06,0.17-1.54,0.42v-0.68c0.44-0.24,1.01-0.41,1.62-0.41
		c1.05,0,1.74,0.47,1.74,1.64v3.61c-0.48,0.13-1.04,0.19-1.49,0.19c-1.42,0-2.36-0.44-2.36-1.55c0-1.03,0.95-1.57,2.54-1.57h0.59
		V105.3z M100.24,106.52H99.7c-1.08,0-1.87,0.29-1.87,0.98s0.72,0.95,1.68,0.95c0.22,0,0.48-0.02,0.73-0.07V106.52z"/>
	<path class="st0" d="M101.96,103.72h0.8v-1.27h0.72v1.27h1.48v0.61h-1.48v3.19c0,0.67,0.26,0.93,0.76,0.93
		c0.34,0,0.61-0.11,0.97-0.29v0.64c-0.31,0.16-0.67,0.26-1.13,0.26c-0.76,0-1.32-0.4-1.32-1.48v-3.26h-0.8V103.72z"/>
	<path class="st0" d="M106.67,106.38v0.02c0,1.28,0.92,2.04,1.94,2.04c0.74,0,1.26-0.19,1.79-0.59v0.72
		c-0.47,0.35-1.14,0.5-1.79,0.5c-1.51,0-2.66-1.03-2.66-2.73c0-1.57,1.08-2.73,2.48-2.73c1.32,0,2.2,0.79,2.2,2.28v0.49H106.67z
		 M109.91,105.78c-0.05-1.09-0.64-1.54-1.51-1.54c-0.82,0-1.47,0.55-1.68,1.54H109.91z"/>
	<path class="st0" d="M116.53,103.61c1.56,0,2.63,1.12,2.63,2.73s-1.07,2.73-2.63,2.73c-1.56,0-2.63-1.12-2.63-2.73
		S114.97,103.61,116.53,103.61z M116.53,104.23c-1.1,0-1.89,0.84-1.89,2.11c0,1.27,0.79,2.11,1.89,2.11c1.1,0,1.9-0.84,1.9-2.11
		C118.42,105.07,117.63,104.23,116.53,104.23z"/>
	<path class="st0" d="M121.28,108.95h-0.72v-4.75c0.55-0.35,1.22-0.56,1.94-0.56c0.29,0,0.58,0.04,0.88,0.11v0.71
		c-0.31-0.11-0.68-0.13-0.92-0.13c-0.52,0-0.9,0.11-1.18,0.26V108.95z"/>
	<path class="st0" d="M126.49,107.84c0.44,0.4,0.9,0.62,1.47,0.62c0.66,0,1.08-0.25,1.08-0.84c0-0.62-0.46-0.79-1.28-1.07
		c-0.92-0.31-1.32-0.7-1.32-1.54c0-0.92,0.7-1.42,1.64-1.42c0.52,0,1.02,0.11,1.43,0.4v0.78c-0.41-0.34-0.83-0.56-1.43-0.56
		c-0.58,0-0.95,0.31-0.95,0.8c0,0.48,0.29,0.73,1.09,0.98c0.91,0.28,1.52,0.62,1.52,1.57c0,1.03-0.8,1.5-1.79,1.5
		c-0.59,0-1.15-0.17-1.47-0.42V107.84z"/>
	<path class="st0" d="M131.45,106.38v0.02c0,1.28,0.92,2.04,1.94,2.04c0.74,0,1.26-0.19,1.79-0.59v0.72
		c-0.47,0.35-1.14,0.5-1.79,0.5c-1.51,0-2.66-1.03-2.66-2.73c0-1.57,1.08-2.73,2.48-2.73c1.32,0,2.19,0.79,2.19,2.28v0.49H131.45z
		 M134.69,105.78c-0.05-1.09-0.64-1.54-1.51-1.54c-0.82,0-1.47,0.55-1.68,1.54H134.69z"/>
	<path class="st0" d="M138.07,108.95l-2.05-5.23h0.76l1.7,4.56l1.7-4.56h0.73l-2.05,5.23H138.07z"/>
	<path class="st0" d="M142.19,106.38v0.02c0,1.28,0.92,2.04,1.94,2.04c0.74,0,1.26-0.19,1.79-0.59v0.72
		c-0.47,0.35-1.14,0.5-1.79,0.5c-1.51,0-2.66-1.03-2.66-2.73c0-1.57,1.08-2.73,2.48-2.73c1.32,0,2.2,0.79,2.2,2.28v0.49H142.19z
		 M145.43,105.78c-0.05-1.09-0.64-1.54-1.51-1.54c-0.82,0-1.47,0.55-1.68,1.54H145.43z"/>
	<path class="st0" d="M148.25,108.95h-0.72v-4.75c0.55-0.35,1.22-0.56,1.94-0.56c0.29,0,0.58,0.04,0.88,0.11v0.71
		c-0.31-0.11-0.68-0.13-0.92-0.13c-0.52,0-0.9,0.11-1.18,0.26V108.95z"/>
	<path class="st0" d="M151.64,106.38v0.02c0,1.28,0.92,2.04,1.94,2.04c0.74,0,1.26-0.19,1.79-0.59v0.72
		c-0.47,0.35-1.14,0.5-1.79,0.5c-1.51,0-2.66-1.03-2.66-2.73c0-1.57,1.08-2.73,2.48-2.73c1.32,0,2.19,0.79,2.19,2.28v0.49H151.64z
		 M154.88,105.78c-0.05-1.09-0.64-1.54-1.51-1.54c-0.82,0-1.47,0.55-1.68,1.54H154.88z"/>
	<path class="st0" d="M158.95,107.84c0.44,0.4,0.9,0.62,1.47,0.62c0.66,0,1.08-0.25,1.08-0.84c0-0.62-0.46-0.79-1.28-1.07
		c-0.92-0.31-1.32-0.7-1.32-1.54c0-0.92,0.7-1.42,1.64-1.42c0.52,0,1.02,0.11,1.43,0.4v0.78c-0.41-0.34-0.83-0.56-1.43-0.56
		c-0.58,0-0.95,0.31-0.95,0.8c0,0.48,0.29,0.73,1.09,0.98c0.91,0.28,1.52,0.62,1.52,1.57c0,1.03-0.8,1.5-1.79,1.5
		c-0.59,0-1.15-0.17-1.47-0.42V107.84z"/>
	<path class="st0" d="M167.73,108.89c-0.64,0.12-1.28,0.18-1.82,0.18c-1.51,0-2.38-0.52-2.38-1.82v-3.53h0.72v3.49
		c0,0.98,0.78,1.24,1.61,1.24c0.36,0,0.77-0.02,1.15-0.07v-4.65h0.72V108.89z"/>
	<path class="st0" d="M169.53,100.8h0.72v3.07c0.23-0.13,0.74-0.26,1.25-0.26c1.57,0,2.75,0.91,2.75,2.71c0,1.69-1.2,2.76-3.01,2.76
		c-0.55,0-1.16-0.1-1.7-0.26V100.8z M170.25,108.32c0.3,0.08,0.65,0.12,0.98,0.12c1.39,0,2.28-0.79,2.28-2.12
		c0-1.34-0.92-2.06-2.01-2.06c-0.54,0-0.95,0.1-1.25,0.24V108.32z"/>
	<path class="st0" d="M175.34,107.84c0.44,0.4,0.9,0.62,1.47,0.62c0.66,0,1.08-0.25,1.08-0.84c0-0.62-0.46-0.79-1.28-1.07
		c-0.92-0.31-1.32-0.7-1.32-1.54c0-0.92,0.7-1.42,1.64-1.42c0.52,0,1.02,0.11,1.43,0.4v0.78c-0.41-0.34-0.83-0.56-1.43-0.56
		c-0.58,0-0.95,0.31-0.95,0.8c0,0.48,0.29,0.73,1.09,0.98c0.91,0.28,1.52,0.62,1.52,1.57c0,1.03-0.8,1.5-1.79,1.5
		c-0.59,0-1.15-0.17-1.47-0.42V107.84z"/>
	<path class="st0" d="M179.32,103.72h0.8v-1.27h0.72v1.27h1.48v0.61h-1.48v3.19c0,0.67,0.26,0.93,0.76,0.93
		c0.34,0,0.61-0.11,0.97-0.29v0.64c-0.31,0.16-0.67,0.26-1.13,0.26c-0.76,0-1.32-0.4-1.32-1.48v-3.26h-0.8V103.72z"/>
	<path class="st0" d="M186.54,105.3c0-0.67-0.43-1.02-1.1-1.02c-0.6,0-1.06,0.17-1.54,0.42v-0.68c0.44-0.24,1.01-0.41,1.62-0.41
		c1.05,0,1.74,0.47,1.74,1.64v3.61c-0.48,0.13-1.04,0.19-1.49,0.19c-1.42,0-2.36-0.44-2.36-1.55c0-1.03,0.95-1.57,2.54-1.57h0.59
		V105.3z M186.54,106.52H186c-1.08,0-1.87,0.29-1.87,0.98s0.72,0.95,1.68,0.95c0.22,0,0.48-0.02,0.73-0.07V106.52z"/>
	<path class="st0" d="M188.98,104c0.7-0.25,1.49-0.4,2.2-0.4c1.32,0,2.12,0.52,2.12,1.82v3.53h-0.72v-3.38c0-1.07-0.75-1.3-1.46-1.3
		c-0.55,0-1.04,0.1-1.42,0.19v4.49h-0.72V104z"/>
	<path class="st0" d="M198.85,104.76c-0.44-0.31-0.97-0.49-1.46-0.49c-1.08,0-2.01,0.72-2.01,2.09c0,1.32,0.92,2.06,2.06,2.06
		c0.55,0,1.02-0.18,1.5-0.49v0.76c-0.52,0.26-1.02,0.4-1.57,0.4c-1.46,0-2.72-1.02-2.72-2.73c0-1.75,1.29-2.73,2.71-2.73
		c0.58,0,1.03,0.13,1.5,0.4V104.76z"/>
	<path class="st0" d="M200.64,106.38v0.02c0,1.28,0.92,2.04,1.94,2.04c0.74,0,1.26-0.19,1.79-0.59v0.72
		c-0.47,0.35-1.14,0.5-1.79,0.5c-1.51,0-2.66-1.03-2.66-2.73c0-1.57,1.08-2.73,2.48-2.73c1.32,0,2.2,0.79,2.2,2.28v0.49H200.64z
		 M203.88,105.78c-0.05-1.09-0.64-1.54-1.51-1.54c-0.82,0-1.47,0.55-1.68,1.54H203.88z"/>
	<path class="st0" d="M210.5,103.61c1.56,0,2.63,1.12,2.63,2.73s-1.07,2.73-2.63,2.73c-1.56,0-2.63-1.12-2.63-2.73
		S208.94,103.61,210.5,103.61z M210.5,104.23c-1.1,0-1.89,0.84-1.89,2.11c0,1.27,0.79,2.11,1.89,2.11c1.1,0,1.9-0.84,1.9-2.11
		C212.39,105.07,211.6,104.23,210.5,104.23z"/>
	<path class="st0" d="M215.25,108.95h-0.72v-4.75c0.55-0.35,1.22-0.56,1.94-0.56c0.29,0,0.58,0.04,0.88,0.11v0.71
		c-0.31-0.11-0.68-0.13-0.92-0.13c-0.52,0-0.9,0.11-1.18,0.26V108.95z"/>
	<path class="st0" d="M223.48,105.3c0-0.67-0.43-1.02-1.1-1.02c-0.6,0-1.06,0.17-1.54,0.42v-0.68c0.44-0.24,1.01-0.41,1.62-0.41
		c1.05,0,1.74,0.47,1.74,1.64v3.61c-0.48,0.13-1.04,0.19-1.49,0.19c-1.42,0-2.36-0.44-2.36-1.55c0-1.03,0.95-1.57,2.54-1.57h0.59
		V105.3z M223.48,106.52h-0.54c-1.08,0-1.87,0.29-1.87,0.98s0.72,0.95,1.68,0.95c0.22,0,0.48-0.02,0.73-0.07V106.52z"/>
	<path class="st0" d="M226.64,108.95h-0.72v-8.16h0.72V108.95z"/>
	<path class="st0" d="M232.25,104.76c-0.44-0.31-0.97-0.49-1.46-0.49c-1.08,0-2.01,0.72-2.01,2.09c0,1.32,0.92,2.06,2.06,2.06
		c0.55,0,1.02-0.18,1.5-0.49v0.76c-0.52,0.26-1.02,0.4-1.57,0.4c-1.46,0-2.72-1.02-2.72-2.73c0-1.75,1.29-2.73,2.71-2.73
		c0.58,0,1.03,0.13,1.5,0.4V104.76z"/>
	<path class="st0" d="M235.95,103.61c1.56,0,2.63,1.12,2.63,2.73s-1.07,2.73-2.63,2.73c-1.56,0-2.63-1.12-2.63-2.73
		S234.39,103.61,235.95,103.61z M235.95,104.23c-1.1,0-1.89,0.84-1.89,2.11c0,1.27,0.79,2.11,1.89,2.11c1.1,0,1.9-0.84,1.9-2.11
		C237.84,105.07,237.05,104.23,235.95,104.23z"/>
	<path class="st0" d="M239.98,100.8h0.72v3.08c0.4-0.14,0.98-0.28,1.54-0.28c1.26,0,2.06,0.52,2.06,1.82v3.53h-0.72v-3.38
		c0-1.07-0.75-1.3-1.46-1.3c-0.55,0-1.06,0.12-1.42,0.24v4.44h-0.72V100.8z"/>
	<path class="st0" d="M248.27,103.61c1.56,0,2.63,1.12,2.63,2.73s-1.07,2.73-2.63,2.73c-1.56,0-2.63-1.12-2.63-2.73
		S246.71,103.61,248.27,103.61z M248.27,104.23c-1.1,0-1.89,0.84-1.89,2.11c0,1.27,0.79,2.11,1.89,2.11c1.1,0,1.9-0.84,1.9-2.11
		C250.17,105.07,249.37,104.23,248.27,104.23z"/>
	<path class="st0" d="M253.02,108.95h-0.72v-8.16h0.72V108.95z"/>
	<path class="st0" d="M22.36,120.89c-0.64,0.12-1.28,0.18-1.82,0.18c-1.51,0-2.38-0.52-2.38-1.82v-3.53h0.72v3.49
		c0,0.98,0.78,1.24,1.61,1.24c0.36,0,0.77-0.02,1.15-0.07v-4.65h0.72V120.89z"/>
	<path class="st0" d="M23.85,119.84c0.44,0.4,0.9,0.62,1.47,0.62c0.66,0,1.08-0.25,1.08-0.84c0-0.62-0.46-0.79-1.28-1.07
		c-0.92-0.31-1.32-0.7-1.32-1.54c0-0.92,0.7-1.42,1.64-1.42c0.52,0,1.02,0.11,1.43,0.4v0.78c-0.41-0.34-0.83-0.56-1.43-0.56
		c-0.58,0-0.95,0.31-0.95,0.8c0,0.48,0.29,0.73,1.09,0.98c0.91,0.28,1.52,0.62,1.52,1.57c0,1.03-0.8,1.5-1.79,1.5
		c-0.59,0-1.15-0.17-1.47-0.42V119.84z"/>
	<path class="st0" d="M28.82,118.38v0.02c0,1.28,0.92,2.04,1.94,2.04c0.74,0,1.26-0.19,1.79-0.59v0.72c-0.47,0.35-1.14,0.5-1.79,0.5
		c-1.51,0-2.66-1.03-2.66-2.73c0-1.57,1.08-2.73,2.48-2.73c1.32,0,2.19,0.79,2.19,2.28v0.49H28.82z M32.06,117.78
		c-0.05-1.09-0.64-1.54-1.51-1.54c-0.82,0-1.47,0.55-1.68,1.54H32.06z"/>
	<path class="st0" d="M41.01,120.3l1.31-4.57h0.72l-1.58,5.23h-0.88l-1.26-4.45l-1.26,4.45h-0.88l-1.58-5.23h0.76l1.31,4.57
		l1.29-4.57h0.74L41.01,120.3z"/>
	<path class="st0" d="M43.82,114.09c0-0.3,0.25-0.54,0.54-0.54c0.3,0,0.54,0.24,0.54,0.54c0,0.29-0.24,0.54-0.54,0.54
		C44.07,114.63,43.82,114.38,43.82,114.09z M44.72,120.95H44v-5.23h0.72V120.95z"/>
	<path class="st0" d="M45.8,115.72h0.8v-1.27h0.72v1.27h1.48v0.61h-1.48v3.19c0,0.67,0.26,0.93,0.76,0.93
		c0.34,0,0.61-0.11,0.97-0.29v0.64c-0.31,0.16-0.67,0.26-1.13,0.26c-0.76,0-1.32-0.4-1.32-1.48v-3.26h-0.8V115.72z"/>
	<path class="st0" d="M50.31,112.8h0.72v3.08c0.4-0.14,0.98-0.28,1.54-0.28c1.26,0,2.06,0.52,2.06,1.82v3.53h-0.72v-3.38
		c0-1.07-0.75-1.3-1.46-1.3c-0.55,0-1.06,0.12-1.42,0.24v4.44h-0.72V112.8z"/>
	<path class="st0" d="M56.19,114.09c0-0.3,0.25-0.54,0.54-0.54c0.3,0,0.54,0.24,0.54,0.54c0,0.29-0.24,0.54-0.54,0.54
		C56.44,114.63,56.19,114.38,56.19,114.09z M57.09,120.95h-0.72v-5.23h0.72V120.95z"/>
	<path class="st0" d="M58.89,116c0.7-0.25,1.49-0.4,2.2-0.4c1.32,0,2.12,0.52,2.12,1.82v3.53h-0.72v-3.38c0-1.07-0.75-1.3-1.46-1.3
		c-0.55,0-1.04,0.1-1.42,0.19v4.49h-0.72V116z"/>
	<path class="st0" d="M70.09,113.83l-1.57,2.39l-0.61,0.86c0.37-0.44,0.86-0.65,1.47-0.65c1.19,0,2.27,0.82,2.27,2.31
		c0,1.25-0.89,2.33-2.44,2.33c-1.52,0-2.37-1.08-2.37-2.33c0-0.86,0.34-1.62,0.84-2.4l1.63-2.52H70.09z M69.22,120.47
		c0.97,0,1.69-0.66,1.69-1.71c0-1.03-0.71-1.7-1.68-1.7c-0.95,0-1.67,0.67-1.67,1.7C67.57,119.81,68.3,120.47,69.22,120.47z"/>
	<path class="st0" d="M81.92,117.45c0-0.97-0.66-1.2-1.22-1.2c-0.62,0-1.22,0.16-1.54,0.3c0.1,0.23,0.16,0.52,0.16,0.86v3.54h-0.72
		v-3.5c0-0.97-0.64-1.2-1.24-1.2c-0.59,0-1.05,0.12-1.38,0.24v4.46h-0.72v-4.89c0.68-0.28,1.4-0.46,2.1-0.46
		c0.61,0,1.08,0.13,1.4,0.41c0.62-0.24,1.3-0.41,1.93-0.41c1.26,0,1.94,0.52,1.94,1.82v3.53h-0.72V117.45z"/>
	<path class="st0" d="M86.61,115.61c1.56,0,2.63,1.12,2.63,2.73s-1.07,2.73-2.63,2.73c-1.56,0-2.63-1.12-2.63-2.73
		S85.05,115.61,86.61,115.61z M86.61,116.23c-1.1,0-1.89,0.84-1.89,2.11c0,1.27,0.79,2.11,1.89,2.11c1.1,0,1.9-0.84,1.9-2.11
		C88.51,117.07,87.71,116.23,86.61,116.23z"/>
	<path class="st0" d="M90.64,116c0.7-0.25,1.49-0.4,2.2-0.4c1.32,0,2.12,0.52,2.12,1.82v3.53h-0.72v-3.38c0-1.07-0.75-1.3-1.46-1.3
		c-0.55,0-1.04,0.1-1.42,0.19v4.49h-0.72V116z"/>
	<path class="st0" d="M95.98,115.72h0.8v-1.27h0.72v1.27h1.48v0.61h-1.48v3.19c0,0.67,0.26,0.93,0.76,0.93
		c0.34,0,0.61-0.11,0.97-0.29v0.64c-0.31,0.16-0.67,0.26-1.13,0.26c-0.76,0-1.32-0.4-1.32-1.48v-3.26h-0.8V115.72z"/>
	<path class="st0" d="M100.5,112.8h0.72v3.08c0.4-0.14,0.98-0.28,1.54-0.28c1.26,0,2.06,0.52,2.06,1.82v3.53h-0.72v-3.38
		c0-1.07-0.75-1.3-1.46-1.3c-0.55,0-1.06,0.12-1.42,0.24v4.44h-0.72V112.8z"/>
	<path class="st0" d="M106.24,119.84c0.44,0.4,0.9,0.62,1.47,0.62c0.66,0,1.08-0.25,1.08-0.84c0-0.62-0.46-0.79-1.28-1.07
		c-0.92-0.31-1.32-0.7-1.32-1.54c0-0.92,0.7-1.42,1.64-1.42c0.52,0,1.02,0.11,1.43,0.4v0.78c-0.41-0.34-0.83-0.56-1.43-0.56
		c-0.58,0-0.95,0.31-0.95,0.8c0,0.48,0.29,0.73,1.09,0.98c0.91,0.28,1.52,0.62,1.52,1.57c0,1.03-0.8,1.5-1.79,1.5
		c-0.59,0-1.15-0.17-1.47-0.42V119.84z"/>
	<path class="st0" d="M113.23,112.8h0.72v3.07c0.23-0.13,0.74-0.26,1.25-0.26c1.57,0,2.75,0.91,2.75,2.71c0,1.69-1.2,2.76-3.01,2.76
		c-0.55,0-1.16-0.1-1.7-0.26V112.8z M113.95,120.32c0.3,0.08,0.65,0.12,0.98,0.12c1.39,0,2.28-0.79,2.28-2.12
		c0-1.34-0.92-2.06-2.01-2.06c-0.54,0-0.95,0.1-1.25,0.24V120.32z"/>
	<path class="st0" d="M119.73,118.38v0.02c0,1.28,0.92,2.04,1.94,2.04c0.74,0,1.26-0.19,1.79-0.59v0.72
		c-0.47,0.35-1.14,0.5-1.79,0.5c-1.51,0-2.66-1.03-2.66-2.73c0-1.57,1.08-2.73,2.48-2.73c1.32,0,2.2,0.79,2.2,2.28v0.49H119.73z
		 M122.97,117.78c-0.05-1.09-0.64-1.54-1.51-1.54c-0.82,0-1.47,0.55-1.68,1.54H122.97z"/>
	<path class="st0" d="M125.93,120.95h-0.72v-4.62h-0.8v-0.61h0.8v-1.31c0-1.09,0.56-1.74,1.61-1.74c0.4,0,0.68,0.08,0.94,0.26v0.68
		c-0.25-0.18-0.54-0.31-0.92-0.31c-0.55,0-0.9,0.26-0.9,1.12v1.29h1.44v0.61h-1.44V120.95z"/>
	<path class="st0" d="M130.53,115.61c1.56,0,2.63,1.12,2.63,2.73s-1.07,2.73-2.63,2.73c-1.56,0-2.63-1.12-2.63-2.73
		S128.97,115.61,130.53,115.61z M130.53,116.23c-1.1,0-1.89,0.84-1.89,2.11c0,1.27,0.79,2.11,1.89,2.11c1.1,0,1.9-0.84,1.9-2.11
		C132.42,117.07,131.63,116.23,130.53,116.23z"/>
	<path class="st0" d="M135.28,120.95h-0.72v-4.75c0.55-0.35,1.22-0.56,1.94-0.56c0.29,0,0.58,0.04,0.88,0.11v0.71
		c-0.31-0.11-0.68-0.13-0.92-0.13c-0.52,0-0.9,0.11-1.18,0.26V120.95z"/>
	<path class="st0" d="M138.67,118.38v0.02c0,1.28,0.92,2.04,1.94,2.04c0.74,0,1.26-0.19,1.79-0.59v0.72
		c-0.47,0.35-1.14,0.5-1.79,0.5c-1.51,0-2.66-1.03-2.66-2.73c0-1.57,1.08-2.73,2.48-2.73c1.32,0,2.2,0.79,2.2,2.28v0.49H138.67z
		 M141.9,117.78c-0.05-1.09-0.64-1.54-1.51-1.54c-0.82,0-1.47,0.55-1.68,1.54H141.9z"/>
	<path class="st0" d="M145.97,119.84c0.44,0.4,0.9,0.62,1.47,0.62c0.66,0,1.08-0.25,1.08-0.84c0-0.62-0.46-0.79-1.28-1.07
		c-0.92-0.31-1.32-0.7-1.32-1.54c0-0.92,0.7-1.42,1.64-1.42c0.52,0,1.02,0.11,1.43,0.4v0.78c-0.41-0.34-0.83-0.56-1.43-0.56
		c-0.58,0-0.95,0.31-0.95,0.8c0,0.48,0.29,0.73,1.09,0.98c0.91,0.28,1.52,0.62,1.52,1.57c0,1.03-0.8,1.5-1.79,1.5
		c-0.59,0-1.15-0.17-1.47-0.42V119.84z"/>
	<path class="st0" d="M154.43,116.76c-0.44-0.31-0.97-0.49-1.46-0.49c-1.08,0-2.01,0.72-2.01,2.09c0,1.32,0.92,2.06,2.06,2.06
		c0.55,0,1.02-0.18,1.5-0.49v0.76c-0.52,0.26-1.02,0.4-1.57,0.4c-1.46,0-2.72-1.02-2.72-2.73c0-1.75,1.29-2.73,2.71-2.73
		c0.58,0,1.03,0.13,1.5,0.4V116.76z"/>
	<path class="st0" d="M156.62,120.95h-0.72v-4.75c0.55-0.35,1.22-0.56,1.94-0.56c0.29,0,0.58,0.04,0.88,0.11v0.71
		c-0.31-0.11-0.68-0.13-0.92-0.13c-0.52,0-0.9,0.11-1.18,0.26V120.95z"/>
	<path class="st0" d="M160,118.38v0.02c0,1.28,0.92,2.04,1.94,2.04c0.74,0,1.26-0.19,1.79-0.59v0.72c-0.47,0.35-1.14,0.5-1.79,0.5
		c-1.51,0-2.66-1.03-2.66-2.73c0-1.57,1.08-2.73,2.48-2.73c1.32,0,2.2,0.79,2.2,2.28v0.49H160z M163.24,117.78
		c-0.05-1.09-0.64-1.54-1.51-1.54c-0.82,0-1.47,0.55-1.68,1.54H163.24z"/>
	<path class="st0" d="M165.73,118.38v0.02c0,1.28,0.92,2.04,1.94,2.04c0.74,0,1.26-0.19,1.79-0.59v0.72
		c-0.47,0.35-1.14,0.5-1.79,0.5c-1.51,0-2.66-1.03-2.66-2.73c0-1.57,1.08-2.73,2.48-2.73c1.32,0,2.19,0.79,2.19,2.28v0.49H165.73z
		 M168.96,117.78c-0.05-1.09-0.64-1.54-1.51-1.54c-0.82,0-1.47,0.55-1.68,1.54H168.96z"/>
	<path class="st0" d="M171.07,116c0.7-0.25,1.49-0.4,2.2-0.4c1.32,0,2.12,0.52,2.12,1.82v3.53h-0.72v-3.38c0-1.07-0.75-1.3-1.46-1.3
		c-0.55,0-1.04,0.1-1.42,0.19v4.49h-0.72V116z"/>
	<path class="st0" d="M176.95,114.09c0-0.3,0.25-0.54,0.54-0.54c0.3,0,0.54,0.24,0.54,0.54c0,0.29-0.24,0.54-0.54,0.54
		C177.2,114.63,176.95,114.38,176.95,114.09z M177.84,120.95h-0.72v-5.23h0.72V120.95z"/>
	<path class="st0" d="M179.64,116c0.7-0.25,1.49-0.4,2.2-0.4c1.32,0,2.12,0.52,2.12,1.82v3.53h-0.72v-3.38c0-1.07-0.75-1.3-1.46-1.3
		c-0.55,0-1.04,0.1-1.42,0.19v4.49h-0.72V116z"/>
	<path class="st0" d="M189.3,120.77c-0.18,0.12-0.66,0.23-1.08,0.23c-1.71,0-2.91-0.9-2.91-2.69c0-1.69,1.17-2.71,3.01-2.71
		c0.54,0,1.26,0.14,1.7,0.33v5.07c0,1.6-1.2,2.22-2.4,2.22c-0.64,0-1.24-0.14-1.62-0.32v-0.68c0.46,0.22,1.06,0.4,1.62,0.4
		c0.86,0,1.68-0.42,1.68-1.74V120.77z M189.3,116.42c-0.29-0.1-0.61-0.16-0.98-0.16c-1.45,0-2.29,0.77-2.29,2.05
		c0,1.26,0.84,2.05,2.19,2.05c0.43,0,0.72-0.07,1.08-0.2V116.42z"/>
	<path class="st0" d="M8.77,131.17c0.6,0,1.08,0.48,1.08,1.08s-0.48,1.08-1.08,1.08s-1.08-0.48-1.08-1.08S8.17,131.17,8.77,131.17z"
		/>
	<path class="st0" d="M17.89,134.11c0.58,0.46,1.09,0.73,1.81,0.73c0.85,0,1.58-0.37,1.58-1.31c0-0.85-0.64-1.17-1.49-1.49
		c-1.27-0.47-1.96-0.89-1.96-2.1c0-1.21,1.01-1.83,2.07-1.83c0.7,0,1.27,0.22,1.7,0.56v0.77c-0.58-0.46-1.05-0.7-1.7-0.7
		c-0.8,0-1.35,0.48-1.35,1.21c0,0.68,0.41,1.02,1.44,1.38c1.32,0.46,2.02,0.95,2.02,2.19c0,1.31-1.03,1.94-2.32,1.94
		c-0.77,0-1.38-0.22-1.81-0.55V134.11z"/>
	<path class="st0" d="M23.55,128.22c0.48-0.06,1.02-0.11,1.44-0.11c1.8,0,2.58,0.7,2.58,1.93c0,0.92-0.59,1.56-1.5,1.67
		c1.1,0.07,1.79,0.68,1.79,1.73c0,1.15-0.79,2.04-2.87,2.04c-0.48,0-0.97-0.05-1.44-0.13V128.22z M24.28,131.43h0.64
		c1.2,0,1.92-0.47,1.92-1.39c0-0.89-0.68-1.32-1.86-1.32c-0.2,0-0.44,0.01-0.7,0.04V131.43z M24.28,134.81
		c0.29,0.04,0.53,0.05,0.71,0.05c1.51,0,2.13-0.54,2.13-1.43c0-0.95-0.83-1.37-2.1-1.37h-0.74V134.81z"/>
	<path class="st0" d="M30.1,135.35h-0.74v-7.14c0.32-0.05,0.84-0.11,1.26-0.11c1.97,0,2.79,0.91,2.79,2.25
		c0,1.52-1.07,2.35-2.85,2.35c-0.13,0-0.3-0.01-0.46-0.02V135.35z M30.1,132.07c0.13,0.01,0.26,0.01,0.38,0.01
		c1.48,0,2.17-0.56,2.17-1.71c0-0.92-0.54-1.62-2.07-1.62c-0.14,0-0.31,0.01-0.48,0.02V132.07z"/>
	<path class="st0" d="M39.7,131.91l-3.23,1.97v-0.79l2.08-1.22l-2.08-1.22v-0.79l3.23,1.97V131.91z"/>
	<path class="st0" d="M40.14,128.52l2.22-0.4v7.23h-0.73v-6.42l-1.49,0.23V128.52z"/>
	<path class="st0" d="M47.91,132.76h1.35v0.61h-1.35v1.98H47.2v-1.98h-3.53v-0.61l3.37-4.53h0.86V132.76z M44.44,132.76h2.76v-3.75
		L44.44,132.76z"/>
	<path class="st0" d="M52.7,128.11c1.63,0,2.65,1.55,2.65,3.68c0,2.14-1.02,3.68-2.65,3.68s-2.65-1.55-2.65-3.68
		C50.05,129.66,51.07,128.11,52.7,128.11z M52.7,134.84c1.15,0,1.91-1.26,1.91-3.05c0-1.79-0.76-3.05-1.91-3.05
		s-1.91,1.26-1.91,3.05C50.79,133.58,51.55,134.84,52.7,134.84z"/>
	<path class="st0" d="M65.79,131.85c0-0.97-0.66-1.2-1.22-1.2c-0.62,0-1.22,0.16-1.54,0.3c0.1,0.23,0.16,0.52,0.16,0.86v3.54h-0.72
		v-3.5c0-0.97-0.64-1.2-1.24-1.2c-0.59,0-1.05,0.12-1.38,0.24v4.46h-0.72v-4.89c0.68-0.28,1.4-0.46,2.1-0.46
		c0.61,0,1.08,0.13,1.4,0.41c0.62-0.24,1.3-0.41,1.93-0.41c1.26,0,1.94,0.52,1.94,1.82v3.53h-0.72V131.85z"/>
	<path class="st0" d="M74.91,131.85c0-0.97-0.66-1.2-1.22-1.2c-0.62,0-1.22,0.16-1.54,0.3c0.1,0.23,0.16,0.52,0.16,0.86v3.54h-0.72
		v-3.5c0-0.97-0.64-1.2-1.24-1.2c-0.59,0-1.05,0.12-1.38,0.24v4.46h-0.72v-4.89c0.68-0.28,1.4-0.46,2.1-0.46
		c0.61,0,1.08,0.13,1.4,0.41c0.62-0.24,1.3-0.41,1.93-0.41c1.26,0,1.94,0.52,1.94,1.82v3.53h-0.72V131.85z"/>
	<path class="st0" d="M84.91,128.23h0.74v7.12h-0.74v-3.3h-4.39v3.3h-0.74v-7.12h0.74v3.17h4.39V128.23z"/>
	<path class="st0" d="M91.17,135.18c-0.18,0.12-0.66,0.23-1.08,0.23c-1.71,0-2.91-0.9-2.91-2.69c0-1.69,1.17-2.71,3.01-2.71
		c0.54,0,1.26,0.14,1.7,0.33v5.07c0,1.6-1.2,2.22-2.4,2.22c-0.64,0-1.24-0.14-1.62-0.32v-0.68c0.46,0.22,1.06,0.4,1.62,0.4
		c0.86,0,1.68-0.42,1.68-1.74V135.18z M91.17,130.82c-0.29-0.1-0.61-0.16-0.98-0.16c-1.45,0-2.29,0.77-2.29,2.05
		c0,1.26,0.84,2.05,2.19,2.05c0.43,0,0.72-0.07,1.08-0.2V130.82z"/>
	<path class="st0" d="M98.2,130.01c1.56,0,2.63,1.12,2.63,2.73s-1.07,2.73-2.63,2.73c-1.56,0-2.63-1.12-2.63-2.73
		S96.65,130.01,98.2,130.01z M98.2,130.63c-1.1,0-1.89,0.84-1.89,2.11c0,1.27,0.79,2.11,1.89,2.11c1.1,0,1.9-0.84,1.9-2.11
		C100.1,131.47,99.31,130.63,98.2,130.63z"/>
	<path class="st0" d="M102.96,135.35h-0.72v-4.75c0.55-0.35,1.22-0.56,1.94-0.56c0.29,0,0.58,0.04,0.88,0.11v0.71
		c-0.31-0.11-0.68-0.13-0.92-0.13c-0.52,0-0.9,0.11-1.18,0.26V135.35z"/>
	<path class="st0" d="M108.6,128.21c0.53-0.06,1.02-0.1,1.46-0.1c3.26,0,4.37,1.69,4.37,3.51c0,2-1.16,3.85-4.27,3.85
		c-0.6,0-1.05-0.05-1.56-0.11V128.21z M109.34,134.78c0.29,0.04,0.56,0.05,0.83,0.05c2.04,0,3.48-1.02,3.48-3.19
		c0-1.68-1.07-2.85-3.61-2.85c-0.23,0-0.44,0.01-0.7,0.04V134.78z"/>
	<path class="st0" d="M115.99,128.22c0.48-0.06,1.02-0.11,1.44-0.11c1.8,0,2.58,0.7,2.58,1.93c0,0.92-0.59,1.56-1.5,1.67
		c1.1,0.07,1.79,0.68,1.79,1.73c0,1.15-0.79,2.04-2.87,2.04c-0.48,0-0.97-0.05-1.44-0.13V128.22z M116.72,131.43h0.64
		c1.2,0,1.92-0.47,1.92-1.39c0-0.89-0.68-1.32-1.86-1.32c-0.2,0-0.44,0.01-0.7,0.04V131.43z M116.72,134.81
		c0.29,0.04,0.53,0.05,0.71,0.05c1.51,0,2.13-0.54,2.13-1.43c0-0.95-0.83-1.37-2.1-1.37h-0.74V134.81z"/>
	<path class="st0" d="M122.54,135.35h-0.74v-7.14c0.32-0.05,0.84-0.11,1.26-0.11c1.97,0,2.79,0.91,2.79,2.25
		c0,1.52-1.07,2.35-2.85,2.35c-0.13,0-0.3-0.01-0.46-0.02V135.35z M122.54,132.07c0.13,0.01,0.26,0.01,0.38,0.01
		c1.48,0,2.17-0.56,2.17-1.71c0-0.92-0.54-1.62-2.07-1.62c-0.14,0-0.31,0.01-0.48,0.02V132.07z"/>
	<path class="st0" d="M132.14,131.91l-3.23,1.97v-0.79l2.08-1.22l-2.08-1.22v-0.79l3.23,1.97V131.91z"/>
	<path class="st0" d="M134.37,135.35l1.57-2.39l0.61-0.86c-0.37,0.44-0.86,0.65-1.48,0.65c-1.19,0-2.27-0.82-2.27-2.31
		c0-1.25,0.89-2.33,2.43-2.33c1.52,0,2.38,1.08,2.38,2.33c0,0.86-0.34,1.62-0.84,2.4l-1.63,2.52H134.37z M135.24,128.71
		c-0.97,0-1.69,0.66-1.69,1.71c0,1.03,0.71,1.7,1.68,1.7c0.95,0,1.67-0.67,1.67-1.7C136.89,129.37,136.16,128.71,135.24,128.71z"/>
	<path class="st0" d="M141.38,128.11c1.63,0,2.65,1.55,2.65,3.68c0,2.14-1.02,3.68-2.65,3.68s-2.65-1.55-2.65-3.68
		C138.73,129.66,139.75,128.11,141.38,128.11z M141.38,134.84c1.15,0,1.91-1.26,1.91-3.05c0-1.79-0.76-3.05-1.91-3.05
		s-1.91,1.26-1.91,3.05C139.47,133.58,140.23,134.84,141.38,134.84z"/>
	<path class="st0" d="M154.47,131.85c0-0.97-0.66-1.2-1.22-1.2c-0.62,0-1.22,0.16-1.54,0.3c0.1,0.23,0.16,0.52,0.16,0.86v3.54h-0.72
		v-3.5c0-0.97-0.64-1.2-1.24-1.2c-0.59,0-1.05,0.12-1.38,0.24v4.46h-0.72v-4.89c0.68-0.28,1.4-0.46,2.1-0.46
		c0.61,0,1.08,0.13,1.4,0.41c0.62-0.24,1.3-0.41,1.93-0.41c1.26,0,1.94,0.52,1.94,1.82v3.53h-0.72V131.85z"/>
	<path class="st0" d="M163.59,131.85c0-0.97-0.66-1.2-1.22-1.2c-0.62,0-1.22,0.16-1.54,0.3c0.1,0.23,0.16,0.52,0.16,0.86v3.54h-0.72
		v-3.5c0-0.97-0.64-1.2-1.24-1.2c-0.59,0-1.05,0.12-1.38,0.24v4.46h-0.72v-4.89c0.68-0.28,1.4-0.46,2.1-0.46
		c0.61,0,1.08,0.13,1.4,0.41c0.62-0.24,1.3-0.41,1.93-0.41c1.26,0,1.94,0.52,1.94,1.82v3.53h-0.72V131.85z"/>
	<path class="st0" d="M173.59,128.23h0.74v7.12h-0.74v-3.3h-4.39v3.3h-0.74v-7.12h0.74v3.17h4.39V128.23z"/>
	<path class="st0" d="M179.85,135.18c-0.18,0.12-0.66,0.23-1.08,0.23c-1.71,0-2.91-0.9-2.91-2.69c0-1.69,1.17-2.71,3.01-2.71
		c0.54,0,1.26,0.14,1.7,0.33v5.07c0,1.6-1.2,2.22-2.4,2.22c-0.64,0-1.24-0.14-1.62-0.32v-0.68c0.46,0.22,1.06,0.4,1.62,0.4
		c0.86,0,1.68-0.42,1.68-1.74V135.18z M179.85,130.82c-0.29-0.1-0.61-0.16-0.98-0.16c-1.45,0-2.29,0.77-2.29,2.05
		c0,1.26,0.84,2.05,2.19,2.05c0.43,0,0.72-0.07,1.08-0.2V130.82z"/>
	<path class="st0" d="M8.77,145.57c0.6,0,1.08,0.48,1.08,1.08s-0.48,1.08-1.08,1.08s-1.08-0.48-1.08-1.08S8.17,145.57,8.77,145.57z"
		/>
	<path class="st0" d="M19.15,149.75h-0.74v-7.14c0.32-0.05,0.84-0.11,1.26-0.11c1.97,0,2.79,0.91,2.79,2.25
		c0,1.52-1.07,2.35-2.85,2.35c-0.13,0-0.3-0.01-0.46-0.02V149.75z M19.15,146.47c0.13,0.01,0.26,0.01,0.38,0.01
		c1.48,0,2.17-0.56,2.17-1.71c0-0.92-0.54-1.62-2.07-1.62c-0.14,0-0.31,0.01-0.48,0.02V146.47z"/>
	<path class="st0" d="M25.89,144.41c1.56,0,2.63,1.12,2.63,2.73s-1.07,2.73-2.63,2.73c-1.56,0-2.63-1.12-2.63-2.73
		S24.33,144.41,25.89,144.41z M25.89,145.03c-1.1,0-1.89,0.84-1.89,2.11s0.79,2.11,1.89,2.11c1.1,0,1.9-0.84,1.9-2.11
		S27,145.03,25.89,145.03z"/>
	<path class="st0" d="M29.61,148.64c0.44,0.4,0.9,0.62,1.47,0.62c0.66,0,1.08-0.25,1.08-0.84c0-0.62-0.46-0.79-1.28-1.07
		c-0.92-0.31-1.32-0.7-1.32-1.54c0-0.92,0.7-1.42,1.64-1.42c0.52,0,1.02,0.11,1.43,0.4v0.78c-0.41-0.34-0.83-0.56-1.43-0.56
		c-0.58,0-0.95,0.31-0.95,0.8c0,0.48,0.29,0.73,1.09,0.98c0.91,0.28,1.52,0.62,1.52,1.57c0,1.03-0.8,1.5-1.79,1.5
		c-0.59,0-1.15-0.17-1.47-0.42V148.64z"/>
	<path class="st0" d="M34.14,142.89c0-0.3,0.25-0.54,0.54-0.54c0.3,0,0.54,0.24,0.54,0.54c0,0.29-0.24,0.54-0.54,0.54
		C34.39,143.43,34.14,143.18,34.14,142.89z M35.04,149.75h-0.72v-5.23h0.72V149.75z"/>
	<path class="st0" d="M36.12,144.52h0.8v-1.27h0.72v1.27h1.48v0.61h-1.48v3.19c0,0.67,0.26,0.93,0.76,0.93
		c0.34,0,0.61-0.11,0.97-0.29v0.64c-0.31,0.16-0.67,0.26-1.13,0.26c-0.76,0-1.32-0.4-1.32-1.48v-3.26h-0.8V144.52z"/>
	<path class="st0" d="M40.45,142.89c0-0.3,0.25-0.54,0.54-0.54c0.3,0,0.54,0.24,0.54,0.54c0,0.29-0.24,0.54-0.54,0.54
		C40.7,143.43,40.45,143.18,40.45,142.89z M41.35,149.75h-0.72v-5.23h0.72V149.75z"/>
	<path class="st0" d="M44.36,149.75l-2.05-5.23h0.76l1.7,4.56l1.7-4.56h0.73l-2.05,5.23H44.36z"/>
	<path class="st0" d="M48.49,147.18v0.02c0,1.28,0.92,2.04,1.94,2.04c0.74,0,1.26-0.19,1.79-0.59v0.72c-0.47,0.35-1.14,0.5-1.79,0.5
		c-1.51,0-2.66-1.03-2.66-2.73c0-1.57,1.08-2.73,2.48-2.73c1.32,0,2.19,0.79,2.19,2.28v0.49H48.49z M51.73,146.58
		c-0.05-1.09-0.64-1.54-1.51-1.54c-0.82,0-1.47,0.55-1.68,1.54H51.73z"/>
	<path class="st0" d="M60.19,149.69c-0.64,0.12-1.28,0.18-1.82,0.18c-1.51,0-2.38-0.52-2.38-1.82v-3.53h0.72v3.49
		c0,0.98,0.78,1.24,1.61,1.24c0.36,0,0.77-0.02,1.15-0.07v-4.65h0.72V149.69z"/>
	<path class="st0" d="M62.71,149.75h-0.72v-4.75c0.55-0.35,1.22-0.56,1.94-0.56c0.29,0,0.58,0.04,0.88,0.11v0.71
		c-0.31-0.11-0.68-0.13-0.92-0.13c-0.52,0-0.9,0.11-1.18,0.26V149.75z"/>
	<path class="st0" d="M65.77,142.89c0-0.3,0.25-0.54,0.54-0.54c0.3,0,0.54,0.24,0.54,0.54c0,0.29-0.24,0.54-0.54,0.54
		C66.02,143.43,65.77,143.18,65.77,142.89z M66.67,149.75h-0.72v-5.23h0.72V149.75z"/>
	<path class="st0" d="M68.47,144.8c0.7-0.25,1.49-0.4,2.2-0.4c1.32,0,2.12,0.52,2.12,1.82v3.53h-0.72v-3.38
		c0-1.07-0.75-1.3-1.46-1.3c-0.55,0-1.04,0.1-1.42,0.19v4.49h-0.72V144.8z"/>
	<path class="st0" d="M74.85,147.18v0.02c0,1.28,0.92,2.04,1.94,2.04c0.74,0,1.26-0.19,1.79-0.59v0.72c-0.47,0.35-1.14,0.5-1.79,0.5
		c-1.51,0-2.66-1.03-2.66-2.73c0-1.57,1.08-2.73,2.48-2.73c1.32,0,2.19,0.79,2.19,2.28v0.49H74.85z M78.09,146.58
		c-0.05-1.09-0.64-1.54-1.51-1.54c-0.82,0-1.47,0.55-1.68,1.54H78.09z"/>
	<path class="st0" d="M81.75,144.52h0.8v-1.27h0.72v1.27h1.48v0.61h-1.48v3.19c0,0.67,0.26,0.93,0.76,0.93
		c0.34,0,0.61-0.11,0.97-0.29v0.64c-0.31,0.16-0.67,0.26-1.13,0.26c-0.76,0-1.32-0.4-1.32-1.48v-3.26h-0.8V144.52z"/>
	<path class="st0" d="M86.47,147.18v0.02c0,1.28,0.92,2.04,1.94,2.04c0.74,0,1.26-0.19,1.79-0.59v0.72c-0.47,0.35-1.14,0.5-1.79,0.5
		c-1.51,0-2.66-1.03-2.66-2.73c0-1.57,1.08-2.73,2.48-2.73c1.32,0,2.2,0.79,2.2,2.28v0.49H86.47z M89.71,146.58
		c-0.05-1.09-0.64-1.54-1.51-1.54c-0.82,0-1.47,0.55-1.68,1.54H89.71z"/>
	<path class="st0" d="M91.56,148.64c0.44,0.4,0.9,0.62,1.47,0.62c0.66,0,1.08-0.25,1.08-0.84c0-0.62-0.46-0.79-1.28-1.07
		c-0.92-0.31-1.32-0.7-1.32-1.54c0-0.92,0.7-1.42,1.64-1.42c0.52,0,1.02,0.11,1.43,0.4v0.78c-0.41-0.34-0.83-0.56-1.43-0.56
		c-0.58,0-0.95,0.31-0.95,0.8c0,0.48,0.29,0.73,1.09,0.98c0.91,0.28,1.52,0.62,1.52,1.57c0,1.03-0.8,1.5-1.79,1.5
		c-0.59,0-1.15-0.17-1.47-0.42V148.64z"/>
	<path class="st0" d="M95.54,144.52h0.8v-1.27h0.72v1.27h1.48v0.61h-1.48v3.19c0,0.67,0.26,0.93,0.76,0.93
		c0.34,0,0.61-0.11,0.97-0.29v0.64c-0.31,0.16-0.67,0.26-1.13,0.26c-0.76,0-1.32-0.4-1.32-1.48v-3.26h-0.8V144.52z"/>
	<path class="st0" d="M103.05,149.75h-0.72v-4.75c0.55-0.35,1.22-0.56,1.94-0.56c0.29,0,0.58,0.04,0.88,0.11v0.71
		c-0.31-0.11-0.68-0.13-0.92-0.13c-0.52,0-0.9,0.11-1.18,0.26V149.75z"/>
	<path class="st0" d="M106.43,147.18v0.02c0,1.28,0.92,2.04,1.94,2.04c0.74,0,1.26-0.19,1.79-0.59v0.72
		c-0.47,0.35-1.14,0.5-1.79,0.5c-1.51,0-2.66-1.03-2.66-2.73c0-1.57,1.08-2.73,2.48-2.73c1.32,0,2.19,0.79,2.19,2.28v0.49H106.43z
		 M109.67,146.58c-0.05-1.09-0.64-1.54-1.51-1.54c-0.82,0-1.47,0.55-1.68,1.54H109.67z"/>
	<path class="st0" d="M111.52,148.64c0.44,0.4,0.9,0.62,1.47,0.62c0.66,0,1.08-0.25,1.08-0.84c0-0.62-0.46-0.79-1.28-1.07
		c-0.92-0.31-1.32-0.7-1.32-1.54c0-0.92,0.7-1.42,1.64-1.42c0.52,0,1.02,0.11,1.43,0.4v0.78c-0.41-0.34-0.83-0.56-1.43-0.56
		c-0.58,0-0.95,0.31-0.95,0.8c0,0.48,0.29,0.73,1.09,0.98c0.91,0.28,1.52,0.62,1.52,1.57c0,1.03-0.8,1.5-1.79,1.5
		c-0.59,0-1.15-0.17-1.47-0.42V148.64z"/>
	<path class="st0" d="M120.3,149.69c-0.64,0.12-1.28,0.18-1.82,0.18c-1.51,0-2.38-0.52-2.38-1.82v-3.53h0.72v3.49
		c0,0.98,0.78,1.24,1.61,1.24c0.36,0,0.77-0.02,1.15-0.07v-4.65h0.72V149.69z"/>
	<path class="st0" d="M122.83,149.75h-0.72v-8.16h0.72V149.75z"/>
	<path class="st0" d="M123.91,144.52h0.8v-1.27h0.72v1.27h1.48v0.61h-1.48v3.19c0,0.67,0.26,0.93,0.76,0.93
		c0.34,0,0.61-0.11,0.97-0.29v0.64c-0.31,0.16-0.67,0.26-1.13,0.26c-0.76,0-1.32-0.4-1.32-1.48v-3.26h-0.8V144.52z"/>
	<path class="st0" d="M130.37,151.43c-1.19-1.1-2.13-2.79-2.13-4.92s0.95-3.81,2.13-4.92h0.8c-1.25,1.22-2.25,2.69-2.25,4.92
		s1.01,3.69,2.25,4.92H130.37z"/>
	<path class="st0" d="M131.89,148.64c0.44,0.4,0.9,0.62,1.47,0.62c0.66,0,1.08-0.25,1.08-0.84c0-0.62-0.46-0.79-1.28-1.07
		c-0.92-0.31-1.32-0.7-1.32-1.54c0-0.92,0.7-1.42,1.64-1.42c0.52,0,1.02,0.11,1.43,0.4v0.78c-0.41-0.34-0.83-0.56-1.43-0.56
		c-0.58,0-0.95,0.31-0.95,0.8c0,0.48,0.29,0.73,1.09,0.98c0.91,0.28,1.52,0.62,1.52,1.57c0,1.03-0.8,1.5-1.79,1.5
		c-0.59,0-1.15-0.17-1.47-0.42V148.64z"/>
	<path class="st0" d="M136.61,141.6c1.19,1.1,2.13,2.79,2.13,4.92s-0.95,3.81-2.13,4.92h-0.8c1.25-1.22,2.25-2.69,2.25-4.92
		s-1.01-3.69-2.25-4.92H136.61z"/>
	<path class="st0" d="M143.51,149.75h-0.72v-4.62h-0.8v-0.61h0.8v-1.31c0-1.09,0.56-1.74,1.61-1.74c0.4,0,0.68,0.08,0.94,0.26v0.68
		c-0.25-0.18-0.54-0.31-0.92-0.31c-0.55,0-0.9,0.26-0.9,1.12v1.29h1.44v0.61h-1.44V149.75z"/>
	<path class="st0" d="M148.11,144.41c1.56,0,2.63,1.12,2.63,2.73s-1.07,2.73-2.63,2.73c-1.56,0-2.63-1.12-2.63-2.73
		S146.55,144.41,148.11,144.41z M148.11,145.03c-1.1,0-1.89,0.84-1.89,2.11s0.79,2.11,1.89,2.11c1.1,0,1.9-0.84,1.9-2.11
		S149.21,145.03,148.11,145.03z"/>
	<path class="st0" d="M152.86,149.75h-0.72v-4.75c0.55-0.35,1.22-0.56,1.94-0.56c0.29,0,0.58,0.04,0.88,0.11v0.71
		c-0.31-0.11-0.68-0.13-0.92-0.13c-0.52,0-0.9,0.11-1.18,0.26V149.75z"/>
	<path class="st0" d="M158.38,144.74c0.48-0.18,1.15-0.33,1.82-0.33c1.8,0,2.89,0.94,2.89,2.73c0,1.7-1.13,2.73-2.84,2.73
		c-0.42,0-0.88-0.08-1.15-0.22v2.25h-0.72V144.74z M159.1,149.03c0.34,0.14,0.71,0.22,1.15,0.22c1.27,0,2.11-0.78,2.11-2.11
		c0-1.28-0.78-2.08-2.16-2.08c-0.41,0-0.83,0.05-1.1,0.14V149.03z"/>
	<path class="st0" d="M164.5,141.6h0.72v3.08c0.4-0.14,0.98-0.28,1.54-0.28c1.26,0,2.06,0.52,2.06,1.82v3.53h-0.72v-3.38
		c0-1.07-0.75-1.3-1.46-1.3c-0.55,0-1.06,0.12-1.42,0.24v4.44h-0.72V141.6z"/>
	<path class="st0" d="M170.88,147.18v0.02c0,1.28,0.92,2.04,1.94,2.04c0.74,0,1.26-0.19,1.79-0.59v0.72
		c-0.47,0.35-1.14,0.5-1.79,0.5c-1.51,0-2.66-1.03-2.66-2.73c0-1.57,1.08-2.73,2.48-2.73c1.32,0,2.2,0.79,2.2,2.28v0.49H170.88z
		 M174.12,146.58c-0.05-1.09-0.64-1.54-1.51-1.54c-0.82,0-1.47,0.55-1.68,1.54H174.12z"/>
	<path class="st0" d="M176.22,144.8c0.7-0.25,1.49-0.4,2.2-0.4c1.32,0,2.12,0.52,2.12,1.82v3.53h-0.72v-3.38
		c0-1.07-0.75-1.3-1.46-1.3c-0.55,0-1.04,0.1-1.42,0.19v4.49h-0.72V144.8z"/>
	<path class="st0" d="M186.1,145.56c-0.44-0.31-0.97-0.49-1.46-0.49c-1.08,0-2.01,0.72-2.01,2.09c0,1.32,0.92,2.06,2.06,2.06
		c0.55,0,1.02-0.18,1.5-0.49v0.76c-0.52,0.26-1.02,0.4-1.57,0.4c-1.46,0-2.72-1.02-2.72-2.73c0-1.75,1.29-2.73,2.71-2.73
		c0.58,0,1.03,0.13,1.5,0.4V145.56z"/>
	<path class="st0" d="M189.27,149.29l1.73-4.76h0.74l-2.83,7.39h-0.71l0.71-1.81l-2.18-5.58h0.79L189.27,149.29z"/>
	<path class="st0" d="M196.52,145.56c-0.44-0.31-0.97-0.49-1.46-0.49c-1.08,0-2.01,0.72-2.01,2.09c0,1.32,0.92,2.06,2.06,2.06
		c0.55,0,1.02-0.18,1.5-0.49v0.76c-0.52,0.26-1.02,0.4-1.57,0.4c-1.46,0-2.72-1.02-2.72-2.73c0-1.75,1.29-2.73,2.71-2.73
		c0.58,0,1.03,0.13,1.5,0.4V145.56z"/>
	<path class="st0" d="M198.7,149.75h-0.72v-8.16h0.72V149.75z"/>
	<path class="st0" d="M200.32,142.89c0-0.3,0.25-0.54,0.54-0.54c0.3,0,0.54,0.24,0.54,0.54c0,0.29-0.24,0.54-0.54,0.54
		C200.57,143.43,200.32,143.18,200.32,142.89z M201.22,149.75h-0.72v-5.23h0.72V149.75z"/>
	<path class="st0" d="M207.36,149.68c-0.56,0.13-1.15,0.19-1.7,0.19c-1.81,0-3.03-0.98-3.03-2.73c0-1.76,1.32-2.73,2.88-2.73
		c0.4,0,0.88,0.08,1.14,0.24v-3.05h0.72V149.68z M206.64,145.29c-0.26-0.14-0.66-0.24-1.14-0.24c-1.21,0-2.15,0.74-2.15,2.09
		c0,1.33,0.92,2.1,2.3,2.1c0.34,0,0.67-0.01,0.98-0.06V145.29z"/>
	<path class="st0" d="M208.98,142.89c0-0.3,0.25-0.54,0.54-0.54c0.3,0,0.54,0.24,0.54,0.54c0,0.29-0.24,0.54-0.54,0.54
		C209.24,143.43,208.98,143.18,208.98,142.89z M209.88,149.75h-0.72v-5.23h0.72V149.75z"/>
	<path class="st0" d="M211.68,144.8c0.7-0.25,1.49-0.4,2.2-0.4c1.32,0,2.12,0.52,2.12,1.82v3.53h-0.72v-3.38
		c0-1.07-0.75-1.3-1.46-1.3c-0.55,0-1.04,0.1-1.42,0.19v4.49h-0.72V144.8z"/>
	<path class="st0" d="M218.07,147.18v0.02c0,1.28,0.92,2.04,1.94,2.04c0.74,0,1.26-0.19,1.79-0.59v0.72
		c-0.47,0.35-1.14,0.5-1.79,0.5c-1.51,0-2.66-1.03-2.66-2.73c0-1.57,1.08-2.73,2.48-2.73c1.32,0,2.2,0.79,2.2,2.28v0.49H218.07z
		 M221.3,146.58c-0.05-1.09-0.64-1.54-1.51-1.54c-0.82,0-1.47,0.55-1.68,1.54H221.3z"/>
	<path class="st0" d="M224.29,148.79c0,1-0.56,2.04-1.19,2.45h-0.58c0.58-0.6,0.92-1.49,0.92-2.45H224.29z"/>
	<path class="st0" d="M22.1,157.56c-0.44-0.31-0.97-0.49-1.46-0.49c-1.08,0-2.01,0.72-2.01,2.09c0,1.32,0.92,2.06,2.06,2.06
		c0.55,0,1.02-0.18,1.5-0.49v0.76c-0.52,0.26-1.02,0.4-1.57,0.4c-1.46,0-2.72-1.02-2.72-2.73c0-1.75,1.29-2.73,2.71-2.73
		c0.58,0,1.03,0.13,1.5,0.4V157.56z"/>
	<path class="st0" d="M25.8,156.41c1.56,0,2.63,1.12,2.63,2.73s-1.07,2.73-2.63,2.73c-1.56,0-2.63-1.12-2.63-2.73
		S24.24,156.41,25.8,156.41z M25.8,157.03c-1.1,0-1.89,0.84-1.89,2.11s0.79,2.11,1.89,2.11c1.1,0,1.9-0.84,1.9-2.11
		S26.9,157.03,25.8,157.03z"/>
	<path class="st0" d="M33.7,157.56c-0.44-0.31-0.97-0.49-1.46-0.49c-1.08,0-2.01,0.72-2.01,2.09c0,1.32,0.92,2.06,2.06,2.06
		c0.55,0,1.02-0.18,1.5-0.49v0.76c-0.52,0.26-1.02,0.4-1.57,0.4c-1.46,0-2.72-1.02-2.72-2.73c0-1.75,1.29-2.73,2.71-2.73
		c0.58,0,1.03,0.13,1.5,0.4V157.56z"/>
	<path class="st0" d="M37.94,158.1c0-0.67-0.43-1.02-1.1-1.02c-0.6,0-1.06,0.17-1.54,0.42v-0.68c0.44-0.24,1.01-0.41,1.62-0.41
		c1.05,0,1.74,0.47,1.74,1.64v3.61c-0.48,0.13-1.04,0.19-1.49,0.19c-1.42,0-2.36-0.44-2.36-1.55c0-1.03,0.95-1.57,2.54-1.57h0.59
		V158.1z M37.94,159.32H37.4c-1.08,0-1.87,0.29-1.87,0.98s0.72,0.95,1.68,0.95c0.22,0,0.48-0.02,0.73-0.07V159.32z"/>
	<path class="st0" d="M40.2,154.89c0-0.3,0.25-0.54,0.54-0.54c0.3,0,0.54,0.24,0.54,0.54c0,0.29-0.24,0.54-0.54,0.54
		C40.45,155.43,40.2,155.18,40.2,154.89z M41.1,161.75h-0.72v-5.23h0.72V161.75z"/>
	<path class="st0" d="M42.9,156.8c0.7-0.25,1.49-0.4,2.2-0.4c1.32,0,2.12,0.52,2.12,1.82v3.53h-0.72v-3.38c0-1.07-0.75-1.3-1.46-1.3
		c-0.55,0-1.04,0.1-1.42,0.19v4.49H42.9V156.8z"/>
	<path class="st0" d="M49.28,159.18v0.02c0,1.28,0.92,2.04,1.94,2.04c0.74,0,1.26-0.19,1.79-0.59v0.72c-0.47,0.35-1.14,0.5-1.79,0.5
		c-1.51,0-2.66-1.03-2.66-2.73c0-1.57,1.08-2.73,2.48-2.73c1.32,0,2.19,0.79,2.19,2.28v0.49H49.28z M52.52,158.58
		c-0.05-1.09-0.64-1.54-1.51-1.54c-0.82,0-1.47,0.55-1.68,1.54H52.52z"/>
	<path class="st0" d="M55.51,160.79c0,1-0.56,2.04-1.19,2.45h-0.58c0.58-0.6,0.92-1.49,0.92-2.45H55.51z"/>
	<path class="st0" d="M61.94,156.41c1.56,0,2.63,1.12,2.63,2.73s-1.07,2.73-2.63,2.73c-1.56,0-2.63-1.12-2.63-2.73
		S60.38,156.41,61.94,156.41z M61.94,157.03c-1.1,0-1.89,0.84-1.89,2.11s0.79,2.11,1.89,2.11c1.1,0,1.9-0.84,1.9-2.11
		S63.04,157.03,61.94,157.03z"/>
	<path class="st0" d="M66.69,161.75h-0.72v-4.75c0.55-0.35,1.22-0.56,1.94-0.56c0.29,0,0.58,0.04,0.88,0.11v0.71
		c-0.31-0.11-0.68-0.13-0.92-0.13c-0.52,0-0.9,0.11-1.18,0.26V161.75z"/>
	<path class="st0" d="M74.92,158.1c0-0.67-0.43-1.02-1.1-1.02c-0.6,0-1.06,0.17-1.54,0.42v-0.68c0.44-0.24,1.01-0.41,1.62-0.41
		c1.05,0,1.74,0.47,1.74,1.64v3.61c-0.48,0.13-1.04,0.19-1.49,0.19c-1.42,0-2.36-0.44-2.36-1.55c0-1.03,0.95-1.57,2.54-1.57h0.59
		V158.1z M74.92,159.32h-0.54c-1.08,0-1.87,0.29-1.87,0.98s0.72,0.95,1.68,0.95c0.22,0,0.48-0.02,0.73-0.07V159.32z"/>
	<path class="st0" d="M84.02,158.25c0-0.97-0.66-1.2-1.22-1.2c-0.62,0-1.22,0.16-1.54,0.3c0.1,0.23,0.16,0.52,0.16,0.86v3.54h-0.72
		v-3.5c0-0.97-0.64-1.2-1.24-1.2c-0.59,0-1.05,0.12-1.38,0.24v4.46h-0.72v-4.89c0.68-0.28,1.4-0.46,2.1-0.46
		c0.61,0,1.08,0.13,1.4,0.41c0.62-0.24,1.3-0.41,1.93-0.41c1.26,0,1.94,0.52,1.94,1.82v3.53h-0.72V158.25z"/>
	<path class="st0" d="M86.48,156.74c0.48-0.18,1.15-0.33,1.82-0.33c1.8,0,2.89,0.94,2.89,2.73c0,1.7-1.13,2.73-2.84,2.73
		c-0.42,0-0.88-0.08-1.15-0.22v2.25h-0.72V156.74z M87.2,161.03c0.34,0.14,0.71,0.22,1.15,0.22c1.27,0,2.11-0.78,2.11-2.11
		c0-1.28-0.78-2.08-2.16-2.08c-0.41,0-0.83,0.05-1.1,0.14V161.03z"/>
	<path class="st0" d="M92.6,153.6h0.72v3.08c0.4-0.14,0.98-0.28,1.54-0.28c1.26,0,2.06,0.52,2.06,1.82v3.53H96.2v-3.38
		c0-1.07-0.75-1.3-1.46-1.3c-0.55,0-1.06,0.12-1.42,0.24v4.44H92.6V153.6z"/>
	<path class="st0" d="M98.98,159.18v0.02c0,1.28,0.92,2.04,1.94,2.04c0.74,0,1.26-0.19,1.79-0.59v0.72c-0.47,0.35-1.14,0.5-1.79,0.5
		c-1.51,0-2.66-1.03-2.66-2.73c0-1.57,1.08-2.73,2.48-2.73c1.32,0,2.19,0.79,2.19,2.28v0.49H98.98z M102.22,158.58
		c-0.05-1.09-0.64-1.54-1.51-1.54c-0.82,0-1.47,0.55-1.68,1.54H102.22z"/>
	<path class="st0" d="M103.66,156.52h0.8v-1.27h0.72v1.27h1.48v0.61h-1.48v3.19c0,0.67,0.26,0.93,0.76,0.93
		c0.34,0,0.61-0.11,0.97-0.29v0.64c-0.31,0.16-0.67,0.26-1.13,0.26c-0.76,0-1.32-0.4-1.32-1.48v-3.26h-0.8V156.52z"/>
	<path class="st0" d="M110.89,158.1c0-0.67-0.43-1.02-1.1-1.02c-0.6,0-1.06,0.17-1.54,0.42v-0.68c0.44-0.24,1.01-0.41,1.62-0.41
		c1.06,0,1.74,0.47,1.74,1.64v3.61c-0.48,0.13-1.04,0.19-1.49,0.19c-1.42,0-2.36-0.44-2.36-1.55c0-1.03,0.95-1.57,2.54-1.57h0.59
		V158.1z M110.89,159.32h-0.54c-1.08,0-1.87,0.29-1.87,0.98s0.72,0.95,1.68,0.95c0.22,0,0.48-0.02,0.73-0.07V159.32z"/>
	<path class="st0" d="M119.98,158.25c0-0.97-0.66-1.2-1.22-1.2c-0.62,0-1.22,0.16-1.54,0.3c0.1,0.23,0.16,0.52,0.16,0.86v3.54h-0.72
		v-3.5c0-0.97-0.64-1.2-1.24-1.2c-0.59,0-1.05,0.12-1.38,0.24v4.46h-0.72v-4.89c0.68-0.28,1.4-0.46,2.1-0.46
		c0.61,0,1.08,0.13,1.4,0.41c0.62-0.24,1.3-0.41,1.93-0.41c1.26,0,1.94,0.52,1.94,1.82v3.53h-0.72V158.25z"/>
	<path class="st0" d="M122.26,154.89c0-0.3,0.25-0.54,0.54-0.54c0.3,0,0.54,0.24,0.54,0.54c0,0.29-0.24,0.54-0.54,0.54
		C122.52,155.43,122.26,155.18,122.26,154.89z M123.16,161.75h-0.72v-5.23h0.72V161.75z"/>
	<path class="st0" d="M124.96,156.8c0.7-0.25,1.49-0.4,2.2-0.4c1.32,0,2.12,0.52,2.12,1.82v3.53h-0.72v-3.38
		c0-1.07-0.75-1.3-1.46-1.3c-0.55,0-1.04,0.1-1.42,0.19v4.49h-0.72V156.8z"/>
	<path class="st0" d="M131.35,159.18v0.02c0,1.28,0.92,2.04,1.94,2.04c0.74,0,1.26-0.19,1.79-0.59v0.72
		c-0.47,0.35-1.14,0.5-1.79,0.5c-1.51,0-2.66-1.03-2.66-2.73c0-1.57,1.08-2.73,2.48-2.73c1.32,0,2.19,0.79,2.19,2.28v0.49H131.35z
		 M134.58,158.58c-0.05-1.09-0.64-1.54-1.51-1.54c-0.82,0-1.47,0.55-1.68,1.54H134.58z"/>
	<path class="st0" d="M136.43,160.64c0.44,0.4,0.9,0.62,1.47,0.62c0.66,0,1.08-0.25,1.08-0.84c0-0.62-0.46-0.79-1.28-1.07
		c-0.92-0.31-1.32-0.7-1.32-1.54c0-0.92,0.7-1.42,1.64-1.42c0.52,0,1.02,0.11,1.43,0.4v0.78c-0.41-0.34-0.83-0.56-1.43-0.56
		c-0.58,0-0.95,0.31-0.95,0.8c0,0.48,0.29,0.73,1.09,0.98c0.91,0.28,1.52,0.62,1.52,1.57c0,1.03-0.8,1.5-1.79,1.5
		c-0.59,0-1.15-0.17-1.47-0.42V160.64z"/>
</g>
</svg>
