<?xml version="1.0" encoding="utf-8"?>
<!-- Generator: Adobe Illustrator 24.1.3, SVG Export Plug-In . SVG Version: 6.00 Build 0)  -->
<svg version="1.1" id="Layer_1" xmlns="http://www.w3.org/2000/svg" xmlns:xlink="http://www.w3.org/1999/xlink" x="0px" y="0px"
	 viewBox="0 0 252.28 290.96" style="enable-background:new 0 0 252.28 290.96;" xml:space="preserve">
<style type="text/css">
	.st0{fill:#00417B;}
	.st1{fill:#FFFFFF;}
	.st2{fill:none;}
	.st3{fill:none;stroke:#00417B;stroke-miterlimit:10;}
	.st4{fill:#FFFFFF;stroke:#00417B;stroke-width:1.2188;stroke-miterlimit:10;}
	.st5{fill:#FFFFFF;stroke:#00417B;stroke-width:1.5;stroke-miterlimit:10;}
	.st6{fill-rule:evenodd;clip-rule:evenodd;fill:none;stroke:#00417B;stroke-miterlimit:10;}
	.st7{fill:none;stroke:#00417B;stroke-width:1.5;stroke-miterlimit:2.613;}
	.st8{fill-rule:evenodd;clip-rule:evenodd;fill:#00417B;}
	.st9{fill-rule:evenodd;clip-rule:evenodd;fill:#868686;}
	.st10{fill:none;stroke:#868686;stroke-miterlimit:2.613;}
	.st11{fill:none;stroke:#00417B;stroke-miterlimit:2.613;}
	.st12{fill:#333333;}
	.st13{fill:none;stroke:#00417B;stroke-width:0.75;stroke-miterlimit:10;}
	.st14{fill:#868686;}
	.st15{fill:none;stroke:#00417B;stroke-miterlimit:8;}
	.st16{fill:#4CA5DD;}
</style>
<path class="st0" d="M204.68,28.5H39.1c-6.07,0-10.98-4.92-10.98-10.98v-2.75c0-6.07,4.92-10.98,10.98-10.98h165.59
	c6.07,0,10.98,4.92,10.98,10.98v2.75C215.67,23.59,210.75,28.5,204.68,28.5z"/>
<g>
	<g>
		<path class="st1" d="M80.53,18.44c0.59,0.45,1.31,0.82,2.21,0.82c0.61,0,1.13-0.18,1.13-0.72c0-0.49-0.42-0.66-1.23-0.86
			c-1.66-0.42-2.28-1.17-2.28-2.51c0-1.58,1.2-2.48,2.78-2.48c0.96,0,1.62,0.23,2.21,0.58v1.97c-0.62-0.51-1.31-0.84-2.13-0.84
			c-0.61,0-0.9,0.27-0.9,0.65c0,0.51,0.46,0.68,1.31,0.89c1.65,0.43,2.21,1.2,2.21,2.54c0,1.74-1.39,2.5-3.09,2.5
			c-0.89,0-1.7-0.24-2.23-0.57V18.44z"/>
		<path class="st1" d="M86.34,14.77h0.9v-1.5h1.9v1.5h1.74v1.59h-1.74v2c0,0.68,0.34,0.85,0.8,0.85c0.42,0,0.78-0.12,1.11-0.34v1.76
			c-0.46,0.24-1.01,0.35-1.65,0.35c-1.11,0-2.16-0.53-2.16-2.07v-2.55h-0.9V14.77z"/>
		<path class="st1" d="M97.61,20.63c-0.69,0.22-1.84,0.35-2.63,0.35c-1.75,0-2.89-0.53-2.89-2.42v-3.79h1.92v3.62
			c0,0.66,0.15,1.03,0.97,1.03c0.16,0,0.46-0.03,0.72-0.08v-4.56h1.92V20.63z"/>
		<path class="st1" d="M104.94,20.67c-0.76,0.2-1.77,0.31-2.65,0.31c-2.11,0-3.48-1.11-3.48-3.16c0-1.88,1.22-3.19,3.15-3.19
			c0.41,0,0.81,0.05,1.07,0.16v-3.13h1.92V20.67z M103.03,16.49c-0.24-0.12-0.54-0.18-0.89-0.18c-0.85,0-1.38,0.54-1.38,1.44
			c0,1.03,0.59,1.59,1.61,1.59c0.15,0,0.43-0.01,0.66-0.05V16.49z"/>
		<path class="st1" d="M109.29,18.73l1.36-3.96h2l-3.32,8.51h-1.89l0.88-2.31l-2.49-6.2h2.07L109.29,18.73z"/>
		<path class="st1" d="M116.11,12.89c0.59-0.09,1.7-0.2,2.69-0.2c2.67,0,4.5,1.38,4.5,4.06c0,2.93-1.9,4.2-4.55,4.2
			c-0.96,0-2.01-0.05-2.63-0.19V12.89z M118.12,19.16c0.24,0.03,0.58,0.04,0.86,0.04c1.34,0,2.24-0.77,2.24-2.44
			c0-1.54-1.01-2.21-2.28-2.21c-0.26,0-0.58,0.01-0.82,0.04V19.16z"/>
		<path class="st1" d="M126.08,18.4v0.03c0.16,0.65,0.93,0.92,1.63,0.92c0.8,0,1.42-0.18,2.01-0.49v1.58
			c-0.57,0.38-1.4,0.54-2.23,0.54c-2.05,0-3.27-1.22-3.27-3.08c0-2.05,1.27-3.27,3-3.27c2.01,0,2.66,1.36,2.66,2.94v0.82H126.08z
			 M128.14,17.32c0-0.58-0.24-1.12-0.95-1.12c-0.62,0-0.99,0.46-1.09,1.12H128.14z"/>
		<path class="st1" d="M131.01,18.8c0.61,0.41,1.45,0.66,2.01,0.66c0.42,0,0.72-0.11,0.72-0.38c0-0.24-0.18-0.38-0.74-0.46
			c-1.47-0.2-2.09-0.78-2.09-1.93c0-1.42,1.08-2.05,2.46-2.05c0.77,0,1.28,0.16,1.82,0.46v1.63c-0.59-0.38-1.15-0.57-1.74-0.57
			c-0.51,0-0.67,0.19-0.67,0.39c0,0.23,0.17,0.35,0.62,0.42c1.74,0.28,2.21,0.95,2.21,2.04c0,1.35-1.01,1.97-2.52,1.97
			c-0.74,0-1.53-0.18-2.07-0.5V18.8z"/>
		<path class="st1" d="M136.72,12.95c0-0.62,0.5-1.11,1.11-1.11c0.58,0,1.09,0.49,1.09,1.11c0,0.61-0.51,1.09-1.09,1.09
			C137.22,14.04,136.72,13.56,136.72,12.95z M138.79,20.85h-1.92v-6.08h1.92V20.85z"/>
		<path class="st1" d="M144.09,20.56c-0.2,0.11-0.62,0.19-1.08,0.19c-1.78,0-3.03-1.07-3.03-3.02c0-1.92,1.28-3.09,3.39-3.09
			c1.05,0,1.92,0.2,2.63,0.49v5.58c0,2.16-1.77,2.71-3.13,2.71c-0.76,0-1.46-0.15-2.15-0.47v-1.77c0.8,0.47,1.36,0.63,2.15,0.63
			c0.72,0,1.22-0.39,1.22-1.11V20.56z M144.09,16.41c-0.18-0.07-0.45-0.11-0.72-0.11c-0.88,0-1.45,0.45-1.45,1.43
			c0,0.9,0.55,1.43,1.34,1.43c0.34,0,0.58-0.07,0.82-0.15V16.41z"/>
		<path class="st1" d="M147.6,15.2c0.88-0.35,2.08-0.57,3.02-0.57c1.59,0,2.65,0.58,2.65,2.5v3.71h-1.92v-3.63
			c0-0.49-0.2-0.86-0.86-0.86c-0.31,0-0.68,0.04-0.97,0.15v4.35h-1.92V15.2z"/>
		<path class="st1" d="M154.16,11.93l2-0.32v4.75h-1.16v-3.47l-0.84,0.1V11.93z"/>
		<path class="st1" d="M156.84,13.8h2.26v0.99h-2.26V13.8z"/>
		<path class="st1" d="M162.84,14.37h0.63v0.91h-0.63v1.07h-1.12v-1.07h-2.19v-0.94l2.2-2.66h1.11V14.37z M160.64,14.37h1.09v-1.35
			L160.64,14.37z"/>
	</g>
</g>
<g>
	<path class="st0" d="M7.36,256.2c0.58,0.46,1.09,0.73,1.81,0.73c0.85,0,1.58-0.37,1.58-1.31c0-0.85-0.63-1.18-1.49-1.49
		c-1.27-0.47-1.96-0.89-1.96-2.1c0-1.21,1.01-1.83,2.07-1.83c0.7,0,1.27,0.22,1.7,0.56v0.77c-0.58-0.46-1.05-0.7-1.7-0.7
		c-0.8,0-1.35,0.48-1.35,1.21c0,0.68,0.41,1.02,1.44,1.38c1.32,0.46,2.02,0.95,2.02,2.19c0,1.31-1.03,1.94-2.32,1.94
		c-0.77,0-1.38-0.22-1.81-0.55V256.2z"/>
	<path class="st0" d="M16.22,250.21c2.05,0,3.68,1.5,3.68,3.68c0,2.18-1.63,3.68-3.68,3.68s-3.68-1.5-3.68-3.68
		C12.54,251.71,14.17,250.21,16.22,250.21z M16.22,250.88c-1.61,0-2.93,1.18-2.93,3.01s1.32,3.01,2.93,3.01s2.93-1.18,2.93-3.01
		S17.83,250.88,16.22,250.88z"/>
	<path class="st0" d="M26.7,251.61c-0.52-0.49-1.22-0.73-1.98-0.73c-1.61,0-2.92,1.18-2.92,3.01s1.31,3.01,2.92,3.01
		c0.75,0,1.5-0.23,2.01-0.71v0.85c-0.56,0.34-1.28,0.53-2,0.53c-2.16,0-3.68-1.5-3.68-3.68c0-2.19,1.63-3.68,3.68-3.68
		c0.72,0,1.39,0.19,1.97,0.54V251.61z"/>
	<path class="st0" d="M28.76,252.35c0.32,0,0.6,0.26,0.6,0.59c0,0.32-0.28,0.6-0.6,0.6c-0.32,0-0.59-0.28-0.59-0.6
		C28.18,252.62,28.44,252.35,28.76,252.35z M28.76,256.37c0.32,0,0.6,0.26,0.6,0.59s-0.28,0.6-0.6,0.6c-0.32,0-0.59-0.28-0.59-0.6
		S28.44,256.37,28.76,256.37z"/>
	<path class="st0" d="M38.64,250.33h0.74v7.12h-0.74v-3.3h-4.39v3.3H33.5v-7.12h0.74v3.17h4.39V250.33z"/>
	<path class="st0" d="M43.53,252.1c1.56,0,2.63,1.12,2.63,2.73c0,1.62-1.07,2.73-2.63,2.73c-1.56,0-2.63-1.12-2.63-2.73
		C40.91,253.22,41.98,252.1,43.53,252.1z M43.53,252.73c-1.1,0-1.89,0.84-1.89,2.11c0,1.27,0.79,2.11,1.89,2.11
		c1.1,0,1.9-0.84,1.9-2.11C45.43,253.57,44.64,252.73,43.53,252.73z"/>
	<path class="st0" d="M47.26,256.34c0.44,0.4,0.9,0.62,1.47,0.62c0.66,0,1.08-0.25,1.08-0.84c0-0.62-0.46-0.79-1.28-1.07
		c-0.92-0.31-1.32-0.7-1.32-1.54c0-0.92,0.7-1.42,1.64-1.42c0.52,0,1.02,0.11,1.43,0.4v0.78c-0.41-0.34-0.83-0.56-1.43-0.56
		c-0.58,0-0.95,0.31-0.95,0.8c0,0.48,0.29,0.73,1.09,0.98c0.91,0.28,1.52,0.62,1.52,1.57c0,1.03-0.8,1.5-1.79,1.5
		c-0.59,0-1.15-0.17-1.47-0.42V256.34z"/>
	<path class="st0" d="M51.96,252.44c0.48-0.18,1.15-0.34,1.82-0.34c1.8,0,2.89,0.94,2.89,2.73c0,1.7-1.13,2.73-2.84,2.73
		c-0.42,0-0.88-0.08-1.15-0.22v2.25h-0.72V252.44z M52.68,256.73c0.34,0.14,0.71,0.22,1.15,0.22c1.27,0,2.11-0.78,2.11-2.11
		c0-1.28-0.78-2.07-2.16-2.07c-0.41,0-0.83,0.05-1.1,0.14V256.73z"/>
	<path class="st0" d="M57.9,250.59c0-0.3,0.25-0.54,0.54-0.54c0.3,0,0.54,0.24,0.54,0.54c0,0.29-0.24,0.54-0.54,0.54
		C58.15,251.13,57.9,250.88,57.9,250.59z M58.8,257.45h-0.72v-5.23h0.72V257.45z"/>
	<path class="st0" d="M59.88,252.22h0.8v-1.27h0.72v1.27h1.48v0.61H61.4v3.19c0,0.67,0.26,0.94,0.76,0.94
		c0.34,0,0.61-0.11,0.97-0.29v0.64c-0.31,0.16-0.67,0.26-1.13,0.26c-0.76,0-1.32-0.4-1.32-1.48v-3.26h-0.8V252.22z"/>
	<path class="st0" d="M67.1,253.79c0-0.67-0.43-1.02-1.1-1.02c-0.6,0-1.06,0.17-1.54,0.42v-0.68c0.44-0.24,1.01-0.41,1.62-0.41
		c1.05,0,1.74,0.47,1.74,1.64v3.61c-0.48,0.13-1.04,0.19-1.49,0.19c-1.42,0-2.36-0.44-2.36-1.55c0-1.03,0.95-1.57,2.54-1.57h0.59
		V253.79z M67.1,255.02h-0.54c-1.08,0-1.87,0.29-1.87,0.98c0,0.7,0.72,0.95,1.68,0.95c0.22,0,0.48-0.02,0.73-0.07V255.02z"/>
	<path class="st0" d="M70.26,257.45h-0.72v-8.16h0.72V257.45z"/>
	<path class="st0" d="M71.88,250.59c0-0.3,0.25-0.54,0.54-0.54c0.3,0,0.54,0.24,0.54,0.54c0,0.29-0.24,0.54-0.54,0.54
		C72.13,251.13,71.88,250.88,71.88,250.59z M72.78,257.45h-0.72v-5.23h0.72V257.45z"/>
	<path class="st0" d="M78.18,257.45H74.1v-0.62l3.13-3.99h-2.97v-0.61h3.83v0.62l-3.18,3.99h3.27V257.45z"/>
	<path class="st0" d="M82.19,253.79c0-0.67-0.43-1.02-1.1-1.02c-0.6,0-1.06,0.17-1.54,0.42v-0.68c0.44-0.24,1.01-0.41,1.62-0.41
		c1.05,0,1.74,0.47,1.74,1.64v3.61c-0.48,0.13-1.04,0.19-1.49,0.19c-1.42,0-2.36-0.44-2.36-1.55c0-1.03,0.95-1.57,2.54-1.57h0.59
		V253.79z M82.19,255.02h-0.54c-1.08,0-1.87,0.29-1.87,0.98c0,0.7,0.72,0.95,1.68,0.95c0.22,0,0.48-0.02,0.73-0.07V255.02z"/>
	<path class="st0" d="M83.9,252.22h0.8v-1.27h0.72v1.27h1.48v0.61h-1.48v3.19c0,0.67,0.26,0.94,0.76,0.94
		c0.34,0,0.61-0.11,0.97-0.29v0.64c-0.31,0.16-0.67,0.26-1.13,0.26c-0.76,0-1.32-0.4-1.32-1.48v-3.26h-0.8V252.22z"/>
	<path class="st0" d="M88.24,250.59c0-0.3,0.25-0.54,0.54-0.54c0.3,0,0.54,0.24,0.54,0.54c0,0.29-0.24,0.54-0.54,0.54
		C88.49,251.13,88.24,250.88,88.24,250.59z M89.14,257.45h-0.72v-5.23h0.72V257.45z"/>
	<path class="st0" d="M93.17,252.1c1.56,0,2.63,1.12,2.63,2.73c0,1.62-1.07,2.73-2.63,2.73c-1.56,0-2.63-1.12-2.63-2.73
		C90.54,253.22,91.61,252.1,93.17,252.1z M93.17,252.73c-1.1,0-1.89,0.84-1.89,2.11c0,1.27,0.79,2.11,1.89,2.11
		c1.1,0,1.9-0.84,1.9-2.11C95.06,253.57,94.27,252.73,93.17,252.73z"/>
	<path class="st0" d="M97.2,252.5c0.7-0.25,1.49-0.4,2.2-0.4c1.32,0,2.12,0.52,2.12,1.82v3.53h-0.72v-3.38
		c0-1.07-0.75-1.29-1.46-1.29c-0.55,0-1.04,0.1-1.42,0.19v4.49H97.2V252.5z"/>
	<path class="st0" d="M110.11,256.79l1.31-4.57h0.72l-1.58,5.23h-0.88l-1.26-4.45l-1.26,4.45h-0.88l-1.58-5.23h0.76l1.31,4.57
		l1.29-4.57h0.74L110.11,256.79z"/>
	<path class="st0" d="M112.92,250.59c0-0.3,0.25-0.54,0.54-0.54c0.3,0,0.54,0.24,0.54,0.54c0,0.29-0.24,0.54-0.54,0.54
		C113.17,251.13,112.92,250.88,112.92,250.59z M113.82,257.45h-0.72v-5.23h0.72V257.45z"/>
	<path class="st0" d="M114.9,252.22h0.8v-1.27h0.72v1.27h1.48v0.61h-1.48v3.19c0,0.67,0.26,0.94,0.76,0.94
		c0.34,0,0.61-0.11,0.97-0.29v0.64c-0.31,0.16-0.67,0.26-1.13,0.26c-0.76,0-1.32-0.4-1.32-1.48v-3.26h-0.8V252.22z"/>
	<path class="st0" d="M119.41,249.3h0.72v3.08c0.4-0.14,0.98-0.28,1.54-0.28c1.26,0,2.06,0.52,2.06,1.82v3.53h-0.72v-3.38
		c0-1.07-0.75-1.29-1.46-1.29c-0.55,0-1.06,0.12-1.42,0.24v4.44h-0.72V249.3z"/>
	<path class="st0" d="M129.98,252.1c1.56,0,2.63,1.12,2.63,2.73c0,1.62-1.07,2.73-2.63,2.73c-1.56,0-2.63-1.12-2.63-2.73
		C127.35,253.22,128.42,252.1,129.98,252.1z M129.98,252.73c-1.1,0-1.89,0.84-1.89,2.11c0,1.27,0.79,2.11,1.89,2.11
		c1.1,0,1.9-0.84,1.9-2.11C131.88,253.57,131.08,252.73,129.98,252.73z"/>
	<path class="st0" d="M134.01,252.44c0.48-0.18,1.15-0.34,1.82-0.34c1.8,0,2.89,0.94,2.89,2.73c0,1.7-1.13,2.73-2.84,2.73
		c-0.42,0-0.88-0.08-1.15-0.22v2.25h-0.72V252.44z M134.73,256.73c0.34,0.14,0.71,0.22,1.15,0.22c1.27,0,2.11-0.78,2.11-2.11
		c0-1.28-0.78-2.07-2.16-2.07c-0.41,0-0.83,0.05-1.1,0.14V256.73z"/>
	<path class="st0" d="M139.41,252.22h0.8v-1.27h0.72v1.27h1.48v0.61h-1.48v3.19c0,0.67,0.26,0.94,0.76,0.94
		c0.34,0,0.61-0.11,0.97-0.29v0.64c-0.31,0.16-0.67,0.26-1.13,0.26c-0.76,0-1.32-0.4-1.32-1.48v-3.26h-0.8V252.22z"/>
	<path class="st0" d="M143.75,250.59c0-0.3,0.25-0.54,0.54-0.54c0.3,0,0.54,0.24,0.54,0.54c0,0.29-0.24,0.54-0.54,0.54
		C144,251.13,143.75,250.88,143.75,250.59z M144.65,257.45h-0.72v-5.23h0.72V257.45z"/>
	<path class="st0" d="M153.1,253.95c0-0.97-0.66-1.2-1.22-1.2c-0.62,0-1.22,0.16-1.54,0.3c0.1,0.23,0.16,0.52,0.16,0.86v3.54h-0.72
		v-3.5c0-0.97-0.64-1.2-1.24-1.2c-0.59,0-1.05,0.12-1.38,0.24v4.46h-0.72v-4.89c0.68-0.28,1.4-0.46,2.1-0.46
		c0.61,0,1.08,0.13,1.4,0.41c0.62-0.24,1.3-0.41,1.93-0.41c1.26,0,1.94,0.52,1.94,1.82v3.53h-0.72V253.95z"/>
	<path class="st0" d="M155.39,250.59c0-0.3,0.25-0.54,0.54-0.54c0.3,0,0.54,0.24,0.54,0.54c0,0.29-0.24,0.54-0.54,0.54
		C155.64,251.13,155.39,250.88,155.39,250.59z M156.29,257.45h-0.72v-5.23h0.72V257.45z"/>
	<path class="st0" d="M161.68,257.45h-4.08v-0.62l3.13-3.99h-2.97v-0.61h3.83v0.62l-3.18,3.99h3.27V257.45z"/>
	<path class="st0" d="M163.19,254.87v0.02c0,1.28,0.92,2.04,1.94,2.04c0.74,0,1.26-0.19,1.79-0.59v0.72
		c-0.47,0.35-1.14,0.5-1.79,0.5c-1.51,0-2.66-1.03-2.66-2.73c0-1.57,1.08-2.73,2.48-2.73c1.32,0,2.2,0.79,2.2,2.28v0.49H163.19z
		 M166.42,254.27c-0.05-1.09-0.64-1.54-1.51-1.54c-0.82,0-1.47,0.55-1.68,1.54H166.42z"/>
	<path class="st0" d="M172.93,257.38c-0.56,0.13-1.15,0.19-1.7,0.19c-1.81,0-3.03-0.98-3.03-2.73c0-1.76,1.32-2.73,2.88-2.73
		c0.4,0,0.88,0.08,1.14,0.24v-3.05h0.72V257.38z M172.21,252.99c-0.26-0.14-0.66-0.24-1.14-0.24c-1.21,0-2.15,0.74-2.15,2.09
		c0,1.33,0.92,2.1,2.3,2.1c0.34,0,0.67-0.01,0.98-0.06V252.99z"/>
	<path class="st0" d="M177.74,255.48l-0.74,1.97h-0.77l2.76-7.12h0.95l2.79,7.12h-0.79l-0.74-1.97H177.74z M179.46,250.93
		l-1.49,3.93h2.99L179.46,250.93z"/>
	<path class="st0" d="M183.87,250.3c0.53-0.06,1.02-0.1,1.46-0.1c3.26,0,4.37,1.69,4.37,3.51c0,2-1.16,3.85-4.27,3.85
		c-0.6,0-1.05-0.05-1.56-0.11V250.3z M184.62,256.88c0.29,0.04,0.56,0.05,0.83,0.05c2.04,0,3.48-1.02,3.48-3.19
		c0-1.68-1.07-2.85-3.61-2.85c-0.23,0-0.44,0.01-0.7,0.04V256.88z"/>
	<path class="st0" d="M196.14,253.79c0-0.67-0.43-1.02-1.1-1.02c-0.6,0-1.06,0.17-1.54,0.42v-0.68c0.44-0.24,1.01-0.41,1.62-0.41
		c1.05,0,1.74,0.47,1.74,1.64v3.61c-0.48,0.13-1.04,0.19-1.49,0.19c-1.42,0-2.36-0.44-2.36-1.55c0-1.03,0.95-1.57,2.54-1.57h0.59
		V253.79z M196.14,255.02h-0.54c-1.08,0-1.87,0.29-1.87,0.98c0,0.7,0.72,0.95,1.68,0.95c0.22,0,0.48-0.02,0.73-0.07V255.02z"/>
	<path class="st0" d="M198.57,252.5c0.7-0.25,1.49-0.4,2.2-0.4c1.32,0,2.12,0.52,2.12,1.82v3.53h-0.72v-3.38
		c0-1.07-0.75-1.29-1.46-1.29c-0.55,0-1.04,0.1-1.42,0.19v4.49h-0.72V252.5z"/>
	<path class="st0" d="M208.97,257.38c-0.56,0.13-1.15,0.19-1.7,0.19c-1.81,0-3.03-0.98-3.03-2.73c0-1.76,1.32-2.73,2.88-2.73
		c0.4,0,0.88,0.08,1.14,0.24v-3.05h0.72V257.38z M208.25,252.99c-0.26-0.14-0.66-0.24-1.14-0.24c-1.21,0-2.15,0.74-2.15,2.09
		c0,1.33,0.92,2.1,2.3,2.1c0.34,0,0.67-0.01,0.98-0.06V252.99z"/>
	<path class="st0" d="M7.75,265.44c0.48-0.18,1.15-0.34,1.82-0.34c1.8,0,2.89,0.94,2.89,2.73c0,1.7-1.13,2.73-2.84,2.73
		c-0.42,0-0.88-0.08-1.15-0.22v2.25H7.75V265.44z M8.47,269.73c0.34,0.14,0.71,0.22,1.15,0.22c1.27,0,2.11-0.78,2.11-2.11
		c0-1.28-0.78-2.07-2.16-2.07c-0.41,0-0.83,0.05-1.1,0.14V269.73z"/>
	<path class="st0" d="M13.56,269.34c0.44,0.4,0.9,0.62,1.47,0.62c0.66,0,1.08-0.25,1.08-0.84c0-0.62-0.46-0.79-1.28-1.07
		c-0.92-0.31-1.32-0.7-1.32-1.54c0-0.92,0.7-1.42,1.64-1.42c0.52,0,1.02,0.11,1.43,0.4v0.78c-0.41-0.34-0.83-0.56-1.43-0.56
		c-0.58,0-0.95,0.31-0.95,0.8c0,0.48,0.29,0.73,1.09,0.98c0.91,0.28,1.52,0.62,1.52,1.57c0,1.03-0.8,1.5-1.79,1.5
		c-0.59,0-1.15-0.17-1.47-0.42V269.34z"/>
	<path class="st0" d="M19.91,269.98l1.73-4.76h0.74l-2.83,7.39h-0.71l0.71-1.81l-2.18-5.58h0.79L19.91,269.98z"/>
	<path class="st0" d="M27.16,266.25c-0.44-0.31-0.97-0.49-1.46-0.49c-1.08,0-2.01,0.72-2.01,2.09c0,1.32,0.92,2.06,2.06,2.06
		c0.55,0,1.02-0.18,1.5-0.49v0.76c-0.52,0.26-1.02,0.4-1.57,0.4c-1.46,0-2.72-1.02-2.72-2.73c0-1.75,1.29-2.73,2.71-2.73
		c0.58,0,1.03,0.13,1.5,0.4V266.25z"/>
	<path class="st0" d="M28.62,262.3h0.72v3.08c0.4-0.14,0.98-0.28,1.54-0.28c1.26,0,2.06,0.52,2.06,1.82v3.53h-0.72v-3.38
		c0-1.07-0.75-1.29-1.46-1.29c-0.55,0-1.06,0.12-1.42,0.24v4.44h-0.72V262.3z"/>
	<path class="st0" d="M36.91,265.1c1.56,0,2.63,1.12,2.63,2.73s-1.07,2.73-2.63,2.73c-1.56,0-2.63-1.12-2.63-2.73
		S35.35,265.1,36.91,265.1z M36.91,265.73c-1.1,0-1.89,0.84-1.89,2.11c0,1.27,0.79,2.11,1.89,2.11c1.1,0,1.9-0.84,1.9-2.11
		C38.81,266.57,38.02,265.73,36.91,265.73z"/>
	<path class="st0" d="M40.23,265.22h0.8v-1.27h0.72v1.27h1.48v0.61h-1.48v3.19c0,0.67,0.26,0.94,0.76,0.94
		c0.34,0,0.61-0.11,0.97-0.29v0.64c-0.31,0.16-0.67,0.26-1.13,0.26c-0.76,0-1.32-0.4-1.32-1.48v-3.26h-0.8V265.22z"/>
	<path class="st0" d="M44.74,262.3h0.72v3.08c0.4-0.14,0.98-0.28,1.54-0.28c1.26,0,2.06,0.52,2.06,1.82v3.53h-0.72v-3.38
		c0-1.07-0.75-1.29-1.46-1.29c-0.55,0-1.06,0.12-1.42,0.24v4.44h-0.72V262.3z"/>
	<path class="st0" d="M51.12,267.87v0.02c0,1.28,0.92,2.04,1.94,2.04c0.74,0,1.26-0.19,1.79-0.59v0.72c-0.47,0.35-1.14,0.5-1.79,0.5
		c-1.51,0-2.66-1.03-2.66-2.73c0-1.57,1.08-2.73,2.48-2.73c1.32,0,2.19,0.79,2.19,2.28v0.49H51.12z M54.36,267.27
		c-0.05-1.09-0.64-1.54-1.51-1.54c-0.82,0-1.47,0.55-1.68,1.54H54.36z"/>
	<path class="st0" d="M57.18,270.45h-0.72v-4.75c0.55-0.35,1.22-0.56,1.94-0.56c0.29,0,0.58,0.04,0.88,0.11v0.71
		c-0.31-0.11-0.68-0.13-0.92-0.13c-0.52,0-0.9,0.11-1.18,0.26V270.45z"/>
	<path class="st0" d="M63.01,266.79c0-0.67-0.43-1.02-1.1-1.02c-0.6,0-1.06,0.17-1.54,0.42v-0.68c0.44-0.24,1.01-0.41,1.62-0.41
		c1.05,0,1.74,0.47,1.74,1.64v3.61c-0.48,0.13-1.04,0.19-1.49,0.19c-1.42,0-2.36-0.44-2.36-1.55c0-1.03,0.95-1.57,2.54-1.57h0.59
		V266.79z M63.01,268.02h-0.54c-1.08,0-1.87,0.29-1.87,0.98s0.72,0.95,1.68,0.95c0.22,0,0.48-0.02,0.73-0.07V268.02z"/>
	<path class="st0" d="M65.45,265.44c0.48-0.18,1.15-0.34,1.82-0.34c1.8,0,2.89,0.94,2.89,2.73c0,1.7-1.13,2.73-2.84,2.73
		c-0.42,0-0.88-0.08-1.15-0.22v2.25h-0.72V265.44z M66.17,269.73c0.34,0.14,0.71,0.22,1.15,0.22c1.27,0,2.11-0.78,2.11-2.11
		c0-1.28-0.78-2.07-2.16-2.07c-0.41,0-0.83,0.05-1.1,0.14V269.73z"/>
	<path class="st0" d="M73.27,269.98l1.73-4.76h0.74l-2.83,7.39H72.2l0.71-1.81l-2.18-5.58h0.79L73.27,269.98z"/>
	<path class="st0" d="M77.05,269.49c0,1-0.56,2.04-1.19,2.45h-0.58c0.58-0.6,0.92-1.49,0.92-2.45H77.05z"/>
	<path class="st0" d="M81.58,267.87v0.02c0,1.28,0.92,2.04,1.94,2.04c0.74,0,1.26-0.19,1.79-0.59v0.72c-0.47,0.35-1.14,0.5-1.79,0.5
		c-1.51,0-2.66-1.03-2.66-2.73c0-1.57,1.08-2.73,2.48-2.73c1.32,0,2.2,0.79,2.2,2.28v0.49H81.58z M84.81,267.27
		c-0.05-1.09-0.64-1.54-1.51-1.54c-0.82,0-1.47,0.55-1.68,1.54H84.81z"/>
	<path class="st0" d="M86.92,265.5c0.7-0.25,1.49-0.4,2.2-0.4c1.32,0,2.12,0.52,2.12,1.82v3.53h-0.72v-3.38
		c0-1.07-0.75-1.29-1.46-1.29c-0.55,0-1.04,0.1-1.42,0.19v4.49h-0.72V265.5z"/>
	<path class="st0" d="M92.98,262.3h0.72v3.08c0.4-0.14,0.98-0.28,1.54-0.28c1.26,0,2.06,0.52,2.06,1.82v3.53h-0.72v-3.38
		c0-1.07-0.75-1.29-1.46-1.29c-0.55,0-1.06,0.12-1.42,0.24v4.44h-0.72V262.3z"/>
	<path class="st0" d="M101.75,266.79c0-0.67-0.43-1.02-1.1-1.02c-0.6,0-1.06,0.17-1.54,0.42v-0.68c0.44-0.24,1.01-0.41,1.62-0.41
		c1.06,0,1.74,0.47,1.74,1.64v3.61c-0.48,0.13-1.04,0.19-1.49,0.19c-1.42,0-2.36-0.44-2.36-1.55c0-1.03,0.95-1.57,2.54-1.57h0.59
		V266.79z M101.75,268.02h-0.54c-1.08,0-1.87,0.29-1.87,0.98s0.72,0.95,1.68,0.95c0.22,0,0.48-0.02,0.73-0.07V268.02z"/>
	<path class="st0" d="M104.18,265.5c0.7-0.25,1.49-0.4,2.2-0.4c1.32,0,2.12,0.52,2.12,1.82v3.53h-0.72v-3.38
		c0-1.07-0.75-1.29-1.46-1.29c-0.55,0-1.04,0.1-1.42,0.19v4.49h-0.72V265.5z"/>
	<path class="st0" d="M114.06,266.25c-0.44-0.31-0.97-0.49-1.46-0.49c-1.08,0-2.01,0.72-2.01,2.09c0,1.32,0.92,2.06,2.06,2.06
		c0.55,0,1.02-0.18,1.5-0.49v0.76c-0.52,0.26-1.02,0.4-1.57,0.4c-1.46,0-2.72-1.02-2.72-2.73c0-1.75,1.29-2.73,2.71-2.73
		c0.58,0,1.03,0.13,1.5,0.4V266.25z"/>
	<path class="st0" d="M115.85,267.87v0.02c0,1.28,0.92,2.04,1.94,2.04c0.74,0,1.26-0.19,1.79-0.59v0.72
		c-0.47,0.35-1.14,0.5-1.79,0.5c-1.51,0-2.66-1.03-2.66-2.73c0-1.57,1.08-2.73,2.48-2.73c1.32,0,2.19,0.79,2.19,2.28v0.49H115.85z
		 M119.09,267.27c-0.05-1.09-0.64-1.54-1.51-1.54c-0.82,0-1.47,0.55-1.68,1.54H119.09z"/>
	<path class="st0" d="M125.59,270.38c-0.56,0.13-1.15,0.19-1.7,0.19c-1.81,0-3.03-0.98-3.03-2.73c0-1.76,1.32-2.73,2.88-2.73
		c0.4,0,0.88,0.08,1.14,0.24v-3.05h0.72V270.38z M124.87,265.99c-0.26-0.14-0.66-0.24-1.14-0.24c-1.21,0-2.15,0.74-2.15,2.09
		c0,1.33,0.92,2.1,2.3,2.1c0.34,0,0.67-0.01,0.98-0.06V265.99z"/>
	<path class="st0" d="M129.67,262.3h0.72v3.07c0.23-0.13,0.74-0.26,1.25-0.26c1.57,0,2.75,0.91,2.75,2.71c0,1.69-1.2,2.76-3.01,2.76
		c-0.55,0-1.16-0.1-1.7-0.26V262.3z M130.39,269.82c0.3,0.08,0.65,0.12,0.98,0.12c1.39,0,2.28-0.79,2.28-2.12
		c0-1.34-0.92-2.06-2.01-2.06c-0.54,0-0.95,0.1-1.25,0.24V269.82z"/>
	<path class="st0" d="M137.49,269.98l1.73-4.76h0.74l-2.83,7.39h-0.71l0.71-1.81l-2.18-5.58h0.79L137.49,269.98z"/>
	<path class="st0" d="M142.49,265.22h0.8v-1.27h0.72v1.27h1.48v0.61h-1.48v3.19c0,0.67,0.26,0.94,0.76,0.94
		c0.34,0,0.61-0.11,0.97-0.29v0.64c-0.31,0.16-0.67,0.26-1.13,0.26c-0.76,0-1.32-0.4-1.32-1.48v-3.26h-0.8V265.22z"/>
	<path class="st0" d="M151.57,269.79l1.31-4.57h0.72l-1.58,5.23h-0.88l-1.26-4.45l-1.26,4.45h-0.88l-1.58-5.23h0.76l1.31,4.57
		l1.29-4.57h0.74L151.57,269.79z"/>
	<path class="st0" d="M154.38,263.59c0-0.3,0.25-0.54,0.54-0.54c0.3,0,0.54,0.24,0.54,0.54c0,0.29-0.24,0.54-0.54,0.54
		C154.63,264.13,154.38,263.88,154.38,263.59z M155.28,270.45h-0.72v-5.23h0.72V270.45z"/>
	<path class="st0" d="M160.89,266.25c-0.44-0.31-0.97-0.49-1.46-0.49c-1.08,0-2.01,0.72-2.01,2.09c0,1.32,0.92,2.06,2.06,2.06
		c0.55,0,1.02-0.18,1.5-0.49v0.76c-0.52,0.26-1.02,0.4-1.57,0.4c-1.46,0-2.72-1.02-2.72-2.73c0-1.75,1.29-2.73,2.71-2.73
		c0.58,0,1.03,0.13,1.5,0.4V266.25z"/>
	<path class="st0" d="M162.68,267.87v0.02c0,1.28,0.92,2.04,1.94,2.04c0.74,0,1.26-0.19,1.79-0.59v0.72
		c-0.47,0.35-1.14,0.5-1.79,0.5c-1.51,0-2.66-1.03-2.66-2.73c0-1.57,1.08-2.73,2.48-2.73c1.32,0,2.2,0.79,2.2,2.28v0.49H162.68z
		 M165.92,267.27c-0.05-1.09-0.64-1.54-1.51-1.54c-0.82,0-1.47,0.55-1.68,1.54H165.92z"/>
	<path class="st0" d="M174.87,269.79l1.31-4.57h0.72l-1.58,5.23h-0.88l-1.26-4.45l-1.26,4.45h-0.88l-1.58-5.23h0.76l1.31,4.57
		l1.29-4.57h0.74L174.87,269.79z"/>
	<path class="st0" d="M178.25,267.87v0.02c0,1.28,0.92,2.04,1.94,2.04c0.74,0,1.26-0.19,1.79-0.59v0.72
		c-0.47,0.35-1.14,0.5-1.79,0.5c-1.51,0-2.66-1.03-2.66-2.73c0-1.57,1.08-2.73,2.48-2.73c1.32,0,2.19,0.79,2.19,2.28v0.49H178.25z
		 M181.48,267.27c-0.05-1.09-0.64-1.54-1.51-1.54c-0.82,0-1.47,0.55-1.68,1.54H181.48z"/>
	<path class="st0" d="M183.97,267.87v0.02c0,1.28,0.92,2.04,1.94,2.04c0.74,0,1.26-0.19,1.79-0.59v0.72
		c-0.47,0.35-1.14,0.5-1.79,0.5c-1.51,0-2.66-1.03-2.66-2.73c0-1.57,1.08-2.73,2.48-2.73c1.32,0,2.2,0.79,2.2,2.28v0.49H183.97z
		 M187.21,267.27c-0.05-1.09-0.64-1.54-1.51-1.54c-0.82,0-1.47,0.55-1.68,1.54H187.21z"/>
	<path class="st0" d="M190.03,270.45h-0.72v-8.16h0.72V270.45z M190.06,267.62l2.65-2.4h1.01l-2.71,2.37l2.76,2.85h-0.96
		L190.06,267.62z"/>
	<path class="st0" d="M195.51,270.45h-0.72v-8.16h0.72V270.45z"/>
	<path class="st0" d="M199.02,269.98l1.73-4.76h0.74l-2.83,7.39h-0.71l0.71-1.81l-2.18-5.58h0.79L199.02,269.98z"/>
	<path class="st0" d="M205.94,270.45l-2.05-5.23h0.76l1.7,4.56l1.7-4.56h0.73l-2.05,5.23H205.94z"/>
	<path class="st0" d="M209.56,263.59c0-0.3,0.25-0.54,0.54-0.54c0.3,0,0.54,0.24,0.54,0.54c0,0.29-0.24,0.54-0.54,0.54
		C209.82,264.13,209.56,263.88,209.56,263.59z M210.46,270.45h-0.72v-5.23h0.72V270.45z"/>
	<path class="st0" d="M211.95,269.34c0.44,0.4,0.9,0.62,1.47,0.62c0.66,0,1.08-0.25,1.08-0.84c0-0.62-0.46-0.79-1.28-1.07
		c-0.92-0.31-1.32-0.7-1.32-1.54c0-0.92,0.7-1.42,1.64-1.42c0.52,0,1.02,0.11,1.43,0.4v0.78c-0.41-0.34-0.83-0.56-1.43-0.56
		c-0.58,0-0.95,0.31-0.95,0.8c0,0.48,0.29,0.73,1.09,0.98c0.91,0.28,1.52,0.62,1.52,1.57c0,1.03-0.8,1.5-1.79,1.5
		c-0.59,0-1.15-0.17-1.47-0.42V269.34z"/>
	<path class="st0" d="M216.48,263.59c0-0.3,0.25-0.54,0.54-0.54c0.3,0,0.54,0.24,0.54,0.54c0,0.29-0.24,0.54-0.54,0.54
		C216.73,264.13,216.48,263.88,216.48,263.59z M217.38,270.45h-0.72v-5.23h0.72V270.45z"/>
	<path class="st0" d="M218.46,265.22h0.8v-1.27h0.72v1.27h1.48v0.61h-1.48v3.19c0,0.67,0.26,0.94,0.76,0.94
		c0.34,0,0.61-0.11,0.97-0.29v0.64c-0.31,0.16-0.67,0.26-1.13,0.26c-0.76,0-1.32-0.4-1.32-1.48v-3.26h-0.8V265.22z"/>
	<path class="st0" d="M222.66,269.34c0.44,0.4,0.9,0.62,1.47,0.62c0.66,0,1.08-0.25,1.08-0.84c0-0.62-0.46-0.79-1.28-1.07
		c-0.92-0.31-1.32-0.7-1.32-1.54c0-0.92,0.7-1.42,1.64-1.42c0.52,0,1.02,0.11,1.43,0.4v0.78c-0.41-0.34-0.83-0.56-1.43-0.56
		c-0.58,0-0.95,0.31-0.95,0.8c0,0.48,0.29,0.73,1.09,0.98c0.91,0.28,1.52,0.62,1.52,1.57c0,1.03-0.8,1.5-1.79,1.5
		c-0.59,0-1.15-0.17-1.47-0.42V269.34z"/>
	<path class="st0" d="M12.1,283.38c-0.56,0.13-1.15,0.19-1.7,0.19c-1.81,0-3.03-0.98-3.03-2.73c0-1.76,1.32-2.73,2.88-2.73
		c0.4,0,0.88,0.08,1.14,0.24v-3.05h0.72V283.38z M11.38,278.99c-0.26-0.14-0.66-0.24-1.14-0.24c-1.21,0-2.15,0.74-2.15,2.09
		c0,1.33,0.92,2.1,2.3,2.1c0.34,0,0.67-0.01,0.98-0.06V278.99z"/>
	<path class="st0" d="M17.98,283.39c-0.64,0.12-1.28,0.18-1.82,0.18c-1.51,0-2.38-0.52-2.38-1.82v-3.53h0.72v3.49
		c0,0.98,0.78,1.24,1.61,1.24c0.36,0,0.77-0.02,1.15-0.07v-4.65h0.72V283.39z"/>
	<path class="st0" d="M20.5,283.45h-0.72v-4.75c0.55-0.35,1.22-0.56,1.94-0.56c0.29,0,0.58,0.04,0.88,0.11v0.71
		c-0.31-0.11-0.68-0.13-0.92-0.13c-0.52,0-0.9,0.11-1.18,0.26V283.45z"/>
	<path class="st0" d="M23.56,276.59c0-0.3,0.25-0.54,0.54-0.54c0.3,0,0.54,0.24,0.54,0.54c0,0.29-0.24,0.54-0.54,0.54
		C23.81,277.13,23.56,276.88,23.56,276.59z M24.46,283.45h-0.72v-5.23h0.72V283.45z"/>
	<path class="st0" d="M26.26,278.5c0.7-0.25,1.49-0.4,2.2-0.4c1.32,0,2.12,0.52,2.12,1.82v3.53h-0.72v-3.38
		c0-1.07-0.75-1.29-1.46-1.29c-0.55,0-1.04,0.1-1.42,0.19v4.49h-0.72V278.5z"/>
	<path class="st0" d="M35.91,283.27c-0.18,0.12-0.66,0.23-1.08,0.23c-1.71,0-2.91-0.9-2.91-2.69c0-1.69,1.17-2.71,3.01-2.71
		c0.54,0,1.26,0.14,1.7,0.34v5.07c0,1.6-1.2,2.22-2.4,2.22c-0.64,0-1.24-0.14-1.62-0.32v-0.68c0.46,0.22,1.06,0.4,1.62,0.4
		c0.86,0,1.68-0.42,1.68-1.74V283.27z M35.91,278.92c-0.29-0.1-0.61-0.16-0.98-0.16c-1.45,0-2.29,0.77-2.29,2.05
		c0,1.26,0.84,2.05,2.19,2.05c0.43,0,0.72-0.07,1.08-0.2V278.92z"/>
	<path class="st0" d="M40,278.22h0.8v-1.27h0.72v1.27H43v0.61h-1.48v3.19c0,0.67,0.26,0.94,0.76,0.94c0.34,0,0.61-0.11,0.97-0.29
		v0.64c-0.31,0.16-0.67,0.26-1.13,0.26c-0.76,0-1.32-0.4-1.32-1.48v-3.26H40V278.22z"/>
	<path class="st0" d="M44.51,275.3h0.72v3.08c0.4-0.14,0.98-0.28,1.54-0.28c1.26,0,2.06,0.52,2.06,1.82v3.53h-0.72v-3.38
		c0-1.07-0.75-1.29-1.46-1.29c-0.55,0-1.06,0.12-1.42,0.24v4.44h-0.72V275.3z"/>
	<path class="st0" d="M50.89,280.87v0.02c0,1.28,0.92,2.04,1.94,2.04c0.74,0,1.26-0.19,1.79-0.59v0.72c-0.47,0.35-1.14,0.5-1.79,0.5
		c-1.51,0-2.66-1.03-2.66-2.73c0-1.57,1.08-2.73,2.48-2.73c1.32,0,2.2,0.79,2.2,2.28v0.49H50.89z M54.13,280.27
		c-0.05-1.09-0.64-1.54-1.51-1.54c-0.82,0-1.47,0.55-1.68,1.54H54.13z"/>
	<path class="st0" d="M62.85,283.38c-0.56,0.13-1.15,0.19-1.7,0.19c-1.81,0-3.03-0.98-3.03-2.73c0-1.76,1.32-2.73,2.88-2.73
		c0.4,0,0.88,0.08,1.14,0.24v-3.05h0.72V283.38z M62.13,278.99c-0.26-0.14-0.66-0.24-1.14-0.24c-1.21,0-2.15,0.74-2.15,2.09
		c0,1.33,0.92,2.1,2.3,2.1c0.34,0,0.67-0.01,0.98-0.06V278.99z"/>
	<path class="st0" d="M66.89,278.1c1.56,0,2.63,1.12,2.63,2.73s-1.07,2.73-2.63,2.73c-1.56,0-2.63-1.12-2.63-2.73
		S65.33,278.1,66.89,278.1z M66.89,278.73c-1.1,0-1.89,0.84-1.89,2.11c0,1.27,0.79,2.11,1.89,2.11c1.1,0,1.9-0.84,1.9-2.11
		C68.78,279.57,67.99,278.73,66.89,278.73z"/>
	<path class="st0" d="M75,283.39c-0.64,0.12-1.28,0.18-1.82,0.18c-1.51,0-2.38-0.52-2.38-1.82v-3.53h0.72v3.49
		c0,0.98,0.78,1.24,1.61,1.24c0.36,0,0.77-0.02,1.15-0.07v-4.65H75V283.39z"/>
	<path class="st0" d="M76.8,275.3h0.72v3.07c0.23-0.13,0.74-0.26,1.25-0.26c1.57,0,2.75,0.91,2.75,2.71c0,1.69-1.2,2.76-3.01,2.76
		c-0.55,0-1.16-0.1-1.7-0.26V275.3z M77.52,282.82c0.3,0.08,0.65,0.12,0.98,0.12c1.39,0,2.28-0.79,2.28-2.12
		c0-1.34-0.92-2.06-2.01-2.06c-0.54,0-0.95,0.1-1.25,0.24V282.82z"/>
	<path class="st0" d="M83.64,283.45h-0.72v-8.16h0.72V283.45z"/>
	<path class="st0" d="M85.76,280.87v0.02c0,1.28,0.92,2.04,1.94,2.04c0.74,0,1.26-0.19,1.79-0.59v0.72c-0.47,0.35-1.14,0.5-1.79,0.5
		c-1.51,0-2.66-1.03-2.66-2.73c0-1.57,1.08-2.73,2.48-2.73c1.32,0,2.2,0.79,2.2,2.28v0.49H85.76z M89,280.27
		c-0.05-1.09-0.64-1.54-1.51-1.54c-0.82,0-1.47,0.55-1.68,1.54H89z"/>
	<path class="st0" d="M91.16,280.02h2.58v0.65h-2.58V280.02z"/>
	<path class="st0" d="M95.48,275.3h0.72v3.07c0.23-0.13,0.74-0.26,1.25-0.26c1.57,0,2.75,0.91,2.75,2.71c0,1.69-1.2,2.76-3.01,2.76
		c-0.55,0-1.16-0.1-1.7-0.26V275.3z M96.2,282.82c0.3,0.08,0.65,0.12,0.98,0.12c1.39,0,2.28-0.79,2.28-2.12
		c0-1.34-0.92-2.06-2.01-2.06c-0.54,0-0.95,0.1-1.25,0.24V282.82z"/>
	<path class="st0" d="M102.32,283.45h-0.72v-8.16h0.72V283.45z"/>
	<path class="st0" d="M103.94,276.59c0-0.3,0.25-0.54,0.54-0.54c0.3,0,0.54,0.24,0.54,0.54c0,0.29-0.24,0.54-0.54,0.54
		C104.2,277.13,103.94,276.88,103.94,276.59z M104.84,283.45h-0.72v-5.23h0.72V283.45z"/>
	<path class="st0" d="M106.64,278.5c0.7-0.25,1.49-0.4,2.2-0.4c1.32,0,2.12,0.52,2.12,1.82v3.53h-0.72v-3.38
		c0-1.07-0.75-1.29-1.46-1.29c-0.55,0-1.04,0.1-1.42,0.19v4.49h-0.72V278.5z"/>
	<path class="st0" d="M117.04,283.38c-0.56,0.13-1.15,0.19-1.7,0.19c-1.81,0-3.03-0.98-3.03-2.73c0-1.76,1.32-2.73,2.88-2.73
		c0.4,0,0.88,0.08,1.14,0.24v-3.05h0.72V283.38z M116.32,278.99c-0.26-0.14-0.66-0.24-1.14-0.24c-1.21,0-2.15,0.74-2.15,2.09
		c0,1.33,0.92,2.1,2.3,2.1c0.34,0,0.67-0.01,0.98-0.06V278.99z"/>
	<path class="st0" d="M121.13,278.44c0.48-0.18,1.15-0.34,1.82-0.34c1.8,0,2.89,0.94,2.89,2.73c0,1.7-1.13,2.73-2.84,2.73
		c-0.42,0-0.88-0.08-1.15-0.22v2.25h-0.72V278.44z M121.85,282.73c0.34,0.14,0.71,0.22,1.15,0.22c1.27,0,2.11-0.78,2.11-2.11
		c0-1.28-0.78-2.07-2.16-2.07c-0.41,0-0.83,0.05-1.1,0.14V282.73z"/>
	<path class="st0" d="M127.25,275.3h0.72v3.08c0.4-0.14,0.98-0.28,1.54-0.28c1.26,0,2.06,0.52,2.06,1.82v3.53h-0.72v-3.38
		c0-1.07-0.75-1.29-1.46-1.29c-0.55,0-1.06,0.12-1.42,0.24v4.44h-0.72V275.3z"/>
	<path class="st0" d="M136.02,279.79c0-0.67-0.43-1.02-1.1-1.02c-0.6,0-1.06,0.17-1.54,0.42v-0.68c0.44-0.24,1.01-0.41,1.62-0.41
		c1.05,0,1.74,0.47,1.74,1.64v3.61c-0.48,0.13-1.04,0.19-1.49,0.19c-1.42,0-2.36-0.44-2.36-1.55c0-1.03,0.95-1.57,2.54-1.57h0.59
		V279.79z M136.02,281.02h-0.54c-1.08,0-1.87,0.29-1.87,0.98s0.72,0.95,1.68,0.95c0.22,0,0.48-0.02,0.73-0.07V281.02z"/>
	<path class="st0" d="M138.14,282.34c0.44,0.4,0.9,0.62,1.47,0.62c0.66,0,1.08-0.25,1.08-0.84c0-0.62-0.46-0.79-1.28-1.07
		c-0.92-0.31-1.32-0.7-1.32-1.54c0-0.92,0.7-1.42,1.64-1.42c0.52,0,1.02,0.11,1.43,0.4v0.78c-0.41-0.34-0.83-0.56-1.43-0.56
		c-0.58,0-0.95,0.31-0.95,0.8c0,0.48,0.29,0.73,1.09,0.98c0.91,0.28,1.52,0.62,1.52,1.57c0,1.03-0.8,1.5-1.79,1.5
		c-0.59,0-1.15-0.17-1.47-0.42V282.34z"/>
	<path class="st0" d="M143.11,280.87v0.02c0,1.28,0.92,2.04,1.94,2.04c0.74,0,1.26-0.19,1.79-0.59v0.72
		c-0.47,0.35-1.14,0.5-1.79,0.5c-1.51,0-2.66-1.03-2.66-2.73c0-1.57,1.08-2.73,2.48-2.73c1.32,0,2.19,0.79,2.19,2.28v0.49H143.11z
		 M146.35,280.27c-0.05-1.09-0.64-1.54-1.51-1.54c-0.82,0-1.47,0.55-1.68,1.54H146.35z"/>
	<path class="st0" d="M148.92,282.37c0.32,0,0.6,0.26,0.6,0.59s-0.28,0.6-0.6,0.6c-0.32,0-0.59-0.28-0.59-0.6
		S148.59,282.37,148.92,282.37z"/>
</g>
<g>
	<line class="st15" x1="125.95" y1="202.54" x2="130.36" y2="202.54"/>
	<polygon class="st8" points="129.58,200.78 134.25,202.54 129.58,204.29 	"/>
</g>
<path class="st0" d="M144.19,165.82h96.11c2.83,0,5.13,2.74,5.13,6.11v19.94c0,3.38-2.29,6.11-5.13,6.11h-96.11
	c-2.83,0-5.13-2.74-5.13-6.11v-19.94C139.07,168.55,141.36,165.82,144.19,165.82z"/>
<path class="st14" d="M144.19,207.21h96.11c2.83,0,5.13,2.74,5.13,6.11v19.94c0,3.38-2.29,6.11-5.13,6.11h-96.11
	c-2.83,0-5.13-2.74-5.13-6.11v-19.94C139.07,209.95,141.36,207.21,144.19,207.21z"/>
<path class="st15" d="M139.07,182.79h-2.18c-1.63,0-2.94,1.29-2.94,2.89v33.72c0,1.6,1.32,2.89,2.94,2.89h2.18"/>
<path class="st6" d="M12.44,32.3h107.92c3.09,0,5.59,2.38,5.59,5.32v64.01c0,2.94-2.5,5.32-5.59,5.32H12.44
	c-3.09,0-5.59-2.38-5.59-5.32V37.62C6.85,34.68,9.36,32.3,12.44,32.3z"/>
<g>
	<line class="st15" x1="125.95" y1="69.63" x2="130.36" y2="69.63"/>
	<polygon class="st8" points="129.58,67.87 134.25,69.63 129.58,71.38 	"/>
</g>
<path class="st0" d="M144.19,32.3h96.11c2.83,0,5.13,2.74,5.13,6.11v19.94c0,3.38-2.29,6.11-5.13,6.11h-96.11
	c-2.83,0-5.13-2.74-5.13-6.11V38.41C139.07,35.04,141.36,32.3,144.19,32.3z"/>
<path class="st14" d="M144.19,74.79h96.11c2.83,0,5.13,2.74,5.13,6.11v19.94c0,3.38-2.29,6.11-5.13,6.11h-96.11
	c-2.83,0-5.13-2.74-5.13-6.11V80.91C139.07,77.53,141.36,74.79,144.19,74.79z"/>
<g>
	<path class="st0" d="M17.95,44.85l-0.74,1.97h-0.77l2.76-7.12h0.95l2.79,7.12h-0.79l-0.74-1.97H17.95z M19.67,40.29l-1.49,3.93
		h2.99L19.67,40.29z"/>
	<path class="st0" d="M28.36,46.74c-0.56,0.13-1.15,0.19-1.7,0.19c-1.81,0-3.03-0.98-3.03-2.73c0-1.76,1.32-2.73,2.88-2.73
		c0.4,0,0.88,0.08,1.14,0.24v-3.05h0.72V46.74z M27.65,42.35c-0.26-0.14-0.66-0.24-1.14-0.24c-1.21,0-2.15,0.74-2.15,2.09
		c0,1.33,0.92,2.1,2.3,2.1c0.34,0,0.67-0.01,0.98-0.06V42.35z"/>
	<path class="st0" d="M34.25,46.76c-0.64,0.12-1.28,0.18-1.82,0.18c-1.51,0-2.38-0.52-2.38-1.82v-3.53h0.72v3.49
		c0,0.98,0.78,1.24,1.61,1.24c0.36,0,0.77-0.02,1.15-0.07v-4.65h0.72V46.76z"/>
	<path class="st0" d="M36.77,46.82h-0.72v-8.16h0.72V46.82z"/>
	<path class="st0" d="M37.85,41.59h0.8v-1.27h0.72v1.27h1.48v0.61h-1.48v3.19c0,0.67,0.26,0.94,0.76,0.94
		c0.34,0,0.61-0.11,0.97-0.29v0.64c-0.31,0.16-0.67,0.26-1.13,0.26c-0.76,0-1.32-0.4-1.32-1.48V42.2h-0.8V41.59z"/>
	<path class="st0" d="M42.05,45.7c0.44,0.4,0.9,0.62,1.47,0.62c0.66,0,1.08-0.25,1.08-0.84c0-0.62-0.46-0.79-1.28-1.07
		C42.4,44.11,42,43.72,42,42.88c0-0.92,0.7-1.42,1.64-1.42c0.52,0,1.02,0.11,1.43,0.4v0.78c-0.41-0.34-0.83-0.56-1.43-0.56
		c-0.57,0-0.95,0.31-0.95,0.8c0,0.48,0.29,0.73,1.09,0.98c0.91,0.28,1.52,0.62,1.52,1.57c0,1.03-0.8,1.5-1.79,1.5
		c-0.59,0-1.15-0.17-1.47-0.42V45.7z"/>
	<path class="st0" d="M53.6,46.16l1.31-4.57h0.72l-1.58,5.23h-0.88l-1.26-4.45l-1.26,4.45h-0.88l-1.58-5.23h0.76l1.31,4.57
		l1.29-4.57h0.74L53.6,46.16z"/>
	<path class="st0" d="M56.41,39.96c0-0.3,0.25-0.54,0.54-0.54c0.3,0,0.54,0.24,0.54,0.54c0,0.29-0.24,0.54-0.54,0.54
		C56.66,40.5,56.41,40.24,56.41,39.96z M57.31,46.82h-0.72v-5.23h0.72V46.82z"/>
	<path class="st0" d="M58.39,41.59h0.8v-1.27h0.72v1.27h1.48v0.61h-1.48v3.19c0,0.67,0.26,0.94,0.76,0.94
		c0.34,0,0.61-0.11,0.97-0.29v0.64c-0.31,0.16-0.67,0.26-1.13,0.26c-0.76,0-1.32-0.4-1.32-1.48V42.2h-0.8V41.59z"/>
	<path class="st0" d="M62.9,38.66h0.72v3.08c0.39-0.14,0.98-0.28,1.54-0.28c1.26,0,2.06,0.52,2.06,1.82v3.53H66.5v-3.38
		c0-1.07-0.75-1.29-1.46-1.29c-0.55,0-1.05,0.12-1.41,0.24v4.44H62.9V38.66z"/>
	<path class="st0" d="M74.49,46.82l-1.96-6.42l-1.09,6.42h-0.72L72,39.69h1l1.94,6.37l1.94-6.37h1l1.27,7.12H78.4l-1.09-6.42
		l-1.95,6.42H74.49z"/>
	<path class="st0" d="M80.55,39.67c0.53-0.06,1.02-0.1,1.46-0.1c3.26,0,4.37,1.69,4.37,3.51c0,2-1.16,3.85-4.27,3.85
		c-0.6,0-1.05-0.05-1.56-0.11V39.67z M81.3,46.24c0.29,0.04,0.56,0.05,0.83,0.05c2.04,0,3.48-1.02,3.48-3.19
		c0-1.68-1.07-2.85-3.61-2.85c-0.23,0-0.44,0.01-0.7,0.04V46.24z"/>
	<path class="st0" d="M87.95,39.67c0.53-0.06,1.02-0.1,1.46-0.1c3.26,0,4.37,1.69,4.37,3.51c0,2-1.16,3.85-4.27,3.85
		c-0.6,0-1.05-0.05-1.56-0.11V39.67z M88.69,46.24c0.29,0.04,0.56,0.05,0.83,0.05c2.04,0,3.48-1.02,3.48-3.19
		c0-1.68-1.07-2.85-3.61-2.85c-0.23,0-0.45,0.01-0.7,0.04V46.24z"/>
	<path class="st0" d="M102.07,46.16l1.31-4.57h0.72l-1.58,5.23h-0.88l-1.26-4.45l-1.26,4.45h-0.88l-1.58-5.23h0.76l1.31,4.57
		l1.29-4.57h0.74L102.07,46.16z"/>
	<path class="st0" d="M105.06,38.66h0.72v3.08c0.4-0.14,0.98-0.28,1.54-0.28c1.26,0,2.06,0.52,2.06,1.82v3.53h-0.72v-3.38
		c0-1.07-0.76-1.29-1.46-1.29c-0.55,0-1.06,0.12-1.42,0.24v4.44h-0.72V38.66z"/>
	<path class="st0" d="M113.35,41.47c1.56,0,2.63,1.12,2.63,2.73s-1.07,2.73-2.63,2.73s-2.63-1.12-2.63-2.73
		S111.79,41.47,113.35,41.47z M113.35,42.09c-1.1,0-1.89,0.84-1.89,2.11c0,1.27,0.79,2.11,1.89,2.11s1.89-0.84,1.89-2.11
		C115.24,42.93,114.45,42.09,113.35,42.09z"/>
	<path class="st0" d="M23.14,51.66h0.72v3.08c0.4-0.14,0.98-0.28,1.54-0.28c1.26,0,2.06,0.52,2.06,1.82v3.53h-0.72v-3.38
		c0-1.07-0.76-1.29-1.46-1.29c-0.55,0-1.06,0.12-1.42,0.24v4.44h-0.72V51.66z"/>
	<path class="st0" d="M31.91,56.16c0-0.67-0.43-1.02-1.1-1.02c-0.6,0-1.05,0.17-1.54,0.42v-0.68c0.44-0.24,1.01-0.41,1.62-0.41
		c1.05,0,1.74,0.47,1.74,1.64v3.61c-0.48,0.13-1.04,0.19-1.49,0.19c-1.42,0-2.36-0.44-2.36-1.55c0-1.03,0.95-1.57,2.54-1.57h0.59
		V56.16z M31.91,57.38h-0.54c-1.08,0-1.87,0.29-1.87,0.98s0.72,0.95,1.68,0.95c0.22,0,0.48-0.02,0.73-0.07V57.38z"/>
	<path class="st0" d="M35.55,59.82l-2.05-5.23h0.76l1.7,4.56l1.7-4.56h0.73l-2.05,5.23H35.55z"/>
	<path class="st0" d="M39.68,57.24v0.02c0,1.28,0.92,2.04,1.94,2.04c0.74,0,1.26-0.19,1.79-0.59v0.72c-0.47,0.35-1.14,0.5-1.79,0.5
		c-1.51,0-2.66-1.03-2.66-2.73c0-1.57,1.08-2.73,2.48-2.73c1.32,0,2.19,0.79,2.19,2.28v0.49H39.68z M42.92,56.64
		c-0.05-1.09-0.63-1.54-1.51-1.54c-0.81,0-1.47,0.55-1.68,1.54H42.92z"/>
	<path class="st0" d="M50.01,56.16c0-0.67-0.43-1.02-1.1-1.02c-0.6,0-1.05,0.17-1.54,0.42v-0.68c0.44-0.24,1.01-0.41,1.62-0.41
		c1.05,0,1.74,0.47,1.74,1.64v3.61c-0.48,0.13-1.04,0.19-1.49,0.19c-1.42,0-2.36-0.44-2.36-1.55c0-1.03,0.95-1.57,2.54-1.57h0.59
		V56.16z M50.01,57.38h-0.54c-1.08,0-1.87,0.29-1.87,0.98s0.72,0.95,1.68,0.95c0.22,0,0.48-0.02,0.73-0.07V57.38z"/>
	<path class="st0" d="M56.27,55.62c-0.44-0.31-0.97-0.49-1.46-0.49c-1.08,0-2.02,0.72-2.02,2.09c0,1.32,0.92,2.06,2.06,2.06
		c0.55,0,1.02-0.18,1.5-0.49v0.76c-0.52,0.26-1.02,0.4-1.57,0.4c-1.46,0-2.72-1.02-2.72-2.73c0-1.75,1.29-2.73,2.71-2.73
		c0.58,0,1.03,0.13,1.5,0.4V55.62z"/>
	<path class="st0" d="M57.07,54.59h0.8v-1.27h0.72v1.27h1.47v0.61H58.6v3.19c0,0.67,0.26,0.94,0.76,0.94c0.34,0,0.61-0.11,0.97-0.29
		v0.64c-0.31,0.16-0.67,0.26-1.13,0.26c-0.76,0-1.32-0.4-1.32-1.48V55.2h-0.8V54.59z"/>
	<path class="st0" d="M61.4,52.96c0-0.3,0.25-0.54,0.54-0.54c0.3,0,0.54,0.24,0.54,0.54c0,0.29-0.24,0.54-0.54,0.54
		C61.66,53.5,61.4,53.24,61.4,52.96z M62.3,59.82h-0.72v-5.23h0.72V59.82z"/>
	<path class="st0" d="M65.31,59.82l-2.05-5.23h0.76l1.7,4.56l1.7-4.56h0.73l-2.05,5.23H65.31z"/>
	<path class="st0" d="M69.44,57.24v0.02c0,1.28,0.92,2.04,1.94,2.04c0.74,0,1.26-0.19,1.79-0.59v0.72c-0.47,0.35-1.14,0.5-1.79,0.5
		c-1.51,0-2.66-1.03-2.66-2.73c0-1.57,1.08-2.73,2.48-2.73c1.32,0,2.2,0.79,2.2,2.28v0.49H69.44z M72.68,56.64
		c-0.05-1.09-0.64-1.54-1.51-1.54c-0.82,0-1.47,0.55-1.68,1.54H72.68z"/>
	<path class="st0" d="M76.75,58.7c0.44,0.4,0.9,0.62,1.47,0.62c0.66,0,1.08-0.25,1.08-0.84c0-0.62-0.46-0.79-1.28-1.07
		c-0.92-0.31-1.32-0.7-1.32-1.54c0-0.92,0.7-1.42,1.64-1.42c0.52,0,1.02,0.11,1.43,0.4v0.78c-0.41-0.34-0.83-0.56-1.43-0.56
		c-0.57,0-0.95,0.31-0.95,0.8c0,0.48,0.29,0.73,1.09,0.98c0.91,0.28,1.52,0.62,1.52,1.57c0,1.03-0.8,1.5-1.79,1.5
		c-0.59,0-1.15-0.17-1.47-0.42V58.7z"/>
	<path class="st0" d="M85.53,59.76c-0.64,0.12-1.28,0.18-1.82,0.18c-1.51,0-2.38-0.52-2.38-1.82v-3.53h0.72v3.49
		c0,0.98,0.78,1.24,1.61,1.24c0.36,0,0.77-0.02,1.15-0.07v-4.65h0.72V59.76z"/>
	<path class="st0" d="M87.15,52.96c0-0.3,0.25-0.54,0.54-0.54c0.3,0,0.54,0.24,0.54,0.54c0,0.29-0.24,0.54-0.54,0.54
		C87.41,53.5,87.15,53.24,87.15,52.96z M88.05,59.82h-0.72v-5.23h0.72V59.82z"/>
	<path class="st0" d="M93.67,55.62c-0.44-0.31-0.97-0.49-1.46-0.49c-1.08,0-2.02,0.72-2.02,2.09c0,1.32,0.92,2.06,2.06,2.06
		c0.55,0,1.02-0.18,1.5-0.49v0.76c-0.52,0.26-1.02,0.4-1.57,0.4c-1.46,0-2.72-1.02-2.72-2.73c0-1.75,1.29-2.73,2.71-2.73
		c0.58,0,1.03,0.13,1.5,0.4V55.62z"/>
	<path class="st0" d="M94.95,52.96c0-0.3,0.25-0.54,0.54-0.54c0.3,0,0.54,0.24,0.54,0.54c0,0.29-0.24,0.54-0.54,0.54
		C95.21,53.5,94.95,53.24,94.95,52.96z M95.85,59.82h-0.72v-5.23h0.72V59.82z"/>
	<path class="st0" d="M102,59.74c-0.56,0.13-1.15,0.19-1.7,0.19c-1.81,0-3.04-0.98-3.04-2.73c0-1.76,1.32-2.73,2.88-2.73
		c0.4,0,0.88,0.08,1.14,0.24v-3.05H102V59.74z M101.27,55.35c-0.26-0.14-0.66-0.24-1.14-0.24c-1.21,0-2.15,0.74-2.15,2.09
		c0,1.33,0.92,2.1,2.3,2.1c0.34,0,0.67-0.01,0.98-0.06V55.35z"/>
	<path class="st0" d="M106.51,56.16c0-0.67-0.43-1.02-1.1-1.02c-0.6,0-1.06,0.17-1.54,0.42v-0.68c0.44-0.24,1.01-0.41,1.62-0.41
		c1.05,0,1.74,0.47,1.74,1.64v3.61c-0.48,0.13-1.04,0.19-1.49,0.19c-1.42,0-2.36-0.44-2.36-1.55c0-1.03,0.95-1.57,2.54-1.57h0.59
		V56.16z M106.51,57.38h-0.54c-1.08,0-1.87,0.29-1.87,0.98s0.72,0.95,1.68,0.95c0.22,0,0.48-0.02,0.73-0.07V57.38z"/>
	<path class="st0" d="M109.67,59.82h-0.72v-8.16h0.72V59.82z"/>
	<path class="st0" d="M21.91,65.96c0-0.3,0.25-0.54,0.54-0.54c0.3,0,0.54,0.24,0.54,0.54c0,0.29-0.24,0.54-0.54,0.54
		C22.16,66.5,21.91,66.24,21.91,65.96z M22.81,72.82h-0.72v-5.23h0.72V72.82z"/>
	<path class="st0" d="M28.95,72.74c-0.56,0.13-1.15,0.19-1.7,0.19c-1.81,0-3.03-0.98-3.03-2.73c0-1.76,1.32-2.73,2.88-2.73
		c0.4,0,0.88,0.08,1.14,0.24v-3.05h0.72V72.74z M28.23,68.35c-0.26-0.14-0.66-0.24-1.14-0.24c-1.21,0-2.15,0.74-2.15,2.09
		c0,1.33,0.92,2.1,2.3,2.1c0.34,0,0.67-0.01,0.98-0.06V68.35z"/>
	<path class="st0" d="M31.07,70.24v0.02c0,1.28,0.92,2.04,1.94,2.04c0.74,0,1.26-0.19,1.79-0.59v0.72c-0.47,0.35-1.14,0.5-1.79,0.5
		c-1.51,0-2.66-1.03-2.66-2.73c0-1.57,1.08-2.73,2.48-2.73c1.32,0,2.19,0.79,2.19,2.28v0.49H31.07z M34.31,69.64
		c-0.05-1.09-0.63-1.54-1.51-1.54c-0.81,0-1.47,0.55-1.68,1.54H34.31z"/>
	<path class="st0" d="M39.19,69.16c0-0.67-0.43-1.02-1.1-1.02c-0.6,0-1.06,0.17-1.54,0.42v-0.68c0.44-0.24,1.01-0.41,1.62-0.41
		c1.05,0,1.74,0.47,1.74,1.64v3.61c-0.48,0.13-1.04,0.19-1.49,0.19c-1.42,0-2.36-0.44-2.36-1.55c0-1.03,0.95-1.57,2.54-1.57h0.59
		V69.16z M39.19,70.38h-0.54c-1.08,0-1.87,0.29-1.87,0.98s0.72,0.95,1.68,0.95c0.22,0,0.48-0.02,0.73-0.07V70.38z"/>
	<path class="st0" d="M40.9,67.59h0.8v-1.27h0.72v1.27h1.47v0.61h-1.47v3.19c0,0.67,0.26,0.94,0.76,0.94c0.34,0,0.61-0.11,0.97-0.29
		v0.64c-0.31,0.16-0.67,0.26-1.13,0.26c-0.76,0-1.32-0.4-1.32-1.48V68.2h-0.8V67.59z"/>
	<path class="st0" d="M45.23,65.96c0-0.3,0.25-0.54,0.54-0.54c0.3,0,0.54,0.24,0.54,0.54c0,0.29-0.24,0.54-0.54,0.54
		C45.49,66.5,45.23,66.24,45.23,65.96z M46.13,72.82h-0.72v-5.23h0.72V72.82z"/>
	<path class="st0" d="M50.16,67.47c1.56,0,2.63,1.12,2.63,2.73s-1.07,2.73-2.63,2.73s-2.63-1.12-2.63-2.73S48.6,67.47,50.16,67.47z
		 M50.16,68.09c-1.1,0-1.89,0.84-1.89,2.11c0,1.27,0.79,2.11,1.89,2.11s1.89-0.84,1.89-2.11C52.06,68.93,51.27,68.09,50.16,68.09z"
		/>
	<path class="st0" d="M54.2,67.86c0.7-0.25,1.49-0.4,2.2-0.4c1.32,0,2.12,0.52,2.12,1.82v3.53h-0.72v-3.38
		c0-1.07-0.75-1.29-1.46-1.29c-0.55,0-1.04,0.1-1.41,0.19v4.49H54.2V67.86z"/>
	<path class="st0" d="M67.11,72.16l1.31-4.57h0.72l-1.58,5.23h-0.88l-1.26-4.45l-1.26,4.45h-0.88l-1.58-5.23h0.76l1.31,4.57
		l1.29-4.57h0.74L67.11,72.16z"/>
	<path class="st0" d="M69.92,65.96c0-0.3,0.25-0.54,0.54-0.54c0.3,0,0.54,0.24,0.54,0.54c0,0.29-0.24,0.54-0.54,0.54
		C70.17,66.5,69.92,66.24,69.92,65.96z M70.82,72.82H70.1v-5.23h0.72V72.82z"/>
	<path class="st0" d="M71.9,67.59h0.8v-1.27h0.72v1.27h1.48v0.61h-1.48v3.19c0,0.67,0.26,0.94,0.76,0.94c0.34,0,0.61-0.11,0.97-0.29
		v0.64c-0.31,0.16-0.67,0.26-1.13,0.26c-0.76,0-1.32-0.4-1.32-1.48V68.2h-0.8V67.59z"/>
	<path class="st0" d="M76.41,64.66h0.72v3.08c0.39-0.14,0.98-0.28,1.54-0.28c1.26,0,2.06,0.52,2.06,1.82v3.53h-0.72v-3.38
		c0-1.07-0.75-1.29-1.46-1.29c-0.55,0-1.05,0.12-1.41,0.24v4.44h-0.72V64.66z"/>
	<path class="st0" d="M84.57,65.96c0-0.3,0.25-0.54,0.54-0.54c0.3,0,0.54,0.24,0.54,0.54c0,0.29-0.24,0.54-0.54,0.54
		C84.82,66.5,84.57,66.24,84.57,65.96z M85.47,72.82h-0.72v-5.23h0.72V72.82z"/>
	<path class="st0" d="M87.27,67.86c0.7-0.25,1.49-0.4,2.2-0.4c1.32,0,2.12,0.52,2.12,1.82v3.53h-0.72v-3.38
		c0-1.07-0.75-1.29-1.46-1.29c-0.55,0-1.04,0.1-1.41,0.19v4.49h-0.72V67.86z"/>
	<path class="st0" d="M92.61,67.59h0.8v-1.27h0.72v1.27h1.47v0.61h-1.47v3.19c0,0.67,0.26,0.94,0.76,0.94
		c0.34,0,0.61-0.11,0.97-0.29v0.64c-0.31,0.16-0.67,0.26-1.13,0.26c-0.76,0-1.32-0.4-1.32-1.48V68.2h-0.8V67.59z"/>
	<path class="st0" d="M97.32,70.24v0.02c0,1.28,0.92,2.04,1.94,2.04c0.74,0,1.26-0.19,1.79-0.59v0.72c-0.47,0.35-1.14,0.5-1.79,0.5
		c-1.51,0-2.66-1.03-2.66-2.73c0-1.57,1.08-2.73,2.48-2.73c1.32,0,2.19,0.79,2.19,2.28v0.49H97.32z M100.56,69.64
		c-0.05-1.09-0.63-1.54-1.51-1.54c-0.81,0-1.47,0.55-1.68,1.54H100.56z"/>
	<path class="st0" d="M102.66,67.86c0.7-0.25,1.49-0.4,2.2-0.4c1.32,0,2.12,0.52,2.12,1.82v3.53h-0.72v-3.38
		c0-1.07-0.75-1.29-1.46-1.29c-0.55,0-1.04,0.1-1.41,0.19v4.49h-0.72V67.86z"/>
	<path class="st0" d="M108,67.59h0.8v-1.27h0.72v1.27H111v0.61h-1.48v3.19c0,0.67,0.26,0.94,0.76,0.94c0.34,0,0.61-0.11,0.97-0.29
		v0.64c-0.31,0.16-0.67,0.26-1.13,0.26c-0.76,0-1.32-0.4-1.32-1.48V68.2H108V67.59z"/>
	<path class="st0" d="M47.28,84.46l-0.49,1.36h-1.88l2.77-7.12h2.15l2.77,7.12h-1.96l-0.48-1.36H47.28z M48.75,80.48l-0.92,2.53
		h1.82L48.75,80.48z"/>
	<path class="st0" d="M53.06,83.68c0.53,0.4,1.16,0.73,1.97,0.73c0.54,0,1.01-0.16,1.01-0.64c0-0.43-0.37-0.59-1.09-0.77
		c-1.48-0.37-2.03-1.04-2.03-2.23c0-1.4,1.07-2.21,2.47-2.21c0.85,0,1.44,0.2,1.97,0.52v1.75c-0.55-0.46-1.16-0.74-1.89-0.74
		c-0.54,0-0.8,0.24-0.8,0.58c0,0.46,0.41,0.6,1.16,0.79c1.46,0.38,1.97,1.07,1.97,2.25c0,1.55-1.23,2.22-2.75,2.22
		c-0.79,0-1.51-0.22-1.98-0.5V83.68z"/>
	<path class="st0" d="M60.62,85.82h-1.79v-7.06c0.6-0.1,1.54-0.18,2.33-0.18c1.76,0,3.02,0.82,3.02,2.63c0,1.86-1.43,2.55-2.93,2.55
		c-0.21,0-0.49-0.01-0.63-0.02V85.82z M60.62,82.21c0.08,0.01,0.34,0.02,0.54,0.02c0.73,0,1.22-0.3,1.22-1.03
		c0-0.76-0.57-1.03-1.22-1.03c-0.14,0-0.4,0.01-0.54,0.04V82.21z"/>
	<path class="st0" d="M66.93,85.82h-1.79v-7.12h1.79V85.82z"/>
	<path class="st0" d="M70.17,85.82h-1.78v-7.09c0.56-0.1,1.51-0.16,2.25-0.16c1.82,0,3.05,0.77,3.05,2.47
		c0,1.02-0.58,1.74-1.28,2.11l1.91,2.66h-2.1l-1.54-2.28h-0.52V85.82z M70.17,82.07h0.44c0.74,0,1.27-0.25,1.27-0.98
		c0-0.72-0.55-0.97-1.22-0.97c-0.14,0-0.39,0.01-0.49,0.02V82.07z"/>
	<path class="st0" d="M79.85,84.24v1.57h-4.8v-7.12h4.71v1.57h-2.95v1.22h2.69v1.54h-2.69v1.22H79.85z"/>
	<path class="st0" d="M80.79,81.93h3.44v1.51h-3.44V81.93z"/>
	<path class="st0" d="M87.16,85.82h-1.79v-7.12h1.79V85.82z"/>
	<path class="st0" d="M56.24,96.97V92.6h1.73v7.12h-1.69l-2.97-4.28v4.28h-1.73V92.6h1.8L56.24,96.97z"/>
	<path class="st0" d="M59.24,94.67h4.54v1.12h-4.54V94.67z M59.24,96.59h4.54v1.12h-4.54V96.59z"/>
	<path class="st0" d="M69.46,98.15v1.57h-4.95v-1.31c1.56-1.36,2.87-2.46,2.87-3.45c0-0.58-0.37-0.84-0.97-0.84
		c-0.58,0-1.31,0.4-1.76,0.79v-1.68c0.56-0.48,1.34-0.76,2.29-0.76c1.31,0,2.35,0.76,2.35,2.16c0,1.34-0.99,2.44-2.45,3.51H69.46z"
		/>
	<path class="st0" d="M75.08,98.15v1.57h-4.95v-1.31c1.56-1.36,2.87-2.46,2.87-3.45c0-0.58-0.37-0.84-0.97-0.84
		c-0.58,0-1.31,0.4-1.76,0.79v-1.68c0.56-0.48,1.34-0.76,2.29-0.76c1.31,0,2.35,0.76,2.35,2.16c0,1.34-0.99,2.44-2.45,3.51H75.08z"
		/>
	<path class="st0" d="M80.55,96.7h0.96v1.39h-0.96v1.63h-1.7v-1.63h-3.33v-1.44l3.35-4.05h1.69V96.7z M77.19,96.7h1.65v-2.06
		L77.19,96.7z"/>
</g>
<path class="st6" d="M12.44,165.82h107.92c3.09,0,5.59,2.35,5.59,5.24v63.07c0,2.9-2.5,5.24-5.59,5.24H12.44
	c-3.09,0-5.59-2.35-5.59-5.24v-63.07C6.85,168.16,9.36,165.82,12.44,165.82z"/>
<g>
	<path class="st1" d="M149.55,43.57c0-0.85,0.57-1.42,1.19-1.63c-0.56-0.29-0.94-0.86-0.94-1.61c0-1.31,1.03-2.05,2.27-2.05
		c1.26,0,2.26,0.74,2.26,2.05c0,0.74-0.36,1.32-0.91,1.61c0.59,0.22,1.18,0.78,1.18,1.63c0,1.31-1.13,2.08-2.52,2.08
		C150.68,45.64,149.55,44.88,149.55,43.57z M152.86,43.48c0-0.47-0.32-0.77-0.79-0.77c-0.47,0-0.79,0.3-0.79,0.77
		c0,0.44,0.32,0.73,0.79,0.73C152.54,44.22,152.86,43.93,152.86,43.48z M152.78,40.43c0-0.44-0.3-0.71-0.71-0.71
		s-0.71,0.26-0.71,0.71c0,0.46,0.3,0.72,0.71,0.72S152.78,40.88,152.78,40.43z"/>
	<path class="st1" d="M160.13,42.5h0.96v1.39h-0.96v1.63h-1.7v-1.63h-3.33v-1.44l3.35-4.05h1.69V42.5z M156.77,42.5h1.65v-2.06
		L156.77,42.5z"/>
	<path class="st1" d="M170.76,42.24c0-0.42-0.12-0.74-0.68-0.74c-0.3,0-0.6,0.07-0.81,0.18c0.04,0.08,0.08,0.23,0.08,0.44v3.41h-1.7
		v-3.29c0-0.42-0.13-0.74-0.67-0.74c-0.26,0-0.44,0.04-0.72,0.11v3.92h-1.7v-5.04c0.77-0.29,1.7-0.48,2.52-0.48
		c0.63,0,1.18,0.17,1.5,0.43c0.43-0.22,0.95-0.43,1.78-0.43c1.28,0,2.12,0.49,2.12,2.16v3.36h-1.7V42.24z"/>
	<path class="st1" d="M177.11,45.27c-0.18,0.1-0.55,0.17-0.96,0.17c-1.58,0-2.69-0.95-2.69-2.69c0-1.7,1.14-2.75,3.01-2.75
		c0.94,0,1.7,0.18,2.34,0.43v4.95c0,1.92-1.57,2.41-2.78,2.41c-0.67,0-1.29-0.13-1.91-0.42v-1.57c0.71,0.42,1.21,0.56,1.91,0.56
		c0.63,0,1.08-0.35,1.08-0.98V45.27z M177.11,41.58c-0.15-0.06-0.39-0.1-0.63-0.1c-0.78,0-1.28,0.4-1.28,1.27
		c0,0.8,0.49,1.27,1.19,1.27c0.3,0,0.52-0.06,0.73-0.13V41.58z"/>
	<path class="st1" d="M182.24,43.39c0.53,0.4,1.16,0.73,1.97,0.73c0.54,0,1.01-0.16,1.01-0.64c0-0.43-0.37-0.59-1.09-0.77
		c-1.48-0.37-2.03-1.04-2.03-2.23c0-1.4,1.07-2.21,2.47-2.21c0.85,0,1.44,0.2,1.97,0.52v1.75c-0.55-0.46-1.16-0.74-1.89-0.74
		c-0.54,0-0.8,0.24-0.8,0.58c0,0.46,0.41,0.6,1.16,0.79c1.46,0.38,1.97,1.07,1.97,2.25c0,1.55-1.23,2.22-2.75,2.22
		c-0.79,0-1.51-0.22-1.98-0.5V43.39z"/>
	<path class="st1" d="M189.8,45.52h-1.79v-7.06c0.6-0.1,1.54-0.18,2.33-0.18c1.76,0,3.02,0.82,3.02,2.63c0,1.86-1.43,2.55-2.93,2.55
		c-0.21,0-0.49-0.01-0.63-0.02V45.52z M189.8,41.91c0.08,0.01,0.34,0.02,0.54,0.02c0.73,0,1.22-0.3,1.22-1.03
		c0-0.76-0.57-1.03-1.22-1.03c-0.14,0-0.4,0.01-0.54,0.04V41.91z"/>
	<path class="st1" d="M196.1,45.52h-1.78v-7.09c0.56-0.1,1.51-0.16,2.26-0.16c1.82,0,3.04,0.77,3.04,2.47
		c0,1.02-0.57,1.74-1.28,2.11l1.91,2.66h-2.1l-1.54-2.28h-0.52V45.52z M196.1,41.78h0.44c0.74,0,1.27-0.25,1.27-0.98
		c0-0.72-0.55-0.97-1.22-0.97c-0.14,0-0.4,0.01-0.49,0.02V41.78z"/>
	<path class="st1" d="M202.51,44.17l-0.49,1.36h-1.88l2.77-7.12h2.15l2.77,7.12h-1.96l-0.48-1.36H202.51z M203.97,40.19l-0.92,2.53
		h1.82L203.97,40.19z"/>
	<path class="st1" d="M209.75,45.52l-2.65-7.12h1.92l1.84,5.31l1.81-5.31h1.91l-2.65,7.12H209.75z"/>
	<path class="st1" d="M216.23,44.17l-0.49,1.36h-1.88l2.77-7.12h2.15l2.77,7.12h-1.96l-0.48-1.36H216.23z M217.7,40.19l-0.92,2.53
		h1.82L217.7,40.19z"/>
	<path class="st1" d="M224.92,45.52h-1.78v-5.55h-2.13V38.4h6.04v1.57h-2.13V45.52z"/>
	<path class="st1" d="M231.09,38.28c2.06,0,3.72,1.51,3.72,3.68s-1.65,3.68-3.72,3.68s-3.71-1.51-3.71-3.68
		S229.03,38.28,231.09,38.28z M231.09,39.89c-1.08,0-1.87,0.83-1.87,2.07c0,1.25,0.79,2.07,1.87,2.07c1.09,0,1.87-0.83,1.87-2.07
		C232.96,40.71,232.18,39.89,231.09,39.89z"/>
	<path class="st1" d="M160.78,55.63V54.4h1.66v-1.65h1.23v1.65h1.66v1.24h-1.66v1.66h-1.23v-1.66H160.78z"/>
	<path class="st1" d="M166.27,56.39c0.53,0.4,1.16,0.73,1.97,0.73c0.54,0,1.01-0.16,1.01-0.64c0-0.43-0.37-0.59-1.09-0.77
		c-1.47-0.37-2.03-1.04-2.03-2.23c0-1.4,1.07-2.21,2.47-2.21c0.85,0,1.44,0.2,1.97,0.52v1.75c-0.55-0.46-1.16-0.74-1.89-0.74
		c-0.54,0-0.8,0.24-0.8,0.58c0,0.46,0.41,0.6,1.16,0.79c1.46,0.38,1.97,1.07,1.97,2.25c0,1.55-1.24,2.22-2.75,2.22
		c-0.79,0-1.51-0.22-1.98-0.5V56.39z"/>
	<path class="st1" d="M175.4,51.28c2.06,0,3.72,1.51,3.72,3.68s-1.65,3.68-3.72,3.68s-3.71-1.51-3.71-3.68S173.34,51.28,175.4,51.28
		z M175.4,52.89c-1.08,0-1.87,0.83-1.87,2.07c0,1.25,0.79,2.07,1.87,2.07c1.09,0,1.87-0.83,1.87-2.07
		C177.27,53.71,176.49,52.89,175.4,52.89z"/>
	<path class="st1" d="M185.56,53.64c-0.44-0.44-1.1-0.76-1.93-0.76c-1.17,0-1.85,0.86-1.85,2.07c0,1.26,0.77,2.07,1.92,2.07
		c0.85,0,1.38-0.25,2-0.74v1.82c-0.7,0.42-1.36,0.53-2.09,0.53c-2.24,0-3.67-1.52-3.67-3.68c0-2.17,1.46-3.68,3.67-3.68
		c0.73,0,1.37,0.12,1.94,0.46V53.64z"/>
	<path class="st1" d="M191.52,60.18c-1.28-1.21-2.06-3.12-2.06-4.91c0-1.79,0.78-3.71,2.06-4.91h1.86
		c-1.49,1.48-2.24,3.23-2.24,4.91c0,1.68,0.76,3.43,2.24,4.91H191.52z"/>
	<path class="st1" d="M194.24,53.51c0.78-0.31,1.85-0.5,2.69-0.5c1.41,0,2.35,0.52,2.35,2.22v3.3h-1.7V55.3
		c0-0.43-0.18-0.77-0.77-0.77c-0.28,0-0.6,0.04-0.86,0.13v3.86h-1.7V53.51z"/>
	<path class="st1" d="M200.47,53.47h4.54v1.12h-4.54V53.47z M200.47,55.39h4.54v1.12h-4.54V55.39z"/>
	<path class="st1" d="M205.81,51.78l3.05-0.49v7.23h-1.76v-5.29l-1.28,0.16V51.78z"/>
	<path class="st1" d="M209.79,51.78l3.05-0.49v7.23h-1.76v-5.29l-1.28,0.16V51.78z"/>
	<path class="st1" d="M218.84,56.95v1.57h-4.95v-1.31c1.56-1.36,2.87-2.46,2.87-3.45c0-0.58-0.37-0.84-0.97-0.84
		c-0.58,0-1.31,0.4-1.76,0.79v-1.68c0.56-0.48,1.34-0.76,2.29-0.76c1.31,0,2.35,0.76,2.35,2.16c0,1.34-1,2.43-2.45,3.51H218.84z"/>
	<path class="st1" d="M221.12,50.37c1.29,1.2,2.06,3.12,2.06,4.91c0,1.79-0.78,3.69-2.06,4.91h-1.86c1.49-1.48,2.24-3.23,2.24-4.91
		c0-1.68-0.76-3.43-2.24-4.91H221.12z"/>
</g>
<g>
	<path class="st1" d="M171.35,88.02h-1.79v-7.06c0.6-0.1,1.54-0.18,2.33-0.18c1.76,0,3.02,0.82,3.02,2.63
		c0,1.86-1.43,2.55-2.93,2.55c-0.22,0-0.49-0.01-0.64-0.02V88.02z M171.35,84.41c0.08,0.01,0.34,0.02,0.54,0.02
		c0.73,0,1.22-0.3,1.22-1.03c0-0.76-0.58-1.03-1.22-1.03c-0.14,0-0.4,0.01-0.54,0.04V84.41z"/>
	<path class="st1" d="M175.88,80.96c0.56-0.1,1.51-0.19,2.18-0.19c1.58,0,2.84,0.5,2.84,2.03c0,0.83-0.58,1.39-1.27,1.52
		c0.92,0.1,1.62,0.68,1.62,1.7c0,1.35-1.04,2.09-3.44,2.09c-0.67,0-1.45-0.07-1.93-0.14V80.96z M177.59,83.75h0.52
		c0.74,0,1.04-0.28,1.04-0.79c0-0.47-0.37-0.68-0.91-0.68c-0.22,0-0.52,0.02-0.65,0.05V83.75z M177.59,86.63
		c0.16,0.01,0.43,0.02,0.56,0.02c0.72,0,1.27-0.18,1.27-0.76c0-0.55-0.41-0.73-1.03-0.73h-0.8V86.63z"/>
	<path class="st1" d="M185.68,80.77c2.06,0,3.72,1.51,3.72,3.68s-1.66,3.68-3.72,3.68s-3.71-1.51-3.71-3.68
		S183.62,80.77,185.68,80.77z M185.68,82.38c-1.08,0-1.87,0.83-1.87,2.07c0,1.25,0.79,2.07,1.87,2.07c1.09,0,1.87-0.83,1.87-2.07
		C187.55,83.21,186.77,82.38,185.68,82.38z"/>
	<path class="st1" d="M190.27,85.13v-1.24h1.66v-1.65h1.24v1.65h1.66v1.24h-1.66v1.66h-1.24v-1.66H190.27z"/>
	<path class="st1" d="M195.75,85.88c0.53,0.4,1.16,0.73,1.97,0.73c0.54,0,1.01-0.16,1.01-0.64c0-0.43-0.37-0.59-1.09-0.77
		c-1.48-0.37-2.03-1.04-2.03-2.23c0-1.4,1.07-2.21,2.47-2.21c0.85,0,1.44,0.2,1.97,0.52v1.75c-0.55-0.46-1.16-0.74-1.89-0.74
		c-0.54,0-0.8,0.24-0.8,0.58c0,0.46,0.41,0.6,1.16,0.79c1.46,0.38,1.97,1.07,1.97,2.25c0,1.55-1.23,2.22-2.75,2.22
		c-0.79,0-1.51-0.22-1.98-0.5V85.88z"/>
	<path class="st1" d="M204.88,80.77c2.06,0,3.72,1.51,3.72,3.68s-1.66,3.68-3.72,3.68s-3.71-1.51-3.71-3.68
		S202.82,80.77,204.88,80.77z M204.88,82.38c-1.08,0-1.87,0.83-1.87,2.07c0,1.25,0.79,2.07,1.87,2.07c1.09,0,1.87-0.83,1.87-2.07
		C206.75,83.21,205.97,82.38,204.88,82.38z"/>
	<path class="st1" d="M215.04,83.13c-0.44-0.44-1.1-0.76-1.93-0.76c-1.17,0-1.85,0.86-1.85,2.07c0,1.26,0.77,2.07,1.92,2.07
		c0.85,0,1.38-0.25,2-0.74v1.82c-0.7,0.42-1.36,0.53-2.09,0.53c-2.24,0-3.67-1.52-3.67-3.68c0-2.17,1.46-3.68,3.67-3.68
		c0.73,0,1.37,0.12,1.94,0.46V83.13z"/>
	<path class="st1" d="M177.45,102.67c-1.28-1.21-2.06-3.12-2.06-4.91c0-1.79,0.78-3.71,2.06-4.91h1.86
		c-1.49,1.48-2.24,3.23-2.24,4.91c0,1.68,0.76,3.43,2.24,4.91H177.45z"/>
	<path class="st1" d="M180.16,96c0.78-0.31,1.85-0.5,2.69-0.5c1.42,0,2.35,0.52,2.35,2.22v3.3h-1.7v-3.23
		c0-0.43-0.18-0.77-0.77-0.77c-0.28,0-0.6,0.04-0.86,0.13v3.86h-1.7V96z"/>
	<path class="st1" d="M186.39,95.97h4.54v1.12h-4.54V95.97z M186.39,97.89h4.54V99h-4.54V97.89z"/>
	<path class="st1" d="M191.73,94.28l3.05-0.49v7.23h-1.76v-5.29l-1.28,0.16V94.28z"/>
	<path class="st1" d="M195.72,94.28l3.05-0.49v7.23H197v-5.29l-1.28,0.16V94.28z"/>
	<path class="st1" d="M204.76,99.45v1.57h-4.95v-1.31c1.56-1.36,2.87-2.46,2.87-3.45c0-0.58-0.37-0.84-0.97-0.84
		c-0.58,0-1.31,0.4-1.76,0.79v-1.68c0.56-0.48,1.34-0.76,2.29-0.76c1.31,0,2.35,0.76,2.35,2.16c0,1.34-1,2.43-2.45,3.51H204.76z"/>
	<path class="st1" d="M207.04,92.86c1.28,1.2,2.06,3.12,2.06,4.91c0,1.79-0.78,3.69-2.06,4.91h-1.86c1.49-1.48,2.24-3.23,2.24-4.91
		c0-1.68-0.75-3.43-2.24-4.91H207.04z"/>
</g>
<g>
	<path class="st1" d="M149.55,176.75c0-0.85,0.58-1.42,1.19-1.63c-0.56-0.29-0.94-0.86-0.94-1.61c0-1.31,1.03-2.05,2.27-2.05
		c1.26,0,2.25,0.74,2.25,2.05c0,0.74-0.36,1.32-0.91,1.61c0.59,0.22,1.18,0.78,1.18,1.63c0,1.31-1.13,2.08-2.52,2.08
		S149.55,178.06,149.55,176.75z M152.86,176.67c0-0.47-0.32-0.77-0.79-0.77s-0.79,0.3-0.79,0.77c0,0.44,0.32,0.73,0.79,0.73
		S152.86,177.11,152.86,176.67z M152.78,173.61c0-0.44-0.3-0.71-0.71-0.71s-0.71,0.26-0.71,0.71c0,0.46,0.3,0.72,0.71,0.72
		S152.78,174.06,152.78,173.61z"/>
	<path class="st1" d="M160.13,175.68h0.96v1.39h-0.96v1.63h-1.7v-1.63h-3.33v-1.44l3.35-4.05h1.69V175.68z M156.77,175.68h1.66
		v-2.06L156.77,175.68z"/>
	<path class="st1" d="M170.76,175.42c0-0.42-0.12-0.74-0.68-0.74c-0.3,0-0.6,0.07-0.82,0.18c0.04,0.08,0.08,0.23,0.08,0.44v3.41
		h-1.7v-3.29c0-0.42-0.13-0.74-0.67-0.74c-0.26,0-0.44,0.04-0.72,0.11v3.92h-1.7v-5.04c0.77-0.29,1.7-0.48,2.52-0.48
		c0.64,0,1.18,0.17,1.5,0.43c0.43-0.22,0.95-0.43,1.78-0.43c1.28,0,2.12,0.49,2.12,2.16v3.36h-1.7V175.42z"/>
	<path class="st1" d="M177.11,178.45c-0.18,0.1-0.55,0.17-0.96,0.17c-1.58,0-2.69-0.95-2.69-2.69c0-1.7,1.14-2.75,3.01-2.75
		c0.94,0,1.7,0.18,2.34,0.43v4.95c0,1.92-1.57,2.41-2.78,2.41c-0.67,0-1.29-0.13-1.91-0.42v-1.57c0.71,0.42,1.21,0.56,1.91,0.56
		c0.64,0,1.08-0.35,1.08-0.98V178.45z M177.11,174.76c-0.16-0.06-0.4-0.1-0.64-0.1c-0.78,0-1.28,0.4-1.28,1.27
		c0,0.8,0.49,1.27,1.19,1.27c0.3,0,0.52-0.06,0.73-0.13V174.76z"/>
	<path class="st1" d="M182.24,176.57c0.53,0.4,1.16,0.73,1.97,0.73c0.54,0,1.01-0.16,1.01-0.64c0-0.43-0.37-0.59-1.09-0.77
		c-1.48-0.37-2.03-1.04-2.03-2.23c0-1.4,1.07-2.21,2.47-2.21c0.85,0,1.44,0.2,1.97,0.52v1.75c-0.55-0.46-1.16-0.74-1.89-0.74
		c-0.54,0-0.8,0.24-0.8,0.58c0,0.46,0.41,0.6,1.16,0.79c1.46,0.38,1.97,1.07,1.97,2.25c0,1.55-1.23,2.22-2.75,2.22
		c-0.79,0-1.51-0.22-1.98-0.5V176.57z"/>
	<path class="st1" d="M189.8,178.71h-1.79v-7.06c0.6-0.1,1.54-0.18,2.33-0.18c1.76,0,3.02,0.82,3.02,2.63
		c0,1.86-1.43,2.55-2.93,2.55c-0.22,0-0.49-0.01-0.64-0.02V178.71z M189.8,175.1c0.08,0.01,0.34,0.02,0.54,0.02
		c0.73,0,1.22-0.3,1.22-1.03c0-0.76-0.58-1.03-1.22-1.03c-0.14,0-0.4,0.01-0.54,0.04V175.1z"/>
	<path class="st1" d="M196.1,178.71h-1.78v-7.09c0.56-0.1,1.51-0.16,2.25-0.16c1.82,0,3.05,0.77,3.05,2.47
		c0,1.02-0.58,1.74-1.28,2.11l1.91,2.66h-2.1l-1.54-2.28h-0.52V178.71z M196.1,174.96h0.44c0.74,0,1.27-0.25,1.27-0.98
		c0-0.72-0.55-0.97-1.22-0.97c-0.14,0-0.4,0.01-0.49,0.02V174.96z"/>
	<path class="st1" d="M202.51,177.35l-0.49,1.36h-1.88l2.77-7.12h2.15l2.77,7.12h-1.96l-0.48-1.36H202.51z M203.97,173.37
		l-0.92,2.53h1.82L203.97,173.37z"/>
	<path class="st1" d="M209.75,178.71l-2.65-7.12h1.92l1.83,5.31l1.81-5.31h1.91l-2.65,7.12H209.75z"/>
	<path class="st1" d="M216.23,177.35l-0.49,1.36h-1.88l2.77-7.12h2.15l2.77,7.12h-1.96l-0.48-1.36H216.23z M217.7,173.37l-0.92,2.53
		h1.82L217.7,173.37z"/>
	<path class="st1" d="M224.92,178.71h-1.78v-5.55h-2.13v-1.57h6.04v1.57h-2.13V178.71z"/>
	<path class="st1" d="M231.09,171.46c2.06,0,3.72,1.51,3.72,3.68s-1.66,3.68-3.72,3.68s-3.71-1.51-3.71-3.68
		S229.03,171.46,231.09,171.46z M231.09,173.07c-1.08,0-1.87,0.83-1.87,2.07c0,1.25,0.79,2.07,1.87,2.07c1.09,0,1.87-0.83,1.87-2.07
		C232.96,173.9,232.18,173.07,231.09,173.07z"/>
	<path class="st1" d="M160.42,190.79v-1.23h1.66v-1.66h1.24v1.66h1.66v1.23h-1.66v1.66h-1.24v-1.66H160.42z"/>
	<path class="st1" d="M165.91,191.55c0.53,0.4,1.16,0.73,1.97,0.73c0.54,0,1.01-0.16,1.01-0.64c0-0.43-0.37-0.59-1.09-0.77
		c-1.48-0.37-2.03-1.04-2.03-2.23c0-1.4,1.07-2.21,2.47-2.21c0.85,0,1.44,0.2,1.97,0.52v1.75c-0.55-0.46-1.16-0.74-1.89-0.74
		c-0.54,0-0.8,0.24-0.8,0.58c0,0.46,0.41,0.6,1.16,0.79c1.46,0.38,1.97,1.07,1.97,2.25c0,1.55-1.23,2.22-2.75,2.22
		c-0.79,0-1.51-0.22-1.98-0.5V191.55z"/>
	<path class="st1" d="M175.04,186.44c2.06,0,3.72,1.51,3.72,3.68s-1.66,3.68-3.72,3.68s-3.71-1.51-3.71-3.68
		S172.98,186.44,175.04,186.44z M175.04,188.05c-1.08,0-1.87,0.83-1.87,2.07c0,1.25,0.79,2.07,1.87,2.07c1.09,0,1.87-0.83,1.87-2.07
		C176.91,188.87,176.13,188.05,175.04,188.05z"/>
	<path class="st1" d="M185.2,188.8c-0.44-0.44-1.1-0.76-1.93-0.76c-1.17,0-1.85,0.86-1.85,2.07c0,1.26,0.77,2.07,1.92,2.07
		c0.85,0,1.38-0.25,2-0.74v1.82c-0.7,0.42-1.36,0.53-2.09,0.53c-2.24,0-3.67-1.52-3.67-3.68c0-2.17,1.46-3.68,3.67-3.68
		c0.73,0,1.37,0.12,1.94,0.46V188.8z"/>
	<path class="st1" d="M191.17,195.34c-1.28-1.21-2.06-3.12-2.06-4.91c0-1.79,0.78-3.71,2.06-4.91h1.86
		c-1.49,1.48-2.24,3.23-2.24,4.91c0,1.68,0.76,3.43,2.24,4.91H191.17z"/>
	<path class="st1" d="M193.88,188.67c0.78-0.31,1.85-0.5,2.69-0.5c1.42,0,2.35,0.52,2.35,2.22v3.3h-1.7v-3.23
		c0-0.43-0.18-0.77-0.77-0.77c-0.28,0-0.6,0.04-0.86,0.13v3.86h-1.7V188.67z"/>
	<path class="st1" d="M200.11,188.63h4.54v1.12h-4.54V188.63z M200.11,190.55h4.54v1.12h-4.54V190.55z"/>
	<path class="st1" d="M205.45,186.94l3.05-0.49v7.23h-1.76v-5.29l-1.28,0.16V186.94z"/>
	<path class="st1" d="M209.43,186.94l3.05-0.49v7.23h-1.76v-5.29l-1.28,0.16V186.94z"/>
	<path class="st1" d="M218.45,190.66h0.96v1.39h-0.96v1.63h-1.7v-1.63h-3.33v-1.44l3.35-4.05h1.69V190.66z M215.09,190.66h1.66
		v-2.06L215.09,190.66z"/>
	<path class="st1" d="M221.48,185.53c1.28,1.2,2.06,3.12,2.06,4.91c0,1.79-0.78,3.69-2.06,4.91h-1.86c1.49-1.48,2.24-3.23,2.24-4.91
		c0-1.68-0.75-3.43-2.24-4.91H221.48z"/>
</g>
<g>
	<path class="st1" d="M171.35,220.1h-1.79v-7.06c0.6-0.1,1.54-0.18,2.33-0.18c1.76,0,3.02,0.82,3.02,2.63
		c0,1.86-1.43,2.55-2.93,2.55c-0.22,0-0.49-0.01-0.64-0.02V220.1z M171.35,216.49c0.08,0.01,0.34,0.02,0.54,0.02
		c0.73,0,1.22-0.3,1.22-1.03c0-0.76-0.58-1.03-1.22-1.03c-0.14,0-0.4,0.01-0.54,0.04V216.49z"/>
	<path class="st1" d="M175.88,213.05c0.56-0.1,1.51-0.19,2.18-0.19c1.58,0,2.84,0.5,2.84,2.03c0,0.83-0.58,1.39-1.27,1.52
		c0.92,0.1,1.62,0.68,1.62,1.7c0,1.35-1.04,2.09-3.44,2.09c-0.67,0-1.45-0.07-1.93-0.14V213.05z M177.59,215.83h0.52
		c0.74,0,1.04-0.28,1.04-0.79c0-0.47-0.37-0.68-0.91-0.68c-0.22,0-0.52,0.02-0.65,0.05V215.83z M177.59,218.71
		c0.16,0.01,0.43,0.02,0.56,0.02c0.72,0,1.27-0.18,1.27-0.76c0-0.55-0.41-0.73-1.03-0.73h-0.8V218.71z"/>
	<path class="st1" d="M185.68,212.86c2.06,0,3.72,1.51,3.72,3.68s-1.66,3.68-3.72,3.68s-3.71-1.51-3.71-3.68
		S183.62,212.86,185.68,212.86z M185.68,214.47c-1.08,0-1.87,0.83-1.87,2.07c0,1.25,0.79,2.07,1.87,2.07c1.09,0,1.87-0.83,1.87-2.07
		C187.55,215.29,186.77,214.47,185.68,214.47z"/>
	<path class="st1" d="M190.27,217.21v-1.24h1.66v-1.65h1.24v1.65h1.66v1.24h-1.66v1.66h-1.24v-1.66H190.27z"/>
	<path class="st1" d="M195.75,217.97c0.53,0.4,1.16,0.73,1.97,0.73c0.54,0,1.01-0.16,1.01-0.64c0-0.43-0.37-0.59-1.09-0.77
		c-1.48-0.37-2.03-1.04-2.03-2.23c0-1.4,1.07-2.21,2.47-2.21c0.85,0,1.44,0.2,1.97,0.52v1.75c-0.55-0.46-1.16-0.74-1.89-0.74
		c-0.54,0-0.8,0.24-0.8,0.58c0,0.46,0.41,0.6,1.16,0.79c1.46,0.38,1.97,1.07,1.97,2.25c0,1.55-1.23,2.22-2.75,2.22
		c-0.79,0-1.51-0.22-1.98-0.5V217.97z"/>
	<path class="st1" d="M204.88,212.86c2.06,0,3.72,1.51,3.72,3.68s-1.66,3.68-3.72,3.68s-3.71-1.51-3.71-3.68
		S202.82,212.86,204.88,212.86z M204.88,214.47c-1.08,0-1.87,0.83-1.87,2.07c0,1.25,0.79,2.07,1.87,2.07c1.09,0,1.87-0.83,1.87-2.07
		C206.75,215.29,205.97,214.47,204.88,214.47z"/>
	<path class="st1" d="M215.04,215.22c-0.44-0.44-1.1-0.76-1.93-0.76c-1.17,0-1.85,0.86-1.85,2.07c0,1.26,0.77,2.07,1.92,2.07
		c0.85,0,1.38-0.25,2-0.74v1.82c-0.7,0.42-1.36,0.53-2.09,0.53c-2.24,0-3.67-1.52-3.67-3.68c0-2.17,1.46-3.68,3.67-3.68
		c0.73,0,1.37,0.12,1.94,0.46V215.22z"/>
	<path class="st1" d="M177.63,236.74c-1.28-1.21-2.06-3.12-2.06-4.91c0-1.79,0.78-3.71,2.06-4.91h1.86
		c-1.49,1.48-2.24,3.23-2.24,4.91c0,1.68,0.76,3.43,2.24,4.91H177.63z"/>
	<path class="st1" d="M180.34,230.07c0.78-0.31,1.85-0.5,2.69-0.5c1.42,0,2.35,0.52,2.35,2.22v3.3h-1.7v-3.23
		c0-0.43-0.18-0.77-0.77-0.77c-0.28,0-0.6,0.04-0.86,0.13v3.86h-1.7V230.07z"/>
	<path class="st1" d="M186.57,230.03h4.54v1.12h-4.54V230.03z M186.57,231.95h4.54v1.12h-4.54V231.95z"/>
	<path class="st1" d="M191.91,228.34l3.05-0.49v7.23h-1.76v-5.29l-1.28,0.16V228.34z"/>
	<path class="st1" d="M195.9,228.34l3.05-0.49v7.23h-1.76v-5.29l-1.28,0.16V228.34z"/>
	<path class="st1" d="M200.19,228.5c0.65-0.49,1.37-0.66,2.09-0.66c1.33,0,2.19,0.68,2.19,1.9c0,0.92-0.49,1.44-1.16,1.75
		c0.84,0.28,1.3,0.83,1.3,1.69c0,1.48-1.33,2.03-2.58,2.03c-0.91,0-1.5-0.23-1.98-0.53v-1.66c0.43,0.37,1.07,0.72,1.82,0.72
		c0.54,0,0.95-0.22,0.95-0.7c0-0.6-0.49-0.79-1.49-0.79v-1.39c0.92,0,1.35-0.32,1.35-0.86c0-0.42-0.3-0.61-0.72-0.61
		c-0.65,0-1.33,0.4-1.78,0.76V228.5z"/>
	<path class="st1" d="M206.86,226.92c1.28,1.2,2.06,3.12,2.06,4.91c0,1.79-0.78,3.69-2.06,4.91H205c1.49-1.48,2.24-3.23,2.24-4.91
		c0-1.68-0.75-3.43-2.24-4.91H206.86z"/>
</g>
<path class="st15" d="M139.07,48.36h-2.18c-1.63,0-2.94,1.29-2.94,2.89V88c0,1.6,1.32,2.89,2.94,2.89h2.18"/>
<g>
	<path class="st0" d="M17.95,177.82l-0.74,1.97h-0.77l2.76-7.12h0.95l2.79,7.12h-0.79l-0.74-1.97H17.95z M19.67,173.26l-1.49,3.93
		h2.99L19.67,173.26z"/>
	<path class="st0" d="M28.37,179.71c-0.56,0.13-1.15,0.19-1.7,0.19c-1.81,0-3.03-0.98-3.03-2.73c0-1.76,1.32-2.73,2.88-2.73
		c0.4,0,0.88,0.08,1.14,0.24v-3.05h0.72V179.71z M27.65,175.32c-0.26-0.14-0.66-0.24-1.14-0.24c-1.21,0-2.15,0.74-2.15,2.09
		c0,1.33,0.92,2.1,2.3,2.1c0.34,0,0.67-0.01,0.98-0.06V175.32z"/>
	<path class="st0" d="M34.25,179.72c-0.64,0.12-1.28,0.18-1.82,0.18c-1.51,0-2.38-0.52-2.38-1.82v-3.53h0.72v3.49
		c0,0.98,0.78,1.24,1.61,1.24c0.36,0,0.77-0.02,1.15-0.07v-4.65h0.72V179.72z"/>
	<path class="st0" d="M36.77,179.78h-0.72v-8.16h0.72V179.78z"/>
	<path class="st0" d="M37.85,174.56h0.8v-1.27h0.72v1.27h1.48v0.61h-1.48v3.19c0,0.67,0.26,0.94,0.76,0.94
		c0.34,0,0.61-0.11,0.97-0.29v0.64c-0.31,0.16-0.67,0.26-1.13,0.26c-0.76,0-1.32-0.4-1.32-1.48v-3.26h-0.8V174.56z"/>
	<path class="st0" d="M42.05,178.67c0.44,0.4,0.9,0.62,1.47,0.62c0.66,0,1.08-0.25,1.08-0.84c0-0.62-0.46-0.79-1.28-1.07
		c-0.92-0.31-1.32-0.7-1.32-1.54c0-0.92,0.7-1.42,1.64-1.42c0.52,0,1.02,0.11,1.43,0.4v0.78c-0.41-0.34-0.83-0.56-1.43-0.56
		c-0.58,0-0.95,0.31-0.95,0.8c0,0.48,0.29,0.73,1.09,0.98c0.91,0.28,1.52,0.62,1.52,1.57c0,1.03-0.8,1.5-1.79,1.5
		c-0.59,0-1.15-0.17-1.47-0.42V178.67z"/>
	<path class="st0" d="M53.6,179.13l1.31-4.57h0.72l-1.58,5.23h-0.88l-1.26-4.45l-1.26,4.45h-0.88l-1.58-5.23h0.76l1.31,4.57
		l1.29-4.57h0.74L53.6,179.13z"/>
	<path class="st0" d="M56.41,172.92c0-0.3,0.25-0.54,0.54-0.54c0.3,0,0.54,0.24,0.54,0.54c0,0.29-0.24,0.54-0.54,0.54
		C56.66,173.46,56.41,173.21,56.41,172.92z M57.31,179.78h-0.72v-5.23h0.72V179.78z"/>
	<path class="st0" d="M58.39,174.56h0.8v-1.27h0.72v1.27h1.48v0.61h-1.48v3.19c0,0.67,0.26,0.94,0.76,0.94
		c0.34,0,0.61-0.11,0.97-0.29v0.64c-0.31,0.16-0.67,0.26-1.13,0.26c-0.76,0-1.32-0.4-1.32-1.48v-3.26h-0.8V174.56z"/>
	<path class="st0" d="M62.9,171.63h0.72v3.08c0.4-0.14,0.98-0.28,1.54-0.28c1.26,0,2.06,0.52,2.06,1.82v3.53H66.5v-3.38
		c0-1.07-0.75-1.29-1.46-1.29c-0.55,0-1.06,0.12-1.42,0.24v4.44H62.9V171.63z"/>
	<path class="st0" d="M74.49,179.78l-1.96-6.42l-1.09,6.42h-0.72l1.27-7.12h1l1.94,6.37l1.94-6.37h1l1.27,7.12H78.4l-1.09-6.42
		l-1.95,6.42H74.49z"/>
	<path class="st0" d="M80.56,172.64c0.53-0.06,1.02-0.1,1.46-0.1c3.26,0,4.37,1.69,4.37,3.51c0,2-1.16,3.85-4.27,3.85
		c-0.6,0-1.05-0.05-1.56-0.11V172.64z M81.3,179.21c0.29,0.04,0.56,0.05,0.83,0.05c2.04,0,3.48-1.02,3.48-3.19
		c0-1.68-1.07-2.85-3.61-2.85c-0.23,0-0.44,0.01-0.7,0.04V179.21z"/>
	<path class="st0" d="M87.95,172.64c0.53-0.06,1.02-0.1,1.46-0.1c3.26,0,4.37,1.69,4.37,3.51c0,2-1.16,3.85-4.27,3.85
		c-0.6,0-1.05-0.05-1.56-0.11V172.64z M88.69,179.21c0.29,0.04,0.56,0.05,0.83,0.05c2.04,0,3.48-1.02,3.48-3.19
		c0-1.68-1.07-2.85-3.61-2.85c-0.23,0-0.44,0.01-0.7,0.04V179.21z"/>
	<path class="st0" d="M102.07,179.13l1.31-4.57h0.72l-1.58,5.23h-0.88l-1.26-4.45l-1.26,4.45h-0.88l-1.58-5.23h0.76l1.31,4.57
		l1.29-4.57h0.74L102.07,179.13z"/>
	<path class="st0" d="M105.06,171.63h0.72v3.08c0.4-0.14,0.98-0.28,1.54-0.28c1.26,0,2.06,0.52,2.06,1.82v3.53h-0.72v-3.38
		c0-1.07-0.75-1.29-1.46-1.29c-0.55,0-1.06,0.12-1.42,0.24v4.44h-0.72V171.63z"/>
	<path class="st0" d="M113.35,174.44c1.56,0,2.63,1.12,2.63,2.73s-1.07,2.73-2.63,2.73c-1.56,0-2.63-1.12-2.63-2.73
		S111.79,174.44,113.35,174.44z M113.35,175.06c-1.1,0-1.89,0.84-1.89,2.11c0,1.27,0.79,2.11,1.89,2.11c1.1,0,1.9-0.84,1.9-2.11
		C115.24,175.9,114.45,175.06,113.35,175.06z"/>
	<path class="st0" d="M23.14,183.63h0.72v3.08c0.4-0.14,0.98-0.28,1.54-0.28c1.26,0,2.06,0.52,2.06,1.82v3.53h-0.72v-3.38
		c0-1.07-0.75-1.29-1.46-1.29c-0.55,0-1.06,0.12-1.42,0.24v4.44h-0.72V183.63z"/>
	<path class="st0" d="M31.91,188.13c0-0.67-0.43-1.02-1.1-1.02c-0.6,0-1.06,0.17-1.54,0.42v-0.68c0.44-0.24,1.01-0.41,1.62-0.41
		c1.05,0,1.74,0.47,1.74,1.64v3.61c-0.48,0.13-1.04,0.19-1.49,0.19c-1.42,0-2.36-0.44-2.36-1.55c0-1.03,0.95-1.57,2.54-1.57h0.59
		V188.13z M31.91,189.35h-0.54c-1.08,0-1.87,0.29-1.87,0.98s0.72,0.95,1.68,0.95c0.22,0,0.48-0.02,0.73-0.07V189.35z"/>
	<path class="st0" d="M35.56,191.78l-2.05-5.23h0.76l1.7,4.56l1.7-4.56h0.73l-2.05,5.23H35.56z"/>
	<path class="st0" d="M39.68,189.21v0.02c0,1.28,0.92,2.04,1.94,2.04c0.74,0,1.26-0.19,1.79-0.59v0.72c-0.47,0.35-1.14,0.5-1.79,0.5
		c-1.51,0-2.66-1.03-2.66-2.73c0-1.57,1.08-2.73,2.48-2.73c1.32,0,2.19,0.79,2.19,2.28v0.49H39.68z M42.92,188.61
		c-0.05-1.09-0.64-1.54-1.51-1.54c-0.82,0-1.47,0.55-1.68,1.54H42.92z"/>
	<path class="st0" d="M50.01,188.13c0-0.67-0.43-1.02-1.1-1.02c-0.6,0-1.06,0.17-1.54,0.42v-0.68c0.44-0.24,1.01-0.41,1.62-0.41
		c1.05,0,1.74,0.47,1.74,1.64v3.61c-0.48,0.13-1.04,0.19-1.49,0.19c-1.42,0-2.36-0.44-2.36-1.55c0-1.03,0.95-1.57,2.54-1.57h0.59
		V188.13z M50.01,189.35h-0.54c-1.08,0-1.87,0.29-1.87,0.98s0.72,0.95,1.68,0.95c0.22,0,0.48-0.02,0.73-0.07V189.35z"/>
	<path class="st0" d="M56.27,187.59c-0.44-0.31-0.97-0.49-1.46-0.49c-1.08,0-2.01,0.72-2.01,2.09c0,1.32,0.92,2.06,2.06,2.06
		c0.55,0,1.02-0.18,1.5-0.49v0.76c-0.52,0.26-1.02,0.4-1.57,0.4c-1.46,0-2.72-1.02-2.72-2.73c0-1.75,1.29-2.73,2.71-2.73
		c0.58,0,1.03,0.13,1.5,0.4V187.59z"/>
	<path class="st0" d="M57.07,186.56h0.8v-1.27h0.72v1.27h1.48v0.61H58.6v3.19c0,0.67,0.26,0.94,0.76,0.94
		c0.34,0,0.61-0.11,0.97-0.29v0.64c-0.31,0.16-0.67,0.26-1.13,0.26c-0.76,0-1.32-0.4-1.32-1.48v-3.26h-0.8V186.56z"/>
	<path class="st0" d="M61.4,184.92c0-0.3,0.25-0.54,0.54-0.54c0.3,0,0.54,0.24,0.54,0.54c0,0.29-0.24,0.54-0.54,0.54
		C61.66,185.46,61.4,185.21,61.4,184.92z M62.3,191.78h-0.72v-5.23h0.72V191.78z"/>
	<path class="st0" d="M65.31,191.78l-2.05-5.23h0.76l1.7,4.56l1.7-4.56h0.73l-2.05,5.23H65.31z"/>
	<path class="st0" d="M69.44,189.21v0.02c0,1.28,0.92,2.04,1.94,2.04c0.74,0,1.26-0.19,1.79-0.59v0.72c-0.47,0.35-1.14,0.5-1.79,0.5
		c-1.51,0-2.66-1.03-2.66-2.73c0-1.57,1.08-2.73,2.48-2.73c1.32,0,2.2,0.79,2.2,2.28v0.49H69.44z M72.68,188.61
		c-0.05-1.09-0.64-1.54-1.51-1.54c-0.82,0-1.47,0.55-1.68,1.54H72.68z"/>
	<path class="st0" d="M76.75,190.67c0.44,0.4,0.9,0.62,1.47,0.62c0.66,0,1.08-0.25,1.08-0.84c0-0.62-0.46-0.79-1.28-1.07
		c-0.92-0.31-1.32-0.7-1.32-1.54c0-0.92,0.7-1.42,1.64-1.42c0.52,0,1.02,0.11,1.43,0.4v0.78c-0.41-0.34-0.83-0.56-1.43-0.56
		c-0.58,0-0.95,0.31-0.95,0.8c0,0.48,0.29,0.73,1.09,0.98c0.91,0.28,1.52,0.62,1.52,1.57c0,1.03-0.8,1.5-1.79,1.5
		c-0.59,0-1.15-0.17-1.47-0.42V190.67z"/>
	<path class="st0" d="M85.53,191.72c-0.64,0.12-1.28,0.18-1.82,0.18c-1.51,0-2.38-0.52-2.38-1.82v-3.53h0.72v3.49
		c0,0.98,0.78,1.24,1.61,1.24c0.36,0,0.77-0.02,1.15-0.07v-4.65h0.72V191.72z"/>
	<path class="st0" d="M87.15,184.92c0-0.3,0.25-0.54,0.54-0.54c0.3,0,0.54,0.24,0.54,0.54c0,0.29-0.24,0.54-0.54,0.54
		C87.41,185.46,87.15,185.21,87.15,184.92z M88.05,191.78h-0.72v-5.23h0.72V191.78z"/>
	<path class="st0" d="M93.67,187.59c-0.44-0.31-0.97-0.49-1.46-0.49c-1.08,0-2.01,0.72-2.01,2.09c0,1.32,0.92,2.06,2.06,2.06
		c0.55,0,1.02-0.18,1.5-0.49v0.76c-0.52,0.26-1.02,0.4-1.57,0.4c-1.46,0-2.72-1.02-2.72-2.73c0-1.75,1.29-2.73,2.71-2.73
		c0.58,0,1.03,0.13,1.5,0.4V187.59z"/>
	<path class="st0" d="M94.95,184.92c0-0.3,0.25-0.54,0.54-0.54c0.3,0,0.54,0.24,0.54,0.54c0,0.29-0.24,0.54-0.54,0.54
		C95.21,185.46,94.95,185.21,94.95,184.92z M95.85,191.78h-0.72v-5.23h0.72V191.78z"/>
	<path class="st0" d="M102,191.71c-0.56,0.13-1.15,0.19-1.7,0.19c-1.81,0-3.03-0.98-3.03-2.73c0-1.76,1.32-2.73,2.88-2.73
		c0.4,0,0.88,0.08,1.14,0.24v-3.05H102V191.71z M101.28,187.32c-0.26-0.14-0.66-0.24-1.14-0.24c-1.21,0-2.15,0.74-2.15,2.09
		c0,1.33,0.92,2.1,2.3,2.1c0.34,0,0.67-0.01,0.98-0.06V187.32z"/>
	<path class="st0" d="M106.51,188.13c0-0.67-0.43-1.02-1.1-1.02c-0.6,0-1.06,0.17-1.54,0.42v-0.68c0.44-0.24,1.01-0.41,1.62-0.41
		c1.06,0,1.74,0.47,1.74,1.64v3.61c-0.48,0.13-1.04,0.19-1.49,0.19c-1.42,0-2.36-0.44-2.36-1.55c0-1.03,0.95-1.57,2.54-1.57h0.59
		V188.13z M106.51,189.35h-0.54c-1.08,0-1.87,0.29-1.87,0.98s0.72,0.95,1.68,0.95c0.22,0,0.48-0.02,0.73-0.07V189.35z"/>
	<path class="st0" d="M109.67,191.78h-0.72v-8.16h0.72V191.78z"/>
	<path class="st0" d="M21.91,196.92c0-0.3,0.25-0.54,0.54-0.54c0.3,0,0.54,0.24,0.54,0.54c0,0.29-0.24,0.54-0.54,0.54
		C22.16,197.46,21.91,197.21,21.91,196.92z M22.81,203.78h-0.72v-5.23h0.72V203.78z"/>
	<path class="st0" d="M28.95,203.71c-0.56,0.13-1.15,0.19-1.7,0.19c-1.81,0-3.03-0.98-3.03-2.73c0-1.76,1.32-2.73,2.88-2.73
		c0.4,0,0.88,0.08,1.14,0.24v-3.05h0.72V203.71z M28.23,199.32c-0.26-0.14-0.66-0.24-1.14-0.24c-1.21,0-2.15,0.74-2.15,2.09
		c0,1.33,0.92,2.1,2.3,2.1c0.34,0,0.67-0.01,0.98-0.06V199.32z"/>
	<path class="st0" d="M31.07,201.21v0.02c0,1.28,0.92,2.04,1.94,2.04c0.74,0,1.26-0.19,1.79-0.59v0.72c-0.47,0.35-1.14,0.5-1.79,0.5
		c-1.51,0-2.66-1.03-2.66-2.73c0-1.57,1.08-2.73,2.48-2.73c1.32,0,2.19,0.79,2.19,2.28v0.49H31.07z M34.31,200.61
		c-0.05-1.09-0.64-1.54-1.51-1.54c-0.82,0-1.47,0.55-1.68,1.54H34.31z"/>
	<path class="st0" d="M39.19,200.13c0-0.67-0.43-1.02-1.1-1.02c-0.6,0-1.06,0.17-1.54,0.42v-0.68c0.44-0.24,1.01-0.41,1.62-0.41
		c1.06,0,1.74,0.47,1.74,1.64v3.61c-0.48,0.13-1.04,0.19-1.49,0.19c-1.42,0-2.36-0.44-2.36-1.55c0-1.03,0.95-1.57,2.54-1.57h0.59
		V200.13z M39.19,201.35h-0.54c-1.08,0-1.87,0.29-1.87,0.98s0.72,0.95,1.68,0.95c0.22,0,0.48-0.02,0.73-0.07V201.35z"/>
	<path class="st0" d="M40.9,198.56h0.8v-1.27h0.72v1.27h1.48v0.61h-1.48v3.19c0,0.67,0.26,0.94,0.76,0.94
		c0.34,0,0.61-0.11,0.97-0.29v0.64c-0.31,0.16-0.67,0.26-1.13,0.26c-0.76,0-1.32-0.4-1.32-1.48v-3.26h-0.8V198.56z"/>
	<path class="st0" d="M45.23,196.92c0-0.3,0.25-0.54,0.54-0.54c0.3,0,0.54,0.24,0.54,0.54c0,0.29-0.24,0.54-0.54,0.54
		C45.49,197.46,45.23,197.21,45.23,196.92z M46.13,203.78h-0.72v-5.23h0.72V203.78z"/>
	<path class="st0" d="M50.16,198.44c1.56,0,2.63,1.12,2.63,2.73s-1.07,2.73-2.63,2.73c-1.56,0-2.63-1.12-2.63-2.73
		S48.6,198.44,50.16,198.44z M50.16,199.06c-1.1,0-1.89,0.84-1.89,2.11c0,1.27,0.79,2.11,1.89,2.11c1.1,0,1.9-0.84,1.9-2.11
		C52.06,199.9,51.27,199.06,50.16,199.06z"/>
	<path class="st0" d="M54.2,198.83c0.7-0.25,1.49-0.4,2.2-0.4c1.32,0,2.12,0.52,2.12,1.82v3.53H57.8v-3.38
		c0-1.07-0.75-1.29-1.46-1.29c-0.55,0-1.04,0.1-1.42,0.19v4.49H54.2V198.83z"/>
	<path class="st0" d="M67.11,203.13l1.31-4.57h0.72l-1.58,5.23h-0.88l-1.26-4.45l-1.26,4.45h-0.88l-1.58-5.23h0.76l1.31,4.57
		l1.29-4.57h0.74L67.11,203.13z"/>
	<path class="st0" d="M69.92,196.92c0-0.3,0.25-0.54,0.54-0.54c0.3,0,0.54,0.24,0.54,0.54c0,0.29-0.24,0.54-0.54,0.54
		C70.17,197.46,69.92,197.21,69.92,196.92z M70.82,203.78H70.1v-5.23h0.72V203.78z"/>
	<path class="st0" d="M71.9,198.56h0.8v-1.27h0.72v1.27h1.48v0.61h-1.48v3.19c0,0.67,0.26,0.94,0.76,0.94
		c0.34,0,0.61-0.11,0.97-0.29v0.64c-0.31,0.16-0.67,0.26-1.13,0.26c-0.76,0-1.32-0.4-1.32-1.48v-3.26h-0.8V198.56z"/>
	<path class="st0" d="M76.41,195.63h0.72v3.08c0.4-0.14,0.98-0.28,1.54-0.28c1.26,0,2.06,0.52,2.06,1.82v3.53h-0.72v-3.38
		c0-1.07-0.75-1.29-1.46-1.29c-0.55,0-1.06,0.12-1.42,0.24v4.44h-0.72V195.63z"/>
	<path class="st0" d="M84.57,196.92c0-0.3,0.25-0.54,0.54-0.54c0.3,0,0.54,0.24,0.54,0.54c0,0.29-0.24,0.54-0.54,0.54
		C84.82,197.46,84.57,197.21,84.57,196.92z M85.47,203.78h-0.72v-5.23h0.72V203.78z"/>
	<path class="st0" d="M87.27,198.83c0.7-0.25,1.49-0.4,2.2-0.4c1.32,0,2.12,0.52,2.12,1.82v3.53h-0.72v-3.38
		c0-1.07-0.75-1.29-1.46-1.29c-0.55,0-1.04,0.1-1.42,0.19v4.49h-0.72V198.83z"/>
	<path class="st0" d="M92.61,198.56h0.8v-1.27h0.72v1.27h1.48v0.61h-1.48v3.19c0,0.67,0.26,0.94,0.76,0.94
		c0.34,0,0.61-0.11,0.97-0.29v0.64c-0.31,0.16-0.67,0.26-1.13,0.26c-0.76,0-1.32-0.4-1.32-1.48v-3.26h-0.8V198.56z"/>
	<path class="st0" d="M97.32,201.21v0.02c0,1.28,0.92,2.04,1.94,2.04c0.74,0,1.26-0.19,1.79-0.59v0.72c-0.47,0.35-1.14,0.5-1.79,0.5
		c-1.51,0-2.66-1.03-2.66-2.73c0-1.57,1.08-2.73,2.48-2.73c1.32,0,2.19,0.79,2.19,2.28v0.49H97.32z M100.56,200.61
		c-0.05-1.09-0.64-1.54-1.51-1.54c-0.82,0-1.47,0.55-1.68,1.54H100.56z"/>
	<path class="st0" d="M102.66,198.83c0.7-0.25,1.49-0.4,2.2-0.4c1.32,0,2.12,0.52,2.12,1.82v3.53h-0.72v-3.38
		c0-1.07-0.75-1.29-1.46-1.29c-0.55,0-1.04,0.1-1.42,0.19v4.49h-0.72V198.83z"/>
	<path class="st0" d="M108,198.56h0.8v-1.27h0.72v1.27H111v0.61h-1.48v3.19c0,0.67,0.26,0.94,0.76,0.94c0.34,0,0.61-0.11,0.97-0.29
		v0.64c-0.31,0.16-0.67,0.26-1.13,0.26c-0.76,0-1.32-0.4-1.32-1.48v-3.26H108V198.56z"/>
	<path class="st0" d="M45.66,217.43l-0.49,1.36h-1.88l2.77-7.12h2.15l2.77,7.12h-1.96l-0.48-1.36H45.66z M47.12,213.45l-0.92,2.53
		h1.82L47.12,213.45z"/>
	<path class="st0" d="M51.43,216.65c0.53,0.4,1.16,0.73,1.97,0.73c0.54,0,1.01-0.16,1.01-0.64c0-0.43-0.37-0.59-1.09-0.77
		c-1.48-0.37-2.03-1.04-2.03-2.23c0-1.4,1.07-2.21,2.47-2.21c0.85,0,1.44,0.2,1.97,0.52v1.75c-0.55-0.46-1.16-0.74-1.89-0.74
		c-0.54,0-0.8,0.24-0.8,0.58c0,0.46,0.41,0.6,1.16,0.79c1.46,0.38,1.97,1.07,1.97,2.25c0,1.55-1.24,2.22-2.75,2.22
		c-0.79,0-1.51-0.22-1.98-0.5V216.65z"/>
	<path class="st0" d="M58.99,218.78H57.2v-7.06c0.6-0.1,1.54-0.18,2.33-0.18c1.76,0,3.02,0.82,3.02,2.63c0,1.86-1.43,2.55-2.93,2.55
		c-0.22,0-0.49-0.01-0.64-0.02V218.78z M58.99,215.18c0.08,0.01,0.34,0.02,0.54,0.02c0.73,0,1.22-0.3,1.22-1.03
		c0-0.76-0.58-1.03-1.22-1.03c-0.14,0-0.4,0.01-0.54,0.04V215.18z"/>
	<path class="st0" d="M65.3,218.78h-1.79v-7.12h1.79V218.78z"/>
	<path class="st0" d="M68.54,218.78h-1.78v-7.09c0.56-0.1,1.51-0.16,2.25-0.16c1.82,0,3.05,0.77,3.05,2.47
		c0,1.02-0.58,1.74-1.28,2.11l1.91,2.66h-2.1l-1.54-2.28h-0.52V218.78z M68.54,215.04h0.44c0.74,0,1.27-0.25,1.27-0.98
		c0-0.72-0.55-0.97-1.22-0.97c-0.14,0-0.4,0.01-0.49,0.02V215.04z"/>
	<path class="st0" d="M78.23,217.21v1.57h-4.8v-7.12h4.71v1.57h-2.95v1.22h2.69v1.54h-2.69v1.22H78.23z"/>
	<path class="st0" d="M79.16,214.9h3.44v1.51h-3.44V214.9z"/>
	<path class="st0" d="M85.53,218.78h-1.79v-7.12h1.79V218.78z"/>
	<path class="st0" d="M88.79,218.78H87v-7.12h1.79V218.78z"/>
	<path class="st0" d="M56.83,229.93v-4.37h1.73v7.12h-1.69l-2.97-4.28v4.28h-1.73v-7.12h1.8L56.83,229.93z"/>
	<path class="st0" d="M59.83,227.64h4.54v1.12h-4.54V227.64z M59.83,229.56h4.54v1.12h-4.54V229.56z"/>
	<path class="st0" d="M70.05,231.12v1.57H65.1v-1.31c1.56-1.36,2.87-2.46,2.87-3.45c0-0.58-0.37-0.84-0.97-0.84
		c-0.58,0-1.31,0.4-1.76,0.79v-1.68c0.56-0.48,1.34-0.76,2.29-0.76c1.31,0,2.35,0.76,2.35,2.16c0,1.34-1,2.43-2.45,3.51H70.05z"/>
	<path class="st0" d="M75.67,231.12v1.57h-4.95v-1.31c1.56-1.36,2.87-2.46,2.87-3.45c0-0.58-0.37-0.84-0.97-0.84
		c-0.58,0-1.31,0.4-1.76,0.79v-1.68c0.56-0.48,1.34-0.76,2.29-0.76c1.31,0,2.35,0.76,2.35,2.16c0,1.34-1,2.43-2.45,3.51H75.67z"/>
	<path class="st0" d="M76.13,227.15v-1.58h4.81v1.6l-2.66,5.53h-1.82l2.6-5.54H76.13z"/>
</g>
<g>
	<path class="st13" d="M65.89,116.2c-3.14,0-5.69,2.46-5.69,5.49c0,3.03,2.55,5.49,5.69,5.49c3.14,0,5.69-2.46,5.69-5.49
		C71.58,118.66,69.03,116.2,65.89,116.2L65.89,116.2z"/>
	<path class="st0" d="M75.09,155.95c0,0-8.16,1.31-17.52,0.15v-7.28c0,0,0.45-5.82,6.8-5.82h4.68c0,0,6.04,0.73,6.04,6.26V155.95z"
		/>
	<path class="st16" d="M74.6,138.56c0.02,0,0.04,0,0.06,0C74.64,138.56,74.62,138.56,74.6,138.56z"/>
	<path class="st16" d="M75.72,138.52c0.04,0,0.08-0.01,0.11-0.01C75.79,138.51,75.75,138.52,75.72,138.52z"/>
	<path class="st16" d="M73.12,138.33c0.02,0,0.03,0.01,0.05,0.01C73.16,138.34,73.14,138.34,73.12,138.33z"/>
	<path class="st16" d="M75.31,138.56c0.04,0,0.08-0.01,0.11-0.01C75.39,138.55,75.35,138.56,75.31,138.56z"/>
	<path class="st16" d="M74.35,138.55c0.02,0,0.04,0,0.06,0.01C74.38,138.55,74.36,138.55,74.35,138.55z"/>
	<path class="st16" d="M73.86,138.49c0.01,0,0.03,0.01,0.04,0.01C73.89,138.49,73.87,138.49,73.86,138.49z"/>
	<path class="st16" d="M73.61,138.45c0.01,0,0.03,0.01,0.04,0.01C73.64,138.45,73.63,138.45,73.61,138.45z"/>
	<path class="st16" d="M74.09,138.52c0.02,0,0.04,0.01,0.05,0.01C74.13,138.53,74.11,138.52,74.09,138.52z"/>
	<path class="st16" d="M73.37,138.39c0.01,0,0.03,0.01,0.04,0.01C73.4,138.4,73.38,138.4,73.37,138.39z"/>
	<path class="st16" d="M76.17,138.45c0.01,0,0.03,0,0.04-0.01C76.2,138.45,76.18,138.45,76.17,138.45z"/>
	<path class="st16" d="M77.4,138.1c0,0,0.01,0,0.01,0C77.4,138.1,77.4,138.1,77.4,138.1z"/>
	<path class="st16" d="M76.99,138.25c0.02-0.01,0.04-0.01,0.05-0.02C77.02,138.24,77.01,138.24,76.99,138.25z"/>
	<path class="st16" d="M76.61,138.36c0.01,0,0.01,0,0.02-0.01C76.62,138.35,76.61,138.36,76.61,138.36z"/>
	<path class="st16" d="M68.64,130.19c0,0.01,0,0.01-0.01,0.02C68.64,130.2,68.64,130.19,68.64,130.19z"/>
	<path class="st16" d="M68.77,129.84c0,0.01-0.01,0.01-0.01,0.02C68.77,129.85,68.77,129.85,68.77,129.84z"/>
	<polygon class="st16" points="68.37,131.3 68.37,131.3 68.37,131.3 	"/>
	<path class="st16" d="M73.65,138.45c0.07,0.01,0.13,0.02,0.2,0.03C73.79,138.48,73.72,138.47,73.65,138.45z"/>
	<path class="st16" d="M74.91,138.57c0.13,0,0.27,0,0.4-0.01C75.18,138.57,75.05,138.57,74.91,138.57z"/>
	<path class="st16" d="M72.94,138.28c0.06,0.02,0.12,0.04,0.18,0.05C73.06,138.32,73,138.3,72.94,138.28z"/>
	<path class="st16" d="M75.43,138.55c0.1-0.01,0.19-0.02,0.29-0.03C75.62,138.53,75.52,138.54,75.43,138.55z"/>
	<path class="st16" d="M76.21,138.45c0.13-0.03,0.27-0.06,0.4-0.09C76.48,138.39,76.34,138.42,76.21,138.45z"/>
	<path class="st16" d="M78.15,137.75c-0.24,0.13-0.48,0.24-0.74,0.34C77.66,138,77.91,137.88,78.15,137.75z"/>
	<path class="st16" d="M76.63,138.35c0.12-0.03,0.24-0.07,0.36-0.1C76.87,138.29,76.75,138.32,76.63,138.35z"/>
	<path class="st16" d="M77.04,138.23c0.12-0.04,0.24-0.08,0.35-0.13C77.28,138.15,77.16,138.19,77.04,138.23z"/>
	<path class="st16" d="M75.83,138.51c0.11-0.02,0.23-0.03,0.34-0.05C76.05,138.48,75.94,138.49,75.83,138.51z"/>
	<path class="st16" d="M74.66,138.57c0.09,0,0.17,0,0.26,0C74.83,138.57,74.74,138.57,74.66,138.57z"/>
	<path class="st16" d="M73.41,138.4c0.07,0.01,0.13,0.03,0.2,0.04C73.54,138.43,73.48,138.42,73.41,138.4z"/>
	<path class="st16" d="M73.17,138.35c0.06,0.02,0.13,0.03,0.19,0.05C73.3,138.38,73.24,138.36,73.17,138.35z"/>
	<path class="st16" d="M73.9,138.5c0.06,0.01,0.13,0.02,0.19,0.03C74.03,138.51,73.96,138.51,73.9,138.5z"/>
	<path class="st16" d="M74.4,138.55c0.07,0,0.13,0.01,0.2,0.01C74.53,138.56,74.47,138.56,74.4,138.55z"/>
	<path class="st16" d="M74.15,138.53c0.06,0.01,0.13,0.01,0.2,0.02C74.28,138.54,74.21,138.54,74.15,138.53z"/>
	<path class="st16" d="M68.77,129.86c-0.04,0.11-0.09,0.22-0.12,0.33C68.68,130.08,68.72,129.97,68.77,129.86z"/>
	<path class="st16" d="M68.63,130.21c-0.12,0.35-0.21,0.72-0.27,1.1C68.42,130.93,68.51,130.56,68.63,130.21z"/>
	<path class="st13" d="M61.52,141.71c-1.36-1.3-1.62-3.08-1.67-3.72c-0.84,0.37-1.77,0.58-2.75,0.58c-1.14,0-2.21-0.28-3.15-0.77
		c-5.43,0.87-5.44,5.77-5.44,5.77v7.57c2.31,0.65,6.69,1.19,7.55,1.29v-4.17C56.05,148.27,56.46,143.05,61.52,141.71z"/>
	<path class="st13" d="M75.72,138.52c-0.1,0.01-0.19,0.02-0.29,0.03c-0.04,0-0.08,0.01-0.11,0.01c-0.13,0.01-0.26,0.01-0.4,0.01
		c-0.09,0-0.17,0-0.26,0c-0.02,0-0.04,0-0.06,0c-0.07,0-0.13-0.01-0.2-0.01c-0.02,0-0.04,0-0.06-0.01c-0.07-0.01-0.13-0.01-0.2-0.02
		c-0.02,0-0.04,0-0.05-0.01c-0.07-0.01-0.13-0.02-0.19-0.03c-0.01,0-0.03,0-0.04-0.01c-0.07-0.01-0.14-0.02-0.2-0.03
		c-0.01,0-0.03-0.01-0.04-0.01c-0.07-0.01-0.13-0.03-0.2-0.04c-0.01,0-0.03-0.01-0.04-0.01c-0.07-0.02-0.13-0.03-0.19-0.05
		c-0.02,0-0.03-0.01-0.05-0.01c-0.06-0.02-0.12-0.03-0.18-0.05c0,0-0.01,0-0.01,0c-0.1,0.8-0.46,2.36-1.71,3.5
		c2.1,0.68,5.53,2.48,5.53,7.01v3.65c0.86-0.1,5.24-0.64,7.55-1.29v-7.57c0,0,0-5.09-5.74-5.82h-0.41c0,0,0,0,0,0
		c-0.24,0.13-0.48,0.24-0.74,0.34c0,0-0.01,0-0.01,0c-0.12,0.05-0.23,0.09-0.35,0.13c-0.02,0.01-0.04,0.01-0.05,0.02
		c-0.12,0.04-0.24,0.07-0.36,0.1c-0.01,0-0.01,0-0.02,0.01c-0.13,0.03-0.26,0.06-0.4,0.09c-0.01,0-0.03,0-0.04,0.01L75.72,138.52z"
		/>
	<g>
		<path class="st16" d="M66.22,128.45c-0.15,0-0.3,0.01-0.45,0.02c0.24,0,0.47-0.01,0.71-0.01
			C66.39,128.46,66.31,128.45,66.22,128.45z"/>
		<path class="st13" d="M66.22,130.87c0.76,0,1.49,0.15,2.15,0.41c0.06-0.37,0.14-0.72,0.26-1.07c0-0.01,0-0.01,0.01-0.02
			c0.04-0.11,0.08-0.22,0.12-0.33c0-0.01,0.01-0.01,0.01-0.02c0.09-0.22,0.19-0.43,0.31-0.64c-0.77-0.43-1.66-0.7-2.6-0.74
			c-0.23,0-0.47,0.01-0.71,0.01c-1.01,0.08-1.96,0.41-2.75,0.93c0.32,0.63,0.54,1.33,0.62,2.06
			C64.42,131.08,65.29,130.87,66.22,130.87z"/>
	</g>
	<path class="st13" d="M62.38,132.46c0-0.09,0.01-0.17,0.01-0.26c0-2.66-2.24-4.83-5.01-4.83c-2.76,0-5.01,2.16-5.01,4.83
		c0,2.66,2.24,4.83,5.01,4.83c0.96,0,1.85-0.26,2.61-0.71C60.27,134.76,61.14,133.4,62.38,132.46z"/>
	<path class="st13" d="M74.91,127.37c-2.76,0-5.01,2.16-5.01,4.83c0,0,0,0,0,0c1.49,0.97,2.53,2.52,2.78,4.31
		c0.67,0.32,1.42,0.51,2.22,0.51c2.77,0,5.01-2.16,5.01-4.83C79.92,129.54,77.68,127.37,74.91,127.37z"/>
	<path class="st0" d="M66.33,132.52c-2.76,0-5.01,2.16-5.01,4.83c0,2.66,2.24,4.83,5.01,4.83c2.77,0,5.01-2.16,5.01-4.83
		C71.33,134.68,69.09,132.52,66.33,132.52L66.33,132.52z"/>
</g>
</svg>
