<?xml version="1.0" encoding="utf-8"?>
<!-- Generator: Adobe Illustrator 24.1.3, SVG Export Plug-In . SVG Version: 6.00 Build 0)  -->
<svg version="1.1" id="Layer_1" xmlns="http://www.w3.org/2000/svg" xmlns:xlink="http://www.w3.org/1999/xlink" x="0px" y="0px"
	 viewBox="0 0 205 290.96" style="enable-background:new 0 0 205 290.96;" xml:space="preserve">
<style type="text/css">
	.st0{fill:#00417B;}
	.st1{fill:#FFFFFF;}
	.st2{fill:none;}
	.st3{fill:none;stroke:#00417B;stroke-miterlimit:10;}
	.st4{fill:#FFFFFF;stroke:#00417B;stroke-width:1.2188;stroke-miterlimit:10;}
	.st5{fill:#FFFFFF;stroke:#00417B;stroke-width:1.5;stroke-miterlimit:10;}
	.st6{fill-rule:evenodd;clip-rule:evenodd;fill:none;stroke:#00417B;stroke-miterlimit:10;}
	.st7{fill:none;stroke:#00417B;stroke-width:1.5;stroke-miterlimit:2.613;}
	.st8{fill-rule:evenodd;clip-rule:evenodd;fill:#00417B;}
	.st9{fill-rule:evenodd;clip-rule:evenodd;fill:#868686;}
	.st10{fill:none;stroke:#868686;stroke-miterlimit:2.613;}
	.st11{fill:none;stroke:#00417B;stroke-miterlimit:2.613;}
	.st12{fill:#333333;}
	.st13{fill:none;stroke:#00417B;stroke-width:0.75;stroke-miterlimit:10;}
	.st14{fill:#868686;}
	.st15{fill:none;stroke:#00417B;stroke-miterlimit:8;}
	.st16{fill:#4CA5DD;}
</style>
<path class="st0" d="M185.29,28.5H19.71c-6.07,0-10.98-4.92-10.98-10.98v-2.75c0-6.07,4.92-10.98,10.98-10.98h165.59
	c6.07,0,10.98,4.92,10.98,10.98v2.75C196.28,23.59,191.36,28.5,185.29,28.5z"/>
<g>
	<g>
		<path class="st1" d="M37.09,19.32l-0.55,1.53h-2.12l3.12-8.02h2.42l3.12,8.02h-2.2l-0.54-1.53H37.09z M38.73,14.84l-1.04,2.85
			h2.05L38.73,14.84z"/>
		<path class="st1" d="M43.58,18.44c0.59,0.45,1.31,0.82,2.21,0.82c0.61,0,1.13-0.18,1.13-0.72c0-0.49-0.42-0.66-1.23-0.86
			c-1.66-0.42-2.28-1.17-2.28-2.51c0-1.58,1.2-2.48,2.78-2.48c0.96,0,1.62,0.23,2.21,0.58v1.97c-0.62-0.51-1.31-0.84-2.13-0.84
			c-0.61,0-0.9,0.27-0.9,0.65c0,0.51,0.46,0.68,1.31,0.89c1.65,0.43,2.21,1.2,2.21,2.54c0,1.74-1.39,2.5-3.09,2.5
			c-0.89,0-1.7-0.24-2.23-0.57V18.44z"/>
		<path class="st1" d="M52.09,20.85h-2.01v-7.95c0.67-0.11,1.73-0.2,2.62-0.2c1.99,0,3.4,0.92,3.4,2.96c0,2.09-1.61,2.88-3.29,2.88
			c-0.24,0-0.55-0.01-0.72-0.03V20.85z M52.09,16.78c0.09,0.01,0.38,0.03,0.61,0.03c0.82,0,1.38-0.34,1.38-1.16
			c0-0.85-0.65-1.16-1.38-1.16c-0.16,0-0.45,0.01-0.61,0.04V16.78z"/>
		<path class="st1" d="M59.19,20.85h-2.01v-8.02h2.01V20.85z"/>
		<path class="st1" d="M62.83,20.85h-2v-7.98c0.63-0.11,1.7-0.18,2.54-0.18c2.05,0,3.43,0.86,3.43,2.78c0,1.15-0.65,1.96-1.45,2.38
			l2.15,3h-2.36l-1.73-2.57h-0.58V20.85z M62.83,16.63h0.5c0.84,0,1.43-0.28,1.43-1.11c0-0.81-0.62-1.09-1.38-1.09
			c-0.16,0-0.45,0.01-0.55,0.03V16.63z"/>
		<path class="st1" d="M73.73,19.08v1.77h-5.4v-8.02h5.31v1.77h-3.32v1.38h3.03v1.73h-3.03v1.38H73.73z"/>
		<path class="st1" d="M74.78,16.47h3.88v1.7h-3.88V16.47z"/>
		<path class="st1" d="M81.95,20.85h-2.01v-8.02h2.01V20.85z"/>
		<path class="st1" d="M89.1,16.97c0-0.53-0.47-0.72-1.03-0.72c-0.72,0-1.28,0.22-1.74,0.5v-1.62c0.55-0.32,1.3-0.5,2.09-0.5
			c1.46,0,2.57,0.55,2.57,2.26v3.82c-0.59,0.14-1.62,0.27-2.48,0.27c-1.5,0-2.71-0.45-2.71-1.9c0-1.28,1-1.86,2.66-1.86h0.65V16.97z
			 M89.1,18.38h-0.51c-0.59,0-0.89,0.19-0.89,0.61c0,0.42,0.3,0.62,0.78,0.62c0.16,0,0.43-0.01,0.62-0.05V18.38z"/>
		<path class="st1" d="M92.52,15.2c0.88-0.35,2.08-0.57,3.02-0.57c1.59,0,2.65,0.58,2.65,2.5v3.71h-1.92v-3.63
			c0-0.49-0.2-0.86-0.86-0.86c-0.31,0-0.68,0.04-0.97,0.15v4.35h-1.92V15.2z"/>
		<path class="st1" d="M105.42,20.67c-0.76,0.2-1.77,0.31-2.65,0.31c-2.11,0-3.48-1.11-3.48-3.16c0-1.88,1.22-3.19,3.15-3.19
			c0.41,0,0.81,0.05,1.07,0.16v-3.13h1.92V20.67z M103.51,16.49c-0.24-0.12-0.54-0.18-0.89-0.18c-0.85,0-1.38,0.54-1.38,1.45
			c0,1.03,0.59,1.59,1.61,1.59c0.15,0,0.43-0.01,0.66-0.05V16.49z"/>
		<path class="st1" d="M111.48,19.32l-0.55,1.53h-2.12l3.12-8.02h2.42l3.12,8.02h-2.2l-0.54-1.53H111.48z M113.13,14.84l-1.04,2.85
			h2.05L113.13,14.84z"/>
		<path class="st1" d="M117.98,18.44c0.59,0.45,1.31,0.82,2.21,0.82c0.61,0,1.13-0.18,1.13-0.72c0-0.49-0.42-0.66-1.23-0.86
			c-1.66-0.42-2.28-1.17-2.28-2.51c0-1.58,1.2-2.48,2.78-2.48c0.96,0,1.62,0.23,2.21,0.58v1.97c-0.62-0.51-1.31-0.84-2.13-0.84
			c-0.61,0-0.9,0.27-0.9,0.65c0,0.51,0.46,0.68,1.31,0.89c1.65,0.43,2.21,1.2,2.21,2.54c0,1.74-1.39,2.5-3.09,2.5
			c-0.89,0-1.7-0.24-2.23-0.57V18.44z"/>
		<path class="st1" d="M126.48,20.85h-2.01v-7.95c0.67-0.11,1.73-0.2,2.62-0.2c1.99,0,3.4,0.92,3.4,2.96c0,2.09-1.61,2.88-3.29,2.88
			c-0.24,0-0.55-0.01-0.72-0.03V20.85z M126.48,16.78c0.09,0.01,0.38,0.03,0.61,0.03c0.82,0,1.38-0.34,1.38-1.16
			c0-0.85-0.65-1.16-1.38-1.16c-0.16,0-0.45,0.01-0.61,0.04V16.78z"/>
		<path class="st1" d="M133.58,20.85h-2.01v-8.02h2.01V20.85z"/>
		<path class="st1" d="M137.23,20.85h-2v-7.98c0.63-0.11,1.7-0.18,2.54-0.18c2.05,0,3.43,0.86,3.43,2.78c0,1.15-0.65,1.96-1.45,2.38
			l2.15,3h-2.36l-1.73-2.57h-0.58V20.85z M137.23,16.63h0.5c0.84,0,1.43-0.28,1.43-1.11c0-0.81-0.62-1.09-1.38-1.09
			c-0.16,0-0.45,0.01-0.55,0.03V16.63z"/>
		<path class="st1" d="M148.12,19.08v1.77h-5.4v-8.02h5.31v1.77h-3.32v1.38h3.03v1.73h-3.03v1.38H148.12z"/>
		<path class="st1" d="M149.18,16.47h3.88v1.7h-3.88V16.47z"/>
		<path class="st1" d="M156.34,20.85h-2.01v-8.02h2.01V20.85z"/>
		<path class="st1" d="M160,20.85h-2.01v-8.02H160V20.85z"/>
		<path class="st1" d="M160.99,11.93l2-0.32v4.75h-1.16v-3.47l-0.84,0.1V11.93z"/>
		<path class="st1" d="M163.67,13.8h2.26v0.99h-2.26V13.8z"/>
		<path class="st1" d="M169.67,14.37h0.63v0.91h-0.63v1.07h-1.12v-1.07h-2.19v-0.94l2.2-2.66h1.11V14.37z M167.46,14.37h1.09v-1.35
			L167.46,14.37z"/>
	</g>
</g>
<g>
	<g>
		<path class="st0" d="M35.63,217.81h-0.74v-7.14c0.32-0.05,0.94-0.11,1.36-0.11c1.92,0,2.77,0.89,2.77,2.21
			c0,1.06-0.6,1.83-1.55,2.11l2.36,2.93h-0.92l-2.21-2.76h-1.07V217.81z M35.63,214.44h0.74c1.17,0,1.87-0.55,1.87-1.64
			c0-0.91-0.56-1.58-2.02-1.58c-0.14,0-0.43,0.01-0.6,0.02V214.44z"/>
		<path class="st0" d="M43.56,214.15c0-0.67-0.43-1.02-1.1-1.02c-0.6,0-1.06,0.17-1.54,0.42v-0.68c0.44-0.24,1.01-0.41,1.62-0.41
			c1.05,0,1.74,0.47,1.74,1.64v3.61c-0.48,0.13-1.04,0.19-1.49,0.19c-1.42,0-2.36-0.44-2.36-1.55c0-1.03,0.95-1.57,2.54-1.57h0.59
			V214.15z M43.56,215.38h-0.54c-1.08,0-1.87,0.29-1.87,0.98s0.72,0.95,1.68,0.95c0.22,0,0.48-0.02,0.73-0.07V215.38z"/>
		<path class="st0" d="M46,212.8c0.48-0.18,1.15-0.34,1.82-0.34c1.8,0,2.89,0.94,2.89,2.73c0,1.7-1.13,2.73-2.84,2.73
			c-0.42,0-0.88-0.08-1.15-0.22v2.25H46V212.8z M46.72,217.09c0.34,0.14,0.71,0.22,1.15,0.22c1.27,0,2.11-0.78,2.11-2.11
			c0-1.28-0.78-2.07-2.16-2.07c-0.41,0-0.83,0.05-1.1,0.14V217.09z"/>
		<path class="st0" d="M51.94,210.95c0-0.3,0.25-0.54,0.54-0.54c0.3,0,0.54,0.24,0.54,0.54c0,0.29-0.24,0.54-0.54,0.54
			C52.19,211.49,51.94,211.24,51.94,210.95z M52.84,217.81h-0.72v-5.23h0.72V217.81z"/>
		<path class="st0" d="M58.98,217.74c-0.56,0.13-1.15,0.19-1.7,0.19c-1.81,0-3.03-0.98-3.03-2.73c0-1.76,1.32-2.73,2.88-2.73
			c0.4,0,0.88,0.08,1.14,0.24v-3.05h0.72V217.74z M58.26,213.35c-0.26-0.14-0.66-0.24-1.14-0.24c-1.21,0-2.15,0.74-2.15,2.09
			c0,1.33,0.92,2.1,2.3,2.1c0.34,0,0.67-0.01,0.98-0.06V213.35z"/>
		<path class="st0" d="M63.78,217.81h-0.72v-4.75c0.55-0.35,1.22-0.56,1.94-0.56c0.29,0,0.58,0.04,0.88,0.11v0.71
			c-0.31-0.11-0.68-0.13-0.92-0.13c-0.52,0-0.9,0.11-1.18,0.26V217.81z"/>
		<path class="st0" d="M67.17,215.23v0.02c0,1.28,0.92,2.04,1.94,2.04c0.74,0,1.26-0.19,1.79-0.59v0.72
			c-0.47,0.35-1.14,0.5-1.79,0.5c-1.51,0-2.66-1.03-2.66-2.73c0-1.57,1.08-2.73,2.48-2.73c1.32,0,2.2,0.79,2.2,2.28v0.49H67.17z
			 M70.41,214.63c-0.05-1.09-0.64-1.54-1.51-1.54c-0.82,0-1.47,0.55-1.68,1.54H70.41z"/>
		<path class="st0" d="M76.91,217.74c-0.56,0.13-1.15,0.19-1.7,0.19c-1.81,0-3.03-0.98-3.03-2.73c0-1.76,1.32-2.73,2.88-2.73
			c0.4,0,0.88,0.08,1.14,0.24v-3.05h0.72V217.74z M76.19,213.35c-0.26-0.14-0.66-0.24-1.14-0.24c-1.21,0-2.15,0.74-2.15,2.09
			c0,1.33,0.92,2.1,2.3,2.1c0.34,0,0.67-0.01,0.98-0.06V213.35z"/>
		<path class="st0" d="M82.79,217.75c-0.64,0.12-1.28,0.18-1.82,0.18c-1.51,0-2.38-0.52-2.38-1.82v-3.53h0.72v3.49
			c0,0.98,0.78,1.24,1.61,1.24c0.36,0,0.77-0.02,1.15-0.07v-4.65h0.72V217.75z"/>
		<path class="st0" d="M88.4,213.61c-0.44-0.31-0.97-0.49-1.46-0.49c-1.08,0-2.01,0.72-2.01,2.09c0,1.32,0.92,2.06,2.06,2.06
			c0.55,0,1.02-0.18,1.5-0.49v0.76c-0.52,0.26-1.02,0.4-1.57,0.4c-1.46,0-2.72-1.02-2.72-2.73c0-1.75,1.29-2.73,2.71-2.73
			c0.58,0,1.03,0.13,1.5,0.4V213.61z"/>
		<path class="st0" d="M89.21,212.58h0.8v-1.27h0.72v1.27h1.48v0.61h-1.48v3.19c0,0.67,0.26,0.94,0.76,0.94
			c0.34,0,0.61-0.11,0.97-0.29v0.64c-0.31,0.16-0.67,0.26-1.13,0.26c-0.76,0-1.32-0.4-1.32-1.48v-3.26h-0.8V212.58z"/>
		<path class="st0" d="M93.54,210.95c0-0.3,0.25-0.54,0.54-0.54c0.3,0,0.54,0.24,0.54,0.54c0,0.29-0.24,0.54-0.54,0.54
			C93.79,211.49,93.54,211.24,93.54,210.95z M94.44,217.81h-0.72v-5.23h0.72V217.81z"/>
		<path class="st0" d="M98.47,212.46c1.56,0,2.63,1.12,2.63,2.73s-1.07,2.73-2.63,2.73c-1.56,0-2.63-1.12-2.63-2.73
			S96.91,212.46,98.47,212.46z M98.47,213.09c-1.1,0-1.89,0.84-1.89,2.11c0,1.27,0.79,2.11,1.89,2.11c1.1,0,1.9-0.84,1.9-2.11
			C100.37,213.93,99.58,213.09,98.47,213.09z"/>
		<path class="st0" d="M102.51,212.86c0.7-0.25,1.49-0.4,2.2-0.4c1.32,0,2.12,0.52,2.12,1.82v3.53h-0.72v-3.38
			c0-1.07-0.75-1.29-1.46-1.29c-0.55,0-1.04,0.1-1.42,0.19v4.49h-0.72V212.86z"/>
		<path class="st0" d="M113.08,212.46c1.56,0,2.63,1.12,2.63,2.73s-1.07,2.73-2.63,2.73c-1.56,0-2.63-1.12-2.63-2.73
			S111.52,212.46,113.08,212.46z M113.08,213.09c-1.1,0-1.89,0.84-1.89,2.11c0,1.27,0.79,2.11,1.89,2.11c1.1,0,1.9-0.84,1.9-2.11
			C114.97,213.93,114.18,213.09,113.08,213.09z"/>
		<path class="st0" d="M117.97,217.81h-0.72v-4.62h-0.8v-0.61h0.8v-1.31c0-1.09,0.56-1.74,1.61-1.74c0.4,0,0.68,0.08,0.94,0.26v0.68
			c-0.25-0.18-0.54-0.31-0.92-0.31c-0.55,0-0.9,0.26-0.9,1.12v1.3h1.44v0.61h-1.44V217.81z"/>
		<path class="st0" d="M126.96,217.74c-0.56,0.13-1.15,0.19-1.7,0.19c-1.81,0-3.03-0.98-3.03-2.73c0-1.76,1.32-2.73,2.88-2.73
			c0.4,0,0.88,0.08,1.14,0.24v-3.05h0.72V217.74z M126.24,213.35c-0.26-0.14-0.66-0.24-1.14-0.24c-1.21,0-2.15,0.74-2.15,2.09
			c0,1.33,0.92,2.1,2.3,2.1c0.34,0,0.67-0.01,0.98-0.06V213.35z"/>
		<path class="st0" d="M129.09,215.23v0.02c0,1.28,0.92,2.04,1.94,2.04c0.74,0,1.26-0.19,1.79-0.59v0.72
			c-0.47,0.35-1.14,0.5-1.79,0.5c-1.51,0-2.66-1.03-2.66-2.73c0-1.57,1.08-2.73,2.48-2.73c1.32,0,2.2,0.79,2.2,2.28v0.49H129.09z
			 M132.32,214.63c-0.05-1.09-0.64-1.54-1.51-1.54c-0.82,0-1.47,0.55-1.68,1.54H132.32z"/>
		<path class="st0" d="M134.43,212.8c0.48-0.18,1.15-0.34,1.82-0.34c1.8,0,2.89,0.94,2.89,2.73c0,1.7-1.13,2.73-2.84,2.73
			c-0.42,0-0.88-0.08-1.15-0.22v2.25h-0.72V212.8z M135.14,217.09c0.34,0.14,0.71,0.22,1.15,0.22c1.27,0,2.11-0.78,2.11-2.11
			c0-1.28-0.78-2.07-2.16-2.07c-0.41,0-0.83,0.05-1.1,0.14V217.09z"/>
		<path class="st0" d="M141.27,217.81h-0.72v-4.75c0.55-0.35,1.22-0.56,1.94-0.56c0.29,0,0.58,0.04,0.88,0.11v0.71
			c-0.31-0.11-0.68-0.13-0.92-0.13c-0.52,0-0.9,0.11-1.18,0.26V217.81z"/>
		<path class="st0" d="M144.65,215.23v0.02c0,1.28,0.92,2.04,1.94,2.04c0.74,0,1.26-0.19,1.79-0.59v0.72
			c-0.47,0.35-1.14,0.5-1.79,0.5c-1.51,0-2.66-1.03-2.66-2.73c0-1.57,1.08-2.73,2.48-2.73c1.32,0,2.19,0.79,2.19,2.28v0.49H144.65z
			 M147.89,214.63c-0.05-1.09-0.64-1.54-1.51-1.54c-0.82,0-1.47,0.55-1.68,1.54H147.89z"/>
		<path class="st0" d="M149.74,216.7c0.44,0.4,0.9,0.62,1.47,0.62c0.66,0,1.08-0.25,1.08-0.84c0-0.62-0.46-0.79-1.28-1.07
			c-0.92-0.31-1.32-0.7-1.32-1.54c0-0.92,0.7-1.42,1.64-1.42c0.52,0,1.02,0.11,1.43,0.4v0.78c-0.41-0.34-0.83-0.56-1.43-0.56
			c-0.58,0-0.95,0.31-0.95,0.8c0,0.48,0.29,0.73,1.09,0.98c0.91,0.28,1.52,0.62,1.52,1.57c0,1.03-0.8,1.5-1.79,1.5
			c-0.59,0-1.15-0.17-1.47-0.42V216.7z"/>
		<path class="st0" d="M154.13,216.7c0.44,0.4,0.9,0.62,1.47,0.62c0.66,0,1.08-0.25,1.08-0.84c0-0.62-0.46-0.79-1.28-1.07
			c-0.92-0.31-1.32-0.7-1.32-1.54c0-0.92,0.7-1.42,1.64-1.42c0.52,0,1.02,0.11,1.43,0.4v0.78c-0.41-0.34-0.83-0.56-1.43-0.56
			c-0.58,0-0.95,0.31-0.95,0.8c0,0.48,0.29,0.73,1.09,0.98c0.91,0.28,1.52,0.62,1.52,1.57c0,1.03-0.8,1.5-1.79,1.5
			c-0.59,0-1.15-0.17-1.47-0.42V216.7z"/>
		<path class="st0" d="M158.65,210.95c0-0.3,0.25-0.54,0.54-0.54c0.3,0,0.54,0.24,0.54,0.54c0,0.29-0.24,0.54-0.54,0.54
			C158.9,211.49,158.65,211.24,158.65,210.95z M159.55,217.81h-0.72v-5.23h0.72V217.81z"/>
		<path class="st0" d="M162.56,217.81l-2.05-5.23h0.76l1.7,4.56l1.7-4.56h0.73l-2.05,5.23H162.56z"/>
		<path class="st0" d="M166.69,215.23v0.02c0,1.28,0.92,2.04,1.94,2.04c0.74,0,1.26-0.19,1.79-0.59v0.72
			c-0.47,0.35-1.14,0.5-1.79,0.5c-1.51,0-2.66-1.03-2.66-2.73c0-1.57,1.08-2.73,2.48-2.73c1.32,0,2.2,0.79,2.2,2.28v0.49H166.69z
			 M169.93,214.63c-0.05-1.09-0.64-1.54-1.51-1.54c-0.82,0-1.47,0.55-1.68,1.54H169.93z"/>
		<path class="st0" d="M34.27,231.1c0.44,0.4,0.9,0.62,1.47,0.62c0.66,0,1.08-0.25,1.08-0.84c0-0.62-0.46-0.79-1.28-1.07
			c-0.92-0.31-1.32-0.7-1.32-1.54c0-0.92,0.7-1.42,1.64-1.42c0.52,0,1.02,0.11,1.43,0.4v0.78c-0.41-0.34-0.83-0.56-1.43-0.56
			c-0.58,0-0.95,0.31-0.95,0.8c0,0.48,0.29,0.73,1.09,0.98c0.91,0.28,1.52,0.62,1.52,1.57c0,1.03-0.8,1.5-1.79,1.5
			c-0.59,0-1.15-0.17-1.47-0.42V231.1z"/>
		<path class="st0" d="M40.62,231.74l1.73-4.76h0.74l-2.83,7.39h-0.71l0.71-1.81l-2.18-5.58h0.79L40.62,231.74z"/>
		<path class="st0" d="M50.71,228.71c0-0.97-0.66-1.2-1.22-1.2c-0.62,0-1.22,0.16-1.54,0.3c0.1,0.23,0.16,0.52,0.16,0.86v3.54h-0.72
			v-3.5c0-0.97-0.64-1.2-1.24-1.2c-0.59,0-1.05,0.12-1.38,0.24v4.46h-0.72v-4.89c0.68-0.28,1.4-0.46,2.1-0.46
			c0.61,0,1.08,0.13,1.4,0.41c0.62-0.24,1.3-0.41,1.93-0.41c1.26,0,1.94,0.52,1.94,1.82v3.53h-0.72V228.71z"/>
		<path class="st0" d="M53.17,227.2c0.48-0.18,1.15-0.34,1.82-0.34c1.8,0,2.89,0.94,2.89,2.73c0,1.7-1.13,2.73-2.84,2.73
			c-0.42,0-0.88-0.08-1.15-0.22v2.25h-0.72V227.2z M53.89,231.49c0.34,0.14,0.71,0.22,1.15,0.22c1.27,0,2.11-0.78,2.11-2.11
			c0-1.28-0.78-2.07-2.16-2.07c-0.41,0-0.83,0.05-1.1,0.14V231.49z"/>
		<path class="st0" d="M58.57,226.98h0.8v-1.27h0.72v1.27h1.48v0.61h-1.48v3.19c0,0.67,0.26,0.94,0.76,0.94
			c0.34,0,0.61-0.11,0.97-0.29v0.64c-0.31,0.16-0.67,0.26-1.13,0.26c-0.76,0-1.32-0.4-1.32-1.48v-3.26h-0.8V226.98z"/>
		<path class="st0" d="M65.19,226.86c1.56,0,2.63,1.12,2.63,2.73s-1.07,2.73-2.63,2.73c-1.56,0-2.63-1.12-2.63-2.73
			S63.63,226.86,65.19,226.86z M65.19,227.49c-1.1,0-1.89,0.84-1.89,2.11c0,1.27,0.79,2.11,1.89,2.11c1.1,0,1.9-0.84,1.9-2.11
			C67.09,228.33,66.3,227.49,65.19,227.49z"/>
		<path class="st0" d="M75.88,228.71c0-0.97-0.66-1.2-1.22-1.2c-0.62,0-1.22,0.16-1.54,0.3c0.1,0.23,0.16,0.52,0.16,0.86v3.54h-0.72
			v-3.5c0-0.97-0.64-1.2-1.24-1.2c-0.59,0-1.05,0.12-1.38,0.24v4.46h-0.72v-4.89c0.68-0.28,1.4-0.46,2.1-0.46
			c0.61,0,1.08,0.13,1.4,0.41c0.62-0.24,1.3-0.41,1.93-0.41c1.26,0,1.94,0.52,1.94,1.82v3.53h-0.72V228.71z"/>
		<path class="st0" d="M78.03,231.1c0.44,0.4,0.9,0.62,1.47,0.62c0.66,0,1.08-0.25,1.08-0.84c0-0.62-0.46-0.79-1.28-1.07
			c-0.92-0.31-1.32-0.7-1.32-1.54c0-0.92,0.7-1.42,1.64-1.42c0.52,0,1.02,0.11,1.43,0.4v0.78c-0.41-0.34-0.83-0.56-1.43-0.56
			c-0.58,0-0.95,0.31-0.95,0.8c0,0.48,0.29,0.73,1.09,0.98c0.91,0.28,1.52,0.62,1.52,1.57c0,1.03-0.8,1.5-1.79,1.5
			c-0.59,0-1.15-0.17-1.47-0.42V231.1z"/>
		<path class="st0" d="M84.84,225.35c0-0.3,0.25-0.54,0.54-0.54c0.3,0,0.54,0.24,0.54,0.54c0,0.29-0.24,0.54-0.54,0.54
			C85.09,225.89,84.84,225.64,84.84,225.35z M85.74,232.21h-0.72v-5.23h0.72V232.21z"/>
		<path class="st0" d="M87.54,227.26c0.7-0.25,1.49-0.4,2.2-0.4c1.32,0,2.12,0.52,2.12,1.82v3.53h-0.72v-3.38
			c0-1.07-0.75-1.29-1.46-1.29c-0.55,0-1.04,0.1-1.42,0.19v4.49h-0.72V227.26z"/>
		<path class="st0" d="M98.59,228.55c0-0.67-0.43-1.02-1.1-1.02c-0.6,0-1.06,0.17-1.54,0.42v-0.68c0.44-0.24,1.01-0.41,1.62-0.41
			c1.06,0,1.74,0.47,1.74,1.64v3.61c-0.48,0.13-1.04,0.19-1.49,0.19c-1.42,0-2.36-0.44-2.36-1.55c0-1.03,0.95-1.57,2.54-1.57h0.59
			V228.55z M98.59,229.78h-0.54c-1.08,0-1.87,0.29-1.87,0.98s0.72,0.95,1.68,0.95c0.22,0,0.48-0.02,0.73-0.07V229.78z"/>
		<path class="st0" d="M105.37,232.14c-0.56,0.13-1.15,0.19-1.7,0.19c-1.81,0-3.03-0.98-3.03-2.73c0-1.76,1.32-2.73,2.88-2.73
			c0.4,0,0.88,0.08,1.14,0.24v-3.05h0.72V232.14z M104.65,227.75c-0.26-0.14-0.66-0.24-1.14-0.24c-1.21,0-2.15,0.74-2.15,2.09
			c0,1.33,0.92,2.1,2.3,2.1c0.34,0,0.67-0.01,0.98-0.06V227.75z"/>
		<path class="st0" d="M111.25,232.15c-0.64,0.12-1.28,0.18-1.82,0.18c-1.51,0-2.38-0.52-2.38-1.82v-3.53h0.72v3.49
			c0,0.98,0.78,1.24,1.61,1.24c0.36,0,0.77-0.02,1.15-0.07v-4.65h0.72V232.15z"/>
		<path class="st0" d="M113.77,232.21h-0.72v-8.16h0.72V232.21z"/>
		<path class="st0" d="M114.85,226.98h0.8v-1.27h0.72v1.27h1.48v0.61h-1.48v3.19c0,0.67,0.26,0.94,0.76,0.94
			c0.34,0,0.61-0.11,0.97-0.29v0.64c-0.31,0.16-0.67,0.26-1.13,0.26c-0.76,0-1.32-0.4-1.32-1.48v-3.26h-0.8V226.98z"/>
		<path class="st0" d="M119.05,231.1c0.44,0.4,0.9,0.62,1.47,0.62c0.66,0,1.08-0.25,1.08-0.84c0-0.62-0.46-0.79-1.28-1.07
			c-0.92-0.31-1.32-0.7-1.32-1.54c0-0.92,0.7-1.42,1.64-1.42c0.52,0,1.02,0.11,1.43,0.4v0.78c-0.41-0.34-0.83-0.56-1.43-0.56
			c-0.58,0-0.95,0.31-0.95,0.8c0,0.48,0.29,0.73,1.09,0.98c0.91,0.28,1.52,0.62,1.52,1.57c0,1.03-0.8,1.5-1.79,1.5
			c-0.59,0-1.15-0.17-1.47-0.42V231.1z"/>
		<path class="st0" d="M130.6,231.55l1.31-4.57h0.72l-1.58,5.23h-0.88l-1.26-4.45l-1.26,4.45h-0.88l-1.58-5.23h0.76l1.31,4.57
			l1.29-4.57h0.74L130.6,231.55z"/>
		<path class="st0" d="M133.41,225.35c0-0.3,0.25-0.54,0.54-0.54c0.3,0,0.54,0.24,0.54,0.54c0,0.29-0.24,0.54-0.54,0.54
			C133.66,225.89,133.41,225.64,133.41,225.35z M134.31,232.21h-0.72v-5.23h0.72V232.21z"/>
		<path class="st0" d="M135.39,226.98h0.8v-1.27h0.72v1.27h1.48v0.61h-1.48v3.19c0,0.67,0.26,0.94,0.76,0.94
			c0.34,0,0.61-0.11,0.97-0.29v0.64c-0.31,0.16-0.67,0.26-1.13,0.26c-0.76,0-1.32-0.4-1.32-1.48v-3.26h-0.8V226.98z"/>
		<path class="st0" d="M139.9,224.06h0.72v3.08c0.4-0.14,0.98-0.28,1.54-0.28c1.26,0,2.06,0.52,2.06,1.82v3.53h-0.72v-3.38
			c0-1.07-0.75-1.29-1.46-1.29c-0.55,0-1.06,0.12-1.42,0.24v4.44h-0.72V224.06z"/>
		<path class="st0" d="M151.49,232.21l-1.96-6.42l-1.09,6.42h-0.72l1.27-7.12h1l1.94,6.37l1.94-6.37h1l1.27,7.12h-0.74l-1.09-6.42
			l-1.95,6.42H151.49z"/>
		<path class="st0" d="M157.56,225.06c0.53-0.06,1.02-0.1,1.46-0.1c3.26,0,4.37,1.69,4.37,3.51c0,2-1.16,3.85-4.27,3.85
			c-0.6,0-1.05-0.05-1.56-0.11V225.06z M158.3,231.64c0.29,0.04,0.56,0.05,0.83,0.05c2.04,0,3.48-1.02,3.48-3.19
			c0-1.68-1.07-2.85-3.61-2.85c-0.23,0-0.44,0.01-0.7,0.04V231.64z"/>
		<path class="st0" d="M164.95,225.06c0.53-0.06,1.02-0.1,1.46-0.1c3.26,0,4.37,1.69,4.37,3.51c0,2-1.16,3.85-4.27,3.85
			c-0.6,0-1.05-0.05-1.56-0.11V225.06z M165.69,231.64c0.29,0.04,0.56,0.05,0.83,0.05c2.04,0,3.48-1.02,3.48-3.19
			c0-1.68-1.07-2.85-3.61-2.85c-0.23,0-0.44,0.01-0.7,0.04V231.64z"/>
		<path class="st0" d="M44.56,245.95l1.31-4.57h0.72L45,246.61h-0.88l-1.26-4.45l-1.26,4.45h-0.88l-1.58-5.23h0.76l1.31,4.57
			l1.29-4.57h0.74L44.56,245.95z"/>
		<path class="st0" d="M47.37,239.75c0-0.3,0.25-0.54,0.54-0.54c0.3,0,0.54,0.24,0.54,0.54c0,0.29-0.24,0.54-0.54,0.54
			C47.62,240.29,47.37,240.04,47.37,239.75z M48.27,246.61h-0.72v-5.23h0.72V246.61z"/>
		<path class="st0" d="M49.35,241.38h0.8v-1.27h0.72v1.27h1.48v0.61h-1.48v3.19c0,0.67,0.26,0.94,0.76,0.94
			c0.34,0,0.61-0.11,0.97-0.29v0.64c-0.31,0.16-0.67,0.26-1.13,0.26c-0.76,0-1.32-0.4-1.32-1.48v-3.26h-0.8V241.38z"/>
		<path class="st0" d="M53.86,238.46h0.72v3.08c0.4-0.14,0.98-0.28,1.54-0.28c1.26,0,2.06,0.52,2.06,1.82v3.53h-0.72v-3.38
			c0-1.07-0.75-1.29-1.46-1.29c-0.55,0-1.06,0.12-1.42,0.24v4.44h-0.72V238.46z"/>
		<path class="st0" d="M64.91,242.95c0-0.67-0.43-1.02-1.1-1.02c-0.6,0-1.06,0.17-1.54,0.42v-0.68c0.44-0.24,1.01-0.41,1.62-0.41
			c1.06,0,1.74,0.47,1.74,1.64v3.61c-0.48,0.13-1.04,0.19-1.49,0.19c-1.42,0-2.36-0.44-2.36-1.55c0-1.03,0.95-1.57,2.54-1.57h0.59
			V242.95z M64.91,244.18h-0.54c-1.08,0-1.87,0.29-1.87,0.98s0.72,0.95,1.68,0.95c0.22,0,0.48-0.02,0.73-0.07V244.18z"/>
		<path class="st0" d="M71.16,242.41c-0.44-0.31-0.97-0.49-1.46-0.49c-1.08,0-2.01,0.72-2.01,2.09c0,1.32,0.92,2.06,2.06,2.06
			c0.55,0,1.02-0.18,1.5-0.49v0.76c-0.52,0.26-1.02,0.4-1.57,0.4c-1.46,0-2.72-1.02-2.72-2.73c0-1.75,1.29-2.73,2.71-2.73
			c0.58,0,1.03,0.13,1.5,0.4V242.41z"/>
		<path class="st0" d="M71.97,241.38h0.8v-1.27h0.72v1.27h1.48v0.61h-1.48v3.19c0,0.67,0.26,0.94,0.76,0.94
			c0.34,0,0.61-0.11,0.97-0.29v0.64c-0.31,0.16-0.67,0.26-1.13,0.26c-0.76,0-1.32-0.4-1.32-1.48v-3.26h-0.8V241.38z"/>
		<path class="st0" d="M76.3,239.75c0-0.3,0.25-0.54,0.54-0.54c0.3,0,0.54,0.24,0.54,0.54c0,0.29-0.24,0.54-0.54,0.54
			C76.55,240.29,76.3,240.04,76.3,239.75z M77.2,246.61h-0.72v-5.23h0.72V246.61z"/>
		<path class="st0" d="M80.21,246.61l-2.05-5.23h0.76l1.7,4.56l1.7-4.56h0.73L81,246.61H80.21z"/>
		<path class="st0" d="M84.34,244.03v0.02c0,1.28,0.92,2.04,1.94,2.04c0.74,0,1.26-0.19,1.79-0.59v0.72
			c-0.47,0.35-1.14,0.5-1.79,0.5c-1.51,0-2.66-1.03-2.66-2.73c0-1.57,1.08-2.73,2.48-2.73c1.32,0,2.19,0.79,2.19,2.28v0.49H84.34z
			 M87.58,243.43c-0.05-1.09-0.64-1.54-1.51-1.54c-0.82,0-1.47,0.55-1.68,1.54H87.58z"/>
		<path class="st0" d="M91.65,245.5c0.44,0.4,0.9,0.62,1.47,0.62c0.66,0,1.08-0.25,1.08-0.84c0-0.62-0.46-0.79-1.28-1.07
			c-0.92-0.31-1.32-0.7-1.32-1.54c0-0.92,0.7-1.42,1.64-1.42c0.52,0,1.02,0.11,1.43,0.4v0.78c-0.41-0.34-0.83-0.56-1.43-0.56
			c-0.58,0-0.95,0.31-0.95,0.8c0,0.48,0.29,0.73,1.09,0.98c0.91,0.28,1.52,0.62,1.52,1.57c0,1.03-0.8,1.5-1.79,1.5
			c-0.59,0-1.15-0.17-1.47-0.42V245.5z"/>
		<path class="st0" d="M100.43,246.55c-0.64,0.12-1.28,0.18-1.82,0.18c-1.51,0-2.38-0.52-2.38-1.82v-3.53h0.72v3.49
			c0,0.98,0.78,1.24,1.61,1.24c0.36,0,0.77-0.02,1.15-0.07v-4.65h0.72V246.55z"/>
		<path class="st0" d="M102.05,239.75c0-0.3,0.25-0.54,0.54-0.54c0.3,0,0.54,0.24,0.54,0.54c0,0.29-0.24,0.54-0.54,0.54
			C102.3,240.29,102.05,240.04,102.05,239.75z M102.95,246.61h-0.72v-5.23h0.72V246.61z"/>
		<path class="st0" d="M108.56,242.41c-0.44-0.31-0.97-0.49-1.46-0.49c-1.08,0-2.01,0.72-2.01,2.09c0,1.32,0.92,2.06,2.06,2.06
			c0.55,0,1.02-0.18,1.5-0.49v0.76c-0.52,0.26-1.02,0.4-1.57,0.4c-1.46,0-2.72-1.02-2.72-2.73c0-1.75,1.29-2.73,2.71-2.73
			c0.58,0,1.03,0.13,1.5,0.4V242.41z"/>
		<path class="st0" d="M109.85,239.75c0-0.3,0.25-0.54,0.54-0.54c0.3,0,0.54,0.24,0.54,0.54c0,0.29-0.24,0.54-0.54,0.54
			C110.1,240.29,109.85,240.04,109.85,239.75z M110.75,246.61h-0.72v-5.23h0.72V246.61z"/>
		<path class="st0" d="M116.89,246.54c-0.56,0.13-1.15,0.19-1.7,0.19c-1.81,0-3.03-0.98-3.03-2.73c0-1.76,1.32-2.73,2.88-2.73
			c0.4,0,0.88,0.08,1.14,0.24v-3.05h0.72V246.54z M116.17,242.15c-0.26-0.14-0.66-0.24-1.14-0.24c-1.21,0-2.15,0.74-2.15,2.09
			c0,1.33,0.92,2.1,2.3,2.1c0.34,0,0.67-0.01,0.98-0.06V242.15z"/>
		<path class="st0" d="M121.4,242.95c0-0.67-0.43-1.02-1.1-1.02c-0.6,0-1.06,0.17-1.54,0.42v-0.68c0.44-0.24,1.01-0.41,1.62-0.41
			c1.05,0,1.74,0.47,1.74,1.64v3.61c-0.48,0.13-1.04,0.19-1.49,0.19c-1.42,0-2.36-0.44-2.36-1.55c0-1.03,0.95-1.57,2.54-1.57h0.59
			V242.95z M121.4,244.18h-0.54c-1.08,0-1.87,0.29-1.87,0.98s0.72,0.95,1.68,0.95c0.22,0,0.48-0.02,0.73-0.07V244.18z"/>
		<path class="st0" d="M124.56,246.61h-0.72v-8.16h0.72V246.61z"/>
		<path class="st0" d="M128.46,239.75c0-0.3,0.25-0.54,0.54-0.54c0.3,0,0.54,0.24,0.54,0.54c0,0.29-0.24,0.54-0.54,0.54
			C128.71,240.29,128.46,240.04,128.46,239.75z M129.36,246.61h-0.72v-5.23h0.72V246.61z"/>
		<path class="st0" d="M135.5,246.54c-0.56,0.13-1.15,0.19-1.7,0.19c-1.81,0-3.03-0.98-3.03-2.73c0-1.76,1.32-2.73,2.88-2.73
			c0.4,0,0.88,0.08,1.14,0.24v-3.05h0.72V246.54z M134.78,242.15c-0.26-0.14-0.66-0.24-1.14-0.24c-1.21,0-2.15,0.74-2.15,2.09
			c0,1.33,0.92,2.1,2.3,2.1c0.34,0,0.67-0.01,0.98-0.06V242.15z"/>
		<path class="st0" d="M137.63,244.03v0.02c0,1.28,0.92,2.04,1.94,2.04c0.74,0,1.26-0.19,1.79-0.59v0.72
			c-0.47,0.35-1.14,0.5-1.79,0.5c-1.51,0-2.66-1.03-2.66-2.73c0-1.57,1.08-2.73,2.48-2.73c1.32,0,2.19,0.79,2.19,2.28v0.49H137.63z
			 M140.87,243.43c-0.05-1.09-0.64-1.54-1.51-1.54c-0.82,0-1.47,0.55-1.68,1.54H140.87z"/>
		<path class="st0" d="M145.74,242.95c0-0.67-0.43-1.02-1.1-1.02c-0.6,0-1.06,0.17-1.54,0.42v-0.68c0.44-0.24,1.01-0.41,1.62-0.41
			c1.06,0,1.74,0.47,1.74,1.64v3.61c-0.48,0.13-1.04,0.19-1.49,0.19c-1.42,0-2.36-0.44-2.36-1.55c0-1.03,0.95-1.57,2.54-1.57h0.59
			V242.95z M145.74,244.18h-0.54c-1.08,0-1.87,0.29-1.87,0.98s0.72,0.95,1.68,0.95c0.22,0,0.48-0.02,0.73-0.07V244.18z"/>
		<path class="st0" d="M147.46,241.38h0.8v-1.27h0.72v1.27h1.48v0.61h-1.48v3.19c0,0.67,0.26,0.94,0.76,0.94
			c0.34,0,0.61-0.11,0.97-0.29v0.64c-0.31,0.16-0.67,0.26-1.13,0.26c-0.76,0-1.32-0.4-1.32-1.48v-3.26h-0.8V241.38z"/>
		<path class="st0" d="M151.79,239.75c0-0.3,0.25-0.54,0.54-0.54c0.3,0,0.54,0.24,0.54,0.54c0,0.29-0.24,0.54-0.54,0.54
			C152.04,240.29,151.79,240.04,151.79,239.75z M152.69,246.61h-0.72v-5.23h0.72V246.61z"/>
		<path class="st0" d="M156.72,241.26c1.56,0,2.63,1.12,2.63,2.73s-1.07,2.73-2.63,2.73c-1.56,0-2.63-1.12-2.63-2.73
			S155.16,241.26,156.72,241.26z M156.72,241.89c-1.1,0-1.89,0.84-1.89,2.11c0,1.27,0.79,2.11,1.89,2.11c1.1,0,1.9-0.84,1.9-2.11
			C158.61,242.73,157.82,241.89,156.72,241.89z"/>
		<path class="st0" d="M160.75,241.66c0.7-0.25,1.49-0.4,2.2-0.4c1.32,0,2.12,0.52,2.12,1.82v3.53h-0.72v-3.38
			c0-1.07-0.75-1.29-1.46-1.29c-0.55,0-1.04,0.1-1.42,0.19v4.49h-0.72V241.66z"/>
		<path class="st0" d="M82.41,257.35c0-0.67-0.43-1.02-1.1-1.02c-0.6,0-1.06,0.17-1.54,0.42v-0.68c0.44-0.24,1.01-0.41,1.62-0.41
			c1.06,0,1.74,0.47,1.74,1.64v3.61c-0.48,0.13-1.04,0.19-1.49,0.19c-1.42,0-2.36-0.44-2.36-1.55c0-1.03,0.95-1.57,2.54-1.57h0.59
			V257.35z M82.41,258.58h-0.54c-1.08,0-1.87,0.29-1.87,0.98s0.72,0.95,1.68,0.95c0.22,0,0.48-0.02,0.73-0.07V258.58z"/>
		<path class="st0" d="M84.85,256.06c0.7-0.25,1.49-0.4,2.2-0.4c1.32,0,2.12,0.52,2.12,1.82v3.53h-0.72v-3.38
			c0-1.07-0.75-1.29-1.46-1.29c-0.55,0-1.04,0.1-1.42,0.19v4.49h-0.72V256.06z"/>
		<path class="st0" d="M95.25,260.94c-0.56,0.13-1.15,0.19-1.7,0.19c-1.81,0-3.03-0.98-3.03-2.73c0-1.76,1.32-2.73,2.88-2.73
			c0.4,0,0.88,0.08,1.14,0.24v-3.05h0.72V260.94z M94.53,256.55c-0.26-0.14-0.66-0.24-1.14-0.24c-1.21,0-2.15,0.74-2.15,2.09
			c0,1.33,0.92,2.1,2.3,2.1c0.34,0,0.67-0.01,0.98-0.06V256.55z"/>
		<path class="st0" d="M99.15,254.15c0-0.3,0.25-0.54,0.54-0.54c0.3,0,0.54,0.24,0.54,0.54c0,0.29-0.24,0.54-0.54,0.54
			C99.4,254.69,99.15,254.44,99.15,254.15z M100.05,261.01h-0.72v-5.23h0.72V261.01z"/>
		<path class="st0" d="M101.85,256.06c0.7-0.25,1.49-0.4,2.2-0.4c1.32,0,2.12,0.52,2.12,1.82v3.53h-0.72v-3.38
			c0-1.07-0.75-1.29-1.46-1.29c-0.55,0-1.04,0.1-1.42,0.19v4.49h-0.72V256.06z"/>
		<path class="st0" d="M107.19,255.78h0.8v-1.27h0.72v1.27h1.48v0.61h-1.48v3.19c0,0.67,0.26,0.94,0.76,0.94
			c0.34,0,0.61-0.11,0.97-0.29v0.64c-0.31,0.16-0.67,0.26-1.13,0.26c-0.76,0-1.32-0.4-1.32-1.48v-3.26h-0.8V255.78z"/>
		<path class="st0" d="M111.91,258.43v0.02c0,1.28,0.92,2.04,1.94,2.04c0.74,0,1.26-0.19,1.79-0.59v0.72
			c-0.47,0.35-1.14,0.5-1.79,0.5c-1.51,0-2.66-1.03-2.66-2.73c0-1.57,1.08-2.73,2.48-2.73c1.32,0,2.2,0.79,2.2,2.28v0.49H111.91z
			 M115.15,257.83c-0.05-1.09-0.64-1.54-1.51-1.54c-0.82,0-1.47,0.55-1.68,1.54H115.15z"/>
		<path class="st0" d="M117.25,256.06c0.7-0.25,1.49-0.4,2.2-0.4c1.32,0,2.12,0.52,2.12,1.82v3.53h-0.72v-3.38
			c0-1.07-0.75-1.29-1.46-1.29c-0.55,0-1.04,0.1-1.42,0.19v4.49h-0.72V256.06z"/>
		<path class="st0" d="M122.59,255.78h0.8v-1.27h0.72v1.27h1.48v0.61h-1.48v3.19c0,0.67,0.26,0.94,0.76,0.94
			c0.34,0,0.61-0.11,0.97-0.29v0.64c-0.31,0.16-0.67,0.26-1.13,0.26c-0.76,0-1.32-0.4-1.32-1.48v-3.26h-0.8V255.78z"/>
	</g>
	<g>
		<path class="st0" d="M52.11,143.54h-1.52v-7.12h1.52V143.54z"/>
		<path class="st0" d="M58.55,143.41c-0.64,0.17-1.46,0.25-2.18,0.25c-1.85,0-3.07-0.98-3.07-2.78c0-1.7,1.14-2.81,2.81-2.81
			c0.37,0,0.77,0.05,1.01,0.17v-2.85h1.44V143.41z M57.11,139.51c-0.23-0.11-0.53-0.17-0.89-0.17c-0.88,0-1.46,0.54-1.46,1.49
			c0,1.02,0.64,1.6,1.66,1.6c0.18,0,0.46-0.01,0.7-0.06V139.51z"/>
		<path class="st0" d="M61.12,141.26v0.02c0.11,0.76,0.85,1.14,1.57,1.14s1.26-0.17,1.79-0.48v1.22c-0.49,0.35-1.21,0.49-1.93,0.49
			c-1.74,0-2.83-1.07-2.83-2.73c0-1.76,1.12-2.85,2.61-2.85c1.67,0,2.32,1.1,2.32,2.52v0.67H61.12z M63.31,140.4
			c-0.01-0.66-0.32-1.14-1.01-1.14c-0.62,0-1.03,0.44-1.16,1.14H63.31z"/>
		<path class="st0" d="M65.88,138.54c0.76-0.29,1.75-0.47,2.55-0.47c1.39,0,2.29,0.52,2.29,2.11v3.36h-1.45v-3.26
			c0-0.6-0.32-0.91-0.95-0.91c-0.35,0-0.71,0.06-1.01,0.16v4.02h-1.44V138.54z"/>
		<path class="st0" d="M71.47,138.19h0.8v-1.32h1.44v1.32h1.52v1.2h-1.52v2.15c0,0.61,0.29,0.8,0.72,0.8c0.36,0,0.67-0.11,0.98-0.3
			v1.32c-0.38,0.2-0.84,0.3-1.38,0.3c-0.92,0-1.76-0.44-1.76-1.74v-2.53h-0.8V138.19z"/>
		<path class="st0" d="M76.36,136.57c0-0.49,0.38-0.88,0.86-0.88c0.47,0,0.86,0.38,0.86,0.88c0,0.47-0.4,0.85-0.86,0.85
			C76.75,137.42,76.36,137.04,76.36,136.57z M77.95,143.54h-1.44v-5.35h1.44V143.54z"/>
		<path class="st0" d="M83.45,139.83c-0.44-0.36-0.88-0.49-1.37-0.49c-0.89,0-1.52,0.55-1.52,1.51c0,0.91,0.61,1.54,1.58,1.54
			c0.5,0,0.95-0.17,1.36-0.48v1.35c-0.48,0.29-1.01,0.4-1.56,0.4c-1.73,0-2.83-1.1-2.83-2.78c0-1.69,1.19-2.81,2.82-2.81
			c0.61,0,1.07,0.12,1.52,0.4V139.83z"/>
		<path class="st0" d="M87.37,140.04c0-0.52-0.43-0.73-0.96-0.73c-0.64,0-1.13,0.19-1.55,0.44v-1.25c0.48-0.28,1.12-0.43,1.8-0.43
			c1.22,0,2.13,0.48,2.13,1.91v3.45c-0.52,0.12-1.33,0.22-2.02,0.22c-1.35,0-2.4-0.41-2.4-1.64c0-1.12,0.9-1.64,2.4-1.64h0.59
			V140.04z M87.37,141.28h-0.48c-0.67,0-1.07,0.19-1.07,0.65c0,0.46,0.37,0.66,0.95,0.66c0.16,0,0.41-0.01,0.6-0.06V141.28z"/>
		<path class="st0" d="M91.69,143.54h-1.44v-8.16h1.44V143.54z"/>
		<path class="st0" d="M94.69,143.54h-1.44v-8.16h1.44V143.54z"/>
		<path class="st0" d="M98.47,142.03l1.34-3.84h1.51l-2.93,7.51h-1.43l0.76-1.99l-2.2-5.52h1.57L98.47,142.03z"/>
		<path class="st0" d="M104.47,136.45c0.53-0.07,1.39-0.16,2.15-0.16c2.6,0,4.09,1.34,4.09,3.59c0,2.45-1.55,3.77-4.1,3.77
			c-0.78,0-1.59-0.05-2.13-0.16V136.45z M105.99,142.28c0.23,0.02,0.53,0.04,0.78,0.04c1.4,0,2.38-0.77,2.38-2.44
			c0-1.45-0.95-2.19-2.44-2.19c-0.23,0-0.5,0.01-0.72,0.04V142.28z"/>
		<path class="st0" d="M113.04,141.26v0.02c0.11,0.76,0.85,1.14,1.57,1.14s1.26-0.17,1.79-0.48v1.22c-0.49,0.35-1.21,0.49-1.93,0.49
			c-1.74,0-2.83-1.07-2.83-2.73c0-1.76,1.12-2.85,2.61-2.85c1.67,0,2.32,1.1,2.32,2.52v0.67H113.04z M115.22,140.4
			c-0.01-0.66-0.32-1.14-1.01-1.14c-0.62,0-1.03,0.44-1.16,1.14H115.22z"/>
		<path class="st0" d="M117.6,141.9c0.5,0.37,1.17,0.6,1.7,0.6c0.44,0,0.74-0.13,0.74-0.47c0-0.32-0.23-0.46-0.82-0.58
			c-1.21-0.22-1.71-0.7-1.71-1.67c0-1.18,0.89-1.71,2.04-1.71c0.64,0,1.1,0.13,1.57,0.4v1.28c-0.5-0.34-0.97-0.52-1.52-0.52
			c-0.48,0-0.68,0.2-0.68,0.46c0,0.28,0.19,0.42,0.7,0.54c1.38,0.25,1.85,0.78,1.85,1.74c0,1.16-0.88,1.69-2.12,1.69
			c-0.65,0-1.31-0.16-1.74-0.43V141.9z"/>
		<path class="st0" d="M122.53,136.57c0-0.49,0.38-0.88,0.86-0.88c0.47,0,0.86,0.38,0.86,0.88c0,0.47-0.4,0.85-0.86,0.85
			C122.91,137.42,122.53,137.04,122.53,136.57z M124.11,143.54h-1.44v-5.35h1.44V143.54z"/>
		<path class="st0" d="M129.01,143.31c-0.18,0.1-0.58,0.18-0.98,0.18c-1.62,0-2.75-0.94-2.75-2.69c0-1.7,1.14-2.73,3.01-2.73
			c0.83,0,1.58,0.17,2.17,0.41v4.98c0,1.83-1.48,2.36-2.69,2.36c-0.66,0-1.28-0.13-1.83-0.4v-1.34c0.65,0.37,1.18,0.53,1.83,0.53
			c0.7,0,1.24-0.37,1.24-1.19V143.31z M129.01,139.44c-0.19-0.06-0.46-0.11-0.72-0.11c-0.96,0-1.55,0.49-1.55,1.48
			c0,0.92,0.58,1.48,1.45,1.48c0.32,0,0.56-0.07,0.82-0.16V139.44z"/>
		<path class="st0" d="M131.98,138.54c0.76-0.29,1.75-0.47,2.55-0.47c1.39,0,2.29,0.52,2.29,2.11v3.36h-1.45v-3.26
			c0-0.6-0.32-0.91-0.95-0.91c-0.35,0-0.71,0.06-1.01,0.16v4.02h-1.44V138.54z"/>
		<path class="st0" d="M139.31,141.26v0.02c0.11,0.76,0.85,1.14,1.57,1.14s1.26-0.17,1.79-0.48v1.22c-0.49,0.35-1.21,0.49-1.93,0.49
			c-1.74,0-2.83-1.07-2.83-2.73c0-1.76,1.12-2.85,2.61-2.85c1.67,0,2.32,1.1,2.32,2.52v0.67H139.31z M141.5,140.4
			c-0.01-0.66-0.32-1.14-1.01-1.14c-0.62,0-1.03,0.44-1.16,1.14H141.5z"/>
		<path class="st0" d="M148.98,143.41c-0.64,0.17-1.46,0.25-2.18,0.25c-1.85,0-3.07-0.98-3.07-2.78c0-1.7,1.14-2.81,2.81-2.81
			c0.37,0,0.77,0.05,1.01,0.17v-2.85h1.44V143.41z M147.54,139.51c-0.23-0.11-0.53-0.17-0.89-0.17c-0.88,0-1.46,0.54-1.46,1.49
			c0,1.02,0.64,1.6,1.66,1.6c0.18,0,0.46-0.01,0.7-0.06V139.51z"/>
		<path class="st0" d="M152.15,142.18c0,1.27-0.55,2.24-1.22,2.73h-1.07c0.58-0.82,0.79-1.7,0.79-2.73H152.15z"/>
		<path class="st0" d="M51.19,157.94h-1.52v-7.09c0.53-0.08,1.36-0.16,2.05-0.16c1.82,0,2.96,0.84,2.96,2.53
			c0,1.77-1.33,2.51-2.9,2.51c-0.19,0-0.44-0.01-0.59-0.02V157.94z M51.19,154.41c0.1,0.01,0.31,0.02,0.49,0.02
			c0.92,0,1.48-0.37,1.48-1.21c0-0.8-0.56-1.19-1.45-1.19c-0.14,0-0.37,0.01-0.52,0.04V154.41z"/>
		<path class="st0" d="M55.71,149.78h1.44v2.91c0.25-0.1,0.74-0.23,1.32-0.23c1.16,0,2.09,0.53,2.09,2.11v3.36h-1.45v-3.26
			c0-0.6-0.32-0.91-0.95-0.91c-0.35,0-0.72,0.05-1.01,0.16v4.02h-1.44V149.78z"/>
		<path class="st0" d="M64.68,154.44c0-0.52-0.43-0.73-0.96-0.73c-0.64,0-1.13,0.19-1.55,0.44v-1.25c0.48-0.28,1.12-0.43,1.8-0.43
			c1.22,0,2.13,0.48,2.13,1.91v3.45c-0.52,0.12-1.33,0.22-2.02,0.22c-1.35,0-2.4-0.41-2.4-1.64c0-1.12,0.9-1.64,2.4-1.64h0.59
			V154.44z M64.68,155.68H64.2c-0.67,0-1.07,0.19-1.07,0.65c0,0.46,0.37,0.66,0.95,0.66c0.16,0,0.41-0.01,0.6-0.06V155.68z"/>
		<path class="st0" d="M67.35,156.3c0.5,0.37,1.17,0.6,1.7,0.6c0.44,0,0.74-0.13,0.74-0.47c0-0.32-0.23-0.46-0.82-0.58
			c-1.21-0.22-1.71-0.7-1.71-1.67c0-1.18,0.89-1.72,2.04-1.72c0.64,0,1.1,0.13,1.57,0.4v1.28c-0.5-0.34-0.97-0.52-1.52-0.52
			c-0.48,0-0.68,0.2-0.68,0.46c0,0.28,0.19,0.42,0.7,0.54c1.38,0.25,1.85,0.78,1.85,1.74c0,1.16-0.88,1.69-2.12,1.69
			c-0.65,0-1.31-0.16-1.74-0.43V156.3z"/>
		<path class="st0" d="M73.42,155.66v0.02c0.11,0.76,0.85,1.14,1.57,1.14s1.26-0.17,1.79-0.48v1.22c-0.49,0.35-1.21,0.49-1.93,0.49
			c-1.74,0-2.83-1.07-2.83-2.73c0-1.76,1.12-2.85,2.61-2.85c1.67,0,2.32,1.1,2.32,2.52v0.67H73.42z M75.61,154.8
			c-0.01-0.66-0.32-1.14-1.01-1.14c-0.62,0-1.03,0.44-1.16,1.14H75.61z"/>
		<path class="st0" d="M80.05,151.4c0.56-0.48,1.28-0.71,2.03-0.71c1.33,0,2.13,0.72,2.13,1.86c0,0.91-0.54,1.51-1.28,1.78
			c0.88,0.24,1.43,0.82,1.43,1.73c0,1.37-1.2,2-2.52,2c-0.85,0-1.48-0.22-1.92-0.52v-1.42c0.46,0.37,1.04,0.68,1.8,0.68
			c0.65,0,1.12-0.29,1.12-0.85c0-0.68-0.5-0.92-1.61-0.98v-1.16c1-0.07,1.46-0.44,1.46-1.07c0-0.49-0.36-0.73-0.84-0.73
			c-0.7,0-1.36,0.41-1.8,0.8V151.4z"/>
		<path class="st0" d="M86.89,156.58c0,1.27-0.55,2.24-1.22,2.73H84.6c0.58-0.82,0.79-1.7,0.79-2.73H86.89z"/>
		<path class="st0" d="M92.26,157.94h-1.51v-7.1c0.5-0.08,1.37-0.14,2.03-0.14c1.85,0,2.97,0.8,2.97,2.4c0,1.03-0.59,1.76-1.36,2.11
			l2.03,2.73h-1.8l-1.7-2.4h-0.66V157.94z M92.26,154.29h0.52c0.86,0,1.43-0.32,1.43-1.15c0-0.77-0.55-1.13-1.43-1.13
			c-0.14,0-0.4,0.01-0.52,0.02V154.29z"/>
		<path class="st0" d="M99.88,154.44c0-0.52-0.43-0.73-0.96-0.73c-0.64,0-1.13,0.19-1.55,0.44v-1.25c0.48-0.28,1.12-0.43,1.8-0.43
			c1.22,0,2.13,0.48,2.13,1.91v3.45c-0.52,0.12-1.33,0.22-2.02,0.22c-1.35,0-2.4-0.41-2.4-1.64c0-1.12,0.9-1.64,2.4-1.64h0.59
			V154.44z M99.88,155.68H99.4c-0.67,0-1.07,0.19-1.07,0.65c0,0.46,0.37,0.66,0.95,0.66c0.16,0,0.41-0.01,0.6-0.06V155.68z"/>
		<path class="st0" d="M102.76,152.94c0.76-0.29,1.75-0.47,2.55-0.47c1.39,0,2.29,0.52,2.29,2.11v3.36h-1.45v-3.26
			c0-0.6-0.32-0.91-0.95-0.91c-0.35,0-0.71,0.06-1.01,0.16v4.02h-1.44V152.94z"/>
		<path class="st0" d="M113.95,157.81c-0.64,0.17-1.46,0.25-2.18,0.25c-1.85,0-3.07-0.98-3.07-2.78c0-1.7,1.14-2.81,2.81-2.81
			c0.37,0,0.77,0.05,1.01,0.17v-2.85h1.44V157.81z M112.51,153.91c-0.23-0.11-0.53-0.17-0.89-0.17c-0.88,0-1.46,0.54-1.46,1.49
			c0,1.02,0.64,1.6,1.66,1.6c0.18,0,0.46-0.01,0.7-0.06V153.91z"/>
		<path class="st0" d="M117.91,152.47c1.59,0,2.81,1.13,2.81,2.79c0,1.67-1.21,2.79-2.81,2.79c-1.6,0-2.79-1.13-2.79-2.79
			C115.11,153.6,116.31,152.47,117.91,152.47z M117.91,153.72c-0.78,0-1.34,0.59-1.34,1.55s0.56,1.55,1.34,1.55
			c0.78,0,1.34-0.59,1.34-1.55S118.69,153.72,117.91,153.72z"/>
		<path class="st0" d="M128.19,154.59c0-0.56-0.25-0.85-0.82-0.85c-0.38,0-0.77,0.08-1.01,0.2c0.05,0.12,0.11,0.3,0.11,0.55v3.44
			h-1.45v-3.35c0-0.56-0.26-0.85-0.82-0.85c-0.35,0-0.61,0.05-0.9,0.13v4.07h-1.44v-5c0.74-0.29,1.62-0.47,2.41-0.47
			c0.62,0,1.15,0.16,1.47,0.42c0.48-0.22,1.03-0.42,1.81-0.42c1.27,0,2.08,0.49,2.08,2.06v3.41h-1.45V154.59z"/>
		<path class="st0" d="M130.99,150.97c0-0.49,0.38-0.88,0.86-0.88c0.47,0,0.86,0.38,0.86,0.88c0,0.47-0.4,0.85-0.86,0.85
			C131.37,151.82,130.99,151.44,130.99,150.97z M132.57,157.94h-1.44v-5.35h1.44V157.94z"/>
		<path class="st0" d="M138.17,157.94h-4.45v-1.18l2.52-2.97h-2.43v-1.2h4.19v1.21l-2.55,2.94h2.73V157.94z"/>
		<path class="st0" d="M140.24,155.66v0.02c0.11,0.76,0.85,1.14,1.57,1.14s1.26-0.17,1.79-0.48v1.22c-0.49,0.35-1.21,0.49-1.93,0.49
			c-1.74,0-2.83-1.07-2.83-2.73c0-1.76,1.12-2.85,2.61-2.85c1.67,0,2.32,1.1,2.32,2.52v0.67H140.24z M142.42,154.8
			c-0.01-0.66-0.32-1.14-1.01-1.14c-0.62,0-1.03,0.44-1.16,1.14H142.42z"/>
		<path class="st0" d="M149.91,157.81c-0.64,0.17-1.46,0.25-2.18,0.25c-1.85,0-3.07-0.98-3.07-2.78c0-1.7,1.14-2.81,2.81-2.81
			c0.37,0,0.77,0.05,1.01,0.17v-2.85h1.44V157.81z M148.47,153.91c-0.23-0.11-0.53-0.17-0.89-0.17c-0.88,0-1.46,0.54-1.46,1.49
			c0,1.02,0.64,1.6,1.66,1.6c0.18,0,0.46-0.01,0.7-0.06V153.91z"/>
		<path class="st0" d="M153.08,156.58c0,1.27-0.55,2.24-1.22,2.73h-1.07c0.58-0.82,0.79-1.7,0.79-2.73H153.08z"/>
		<path class="st0" d="M69.28,165.25c0.53-0.07,1.39-0.16,2.15-0.16c2.6,0,4.09,1.34,4.09,3.59c0,2.45-1.55,3.77-4.1,3.77
			c-0.78,0-1.59-0.05-2.13-0.16V165.25z M70.8,171.08c0.23,0.02,0.53,0.04,0.78,0.04c1.4,0,2.38-0.77,2.38-2.44
			c0-1.45-0.95-2.19-2.44-2.19c-0.23,0-0.5,0.01-0.72,0.04V171.08z"/>
		<path class="st0" d="M79.24,166.87c1.59,0,2.81,1.13,2.81,2.79c0,1.67-1.21,2.79-2.81,2.79c-1.6,0-2.79-1.13-2.79-2.79
			C76.44,168,77.64,166.87,79.24,166.87z M79.24,168.12c-0.78,0-1.34,0.59-1.34,1.55s0.56,1.55,1.34,1.55
			c0.78,0,1.34-0.59,1.34-1.55S80.02,168.12,79.24,168.12z"/>
		<path class="st0" d="M87.8,172.18c-0.61,0.17-1.54,0.28-2.21,0.28c-1.55,0-2.52-0.48-2.52-2.06v-3.41h1.45v3.29
			c0,0.68,0.3,1,1.05,1c0.2,0,0.5-0.02,0.77-0.07v-4.21h1.45V172.18z"/>
		<path class="st0" d="M89.37,164.18h1.44v2.95c0.26-0.16,0.74-0.26,1.2-0.26c1.52,0,2.65,1.02,2.65,2.66
			c0,1.74-1.09,2.93-3.17,2.93c-0.89,0-1.58-0.18-2.12-0.38V164.18z M90.81,171.1c0.2,0.07,0.48,0.12,0.74,0.12
			c0.91,0,1.63-0.5,1.63-1.66c0-0.85-0.62-1.4-1.4-1.4c-0.43,0-0.76,0.13-0.97,0.28V171.1z"/>
		<path class="st0" d="M97.25,172.34h-1.44v-8.16h1.44V172.34z"/>
		<path class="st0" d="M99.82,170.06v0.02c0.11,0.76,0.85,1.14,1.57,1.14s1.26-0.17,1.79-0.48v1.22c-0.49,0.35-1.21,0.49-1.93,0.49
			c-1.74,0-2.83-1.07-2.83-2.73c0-1.76,1.12-2.85,2.61-2.85c1.67,0,2.32,1.1,2.32,2.52v0.67H99.82z M102,169.2
			c-0.01-0.66-0.32-1.14-1.01-1.14c-0.62,0-1.03,0.44-1.16,1.14H102z"/>
		<path class="st0" d="M104.43,168.57h3.23v1.28h-3.23V168.57z"/>
		<path class="st0" d="M108.95,164.18h1.44v2.95c0.26-0.16,0.74-0.26,1.2-0.26c1.52,0,2.65,1.02,2.65,2.66
			c0,1.74-1.09,2.93-3.17,2.93c-0.89,0-1.58-0.18-2.12-0.38V164.18z M110.39,171.1c0.2,0.07,0.48,0.12,0.74,0.12
			c0.91,0,1.63-0.5,1.63-1.66c0-0.85-0.62-1.4-1.4-1.4c-0.43,0-0.76,0.13-0.97,0.28V171.1z"/>
		<path class="st0" d="M116.83,172.34h-1.44v-8.16h1.44V172.34z"/>
		<path class="st0" d="M118.25,165.37c0-0.49,0.38-0.88,0.86-0.88c0.47,0,0.86,0.38,0.86,0.88c0,0.47-0.4,0.85-0.86,0.85
			C118.63,166.22,118.25,165.84,118.25,165.37z M119.83,172.34h-1.44v-5.35h1.44V172.34z"/>
		<path class="st0" d="M121.39,167.34c0.76-0.29,1.75-0.47,2.55-0.47c1.39,0,2.29,0.52,2.29,2.11v3.36h-1.45v-3.26
			c0-0.6-0.32-0.91-0.95-0.91c-0.35,0-0.71,0.06-1.01,0.16v4.02h-1.44V167.34z"/>
		<path class="st0" d="M132.57,172.21c-0.64,0.17-1.46,0.25-2.18,0.25c-1.85,0-3.07-0.98-3.07-2.78c0-1.7,1.14-2.81,2.81-2.81
			c0.37,0,0.77,0.05,1.01,0.17v-2.85h1.44V172.21z M131.14,168.31c-0.23-0.11-0.53-0.17-0.89-0.17c-0.88,0-1.46,0.54-1.46,1.49
			c0,1.02,0.64,1.6,1.66,1.6c0.18,0,0.46-0.01,0.7-0.06V168.31z"/>
		<path class="st0" d="M135.74,170.98c0,1.27-0.55,2.24-1.22,2.73h-1.07c0.58-0.82,0.79-1.7,0.79-2.73H135.74z"/>
		<path class="st0" d="M38.66,186.74h-1.52v-7.09c0.53-0.08,1.36-0.16,2.05-0.16c1.82,0,2.96,0.84,2.96,2.53
			c0,1.77-1.33,2.51-2.9,2.51c-0.19,0-0.44-0.01-0.59-0.02V186.74z M38.66,183.21c0.1,0.01,0.31,0.02,0.49,0.02
			c0.92,0,1.48-0.37,1.48-1.21c0-0.8-0.56-1.19-1.45-1.19c-0.14,0-0.37,0.01-0.52,0.04V183.21z"/>
		<path class="st0" d="M44.62,186.74h-1.44v-8.16h1.44V186.74z"/>
		<path class="st0" d="M48.82,183.24c0-0.52-0.43-0.73-0.96-0.73c-0.64,0-1.13,0.19-1.55,0.44v-1.25c0.48-0.28,1.12-0.43,1.8-0.43
			c1.22,0,2.13,0.48,2.13,1.91v3.45c-0.52,0.12-1.33,0.22-2.02,0.22c-1.35,0-2.4-0.41-2.4-1.64c0-1.12,0.9-1.64,2.4-1.64h0.59
			V183.24z M48.82,184.48h-0.48c-0.67,0-1.07,0.19-1.07,0.65c0,0.46,0.37,0.66,0.95,0.66c0.16,0,0.41-0.01,0.6-0.06V184.48z"/>
		<path class="st0" d="M55.65,183.03c-0.44-0.36-0.88-0.49-1.37-0.49c-0.89,0-1.52,0.55-1.52,1.51c0,0.91,0.61,1.54,1.58,1.54
			c0.5,0,0.95-0.17,1.36-0.48v1.35c-0.48,0.29-1.01,0.4-1.56,0.4c-1.73,0-2.83-1.1-2.83-2.78c0-1.69,1.19-2.81,2.82-2.81
			c0.61,0,1.07,0.12,1.52,0.4V183.03z"/>
		<path class="st0" d="M57.92,184.46v0.02c0.11,0.76,0.85,1.14,1.57,1.14s1.26-0.17,1.79-0.48v1.22c-0.49,0.35-1.21,0.49-1.93,0.49
			c-1.74,0-2.83-1.07-2.83-2.73c0-1.76,1.12-2.85,2.61-2.85c1.67,0,2.32,1.1,2.32,2.52v0.67H57.92z M60.1,183.6
			c-0.01-0.66-0.32-1.14-1.01-1.14c-0.62,0-1.03,0.44-1.16,1.14H60.1z"/>
		<path class="st0" d="M62.67,178.58h1.44v2.95c0.26-0.16,0.74-0.26,1.2-0.26c1.52,0,2.65,1.02,2.65,2.66
			c0,1.74-1.09,2.93-3.17,2.93c-0.89,0-1.58-0.18-2.12-0.38V178.58z M64.11,185.5c0.2,0.07,0.48,0.12,0.74,0.12
			c0.91,0,1.63-0.5,1.63-1.66c0-0.85-0.62-1.4-1.4-1.4c-0.43,0-0.76,0.13-0.97,0.28V185.5z"/>
		<path class="st0" d="M71.58,181.27c1.59,0,2.81,1.13,2.81,2.79c0,1.67-1.21,2.79-2.81,2.79c-1.6,0-2.79-1.13-2.79-2.79
			C68.78,182.4,69.98,181.27,71.58,181.27z M71.58,182.52c-0.78,0-1.34,0.59-1.34,1.55s0.56,1.55,1.34,1.55
			c0.78,0,1.34-0.59,1.34-1.55S72.35,182.52,71.58,182.52z"/>
		<path class="st0" d="M75.45,182.97h3.23v1.28h-3.23V182.97z"/>
		<path class="st0" d="M84.1,183.03c-0.44-0.36-0.88-0.49-1.37-0.49c-0.89,0-1.52,0.55-1.52,1.51c0,0.91,0.61,1.54,1.58,1.54
			c0.5,0,0.95-0.17,1.36-0.48v1.35c-0.48,0.29-1.01,0.4-1.56,0.4c-1.73,0-2.83-1.1-2.83-2.78c0-1.69,1.19-2.81,2.82-2.81
			c0.61,0,1.07,0.12,1.52,0.4V183.03z"/>
		<path class="st0" d="M87.76,181.27c1.59,0,2.81,1.13,2.81,2.79c0,1.67-1.21,2.79-2.81,2.79c-1.6,0-2.79-1.13-2.79-2.79
			C84.97,182.4,86.17,181.27,87.76,181.27z M87.76,182.52c-0.78,0-1.34,0.59-1.34,1.55s0.56,1.55,1.34,1.55
			c0.78,0,1.34-0.59,1.34-1.55S88.54,182.52,87.76,182.52z"/>
		<path class="st0" d="M91.72,181.74c0.76-0.29,1.75-0.47,2.55-0.47c1.39,0,2.29,0.52,2.29,2.11v3.36h-1.45v-3.26
			c0-0.6-0.32-0.91-0.95-0.91c-0.35,0-0.71,0.06-1.01,0.16v4.02h-1.44V181.74z"/>
		<path class="st0" d="M97.32,181.39h0.8v-1.32h1.44v1.32h1.52v1.2h-1.52v2.15c0,0.61,0.29,0.8,0.72,0.8c0.36,0,0.67-0.11,0.98-0.3
			v1.32c-0.38,0.2-0.84,0.3-1.38,0.3c-0.92,0-1.76-0.44-1.76-1.74v-2.53h-0.8V181.39z"/>
		<path class="st0" d="M103.8,186.74h-1.44v-4.94c0.59-0.31,1.36-0.49,2.13-0.49c0.42,0,0.72,0.04,1.12,0.14v1.39
			c-0.35-0.14-0.73-0.18-1.08-0.18c-0.26,0-0.5,0.05-0.73,0.12V186.74z"/>
		<path class="st0" d="M108.93,181.27c1.59,0,2.81,1.13,2.81,2.79c0,1.67-1.21,2.79-2.81,2.79c-1.6,0-2.79-1.13-2.79-2.79
			C106.14,182.4,107.34,181.27,108.93,181.27z M108.93,182.52c-0.78,0-1.34,0.59-1.34,1.55s0.56,1.55,1.34,1.55
			c0.78,0,1.34-0.59,1.34-1.55S109.71,182.52,108.93,182.52z"/>
		<path class="st0" d="M114.33,186.74h-1.44v-8.16h1.44V186.74z"/>
		<path class="st0" d="M117.33,186.74h-1.44v-8.16h1.44V186.74z"/>
		<path class="st0" d="M119.9,184.46v0.02c0.11,0.76,0.85,1.14,1.57,1.14s1.26-0.17,1.79-0.48v1.22c-0.49,0.35-1.21,0.49-1.93,0.49
			c-1.74,0-2.83-1.07-2.83-2.73c0-1.76,1.12-2.85,2.61-2.85c1.67,0,2.32,1.1,2.32,2.52v0.67H119.9z M122.08,183.6
			c-0.01-0.66-0.32-1.14-1.01-1.14c-0.62,0-1.03,0.44-1.16,1.14H122.08z"/>
		<path class="st0" d="M129.57,186.61c-0.64,0.17-1.46,0.25-2.18,0.25c-1.85,0-3.07-0.98-3.07-2.78c0-1.7,1.14-2.81,2.81-2.81
			c0.37,0,0.77,0.05,1.01,0.17v-2.85h1.44V186.61z M128.13,182.71c-0.23-0.11-0.53-0.17-0.89-0.17c-0.88,0-1.46,0.54-1.46,1.49
			c0,1.02,0.64,1.6,1.66,1.6c0.18,0,0.46-0.01,0.7-0.06V182.71z"/>
		<path class="st0" d="M133.1,184.83c0.54,0.41,1.14,0.73,1.93,0.73c0.61,0,1.15-0.22,1.15-0.8c0-0.54-0.44-0.74-1.19-0.96
			c-1.43-0.4-2.01-1-2.01-2.19c0-1.35,1.06-2.11,2.38-2.11c0.8,0,1.39,0.2,1.89,0.53v1.5c-0.56-0.46-1.14-0.73-1.85-0.73
			c-0.61,0-0.95,0.3-0.95,0.74c0,0.5,0.41,0.71,1.24,0.94c1.43,0.41,1.98,1.04,1.98,2.24c0,1.49-1.17,2.15-2.64,2.15
			c-0.78,0-1.47-0.22-1.93-0.52V184.83z"/>
		<path class="st0" d="M138.18,181.39h0.8v-1.32h1.44v1.32h1.52v1.2h-1.52v2.15c0,0.61,0.29,0.8,0.72,0.8c0.36,0,0.67-0.11,0.98-0.3
			v1.32c-0.38,0.2-0.84,0.3-1.38,0.3c-0.92,0-1.76-0.44-1.76-1.74v-2.53h-0.8V181.39z"/>
		<path class="st0" d="M147.82,186.58c-0.61,0.17-1.54,0.28-2.21,0.28c-1.55,0-2.52-0.48-2.52-2.06v-3.41h1.45v3.29
			c0,0.68,0.3,1,1.05,1c0.2,0,0.5-0.02,0.77-0.07v-4.21h1.45V186.58z"/>
		<path class="st0" d="M154.24,186.61c-0.64,0.17-1.46,0.25-2.18,0.25c-1.85,0-3.07-0.98-3.07-2.78c0-1.7,1.14-2.81,2.81-2.81
			c0.37,0,0.77,0.05,1.01,0.17v-2.85h1.44V186.61z M152.8,182.71c-0.23-0.11-0.53-0.17-0.89-0.17c-0.88,0-1.46,0.54-1.46,1.49
			c0,1.02,0.64,1.6,1.66,1.6c0.18,0,0.46-0.01,0.7-0.06V182.71z"/>
		<path class="st0" d="M155.66,179.77c0-0.49,0.38-0.88,0.86-0.88c0.47,0,0.86,0.38,0.86,0.88c0,0.47-0.4,0.85-0.86,0.85
			C156.04,180.62,155.66,180.24,155.66,179.77z M157.24,186.74h-1.44v-5.35h1.44V186.74z"/>
		<path class="st0" d="M159.81,184.46v0.02c0.11,0.76,0.85,1.14,1.57,1.14s1.26-0.17,1.79-0.48v1.22c-0.49,0.35-1.21,0.49-1.93,0.49
			c-1.74,0-2.83-1.07-2.83-2.73c0-1.76,1.12-2.85,2.61-2.85c1.67,0,2.32,1.1,2.32,2.52v0.67H159.81z M161.99,183.6
			c-0.01-0.66-0.32-1.14-1.01-1.14c-0.62,0-1.03,0.44-1.16,1.14H161.99z"/>
		<path class="st0" d="M164.37,185.1c0.5,0.37,1.17,0.6,1.7,0.6c0.44,0,0.74-0.13,0.74-0.47c0-0.32-0.23-0.46-0.82-0.58
			c-1.21-0.22-1.71-0.7-1.71-1.67c0-1.18,0.89-1.71,2.04-1.71c0.64,0,1.1,0.13,1.57,0.4v1.28c-0.5-0.34-0.97-0.52-1.52-0.52
			c-0.48,0-0.68,0.2-0.68,0.46c0,0.28,0.19,0.42,0.7,0.54c1.38,0.25,1.85,0.78,1.85,1.74c0,1.16-0.88,1.69-2.12,1.69
			c-0.65,0-1.31-0.16-1.74-0.43V185.1z"/>
	</g>
</g>
<path class="st3" d="M179.23,282.23H25.77c-9.42,0-17.05-7.63-17.05-17.05v-172c0-9.42,7.63-17.05,17.05-17.05h153.45
	c9.42,0,17.05,7.63,17.05,17.05v172C196.28,274.6,188.64,282.23,179.23,282.23z"/>
<circle class="st4" cx="102.5" cy="76.13" r="38.9"/>
<g>
	<rect x="79.14" y="51.22" class="st5" width="46.72" height="49.83"/>
	<line class="st5" x1="105.98" y1="92.63" x2="117.98" y2="92.63"/>
	<line class="st5" x1="105.98" y1="82.28" x2="117.98" y2="82.28"/>
	<line class="st5" x1="105.98" y1="71.93" x2="117.98" y2="71.93"/>
	<line class="st5" x1="105.98" y1="61.58" x2="117.98" y2="61.58"/>
	<polyline class="st5" points="89.08,61.58 92.19,64.09 99.34,57.95 	"/>
	<polyline class="st5" points="89.08,71.93 92.19,74.44 99.34,68.3 	"/>
	<polyline class="st5" points="89.08,82.28 92.19,84.79 99.34,78.65 	"/>
	<polyline class="st5" points="89.08,92.63 92.19,95.14 99.34,89 	"/>
</g>
</svg>
