<?xml version="1.0" encoding="utf-8"?>
<!-- Generator: Adobe Illustrator 24.1.3, SVG Export Plug-In . SVG Version: 6.00 Build 0)  -->
<svg version="1.1" id="Layer_1" xmlns="http://www.w3.org/2000/svg" xmlns:xlink="http://www.w3.org/1999/xlink" x="0px" y="0px"
	 viewBox="0 0 260.79 120.58" style="enable-background:new 0 0 260.79 120.58;" xml:space="preserve">
<style type="text/css">
	.st0{fill:#00417B;}
	.st1{fill:#FFFFFF;}
	.st2{fill:none;}
	.st3{fill:none;stroke:#00417B;stroke-miterlimit:10;}
	.st4{fill:#FFFFFF;stroke:#00417B;stroke-width:1.2188;stroke-miterlimit:10;}
	.st5{fill:#FFFFFF;stroke:#00417B;stroke-width:1.5;stroke-miterlimit:10;}
	.st6{fill-rule:evenodd;clip-rule:evenodd;fill:none;stroke:#00417B;stroke-miterlimit:10;}
	.st7{fill:none;stroke:#00417B;stroke-width:1.5;stroke-miterlimit:2.613;}
	.st8{fill-rule:evenodd;clip-rule:evenodd;fill:#00417B;}
	.st9{fill-rule:evenodd;clip-rule:evenodd;fill:#868686;}
	.st10{fill:none;stroke:#868686;stroke-miterlimit:2.613;}
	.st11{fill:none;stroke:#00417B;stroke-miterlimit:2.613;}
	.st12{fill:#333333;}
	.st13{fill:none;stroke:#00417B;stroke-width:0.75;stroke-miterlimit:10;}
	.st14{fill:#868686;}
	.st15{fill:none;stroke:#00417B;stroke-miterlimit:8;}
	.st16{fill:#4CA5DD;}
</style>
<path class="st0" d="M201.66,28.5H36.07c-6.07,0-10.98-4.92-10.98-10.98v-2.75c0-6.07,4.92-10.98,10.98-10.98h165.59
	c6.07,0,10.98,4.92,10.98,10.98v2.75C212.64,23.59,207.73,28.5,201.66,28.5z"/>
<g>
	<g>
		<path class="st1" d="M69.04,20.85h-2.01v-8.02h2.01V20.85z"/>
		<path class="st1" d="M70.69,15.2c0.88-0.35,2.08-0.57,3.02-0.57c1.59,0,2.65,0.58,2.65,2.5v3.71h-1.92v-3.63
			c0-0.49-0.2-0.86-0.86-0.86c-0.31,0-0.68,0.04-0.97,0.15v4.35h-1.92V15.2z"/>
		<path class="st1" d="M82.42,16.86c-0.5-0.42-0.96-0.55-1.51-0.55c-0.92,0-1.51,0.55-1.51,1.49c0,0.86,0.57,1.51,1.58,1.51
			c0.55,0,1.05-0.18,1.47-0.53v1.76c-0.51,0.34-1.12,0.45-1.76,0.45c-2.04,0-3.23-1.27-3.23-3.16c0-1.88,1.31-3.19,3.23-3.19
			c0.7,0,1.22,0.14,1.73,0.45V16.86z"/>
		<path class="st1" d="M85.66,20.85h-1.92v-9.18h1.92V20.85z"/>
		<path class="st1" d="M92.71,20.63c-0.69,0.22-1.84,0.35-2.63,0.35c-1.75,0-2.89-0.53-2.89-2.42v-3.79h1.92v3.62
			c0,0.66,0.15,1.03,0.97,1.03c0.16,0,0.46-0.03,0.72-0.08v-4.56h1.92V20.63z"/>
		<path class="st1" d="M94.16,18.8c0.61,0.41,1.45,0.66,2.01,0.66c0.42,0,0.72-0.11,0.72-0.38c0-0.24-0.18-0.38-0.74-0.46
			c-1.47-0.2-2.09-0.78-2.09-1.93c0-1.42,1.08-2.05,2.46-2.05c0.77,0,1.28,0.16,1.82,0.46v1.63c-0.59-0.38-1.15-0.57-1.74-0.57
			c-0.51,0-0.67,0.19-0.67,0.39c0,0.23,0.17,0.35,0.62,0.42c1.74,0.28,2.21,0.95,2.21,2.04c0,1.35-1.01,1.97-2.52,1.97
			c-0.74,0-1.53-0.18-2.07-0.5V18.8z"/>
		<path class="st1" d="M99.87,12.95c0-0.62,0.5-1.11,1.11-1.11c0.58,0,1.09,0.49,1.09,1.11c0,0.61-0.51,1.09-1.09,1.09
			C100.37,14.04,99.87,13.56,99.87,12.95z M101.94,20.85h-1.92v-6.08h1.92V20.85z"/>
		<path class="st1" d="M106.36,14.64c1.82,0,3.23,1.28,3.23,3.17s-1.4,3.17-3.23,3.17c-1.81,0-3.21-1.28-3.21-3.17
			S104.55,14.64,106.36,14.64z M106.36,16.28c-0.74,0-1.28,0.57-1.28,1.53c0,0.96,0.54,1.53,1.28,1.53c0.76,0,1.3-0.57,1.3-1.53
			C107.65,16.85,107.11,16.28,106.36,16.28z"/>
		<path class="st1" d="M110.78,15.2c0.88-0.35,2.08-0.57,3.02-0.57c1.59,0,2.65,0.58,2.65,2.5v3.71h-1.92v-3.63
			c0-0.49-0.2-0.86-0.86-0.86c-0.31,0-0.68,0.04-0.97,0.15v4.35h-1.92V15.2z"/>
		<path class="st1" d="M126.5,15.35c-0.5-0.5-1.24-0.85-2.17-0.85c-1.32,0-2.08,0.97-2.08,2.34c0,1.42,0.86,2.34,2.16,2.34
			c0.96,0,1.55-0.28,2.25-0.84v2.05c-0.78,0.47-1.53,0.59-2.35,0.59c-2.53,0-4.13-1.72-4.13-4.15c0-2.44,1.65-4.15,4.13-4.15
			c0.82,0,1.54,0.13,2.19,0.51V15.35z"/>
		<path class="st1" d="M129.93,20.85h-1.92v-5.63c0.67-0.35,1.59-0.54,2.48-0.54c0.53,0,0.86,0.04,1.35,0.18v1.85
			c-0.41-0.18-0.84-0.23-1.27-0.23c-0.2,0-0.42,0.03-0.65,0.08V20.85z"/>
		<path class="st1" d="M132.71,12.95c0-0.62,0.5-1.11,1.11-1.11c0.58,0,1.09,0.49,1.09,1.11c0,0.61-0.51,1.09-1.09,1.09
			C133.21,14.04,132.71,13.56,132.71,12.95z M134.77,20.85h-1.92v-6.08h1.92V20.85z"/>
		<path class="st1" d="M135.59,14.77h0.9v-1.5h1.9v1.5h1.74v1.59h-1.74v2c0,0.68,0.34,0.85,0.8,0.85c0.42,0,0.78-0.12,1.11-0.34
			v1.76c-0.46,0.24-1.01,0.35-1.65,0.35c-1.11,0-2.16-0.53-2.16-2.07v-2.55h-0.9V14.77z"/>
		<path class="st1" d="M142.87,18.4v0.03c0.16,0.65,0.93,0.92,1.63,0.92c0.8,0,1.42-0.18,2.01-0.49v1.58
			c-0.57,0.38-1.4,0.54-2.23,0.54c-2.05,0-3.27-1.22-3.27-3.08c0-2.05,1.27-3.27,3-3.27c2.01,0,2.66,1.36,2.66,2.94v0.82H142.87z
			 M144.92,17.32c0-0.58-0.24-1.12-0.95-1.12c-0.62,0-0.99,0.46-1.09,1.12H144.92z"/>
		<path class="st1" d="M149.91,20.85h-1.92v-5.63c0.67-0.35,1.59-0.54,2.48-0.54c0.53,0,0.86,0.04,1.35,0.18v1.85
			c-0.41-0.18-0.84-0.23-1.27-0.23c-0.2,0-0.42,0.03-0.65,0.08V20.85z"/>
		<path class="st1" d="M152.68,12.95c0-0.62,0.5-1.11,1.11-1.11c0.58,0,1.09,0.49,1.09,1.11c0,0.61-0.51,1.09-1.09,1.09
			C153.18,14.04,152.68,13.56,152.68,12.95z M154.75,20.85h-1.92v-6.08h1.92V20.85z"/>
		<path class="st1" d="M159.34,16.97c0-0.53-0.47-0.72-1.03-0.72c-0.72,0-1.28,0.22-1.74,0.5v-1.62c0.55-0.32,1.3-0.5,2.09-0.5
			c1.46,0,2.57,0.55,2.57,2.26v3.82c-0.59,0.14-1.62,0.27-2.48,0.27c-1.5,0-2.71-0.45-2.71-1.9c0-1.28,1-1.86,2.66-1.86h0.65V16.97z
			 M159.34,18.38h-0.51c-0.59,0-0.89,0.19-0.89,0.61c0,0.42,0.3,0.62,0.78,0.62c0.16,0,0.43-0.01,0.62-0.05V18.38z"/>
		<path class="st1" d="M162.18,12.03c0.42-0.32,0.9-0.43,1.37-0.43c0.87,0,1.44,0.45,1.44,1.24c0,0.61-0.32,0.94-0.76,1.15
			c0.55,0.18,0.85,0.54,0.85,1.11c0,0.97-0.87,1.33-1.69,1.33c-0.6,0-0.98-0.15-1.3-0.35V15c0.28,0.24,0.7,0.47,1.2,0.47
			c0.35,0,0.62-0.14,0.62-0.46c0-0.39-0.32-0.52-0.98-0.52v-0.91c0.61,0,0.89-0.21,0.89-0.57c0-0.28-0.2-0.4-0.47-0.4
			c-0.42,0-0.87,0.26-1.17,0.5V12.03z"/>
		<path class="st1" d="M166.84,15.37c0,0.91-0.36,1.52-0.82,1.87h-0.8c0.38-0.58,0.49-1.17,0.49-1.87H166.84z"/>
		<path class="st1" d="M170.61,14.37h0.63v0.91h-0.63v1.07h-1.12v-1.07h-2.19v-0.94l2.2-2.66h1.11V14.37z M168.4,14.37h1.09v-1.35
			L168.4,14.37z"/>
	</g>
</g>
<g>
	<g>
		<path class="st0" d="M8.77,37.92c0.6,0,1.08,0.48,1.08,1.08s-0.48,1.08-1.08,1.08S7.69,39.6,7.69,39S8.17,37.92,8.77,37.92z"/>
		<path class="st0" d="M19.5,40.14l-0.74,1.97h-0.77l2.76-7.12h0.95l2.79,7.12H23.7l-0.74-1.97H19.5z M21.21,35.58l-1.49,3.93h2.99
			L21.21,35.58z"/>
		<path class="st0" d="M29.17,41.93c-0.18,0.12-0.66,0.23-1.08,0.23c-1.71,0-2.91-0.9-2.91-2.69c0-1.69,1.17-2.71,3.01-2.71
			c0.54,0,1.26,0.14,1.7,0.34v5.07c0,1.6-1.2,2.22-2.4,2.22c-0.64,0-1.24-0.14-1.62-0.32v-0.68c0.46,0.22,1.06,0.4,1.62,0.4
			c0.86,0,1.68-0.42,1.68-1.74V41.93z M29.17,37.57c-0.29-0.1-0.61-0.16-0.98-0.16c-1.45,0-2.29,0.77-2.29,2.05
			c0,1.26,0.84,2.05,2.19,2.05c0.43,0,0.72-0.07,1.08-0.2V37.57z"/>
		<path class="st0" d="M31.96,39.53v0.02c0,1.28,0.92,2.04,1.94,2.04c0.74,0,1.26-0.19,1.79-0.59v0.72c-0.47,0.35-1.14,0.5-1.79,0.5
			c-1.51,0-2.66-1.03-2.66-2.73c0-1.57,1.08-2.73,2.48-2.73c1.32,0,2.2,0.79,2.2,2.28v0.49H31.96z M35.19,38.93
			c-0.05-1.09-0.64-1.54-1.51-1.54c-0.82,0-1.47,0.55-1.68,1.54H35.19z"/>
		<path class="st0" d="M38.87,35.27l2.22-0.4v7.23h-0.73v-6.42l-1.49,0.23V35.27z"/>
		<path class="st0" d="M42.82,40.17c0-1.03,0.83-1.7,1.56-1.85c-0.61-0.18-1.15-0.76-1.15-1.6c0-1.21,0.91-1.86,1.97-1.86
			s1.97,0.65,1.97,1.86c0,0.84-0.54,1.42-1.15,1.6c0.73,0.14,1.56,0.82,1.56,1.85c0,1.32-1.06,2.06-2.38,2.06
			S42.82,41.49,42.82,40.17z M46.81,40.17c0-0.96-0.73-1.54-1.62-1.54s-1.62,0.58-1.62,1.54c0,0.98,0.73,1.46,1.62,1.46
			S46.81,41.15,46.81,40.17z M46.45,36.71c0-0.79-0.58-1.27-1.26-1.27s-1.26,0.48-1.26,1.27c0,0.78,0.58,1.25,1.26,1.25
			S46.45,37.49,46.45,36.71z"/>
		<path class="st0" d="M48.89,38.68h2.58v0.65h-2.58V38.68z"/>
		<path class="st0" d="M56.06,34.98l-1.57,2.39l-0.61,0.86c0.37-0.44,0.86-0.65,1.47-0.65c1.19,0,2.27,0.82,2.27,2.31
			c0,1.25-0.89,2.33-2.43,2.33c-1.52,0-2.38-1.08-2.38-2.33c0-0.86,0.34-1.62,0.84-2.4l1.63-2.52H56.06z M55.2,41.63
			c0.97,0,1.69-0.66,1.69-1.72c0-1.03-0.71-1.7-1.68-1.7c-0.95,0-1.67,0.67-1.67,1.7C53.54,40.97,54.28,41.63,55.2,41.63z"/>
		<path class="st0" d="M62.6,39.52h1.35v0.61H62.6v1.98h-0.71v-1.98h-3.53v-0.61l3.37-4.53h0.86V39.52z M59.14,39.52h2.76v-3.75
			L59.14,39.52z"/>
		<path class="st0" d="M69.02,41.64l1.73-4.76h0.74l-2.83,7.39h-0.71l0.71-1.81l-2.18-5.58h0.79L69.02,41.64z"/>
		<path class="st0" d="M72.78,39.53v0.02c0,1.28,0.92,2.04,1.94,2.04c0.74,0,1.26-0.19,1.79-0.59v0.72c-0.47,0.35-1.14,0.5-1.79,0.5
			c-1.51,0-2.66-1.03-2.66-2.73c0-1.57,1.08-2.73,2.48-2.73c1.32,0,2.2,0.79,2.2,2.28v0.49H72.78z M76.02,38.93
			c-0.05-1.09-0.64-1.54-1.51-1.54c-0.82,0-1.47,0.55-1.68,1.54H76.02z"/>
		<path class="st0" d="M80.89,38.45c0-0.67-0.43-1.02-1.1-1.02c-0.6,0-1.06,0.17-1.54,0.42v-0.68c0.44-0.24,1.01-0.41,1.62-0.41
			c1.05,0,1.74,0.47,1.74,1.64v3.61c-0.48,0.13-1.04,0.19-1.49,0.19c-1.42,0-2.36-0.44-2.36-1.55c0-1.03,0.95-1.57,2.54-1.57h0.59
			V38.45z M80.89,39.67h-0.54c-1.08,0-1.87,0.29-1.87,0.98s0.72,0.95,1.68,0.95c0.22,0,0.48-0.02,0.73-0.07V39.67z"/>
		<path class="st0" d="M84.05,42.11h-0.72v-4.75c0.55-0.35,1.22-0.56,1.94-0.56c0.29,0,0.58,0.04,0.88,0.11v0.71
			c-0.31-0.11-0.68-0.13-0.92-0.13c-0.52,0-0.9,0.11-1.18,0.26V42.11z"/>
		<path class="st0" d="M87.04,40.99c0.44,0.4,0.9,0.62,1.47,0.62c0.66,0,1.08-0.25,1.08-0.84c0-0.62-0.46-0.79-1.28-1.07
			c-0.92-0.31-1.32-0.7-1.32-1.54c0-0.92,0.7-1.42,1.64-1.42c0.52,0,1.02,0.11,1.43,0.4v0.78c-0.41-0.34-0.83-0.56-1.43-0.56
			c-0.58,0-0.95,0.31-0.95,0.8c0,0.48,0.29,0.73,1.09,0.98c0.91,0.28,1.52,0.62,1.52,1.57c0,1.03-0.8,1.5-1.79,1.5
			c-0.59,0-1.15-0.17-1.47-0.42V40.99z"/>
		<path class="st0" d="M8.77,52.57c0.6,0,1.08,0.48,1.08,1.08s-0.48,1.08-1.08,1.08s-1.08-0.48-1.08-1.08S8.17,52.57,8.77,52.57z"/>
		<path class="st0" d="M18.89,49.61c0.53-0.06,1.02-0.1,1.46-0.1c3.26,0,4.37,1.69,4.37,3.51c0,2-1.16,3.85-4.27,3.85
			c-0.6,0-1.05-0.05-1.56-0.11V49.61z M19.63,56.18c0.29,0.04,0.56,0.05,0.83,0.05c2.04,0,3.48-1.02,3.48-3.19
			c0-1.68-1.07-2.85-3.61-2.85c-0.23,0-0.44,0.01-0.7,0.04V56.18z"/>
		<path class="st0" d="M25.76,55.51c0.58,0.46,1.09,0.73,1.81,0.73c0.85,0,1.58-0.37,1.58-1.31c0-0.85-0.64-1.18-1.49-1.49
			c-1.27-0.47-1.96-0.89-1.96-2.1c0-1.21,1.01-1.83,2.07-1.83c0.7,0,1.27,0.22,1.7,0.56v0.77c-0.58-0.46-1.05-0.7-1.7-0.7
			c-0.8,0-1.35,0.48-1.35,1.21c0,0.68,0.41,1.02,1.44,1.38c1.32,0.46,2.02,0.95,2.02,2.19c0,1.31-1.03,1.94-2.32,1.94
			c-0.77,0-1.38-0.22-1.81-0.55V55.51z"/>
		<path class="st0" d="M34.68,56.75l-1.96-6.42l-1.09,6.42h-0.72l1.27-7.12h1L35.12,56l1.94-6.37h1l1.27,7.12h-0.74l-1.09-6.42
			l-1.95,6.42H34.68z"/>
		<path class="st0" d="M40.56,53.32h2.58v0.65h-2.58V53.32z"/>
		<path class="st0" d="M45.22,52.36c1.63,0.2,2.9,0.82,2.9,2.41c0,1.09-0.78,2.1-2.48,2.1c-0.62,0-1.2-0.18-1.61-0.46v-0.7
			c0.5,0.34,1.04,0.54,1.59,0.54c1.15,0,1.75-0.61,1.75-1.49c0-1.3-1.22-1.69-2.84-1.87l0.23-3.27h3.18v0.65h-2.58L45.22,52.36z"/>
		<path class="st0" d="M56.13,56.68c-0.56,0.13-1.15,0.19-1.7,0.19c-1.81,0-3.03-0.98-3.03-2.73c0-1.76,1.32-2.73,2.88-2.73
			c0.4,0,0.88,0.08,1.14,0.24V48.6h0.72V56.68z M55.41,52.29c-0.26-0.14-0.66-0.24-1.14-0.24c-1.21,0-2.15,0.74-2.15,2.09
			c0,1.33,0.92,2.1,2.3,2.1c0.34,0,0.67-0.01,0.98-0.06V52.29z"/>
		<path class="st0" d="M57.75,49.89c0-0.3,0.25-0.54,0.54-0.54c0.3,0,0.54,0.24,0.54,0.54c0,0.29-0.24,0.54-0.54,0.54
			C58.01,50.43,57.75,50.18,57.75,49.89z M58.65,56.75h-0.72v-5.23h0.72V56.75z"/>
		<path class="st0" d="M63.16,53.1c0-0.67-0.43-1.02-1.1-1.02c-0.6,0-1.06,0.17-1.54,0.42v-0.68c0.44-0.24,1.01-0.41,1.62-0.41
			c1.05,0,1.74,0.47,1.74,1.64v3.61c-0.48,0.13-1.04,0.19-1.49,0.19c-1.42,0-2.36-0.44-2.36-1.55c0-1.03,0.95-1.57,2.54-1.57h0.59
			V53.1z M63.16,54.32h-0.54c-1.08,0-1.87,0.29-1.87,0.98s0.72,0.95,1.68,0.95c0.22,0,0.48-0.02,0.73-0.07V54.32z"/>
		<path class="st0" d="M69.2,56.57c-0.18,0.12-0.66,0.23-1.08,0.23c-1.71,0-2.91-0.9-2.91-2.69c0-1.69,1.17-2.71,3.01-2.71
			c0.54,0,1.26,0.14,1.7,0.34v5.07c0,1.6-1.2,2.22-2.4,2.22c-0.64,0-1.24-0.14-1.62-0.32v-0.68c0.46,0.22,1.06,0.4,1.62,0.4
			c0.86,0,1.68-0.42,1.68-1.74V56.57z M69.2,52.22c-0.29-0.1-0.61-0.16-0.98-0.16c-1.45,0-2.29,0.77-2.29,2.05
			c0,1.26,0.84,2.05,2.19,2.05c0.43,0,0.72-0.07,1.08-0.2V52.22z"/>
		<path class="st0" d="M71.72,51.8c0.7-0.25,1.49-0.4,2.2-0.4c1.32,0,2.12,0.52,2.12,1.82v3.53h-0.72v-3.38
			c0-1.07-0.75-1.29-1.46-1.29c-0.55,0-1.04,0.1-1.42,0.19v4.49h-0.72V51.8z"/>
		<path class="st0" d="M80.01,51.41c1.56,0,2.63,1.12,2.63,2.73s-1.07,2.73-2.63,2.73c-1.56,0-2.63-1.12-2.63-2.73
			S78.45,51.41,80.01,51.41z M80.01,52.03c-1.1,0-1.89,0.84-1.89,2.11c0,1.27,0.79,2.11,1.89,2.11c1.1,0,1.9-0.84,1.9-2.11
			C81.91,52.87,81.11,52.03,80.01,52.03z"/>
		<path class="st0" d="M83.73,55.64c0.44,0.4,0.9,0.62,1.47,0.62c0.66,0,1.08-0.25,1.08-0.84c0-0.62-0.46-0.79-1.28-1.07
			c-0.92-0.31-1.32-0.7-1.32-1.54c0-0.92,0.7-1.42,1.64-1.42c0.52,0,1.02,0.11,1.43,0.4v0.78c-0.41-0.34-0.83-0.56-1.43-0.56
			c-0.58,0-0.95,0.31-0.95,0.8c0,0.48,0.29,0.73,1.09,0.98c0.91,0.28,1.52,0.62,1.52,1.57c0,1.03-0.8,1.5-1.79,1.5
			c-0.59,0-1.15-0.17-1.47-0.42V55.64z"/>
		<path class="st0" d="M88.26,49.89c0-0.3,0.25-0.54,0.54-0.54c0.3,0,0.54,0.24,0.54,0.54c0,0.29-0.24,0.54-0.54,0.54
			C88.51,50.43,88.26,50.18,88.26,49.89z M89.16,56.75h-0.72v-5.23h0.72V56.75z"/>
		<path class="st0" d="M90.64,55.64c0.44,0.4,0.9,0.62,1.47,0.62c0.66,0,1.08-0.25,1.08-0.84c0-0.62-0.46-0.79-1.28-1.07
			c-0.92-0.31-1.32-0.7-1.32-1.54c0-0.92,0.7-1.42,1.64-1.42c0.52,0,1.02,0.11,1.43,0.4v0.78c-0.41-0.34-0.83-0.56-1.43-0.56
			c-0.58,0-0.95,0.31-0.95,0.8c0,0.48,0.29,0.73,1.09,0.98c0.91,0.28,1.52,0.62,1.52,1.57c0,1.03-0.8,1.5-1.79,1.5
			c-0.59,0-1.15-0.17-1.47-0.42V55.64z"/>
		<path class="st0" d="M99.86,51.41c1.56,0,2.63,1.12,2.63,2.73s-1.07,2.73-2.63,2.73c-1.56,0-2.63-1.12-2.63-2.73
			S98.3,51.41,99.86,51.41z M99.86,52.03c-1.1,0-1.89,0.84-1.89,2.11c0,1.27,0.79,2.11,1.89,2.11c1.1,0,1.9-0.84,1.9-2.11
			C101.75,52.87,100.96,52.03,99.86,52.03z"/>
		<path class="st0" d="M104.75,56.75h-0.72v-4.62h-0.8v-0.61h0.8v-1.31c0-1.09,0.56-1.74,1.61-1.74c0.4,0,0.68,0.08,0.94,0.26v0.68
			c-0.25-0.18-0.54-0.31-0.92-0.31c-0.55,0-0.9,0.26-0.9,1.12v1.3h1.44v0.61h-1.44V56.75z"/>
		<path class="st0" d="M112.65,56.75l-1.96-6.42l-1.09,6.42h-0.72l1.27-7.12h1l1.94,6.37l1.94-6.37h1l1.27,7.12h-0.74l-1.09-6.42
			l-1.95,6.42H112.65z"/>
		<path class="st0" d="M118.71,49.61c0.53-0.06,1.02-0.1,1.46-0.1c3.26,0,4.37,1.69,4.37,3.51c0,2-1.16,3.85-4.27,3.85
			c-0.6,0-1.05-0.05-1.56-0.11V49.61z M119.45,56.18c0.29,0.04,0.56,0.05,0.83,0.05c2.04,0,3.48-1.02,3.48-3.19
			c0-1.68-1.07-2.85-3.61-2.85c-0.23,0-0.44,0.01-0.7,0.04V56.18z"/>
		<path class="st0" d="M126.1,49.61c0.53-0.06,1.02-0.1,1.46-0.1c3.26,0,4.37,1.69,4.37,3.51c0,2-1.16,3.85-4.27,3.85
			c-0.6,0-1.05-0.05-1.56-0.11V49.61z M126.85,56.18c0.29,0.04,0.56,0.05,0.83,0.05c2.04,0,3.48-1.02,3.48-3.19
			c0-1.68-1.07-2.85-3.61-2.85c-0.23,0-0.44,0.01-0.7,0.04V56.18z"/>
		<path class="st0" d="M8.77,67.21c0.6,0,1.08,0.48,1.08,1.08s-0.48,1.08-1.08,1.08s-1.08-0.48-1.08-1.08S8.17,67.21,8.77,67.21z"/>
		<path class="st0" d="M18.37,70.15c0.58,0.46,1.09,0.73,1.81,0.73c0.85,0,1.58-0.37,1.58-1.31c0-0.85-0.63-1.18-1.49-1.49
			c-1.27-0.47-1.96-0.89-1.96-2.1s1.01-1.83,2.07-1.83c0.7,0,1.27,0.22,1.7,0.56v0.77c-0.58-0.46-1.05-0.7-1.7-0.7
			c-0.8,0-1.35,0.48-1.35,1.21c0,0.68,0.41,1.02,1.44,1.38c1.32,0.46,2.02,0.95,2.02,2.19c0,1.31-1.03,1.94-2.32,1.94
			c-0.77,0-1.38-0.22-1.81-0.55V70.15z"/>
		<path class="st0" d="M27.99,71.34c-0.64,0.12-1.28,0.18-1.82,0.18c-1.51,0-2.38-0.52-2.38-1.82v-3.53h0.72v3.49
			c0,0.98,0.78,1.24,1.61,1.24c0.36,0,0.77-0.02,1.15-0.07v-4.65h0.72V71.34z"/>
		<path class="st0" d="M29.62,64.54c0-0.3,0.25-0.54,0.54-0.54c0.3,0,0.54,0.24,0.54,0.54c0,0.29-0.24,0.54-0.54,0.54
			C29.87,65.08,29.62,64.83,29.62,64.54z M30.51,71.4h-0.72v-5.23h0.72V71.4z"/>
		<path class="st0" d="M36.13,67.2c-0.44-0.31-0.97-0.49-1.46-0.49c-1.08,0-2.01,0.72-2.01,2.09c0,1.32,0.92,2.06,2.06,2.06
			c0.55,0,1.02-0.18,1.5-0.49v0.76c-0.52,0.26-1.02,0.4-1.57,0.4c-1.46,0-2.72-1.02-2.72-2.73c0-1.75,1.29-2.73,2.71-2.73
			c0.58,0,1.03,0.13,1.5,0.4V67.2z"/>
		<path class="st0" d="M37.42,64.54c0-0.3,0.25-0.54,0.54-0.54c0.3,0,0.54,0.24,0.54,0.54c0,0.29-0.24,0.54-0.54,0.54
			C37.67,65.08,37.42,64.83,37.42,64.54z M38.31,71.4h-0.72v-5.23h0.72V71.4z"/>
		<path class="st0" d="M44.46,71.33c-0.56,0.13-1.15,0.19-1.7,0.19c-1.81,0-3.03-0.98-3.03-2.73c0-1.76,1.32-2.73,2.88-2.73
			c0.4,0,0.88,0.08,1.14,0.24v-3.05h0.72V71.33z M43.74,66.94c-0.26-0.14-0.66-0.24-1.14-0.24c-1.21,0-2.15,0.74-2.15,2.09
			c0,1.33,0.92,2.1,2.3,2.1c0.34,0,0.67-0.01,0.98-0.06V66.94z"/>
		<path class="st0" d="M48.97,67.74c0-0.67-0.43-1.02-1.1-1.02c-0.6,0-1.06,0.17-1.54,0.42v-0.68c0.44-0.24,1.01-0.41,1.62-0.41
			c1.05,0,1.74,0.47,1.74,1.64v3.61c-0.48,0.13-1.04,0.19-1.49,0.19c-1.42,0-2.36-0.44-2.36-1.55c0-1.03,0.95-1.57,2.54-1.57h0.59
			V67.74z M48.97,68.96h-0.54c-1.08,0-1.87,0.29-1.87,0.98s0.72,0.95,1.68,0.95c0.22,0,0.48-0.02,0.73-0.07V68.96z"/>
		<path class="st0" d="M52.12,71.4h-0.72v-8.16h0.72V71.4z"/>
		<path class="st0" d="M56.03,64.54c0-0.3,0.25-0.54,0.54-0.54c0.3,0,0.54,0.24,0.54,0.54c0,0.29-0.24,0.54-0.54,0.54
			C56.28,65.08,56.03,64.83,56.03,64.54z M56.92,71.4h-0.72v-5.23h0.72V71.4z"/>
		<path class="st0" d="M63.07,71.33c-0.56,0.13-1.15,0.19-1.7,0.19c-1.81,0-3.03-0.98-3.03-2.73c0-1.76,1.32-2.73,2.88-2.73
			c0.4,0,0.88,0.08,1.14,0.24v-3.05h0.72V71.33z M62.35,66.94c-0.26-0.14-0.66-0.24-1.14-0.24c-1.21,0-2.15,0.74-2.15,2.09
			c0,1.33,0.92,2.1,2.3,2.1c0.34,0,0.67-0.01,0.98-0.06V66.94z"/>
		<path class="st0" d="M65.19,68.82v0.02c0,1.28,0.92,2.04,1.94,2.04c0.74,0,1.26-0.19,1.79-0.59v0.72c-0.47,0.35-1.14,0.5-1.79,0.5
			c-1.51,0-2.66-1.03-2.66-2.73c0-1.57,1.08-2.73,2.48-2.73c1.32,0,2.2,0.79,2.2,2.28v0.49H65.19z M68.43,68.22
			c-0.05-1.09-0.64-1.54-1.51-1.54c-0.82,0-1.47,0.55-1.68,1.54H68.43z"/>
		<path class="st0" d="M73.3,67.74c0-0.67-0.43-1.02-1.1-1.02c-0.6,0-1.06,0.17-1.54,0.42v-0.68c0.44-0.24,1.01-0.41,1.62-0.41
			c1.05,0,1.74,0.47,1.74,1.64v3.61c-0.48,0.13-1.04,0.19-1.49,0.19c-1.42,0-2.36-0.44-2.36-1.55c0-1.03,0.95-1.57,2.54-1.57h0.59
			V67.74z M73.3,68.96h-0.54c-1.08,0-1.87,0.29-1.87,0.98s0.72,0.95,1.68,0.95c0.22,0,0.48-0.02,0.73-0.07V68.96z"/>
		<path class="st0" d="M75.02,66.17h0.8V64.9h0.72v1.27h1.48v0.61h-1.48v3.19c0,0.67,0.26,0.94,0.76,0.94
			c0.34,0,0.61-0.11,0.97-0.29v0.64c-0.31,0.16-0.67,0.26-1.13,0.26c-0.76,0-1.32-0.4-1.32-1.48v-3.26h-0.8V66.17z"/>
		<path class="st0" d="M79.35,64.54c0-0.3,0.25-0.54,0.54-0.54c0.3,0,0.54,0.24,0.54,0.54c0,0.29-0.24,0.54-0.54,0.54
			C79.6,65.08,79.35,64.83,79.35,64.54z M80.25,71.4h-0.72v-5.23h0.72V71.4z"/>
		<path class="st0" d="M84.28,66.05c1.56,0,2.63,1.12,2.63,2.73s-1.07,2.73-2.63,2.73c-1.56,0-2.63-1.12-2.63-2.73
			S82.72,66.05,84.28,66.05z M84.28,66.67c-1.1,0-1.89,0.84-1.89,2.11c0,1.27,0.79,2.11,1.89,2.11c1.1,0,1.9-0.84,1.9-2.11
			C86.18,67.51,85.38,66.67,84.28,66.67z"/>
		<path class="st0" d="M88.31,66.45c0.7-0.25,1.49-0.4,2.2-0.4c1.32,0,2.12,0.52,2.12,1.82v3.53h-0.72v-3.38
			c0-1.07-0.75-1.29-1.46-1.29c-0.55,0-1.04,0.1-1.42,0.19v4.49h-0.72V66.45z"/>
		<path class="st0" d="M101.22,70.74l1.31-4.57h0.72l-1.58,5.23h-0.88l-1.26-4.45l-1.26,4.45H97.4l-1.58-5.23h0.76l1.31,4.57
			l1.29-4.57h0.74L101.22,70.74z"/>
		<path class="st0" d="M104.03,64.54c0-0.3,0.25-0.54,0.54-0.54c0.3,0,0.54,0.24,0.54,0.54c0,0.29-0.24,0.54-0.54,0.54
			C104.29,65.08,104.03,64.83,104.03,64.54z M104.93,71.4h-0.72v-5.23h0.72V71.4z"/>
		<path class="st0" d="M106.01,66.17h0.8V64.9h0.72v1.27h1.48v0.61h-1.48v3.19c0,0.67,0.26,0.94,0.76,0.94
			c0.34,0,0.61-0.11,0.97-0.29v0.64c-0.31,0.16-0.67,0.26-1.13,0.26c-0.76,0-1.32-0.4-1.32-1.48v-3.26h-0.8V66.17z"/>
		<path class="st0" d="M110.53,63.24h0.72v3.08c0.4-0.14,0.98-0.28,1.54-0.28c1.26,0,2.06,0.52,2.06,1.82v3.53h-0.72v-3.38
			c0-1.07-0.75-1.29-1.46-1.29c-0.55,0-1.06,0.12-1.42,0.24v4.44h-0.72V63.24z"/>
		<path class="st0" d="M118.69,64.54c0-0.3,0.25-0.54,0.54-0.54c0.3,0,0.54,0.24,0.54,0.54c0,0.29-0.24,0.54-0.54,0.54
			C118.94,65.08,118.69,64.83,118.69,64.54z M119.58,71.4h-0.72v-5.23h0.72V71.4z"/>
		<path class="st0" d="M121.38,66.45c0.7-0.25,1.49-0.4,2.2-0.4c1.32,0,2.12,0.52,2.12,1.82v3.53h-0.72v-3.38
			c0-1.07-0.75-1.29-1.46-1.29c-0.55,0-1.04,0.1-1.42,0.19v4.49h-0.72V66.45z"/>
		<path class="st0" d="M126.72,66.17h0.8V64.9h0.72v1.27h1.48v0.61h-1.48v3.19c0,0.67,0.26,0.94,0.76,0.94
			c0.34,0,0.61-0.11,0.97-0.29v0.64c-0.31,0.16-0.67,0.26-1.13,0.26c-0.76,0-1.32-0.4-1.32-1.48v-3.26h-0.8V66.17z"/>
		<path class="st0" d="M131.44,68.82v0.02c0,1.28,0.92,2.04,1.94,2.04c0.74,0,1.26-0.19,1.79-0.59v0.72
			c-0.47,0.35-1.14,0.5-1.79,0.5c-1.51,0-2.66-1.03-2.66-2.73c0-1.57,1.08-2.73,2.48-2.73c1.32,0,2.19,0.79,2.19,2.28v0.49H131.44z
			 M134.68,68.22c-0.05-1.09-0.64-1.54-1.51-1.54c-0.82,0-1.47,0.55-1.68,1.54H134.68z"/>
		<path class="st0" d="M136.78,66.45c0.7-0.25,1.49-0.4,2.2-0.4c1.32,0,2.12,0.52,2.12,1.82v3.53h-0.72v-3.38
			c0-1.07-0.75-1.29-1.46-1.29c-0.55,0-1.04,0.1-1.42,0.19v4.49h-0.72V66.45z"/>
		<path class="st0" d="M142.12,66.17h0.8V64.9h0.72v1.27h1.48v0.61h-1.48v3.19c0,0.67,0.26,0.94,0.76,0.94
			c0.34,0,0.61-0.11,0.97-0.29v0.64c-0.31,0.16-0.67,0.26-1.13,0.26c-0.76,0-1.32-0.4-1.32-1.48v-3.26h-0.8V66.17z"/>
		<path class="st0" d="M8.77,81.86c0.6,0,1.08,0.48,1.08,1.08s-0.48,1.08-1.08,1.08s-1.08-0.48-1.08-1.08S8.17,81.86,8.77,81.86z"/>
		<path class="st0" d="M22.02,86.04l-1.96-6.42l-1.09,6.42h-0.72l1.27-7.12h1l1.94,6.37l1.94-6.37h1l1.27,7.12h-0.74l-1.09-6.42
			l-1.95,6.42H22.02z"/>
		<path class="st0" d="M28.93,84.08l-0.74,1.97h-0.77l2.76-7.12h0.95l2.79,7.12h-0.79l-0.74-1.97H28.93z M30.65,79.52l-1.49,3.93
			h2.99L30.65,79.52z"/>
		<path class="st0" d="M35.06,78.9c0.53-0.06,1.02-0.1,1.46-0.1c3.26,0,4.37,1.69,4.37,3.51c0,2-1.16,3.85-4.27,3.85
			c-0.6,0-1.05-0.05-1.56-0.11V78.9z M35.81,85.47c0.29,0.04,0.56,0.05,0.83,0.05c2.04,0,3.48-1.02,3.48-3.19
			c0-1.68-1.07-2.85-3.61-2.85c-0.23,0-0.44,0.01-0.7,0.04V85.47z"/>
		<path class="st0" d="M43.2,86.04h-0.74v-7.14c0.32-0.05,0.94-0.11,1.36-0.11c1.92,0,2.77,0.89,2.77,2.21
			c0,1.06-0.6,1.83-1.55,2.11l2.36,2.93h-0.92l-2.21-2.76H43.2V86.04z M43.2,82.67h0.74c1.17,0,1.87-0.55,1.87-1.64
			c0-0.91-0.56-1.58-2.02-1.58c-0.14,0-0.43,0.01-0.6,0.02V82.67z"/>
		<path class="st0" d="M48.08,84.8c0.58,0.46,1.09,0.73,1.81,0.73c0.85,0,1.58-0.37,1.58-1.31c0-0.85-0.63-1.18-1.49-1.49
			c-1.27-0.47-1.96-0.89-1.96-2.1c0-1.21,1.01-1.83,2.07-1.83c0.7,0,1.27,0.22,1.7,0.56v0.77c-0.58-0.46-1.05-0.7-1.7-0.7
			c-0.8,0-1.35,0.48-1.35,1.21c0,0.68,0.41,1.02,1.44,1.38c1.32,0.46,2.02,0.95,2.02,2.19c0,1.31-1.03,1.94-2.32,1.94
			c-0.77,0-1.38-0.22-1.81-0.55V84.8z"/>
		<path class="st0" d="M55.19,80.82h0.8v-1.27h0.72v1.27h1.48v0.61h-1.48v3.19c0,0.67,0.26,0.94,0.76,0.94
			c0.34,0,0.61-0.11,0.97-0.29v0.64c-0.31,0.16-0.67,0.26-1.13,0.26c-0.76,0-1.32-0.4-1.32-1.48v-3.26h-0.8V80.82z"/>
		<path class="st0" d="M61.81,80.7c1.56,0,2.63,1.12,2.63,2.73s-1.07,2.73-2.63,2.73c-1.56,0-2.63-1.12-2.63-2.73
			S60.25,80.7,61.81,80.7z M61.81,81.32c-1.1,0-1.89,0.84-1.89,2.11c0,1.27,0.79,2.11,1.89,2.11c1.1,0,1.9-0.84,1.9-2.11
			C63.7,82.16,62.91,81.32,61.81,81.32z"/>
		<path class="st0" d="M65.12,80.82h0.8v-1.27h0.72v1.27h1.48v0.61h-1.48v3.19c0,0.67,0.26,0.94,0.76,0.94
			c0.34,0,0.61-0.11,0.97-0.29v0.64c-0.31,0.16-0.67,0.26-1.13,0.26c-0.76,0-1.32-0.4-1.32-1.48v-3.26h-0.8V80.82z"/>
		<path class="st0" d="M72.34,82.39c0-0.67-0.43-1.02-1.1-1.02c-0.6,0-1.06,0.17-1.54,0.42V81.1c0.44-0.24,1.01-0.41,1.62-0.41
			c1.06,0,1.74,0.47,1.74,1.64v3.61c-0.48,0.13-1.04,0.19-1.49,0.19c-1.42,0-2.36-0.44-2.36-1.55c0-1.03,0.95-1.57,2.54-1.57h0.59
			V82.39z M72.34,83.61H71.8c-1.08,0-1.87,0.29-1.87,0.98s0.72,0.95,1.68,0.95c0.22,0,0.48-0.02,0.73-0.07V83.61z"/>
		<path class="st0" d="M75.5,86.04h-0.72v-8.16h0.72V86.04z"/>
		<path class="st0" d="M79.27,84.93c0.44,0.4,0.9,0.62,1.47,0.62c0.66,0,1.08-0.25,1.08-0.84c0-0.62-0.46-0.79-1.28-1.07
			c-0.92-0.31-1.32-0.7-1.32-1.54c0-0.92,0.7-1.42,1.64-1.42c0.52,0,1.02,0.11,1.43,0.4v0.78c-0.41-0.34-0.83-0.56-1.43-0.56
			c-0.58,0-0.95,0.31-0.95,0.8c0,0.48,0.29,0.73,1.09,0.98c0.91,0.28,1.52,0.62,1.52,1.57c0,1.03-0.8,1.5-1.79,1.5
			c-0.59,0-1.15-0.17-1.47-0.42V84.93z"/>
		<path class="st0" d="M87.73,81.85c-0.44-0.31-0.97-0.49-1.46-0.49c-1.08,0-2.01,0.72-2.01,2.09c0,1.32,0.92,2.06,2.06,2.06
			c0.55,0,1.02-0.18,1.5-0.49v0.76c-0.52,0.26-1.02,0.4-1.57,0.4c-1.46,0-2.72-1.02-2.72-2.73c0-1.75,1.29-2.73,2.71-2.73
			c0.58,0,1.03,0.13,1.5,0.4V81.85z"/>
		<path class="st0" d="M91.42,80.7c1.56,0,2.63,1.12,2.63,2.73s-1.07,2.73-2.63,2.73c-1.56,0-2.63-1.12-2.63-2.73
			S89.87,80.7,91.42,80.7z M91.42,81.32c-1.1,0-1.89,0.84-1.89,2.11c0,1.27,0.79,2.11,1.89,2.11c1.1,0,1.9-0.84,1.9-2.11
			C93.32,82.16,92.53,81.32,91.42,81.32z"/>
		<path class="st0" d="M96.18,86.04h-0.72v-4.75c0.55-0.35,1.22-0.56,1.94-0.56c0.29,0,0.58,0.04,0.88,0.11v0.71
			c-0.31-0.11-0.68-0.13-0.92-0.13c-0.52,0-0.9,0.11-1.18,0.26V86.04z"/>
		<path class="st0" d="M99.56,83.47v0.02c0,1.28,0.92,2.04,1.94,2.04c0.74,0,1.26-0.19,1.79-0.59v0.72c-0.47,0.35-1.14,0.5-1.79,0.5
			c-1.51,0-2.66-1.03-2.66-2.73c0-1.57,1.08-2.73,2.48-2.73c1.32,0,2.19,0.79,2.19,2.28v0.49H99.56z M102.8,82.87
			c-0.05-1.09-0.64-1.54-1.51-1.54c-0.82,0-1.47,0.55-1.68,1.54H102.8z"/>
		<path class="st0" d="M109.41,80.7c1.56,0,2.63,1.12,2.63,2.73s-1.07,2.73-2.63,2.73c-1.56,0-2.63-1.12-2.63-2.73
			S107.85,80.7,109.41,80.7z M109.41,81.32c-1.1,0-1.89,0.84-1.89,2.11c0,1.27,0.79,2.11,1.89,2.11c1.1,0,1.9-0.84,1.9-2.11
			C111.31,82.16,110.52,81.32,109.41,81.32z"/>
		<path class="st0" d="M114.31,86.04h-0.72v-4.62h-0.8v-0.61h0.8v-1.31c0-1.09,0.56-1.74,1.61-1.74c0.4,0,0.68,0.08,0.94,0.26v0.68
			c-0.25-0.18-0.54-0.31-0.92-0.31c-0.55,0-0.9,0.26-0.9,1.12v1.3h1.44v0.61h-1.44V86.04z"/>
		<path class="st0" d="M121.76,82.6l-3.23,1.97v-0.79l2.08-1.22l-2.08-1.22v-0.79l3.23,1.97V82.6z"/>
		<path class="st0" d="M126.1,85.4v0.65h-4.52v-0.55c1.83-1.55,3.61-3.09,3.61-4.67c0-0.92-0.55-1.35-1.32-1.35
			c-0.92,0-1.55,0.48-2.03,0.96v-0.8c0.43-0.44,1.15-0.83,2.03-0.83c1.16,0,2.05,0.62,2.05,2.03c0,1.58-1.76,3.36-3.41,4.57H126.1z"
			/>
		<path class="st0" d="M127.04,84.1c0-1.03,0.83-1.7,1.56-1.85c-0.61-0.18-1.15-0.76-1.15-1.6c0-1.21,0.91-1.86,1.97-1.86
			s1.97,0.65,1.97,1.86c0,0.84-0.54,1.42-1.15,1.6c0.73,0.14,1.56,0.82,1.56,1.85c0,1.32-1.06,2.06-2.38,2.06
			S127.04,85.42,127.04,84.1z M131.04,84.1c0-0.96-0.73-1.54-1.62-1.54s-1.62,0.58-1.62,1.54c0,0.98,0.73,1.46,1.62,1.46
			S131.04,85.08,131.04,84.1z M130.67,80.65c0-0.79-0.58-1.27-1.26-1.27s-1.26,0.48-1.26,1.27c0,0.78,0.58,1.25,1.26,1.25
			S130.67,81.43,130.67,80.65z"/>
		<path class="st0" d="M137.68,80.7c1.56,0,2.63,1.12,2.63,2.73s-1.07,2.73-2.63,2.73c-1.56,0-2.63-1.12-2.63-2.73
			S136.12,80.7,137.68,80.7z M137.68,81.32c-1.1,0-1.89,0.84-1.89,2.11c0,1.27,0.79,2.11,1.89,2.11c1.1,0,1.9-0.84,1.9-2.11
			C139.58,82.16,138.79,81.32,137.68,81.32z"/>
		<path class="st0" d="M141.72,81.09c0.7-0.25,1.49-0.4,2.2-0.4c1.32,0,2.12,0.52,2.12,1.82v3.53h-0.72v-3.38
			c0-1.07-0.75-1.29-1.46-1.29c-0.55,0-1.04,0.1-1.42,0.19v4.49h-0.72V81.09z"/>
		<path class="st0" d="M154.4,85.97c-0.56,0.13-1.15,0.19-1.7,0.19c-1.81,0-3.03-0.98-3.03-2.73c0-1.76,1.32-2.73,2.88-2.73
			c0.4,0,0.88,0.08,1.14,0.24v-3.05h0.72V85.97z M153.68,81.58c-0.26-0.14-0.66-0.24-1.14-0.24c-1.21,0-2.15,0.74-2.15,2.09
			c0,1.33,0.92,2.1,2.3,2.1c0.34,0,0.67-0.01,0.98-0.06V81.58z"/>
		<path class="st0" d="M158.91,82.39c0-0.67-0.43-1.02-1.1-1.02c-0.6,0-1.06,0.17-1.54,0.42V81.1c0.44-0.24,1.01-0.41,1.62-0.41
			c1.06,0,1.74,0.47,1.74,1.64v3.61c-0.48,0.13-1.04,0.19-1.49,0.19c-1.42,0-2.36-0.44-2.36-1.55c0-1.03,0.95-1.57,2.54-1.57h0.59
			V82.39z M158.91,83.61h-0.54c-1.08,0-1.87,0.29-1.87,0.98s0.72,0.95,1.68,0.95c0.22,0,0.48-0.02,0.73-0.07V83.61z"/>
		<path class="st0" d="M163.05,85.58l1.73-4.76h0.74l-2.83,7.39h-0.71l0.71-1.81l-2.18-5.58h0.79L163.05,85.58z"/>
		<path class="st0" d="M168.06,79.21l2.22-0.4v7.23h-0.73v-6.42l-1.49,0.23V79.21z"/>
		<path class="st0" d="M173.25,85.08c0,1-0.56,2.04-1.19,2.45h-0.58c0.58-0.6,0.92-1.49,0.92-2.45H173.25z"/>
		<path class="st0" d="M177.45,81.03c0.48-0.18,1.15-0.34,1.82-0.34c1.8,0,2.89,0.94,2.89,2.73c0,1.7-1.13,2.73-2.84,2.73
			c-0.42,0-0.88-0.08-1.15-0.22v2.25h-0.72V81.03z M178.17,85.32c0.34,0.14,0.71,0.22,1.15,0.22c1.27,0,2.11-0.78,2.11-2.11
			c0-1.28-0.78-2.07-2.16-2.07c-0.41,0-0.83,0.05-1.1,0.14V85.32z"/>
		<path class="st0" d="M184.29,86.04h-0.72v-4.75c0.55-0.35,1.22-0.56,1.94-0.56c0.29,0,0.58,0.04,0.88,0.11v0.71
			c-0.31-0.11-0.68-0.13-0.92-0.13c-0.52,0-0.9,0.11-1.18,0.26V86.04z"/>
		<path class="st0" d="M187.68,83.47v0.02c0,1.28,0.92,2.04,1.94,2.04c0.74,0,1.26-0.19,1.79-0.59v0.72
			c-0.47,0.35-1.14,0.5-1.79,0.5c-1.51,0-2.66-1.03-2.66-2.73c0-1.57,1.08-2.73,2.48-2.73c1.32,0,2.2,0.79,2.2,2.28v0.49H187.68z
			 M190.92,82.87c-0.05-1.09-0.64-1.54-1.51-1.54c-0.82,0-1.47,0.55-1.68,1.54H190.92z"/>
		<path class="st0" d="M197.42,85.97c-0.56,0.13-1.15,0.19-1.7,0.19c-1.81,0-3.03-0.98-3.03-2.73c0-1.76,1.32-2.73,2.88-2.73
			c0.4,0,0.88,0.08,1.14,0.24v-3.05h0.72V85.97z M196.7,81.58c-0.26-0.14-0.66-0.24-1.14-0.24c-1.21,0-2.15,0.74-2.15,2.09
			c0,1.33,0.92,2.1,2.3,2.1c0.34,0,0.67-0.01,0.98-0.06V81.58z"/>
		<path class="st0" d="M201.45,80.7c1.56,0,2.63,1.12,2.63,2.73s-1.07,2.73-2.63,2.73c-1.56,0-2.63-1.12-2.63-2.73
			S199.89,80.7,201.45,80.7z M201.45,81.32c-1.1,0-1.89,0.84-1.89,2.11c0,1.27,0.79,2.11,1.89,2.11c1.1,0,1.9-0.84,1.9-2.11
			C203.35,82.16,202.55,81.32,201.45,81.32z"/>
		<path class="st0" d="M205.17,84.93c0.44,0.4,0.9,0.62,1.47,0.62c0.66,0,1.08-0.25,1.08-0.84c0-0.62-0.46-0.79-1.28-1.07
			c-0.92-0.31-1.32-0.7-1.32-1.54c0-0.92,0.7-1.42,1.64-1.42c0.52,0,1.02,0.11,1.43,0.4v0.78c-0.41-0.34-0.83-0.56-1.43-0.56
			c-0.58,0-0.95,0.31-0.95,0.8c0,0.48,0.29,0.73,1.09,0.98c0.91,0.28,1.52,0.62,1.52,1.57c0,1.03-0.8,1.5-1.79,1.5
			c-0.59,0-1.15-0.17-1.47-0.42V84.93z"/>
		<path class="st0" d="M210.14,83.47v0.02c0,1.28,0.92,2.04,1.94,2.04c0.74,0,1.26-0.19,1.79-0.59v0.72
			c-0.47,0.35-1.14,0.5-1.79,0.5c-1.51,0-2.66-1.03-2.66-2.73c0-1.57,1.08-2.73,2.48-2.73c1.32,0,2.2,0.79,2.2,2.28v0.49H210.14z
			 M213.38,82.87c-0.05-1.09-0.64-1.54-1.51-1.54c-0.82,0-1.47,0.55-1.68,1.54H213.38z"/>
		<path class="st0" d="M8.77,96.5c0.6,0,1.08,0.48,1.08,1.08s-0.48,1.08-1.08,1.08s-1.08-0.48-1.08-1.08S8.17,96.5,8.77,96.5z"/>
		<path class="st0" d="M19.63,100.69h-0.74v-7.14c0.32-0.05,0.94-0.11,1.36-0.11c1.92,0,2.77,0.89,2.77,2.21
			c0,1.06-0.6,1.83-1.55,2.11l2.36,2.93h-0.92l-2.21-2.76h-1.07V100.69z M19.63,97.32h0.74c1.17,0,1.87-0.55,1.87-1.64
			c0-0.91-0.56-1.58-2.02-1.58c-0.14,0-0.43,0.01-0.6,0.02V97.32z"/>
		<path class="st0" d="M25.06,98.11v0.02c0,1.28,0.92,2.04,1.94,2.04c0.74,0,1.26-0.19,1.79-0.59v0.72c-0.47,0.35-1.14,0.5-1.79,0.5
			c-1.51,0-2.66-1.03-2.66-2.73c0-1.57,1.08-2.73,2.48-2.73c1.32,0,2.2,0.79,2.2,2.28v0.49H25.06z M28.29,97.51
			c-0.05-1.09-0.64-1.54-1.51-1.54c-0.82,0-1.47,0.55-1.68,1.54H28.29z"/>
		<path class="st0" d="M34.8,102.85h-0.72v-2.27c-0.18,0.12-0.66,0.23-1.08,0.23c-1.71,0-2.94-0.95-2.94-2.73
			c0-1.69,1.2-2.73,3.03-2.73c0.54,0,1.26,0.14,1.7,0.34V102.85z M34.08,96.16c-0.29-0.1-0.61-0.16-0.98-0.16
			c-1.45,0-2.31,0.79-2.31,2.07c0,1.26,0.86,2.1,2.22,2.1c0.43,0,0.72-0.07,1.08-0.2V96.16z"/>
		<path class="st0" d="M40.68,100.63c-0.64,0.12-1.28,0.18-1.82,0.18c-1.51,0-2.38-0.52-2.38-1.82v-3.53h0.72v3.49
			c0,0.98,0.78,1.24,1.61,1.24c0.36,0,0.77-0.02,1.15-0.07v-4.65h0.72V100.63z"/>
		<path class="st0" d="M42.3,93.83c0-0.3,0.25-0.54,0.54-0.54c0.3,0,0.54,0.24,0.54,0.54c0,0.29-0.24,0.54-0.54,0.54
			C42.55,94.37,42.3,94.12,42.3,93.83z M43.2,100.69h-0.72v-5.23h0.72V100.69z"/>
		<path class="st0" d="M45.72,100.69H45v-4.75c0.55-0.35,1.22-0.56,1.94-0.56c0.29,0,0.58,0.04,0.88,0.11v0.71
			c-0.31-0.11-0.68-0.13-0.92-0.13c-0.52,0-0.9,0.11-1.18,0.26V100.69z"/>
		<path class="st0" d="M49.1,98.11v0.02c0,1.28,0.92,2.04,1.94,2.04c0.74,0,1.26-0.19,1.79-0.59v0.72c-0.47,0.35-1.14,0.5-1.79,0.5
			c-1.51,0-2.66-1.03-2.66-2.73c0-1.57,1.08-2.73,2.48-2.73c1.32,0,2.2,0.79,2.2,2.28v0.49H49.1z M52.34,97.51
			c-0.05-1.09-0.64-1.54-1.51-1.54c-0.82,0-1.47,0.55-1.68,1.54H52.34z"/>
		<path class="st0" d="M59.43,97.03c0-0.67-0.43-1.02-1.1-1.02c-0.6,0-1.06,0.17-1.54,0.42v-0.68c0.44-0.24,1.01-0.41,1.62-0.41
			c1.05,0,1.74,0.47,1.74,1.64v3.61c-0.48,0.13-1.04,0.19-1.49,0.19c-1.42,0-2.36-0.44-2.36-1.55c0-1.03,0.95-1.57,2.54-1.57h0.59
			V97.03z M59.43,98.25h-0.54c-1.08,0-1.87,0.29-1.87,0.98s0.72,0.95,1.68,0.95c0.22,0,0.48-0.02,0.73-0.07V98.25z"/>
		<path class="st0" d="M65.68,96.49C65.24,96.18,64.71,96,64.22,96c-1.08,0-2.01,0.72-2.01,2.09c0,1.32,0.92,2.06,2.06,2.06
			c0.55,0,1.02-0.18,1.5-0.49v0.76c-0.52,0.26-1.02,0.4-1.57,0.4c-1.46,0-2.72-1.02-2.72-2.73c0-1.75,1.29-2.73,2.71-2.73
			c0.58,0,1.03,0.13,1.5,0.4V96.49z"/>
		<path class="st0" d="M71.23,100.63c-0.64,0.12-1.28,0.18-1.82,0.18c-1.51,0-2.38-0.52-2.38-1.82v-3.53h0.72v3.49
			c0,0.98,0.78,1.24,1.61,1.24c0.36,0,0.77-0.02,1.15-0.07v-4.65h0.72V100.63z"/>
		<path class="st0" d="M72.31,95.46h0.8v-1.27h0.72v1.27h1.48v0.61h-1.48v3.19c0,0.67,0.26,0.94,0.76,0.94
			c0.34,0,0.61-0.11,0.97-0.29v0.64c-0.31,0.16-0.67,0.26-1.13,0.26c-0.76,0-1.32-0.4-1.32-1.48v-3.26h-0.8V95.46z"/>
		<path class="st0" d="M77.03,98.11v0.02c0,1.28,0.92,2.04,1.94,2.04c0.74,0,1.26-0.19,1.79-0.59v0.72c-0.47,0.35-1.14,0.5-1.79,0.5
			c-1.51,0-2.66-1.03-2.66-2.73c0-1.57,1.08-2.73,2.48-2.73c1.32,0,2.2,0.79,2.2,2.28v0.49H77.03z M80.26,97.51
			c-0.05-1.09-0.64-1.54-1.51-1.54c-0.82,0-1.47,0.55-1.68,1.54H80.26z"/>
		<path class="st0" d="M84.65,95.68c0.48-0.18,1.15-0.34,1.82-0.34c1.8,0,2.89,0.94,2.89,2.73c0,1.7-1.13,2.73-2.84,2.73
			c-0.42,0-0.88-0.08-1.15-0.22v2.25h-0.72V95.68z M85.37,99.97c0.34,0.14,0.71,0.22,1.15,0.22c1.27,0,2.11-0.78,2.11-2.11
			c0-1.28-0.78-2.07-2.16-2.07c-0.41,0-0.83,0.05-1.1,0.14V99.97z"/>
		<path class="st0" d="M90.46,99.57c0.44,0.4,0.9,0.62,1.47,0.62c0.66,0,1.08-0.25,1.08-0.84c0-0.62-0.46-0.79-1.28-1.07
			c-0.92-0.31-1.32-0.7-1.32-1.54c0-0.92,0.7-1.42,1.64-1.42c0.52,0,1.02,0.11,1.43,0.4v0.78c-0.41-0.34-0.83-0.56-1.43-0.56
			c-0.58,0-0.95,0.31-0.95,0.8c0,0.48,0.29,0.73,1.09,0.98c0.91,0.28,1.52,0.62,1.52,1.57c0,1.03-0.8,1.5-1.79,1.5
			c-0.59,0-1.15-0.17-1.47-0.42V99.57z"/>
		<path class="st0" d="M96.8,100.22l1.73-4.76h0.74l-2.83,7.39h-0.71l0.71-1.81l-2.18-5.58h0.79L96.8,100.22z"/>
		<path class="st0" d="M104.05,96.49c-0.44-0.31-0.97-0.49-1.46-0.49c-1.08,0-2.01,0.72-2.01,2.09c0,1.32,0.92,2.06,2.06,2.06
			c0.55,0,1.02-0.18,1.5-0.49v0.76c-0.52,0.26-1.02,0.4-1.57,0.4c-1.46,0-2.72-1.02-2.72-2.73c0-1.75,1.29-2.73,2.71-2.73
			c0.58,0,1.03,0.13,1.5,0.4V96.49z"/>
		<path class="st0" d="M105.51,92.53h0.72v3.08c0.4-0.14,0.98-0.28,1.54-0.28c1.26,0,2.06,0.52,2.06,1.82v3.53h-0.72v-3.38
			c0-1.07-0.75-1.29-1.46-1.29c-0.55,0-1.06,0.12-1.42,0.24v4.44h-0.72V92.53z"/>
		<path class="st0" d="M111.39,93.83c0-0.3,0.25-0.54,0.54-0.54c0.3,0,0.54,0.24,0.54,0.54c0,0.29-0.24,0.54-0.54,0.54
			C111.65,94.37,111.39,94.12,111.39,93.83z M112.29,100.69h-0.72v-5.23h0.72V100.69z"/>
		<path class="st0" d="M116.8,97.03c0-0.67-0.43-1.02-1.1-1.02c-0.6,0-1.06,0.17-1.54,0.42v-0.68c0.44-0.24,1.01-0.41,1.62-0.41
			c1.05,0,1.74,0.47,1.74,1.64v3.61c-0.48,0.13-1.04,0.19-1.49,0.19c-1.42,0-2.36-0.44-2.36-1.55c0-1.03,0.95-1.57,2.54-1.57h0.59
			V97.03z M116.8,98.25h-0.54c-1.08,0-1.87,0.29-1.87,0.98s0.72,0.95,1.68,0.95c0.22,0,0.48-0.02,0.73-0.07V98.25z"/>
		<path class="st0" d="M118.52,95.46h0.8v-1.27h0.72v1.27h1.48v0.61h-1.48v3.19c0,0.67,0.26,0.94,0.76,0.94
			c0.34,0,0.61-0.11,0.97-0.29v0.64c-0.31,0.16-0.67,0.26-1.13,0.26c-0.76,0-1.32-0.4-1.32-1.48v-3.26h-0.8V95.46z"/>
		<path class="st0" d="M123.75,100.69h-0.72v-4.75c0.55-0.35,1.22-0.56,1.94-0.56c0.29,0,0.58,0.04,0.88,0.11v0.71
			c-0.31-0.11-0.68-0.13-0.92-0.13c-0.52,0-0.9,0.11-1.18,0.26V100.69z"/>
		<path class="st0" d="M126.81,93.83c0-0.3,0.25-0.54,0.54-0.54c0.3,0,0.54,0.24,0.54,0.54c0,0.29-0.24,0.54-0.54,0.54
			C127.07,94.37,126.81,94.12,126.81,93.83z M127.71,100.69h-0.72v-5.23h0.72V100.69z"/>
		<path class="st0" d="M133.33,96.49c-0.44-0.31-0.97-0.49-1.46-0.49c-1.08,0-2.01,0.72-2.01,2.09c0,1.32,0.92,2.06,2.06,2.06
			c0.55,0,1.02-0.18,1.5-0.49v0.76c-0.52,0.26-1.02,0.4-1.57,0.4c-1.46,0-2.72-1.02-2.72-2.73c0-1.75,1.29-2.73,2.71-2.73
			c0.58,0,1.03,0.13,1.5,0.4V96.49z"/>
		<path class="st0" d="M137.07,92.53h0.72v3.08c0.4-0.14,0.98-0.28,1.54-0.28c1.26,0,2.06,0.52,2.06,1.82v3.53h-0.72v-3.38
			c0-1.07-0.75-1.29-1.46-1.29c-0.55,0-1.06,0.12-1.42,0.24v4.44h-0.72V92.53z"/>
		<path class="st0" d="M145.36,95.34c1.56,0,2.63,1.12,2.63,2.73s-1.07,2.73-2.63,2.73c-1.56,0-2.63-1.12-2.63-2.73
			S143.8,95.34,145.36,95.34z M145.36,95.96c-1.1,0-1.89,0.84-1.89,2.11c0,1.27,0.79,2.11,1.89,2.11c1.1,0,1.9-0.84,1.9-2.11
			C147.26,96.8,146.47,95.96,145.36,95.96z"/>
		<path class="st0" d="M149.08,99.57c0.44,0.4,0.9,0.62,1.47,0.62c0.66,0,1.08-0.25,1.08-0.84c0-0.62-0.46-0.79-1.28-1.07
			c-0.92-0.31-1.32-0.7-1.32-1.54c0-0.92,0.7-1.42,1.64-1.42c0.52,0,1.02,0.11,1.43,0.4v0.78c-0.41-0.34-0.83-0.56-1.43-0.56
			c-0.58,0-0.95,0.31-0.95,0.8c0,0.48,0.29,0.73,1.09,0.98c0.91,0.28,1.52,0.62,1.52,1.57c0,1.03-0.8,1.5-1.79,1.5
			c-0.59,0-1.15-0.17-1.47-0.42V99.57z"/>
		<path class="st0" d="M153.79,95.68c0.48-0.18,1.15-0.34,1.82-0.34c1.8,0,2.89,0.94,2.89,2.73c0,1.7-1.13,2.73-2.84,2.73
			c-0.42,0-0.88-0.08-1.15-0.22v2.25h-0.72V95.68z M154.51,99.97c0.34,0.14,0.71,0.22,1.15,0.22c1.27,0,2.11-0.78,2.11-2.11
			c0-1.28-0.78-2.07-2.16-2.07c-0.41,0-0.83,0.05-1.1,0.14V99.97z"/>
		<path class="st0" d="M159.73,93.83c0-0.3,0.25-0.54,0.54-0.54c0.3,0,0.54,0.24,0.54,0.54c0,0.29-0.24,0.54-0.54,0.54
			C159.98,94.37,159.73,94.12,159.73,93.83z M160.63,100.69h-0.72v-5.23h0.72V100.69z"/>
		<path class="st0" d="M161.71,95.46h0.8v-1.27h0.72v1.27h1.48v0.61h-1.48v3.19c0,0.67,0.26,0.94,0.76,0.94
			c0.34,0,0.61-0.11,0.97-0.29v0.64c-0.31,0.16-0.67,0.26-1.13,0.26c-0.76,0-1.32-0.4-1.32-1.48v-3.26h-0.8V95.46z"/>
		<path class="st0" d="M168.93,97.03c0-0.67-0.43-1.02-1.1-1.02c-0.6,0-1.06,0.17-1.54,0.42v-0.68c0.44-0.24,1.01-0.41,1.62-0.41
			c1.06,0,1.74,0.47,1.74,1.64v3.61c-0.48,0.13-1.04,0.19-1.49,0.19c-1.42,0-2.36-0.44-2.36-1.55c0-1.03,0.95-1.57,2.54-1.57h0.59
			V97.03z M168.93,98.25h-0.54c-1.08,0-1.87,0.29-1.87,0.98s0.72,0.95,1.68,0.95c0.22,0,0.48-0.02,0.73-0.07V98.25z"/>
		<path class="st0" d="M172.09,100.69h-0.72v-8.16h0.72V100.69z"/>
		<path class="st0" d="M173.71,93.83c0-0.3,0.25-0.54,0.54-0.54c0.3,0,0.54,0.24,0.54,0.54c0,0.29-0.24,0.54-0.54,0.54
			C173.96,94.37,173.71,94.12,173.71,93.83z M174.61,100.69h-0.72v-5.23h0.72V100.69z"/>
		<path class="st0" d="M180,100.69h-4.08v-0.62l3.13-3.99h-2.97v-0.61h3.83v0.62l-3.18,3.99H180V100.69z"/>
		<path class="st0" d="M184.01,97.03c0-0.67-0.43-1.02-1.1-1.02c-0.6,0-1.06,0.17-1.54,0.42v-0.68c0.44-0.24,1.01-0.41,1.62-0.41
			c1.06,0,1.74,0.47,1.74,1.64v3.61c-0.48,0.13-1.04,0.19-1.49,0.19c-1.42,0-2.36-0.44-2.36-1.55c0-1.03,0.95-1.57,2.54-1.57h0.59
			V97.03z M184.01,98.25h-0.54c-1.08,0-1.87,0.29-1.87,0.98s0.72,0.95,1.68,0.95c0.22,0,0.48-0.02,0.73-0.07V98.25z"/>
		<path class="st0" d="M185.73,95.46h0.8v-1.27h0.72v1.27h1.48v0.61h-1.48v3.19c0,0.67,0.26,0.94,0.76,0.94
			c0.34,0,0.61-0.11,0.97-0.29v0.64c-0.31,0.16-0.67,0.26-1.13,0.26c-0.76,0-1.32-0.4-1.32-1.48v-3.26h-0.8V95.46z"/>
		<path class="st0" d="M190.06,93.83c0-0.3,0.25-0.54,0.54-0.54c0.3,0,0.54,0.24,0.54,0.54c0,0.29-0.24,0.54-0.54,0.54
			C190.31,94.37,190.06,94.12,190.06,93.83z M190.96,100.69h-0.72v-5.23h0.72V100.69z"/>
		<path class="st0" d="M194.99,95.34c1.56,0,2.63,1.12,2.63,2.73s-1.07,2.73-2.63,2.73c-1.56,0-2.63-1.12-2.63-2.73
			S193.43,95.34,194.99,95.34z M194.99,95.96c-1.1,0-1.89,0.84-1.89,2.11c0,1.27,0.79,2.11,1.89,2.11c1.1,0,1.9-0.84,1.9-2.11
			C196.89,96.8,196.09,95.96,194.99,95.96z"/>
		<path class="st0" d="M199.02,95.74c0.7-0.25,1.49-0.4,2.2-0.4c1.32,0,2.12,0.52,2.12,1.82v3.53h-0.72v-3.38
			c0-1.07-0.75-1.29-1.46-1.29c-0.55,0-1.04,0.1-1.42,0.19v4.49h-0.72V95.74z"/>
		<path class="st0" d="M211.71,100.62c-0.56,0.13-1.15,0.19-1.7,0.19c-1.81,0-3.03-0.98-3.03-2.73c0-1.76,1.32-2.73,2.88-2.73
			c0.4,0,0.88,0.08,1.14,0.24v-3.05h0.72V100.62z M210.99,96.23c-0.26-0.14-0.66-0.24-1.14-0.24c-1.21,0-2.15,0.74-2.15,2.09
			c0,1.33,0.92,2.1,2.3,2.1c0.34,0,0.67-0.01,0.98-0.06V96.23z"/>
		<path class="st0" d="M217.59,100.63c-0.64,0.12-1.28,0.18-1.82,0.18c-1.51,0-2.38-0.52-2.38-1.82v-3.53h0.72v3.49
			c0,0.98,0.78,1.24,1.61,1.24c0.36,0,0.77-0.02,1.15-0.07v-4.65h0.72V100.63z"/>
		<path class="st0" d="M219.71,98.11v0.02c0,1.28,0.92,2.04,1.94,2.04c0.74,0,1.26-0.19,1.79-0.59v0.72
			c-0.47,0.35-1.14,0.5-1.79,0.5c-1.51,0-2.66-1.03-2.66-2.73c0-1.57,1.08-2.73,2.48-2.73c1.32,0,2.2,0.79,2.2,2.28v0.49H219.71z
			 M222.95,97.51c-0.05-1.09-0.64-1.54-1.51-1.54c-0.82,0-1.47,0.55-1.68,1.54H222.95z"/>
		<path class="st0" d="M226.61,95.46h0.8v-1.27h0.72v1.27h1.48v0.61h-1.48v3.19c0,0.67,0.26,0.94,0.76,0.94
			c0.34,0,0.61-0.11,0.97-0.29v0.64c-0.31,0.16-0.67,0.26-1.13,0.26c-0.76,0-1.32-0.4-1.32-1.48v-3.26h-0.8V95.46z"/>
		<path class="st0" d="M233.23,95.34c1.56,0,2.63,1.12,2.63,2.73s-1.07,2.73-2.63,2.73c-1.56,0-2.63-1.12-2.63-2.73
			S231.68,95.34,233.23,95.34z M233.23,95.96c-1.1,0-1.89,0.84-1.89,2.11c0,1.27,0.79,2.11,1.89,2.11c1.1,0,1.9-0.84,1.9-2.11
			C235.13,96.8,234.34,95.96,233.23,95.96z"/>
		<path class="st0" d="M18.59,106.83c0-0.3,0.25-0.54,0.54-0.54c0.3,0,0.54,0.24,0.54,0.54c0,0.29-0.24,0.54-0.54,0.54
			C18.84,107.37,18.59,107.12,18.59,106.83z M19.49,113.69h-0.72v-5.23h0.72V113.69z"/>
		<path class="st0" d="M27.94,110.19c0-0.97-0.66-1.2-1.22-1.2c-0.62,0-1.22,0.16-1.54,0.3c0.1,0.23,0.16,0.52,0.16,0.86v3.54h-0.72
			v-3.5c0-0.97-0.64-1.2-1.24-1.2c-0.59,0-1.05,0.12-1.38,0.24v4.46h-0.72v-4.89c0.68-0.28,1.4-0.46,2.1-0.46
			c0.61,0,1.08,0.13,1.4,0.41c0.62-0.24,1.3-0.41,1.93-0.41c1.26,0,1.94,0.52,1.94,1.82v3.53h-0.72V110.19z"/>
		<path class="st0" d="M37.06,110.19c0-0.97-0.66-1.2-1.22-1.2c-0.62,0-1.22,0.16-1.54,0.3c0.1,0.23,0.16,0.52,0.16,0.86v3.54h-0.72
			v-3.5c0-0.97-0.64-1.2-1.24-1.2c-0.59,0-1.05,0.12-1.38,0.24v4.46h-0.72v-4.89c0.68-0.28,1.4-0.46,2.1-0.46
			c0.61,0,1.08,0.13,1.4,0.41c0.62-0.24,1.3-0.41,1.93-0.41c1.26,0,1.94,0.52,1.94,1.82v3.53h-0.72V110.19z"/>
		<path class="st0" d="M39.35,106.83c0-0.3,0.25-0.54,0.54-0.54c0.3,0,0.54,0.24,0.54,0.54c0,0.29-0.24,0.54-0.54,0.54
			C39.6,107.37,39.35,107.12,39.35,106.83z M40.25,113.69h-0.72v-5.23h0.72V113.69z"/>
		<path class="st0" d="M42.05,108.74c0.7-0.25,1.49-0.4,2.2-0.4c1.32,0,2.12,0.52,2.12,1.82v3.53h-0.72v-3.38
			c0-1.07-0.75-1.29-1.46-1.29c-0.55,0-1.04,0.1-1.42,0.19v4.49h-0.72V108.74z"/>
		<path class="st0" d="M48.43,111.11v0.02c0,1.28,0.92,2.04,1.94,2.04c0.74,0,1.26-0.19,1.79-0.59v0.72
			c-0.47,0.35-1.14,0.5-1.79,0.5c-1.51,0-2.66-1.03-2.66-2.73c0-1.57,1.08-2.73,2.48-2.73c1.32,0,2.2,0.79,2.2,2.28v0.49H48.43z
			 M51.67,110.51c-0.05-1.09-0.64-1.54-1.51-1.54c-0.82,0-1.47,0.55-1.68,1.54H51.67z"/>
		<path class="st0" d="M53.77,108.74c0.7-0.25,1.49-0.4,2.2-0.4c1.32,0,2.12,0.52,2.12,1.82v3.53h-0.72v-3.38
			c0-1.07-0.75-1.29-1.46-1.29c-0.55,0-1.04,0.1-1.42,0.19v4.49h-0.72V108.74z"/>
		<path class="st0" d="M59.11,108.46h0.8v-1.27h0.72v1.27h1.48v0.61h-1.48v3.19c0,0.67,0.26,0.94,0.76,0.94
			c0.34,0,0.61-0.11,0.97-0.29v0.64c-0.31,0.16-0.67,0.26-1.13,0.26c-0.76,0-1.32-0.4-1.32-1.48v-3.26h-0.8V108.46z"/>
		<path class="st0" d="M66.62,113.69H65.9v-4.75c0.55-0.35,1.22-0.56,1.94-0.56c0.29,0,0.58,0.04,0.88,0.11v0.71
			c-0.31-0.11-0.68-0.13-0.92-0.13c-0.52,0-0.9,0.11-1.18,0.26V113.69z"/>
		<path class="st0" d="M69.68,106.83c0-0.3,0.25-0.54,0.54-0.54c0.3,0,0.54,0.24,0.54,0.54c0,0.29-0.24,0.54-0.54,0.54
			C69.93,107.37,69.68,107.12,69.68,106.83z M70.58,113.69h-0.72v-5.23h0.72V113.69z"/>
		<path class="st0" d="M72.07,112.57c0.44,0.4,0.9,0.62,1.47,0.62c0.66,0,1.08-0.25,1.08-0.84c0-0.62-0.46-0.79-1.28-1.07
			c-0.92-0.31-1.32-0.7-1.32-1.54c0-0.92,0.7-1.42,1.64-1.42c0.52,0,1.02,0.11,1.43,0.4v0.78c-0.41-0.34-0.83-0.56-1.43-0.56
			c-0.58,0-0.95,0.31-0.95,0.8c0,0.48,0.29,0.73,1.09,0.98c0.91,0.28,1.52,0.62,1.52,1.57c0,1.03-0.8,1.5-1.79,1.5
			c-0.59,0-1.15-0.17-1.47-0.42V112.57z"/>
		<path class="st0" d="M77.49,113.69h-0.72v-8.16h0.72V113.69z M77.53,110.86l2.65-2.4h1.01l-2.71,2.37l2.76,2.85h-0.96
			L77.53,110.86z"/>
		<path class="st0" d="M86.77,108.34c1.56,0,2.63,1.12,2.63,2.73s-1.07,2.73-2.63,2.73c-1.56,0-2.63-1.12-2.63-2.73
			S85.21,108.34,86.77,108.34z M86.77,108.96c-1.1,0-1.89,0.84-1.89,2.11c0,1.27,0.79,2.11,1.89,2.11c1.1,0,1.9-0.84,1.9-2.11
			C88.66,109.8,87.87,108.96,86.77,108.96z"/>
		<path class="st0" d="M91.66,113.69h-0.72v-4.62h-0.8v-0.61h0.8v-1.31c0-1.09,0.56-1.74,1.61-1.74c0.4,0,0.68,0.08,0.94,0.26v0.68
			c-0.25-0.18-0.54-0.31-0.92-0.31c-0.55,0-0.9,0.26-0.9,1.12v1.3h1.44v0.61h-1.44V113.69z"/>
		<path class="st0" d="M96,112.57c0.44,0.4,0.9,0.62,1.47,0.62c0.66,0,1.08-0.25,1.08-0.84c0-0.62-0.46-0.79-1.28-1.07
			c-0.92-0.31-1.32-0.7-1.32-1.54c0-0.92,0.7-1.42,1.64-1.42c0.52,0,1.02,0.11,1.43,0.4v0.78c-0.41-0.34-0.83-0.56-1.43-0.56
			c-0.58,0-0.95,0.31-0.95,0.8c0,0.48,0.29,0.73,1.09,0.98c0.91,0.28,1.52,0.62,1.52,1.57c0,1.03-0.8,1.5-1.79,1.5
			c-0.59,0-1.15-0.17-1.47-0.42V112.57z"/>
		<path class="st0" d="M104.78,113.63c-0.64,0.12-1.28,0.18-1.82,0.18c-1.51,0-2.38-0.52-2.38-1.82v-3.53h0.72v3.49
			c0,0.98,0.78,1.24,1.61,1.24c0.36,0,0.77-0.02,1.15-0.07v-4.65h0.72V113.63z"/>
		<path class="st0" d="M106.4,106.83c0-0.3,0.25-0.54,0.54-0.54c0.3,0,0.54,0.24,0.54,0.54c0,0.29-0.24,0.54-0.54,0.54
			C106.65,107.37,106.4,107.12,106.4,106.83z M107.3,113.69h-0.72v-5.23h0.72V113.69z"/>
		<path class="st0" d="M112.91,109.49c-0.44-0.31-0.97-0.49-1.46-0.49c-1.08,0-2.01,0.72-2.01,2.09c0,1.32,0.92,2.06,2.06,2.06
			c0.55,0,1.02-0.18,1.5-0.49v0.76c-0.52,0.26-1.02,0.4-1.57,0.4c-1.46,0-2.72-1.02-2.72-2.73c0-1.75,1.29-2.73,2.71-2.73
			c0.58,0,1.03,0.13,1.5,0.4V109.49z"/>
		<path class="st0" d="M114.2,106.83c0-0.3,0.25-0.54,0.54-0.54c0.3,0,0.54,0.24,0.54,0.54c0,0.29-0.24,0.54-0.54,0.54
			C114.45,107.37,114.2,107.12,114.2,106.83z M115.1,113.69h-0.72v-5.23h0.72V113.69z"/>
		<path class="st0" d="M121.24,113.62c-0.56,0.13-1.15,0.19-1.7,0.19c-1.81,0-3.03-0.98-3.03-2.73c0-1.76,1.32-2.73,2.88-2.73
			c0.4,0,0.88,0.08,1.14,0.24v-3.05h0.72V113.62z M120.52,109.23c-0.26-0.14-0.66-0.24-1.14-0.24c-1.21,0-2.15,0.74-2.15,2.09
			c0,1.33,0.92,2.1,2.3,2.1c0.34,0,0.67-0.01,0.98-0.06V109.23z"/>
		<path class="st0" d="M123.37,111.11v0.02c0,1.28,0.92,2.04,1.94,2.04c0.74,0,1.26-0.19,1.79-0.59v0.72
			c-0.47,0.35-1.14,0.5-1.79,0.5c-1.51,0-2.66-1.03-2.66-2.73c0-1.57,1.08-2.73,2.48-2.73c1.32,0,2.19,0.79,2.19,2.28v0.49H123.37z
			 M126.61,110.51c-0.05-1.09-0.64-1.54-1.51-1.54c-0.82,0-1.47,0.55-1.68,1.54H126.61z"/>
	</g>
</g>
</svg>
